<?xml version="1.0" encoding="UTF-8"?><svg id="Layer_3" xmlns="http://www.w3.org/2000/svg" viewBox="0 0 480 640"><defs><style>.cls-1{fill:#49b749;}</style></defs><path class="cls-1" d="m89.69,325.3c.23.23.46.46.69.69-.23-.23-.44-.48-.69-.69Z"/><path class="cls-1" d="m88.31,321.85c.23.23.46.46.69.69-.25-.21-.43-.49-.69-.69Z"/><path class="cls-1" d="m342.58,549.86c-.23-.23-.46-.46-.69-.69.23.23.44.48.69.69Z"/><path class="cls-1" d="m66.2,251.37c.23.23.46.46.69.69-.23-.23-.44-.48-.69-.69Z"/><path class="cls-1" d="m162.93,388.87c-.23-.23-.46-.46-.69-.69.24.22.45.47.69.69Z"/><path class="cls-1" d="m90.38,37.86c-.23.23-.46.46-.69.69.25-.21.46-.46.69-.69Z"/><path class="cls-1" d="m83.47,46.85c-.23.23-.46.46-.69.69.26-.2.44-.48.69-.69Z"/><path class="cls-1" d="m84.16,45.46c-.23.23-.46.46-.69.69.25-.21.46-.46.69-.69Z"/><path class="cls-1" d="m85.54,44.08c-.23.23-.46.46-.69.69.24-.22.45-.47.69-.69Z"/><path class="cls-1" d="m86.23,42.7c-.23.23-.46.46-.69.69.25-.21.46-.46.69-.69Z"/><path class="cls-1" d="m97.29,31.65c-.23.23-.46.46-.69.69.21-.25.49-.43.69-.69Z"/><path class="cls-1" d="m104.89,33.72c-.23-.23-.46-.46-.69-.69.23.23.44.48.69.69Z"/><path class="cls-1" d="m95.91,32.34c-.23.23-.46.46-.69.69.23-.23.48-.44.69-.69Z"/><path class="cls-1" d="m89.69,39.25c-.23.23-.46.46-.69.69.24-.22.45-.47.69-.69Z"/><path class="cls-1" d="m73.79,63.44c-.23.23-.45.45-.68.68.24-.21.44-.46.68-.68Z"/><path class="cls-1" d="m82.78,48.23c-.23.23-.46.46-.69.69.24-.22.45-.47.69-.69Z"/><path class="cls-1" d="m68.27,76.56c-.23.23-.46.46-.69.69.26-.2.44-.48.69-.69Z"/><path class="cls-1" d="m70.34,71.72c-.23.23-.46.46-.69.69.25-.21.46-.46.69-.69Z"/><path class="cls-1" d="m74.49,62.05c-.23.23-.46.46-.69.69.26-.2.44-.48.69-.69Z"/><path class="cls-1" d="m72.41,66.19c-.23.23-.46.46-.69.69.26-.2.44-.48.69-.69Z"/><path class="cls-1" d="m81.4,50.3c-.23.23-.46.46-.69.69.24-.22.45-.47.69-.69Z"/><path class="cls-1" d="m82.09,48.92c-.23.23-.46.46-.69.69.25-.21.46-.46.69-.69Z"/><path class="cls-1" d="m79.32,53.07h0c-.23.23-.46.46-.69.69.26-.2.44-.48.69-.69Z"/><path class="cls-1" d="m78.63,54.45c-.23.23-.46.46-.69.69.24-.22.45-.47.69-.69Z"/><path class="cls-1" d="m80.01,51.68c-.23.23-.46.46-.69.69.25-.21.46-.46.69-.69Z"/><path class="cls-1" d="m261.04,133.22c-.23-.23-.46-.46-.69-.69.22.24.47.45.69.69Z"/><path class="cls-1" d="m259.66,131.83c-.23-.23-.46-.46-.69-.69.24.22.45.47.69.69Z"/><path class="cls-1" d="m213.37,129.76c-.23.23-.46.46-.69.69.26-.2.44-.48.69-.69Z"/><path class="cls-1" d="m212.68,131.14c-.23.23-.46.46-.69.69.26-.2.44-.48.69-.69Z"/><path class="cls-1" d="m219.59,124.23c-.23.23-.46.46-.69.69.21-.25.49-.43.69-.69Z"/><path class="cls-1" d="m218.21,124.92c-.23.23-.46.46-.69.69.21-.25.49-.43.69-.69Z"/><path class="cls-1" d="m216.82,125.62c-.23.23-.46.46-.69.69.23-.23.48-.44.69-.69Z"/><path class="cls-1" d="m214.06,128.38c-.23.23-.46.46-.69.69.25-.21.46-.46.69-.69Z"/><path class="cls-1" d="m209.22,138.74c-.23.23-.46.46-.69.69.26-.2.44-.48.69-.69Z"/><path class="cls-1" d="m211.99,132.53c-.23.23-.46.46-.69.69.26-.2.44-.48.69-.69Z"/><path class="cls-1" d="m208.53,140.13c-.23.23-.46.46-.69.69.24-.22.45-.47.69-.69Z"/><path class="cls-1" d="m210.6,135.98c-.23.23-.46.46-.69.69.26-.2.44-.48.69-.69Z"/><path class="cls-1" d="m209.91,137.36c-.23.23-.46.46-.69.69.26-.2.44-.48.69-.69Z"/><path class="cls-1" d="m254.83,126.31c-.23-.23-.46-.46-.69-.69.21.25.46.46.69.69Z"/><path class="cls-1" d="m207.84,140.82c-.23.23-.46.46-.69.69.25-.21.46-.46.69-.69Z"/><path class="cls-1" d="m252.06,124.92c-.23-.23-.46-.46-.69-.69.2.26.48.44.69.69Z"/><path class="cls-1" d="m253.44,125.62l-.69-.69c.2.26.48.44.69.69Z"/><path class="cls-1" d="m258.97,130.45c-.23-.23-.46-.46-.69-.69.23.23.44.48.69.69Z"/><path class="cls-1" d="m230.64,126.31c-.23-.23-.46-.46-.69-.69.2.26.48.44.69.69Z"/><path class="cls-1" d="m226.5,124.92c-.23-.23-.46-.46-.69-.69.2.26.48.44.69.69Z"/><path class="cls-1" d="m228.57,125.62c-.23-.23-.46-.46-.69-.69.2.26.48.44.69.69Z"/><path class="cls-1" d="m234.79,129.76c-.23-.23-.46-.46-.69-.69.21.25.46.46.69.69Z"/><path class="cls-1" d="m238.93,129.07c-.23.23-.46.46-.69.69.25-.21.46-.46.69-.69Z"/><path class="cls-1" d="m243.77,124.23c-.23.23-.46.46-.69.69.23-.23.48-.44.69-.69Z"/><path class="cls-1" d="m104.2,84.85c-.23-.23-.46-.46-.69-.69.25.21.43.49.69.69Z"/><path class="cls-1" d="m146.35,135.98c-.23-.23-.46-.46-.69-.69.25.21.43.49.69.69Z"/><path class="cls-1" d="m142.2,124.92c-.23-.23-.46-.46-.69-.69.25.21.43.49.69.69Z"/><path class="cls-1" d="m144.96,133.22c-.23-.23-.46-.46-.69-.69.25.21.43.49.69.69Z"/><path class="cls-1" d="m140.82,115.25c-.23-.23-.46-.46-.69-.69.25.21.43.49.69.69Z"/><path class="cls-1" d="m144.27,131.83c-.23-.23-.46-.46-.69-.69.23.23.44.48.69.69Z"/><path class="cls-1" d="m143.58,131.14c-.23-.23-.46-.46-.69-.69.24.22.45.47.69.69Z"/><path class="cls-1" d="m106.96,98.67c-.23-.23-.46-.46-.69-.69.25.21.43.49.69.69Z"/><path class="cls-1" d="m104.89,91.07c-.23-.23-.46-.46-.69-.69.25.21.43.49.69.69Z"/><path class="cls-1" d="m206.46,142.89c-.23.23-.46.46-.69.69.26-.2.44-.48.69-.69Z"/><path class="cls-1" d="m138.75,100.74c-.23-.23-.46-.46-.69-.69.23.23.44.48.69.69Z"/><path class="cls-1" d="m139.44,102.12c-.23-.23-.46-.46-.69-.69.25.21.43.49.69.69Z"/><path class="cls-1" d="m138.05,100.05c-.23-.23-.46-.46-.69-.69.21.25.46.46.69.69Z"/><path class="cls-1" d="m164.31,146.34c-.23-.23-.46-.46-.69-.69.2.26.48.44.69.69Z"/><path class="cls-1" d="m204.39,147.04c-.23.23-.46.46-.69.69.26-.2.44-.48.69-.69Z"/><path class="cls-1" d="m205.77,144.96c-.23.23-.46.46-.69.69.26-.2.44-.48.69-.69Z"/><path class="cls-1" d="m155.33,143.58c-.23-.23-.46-.46-.69-.69.2.26.48.44.69.69Z"/><path class="cls-1" d="m152.56,142.2c-.23-.23-.46-.46-.69-.69.2.26.48.44.69.69Z"/><path class="cls-1" d="m153.95,142.89c-.23-.23-.46-.46-.69-.69.2.26.48.44.69.69Z"/><path class="cls-1" d="m160.17,145.65c-.23-.23-.46-.46-.69-.69.2.26.48.44.69.69Z"/><path class="cls-1" d="m158.78,144.96c-.23-.23-.46-.46-.69-.69.2.26.48.44.69.69Z"/><path class="cls-1" d="m157.4,144.27c-.23-.23-.46-.46-.69-.69.2.26.48.44.69.69Z"/><path class="cls-1" d="m102.12,70.34c-.23-.23-.46-.46-.69-.69.23.23.44.48.69.69Z"/><path class="cls-1" d="m375.05,43.39c-.23-.23-.46-.46-.69-.69.24.22.45.47.69.69Z"/><path class="cls-1" d="m262.43,133.91c-.23-.23-.46-.46-.69-.69.21.25.46.46.69.69Z"/><path class="cls-1" d="m395.09,87.61c-.23-.23-.46-.46-.69-.69.24.22.45.47.69.69Z"/><path class="cls-1" d="m397.85,93.83c-.23-.23-.46-.46-.69-.69.23.23.44.48.69.69Z"/><path class="cls-1" d="m393.71,84.85c-.23-.23-.46-.46-.69-.69.25.21.43.49.69.69Z"/><path class="cls-1" d="m394.4,86.23c-.23-.23-.46-.46-.69-.69.25.21.43.49.69.69Z"/><path class="cls-1" d="m334.28,86.23c-.23-.23-.46-.46-.69-.69.2.26.48.44.69.69Z"/><path class="cls-1" d="m345.34,30.95c.23.23.46.46.69.69-.25-.21-.43-.49-.69-.69Z"/><path class="cls-1" d="m348.1,40.63c.23.23.46.46.69.69-.25-.21-.43-.49-.69-.69Z"/><path class="cls-1" d="m343.96,28.19c.23.23.46.46.69.69-.25-.21-.43-.49-.69-.69Z"/><path class="cls-1" d="m343.27,26.12c.23.23.46.46.69.69-.25-.21-.43-.49-.69-.69Z"/><path class="cls-1" d="m342.58,24.05c.23.23.46.46.69.69-.25-.21-.43-.49-.69-.69Z"/><path class="cls-1" d="m338.43,87.61c-.23-.23-.46-.46-.69-.69.2.26.48.44.69.69Z"/><path class="cls-1" d="m339.81,88.3c-.23-.23-.46-.46-.69-.69.2.26.48.44.69.69Z"/><path class="cls-1" d="m348.8,82.78c-.23.23-.46.46-.69.69.26-.2.44-.48.69-.69Z"/><path class="cls-1" d="m344.65,90.38c-.23-.23-.46-.46-.69-.69.2.26.48.44.69.69Z"/><path class="cls-1" d="m349.49,51.68c.23.23.46.46.69.69-.25-.21-.43-.49-.69-.69Z"/><path class="cls-1" d="m346.03,34.41c.23.23.46.46.69.69-.25-.21-.43-.49-.69-.69Z"/><path class="cls-1" d="m354.32,14.37c-.23-.23-.46-.46-.69-.69.22.24.47.45.69.69Z"/><path class="cls-1" d="m353.63,13.68c-.23-.23-.46-.46-.69-.69.21.25.46.46.69.69Z"/><path class="cls-1" d="m361.92,22.66c-.23-.23-.46-.46-.69-.69.24.22.45.47.69.69Z"/><path class="cls-1" d="m362.61,23.35c-.23-.23-.46-.46-.69-.69.23.23.44.48.69.69Z"/><path class="cls-1" d="m341.89,21.97c-.25-.21-.43-.49-.69-.69l.69.69Z"/><path class="cls-1" d="m351.56,12.3c-.23-.23-.46-.46-.69-.69.2.26.48.44.69.69Z"/><path class="cls-1" d="m339.81,18.52c.23.23.46.46.69.69-.25-.21-.43-.49-.69-.69Z"/><path class="cls-1" d="m340.5,19.9c.23.23.46.46.69.69-.25-.21-.43-.49-.69-.69Z"/><path class="cls-1" d="m348.8,10.92c-.23-.23-.46-.46-.69-.69.2.26.48.44.69.69Z"/><path class="cls-1" d="m341.2,12.99c-.23.23-.46.46-.69.69.26-.2.44-.48.69-.69Z"/><path class="cls-1" d="m350.18,11.61c-.23-.23-.46-.46-.69-.69.2.26.48.44.69.69Z"/><path class="cls-1" d="m283.16,136.67c-.23.23-.46.46-.69.69.21-.25.49-.43.69-.69Z"/><path class="cls-1" d="m295.59,128.38c-.23.23-.46.46-.69.69.22-.24.47-.45.69-.69Z"/><path class="cls-1" d="m301.81,124.23c-.23.23-.46.46-.69.69.21-.25.49-.43.69-.69Z"/><path class="cls-1" d="m296.97,127c-.23.23-.46.46-.69.69.23-.23.48-.44.69-.69Z"/><path class="cls-1" d="m298.36,126.31c-.23.23-.46.46-.69.69.21-.25.49-.43.69-.69Z"/><path class="cls-1" d="m299.74,125.62c-.23.23-.46.46-.69.69.21-.25.49-.43.69-.69Z"/><path class="cls-1" d="m291.45,131.14c-.23.23-.46.46-.69.69.22-.24.47-.45.69-.69Z"/><path class="cls-1" d="m290.06,131.84c-.23.23-.46.46-.69.69.21-.25.49-.43.69-.69Z"/><path class="cls-1" d="m364,25.43c-.23-.23-.46-.46-.69-.69.24.22.45.47.69.69Z"/><path class="cls-1" d="m264.5,135.98c-.23-.23-.46-.46-.69-.69.22.24.47.45.69.69Z"/><path class="cls-1" d="m287.98,133.23c-.23.23-.45.45-.68.68.22-.24.47-.44.68-.68Z"/><path class="cls-1" d="m288.68,132.53c-.23.23-.46.46-.69.69.23-.23.48-.44.69-.69Z"/><path class="cls-1" d="m319.78,103.5c-.23.23-.46.46-.69.69.24-.22.45-.47.69-.69Z"/><path class="cls-1" d="m320.47,84.85c-.23.23-.46.46-.69.69.21-.25.49-.43.69-.69Z"/><path class="cls-1" d="m318.39,97.29c.23.23.46.46.69.69-.25-.21-.43-.49-.69-.69Z"/><path class="cls-1" d="m319.08,104.2c-.23.23-.46.46-.69.69.25-.21.46-.46.69-.69Z"/><path class="cls-1" d="m317.7,87.61c-.23.23-.46.46-.69.69.26-.2.44-.48.69-.69Z"/><path class="cls-1" d="m317.01,93.83l.69.69c-.25-.21-.43-.49-.69-.69Z"/><path class="cls-1" d="m304.57,122.85c-.23.23-.46.46-.69.69.21-.25.49-.43.69-.69Z"/><path class="cls-1" d="m314.94,112.49c-.23.23-.46.46-.69.69.26-.2.44-.48.69-.69Z"/><path class="cls-1" d="m313.56,114.56c-.23.23-.46.46-.69.69.26-.2.44-.48.69-.69Z"/><path class="cls-1" d="m317.7,107.65c-.23.23-.46.46-.69.69.24-.22.45-.47.69-.69Z"/><path class="cls-1" d="m316.32,109.72c-.23.23-.46.46-.69.69.26-.2.44-.48.69-.69Z"/><path class="cls-1" d="m317.01,108.34c-.23.23-.46.46-.69.69.25-.21.46-.46.69-.69Z"/><path class="cls-1" d="m380.58,53.76c-.23-.23-.46-.46-.69-.69.23.23.44.48.69.69Z"/><path class="cls-1" d="m381.27,55.14c-.23-.23-.46-.46-.69-.69.25.21.43.49.69.69Z"/><path class="cls-1" d="m381.96,56.52c-.23-.23-.46-.46-.69-.69.25.21.43.49.69.69Z"/><path class="cls-1" d="m377.82,48.23c-.23-.23-.46-.46-.69-.69.24.22.45.47.69.69Z"/><path class="cls-1" d="m372.29,38.56c-.23-.23-.46-.46-.69-.69.23.23.44.48.69.69Z"/><path class="cls-1" d="m365.38,26.81c-.23-.23-.46-.46-.69-.69.23.23.44.48.69.69Z"/><path class="cls-1" d="m372.98,39.94c-.23-.23-.46-.46-.69-.69.25.21.43.49.69.69Z"/><path class="cls-1" d="m374.36,42.01c-.23-.23-.46-.46-.69-.69.25.21.43.49.69.69Z"/><path class="cls-1" d="m371.6,37.86c-.23-.23-.46-.46-.69-.69.24.22.45.47.69.69Z"/><path class="cls-1" d="m366.76,28.88c-.23-.23-.46-.46-.69-.69.25.21.43.49.69.69Z"/><path class="cls-1" d="m366.76,29.57c.24.22.45.47.69.69-.23-.23-.46-.46-.69-.69h0Z"/><path class="cls-1" d="m370.91,36.48l-.69-.69c.25.21.43.49.69.69Z"/><path class="cls-1" d="m369.52,33.03c-.23-.23-.46-.46-.69-.69.25.21.43.49.69.69Z"/><path class="cls-1" d="m368.14,30.95l-.69-.69c.23.23.44.48.69.69Z"/><path class="cls-1" d="m377.13,46.85c-.23-.23-.46-.46-.69-.69.23.23.44.48.69.69Z"/><path class="cls-1" d="m126.24,371.67s0,0-.01,0c-.19-.26-.38-.51-.57-.77-.02.42.15.7.57.8.09.41.35.58.78.54-.25-.18-.5-.36-.75-.54,0,0,0,0,0-.01Z"/><path class="cls-1" d="m238.88,338.59c-.21-.28-.42-.57-.63-.85-.01.45.17.75.63.85Z"/><path class="cls-1" d="m422.79,207.77c-.04-.2-.02-.38.08-.56,1.11-2.12.78-4.21-.14-6.28h0c.02-1.93.07-3.87.05-5.81-.02-2.86-.11-5.71-.14-8.57,0-.6-.12-1.12-.65-1.48-.04-.43-.15-.88-.09-1.3.13-.93.04-1.78-.48-2.57h0s0,0,0,0l.06-.2-.18-.12c0-.46,0-.91.01-1.37.43-.44.7-.9.09-1.4.29-3.68-1.29-7.08-1.59-10.67-.01-.15-.27-.29-.44-.43.05-.22,0-.41-.15-.57h0c.03-.57.07-1.14.09-1.72.03-.7-.02-1.38-.7-1.82-.18-.26-.37-.52-.55-.78.08-.23.03-.43-.15-.59.04-.57.09-1.14.13-1.71.05-.71-.06-1.37-.7-1.82l-.14.09c.13-.81.19-1.59-.55-2.17.05-.78-.02-1.53-.66-2.09.18-1.16-.09-2.22-.66-3.21-.03-.06-.06-.12-.1-.18-.14-.74-.12-1.52-.65-2.14-.07-.84-.26-1.64-.75-2.34,0,0,0,0,0,0l.06-.2-.17-.12c.04-.57.04-1.13-.52-1.48-.07-.77-.16-1.54-.19-2.31-.02-.46-.1-.86-.5-1.13-.1-.74.04-1.56-.72-2.07-.05-.76-.09-1.51-.64-2.11-.13-.93.06-1.96-.84-2.66-.09-1.51-.47-2.93-1.28-4.21-.12-.92.15-1.96-.85-2.59l.09-.15c-.13-.95.03-1.97-.64-2.8.01-.77.17-1.6-.8-1.97-.19-.27-.37-.53-.56-.8.25-1.15-.3-1.79-1.32-2.13-.22-1.16.07-2.37-.76-3.48-.89-1.19-1.49-2.59-2.22-3.89l-.05-.04c-.41-.57-.81-1.13-1.22-1.69,0,0,0,0,0,0l.11-.24-.2-.18c-.24-.22-.49-.45-.6-.77,0,0,.01.01.02.01.19.25.39.51.58.76.1-.49-.17-.69-.58-.8-.4-.83.24-1.99-.82-2.61l-.02-.03c0-.42-.23-.65-.63-.73-.13-.39-.26-.77-.39-1.16-.02-.33-.05-.66-.3-.91.07-.6,0-1.14-.6-1.46-.02-.4-.25-.63-.6-.76.13-2.21-1.65-3.7-2.18-5.66,0,0,0,0,0,0l.09-.24-.2-.16c-.23-.24-.49-.46-.62-.78.21.26.41.52.62.78.08-.47-.17-.67-.56-.76.04-1.55-.51-2.91-1.41-4.15-.24-1.02-.53-2.01-1.38-2.73-.05-.42-.32-.62-.68-.74-.11-.78-.1-1.6-.7-2.23,0,0,0,0,0,0l.08-.27-.2-.19c.08-.6-.15-1.05-.64-1.38-.12-.73-.02-1.53-.65-2.11.02-.46-.22-.68-.65-.73-.11-.37-.39-.54-.73-.65.27-1.82-.47-3.34-1.4-4.81.11-.68,0-1.28-.63-1.69h0s.07-.22.07-.22l-.19-.14c.08-.43-.07-.73-.48-.88-.1-.38-.35-.57-.71-.65-.04-.53-.1-1.05-.12-1.58-.03-.68-.11-1.33-.7-1.78-.14-.43-.29-.86-.43-1.29-.02-.28-.06-.55-.25-.78.11-.64-.14-1.08-.71-1.37-.04-.75-.05-1.51-.74-2.01v-.02c0-.57-.13-1.07-.7-1.33l-.03-.04c0-.42-.24-.63-.6-.74-.1-.74.01-1.55-.63-2.13-.2-1.05-.86-1.84-1.49-2.65v-.02c-.21-.25-.47-.45-.61-.74,0,0,.01,0,.02,0h0c.2.24.39.49.59.73.05-.45-.21-.66-.59-.77-.06-.55-.2-1.06-.76-1.34-.21-1.13-.56-2.2-1.11-3.22-1.73-3.21-3.34-6.48-5.14-9.65-1.78-3.15-3.68-6.24-5.62-9.3-2.02-3.19-4.31-6.18-6.91-8.93-.54-.57-1.04-1.18-1.52-1.81-2.04-2.65-4.61-4.76-7.58-6.3-1.94-1.01-2.49-.79-3.87.7-.95,1.04-1.28,2.13-.6,3.44.26.5.35,1.12.67,1.58,2.13,3.05,2.22,6.97,4.28,10.04.12.18.18.43.2.66.13,1.98,1.05,3.72,1.61,5.57-.12,1.22-.13,2.42.7,3.44.22.52.57,1.01.65,1.55.33,2.22.58,4.44.86,6.67-.16,1.02-.37,2.05.45,2.93.04.19.1.38.18.56-.16.72-.28,1.44.01,2.15-.05.2-.02.39.08.57-.04,1.82-.09,3.64-.11,5.47,0,.59.21,1.12.63,1.55.03.2.09.39.17.58-.1,1.89-.36,3.79-.06,5.68-.03.55-.08,1.09-.09,1.64-.05,2.67.21,5.37-.7,7.96-.83.92-1.03,1.85-.05,2.81.11.21.1.42-.04.61-.83.48-.74,1.26-.64,2.03-.97,3.39-1.93,6.77-3.33,10.02-.35.81-.87,1.28-1.46,1.79-1.17.04-2.34.09-3.51.13-2.37-1.25-4.65-2.74-7.14-3.69-2.53-.96-5.26-1.38-7.91-2.03-.81-.9-1.8-.91-2.86-.58-.23-.11-.44-.09-.64.06-1.42-.13-2.9-.62-4.1.66-1.48,1.3-1.91,2.81-.8,4.53,1.14,1.77,1.39,3.85,2.12,5.76l.04,4.88c-.02.11-.03.23-.08.34-.92,2.05-1.77,4.14-2.77,6.15-2.19,4.4-4.52,8.72-8.52,11.82-.18.14-.3.35-.44.53-.61.84-1.38,1.4-2.33,1.92-1.07.58-2.15,1.19-3.18,1.84-.95.6-2.29.78-2.81,1.88-.69,1.44-2.28.86-3.22,1.65-.44.37-.89.73-1.36,1.06-.46.32-.94.83-1.44.86-1.17.09-1.87.87-2.62,1.53-1.04.91-2.09,1.73-3.31,2.41-1.28.72-2.44,1.65-3.57,2.61-1.4,1.19-3.29,1.56-4.58,2.95-.63.69-1.72.23-2.61.55-1.6.58-3.46.87-5.04.36-1.38-.45-2.71-.28-4.04-.49-.37-.48-.89-.71-1.47-.72-1.35,0-2.7.03-4.06.04-3.2-2.75-6.41-5.5-9.16-8.72-.74-.87-1.65-1.6-2.38-2.48-1-1.19-2.33-1.85-3.69-2.42-2.68-1.11-5.24-.21-6.66,2.31-.29.51-.47,1.1-1.05,1.29-1.62.54-2,2.1-2.81,3.31-.44.66-.75,1.4-1.16,2.08-.35.58-.79.6-1.44.35-1.21-.46-2.29-.94-2.76-2.29-.8-2.3-3.31-3.07-4.56-5-.19-.3-.86-.51-1.24-.43-1.34.27-2.07-.83-3.11-1.21-1.39-1.09-2.9-.86-4.42-.36-.16.05-.23.35-.35.54-1.52.55-3.11,1.25-3.76,2.71-.75,1.67-1.97,3.04-2.55,4.81-.92,2.8-2.38,5.37-3.84,7.93-.56.98-1.46,1.8-1.59,2.97-.13,1.2-1.72,1.42-1.65,2.83.04.85-.97,1.18-1.76,1.38-2.17.55-4.35,1.09-6.53,1.6-.43.1-.99.22-1.32.04-1.34-.74-2.71-.06-4.04-.23-.48-.67-.94-.7-1.39.03-.47.22-.91.06-1.36-.08-.47-.62-.95-.74-1.44-.03-.21.12-.41.13-.63.02-.32-.35-.7-.58-1.19-.59-2.63-.07-5.27-.24-7.9.05-.21.04-.41.01-.61-.08-.68-.69-1.39-.86-2.13-.08-.2.12-.4.12-.6.02-1.31-1.11-2.8-.68-4.27-.52-.34-.04-.68-.11-1.03-.12-1.95-.04-3.82-.63-5.77-.77-1.48-.11-3-.95-4.56-1.27-4.74-.98-9.19-2.64-12.77-6.03-1.65-1.56-3.4-3.13-4.59-5.02-1.31-2.09-2.09-4.53-3.01-6.85-.93-2.34-1.11-4.84-1.53-7.3-.22-1.3-.07-2.77-1.05-3.89.04-1.13.39-2.28-.2-3.38.04-1.16.4-2.33-.03-3.49,0-.45,0-.89,0-1.34.03-1.03.08-2.05.07-3.08,0-.67.12-1.4-.55-1.88l-.11.09c-.04-.78-.08-1.56-.11-2.34-.02-.47-.16-.87-.63-1.06l-.02-.02c-1.62-1.35-2.04-1.37-4.14-.09-.44-.04-.69.18-.83.56-.56.06-1.05.22-1.27.82-.41.04-.64.28-.74.66-1.41.57-2.44,1.65-3.48,2.7-.85.11-1.11.77-1.33,1.46-.53.1-1.11.1-1.3.78h0c-.23.23-.44.48-.76.58,0,0,0,0,0-.02,0,0-.02,0-.03,0,.26-.19.52-.38.78-.57-.38.04-.66.22-.81.58-.91.13-1.46.77-2.01,1.42-.43,0-.66.25-.74.65-.71.2-1.32.52-1.42,1.35-.36.16-.48.48-.54.84h0c-.52.12-1.18-.11-1.48.57-.57.04-.92.41-1.24.83h-.03c-.57,0-1.12.03-1.43.62-.41-.03-.82-.06-1.23-.08-.08-.53-.17-1.06-.78-1.27-.08-.54-.07-1.11-.62-1.45-.02-.45-.31-.61-.69-.68-.11-.52-.08-1.1-.62-1.43-.01-.56-.17-1.06-.66-1.4-.05-.57-.26-1.04-.8-1.31-.03-.57-.21-1.06-.75-1.34-.02-.56-.12-1.09-.64-1.42.01-.57-.18-1.05-.61-1.43.14-1.24-.65-1.98-1.48-2.69.02-.77.22-1.6-.63-2.11-.19-.71-.02-1.53-.66-2.09.02-1.87-.49-3.65-.88-5.45-.05-.25-.43-.44-.66-.65l.12-.13c-.07-1.43-.14-2.86-.2-4.3-.02-.48-.22-.83-.65-1.05-.55-.59-.49-1.32-.49-2.04.71-.59.57-1.18-.06-1.77,0,0,0,0,0,0l.06-.25-.21-.15c.23-.9.2-1.8.02-2.7v-9.73s0-.06,0-.1c0-.2,0-.4,0-.59,0,0,0,0,0,0,.02-1.38.04-2.76.06-4.15h0c-.04-.18-.05-.37-.05-.56,0-.03,0-.07,0-.1,0,0,0,0,0,0-.19-.02-.38-.05-.58-.07-.04-1.15-.09-2.29-.13-3.44.46-.85.2-1.76.21-2.65.72-.58.2-1.13-.09-1.68,0,0,0,0,0,0l.02-.23c.55-.47.66-1.08.61-1.77-.04-.64-.02-1.29-.02-1.94h0c.75-.69.62-1.38,0-2.06h0c.03-.44.05-.88.08-1.32.37-.11.65-.3.6-.76-.2.24-.4.49-.59.73,0,0-.01,0-.02,0,.15-.29.4-.5.61-.74v-.02c.5-.21.49-.44.06-.7.16-1.82,1.12-3.53.82-5.42.86-.81.5-1.82.44-2.79,0-1.25.04-2.5-.03-3.74-.04-.77-.55-1.24-1.34-1.25-.44-.01-.89.1-1.34.15-.21-.07-.42-.07-.63,0-.53-.21-.76.04-.81.54l.1.14c-.53.38-1.21.57-1.48,1.25-.43.08-.59.37-.62.78-.38.09-.59.33-.64.72l-.03.03c-.26.19-.46.44-.74.59-.18.29-.41.53-.72.69,0,0,0,0,0-.01.24-.23.47-.45.71-.68,0,0,0,0,0,0,0,0,0,0,0,0,0,0,0,0,0,0,.25-.2.5-.39.74-.59-.37.05-.65.22-.77.59-.43.02-.65.25-.71.67-.37.09-.61.33-.69.7-.43.06-.63.3-.58.75.2-.24.4-.49.59-.73,0,0,0,0,0,0-.14.29-.38.51-.6.74l-.19.13.07.22c-.18.35-.37.7-.55,1.05l-.04.04c-.26.17-.46.44-.76.55,0,0,0,0,0,0l-.07.04c.27-.19.55-.39.82-.58-.37.06-.68.2-.82.58h0s0,0,0,0c0,0,0,0,.01,0-1.38.74-2.29,1.89-2.8,3.35-.35.13-.6.36-.7.73-.4.05-.63.28-.68.69-.38.13-.55.4-.49.81.16-.25.32-.51.49-.76.01,0,.02,0,.03-.01-.05.34-.33.52-.52.77l-.22.13.06.25c-.4.81-1.27,1.36-1.33,2.37-.77.47-1.53.94-1.45,2.01-.83,1.06-2.11,1.85-2.12,3.42-.36.12-.6.34-.62.75-.62.28-.66.83-.66,1.41-.47.3-.76.71-.84,1.26-.55.3-.6.86-.69,1.39-.2.08-.46.13-.52.28-.48,1.09-.91,2.21-1.35,3.32l-.18.14.08.21c-.4.22-.62.55-.61,1.01-.96.65-.95,1.63-.89,2.62-.35.14-.56.38-.55.79-.6.3-.65.85-.63,1.43-.69.54-.8,1.28-.7,2.09l-.15.13.07.19c0,.2-.06.36-.14.51.07-.15.12-.32.14-.51-.4.22-.62.56-.65,1.01-.82.49-.74,1.29-.68,2.07-.18.21-.23.46-.25.73-.15.44-.31.88-.46,1.32-.4.08-.65.3-.63.75-.78.5-.68,1.3-.7,2.06-.77.47-.77,1.25-.78,2.01-.74.56-.92,1.29-.62,2.16l-.16.2.13.22c-.37.21-.56.53-.6.95h0c-.86.42-.71,1.26-.82,1.99-.84.77-.32,1.88-.67,2.76-.44.21-.62.57-.65,1.05-.03.55-.09,1.1-.14,1.65-1.33.52-1.4,1.63-1.28,2.84-.85.76-.44,1.84-.68,2.76-.61.61-.65,1.37-.61,2.17.04.68.04,1.35.06,2.03l-.21.15.05.25c-.79.62-.91,1.52-1.14,2.43-.46,1.84.04,3.67-.1,5.5l-.03.04c-.22.25-.62.5-.62.76-.01,2.02-.57,4.03-.18,6.06-.18.25-.44.49-.5.77-.45,2-.28,4.04-.25,6.07-.18,0-.33.05-.45.19-.55.29-.72.79-.74,1.37-.05,1.55-.11,3.1-.16,4.65h0c-.94,1.34-.71,2.83-.54,4.31-.04.19-.04.39.02.58,0,.51.02,1.02.03,1.54-.05.19-.1.37-.17.56-.64.48-.65.97-.02,1.48.05.91.11,1.82.16,2.73l-.21-.09c-.83.53-.69,1.03.06,1.5.15.19.17.4.05.61-.2.25-.57.5-.57.75-.04,2.09-.34,4.2.06,6.29-.36,1.24-.13,2.49-.03,3.73.01.15.25.29.42.42.02.41.04.82.06,1.22-.23.23-.46.46-.69.69-.82,2.55-1.06,5.1.14,7.62l-.05,2.8h0c0,.23-.01.47-.02.7-.05.08-.14.16-.13.23.02.16.1.3.15.45.01,1.37.03,2.74.04,4.11-.03,1.13-.04,2.27-.11,3.4-.05.84.13,1.58.64,2.24.09-.05.18-.1.26-.15,0,0,0,0,0,0-.09.05-.18.1-.26.15.15,1.38.47,2.75.22,4.15-.13.19-.16.39-.08.61-.03.63-.07,1.26-.07,1.9,0,.47.25.78.71.92l.15-.07c.17.32.44.59.51.96,0,0,0,0,0,0v.23s0,0,0,0c-.68.63-.8,1.4-.57,2.26.21,1.42-.54,2.93.41,4.28.06,1,.09,2,.17,3,.07.87,0,1.8.69,2.5.03.18.08.35.16.51-.06.42.11.69.5.84h0c.11.21.1.41-.03.61-1.09,1.42-.94,2.83.06,4.22.28.91-.11,2,.72,2.76-.12,1.37,0,2.71.54,3.98.02.07.05.13.08.19,0,0,0,0-.01,0-.02.86-.11,1.73-.03,2.59.07.81.46.87,1.63.36.2-.09.41-.18.61-.27,1.41.17,2.62-1.07,4.08-.6.11.38.36.58.78.57l.05.03c.26.47.65.76,1.17.87.08.37.27.64.66.74.14.4.44.54.85.52h0c.25.2.47.44.71.66h0c.04.57.08,1.13.6,1.49.36.88-.19,1.99.69,2.73.08.62.17,1.24.25,1.86-.05,1.24-.62,2.54.45,3.65.07.2.07.41,0,.61-.99,1.49-.69,3.17-.66,4.8-.27.69-.18,1.39-.05,2.08-1.02.77-.67,1.81-.5,2.81l-.22.12.03.25c-1.11.96-.99,2.41-1.48,3.62-.37.13-.55.41-.57.8-.37.12-.54.4-.57.78.19-.25.38-.5.56-.75,0,0,0,0,0,0,0,0,0,0,.01,0-.13.29-.39.49-.57.75l-.03.03c-.37.07-.6.28-.63.67l-.05.05c-.23.22-.67.44-.66.65.05,1.39-.31,2.86.61,4.13.04.97-.42,2.07.68,2.78.55,2.12,1.09,4.24,2,6.24,0,0,0,0,0,0-.09.92.1,1.75.6,2.5.04.09.09.17.16.26-.22,2.01.08,3.88,1.38,5.51,0,0,0,0,0,0,.18,3.11,1.36,6,2.07,8.99,0,0,0,0,0,0-.05.79.1,1.52.69,2.1-.05.6.25,1.02.7,1.36-.38,1.28-.25,2.45.67,3.47.03.76.11,1.5.72,2.05.06.75-.19,1.6.68,2.07.14.8-.21,1.74.63,2.36l-.1.22.18.17c0,.24,0,.48,0,.71-.08.8.2,1.52.5,2.23.14.7-.06,1.54.79,1.96.77,1.94,1.68,3.84,1.96,5.94.01.09.13.17.2.25-.06.46.19.67.57.78.19.91-.13,1.98.84,2.64-.04.78-.22,1.61.54,2.18.04.49.36.75.76.96-.06-.46-.28-.8-.72-.97,0,0,0,0,0,0,.45.16.69.48.72.97l-.12.14.1.16c-.51,1.6.95,2.43,1.42,3.64,0,0,0,0,0,0-.13.23-.08.4.15.53-.07.46.11.8.51,1.03,0,0,0,0,0,0,0,0,0,0,0,0l-.06.23.2.12c.02.75-.1,1.54.6,2.1-.12,1.21.53,2.04,1.36,2.78-.05.6.06,1.12.68,1.39.22.84.05,1.91,1.2,2.22.08.73-.03,1.55.86,1.92.13.73.09,1.52.71,2.09.19,1.04.77,1.86,1.47,2.62l.03.05c.16.27.42.46.54.76,0,0,0,0-.01,0,0,0,0,0,0,0-.18-.25-.35-.51-.53-.76.01.38.17.66.53.8,0,.57.13,1.08.69,1.38,0,.41.23.65.59.77.06.55.12,1.1.73,1.35.06.38.29.62.63.75-.04.64.17,1.1.87,1.23.17.34.34.68.51,1.02.04.13.1.25.18.37.23,1.41,1.52,2.21,2.03,3.46,0,0,0,0,0,0-.01.44.2.71.6.83.08.38.33.59.69.68.08.53.21,1.04.72,1.35.16.91.88,1.41,1.47,2-.02.45.24.66.64.73.31.64,0,1.54.79,1.98.02.43.27.65.67.72.05.38.26.64.63.75.06.55.21,1.04.77,1.31,0,.41.17.7.58.82.25.43.5.86.76,1.29-.03.94.64,1.2,1.37,1.41.12.52.13,1.09.73,1.34,0,.43.26.65.63.79.42,1.41,1.38,2.29,2.74,2.76.11.37.37.57.74.64.25.83.18,1.87,1.33,2.12.11.52.22,1.05.79,1.3.02.44.26.67.71.68.24.51.67.75,1.19.87.22.86.21,1.88,1.43,2.01.17.49.33.98.88,1.19l.02.02c.2.25.44.46.62.72,0,0,0,0,0,0l-.62-.72c0,.42.25.64.62.74.02.38.15.69.52.84.08.56.46.89.91,1.16v.02c.21.26.49.45.6.78.31.11.51.36.75.56l.13.21.24-.05c.33.86.28,2.01,1.62,2.07.11.52.19,1.05.73,1.35,0,.47.29.65.72.66.93.92,1.85,1.83,2.78,2.75-.06.46.15.71.57.81.1.39.37.58.76.63.08.39.31.61.74.55l.15.22.26-.05c.26.74.69,1.3,1.49,1.47.08.38.29.62.68.69.11.38.38.58.76.63.09.41.36.6.79.58.28.5.71.76,1.26.82.15.37.44.52.82.55h0c.08.38.3.62.7.66l.02.02c.2.25.45.46.64.71h0c-.21-.24-.43-.48-.64-.71.06.39.23.66.65.73,0,0,0,0,0-.01.93.68,1.86,1.36,2.79,2.04h0c.26.6.77.71,1.34.73.14.33.36.57.74.61l.03.03c.36.85,1.19.69,1.85.89.14.5.29.99.77,1.28.01.46.29.66.71.71.77.87,1.55,1.73,2.71,2.11.1.39.34.61.76.62.26.54.76.69,1.29.81.1.37.32.6.71.64.13.38.43.53.82.56.08.39.29.63.71.64l.03.02c.23.58.71.76,1.27.79.3.58.79.74,1.41.67,1.32,1.03,1.48,1.04,2.26.12,0,0,0,0,0,0,.89-.85.74-1.98.75-3.03,0-.45-.39-.75-.8-.95l.05-.23-.2-.12c-.21-.24-.49-.44-.54-.78.01,0,.02,0,.03.01.17.26.34.52.51.77.05-.42-.11-.69-.5-.82-.12-.53-.31-1.01-.76-1.36-.42-1.35-1.25-2.54-1.58-3.94-.14-.6-.46-1.32-1.27-1.48h0c-.21-.36-.42-.72-.63-1.08,0,.04.01.07.02.11,0-.04-.02-.07-.02-.11.26-.36.21-.69-.09-1,.12-.95-.44-1.32-1.23-1.49-.19-1.68-.37-3.35-1.5-4.73,0,0,0,0,0,0-.06-.44-.23-.82-.62-1.07,0,.13.03.24.06.36-.04-.11-.06-.23-.07-.36l.06-.19-.16-.12c.06-.6.05-1.16-.65-1.4-.05-.45-.25-.81-.64-1.05.01.14.04.28.09.4-.05-.12-.09-.25-.09-.4l.06-.2-.17-.12c-.08-.74,0-1.52-.56-2.13.08-.8.09-1.58-.76-2.04-.16-.34-.33-.69-.49-1.03-.04-.13-.09-.25-.17-.37.03-.78.19-1.6-.59-2.15-.05-.57-.37-.96-.85-1.25h0c-.03-1.31-.02-2.61-.35-3.86-.05-.33-.15-.66-.33-.98h0c.08-.23.07-.46-.02-.68-.01-1.2.19-2.44-.65-3.49-.03-.21-.06-.42-.07-.63.04-3.46.07-6.91.11-10.37,2.05-.01,4.11-.02,6.16-.04.92.82,1.87.96,2.84.09l.29-.07.29.03s0,0,0,0c.63.63,1.37.76,2.21.51.41.02.82.03,1.24.05,3.03,0,6.05.01,9.08.02.45.03.9.05,1.35.08.23.03.45.05.68.08l.7-.03c.92-.03,1.83-.07,2.75-.1.65.22,1.13,0,1.47-.57l-.09-.14.34.06.34-.07c.67.2,1.21.15,1.36-.69.17-.14.23-.32.21-.53.59-.24.73-.75.62-1.31-.19-.98-.21-1.96-.07-2.95.45-.24.44-.48,0-.72.01-3.21.02-6.42.03-9.63,1.08-1.3.44-2.82.56-4.24.79-1.5.33-3.21.78-4.76.02-.03.04-.05.06-.08.78-.99.61-2.2.75-3.34.94-1.73,1.18-3.62,1.19-5.56l.19-.11-.05-.21c.54-.71.62-1.55.69-2.39.46-.34.75-.78.69-1.38.51-.35.39-.98.61-1.46.6-.31.83-.78.62-1.45.05-.19.11-.38.17-.56.63-.37.64-.92.48-1.54.08-.62.16-1.24.24-1.86.36-.15.54-.42.54-.82-.18.26-.35.51-.53.77,0,0,0-.01,0-.02h0s-.02,0-.03.01c.09-.32.35-.53.55-.77v-.02c.61-.26.72-.77.66-1.35l.21-.18-.08-.27c.46-.44.67-.98.62-1.62.54-.54.86-1.17.87-1.94.54-.38.43-.99.49-1.53h0c.96-.62,1.58-1.43,1.56-2.62.36-.15.56-.41.52-.83.87-.67.44-1.78.86-2.6.8-.17,1.3-.6,1.31-1.48.21-.24.42-.48.63-.71.6-.04,1.18-.15,1.59-.65h0l.27.07.19-.21c1.38.02,2.76.04,4.13.06.78.8,1.83.49,2.76.66l.17.2.25-.1c.69.47,1.44.75,2.29.69.82.68,1.78.81,2.8.65.49.52,1.11.8,1.8.83,1.37.06,2.54.7,3.76,1.2h0s0,0,0,0c.45.61.93.54,1.43.07l.29.1s.24-.06.28-.07c0,0,.02,0,.02,0h0s0,0,0,0c0,0,0,0,0,0-.05-.07-.11-.13-.16-.2.06.05.12.11.16.2.22.07.38.23.55.37.07.05.14.09.21.14l.06.05c.43.79,1.17.81,1.92.81.68.73,1.67.58,2.5.88.75.26,1.12.69,1.05,1.51-.05.56-.01,1.13,0,1.7-.62.37-.82.94-.77,1.62.05.63.1,1.27.15,1.9-.14,1.93-.32,3.86-.39,5.79-.03.89.16,1.8,1,2.37l.02.02c.04.39.28.61.64.72.02.45.24.69.7.67h0c.28.48.7.74,1.22.87.08.38.33.59.71.65.1.38.33.62.73.69.46.82,1.34.54,2.03.75.33.6.93.5,1.47.56.08.39.33.6.72.65.05.37.18.68.54.84.13.77.64,1.18,1.33,1.42.12.35.23.7.35,1.06-.15,1.03-.53,2.09.52,2.91h0c.11.21.11.43,0,.64-.9,1.4-.9,1.54-.03,2.83h0c.39.83.39,1.66.14,2.54-.23.84-.3,1.7.48,2.34-.1,2.41.67,4.65,1.39,6.89,0,0,0,0,0,0-.07.62.18,1.09.68,1.43.09.73.16,1.47.84,1.96h0c.26.25.5.51.63.86.09.69.2,1.58.78,1.82,1.37.55,2.04,1.8,2.85,2.79,1.36,1.64,3.69,1.07,5.02,2.61.24.28.83.26,1.25.41,1.7.6,3.39,1.19,5.08,1.82.72.27,1.09.83.93,1.61-.24,1.19.09,2.16.7,3.21,1.38,2.37,2.2,4.98,2.81,7.66.12.93-.54,2.09.79,2.66l.03.03c0,1.2-.66,2.51.64,3.47.13.18.36.35.39.55.64,4.31,1.87,8.49,2.91,12.71.27,1.14-.44,2.48.7,3.44.41,1.89.47,3.95,1.31,5.63.86,1.71,1.2,3.42,1.43,5.22.13,1.01.36,2.02.53,3.01.39,2.27,1.47,4.33,1.88,6.53.49,2.68,2.18,5.04,1.99,7.86,1.42,2.41,1.73,5.14,2.28,7.81.11.56.3,1.11.56,1.62.31.63.4,1.29.52,1.97.63,3.6,1.32,7.18,1.99,10.77.05,1.41-.38,2.9.71,4.13h0c.06,1.41-.48,2.92.67,4.16.49.65.69,1.38.82,2.18.15.88.43,1.73.66,2.6.03.77-.39,1.63.46,2.23.05.19.1.38.15.57-.25.84-.27,1.62.61,2.14.26.87.18,1.79.57,2.67.6,1.35.97,2.77.89,4.3-.04.77.3,1.56.48,2.34.65,2.76,1.38,5.5,1.96,8.27.84,4.02,1.57,8.07,2.34,12.1-.14.48.07.74.54.83.09.14.11.29.07.45-.56.52-.84,1.04,0,1.56.07.18.13.37.2.55-.13,1-.27,2.01.64,2.77h0c.02.27.04.52.06.78-.05.2-.06.4-.03.6-.37.86-.32,1.62.54,2.18.14,2.9.21,5.82.94,8.64.31,1.2.72,2.35.65,3.61-.16.44,0,.72.42.88.1.18.12.37.05.57-.56.5-.66.99.03,1.46.08.18.14.37.17.56-.07.88-.17,1.75-.22,2.63-.02.49.26.81.72.96h.02c.04.24.09.48.13.72-.03.2-.07.41-.12.6-.48.79-.41.98.57,1.5.1.17.11.34.01.51-.85.75-.72,1.49.02,2.22.3,1.11-.02,2.37.83,3.35v.03c.04,1.65-.39,3.36.55,4.9.09,1.18-.12,2.42.66,3.47.05.9.09,1.81.14,2.71,0,1.23,0,2.46.02,3.69,0,.68.1,1.35.66,1.84.04.43.08.86.11,1.29-.04,1.19-.09,2.38-.12,3.57-.01.55.06,1.09.58,1.43.07.18.13.37.19.56-.23.74-.16,1.47.06,2.2-.02.42-.03.83-.05,1.25-.39,1.71-.34,3.36.61,4.9,0,.44-.02.88-.03,1.32,0,0,0,0,0,0h0c-.89.95-.92,1.9,0,2.84.04,2.62.09,5.24.13,7.86,0,.47.14.86.53,1.14-.04,1.68-.21,3.39.22,5.03.68,2.63.83,5.29.62,7.98,0,1.25-.02,2.49,0,3.74,0,.68-.02,1.38.58,1.88.06.19.1.39.14.59-.21.62-.3,1.21.47,1.53l.18-.09c.05.88.11,1.76.16,2.63.03.55.04,1.1.53,1.49v.02c.22.25.49.45.55.79-.01,0-.02-.02-.04-.02,0,0,0,0,0,0-.17-.26-.34-.52-.51-.78-.05.43.15.68.52.84.13.81.15,1.66.76,2.32,0,0,0,0,0,0l-.06.19.16.12c-.01.77-.09,1.56.63,2.1-.03.6.29,1.01.72,1.35-.05.59-.02,1.15.56,1.5.14.78.65,1.19,1.37,1.4.25.54.51,1.09.76,1.63,0,0,0,0,0,0l-.08.17.14.13c-.11.64.26,1.02.72,1.36h0c.21.26.46.46.62.75,0,0,0,0,0,0-.21-.24-.41-.49-.62-.73-.04.46.21.67.62.75.06.38.24.66.65.74.08.4.34.59.73.65.05.37.22.64.56.79-.03.61.12,1.11.8,1.29.06.38.26.63.61.77.04.56.11,1.11.8,1.28.07.4.35.59.72.68.11.79.42,1.39,1.32,1.45.3.46.77.66,1.27.81.33.78.71,1.51,1.53,1.89.05.41.29.63.67.73.05.42.28.65.72.66.5.74.93,1.59,2.06,1.41.46.24.91.48,1.37.72.7,1.45,1.56,2.71,3.38,2.81.18.46.34.94.89,1.1l.08.07c.43.77,1.14.85,1.91.78,1.32,1.21,2.28,2.83,4,3.6.11.4.38.58.78.6.1.37.33.6.71.69.07.43.31.65.78.59-.25-.2-.5-.41-.75-.61,0,0,0,0,0-.01.32.12.51.41.76.62.32.44.8.59,1.3.72.56.96,1.67,1.84,3.5,2.77,0,0,0,0-.01,0,.2.2.46.25.73.27.43.16.86.32,1.29.48.09.37.3.62.67.72.08.42.29.67.76.61.38.42.84.67,1.43.63h.02s0,0,0,0c.29.36.67.5,1.14.53.75.04,1.51.14,2.26.21.52.86,1.37.56,2.12.6l.04.02c.66.76,1.35.62,2.06.08.67.09,1.23-.12,1.67-.65h0l.22.09.15-.18c1.57.2,2.51-.48,2.84-2.01,0-.01,0-.02,0-.03,0,0,0,0,0,0,.14-.29.38-.51.62-.71,0,0,0,0,0,0,1.04-.33.75-1.22.84-1.95.35-.15.45-.45.42-.81l.22-.13-.03-.26c.57-.39.71-.97.73-1.6.54-.32.77-.8.68-1.43,0,0,0,0,0,0,.45-1.36.9-2.73,1.35-4.09.58-.58.88-1.26.73-2.09.46-.6.77-1.25.75-2.03.66-.59.59-1.38.57-2.16.68-.53.57-1.34.73-2.06.71-.81.5-1.85.66-2.8h0s0,0,0,0c.45-1.8,1.13-3.57.74-5.49.08-.05.18-.09.21-.16.5-1.26.36-3.4-.28-4.78,0,0,.01.01.02.02-.02-1.21.28-2.48-.71-3.48-.16-1.63-1.2-2.45-2.66-2.88-.25-.2-.5-.4-.75-.6-.06-.56-.09-1.12-.77-1.33-.18-.62-.69-.76-1.22-.88-.08-.38-.31-.6-.69-.68-.1-.38-.37-.57-.74-.64-.18-.72-.61-1.21-1.32-1.43-.09-.38-.32-.62-.72-.68-.15-.39-.47-.5-.86-.5h0c-.22-.24-.47-.46-.63-.74,0,0,0,0,0,0-.03-.92-.6-1.27-1.43-1.34h0c-.23-.22-.47-.43-.63-.72,0,0,0-.01,0-.02,0-.59-.14-1.1-.72-1.39,0,0,0,0,0,0-.68-.93-1.36-1.86-2.04-2.79-.42-1.56-1.79-2.33-2.83-3.38h0c-.23-.23-.48-.45-.65-.74-.28-.18-.51-.4-.66-.7,0,0,0,0,0,0,.21.23.43.46.64.68,0,0,0,0,0,0,0,0,0,.01.01.02,0,0,0,0,0,0,.21.24.43.49.64.73.02-.45-.23-.67-.64-.74-.06-.4-.27-.66-.69-.73-1.39-1.59-2.79-3.17-4.18-4.76-.04-2.71-.09-5.43-.13-8.14.41-2.89.02-5.79.05-8.68,0-.47-.23-.84-.58-1.15,0-.22,0-.44,0-.65.67-.47.66-.95,0-1.42-.03-.56-.08-1.13-.09-1.69,0-.48-.16-.86-.62-1.08.31-1.73.68-3.47-.67-4.98h0s.12-.17.12-.17l-.12-.18c.84-.84.68-1.88.59-2.91.02-1.81.06-3.62.06-5.44,0-.6-.24-1.1-.8-1.4-.16-.15-.33-.3-.49-.45,1.3-2.2.45-4.38-.11-6.56,0,0,0,0,0,0,0-.93,0-1.85,0-2.78.06-.99.29-2.02-.59-2.81-.07-.19-.07-.38,0-.56.66-.51.74-1.01,0-1.51-.45-.83.15-1.99-.81-2.67.01-1.17.02-2.33.03-3.5.01-1.47.09-2.93.01-4.39-.08-1.32.24-2.74-.69-3.92-.11-3.03-.65-5.99-1.49-8.9.07-.41-.07-.7-.47-.85h0c0-.39-.02-.79-.03-1.18.79-.99.68-1.94-.12-2.86h0c-.02-.24-.04-.48-.06-.72.02-.21.02-.41,0-.62.28-.85.26-1.61-.57-2.16-.75-.77-.3-1.87-.73-2.73-.03-1.18.37-2.45-.78-3.37h0c.09-1.02.43-2.08-.6-2.84-.22-.76-.42-1.54-.68-2.29-.59-1.7-1.39-3.34-1.79-5.08-.99-4.32-2.34-8.52-3.87-12.67-.73-1.97-2.04-3.9-1.2-6.22.16-.44-.05-.89-.36-1.27-1.92-2.33-2.16-5.22-2.45-8.02-.2-1.85-.59-3.56-1.46-5.18.01-1.13.05-2.26.03-3.38,0-.57-.15-1.12-.66-1.49-.42-2.71-1.6-5.21-2.07-7.91-.14-.83.21-1.84-.62-2.52-.02-.67-.05-1.33-.06-2,0-.57-.08-1.11-.6-1.47-.34-1.34-.19-2.77-.81-4.05.02-1.64.47-3.35-.72-4.8l.04-.04c.11-.79.12-1.56-.56-2.14,0-.65,0-1.29,0-1.94.4-.18.56-.47.4-.89.06-.16.08-.32.08-.48.22-1.03.46-2.07-.52-2.89-.04-1.23-.11-2.47-.1-3.7.01-3.59-.38-7.14-.79-10.69,0-.73,0-1.47,0-2.2.08-.19.1-.39.04-.59-.09-.93.56-2.07-.71-2.69-.46-1.47-.38-3.09-1.22-4.47-.3-.5-.29-1.17,0-1.66.93-1.57.24-3.35.76-4.96.2-.39.58-.78.58-1.17.03-2.95,0-5.9-.07-8.85,0-.39-.39-.78-.59-1.16-.24-.66-.36-1.32.02-1.98.58-.26.69-.76.65-1.32-.04-.53-.12-1.06-.18-1.59.05-.65.1-1.3.15-1.95.08-.08.22-.14.24-.23.54-3.48,1.79-6.89,1.05-10.5-.06-.3.11-.65.17-.98,1.15-1.66.93-3.31,0-4.97.21-2.13.24-4.23-.62-6.25,0,0,.01,0,.02,0-.04-.77-.1-1.54-.87-1.99-.02-.57-.21-1.05-.7-1.38,0-.45.01-.9.02-1.35.51-.46.92-.93.11-1.48l-.15.09c.08-.22.08-.45-.03-.66.19-.82.31-1.62-.58-2.16l-.16.08c-.39-.89.34-2.02-.59-2.8.08-1.36-.58-2.46-1.3-3.53-.22-.63-.41-1.27-.66-1.88-.32-.77-.53-1.46.27-2.12.33-.27.45-.78.72-1.14,2.21-2.9,2.16-6.02.92-9.26l-.02-2.12c0-.44,0-.89,0-1.33.11-.84-.02-1.61-.4-2.33-.05-.15-.13-.3-.26-.44l-.78-4.09c.07-1.22.44-2.5-.55-3.56-.06-.2-.09-.4-.1-.61-.03-.87-.03-1.74-.1-2.61-.1-1.19.67-1.48,1.6-1.65.19.05.38.09.57.13.17.15.32.4.51.42,2.02.28,4.04.36,6.07.22.48-.03.84-.28,1.12-.67.77-.21,1.59-.34,2.31-.66,1.14-.51,1.86-1.92,1.6-3.14-.16-.77-.39-1.62-.87-2.21-.82-1.01-1.17-2.21-1.75-3.31-1.53-2.93-3.09-5.87-5.6-8.14-.34-.31-.66-.63-.96-.98-.25-.29-.96-.2-.76-.84,1.11-1.4,2.59-2.31,4.04-3.09,2.88-1.55,6.04-2.57,8.78-4.43.61-.42,1.26-.61,1.9-.12,1.51,1.15,3.82.86,4.94,2.7,2.11.55,3.57,2.12,4.9,3.62,1.07,1.2,2.53,1.9,3.45,3.25,1.12,1.66,2.29,3.28,3.43,4.93,1.94,2.79,3.99,5.48,5.68,8.47,1.72,3.04,3.36,6.1,4.82,9.26,1.53,3.32,2.96,6.69,3.19,10.45.06.97.03,2.1.89,2.89.66,1.63,1.08,1.74,2.87.74,1.12-.74,1.67-1.82,2.03-3.08.4-1.42.84-2.87,1.17-4.28.35-1.53.88-2.98,1.29-4.47.56-2.06,1.44-4.08,1.35-6.29,0-.19.21-.4.33-.6t0,0c.97-1.27.65-2.75.65-4.17h0c1.14-1.02.71-2.3.58-3.52.08-.42.15-.83.23-1.25h0c.38-.28.57-.66.58-1.14.03-1.45.06-2.9.09-4.34.21,0,.53-.1.61,0,1.7,2.13,3.22,4.35,4.16,6.97.71,1.99,1.91,3.78,3.24,5.45.05.78.02,1.59.82,2.07.02.41.25.64.62.76.05,1.19.7,2.08,1.46,2.93,0,0,0,0,0,0l-.05.26.22.13c-.05.39.11.65.45.81-.02.6.09,1.12.78,1.3.07.65.3,1.18.86,1.61.31.24.49.66.72,1.01-.16.8-.24,1.58.67,2.04.14.17.31.23.52.2.22.48.43.96.65,1.45,0,0,0,0,0,0h0s0,0,0,0c0,0,0-.01,0-.02.7,1.37.86,3.01,2.07,4.12-.01.77.3,1.42.71,2.04-.1.62.14,1.08.65,1.43.03.47.32.75.72.94-.05-.45-.27-.78-.69-.96h0c.42.18.66.49.69.96l-.05.23.2.12c.1,1.2-.12,2.45.57,3.55,0,0,0,0,0,0h0s0,0,0,0c0,0,0,0,0,0,.98,1.9.8,4.1,1.52,6.06.02.75.04,1.49.06,2.24-.06.17-.08.34-.05.52-.01,1.59-.08,3.17-.01,4.75.02.53.38,1.04.59,1.56h0c.28.89.14,1.75-.12,2.61-.39.28-.47.69-.48,1.15-.03,1.25-.08,2.5-.12,3.75-.88.86-.44,1.82-.11,2.73.1.27.42.57.7.65,1.05.29,2.14.56,2.95-.55h0c.89-.72,1.83-1.41,1.49-2.79l.09-.15-.11-.14c.64-.65.66-1.5.76-2.32.35-.15.52-.44.57-.81,0,0,0,0,0,0,1.33-1.57,1.89-3.45,2.16-5.43.37-.41.66-.86.65-1.44.62-.55.7-1.29.7-2.06.38-.41.76-.82.64-1.46l.13-.14-.09-.17c.38-.52.64-1.08.59-1.75l.19-.21-.09-.27s0,0,0,0c.79-.77.36-1.91.84-2.77.38-.1.62-.33.65-.74.54-.33.5-.93.62-1.45.8-.82.78-1.81.6-2.83.12-.16.18-.34.18-.54.68-.18.95-.66,1.02-1.35.05-.51.19-1.01.3-1.52.84-.52.53-1.38.58-2.13.39-.37.75-.76.72-1.35.48-.31.77-.74.8-1.31.37-.26.39-.64.34-1.05-.07-.57.05-1.04.7-1.19.03-.09.06-.18.09-.27.27-.86.34-1.78.92-2.57.52-.71.72-1.63.63-2.56.5-.3.79-.73.77-1.33.71-.57.69-1.35.58-2.15.46-.34.76-.82.71-1.37-.13-1.24.4-2.32.68-3.47.52-1.07,1.33-2.07.83-3.39.42-.4.5-.92.52-1.47,1.06-.96.97-2.17.77-3.41.73-.55.66-1.33.62-2.11.96-.7.39-1.85.78-2.72h0c.46-.09.67-.34.52-.82h0c.04-.2.09-.39.16-.57,1.02-.85.39-1.95.46-2.94.28-.63.38-1.28.16-1.96.31-.33.31-.67.06-1.03,1.05-1.07.51-2.66,1.24-3.84.53-.34.63-.9.67-1.46.08-1,.11-2,.16-3.01,0,0,0,0,0,0,0,0,0,0,0,0,.87-1.36.56-2.92.72-4.39.71-1.13.82-2.34.49-3.61.04-.68.05-1.36.12-2.04.43-4.14.88-8.28,1.32-12.42,1.3-1.28.61-2.81.56-4.26.08-.38.17-.77.25-1.15.58-.75.79-1.51.01-2.27-.02-.17-.03-.35-.03-.52.54-.62.81-1.32.6-2.15l-.05-1.34c.19-.7.23-1.41.03-2.12-.02-.67-.04-1.34-.06-2.01.17-1.69.6-3.4-.53-4.95ZM57.8,156.82h0c.07.04.13.09.18.13-.05-.04-.11-.08-.18-.13Zm.95-24.14c-.08-.09-.17-.18-.26-.27.09.09.19.18.28.26,0,0-.01,0-.02,0Zm12.72,111.3c.06-.11.09-.23.11-.37,0,0,0,0,0,0,0,.15-.04.27-.11.37Zm85.31,141.31h0s0,0,0,0ZM407.34,124.4s0,0,0,0c0,0,0,0,0,0,0,0,0,0,0,0Zm-10.74-23.15c.01.12.04.22.08.31-.04-.09-.07-.19-.08-.31h0Zm-13.14-30.35c.1.38.34.6.73.65,0,0,0,0,0,0,0,0,0,0,0,0,0,.11.02.2.04.3-.04-.09-.05-.18-.05-.3-.42-.02-.64-.27-.74-.65,0,0,0,0,0,0Zm-252.45,32.45c.1-.01.19-.03.27-.07-.08.04-.17.06-.27.07,0,0,0,0,0,0Zm-8.83,11.91c.21-.23.43-.47.7-.63,0,0,0,0,0,0h0s0,0,0,0c-.24.21-.47.42-.71.63,0,0,0,0,0,0h0Zm-2.62,1.55s0,0,0,0c-.29.03-.5.15-.63.37.12-.23.32-.36.63-.37Zm-23.06-80.4s0,0,.01,0c-.13.31-.38.53-.62.75.2-.25.41-.5.61-.75Zm-5.73,12.15c-.13.12-.21.28-.24.48,0,0,0,0,0,0,.03-.2.11-.36.24-.48Zm-15.76,20.27s0,0,0,0c0,.11-.04.21-.08.29.04-.09.07-.19.08-.29Zm-4.69,10.47c.21-.24.41-.47.62-.71,0,0,.01,0,.02-.01-.15.3-.4.51-.64.72h0Zm-2.09,136.9s0,0,0,0c0,0,0,0,0,0,0,0,0,0,0-.01.21.1.37.27.54.41-.18-.13-.36-.27-.53-.4Zm2.65,2.14c-.04-.25-.15-.44-.33-.57.18.13.31.31.33.57,0,0,0,0,0,0Zm22.08,104.36s0,0,0,0c.07.02.13.04.18.07-.06-.02-.12-.05-.18-.07Zm1.55-4.32c-.21-.23-.46-.44-.61-.72,0,0,0,0,0,0,0,0,0-.01,0-.01.2.25.4.49.6.74h0Zm2.89,5.47c.12.19.25.38.37.57-.14-.18-.31-.35-.39-.57,0,0,.01,0,.02,0h0s0,0,0,0Zm.42,8.48c-.02-.12-.05-.23-.1-.33.06.09.09.2.1.33,0,0,0,0,0,0Zm1.36,2.08c-.05-.38-.26-.62-.63-.72,0,0,0,0,0,0,.37.1.62.31.64.72,0,0,0,0,0,0Zm1.04-5.14s0,0,0,0c.01.14.05.25.1.36-.06-.1-.1-.21-.1-.36Zm3.82,12.73c-.07-.38-.3-.61-.69-.67,0,0,0,0,0,0,0,0,0,0,0,0-.01-.12-.05-.23-.09-.33.05.09.09.2.1.33.41.05.63.28.69.67,0,0,0,0,0,0Zm4.24,6.8c-.22-.23-.44-.46-.66-.69,0,0,0,0,0,0,.26.2.49.42.66.7,0,0,0,0,0,0Zm10.19,8.67c.1.06.22.11.37.12,0,0,0,0,0,0-.15-.01-.27-.06-.37-.12Zm1.57,6.53c-.23-.22-.46-.45-.7-.67,0,0,0,0,0,0,.28.18.5.41.7.68,0,0,0,0,0,0Zm.21-5.04s0,0,0,0c0,.06,0,.12.01.17-.01-.05-.02-.11-.01-.17Zm4.49,10.69c0-.1-.02-.2-.05-.29.04.08.06.18.06.29,0,0,0,0,0,0Zm10,5.91h0c.01.11.04.21.08.3-.04-.09-.07-.19-.08-.3Zm3.16,7.91s0,0,0,0c0,0,0,0,0,0-.08-.38-.31-.62-.69-.7,0,0,0,0,0,0,.4.07.63.3.69.7.14.02.26.06.35.13-.1-.06-.22-.11-.35-.13Zm1.5,1.24c-.25-.2-.5-.39-.75-.59,0,0,0-.02-.01-.02.33.11.54.37.76.61h0Zm3.48-1.42c-.25-.2-.48-.43-.69-.68,0,0,0,0,0,0,.23.23.46.45.69.68,0,0,0,0,0,0Zm6.72,4.6c.1.05.21.08.34.09,0,0,0,0,0,0-.13,0-.24-.04-.34-.1Zm.17-11.48c.22.23.47.43.6.74,0,0,0,0-.02-.01h0s0,.01,0,.02c-.2-.25-.39-.5-.59-.74h0Zm29.6-30.16c.06-.06.14-.1.23-.12,0,0,0,0,0,0-.08.04-.15.08-.23.12Zm42.97-57.63c-.25-.2-.47-.44-.71-.66.24.22.47.44.71.66h0Zm9.64,24.23s0,0,0,0c-.23-.21-.46-.43-.69-.64,0,0,0,0,0,0,0,0,0,0,0,0,.28.17.49.4.7.65,0,0,0,0,0,0Zm3.39,14.62s0,0,0,0,0,0,0,0h0Zm.25-16.16s0,0,0,0c.06.38.28.62.66.7,0,0,0,0,0,0-.38-.08-.62-.3-.66-.7Zm72.53,287.44h0c.03.15.08.27.15.37-.07-.1-.13-.22-.15-.37Zm.4,6.47c-.01-.08-.02-.15-.05-.22.03.07.04.14.05.22h0Zm2.18,3.39s0,0,0,0h0c.28.16.5.39.69.65,0,0,0,0,0,0-.23-.22-.46-.44-.69-.66Zm.13-5.68s0,0,.01,0c.2.26.39.52.59.78-.24-.23-.48-.46-.6-.79Zm4.75,5.62c-.23-.23-.46-.45-.67-.7,0,0,0,0,0,0,.22.23.45.47.67.7t0,0Zm1.33,6.26c-.23-.22-.46-.44-.7-.65,0,0,0,0,0-.01.3.15.53.38.71.67,0,0,0,0,0,0Zm13.71,10.48s0,0,0,0c.17,0,.3.06.42.14-.12-.07-.25-.12-.42-.14Zm3.62-2.23h0c.24.23.48.45.72.68-.26-.2-.49-.45-.72-.68Zm1.4,1.36c-.25-.2-.48-.43-.67-.69,0,0,0,0,0,0l.68.69s0,0,0,0Zm4.2,3.44s0,0,0,0c.1.14.2.28.3.42-.11-.13-.22-.26-.3-.41Zm17.88-12.41h0c.21-.24.41-.47.62-.71,0,0,0,0,0,0,0,0,0,0,0,0-.16.28-.4.49-.62.71Zm2.89-22.24s0,0,0,0c-.1-.01-.19-.04-.27-.07.08.04.17.06.27.07Zm-3.44-3.46s0,0,0,0c0,0,0,0,0,0,.07.38.3.61.68.68,0,0,0,0,0,0-.4-.06-.63-.29-.69-.69-.24-.02-.41-.13-.54-.28.13.15.31.24.54.28Zm-2.78-2.76c.09.39.32.61.71.67,0,0,0,0,0,0-.41-.04-.64-.28-.72-.68,0,0,0,0,0,0Zm-6.5-1.81s0,0,0,0c-.07-.37-.29-.59-.67-.67,0,0,0,0,0,0,.38.07.6.29.67.67Zm-12.35-30.21s0,0,0,0h0s0,0,0,0h0Zm-17.38-94.63c.22-.39.55-.73.83-1.09.43.06.86.12,1.28.19.05.18.12.35.2.52-.26.84-.19,1.6.51,2.21.02.2.05.4.1.6-.18.65.06,1.1.62,1.42.06.19.12.38.16.58-.2.65-.02,1.14.59,1.46.73,3.4,2.63,6.45,2.96,9.98.06.67.31,1.32.53,1.96.64,1.81,1.29,3.6,1.45,5.54.03.39.44.75.68,1.12-.39,1.69-.41,3.33.69,4.81.2.26.4.52.6.78h0c-.03.91-.08,1.81-.08,2.72,0,.58.18,1.11.68,1.48.07.18.07.35.01.53-.84.76-.57,1.47.09,2.17.13.84,1.01,1.59.29,2.52,1.12,2.74-.03,5.74.94,8.52.29.82.21,1.77.29,2.66-.05,1.46-.6,2.98.43,4.33.31,1.22-.28,2.63.75,3.7l-.09.21.18.14c.02,1.13.05,2.27.07,3.4-.17,1.69-.38,3.38.48,4.97l.13-.08c.06,2.56.11,5.11.21,7.67.01.3.26.59.4.88l-.03.29.24.16c.15.29.4.53.49.86l-.11.19.13.18h0c-.48.65-.84,1.27-.71,2.17.16,1.11.12,2.25.16,3.38-.02,2.32-.09,4.64-.05,6.95.01.97-.19,2.02.58,2.86.17.59.13,1.27.68,1.71-.65.92-.47,1.99-.53,3.01-.05,3.1-.13,6.2-.14,9.3,0,1.11-.29,2.34.78,3.21.22.24.44.47.66.71,0,.58.12,1.1.64,1.45.35,1.46,1.42,2.23,2.68,2.82.11.38.38.58.76.65.07.39.3.62.69.69.38,1.55,1.63,2.44,2.68,3.48.06.41.28.67.69.76.17.79.66,1.23,1.48,1.28.21.47.42.93.64,1.4-.07.49.2.71.63.78.11.36.35.59.7.71.19.88.67,1.54,1.52,1.91.05.37.2.68.57.82.05.4.28.62.66.7.16.5.32.99.91,1.16l.03.03c.43.8.97,1.46,1.96,1.55.06.38.32.52.66.58.11.86.49,1.43,1.46,1.37l.14.17.2-.09c.45.06.77.28.89.71,0,0,0,0,0,0-.14-.42-.44-.65-.89-.71.29.25.57.5.86.74.09.88.56,1.36,1.47,1.35.91.49.58,1.72,1.37,2.29l-.07.23.19.14c.56,1.6.86,3.17.44,4.92-.36,1.53-.31,3.16-.44,4.74l-.2.17.1.25s0,.01,0,.02c-.51.92-.75,1.91-.7,2.96-.79,1.04-.75,2.25-.68,3.46-.37.11-.61.33-.62.74-.93.44-.41,1.39-.71,2.05-.68.28-.8.8-.62,1.44-.08.18-.13.37-.16.56-.77.6-.62,1.41-.51,2.21-.61,1.01-1.43,1.96-.91,3.27-.34.13-.58.35-.64.73-.41.1-.59.37-.56.8.19-.26.38-.51.57-.77,0,0,.01,0,.02,0-.12.32-.39.52-.58.78v.02c-.67.51-.68,1.26-.79,1.98-.53.27-.69.76-.77,1.3-.35.1-.58.33-.68.68-1.99.41-3.98-.12-5.97.02-.14-.36-.39-.56-.81-.53.25.18.5.35.75.53h0s.01.02.02.03c-.31-.11-.52-.36-.77-.56h-.01c-.97-1.07-2.24-.66-3.42-.73-.11-.36-.36-.56-.74-.6l-.05-.05c-.06-.35-.2-.65-.55-.79,0-.44-.18-.72-.64-.75-.32-.48-.83-.62-1.34-.75-.2-.71-.65-1.17-1.37-1.36-.14-.38-.44-.53-.84-.54-.1-.36-.31-.61-.69-.7-.03-.44-.27-.67-.72-.66-.44-.73-1.24-.65-1.92-.85-.07-.89-.55-1.33-1.45-1.31-.13-.36-.36-.6-.75-.67,0,0,0,0,0,.01-1.07-1.01-1.82-2.41-3.42-2.76-.34-.43-.79-.66-1.31-.79-.31-1.17-1.28-1.16-2.23-1.2h-.02c-.09-.37-.31-.6-.68-.68l-.02-.03c-.18-.26-.44-.46-.59-.75,0,0,0,0,0,0,.19.25.39.5.58.75-.01-.41-.18-.69-.6-.78-.64-1.34-1.98-1.99-2.99-2.96-.5-.48-1.22-.43-1.88-.46,0,0,0,0,0,0-.25-.19-.48-.41-.63-.69,0,0,0,0,0-.01-.01-.58,0-1.18-.77-1.33-.07-.38-.31-.61-.67-.71,0-.41-.17-.69-.58-.79-.07-.39-.31-.61-.67-.72-.07-.44-.26-.85-.71-.95-.76-.17-.95-.88-1.43-1.31l.08-.21-.18-.14c.08-.47-.1-.74-.56-.81-.12-.37-.42-.53-.76-.63-.1-.73.07-1.55-.73-2.03,0-.41-.16-.7-.54-.84-.05-.41-.29-.64-.69-.71-.26-.42-.52-.84-.78-1.26.09-.61-.11-1.08-.61-1.43-.02-.65-.24-1.2-.75-1.62l.05-.23-.2-.11c-.18-.25-.43-.46-.55-.75,0,0,0,0,.01,0,.18.25.36.5.54.75.04-.41-.11-.69-.53-.78-.05-.38-.29-.61-.63-.74.12-.85,0-1.62-.76-2.19l.08-.26-.2-.18c-.25-1.36-.5-2.71-.76-4.07.1-1.23.41-2.5-.54-3.57-.28-.91.2-2.01-.69-2.77.02-1.87.32-3.77-.69-5.51-.03-2.71.17-5.43-.2-8.14.07-.8.25-1.6.19-2.39-.13-1.8.37-3.68-.68-5.37-.08.1-.17.21-.25.31,0-.04,0-.08-.01-.11,0-.03,0-.05-.01-.08.09-.04.18-.08.27-.12.01-1.71.04-3.42.03-5.13,0-.69-.1-1.37-.71-1.84-.03-.18-.04-.36-.03-.54,1.35-2.11.79-4.23,0-6.34-.01-.2-.08-.38-.21-.53.03-.5.05-1.01.08-1.51.06-.21.06-.41,0-.62.09-1.23.35-2.49-.51-3.59-.04-.18-.11-.36-.2-.52.06-.91.29-1.84.16-2.72-.21-1.41.31-2.98-.82-4.21-.09-.17-.24-.25-.42-.25-.59-1.72.19-3.52-.31-5.25,0-1.44.62-2.96-.59-4.23-.44-.68-.61-1.42-.53-2.24.14-1.46-.08-2.86-.8-4.16-.11-2.5-.43-4.98-1.18-7.36-.33-1.04-.08-2.07-.25-3.05-.75-4.16-.44-8.45-1.76-12.56-.69-2.15-.33-4.53-.94-6.79-.75-2.75-1.05-5.61-1.57-8.53,1.13-.66,2.37-.9,3.72-1.15,4.26-.81,8.31-2.33,12.2-4.3.7-.36,1.5-.59,2.28-.71,2.04-.33,3.5-1.58,5.03-2.82,2.27-1.84,3.65-4.31,5.04-6.78Zm-1.18-13.49c-.31,1.47-.28,2.89.66,4.16.32,1.82-.42,3.46-1.34,4.81-1.92,2.83-3.78,5.73-6.17,8.22-.56.58-1.09,1.02-1.89,1.33-1.88.74-3.54,2.03-5.64,2.25-1.2,1.48-3.06,1.21-4.62,1.73-1.7.57-3.26,1.47-4.95,2.1-1.79.66-3.08-.26-4.55-.69-.21-.06-.43-.6-.39-.89.31-2.08-.74-3.96-.84-6.01-.09-2.01-.89-3.99-1.38-5.98h0c.09-1,.01-1.96-.67-2.78h0c.09-1,.32-2.04-.69-2.77.14-.95-.69-1.57-.85-2.39-.16-.81.27-1.75-.61-2.38.04-.43.08-.86.12-1.29h.01s.29.09.29.09l.26-.17h0c.34.62.95.47,1.49.54.64.2,1.41.24,1.89.63,1.27,1.03,2.81,1.35,4.25,1.96,3.22,1.37,6.37,1.06,9.6.4.07.09.14.22.23.25,2.3.64,4.59.63,6.84-.23.76-.07,1.37-.76,2.22-.52.29.08.81.06.92-.11,1.06-1.57,3.02-1.31,4.37-2.26l1.4-.04h0Zm-4.81-20.56c.14.66.41,1.29.62,1.94-.11,1.22-.19,2.43.73,3.42,1.01,1.47.75,3.27,1.25,4.87.17.54.32,1.14.25,1.68-.16,1.16,1.1,2.29.34,3.29-.94,1.23-2.22,2.2-3.38,3.25-.93.84-2.18.49-3.26.8-1.93,0-3.87-.04-5.8.01-.4.01-.79.37-1.19.58-1.01.15-2.08-.07-3.04.41-.57.28-1.1.19-1.63-.1-.2-.11-.42-.18-.64-.23-2.04-.51-4.22.26-6.21-1.31-1.55-1.23-3.72-1.64-5.62-2.38-1.75-.68-2.79-2.3-3.23-4.18-.26-1.11-.19-2.3-.93-3.27-.02-1.11-.03-2.23-.08-3.34-.03-.77.02-1.58-.64-2.18h0c-.14-.43-.24-.88-.42-1.3-.18-.43-.43-.91-.16-1.28.29-.4.8-.2,1.25-.09,3.29.76,6.54,1.82,10.01,1.46,1.14-.12,2.28-.08,3.33-.65.3-.16.67-.4.95-.34,3.01.6,5.47-1.31,8.24-1.76,1.47-.24,2.74-1.06,4.02-1.8,4.21-2.42,4.23-2.4,5.26,2.49Zm-2.84-13.95l.04-.03h0,0c.03,1.86.05,3.73.08,5.59h0c-1.54,1.19-3.08,2.25-5.06,2.75-2.08.53-3.97,2.07-6.04,2.28-3.46.35-6.79,2.08-10.38,1.16-.44-.11-.91-.07-1.37-.1-1.26-1-2.76-.46-4.14-.66-.8-.07-1.6-.1-2.39-.21-1.83-.27-2.14-.67-2.53-2.61-.47-2.31-.98-4.61-1.57-6.88-.63-2.4-1.11-4.85-2.02-7.16-1.54-3.91-2.17-8.11-3.76-12-.39-.96.02-1.55,1.15-1.43,3,.32,5.6-.8,8.24-1.95,2.92-1.27,5.72-2.81,8.86-3.59,1.54-.38,2.81-1.38,4.11-2.38,1.89-1.45,3.17-3.51,5.24-4.78.81-.5,1.17-1.69,1.92-2.35,1.52-1.34,2.82-2.94,4.77-4.1.77,1.5,1.73,2.87,1.58,4.7-.03.39.37.81.58,1.22-.05.78-.42,1.64.55,2.17.13.19.15.39.06.6-.89,1.4-.76,2.81-.02,4.22.04.44.07.87.11,1.31-.41,1.94.03,3.85.19,5.77.01.17.3.32.46.48l.07-.04c0,.25.01.51.02.76,0,.44-.01.88-.02,1.32h0s0,0,0,0c-.52,2.3.24,4.59.06,6.88-.02.25.34.52.53.78.03.2.06.4.09.6-.03,2.05-.06,4.11-.07,6.16,0,.6.22,1.11.68,1.51Zm67.23-139.76s0,0,0,0c0,.14.04.26.1.36-.06-.1-.1-.22-.1-.36Zm8.28,15.92s0,0,0,0c.02.12.05.22.1.31-.05-.09-.08-.19-.1-.31Zm11.57,24.31h0c.06-.08.11-.16.16-.25-.04.09-.09.17-.16.25Zm5.03-3.98s0,0,0,0c0-.43.26-.64.66-.73,0,0,0,0,0,0-.39.09-.61.33-.65.73Zm17.67-97.63c-.04.06-.07.13-.11.19-.61,1.06-.74,2.11.04,3.14.05.06.08.12.14.19.12.21.13.43.01.65-.07.03-.12.06-.17.09-.28.17-.27.35-.02.53.05.04.11.07.18.11.1.22.1.43,0,.65-.09.07-.15.14-.22.21-.38.41-.53.91-.5,1.49.06.86.11,1.71.16,2.57.01.14.02.28.04.42,0,.57,0,1.14,0,1.71-.52,1.73-.7,3.51-.81,5.29-.06.92-.09,1.84-.15,2.76-.74.58-.47,1.43-.53,2.18-.07.91-.03,1.82-.04,2.73l-.13-.09c-.34.2-.49.48-.56.79-.05.2-.06.41-.07.62,0,.02,0,.04,0,.06-.02.84-.03,1.67-.04,2.51,0,.29-.01.59-.02.88h0s0,0,0,0c-.82,1.08-.61,2.32-.54,3.54,0,.02,0,.05,0,.07,0,.89.01,1.77.02,2.66l-.19.11.05.21s0,0,0,0c-1.06,1.14-.39,2.55-.61,3.83l-.14.13.09.17s0,0,0,.01c-.06.1-.11.21-.15.32-.2.41-.37.83-.49,1.26-.29,1.03-.36,2.1-.21,3.21.01.11.02.22.04.33-.1.15-.2.3-.28.45-.52.99-.61,2.07-.72,3.16-.04.44-.09.88-.17,1.32l-.2.14.08.23s0,0,0,0c-1.05,1.33-.46,2.95-.79,4.4,0,0,0,0,0,0-.28.42-.46.87-.6,1.34-.05.15-.09.3-.12.46-.19.8-.28,1.62-.46,2.42l-.17.13.07.2s0,0,0,0c-.65.66-.5,1.57-.73,2.36-.03.03-.05.06-.08.08-.68.65-.49,1.46-.45,2.25,0,.11,0,.21,0,.32,0,.08,0,.15-.01.23-.06.22-.12.45-.18.67-.37,1.41-.75,2.81-1.12,4.22-.05.19-.1.38-.15.57,0,0,0,0,0,0-.82.52-.42,1.41-.63,2.11v.02c-.29.14-.48.31-.6.5-.24.37-.26.82-.27,1.27,0,.29,0,.58-.07.86.01,0,.02,0,.03-.01-.31.57-.62,1.13-.92,1.71-.17.33-.35.65-.5.99-.02.03-.03.06-.05.1-.1.23.14.62.23.93l-.12.14.1.16c-.38.16-.68.38-.77.81-.09.04-.17.09-.24.14-.29.22-.38.52-.4.86,0,.14,0,.28,0,.42-.13.07-.24.16-.33.25-.14.15-.23.33-.27.53-.04.2-.05.42-.02.66-.63.59-.42,1.41-.59,2.13l-.03.05c-.24.41-.49.82-.72,1.23-.66,1.16-1.23,2.35-1.46,3.68-.03.15-.06.3-.08.46,0,0,0,0,0,0-.17.39-.36.77-.56,1.14-.43.82-.87,1.64-1.15,2.53-.12.39-.22.79-.26,1.21-.94.73-.17,2.06-.9,2.79-.14.14-.26.29-.35.45-.18.27-.29.56-.38.86-.2.7-.21,1.45-.41,2.16-.28.11-.45.27-.57.45-.14.22-.2.48-.22.75-.02.25-.01.5-.03.74-.08,0-.16.01-.23.04-.08.04-.16.09-.23.16-.41-.16-.69-.4-.73-.88-.04-.55-.28-.98-.81-1.2h0s0,0,0,0h0s-.05.03-.05.03c0-1,.6-2.1-.51-2.9-.04-.14-.06-.29-.08-.43-.19-1.23.05-2.55-.64-3.69.05-.74-.12-1.43-.39-2.09-.04-.24-.13-.46-.31-.66.06-.67-.11-1.27-.5-1.78-.05-.1-.12-.19-.21-.26h0c.07-.44-.11-.71-.5-.84-.05-.44-.1-.88-.15-1.31,0-.1-.02-.2-.03-.3-.02-.2-.06-.38-.14-.53-.1-.22-.26-.4-.51-.52-.04-.76-.16-1.49-.7-2.08.03-1.03-.8-1.44-1.44-1.99l-.02-.03c.04-.52-.06-.98-.23-1.41-.21-.53-.51-1.01-.84-1.48-.3-.44-.6-.88-.83-1.35,0,0,0,0,.01,0h0c0-.1-.02-.18-.04-.26-.05-.15-.14-.27-.26-.36-.09-.07-.2-.13-.33-.17-.01-.12-.03-.23-.05-.34-.05-.24-.16-.45-.32-.63-.11-.12-.24-.23-.42-.31-.12-.73.03-1.55-.72-2.06-.01-.23-.06-.42-.14-.59-.11-.25-.28-.44-.5-.6-.18-.13-.39-.23-.63-.31-.31-.63-.23-1.43-.82-1.93,0-.64-.17-1.21-.65-1.66l.06-.24-.21-.13c.05-.4-.07-.7-.46-.84-.07-.41-.35-.6-.73-.68-.18-.27-.36-.54-.54-.81-.06-.16-.14-.31-.28-.42h0c.02-.43.06-.86-.03-1.25-.02-.1-.05-.19-.09-.28-.1-.22-.25-.43-.5-.6,0-.57-.15-1.08-.64-1.43,0-.11,0-.2-.02-.29-.04-.15-.13-.26-.24-.35-.09-.07-.19-.12-.31-.16-.25-.67-.16-1.5-.9-1.94-.74-1.32-1.48-2.65-2.22-3.97-.44-.72-.39-1.71-1.19-2.23-.81-.63-1.28-1.52-1.88-2.33-1.81-2.48-4.44-2.31-6.48.32-1.27,1-.66,2.32-.57,3.54-.37.63-.32,1.29-.11,1.95.28.88-.19,1.5-.72,2.1h0c-.18.25-.51.49-.53.74-.06,1.17-.03,2.34-.03,3.51.19,2.4-.45,4.64-1.18,6.88-.49,1.52-.77,3.11-1.15,4.67-.66.37-.66.93-.44,1.55-.05.2-.09.39-.14.59-.47-.19-.94-.38-1.41-.57-.22-2.71-1.65-5.02-2.9-7.26-2.78-4.96-5.43-10.03-8.88-14.59-1.49-1.97-2.89-4.04-4.99-5.48-.36-.24-.56-.71-.84-1.07-1.61-2.05-3.46-3.86-5.44-5.53-1.21-1.02-2.28-2.25-4.02-2.49-.49-.07-.91-.64-1.35-.99-.32-.25-.37-.7-.14-.89,1.11-.95,1.55-2.44,2.99-3.21,1.57-.85,1.62-2.8.28-4-2.73-2.44-5.7-4.59-8.9-6.35-1.14-.63-2.11-1.7-3.63-1.73-1.36-.02-2.38-1.2-3.83-1.3-1.08-.08-2.13-.76-3.19-1.17h0c-.48-.57-1.13-.67-1.82-.67-.78,0-1.56,0-2.34,0l-5.47-1.74c-.67-.35-1.32-.75-2.01-1.04-1.25-.51-2.08-.18-2.8,1.05-.17.29-.25.63.05.93.24.24.45.54.74.71,2.8,1.71,5.48,3.67,8.93,3.89.44.03.88.18,1.32.28.7,1.24,1.8.7,2.79.63.18.08.37.15.56.2.84.93,1.89.62,2.9.48,1.42.87,2.82,1.85,4.33,2.47,1.63.66,2.92,1.76,4.41,2.59,1.39.78,2.65,1.75,3.72,3-1.24.96-2.38,1.85-3.54,2.74-.18.14-.37.35-.57.37-2.7.25-4.29,2.28-6.28,3.74-1.71,1.26-3.7,2.28-5.7,3-2.46.89-4.08,2.77-5.98,4.32-.27.22-.22.86-.31,1.3-.43.45-.66.89-.69,1.34-.01.15,0,.3.03.45.09.37.32.74.7,1.11.25.7.9,1.02,1.45,1.36,2.07,1.27,3.3,3.26,4.69,5.14,1.2,1.61,2.22,3.3,2.99,5.15-.16.92-.43,1.66-1.63,1.5-.64-.08-1.3.02-1.95.04-1.59-.07-3.14-.31-4.69-.76-1.02-.3-1.62-.64-1.8-1.7-.13-.75-.79-1.07-1.4-1.41-.78-.42-1.3-.35-1.65.49-.27.64-.48,1.22-1.1,1.63-.57.38-.51,1.01-.26,1.54.64,1.36.64,2.86.98,4.25.72,2.97.9,6.02,1.72,8.95-.43,1.46.16,2.86.32,4.28.02.15.32.28.49.41l.04.05c-.07.55-.22,1.12-.25,1.66-.02.36,0,.72.14,1.06.12.29.32.57.63.83l-.02.02c-.03.98-.44,2.04.59,2.8.12.19.14.4.06.61-.8,1.17-.83,2.34,0,3.5.11.21.1.42-.02.62h0c-.93.05-1.86.1-2.79.15-3.14-1.28-6.27-2.61-9.43-3.84-1.9-.74-3.65-1.9-5.75-2.08-.32-.03-.78-.18-.91-.42-.78-1.5-2.31-1.75-3.66-2.33-.41-.18-.85-.4-1.12-.73-1.46-1.79-3.49-2.96-5.34-4.17-1.87-1.22-2.96-3.01-4.53-4.41-1.51-1.34-2.5-3.24-4.35-4.25-.55-.3-.78-.82-1.02-1.33-.58-1.2-1.64-1.51-2.84-1.59-.34-.02-.69.01-1.03.01-2.6,0-2.61-.01-4.52,1.71-1.35,1.22-2.66,2.48-4,3.71-.47.43-.53.98-.56,1.56-.59.88-.72,1.84-.56,2.87-.1.19-.13.4-.11.62-.1.08-.19.18-.26.27-.28.35-.4.77-.38,1.24.01.2.13.48.29.55.15.07.43-.02.61-.12.41-.22.57-.59.55-1.03,0-.04,0-.07,0-.11h0s0,0,0,0c.39-.1.54-.39.64-.74.62.08,1.14,0,1.26-.76.9-.71,1.99-1.3,2.46-2.35.77-1.71,2.34-2.32,3.75-3.23.85-.55,1.33-.53,2.05.17.96.93,1.34,2.47,2.9,2.79.17.03.37.31.41.51.43,2.24,2.46,3.15,3.85,4.58,1.44,1.47,2.98,2.85,4.55,4.18,1.13.95,2.33,1.89,3.63,2.58,2.81,1.49,5.63,2.96,8.55,4.27,2.8,1.25,5.56,2.69,8.4,3.9,1.57.67,3.27,1.02,4.85,1.66.72.29,1.75.08,2.13.86.27.56.09,1.33.16,2,.05.44.06,1.08.34,1.28.77.55,1.06,1.24,1.18,1.98.12.68.1,1.4.18,2.09.02.19.26.35.39.52,0,0,0,0,0,0,.48.88-.27,2.03.58,2.83-.01.05-.02.09-.03.13-.23,1.07,0,2.04.58,2.93.07.11.15.22.23.32-.08.62.17,1.07.67,1.41.02.45.05.9.07,1.35.01.21.02.42.03.64.08,1.65-.33,3.36.51,4.93.06.89.12,1.77.18,2.66.03.56.04,1.12.57,1.48.05.22.14.45.2.68.06.21.09.41.03.58-.1.3-.16.6-.2.9,0,.02,0,.03,0,.05-.14,1.07,0,2.14.03,3.21-.54.34-.74.88-.72,1.47.04,1.4-.28,2.73-.62,4.07-1.01,1.75-.76,3.65-.66,5.53.09-.21.17-.43.25-.64-.06.22-.14.43-.25.64l.04.03c-1.09,1.83-1.16,3.69-.13,5.58.07.19.08.37.02.57-.53.37-.8.84-.52,1.5-.04.19-.03.37.04.55h0c-.03.86-.2,1.75-.05,2.58.17.97-.23,1.68-.66,2.43-1.45,2.45-3.31,4.51-5.29,6.58-2.36,2.46-4.91,4.75-7.16,7.31-1.07,1.23-2.28,2.21-3.68,3-1.97,1.11-3.81,2.35-6.14,2.85-2.66.57-5.09,1.99-7.46,3.33-1.45.82-2.85,1.35-4.52,1.07-.55-.09-1.13-.09-1.69-.14-.21-1.36.36-2.87-.77-4.05-.7-2.96-1.4-5.91-2.09-8.87-.15-.66-.12-1.41-.43-1.99-1.23-2.31-1.26-4.97-2.21-7.35-.41-1.03.15-2.31-.8-3.22-.04-1.2.24-2.45-.62-3.5-.26-.44-.51-.89-.77-1.33,0-.89,0-1.79-.02-2.68-.01-.57-.15-1.11-.68-1.45-.25-.64-1.22-.82-1.16-1.6.12-1.46-.8-2.29-1.71-3.15.25-.61.77-.61,1.29-.66.04,0,.08,0,.12-.01.44-.05.91-.03,1.35-.07.55-.05,1.08-.2,1.49-.74l-.03-.05c.27.06.54.13.78.12.25,0,.47-.11.6-.42.03-.08.06-.17.08-.28h0s0-.01,0-.01c.18-.19.32-.35.43-.5.38-.48.42-.79.12-1.16-.12-.15-.3-.31-.54-.51-.38-.53-.91-.57-1.51-.53-.43.03-.87-.07-1.31-.12-1.11-1.02-1.64-1.05-2.87-.16l-.25.07-.25-.05h0c-.16-.4-.46-.54-.87-.43-2.02-.7-4.04-1.41-6.07-2.08-2.81-.94-5.33-2.38-7.61-4.27.07-.63-.22-1.06-.75-1.36h0c.02-.41-.13-.7-.5-.87-.06-.28-.14-.56-.22-.83-.32-1.11-.78-2.16-1.3-3.19-.23-.46-.47-.91-.72-1.36,0,0,0,0,0,0-.01-.55-.04-1.09-.04-1.64,0-.68-.11-1.31-.71-1.75l-.02-.04c0-.5.1-1.01.14-1.51.04-.47.01-.94-.19-1.37-.11-.23-.26-.44-.49-.65-.02-.66-.04-1.32-.07-1.98.2-.07.32-.18.41-.3.18-.27.15-.62.12-.98.05-1.2.11-2.41.16-3.61.02-.57-.1-1.08-.65-1.39-.01-.01-.02-.03-.03-.04l-.64-.86.09-.25-.19-.19c.12-.62.02-1.14-.59-1.45,0-.17-.04-.3-.11-.42-.06-.08-.13-.15-.2-.22-.08-.06-.18-.11-.29-.14-.02-.1-.05-.2-.1-.28-.07-.13-.17-.23-.29-.31-.08-.05-.18-.1-.28-.13-.01-.08-.03-.15-.05-.22-.14-.46-.45-.72-.85-.88-.19-.08-.39-.13-.6-.18-.07-.38-.25-.65-.65-.74-.1-.41-.4-.57-.8-.58-.13-.23-.28-.38-.44-.49-.37-.27-.82-.3-1.28-.3-.32,0-.63.01-.93-.03-.12-.36-.39-.54-.76-.6-.06-.37-.23-.65-.6-.76-.08-.29-.08-.61-.11-.92-.03-.3-.09-.59-.29-.83-.08-.1-.19-.19-.34-.27-.05-.4-.28-.63-.65-.72-.08-1.58-.15-3.17-.23-4.75l.04-.07c.97-.67.29-1.84.79-2.65.04-.06.08-.11.12-.17.61-.85.89-1.7,0-2.58-.03-.03-.04-.05-.07-.08-.2-.43-.19-.87-.01-1.31.07-.06.14-.12.2-.18.54-.54.58-1.22.37-1.96-.02-.18-.04-.36-.07-.54.1-.37-.02-.61-.3-.75-.06-.03-.13-.07-.21-.09-.94-1.22.51-2.92-.8-4.07l-.02-.03c-.02-.56-.02-1.12-.56-1.47.01-.58-.19-1.05-.69-1.38.02-.57-.13-1.07-.6-1.43,0-.51.01-1.01,0-1.52,0-.26-.02-.51-.05-.77,0-.01,0-.03,0-.04-.02-.15-.03-.29-.05-.44-.14-1.34-.2-2.7-.75-3.93-.14-.3-.3-.6-.5-.88,0,0,0,0,0,0,0-.66-.16-1.24-.8-1.58l.08-.23-.19-.15c.03-.27,0-.49-.07-.67-.1-.25-.27-.42-.49-.56-.2-.12-.43-.21-.69-.27-.08-.38-.28-.63-.67-.72-.12-.41-.38-.6-.83-.52-.26-.2-.49-.18-.69.09-.14.07-.26.14-.36.22-.41.31-.43.66.02,1.05.05.04.09.08.15.12.1.54.27,1.04.78,1.34.04.32.02.67.05,1,.02.2.06.4.15.57.1.18.25.35.49.48.21,1.62-.27,3.33.62,4.85,0,0,0,0,0,0,.1.89.17,1.78.32,2.66.05.27.28.52.44.77,0,.49.27.8.68,1.02-.01-.14-.04-.27-.09-.39.05.12.08.24.09.39-.06.15-.14.3-.18.46,0,.04.13.11.19.17,0,0,0,0,0,0-.39.39-.43.78,0,1.16-.01.32-.02.64.03.94.03.18.07.35.15.51.11.22.27.43.51.61-.06.22-.03.43.11.61-.07.17-.08.35-.07.54.01.56.17,1.17-.45,1.51-.07.04-.15.08-.24.11-.19-.1-.39-.14-.6-.12-.09-.38-.32-.61-.72-.66-.12-.26-.28-.42-.46-.53-.17-.11-.37-.16-.57-.18-.33-.04-.67,0-1.01-.02-.23-.23-.52-.28-.83-.3-.41-.15-.83-.3-1.24-.45,0,0,0,.01.01.02-1.97-.61-3.91-1.31-5.9-1.81-.58-.14-1.12-.45-1.67-.7-.54-.24-1.1-.42-1.73-.34-.14.02-.28.04-.42.09-.18-.2-.38-.22-.6-.08,0,0,0,0-.01,0h0s0,0,0,0c0,0,0,0,0,.01.05.07.11.14.16.22-.06-.06-.11-.13-.16-.22-.32-.07-.53-.34-.8-.51l-.03-.03c-.17-.48-.55-.64-1.02-.68-.76-.07-1.53-.14-2.29-.22-.25-.23-.52-.38-.8-.46-.33-.1-.67-.11-1.02-.11-.56,0-1.13.08-1.67-.03h0c-.17-.12-.33-.22-.5-.32-.78-.43-1.56-.54-2.35-.17-.24.12-.48.26-.73.48l.09.17c-.29.13-.48.44-.82.48,0,0,0-.02,0-.02.27-.15.54-.3.81-.46-.4-.06-.68.1-.85.44-.17-.06-.31-.05-.43.04,0,0,0,0,0,0-.04.03-.08.08-.12.13-.03,0-.05,0-.08,0-.36-.04-.56.09-.62.37-.02.08-.03.17-.02.28-.47.44-.94.89-1.41,1.33-.45.06-.72.26-.62.76.2-.25.4-.49.61-.74,0,0,0,0,0,0-.16.28-.39.51-.61.74l-.2.22.11.27h0c-.37.57-.89,1.06-1.31,1.6-.19.25-.36.51-.49.79-.17.37-.27.77-.24,1.24-.38.06-.67.23-.74.64-.42.08-.59.34-.54.76.18-.25.37-.49.55-.74,0,0,0-.01.01-.02h0c.24-.21.47-.42.71-.63,0,0,0,0,0,0l.02-.02c-.22.26-.43.51-.74.66-.14.29-.38.49-.56.75l-.22.15.06.26s0,0,0,0c-.44.44-.68.97-.73,1.58-.14.09-.25.19-.35.3-.26.3-.37.66-.42,1.05-.02.2-.04.41-.05.62-.22.1-.42.21-.6.35-.18.14-.33.31-.43.51-.1.19-.16.41-.16.67-.3.24-.46.52-.56.81-.04.16-.07.31-.11.47-.06.46-.04.95-.14,1.4-.38.12-.6.37-.54.81-.63.56-.58,1.35-.68,2.08-.27.17-.45.39-.57.62-.1.2-.16.41-.19.63-.04.23-.06.47-.07.72-.14.12-.25.25-.34.39-.14.23-.21.47-.24.73-.04.34-.01.69.03,1.05-.47.56-.81,1.17-1.04,1.81-.04.11-.07.21-.1.32-.18.64-.26,1.31-.23,2.02l-.14-.09c-.23.21-.36.43-.46.66-.17.41-.19.85-.17,1.29.02.5.07,1-.03,1.47l.11.11c-.31.1-.5.28-.63.49-.32.49-.32,1.18-.7,1.64-.74.68-.94,1.49-.76,2.39.03.13.06.26.1.39-.05.19-.09.39-.13.59-.07.09-.11.19-.17.28-.66,1.1-.68,2.27-.58,3.47.03.38.08.76.12,1.14-.14.17-.19.37-.15.58-.18.1-.31.22-.39.36-.11.18-.16.4-.16.64,0,.1,0,.2,0,.29,0,.75,0,1.51.01,2.26v.02s0,0,0,0c-.18.4-.5.79-.53,1.2-.14,2.35-.48,4.7-.25,7.07.03,1.62.04,3.25.12,4.87,0,.02,0,.04,0,.05,0,.07.03.13.06.2.09.17.27.34.4.51,0,0,0,0,0,0,.05.42.1.85.16,1.27-.21.25-.45.47-.68.7l-.07-.1c-3.86-.01-7.72-.02-11.59-.04h0s0,0,0,0c-.14-.07-.28-.18-.42-.26-.16-.1-.31-.18-.47-.18-2.01-.04-4.02-.02-6.03-.01-.04,0-.08,0-.12,0h0c-.2-.08-.39-.08-.59,0h0c-.09-.05-.19-.08-.28-.12-.29-.1-.58-.13-.88-.04-.1.03-.2.06-.3.12-.21-.06-.41-.04-.6.07-.49-.02-.98-.05-1.47-.07-1.16-.05-2.33-.12-3.49-.15-.14,0-.28-.01-.42-.02-.41,0-.81.03-1.15.21-.2.11-.38.27-.53.5-.21-.02-.42-.08-.63-.12-.46-.09-.91-.14-1.33.28-.46.18-.74.49-.82.95-.01.08-.03.16-.03.25l-.04.04c-.06.02-.11.05-.17.08-.33.17-.48.47-.49.86,0,.55-.02,1.11-.03,1.66,0,.08,0,.15,0,.23-.04.06-.06.1-.09.15-.71,1.13-.79,1.36-.17,2.16.08.1.17.22.27.34.03.05.08.1.13.16.12.22.09.43-.07.62-.03.03-.07.06-.11.09-.16.12-.35.24-.35.37-.08,1.24-.13,2.48-.11,3.72,0,.12.1.24.22.36.13.13.29.25.4.38.34.66.08,1.32.05,1.99-.05,1.2-.25,2.47.7,3.49v.02c.36.92-.39,2.06.56,2.86.03.8.15,1.57.74,2.19-.15.2-.13.36.09.49-.12.61.03,1.11.59,1.44-.04.21-.05.41-.04.61.02.47.18.89.52,1.25.07.08.15.15.25.22-.01.17-.04.34-.06.5-.09.69-.15,1.37.31,1.93.1.12.21.23.36.34l.17-.09c-.12.79-.13,1.55.68,2.03l.02.04c-.01.44.23.65.64.71.05.38.24.64.59.78.01.25-.02.51-.05.77-.08.64-.16,1.28.41,1.76.09.08.2.15.33.21.28.67.08,1.51.75,2.04,0,.57.22,1.04.67,1.4-.05.6.28,1.01.67,1.39-.02.15-.04.29-.03.43.01.3.1.56.32.75.1.09.22.16.37.22.05.3.03.64.06.95.02.2.07.4.17.56.11.18.29.34.59.45l.02.02c.19.36.38.71.57,1.07l-.07.2.17.13c-.1.28-.04.63-.02.95.01.3-.02.58-.27.79-.08.07-.19.13-.32.18-.1-.37-.37-.54-.75-.58-.05-.15-.11-.27-.18-.37-.24-.32-.61-.41-1.05-.37-.04,0-.07,0-.11,0-.05-.05-.1-.11-.15-.16-.64-.7-1.22-1.46-2.09-1.88-.13-.06-.27-.11-.41-.16-.12-.38-.37-.59-.76-.61-.13-.37-.42-.53-.8-.58-.07-.41-.28-.65-.72-.63l-.04-.02c-.29-.45-.66-.8-1.23-.85-.21-.23-.42-.45-.65-.65-.21-.18-.43-.34-.68-.46-.23-.11-.48-.19-.76-.21-.39-.39-.87-.6-1.43-.65-.1-.36-.33-.59-.7-.69-.03-.29-.1-.53-.21-.74-.11-.2-.26-.36-.47-.47-.19-.1-.43-.16-.72-.16-.23-.23-.46-.46-.7-.68h0c-.22-.24-.46-.46-.65-.73h0c.22.24.43.49.65.73,0-.44-.15-.75-.64-.74-.37-.34-.73-.67-1.1-1.01-.11-.1-.22-.21-.34-.31h-.01s-.09.1-.09.1c0,0,0,0-.01,0,.03-.03.07-.06.1-.09h.01c-.32-.78-.81-1.34-1.6-1.54-.09-.02-.18-.04-.27-.05-.13-.35-.38-.56-.75-.64-.02-.14-.06-.27-.12-.37-.07-.13-.18-.23-.32-.3-.06-.03-.13-.06-.2-.08-.03-.08-.06-.16-.1-.22-.07-.07-.14-.14-.21-.21-.15-.08-.33-.11-.54-.1-.22-.24-.44-.47-.65-.71.02-.25.02-.49-.04-.69-.04-.14-.11-.27-.21-.38-.11-.12-.27-.21-.48-.28-.05-.41-.28-.64-.68-.7-.05-.38-.24-.65-.62-.76-.02-.4-.21-.67-.61-.79-.14-.23-.28-.47-.42-.7-.45-.72-.96-1.37-1.77-1.77-.02,0-.03-.02-.05-.03,0-.02-.02-.03-.02-.05-.05-.13-.13-.21-.24-.24-.06-.02-.13-.02-.22,0-.25-.42-.51-.83-.76-1.25,0-.12,0-.24-.02-.35-.04-.23-.14-.42-.29-.58-.14-.14-.3-.27-.52-.36h0c-.21-.24-.46-.46-.65-.72,0,0,0,0,0,0,.21.24.43.48.64.71-.01-.43-.25-.65-.65-.73-.04-.38-.18-.7-.58-.83-.11-.23-.23-.46-.36-.67-.47-.77-1.07-1.43-1.84-1.94-.04-.41-.26-.65-.66-.72-.02-.36-.2-.57-.49-.67-.06-.02-.12-.04-.2-.05-.01-.08-.03-.15-.06-.21-.09-.22-.26-.33-.51-.35-.06,0-.11-.01-.18,0h0c-.04-.12-.11-.19-.18-.24,0,0,0,0-.01,0-.08-.04-.17-.04-.28-.02-.03-.11-.07-.21-.12-.31-.19-.47-.52-.8-1.01-.96-.09-.03-.18-.06-.28-.08-.12-.36-.38-.56-.74-.64-.22-.67-.25-1.41-.84-1.92h0c-.21-.25-.46-.46-.62-.75,0,0,0,0,.01,0,.2.25.41.49.61.74.05-.47-.2-.68-.61-.76-.05-.38-.23-.66-.59-.8-.01-.08-.03-.15-.05-.22-.07-.2-.19-.33-.38-.4-.08-.03-.18-.05-.28-.05-.25-.27-.5-.54-.75-.81l.13-.21-.16-.19c.05-.13.06-.25.04-.35-.03-.13-.11-.24-.25-.33,0,0,0,0,0,0,0,0,0,0,0,0-.07-.3-.23-.49-.44-.64-.2-.14-.45-.23-.69-.34l.05-.26-.21-.16c.06-.58-.11-1.05-.65-1.34v-.02c-.19-.26-.46-.46-.58-.77,0,0,.01,0,.02,0,.18.25.36.51.54.76.02-.41-.16-.68-.54-.81-.06-.55-.3-.99-.77-1.31.02-.18,0-.33-.07-.46-.06-.08-.12-.16-.19-.24-.07-.05-.16-.1-.27-.13-.13-.52-.35-.98-.91-1.18v-.02c-.2-.26-.45-.47-.63-.73,0,0,0,0,0,0,.2.25.41.49.61.74-.01-.41-.25-.63-.61-.75,0-.39-.16-.68-.54-.81-.03-.17-.08-.33-.14-.48-.06-.16-.14-.31-.23-.45-.1-.14-.22-.27-.38-.38,0-.59-.31-1-.78-1.32,0-.26,0-.51-.08-.72-.05-.1-.1-.2-.15-.29-.11-.15-.26-.27-.47-.36-.02-.41-.21-.68-.62-.77-.1-.26-.22-.5-.35-.73-.26-.46-.58-.85-1.04-1.12-.19-.11-.4-.2-.64-.26-.26-.65-.19-1.45-.8-1.96.04-.45-.21-.66-.58-.79-.02-.2-.04-.39-.09-.57-.06-.19-.15-.37-.29-.51-.09-.1-.21-.18-.35-.25,0-.18-.02-.35-.05-.51-.05-.29-.17-.55-.41-.74-.06-.05-.14-.1-.22-.14,0-.09-.02-.18-.04-.26-.06-.18-.17-.32-.33-.42-.06-.04-.14-.07-.22-.1-.04-.15-.08-.29-.13-.43-.08-.21-.18-.41-.31-.58-.08-.11-.18-.22-.29-.31,0-.1,0-.18-.02-.27-.03-.26-.13-.47-.29-.64-.13-.15-.3-.28-.51-.38-.1-.71-.12-1.46-.78-1.95l-.03-.06c.02-.39-.14-.67-.5-.82,0-.2,0-.41-.05-.59-.05-.23-.14-.42-.33-.57-.09-.07-.2-.14-.34-.18-.06-.38-.27-.63-.63-.75-.03-.31-.06-.63-.1-.94-.09-.67-.25-1.3-.69-1.8-.19-.22-.43-.42-.74-.58-.04-.38-.26-.62-.6-.76.04-.24.08-.47.11-.7.06-.59,0-1.14-.39-1.61-.12-.15-.26-.29-.45-.42,0-.58-.08-1.11-.65-1.42,0-.57-.15-1.08-.68-1.4-.07-.4-.14-.81-.22-1.21.01-.04.02-.07.02-.1.13-.54,0-1.01-.45-1.36-.03-.02-.05-.04-.08-.06-.04-.19-.09-.38-.15-.57.01-.03.02-.06.02-.09.14-.52,0-.91-.39-1.21-.07-.05-.14-.1-.22-.15-.17-.5-.14-1.08-.63-1.44.07-.62-.08-1.12-.76-1.32h0c-.52-.85.23-2.02-.68-2.77.07-1.01-.82-1.45-1.28-2.15.07-.52.08-1.03.03-1.52-.05-.46-.14-.9-.26-1.34-.31-1.12-.81-2.19-1.26-3.28h0c.06-.22.02-.43-.1-.63.06-.22.09-.43.09-.63,0-.53-.17-1.02-.48-1.48-.03-.04-.06-.09-.09-.13,0-.05,0-.09,0-.14,0-.8,0-1.58-.58-2.18-.09-.09-.18-.17-.29-.25-.18-.28-.37-.56-.55-.84.02-.3.04-.6,0-.89-.02-.2-.08-.4-.17-.57-.12-.22-.29-.41-.58-.57-.07-1-.05-2.02-.44-2.95-.05-.17-.13-.34-.25-.5-.02-.75.06-1.54-.75-2l-.03-.04c-.13-.73-.02-1.53-.58-2.14.09-.65-.1-1.18-.68-1.54.13-.2.09-.36-.12-.49.05-.37.11-.74.08-1.08-.01-.16-.05-.31-.12-.45-.1-.22-.27-.41-.55-.58.17-1.9-.54-3.56-1.38-5.19.3-.33.29-.66-.03-.97-.01-.23-.03-.47-.04-.7.02-.22.05-.45.07-.67.07-.71.05-1.4-.53-1.96-.06-.06-.11-.12-.18-.17-.04-.19-.1-.38-.17-.56.02-.07.03-.13.04-.19.09-.51-.04-.91-.57-1.11-.04-.02-.08-.04-.13-.05-.1-.17-.25-.26-.44-.28,0-.16-.02-.32-.03-.48-.04-.6-.07-1.21-.11-1.81-.04-.66-.08-1.31-.12-1.97-.03-.47-.17-.86-.6-1.1h0c-.29-1.02.07-2.17-.62-3.12l.07-.21-.18-.13c.08-.22.09-.44.02-.67,0-.24-.02-.49-.02-.73-.04-1.19-.08-2.38-.11-3.56.26-.4.39-.82.39-1.27,0-.2-.03-.4-.09-.61.23-.38.44-.77.64-1.16.38-.74.7-1.5.93-2.29.2-.68.32-1.39.35-2.13l.19-.16-.09-.24c.37-.26.59-.58.7-.93.05-.15.08-.29.1-.45.03-.3,0-.61-.05-.93,0,0,0,0-.01,0,1.46-3.37,1.28-6.94,1.22-10.49,0-.23-.34-.45-.56-.68-.02-.56-.01-1.12-.05-1.67-.02-.23-.02-.46-.03-.69-.02-.24-.05-.48-.07-.72-.07-.39-.21-.77-.5-1.1.02-.15.02-.28,0-.41-.03-.26-.14-.48-.32-.66-.12-.11-.27-.2-.46-.27-.06-.54-.11-1.09-.64-1.42-.01-.33-.02-.67-.07-.98-.04-.21-.1-.42-.2-.61-.1-.17-.23-.33-.42-.48,0-.19-.04-.34-.12-.46-.03-.04-.06-.07-.09-.11-.1-.1-.23-.17-.4-.22-.09-.38-.35-.58-.72-.67-.04-.18-.09-.35-.16-.51-.28-.68-.77-1.13-1.45-1.4-.15-.06-.31-.11-.47-.16-.37-.46-.87-.63-1.43-.66-.11-.16-.23-.28-.36-.37-.19-.13-.41-.2-.64-.23-.35-.05-.73-.03-1.08-.09-.07-.37-.22-.67-.43-.89-.01-.01-.03-.03-.04-.04-.23-.22-.53-.36-.9-.42,0-.2-.07-.37-.23-.5-.07-.1-.15-.21-.23-.31-.57-.74-1.21-1.44-1.08-2.53.02-.14-.11-.29-.25-.44-.11-.11-.22-.23-.3-.34-.27-1.15.26-2.45-.69-3.46-.21-1.72.17-3.52-.58-5.17-.04-.11-.09-.21-.15-.32l-.02-2.74c0-.23,0-.47,0-.7,0-.78.04-1.56-.01-2.34-.05-.78.06-1.62-.42-2.3-.06-.08-.12-.17-.2-.24-.04-.43-.07-.86-.11-1.29.06-.5.15-1.01.2-1.51.07-.7.03-1.38-.31-2.02-.12-.24-.28-.47-.5-.7-.03-.44-.05-.88-.08-1.32-.01-.2-.03-.41-.04-.61.06-1.31.13-2.62.17-3.93.01-.47-.23-.82-.64-1.06,0-.02,0-.03,0-.05-.01-.42-.02-.84-.04-1.26.04-.03.06-.06.09-.09.6-.57.46-1.36.51-2.08.05-.67,0-1.34,0-2.01h0c0-.06,0-.12,0-.18-.03-.61-.08-1.21-.1-1.82-.02-.48-.12-.9-.45-1.23-.07-.07-.13-.14-.23-.2-.18-.31-.37-.61-.55-.92l.1-.28-.19-.23.13-2c.54-.34.67-.89.58-1.43-.2-1.25-.08-2.47-.02-3.71.15-3.58.09-7.17.12-10.76.15-.15.39-.31.4-.47.13-3.75.23-7.5.34-11.25.35-.3.43-.7.45-1.15.04-.89.09-1.79.15-2.68.02-.35.04-.69.06-1.04.83-1.1.69-2.33.59-3.56-.02-.23-.04-.46-.05-.69.11-2,0-4.02.66-5.96.02-.07.04-.15.07-.22,1.03-1.97.93-4.08.72-6.19,0,0,0,0,0,0h0s0,0,0,0c.82-1.3.98-2.62.23-3.97-.04-.08-.08-.16-.13-.23-.29-.89-.21-1.7.33-2.41.08-.1.16-.2.26-.3.42-.25.55-.64.57-1.1.06-1.29.13-2.58.2-3.86,0-.14.01-.28.02-.42l-.13-.17c.62-.27.62-.87.67-1.4.08-.87.12-1.74.17-2.6.36-.13.61-.35.61-.78.28-.34.47-.69.62-1.07.3-.75.39-1.56.52-2.36.07-.45.15-.9.29-1.34.55-.63.55-1.4.54-2.17l.2-.18-.07-.26c.39-.18.65-.46.64-.92.82-.54.35-1.43.57-2.13l.05-.06c.79-.41.81-1.16.85-1.9.18-.14.31-.29.4-.45.18-.31.24-.66.24-1.01,0-.44-.05-.89.01-1.31.37-.1.64-.31.69-.73,0,0,0,0,0,0,.32-.31.51-.67.64-1.05.06-.16.1-.33.14-.5.15-.66.22-1.35.53-1.95l.19-.17-.1-.23s0,0,0,0c.38-.22.56-.56.56-.99l.02-.03c.96-.66.38-1.8.81-2.62.57-.28.65-.82.73-1.37.39-.12.6-.37.54-.81-.18.26-.36.51-.55.77,0,0-.02,0-.02.01.1-.32.38-.52.57-.78v-.02c.09-.07.15-.15.2-.23.55-.72.62-1.57.59-2.45.3-.25.56-.53.77-.82.42-.57.66-1.22.74-1.95.02-.19.03-.38.02-.58.35-.18.48-.48.44-.87v-.02c.5-.31.76-.74.74-1.32.49-.3.76-.73.82-1.29.08-.05.15-.11.21-.17.34-.34.4-.76.4-1.2,0-.25,0-.5.01-.74.24-.14.41-.33.53-.55.01-.03.03-.06.04-.09.1-.2.17-.42.22-.65.14-.03.26-.09.36-.17.05-.05.1-.1.15-.15.07-.11.12-.24.13-.41.37-.15.48-.44.45-.82l.22-.11-.03-.24s0,0,0,0c0,0,0,0,0,0,.39-.22.6-.55.65-.99.61-.21.71-.75.81-1.28.4-.13.59-.38.5-.83l.2-.17-.09-.25c.46-.39.72-.88.8-1.47.35-.16.49-.46.55-.82.38-.07.65-.25.73-.65.39-.07.62-.3.69-.69.4-.08.6-.34.65-.73.14-.04.26-.09.35-.16.28-.18.41-.46.46-.8.01-.1.02-.2.02-.3.16-.06.31-.14.42-.25,0,0,.01-.01.02-.02.11-.12.18-.26.23-.44.1-.02.19-.06.27-.1.12-.07.21-.18.27-.31.05-.1.08-.22.08-.36.55-.3.58-.86.68-1.39.37-.06.68-.2.78-.6.4-.11.54-.42.6-.79.39-.07.61-.3.69-.69.2.01.38-.05.52-.2.01,0,.02,0,.03,0,.61-.07.81-.54.98-1.04q.97-.12.97,1.01c-.53,1.67-.71,3.38-.69,5.11,0,.38.02.77.04,1.15-.11.13-.21.26-.29.4-.37.58-.48,1.2-.37,1.86.04.23.09.45.18.69-.04.88-.08,1.76-.13,2.64-.65.61-.71,1.4-.66,2.22.04.68.09,1.36.13,2.04,0,.42,0,.84,0,1.27-.05.94-.09,1.87-.14,2.81l-.05-.03c-.04.05-.07.1-.11.15-.77,1.09-.89,2.17.02,3.25.04.04.06.09.1.13.17.44.18.88-.04,1.31-.04.02-.06.05-.1.07-.59.43-.55,1.1-.55,1.72-.01,1.01.04,2.02.07,3.03,0,0,0,0,0,0,.14.05.29.07.43.07.05,0,.11.01.16,0,.03.46.07.92.1,1.38.03.41.06.81.09,1.22.03.28.02.57,0,.85-.08.91-.26,1.83.41,2.63.04.04.06.09.1.13.21.5.23.99.13,1.54-.13.71-.12,1.44.48,2,.08,1.12.08,2.25.31,3.35.1.5.25.98.48,1.46-.01.67-.03,1.34-.03,2.01,0,.51.11.96.48,1.3.06.05.1.1.17.15.08.17.08.35.02.53h0s-.04.04-.06.07c-.75.73-.57,1.41.16,2.06,0,0,.02.02.03.03.15.5.02,1.14.67,1.4,0,.39.16.67.51.82-.04.13-.07.27-.09.4-.14.81.02,1.56.34,2.27.16.34.34.68.56,1.01l-.03.23.21.1c.21.29.45.56.51.93l-.06.27.21.18c.49.86-.27,2,.61,2.78.17.4.33.8.5,1.2.05.12.1.24.15.35l-.08.3.23.21c-.06.45.19.63.58.69.05.35.17.66.5.83-.03.1-.04.2-.05.3-.12.96.45,1.55,1.12,2.1.13.11.27.22.41.33.08.34.18.67.3.99.09.25.19.49.3.72.26.54.57,1.07.92,1.57l.02.04c.16.87.43,1.67,1.22,2.18,0,.16.03.3.07.44.12.44.4.73.81.9.13.05.28.1.44.13.05.2.08.41.14.6.07.21.17.39.36.52.09.06.19.12.31.15.23.24.41.43.58.58.37.34.62.46.96.43.24-.02.51-.12.91-.27l-.04-.03s0,0,0,0c.42.27.83.49,1.25.59.4.1.79.08,1.18-.1.25-.12.49-.3.73-.57.45-.02.63-.29.67-.7h.01c.25-.2.45-.46.74-.59h0s.01,0,.02,0c.2,0,.4.01.59,0,.31-.03.59-.14.79-.45.03-.05.06-.1.08-.16.09-.02.17-.04.24-.07.14-.06.25-.16.33-.29.06-.09.11-.2.14-.33.36-.07.61-.28.73-.62.15-.01.29-.04.42-.06.59-.13,1.09-.4,1.51-.79.23-.21.45-.46.64-.74.41-.04.64-.26.74-.65.4-.02.67-.22.79-.61.21-.09.41-.19.61-.29.56-.3,1.05-.67,1.32-1.26.07-.15.13-.3.17-.48.52-.12.99-.32,1.22-.87.34-.04.64-.13.91-.27.4-.2.74-.49,1.05-.82.29-.3.56-.62.84-.93.23-.02.43-.07.6-.15.26-.12.45-.31.6-.55.11-.18.2-.39.27-.62.39-.22.77-.44,1.16-.65.04-.02.08-.04.12-.07.13.07.24.15.34.23.32.28.4.65.42,1.04.01.26,0,.53.02.79.05.9-.6,1.76-.15,2.68.02,2.61.05,5.23.07,7.84,0,.43.16.78.44,1.07.04.04.07.08.11.12.29.88-.14,1.98.78,2.68v.02c.11.64-.15,1.35-.03,1.98,0,.04.01.07.02.11.07.28.24.54.55.77.05.55.13,1.09.15,1.64.02.5.22.86.66,1.09.02,2.53.82,4.88,1.92,7.09,1.57,3.16,3.49,6.13,6.02,8.62,1.87,1.84,4.04,3.36,6.37,4.54,2.4,1.23,4.79,2.66,7.66,2.54,1.83,1.04,3.9,1.13,5.88,1.59,1.13.26,2.19.61,3.35.25.21-.06.51-.11.67-.01,1.53,1.01,3.35.48,4.95.93,2.93.82,5.88.66,8.85.61.44.53.89.89,1.45.14.17-.02.35-.03.52-.05.43.41.94.55,1.54.62,2.75.31,5.48-.05,8.22-.04.22.09.43.09.65,0,2.27.46,4.53-.07,6.8-.07.24,0,.49-.42.73-.64,1.7-.62,1.79-.58,2.17.77-.94.41-.9,1.19-.76,2-.35.14-.53.39-.58.76l-.03.03c-.65.2-.83.67-.77,1.29-.58.54-.74,1.25-.77,2-.36.15-.5.42-.46.81-.4.3-.39.68-.19,1.08,0,0,0,0,0,0-.58.7-.68,1.51-.55,2.37-.32.45-.31.91-.05,1.39,0,.15.02.31.03.46.02.3.04.6.05.89.02,0,.03,0,.05,0,.63.04,1.33.25,1.73-.36.06-.09.12-.2.16-.34l.03-.03c.68-.2.75-.73.73-1.32.49-.34.72-.8.68-1.39h0c.49-.33.72-.78.63-1.38.22-.13.26-.3.14-.52.45-.38.72-.86.74-1.46.55-.33.66-.86.62-1.44.65-.51.67-1.27.78-1.99.38-.14.56-.39.49-.81,1.58-2.11,2.53-4.56,3.76-6.86,2.1-3.93,4.11-7.9,6.44-11.69.84-1.37,1.74-2.79,2.1-4.24.44-1.79,1.45-2.74,2.85-3.56,0,0,0,0,0,0h0c.42.11.71-.04.86-.45.19-.1.38-.12.58-.04.38.55.87.75,1.51.5.2,0,.4.06.58.15.3.6.81.72,1.41.63,1.17.72,2.21,1.53,3.12,2.64,1.42,1.75,3.1,3.28,4.74,4.84.57.54,1.26,1.06,1.99,1.32,1.36.49,2.72.46,3.77-.76.74-.86,1.47-1.7,2.07-2.71,1.26-2.11,2.4-4.37,4.25-6.07,1.14-1.04,1.26-.98,2.65-.15,1.48.88,2.71,1.98,3.91,3.26,2.65,2.83,4.92,6.09,8.43,8.06.99.56,1.01,1.72.97,2.79-.03.64.46.73.91.73,1.1,0,2.01-.46,2.6-1.41.33-.53.68-.91,1.36-.78.94,1.39,2.32.42,3.48.66l-.02.02c.15.37.34.57.56.68.08.04.17.07.27.09.41.07.88-.09,1.33-.18.2.04.39.08.59.14,1.29.82,2.76.6,4.17.67.24.01.51-.36.76-.56,3.02-.17,5.76-1.1,8.21-2.9.82-.61,1.78-1.02,2.68-1.52.5-.28,1.16-.42,1.48-.83,1.71-2.22,4.41-3.1,6.46-4.83,2.45-2.06,5.36-3.3,8.15-4.69,3.41-1.7,6.27-4.04,9.13-6.44.43-.36.78-.81,1.13-1.25,2.04-2.59,5.15-3.67,7.75-5.46,2.27-1.56,4.75-2.68,7.44-3.32,1.2,0,2.45.27,3.48-.65.18-.08.36-.14.54-.2,1.55.09,3.11.2,4.66.26.65.03,1.36.07,1.76-.64.18-.15.37-.18.59-.1.84.98,1.92.53,2.93.46,3.23.09,5.49,1.9,7.51,4.19.75.85,1.33,1.84,2.27,2.56.82.63,1.16,1.59,1.3,2.7.31,2.45,1.82,4.4,3,6.48.29.51.85.76,1.43.89,1.43.33,2.81.81,4.29,1.03,1.46.22,2.95.97,4.43,1.46,2.26.75,4.52,1.51,6.78,2.27.03.18.03.35,0,.53.1,0,.19.02.29.04.12.02.24.06.36.11,0,0,0,0,.01,0,.03.14.04.29.05.43,0,.06.02.12.02.18.05,0,.11.01.16.02.15.02.3.03.45.05,0,0,0,0,0,0,.03.14.06.28.09.42,0,.02,0,.04.01.05,0,.04.02.07.02.11.08.02.15.04.23.05,0,0,.02,0,.03,0,.27.06.54.13.81.19.01,0,.02,0,.04,0,.04.25.08.51.12.76,0,0,0,.02,0,.03l.06.4s0,0,0,.01l.25.03h0s.05,0,.05,0l.32-.06.15.22.26-.05h0c.44.61.25,1.52.94,2.01,0,.61.23,1.14.64,1.59l-.07.27.21.19c.04.97-.2,1.99.57,2.8l.04,4.6c.02,2.14.04,4.27.05,6.41.22.24.44.48.66.71.05.6.28.73.66.21.11-.15.1-.4.14-.61h0c.39-.22.59-.56.59-1.01.77-.51.52-1.36.68-2.08h0c.31-.18.51-.44.64-.73.07-.17.13-.35.16-.54h0c.42-.29.38-.56.03-.82-.02-.02-.04-.03-.07-.05,0-.18,0-.35.02-.52.09-.09.16-.18.23-.27.42-.55.5-1.14.47-1.76-.03-.51-.12-1.04-.16-1.55,0-.44,0-.88-.01-1.32.12-.44.21-.88.23-1.31.02-.47-.03-.92-.2-1.36-.12-.31-.29-.61-.54-.9l-.12.08c-.13-.54-.27-1.07-.4-1.61-.03-.28-.08-.56-.2-.81l.02-.25-.23-.1c.01-.35-.06-.66-.43-.81-.01-.21-.05-.39-.12-.56-.14-.34-.37-.61-.64-.84-.23-.2-.48-.37-.73-.56-.04-.55-.18-1.05-.73-1.33v-.02c0-.47-.28-.62-.7-.63l-.06-.03c-.27-.46-.63-.8-1.19-.84-.13-.37-.42-.53-.79-.6-.05-.4-.24-.67-.66-.73-.07-.42-.33-.62-.75-.61.25.21.49.41.74.62h0s0,0,0,0c.22.24.43.47.65.71h0s0,0,0,0c-.23-.23-.48-.44-.66-.72-.27-.18-.48-.43-.74-.62h-.02c-.28-.58-.76-.75-1.36-.7h-.02c-.36-.41-.66-.89-1.27-.94-1.2-1.11-2.83-1.21-4.24-1.82-.92-1.14-2.2-.7-3.37-.78h-.03c-.59-.93-1.48-.38-2.24-.49-1.24-.55-2.63-.9-3.68-1.71-1.09-.84-.89-2.54-1.63-3.67-1.43-2.17-2.29-4.66-3.96-6.69-1.54-1.87-3.25-3.5-5.62-4.3-.43-.15-.87-.33-1.22-.61-1.75-1.39-3.75-1.48-5.83-1.2-1.41-.97-2.82-1-4.24-.02l.02.05c-2.03,0-4.07-.04-6.1.03-.76.03-1.61-.04-2.2.65h0c-.81-.13-1.58-.13-2.12.64-.19.04-.38.09-.56.17-.64-.19-1.13,0-1.43.61-.46.23-.92.47-1.37.7-.24-.06-.5-.08-.74-.14-.1-.03-.19-.06-.28-.1-.19-.1-.35-.25-.44-.53,1.51-2.55,1.63-5.62,3.07-8.2.05-.09.11-.23.08-.32-.58-1.74.02-3.53-.23-5.25-.21-1.41-.58-2.87-1.56-4.04.01-.12.03-.21.05-.32.02-.1.04-.18.06-.28.13-.51.39-.89,1.2-.83.18.01.36.01.53.02.15,0,.31,0,.46,0,.56,0,1.12-.04,1.67-.06.1,0,.2,0,.3-.01,1.18-.14,2.23.37,3.29.74,1.7.61,3.36,1.32,5.04,1.98.18.79.74.81,1.37.67h.02c.5.85,1.27.82,2.08.65,1.07.63,2.08,1.42,3.22,1.86,1.69.66,3.44.45,4.87-.68,1.61-1.26,3.11-2.64,3.66-4.8.27-1.09.92-2.08,1.39-3.12,1.01-.75.56-1.83.64-2.79.79-1.78.97-3.7,1.39-5.57.89-3.94.61-7.96,1.33-11.88.06-.34.14-.67.19-1.01.24-1.61-.86-3.1-.41-4.74.41-1.46.36-2.94.14-4.43.05-1.36.19-2.72.11-4.07-.06-.97.17-2.08-.74-2.86-.2-3.71-.67-7.39-1.41-11.04h0c.19-1.24.21-2.45-.59-3.53-1.07-4.76-2.76-9.3-5.01-13.62h0c.13-.44-.05-.73-.46-.89,0,0,0,0,0,0-.07-.41-.14-.82-.21-1.23.42-.88,1.04-.32,1.6-.22-.06.5.18.73.67.73,1.28.72,2.76,1.23,3.03,3.01.05.31.29.65.54.87,2.7,2.36,4.09,5.69,6.29,8.4,1.7,2.09,2.49,4.58,3.84,6.8.94,1.54,1.94,2.99,2.61,4.73.63,1.65,1.53,3.3,2.5,4.76,1.86,2.8,2.82,5.98,4.46,8.85.16.28.48.46.73.68-.03.79.08,1.54.72,2.11-.06.61.22,1.04.71,1.36.01.76.09,1.5.75,2.03.08,1.11.94,1.83,1.36,2.77-.03.58.13,1.09.57,1.49-.02.6.34.99.78,1.33.27.9-.12,1.97.7,2.73,0,.24,0,.49.06.71.04.18.11.34.25.47.09.09.21.16.37.22.03.38.25.63.58.78-.03.19-.04.37-.05.56-.02.54.08,1.05.37,1.5.13.21.3.41.52.59-.03.58.25,1.03.64,1.42-.04.25-.06.49-.05.72.01.35.1.67.33.94.12.14.27.26.47.36.01.4.2.67.56.81.01.21.04.42.09.61.05.16.13.3.24.42.11.11.25.2.45.26.04.38.24.64.59.78,0,.35.01.7.05,1.04.03.25.08.5.15.73.11.35.28.68.54.99,0,0,0-.01,0-.02.36.51.47,1.12.59,1.73.07.33.14.66.27.98.11.27.26.53.48.76.46,1.14.92,2.28,1.38,3.42,0,0,0,0,0,0h0c.07,1,.86,1.45,1.51,2.01,0,.5-.07,1.01-.04,1.5.02.28.07.56.19.82.09.2.21.4.4.59.11.25.19.52.27.79.17.6.33,1.21.78,1.67.09.09.2.18.32.26.06.26.07.54.11.81.04.31.1.61.29.86.1.13.23.25.41.35.06.55.17,1.07.67,1.4-.02.59.17,1.07.72,1.36.11.58.19,1.18.5,1.69.05.12.12.23.24.33h0c-.01.28.03.5.11.68.09.22.24.4.44.52.2.13.45.21.74.26.1.4.3.71.68.9l-.08.24.19.17c-.08.37-.12.72-.11,1.06.02.79.29,1.5.84,2.11.13.14.27.28.43.41.08.32.11.67.19.99.03.11.06.22.11.33.11.24.29.46.59.61h0c.07.54.05,1.12.58,1.47.02.62.31,1.12.71,1.57l-.06.27.23.15c-.05.44.2.63.59.7-.02.65.08,1.26.25,1.85.23.81.6,1.57,1.01,2.31.2.36.41.72.61,1.07.04.11.1.21.18.31,0,.59-.07,1.2-.02,1.79,0,.05.01.1.02.15.07.54.25,1.05.72,1.5-.02.78,0,1.54.64,2.11,0,.78-.04,1.57.62,2.16.41.97.92,1.87.82,3.03-.01.15-.02.32-.01.49.01.14.03.27.05.41.07.32.24.63.57.85.26.9-.19,2,.77,2.7-.03.77.06,1.5.71,2.04v.02c-.02.58.02,1.12.7,1.34l-.12.17c.06.21.08.43.09.65.03.93-.24,1.93.62,2.67.02.01.03.03.04.04.33.64.04,1.51.74,2.02v.03c.13.74-.13,1.57.58,2.15,0,.64.21,1.2.69,1.64-.23.37-.24.72.08,1.05-.25,1.05-.06,1.99.66,2.8-.1.38-.12.74-.08,1.09.02.18.06.35.12.53.13.41.34.79.61,1.16-.09.23-.06.44.1.63.03.16.04.32.05.48.06,1.03-.13,2.11.56,3.03.05.2.08.41.1.62-.13,1-.34,2.03.78,2.67.01.01.03.02.04.03.12.11.27.17.43.17,0,.83,0,1.67,0,2.5,0,.06,0,.12,0,.18,0,.46,0,.93.06,1.38.07.52.22,1.02.55,1.48-.05.21-.07.4-.05.6.02.3.11.59.21.88.05.14.1.28.15.41,0,.07-.02.14-.03.21-.14,1.1-.4,2.21.05,3.23.08.19.2.38.34.56.04.07.1.16.19.25.02,3.2.04,6.4.07,9.6,0,.57,0,1.14,0,1.71-.01,2.05-.02,4.11,0,6.16,0,.6-.02,1.25.42,1.73.05.06.1.11.17.16.12.21.12.43,0,.64-.06.04-.12.09-.17.14-.83.74-.24,1.77-.39,2.66.01.04.01.07.02.11.02.11.03.22,0,.34,0,.04,0,.08-.02.12,0,0,0,0,0,0,.13.05.26.07.39.1.06.01.12.04.18.05.41.88-.16,2,.66,2.79-.19,1.12.58,2.25-.04,3.36Zm-113.98,105.8h0s0,0,0,0c0,0,0,0,0,0Z"/><path class="cls-1" d="m334.91,537.61c-.16-.29-.33-.58-.49-.86-.03.4.15.68.49.86Z"/><path class="cls-1" d="m100.66,101.69c-.17-.31-.34-.62-.51-.93-.02.42.14.73.51.93Z"/><path class="cls-1" d="m173.43,260.26l-.13.09c.1-.62-.15-1.07-.7-1.36v-.02c-.32-1,.34-2.17-.59-3.05,0,0,0,0,0,0l.09-.24-.2-.17c.1-.64-.15-1.16-.59-1.61h0s.1-.26.1-.26l-.19-.2c.12-.61-.06-1.11-.54-1.5.01-.6-.21-1.06-.81-1.29-.03-.42-.27-.65-.68-.7-.08-.4-.33-.6-.73-.66-.2-.34-.41-.67-.61-1.01,0,0,0,0,0,0,0,0,0,0,0,0l.05-.24-.21-.13c.05-.4-.11-.68-.49-.81-.08-.54-.37-.93-.85-1.19l-.03-.04c-.1-.71-.64-.78-1.18-.87-.1-.53-.16-1.08-.81-1.26-.18-.62-.72-.73-1.24-.85-.23-.75-.62-1.32-1.56-1.2l-.18-.18-.23.11c-.51-.24-1.03-.47-1.54-.71-.1-.39-.31-.66-.76-.65-.79-.73-1.8-.61-2.76-.68-.54-.81-1.36-.62-2.13-.58l.08-.16c-1.33-.59-1.35-.59-4.29-.48h0c-.41,0-.82-.02-1.24-.02h0c-.94.06-2.04-.46-2.67.73-.16.12-.24.27-.25.46-1.24-.05-2.04.86-2.99,1.42,0,0,0,0,0,0-.39-.24-.75-.25-1.06.13-.25.19-.44.48-.78.52,0-.01,0-.02,0-.03.26-.16.52-.32.77-.49-.42-.06-.69.11-.83.5-.86.22-1.41.84-1.89,1.54l-.03.02c-.26.19-.46.45-.75.6-.17.29-.4.52-.69.68,0,0,0-.01.01-.02h0c.22-.22.45-.43.67-.65,0,0,0,0,.01,0,0,0,0,0,.01-.01.25-.2.49-.39.74-.59-.4.01-.67.19-.77.59-.42.04-.63.29-.7.68-.42.07-.72.3-.91.68h0c-.9-.38-1.75-.04-2.63.12-1.63.29-6.75-.13-8.87-.65-.07-.09-.12-.23-.21-.26-2.36-.87-4.74-.76-7.12-.08-.09.03-.15.16-.23.24-.22.1-.43.09-.64-.02-.48-.67-.96-.7-1.45-.01-1.15.48-2.3.95-3.44,1.43-1.19.04-2.43-.24-3.48.6-1.42.93-2.9,1.77-4.24,2.8-2.79,2.15-5.39,4.48-6.14,8.19-.04.2-.26.36-.4.54-1,1.27-1.4,2.79-1.72,4.33-.43,2.11-.88,4.21-1.32,6.32-.93,2.33-1.26,4.65.06,6.96h0s-.02.02-.02.02c.1,1.18-.39,2.47.71,3.44.37.68.98,1.14,1.35,1.89.72,1.46,1.61,2.85,3.24,3.7,2.02,1.07,3.73,2.67,4.23,5.02.95,4.45,4.36,6.14,8.1,7.35,2.09.68,4.62.04,4.37-.63-.51-1.38-1.88-1.81-3.09-2.44-1.95-1.01-3.72-2.34-4.9-4.23-.84-1.34-1.5-2.81-2.18-4.25-.2-.42-.3-.89-.78-1.05-1.4-.47-2.04-1.69-2.98-2.68-1.44-1.51-2.41-3.36-3.87-4.82-.06-2.77-.11-5.55-.17-8.32.48-3.41,2.36-6.42,2.9-9.82.06-.41.44-.79.71-1.15.8-1.11,1.59-2.24,2.44-3.31.78-.97,1.64-1.87,2.46-2.79,2.18-.33,3.78-2.08,5.95-2.44,3.03-.49,6.07-.66,9.13-.4,2.07.75,2.71.8,6.32.54,1.2.16,2.39.33,3.59.47.66.08,1.32.07,1.87-.41.91-.26,2.01.31,2.78-.61,1.11.14,1.47-.76,1.99-1.44l.04-.02c.63-.02,1.21-.19,1.72-.57,0,0,0,0,0,0l.26.05.12-.23c.44.05.62-.2.66-.59h.01c.7-.46,1.4-.9,2.11-1.34,0,0,0,0,0,0,.65-.2.74-.83,1-1.33h0l.25.02.12-.22.29.04.29-.05c.3,0,.6,0,.89.01l.25.04.25-.03c.97-.17,2.09.6,2.93-.44l-.09-.18c.47,0,.94-.01,1.41-.02l-.08.17c.61.71,1.4.59,2.19.51.9.44,1.81-.05,2.71.04h.01c.06.41.27.65.69.64l.06.04c.5.69,1.25.67,1.98.69l.12.19.22-.06c.18,0,.34.06.48.13-.14-.07-.3-.12-.48-.13.33.22.66.44.99.66.06.42.24.71.72.67.34.49.92.49,1.41.66.03.38.17.69.54.83.09.54.37.93.88,1.15l.04.05c.17.7.76.67,1.29.74.1.36.33.59.69.69.17.72-.2,1.6.6,2.13.04.6.28,1.11.73,1.51h0c-.13.23-.07.39.17.49.16.26.43.44.5.76,0,0-.02,0-.03-.01-.16-.25-.31-.5-.47-.75-.06.4.1.66.47.79.05.56.15,1.08.77,1.31.04.4.28.63.64.73.05.87.1,1.75.16,2.62-.02,1.83-.04,3.66-.06,5.49,0,.59.11,1.14.62,1.52-.04.4-.08.81-.12,1.21-.36.14-.44.48-.53.81-.86.71-.48,1.79-.79,2.67.11.09.22.18.33.27,0,0,0,0,0,.01-.11-.09-.21-.19-.32-.28-.4.68-.83,1.35-.55,2.19-.26.86-.36,1.82-.39,2.64-.08,2.49-2.11,4.43-1.77,6.97-.43.33-.71.75-.79,1.29-.36.13-.55.4-.59.78-.4.1-.59.36-.57.77.19-.25.38-.5.57-.74,0,0,0,0,.01,0-.14.29-.4.49-.58.75l-.02.04c-.66.5-1.45.89-1.6,1.83-.49.15-.94.36-1.09.92l-.06.07c-.63.55-.89,1.43-1.83,1.73-.57.18-.99.78-1.14,1.45-.38.13-.58.39-.57.81-.53.28-.64.8-.77,1.32-.38.09-.63.3-.67.71-.58.28-.72.78-.71,1.36-.34.15-.52.43-.56.8.19-.25.38-.51.56-.76,0,0,0,.01,0,.02,0,0,.01,0,.02,0-.11.31-.36.52-.58.75h0c-.87.39-.62,1.26-.85,1.92-.36.1-.61.31-.7.68-.39.1-.62.34-.63.77-.52.3-.72.76-.73,1.33-.35.16-.48.47-.53.83h-.01c-.4.07-.64.28-.62.71l-.04.06c-.46.27-.74.67-.85,1.19-.39.08-.59.34-.66.72-.4.09-.65.3-.63.75,0,0,0,0,0,0-.2.26-.44.48-.66.71h0c-.45,0-.77.2-.97.6h0c-.23-.09-.37-.02-.43.22-.72.11-1.52-.1-2.11.52,0,0,0,0,0,0h0s0,0,.01,0c-.9.56-.91.83-.06,1.51,0,0-.02,0-.02,0,.36.59.94.47,1.48.45.24.03.48.05.72.08.61.12,1.06-.1,1.38-.63.57-.01,1.23.21,1.49-.56.4-.11.52-.44.61-.79.54-.07,1.19.12,1.48-.58.43-.12.58-.42.55-.84h0c.41-.46.82-.92,1.23-1.38l.23-.07v-.24c.43-.59.87-1.18,1.3-1.78h0c.34-.13.55-.34.57-.72l.08-.1c.7-.48.66-1.23.72-1.95v-.02c1.25-.88,2.45-1.79,2.82-3.39.52-.26.76-.7.87-1.24.4-.14.61-.4.51-.87l.15-.13-.07-.18c.5-.26,1.04-.48,1.22-1.09l.03-.03c.65-.2.74-.72.76-1.29.52-.26.67-.76.8-1.26.53-.09,1.13-.06,1.31-.75.39-.09.59-.36.66-.74.39-.04.67-.23.77-.62.42-.09.61-.35.59-.79.49-.29.69-.76.81-1.28.38-.1.61-.32.65-.73.57-.27.71-.78.77-1.34.56-.33.63-.87.6-1.46.8-.77.88-1.72.72-2.74.5-.36.73-.83.59-1.46.31-.39.22-.79.05-1.2.43-.41.75-.86.73-1.48.65-.59.6-1.38.58-2.15h0c.07-.09.11-.16.16-.24.65-.95.4-2.12.67-3.16.44-.87.61-1.8.59-2.78,1.05-2.22.87-4.54.57-6.87-.04-.3-.31-.57-.48-.85Zm-12.6-14.4c-.24-.22-.47-.44-.71-.66,0,0,0,0,0-.01.3.16.52.4.72.67h0Zm4.16,3.45s0,0,0,0c.25.2.48.43.68.68,0,0,0,0,0,0-.23-.23-.45-.46-.68-.69Zm-16.59,56.63c.21-.24.42-.49.63-.73,0,0,.01,0,.02,0-.14.31-.39.52-.65.74Zm4.73-6.33s0,0,0,0c.37-.08.6-.3.69-.67,0,0,0,0,0,0-.09.37-.32.6-.69.67Zm6.5-3.88s0,0,0,0c0-.1.02-.19.05-.27-.03.08-.05.18-.05.27Zm9.42-38.8h0s0,0,0,0c-.21-.23-.42-.45-.62-.68,0,0,0,0,0,0,.27.18.5.4.64.7,0,0-.01-.01-.02-.02Zm.12-6.98c-.27-.18-.49-.42-.71-.65h0l.71.65s0,0,0,0c0,0,0,0,0,0,0,0,0,0,0,0,.23.23.46.47.69.7,0,0,0,0,0,0-.27-.2-.5-.43-.69-.7Z"/><path class="cls-1" d="m97.04,203.88c3.13,7.89,9.05,12.87,18.07,13.1.15.45.4.66.88.43l.3.05.28-.12c.87.08,1.74.19,2.61.25.66.04,1.33.05,1.71-.67,1.13-.11,2.26-.23,3.39-.34,1.43-.14,2.44-1.32,3.74-1.62,2.55-.58,4-2.3,5.45-4.27,2.72-3.68,2.82-7.81,2.46-12.07-.03-.33-.15-.68-.32-.97-.17-.3-.2-.8-.83-.75-.28,3.25-1.43,6.22-2.8,9.08-1.2,2.51-3.1,4.39-5.65,5.72-2.59,1.35-5.55.78-8.13,1.93-2.05-.69-4.32-.07-6.32-1.07-.34-.59-.85-.72-1.47-.54h0c-.29-.56-.72-.86-1.38-.69-.55-.14-1.21-.13-1.63-.44-1.81-1.34-3.54-2.83-4.81-4.69-1-1.47-1.98-3.11-2.38-4.81-.46-1.97-.63-4.04-1.14-6.02-.5-1.97-.07-4.06-.84-6.01-.16-.41.27-1.06.42-1.6.96-1.35,1.32-2.73.19-4.18-.05-1.6.8-3.01,1.02-4.56.25-1.69.61-3.36.93-5.04,1.07-1.01.65-2.29.64-3.5.59-.96,1.18-1.93,1.16-3.1,0-.59.2-1.07.46-1.58.59-1.19,1.18-2.37,1.69-3.59.49-1.16,1.88-1.6,2.23-2.86.86-.48,1.46-1.23,2.04-2l.04-.03.31.03h.32c.28-.19.56-.38.84-.57.95-.15,2,.14,2.8-.66,0,0,0,0,0,0,.5-.11,1-.22,1.27-.73l.23-.22.31.07c.31.01.62.02.93.04l.32-.09.3.13c.71.98,1.79.6,2.72.75h0c.57.73,1.36.66,2.15.58.54.92,1.41.7,2.23.65.38.04.75.09,1.13.13.15.33.4.53.78.54l.07.06c.24.56.69.75,1.26.76.28.55.78.69,1.33.74.1.35.28.63.65.74.08.44.35.62.8.57h0c.21.22.46.4.73.55l.07.09c.35.8,1.14.73,1.8.93.17.37.5.46.87.46l.03.02c.1.37.32.6.71.65l.07-.07s0,0,0,0c0,0,0,0,.02.01-.05.03-.09.06-.09.06.08.38.31.61.69.68l.08-.11h.05s-.08.08-.12.11c.39.81,1.26.73,1.92,1.04-.01.33.15.51.48.53.57.88,1.13,1.76,1.7,2.63h0c-.05.61.19,1.06.69,1.37h0c-.03.47.19.77.58.97h0s-.07.25-.07.25l.19.18c-.1.48.17.68.57.8.09.61.42,1.09,1.05.97.43-.08.6-.59.45-1.08,0-.23,0-.46,0-.69.11-.67-.26-1.14-.63-1.62h0c.18-.63.33-1.27-.18-1.83,0-.61-.12-1.19-.5-1.68,0,0,0,0,0,0l.04-.24-.2-.14c.05-.4-.08-.7-.47-.84-.15-.79-.69-1.17-1.42-1.35-.07-.38-.26-.65-.66-.73-.11-.41-.39-.57-.79-.58-.12-.37-.33-.62-.75-.61h-.02c-.22-.3-.44-.58-.66-.86-.18-.23-.36-.46-.55-.69h0c-.37-.41-.84-.62-1.39-.7,0,0,0,0,0,0-.23-.23-.46-.46-.69-.69,0,0,0,0,0,0-.23-.23-.46-.45-.68-.68-.43-.44-.95-.6-1.55-.54-.19-.06-.38-.1-.58-.13-.05-.43-.32-.62-.74-.63-.31-.58-.76-.86-1.44-.7l-.15-.13-.18.09c-.25-.5-.44-1.06-1.06-1.25h-.01c-.44-.93-1.36-.5-2.04-.73-.09-.38-.31-.61-.72-.64l-.03-.02c-.39-.92-1.25-.67-1.96-.79-1.09-.99-2.38-.49-3.6-.5-.89-.28-1.78-.27-2.68-.07l-.14-.21-.24.06c-.37-.43-.74-.51-1.09,0-.89,0-1.79,0-2.68.03-.57.02-1.11.14-1.42.7-.55.04-1.09.12-1.44.63-.61.04-1.1.33-1.55.72,0,0,0,0,0,0l-.29-.03-.15.25c-.42-.04-.59.19-.63.58l-.03.03c-.63.19-.77.68-.82,1.24-.35.12-.58.35-.7.7-1.13.28-1.87.92-2.02,2.15-1.07,2.09-2.88,3.8-3.2,6.28-1.15,1.23-1.27,2.89-1.85,4.36-.93,2.36-1.09,4.9-1.89,7.28-.96,1.55-.78,3.23-.58,4.92-.06.65-.12,1.31-.18,1.96-.97,1.21-1.16,2.42,0,3.64-.46,5.69-.09,11.48,1.98,16.67Zm22.43-47.94s0,0,0,0c0,0-.07.1-.1.13.03-.04.06-.09.1-.13Z"/><path class="cls-1" d="m288.65,202.28c-2.75-.24-4.22-2.92-6.75-3.58-1.32-1.44-2.91-2.73-4.76-3.04-1.98-.34-3.48-1.57-5.36-2.09-1.93-.53-3.9-1.06-5.8-1.78-1.59-.82-2.45-.82-3.67,0-.15.1-.31.1-.47.02-.16-.41-.45-.56-.87-.44,0,0,0,0,0,0h0c-.65-.3-1.3-.48-1.98-.08-1.16-.01-2.32-.03-3.47-.04-.69-.3-1.37-.18-2.05.07-1.7-.2-3.4-.41-4.98.51-.2.02-.38.07-.56.16-1.45-.08-2.93-.4-4.22.6h0c-.32.13-.63.31-.97.37-3.75.64-7.24,2.08-10.77,3.43-1.11.43-1.79,1.41-2.89,1.74-2.88.84-5.52,2.27-7.92,3.97-2.68,1.9-5.18,4.09-6.98,6.94-.84,1.34-1.72,2.6-2.27,4.17-.5,1.44-1.49,2.78-2,4.3-.94,2.79-1.75,5.54,1.28,7.68.35.25.57.72.76,1.13.2.43.39.86.85,1.03,1.71.64,3.4,1.55,5.17,1.77,1.38.17,2.54.95,3.97.93,1.35-.02,2.75.3,4.07.34,2.43.07,4.95,1.47,7.36-.16.18-.12.66.1.96.24.53.25,1.07.42,1.66.31,2.33-.46,4.69-.73,7.07-.72.22,0,.45-.1.67-.15,1.49,0,2.97,0,4.46,0,.47,0,.91-.07,1.21-.48.19-.06.38-.12.58-.17.63.2,1.17.15,1.5-.52,2.93-.54,5.68-1.69,8.34-2.91,2.13-.98,4.27-1.99,6.38-3.06.99-.51,1.87-1.29,3.05-1.39.63-1.25,1.78-1.61,3.04-1.77,1.28-2.02,4.16-1.84,5.39-3.93,2.35-.12,3.33-2.68,5.52-3.07,1.73-2.13,4.36-3.12,6.27-5.11,2.73-2.84,2.79-3.47-.81-5.18Zm-4.14,4.14c-.27.67-.69,1.17-1.45,1.32-1.4.28-2.53,1.01-3.45,2.1-.22.26-.47.58-.77.66-2.39.66-4.02,2.54-6,3.81-2.64,1.69-5.37,3.21-8.18,4.53-1.55.73-2.8,1.87-4.45,2.49-6.34,2.41-12.79,4.36-19.54,4.98-2.82.26-5.7.61-8.57.21-1.89-.26-3.81,0-5.74-.14-3.55-.27-6.89-1.32-10.31-2.11-.32-.08-.63-.25-.93-.42-2.9-1.65-2.7-1.58-1.51-4.69,1.02-2.68,2.83-4.94,3.7-7.66,1.66-1.58,2.2-4.14,4.91-4.89,1.43-.4,2.67-1.7,4-2.57,3-1.97,6.22-3.41,9.64-4.36.9-.25,1.28-1.07,2.32-1.25,3.71-.63,7.29-1.93,11.05-2.4,1.71,0,3.43,0,5.14.01.48,0,.89-.15,1.18-.56,2.81-.98,5.61.36,8.42.05,3.91,1.09,7.99,1.65,11.56,3.77,2.52,1.5,5.06,2.96,7.59,4.44.34.59.85.73,1.47.56h.02c-.04.71-.07,1.41-.11,2.11Z"/><path class="cls-1" d="m213.95,201.39c.25-.47.84-.76,1.3-1.11,1.12-.87,1.78-2,2.23-3.35.99-2.97,1.15-5.93.56-9.01-.78-4.03-2.79-7.13-6.22-9.34-.47-.31-.94-.63-1.36-1.01-1.29-1.17-2.77-1.11-4.11-.35-3.37,1.9-6.75,3.78-9.28,6.9-.88,1.09-1.5,2.21-2.17,3.39-.85,1.5.07,2.94-.3,4.37-.41.16-.58.44-.42.88h0,0c0,.39,0,.78,0,1.17-.04,1-.47,2.07.44,2.93.55,1.53,1.44,2.8,2.65,3.91,2.46,2.25,2.64,2.37,6.44,3.51,1.82.54,3.64.59,5.42.03,1.81-.58,3.79-.94,4.84-2.9Zm-13.42-2.81c-.29-.18-.58-.36-.87-.54.01-.57,0-1.12-.67-1.34l-.03-.04c-.08-.73,0-1.52-.8-1.95-.35-3.52.91-7.25,3.27-9.37,1.19-1.07,2.51-2,3.74-3.03.64-.53,1.38-.75,2.17-.94,1.11-.27,1.89-.03,2.76.8,1.87,1.79,2.88,4.06,3.98,6.31-.02,1.64-.25,3.28.12,4.91,0,1.68-1.38,2.82-1.74,4.37-.06.25-.5.42-.78.6-3.67,2.37-7.38,2.56-11.14.23Z"/><path class="cls-1" d="m355.07,205.72c-.72-.82-1.56-.75-2.5-.42-2.63.91-5.39.25-8.07.64-.65.09-1.36-.13-2.02-.3-1.31-.34-2.6-.8-3.92-1.13-1.18-.3-1.94-.82-2.45-2.07-.47-1.16-.72-2.39-1.22-3.53.31-1.05.26-2.03-.51-2.89-.03-.18-.01-.35.06-.52.75-.56.57-1.06-.1-1.53-.07-.87-.14-1.73-.21-2.6.18-.62.09-1.15-.47-1.54-.06-.19-.11-.38-.16-.57.17-.66.09-1.19-.68-1.39-3.39-3.95-7.86-5.96-12.81-7.09-3.91-.9-7.42-4.2-7.88-7.44.02-.47.04-.94.06-1.4,0,0,0,0,0,0,0,0,0,0,0,0h0c.86-1.06.67-2.3.63-3.51.05-1.27.3-2.4,1.12-3.5,1.4-1.9,2.54-4,3.79-6.01.78-.16,1.28-.6,1.46-1.38.37-.06.64-.26.75-.63.53-.11.94-.39,1.17-.89h.02c.24-.22.45-.46.72-.64,0,0,0,0,0,0,0,0,0,0,0,0-.24.21-.48.42-.72.62.43,0,.65-.24.74-.63.39-.03.68-.19.82-.58.99-.48,1.98-.96,2.96-1.44,0,0,0,0,0,0l.18.09.14-.14.3.13s.23-.02.28-.03c.13.36.39.53.79.45.21.04.41.09.62.13.2.22.41.46.56-.04l.28-.13.02-.31c.39-.19.57-.52.58-.94v-.02c.66-.44.84-.91.13-1.42-.04-.48-.35-.62-.77-.65-.47-.94-1.21-.93-2.05-.59-.86-.07-1.71-.14-2.57-.2-.68-.05-1.28.12-1.7.7l.09.14c-.6-.07-1.08.14-1.41.65-.42-.03-.71.14-.83.54-.42.1-.68.38-.85.77h0l-.24-.04-.13.21c-.43-.04-.67.15-.75.56-.39.06-.65.27-.7.68-.4.08-.59.35-.64.74-.4.07-.69.25-.66.72-.45.47-.9.93-1.35,1.4h-.02c-1.21.21-.73,1.28-1,1.97-.9-.06-1.51.31-1.9,1.15-.93,2.04-1.79,4.14-2.8,6.12-2.5,4.93-.84,9.27,1.32,13.64.15.3.39.61.68.76.91.48,1.7,1.06,2.36,1.89.31.4.96.64,1.49.73,1.13.19,2.13.5,3.17,1.09,1.02.58,2.29.68,3.43,1.29,1.07.57,2.15,1.4,3.36,1.59,3.06.47,4.06,2.88,4.76,5.25.66,2.23.7,4.65,1,6.99.28,2.19.97,4.43,2.39,5.91,1.77,1.84,3.96,3.46,6.59,4.14.74.69,1.68.71,2.58.71,1.26,0,2.52-.12,3.78-.18.64.29,1.28.61,1.99.18.78-.04,1.57-.11,2.35-.1.48,0,.89-.03,1.16-.48.18-.1.37-.16.57-.18.09-.09.19-.15.29-.2-.1.06-.2.12-.29.2.87.33,1.61.22,2.1-.65h0c.47.05.77-.1.74-.64h0c1-1.11,1-1.4,0-2.17Zm-35.16-48.86c-.13.02-.23.05-.33.1.09-.05.2-.09.33-.1,0,0,0,0,0,0Zm.43-5.11s0,0,0,0c-.11.45-.42.67-.88.72.45-.05.75-.29.88-.72Zm-3.36,2.88s0,0,0,0c-.19.26-.43.48-.66.7.22-.23.44-.47.66-.7Z"/><path class="cls-1" d="m224.96,175.97c-.12,2.55,2.35,2.8,3.53,4.17,2.27.21,4.55.72,6.63-.8,1.87-1.37,3.27-3.12,4.5-5.06,1.06-1.67.38-3.6.92-5.35.08-.27-.07-.73-.28-.97-1.35-1.52-2.49-3.35-4.77-3.67-.21-.52-.45-.62-.73-.04h-.01c-1.36.03-2.72.02-4.07.1-.27.02-.53.34-.79.52-2.35,1.23-3.84,3.19-4.84,5.59-.78,1.1-.84,2.31-.52,3.57-.31.76.46,1.32.43,1.93Zm4.53-6.59c-.02-.45.54-.69.99-.83.99-.32,2.02-.6,3.03-.28.89.28,2.24-.45,2.6,1.02.38,1.57.58,3.15-.88,4.37-.96.8-1.93,1.59-2.87,2.42-.56.5-1.21.58-1.91.58-.94,0-1.56-.44-1.73-1.3-.11-.56-.13-1.14-.25-2.22-.04-1,1.09-2.22,1.03-3.75Z"/><path class="cls-1" d="m254.03,208.6c.17-.45,0-.73-.44-.87-.17-1.81-.24-3.63-.89-5.36-.43-1.14-2.62-2.68-3.48-2.23-1.46.76-3,1.3-3.52,3.38-.84,3.39-.71,6.73-.42,10.12.1,1.21,2.57,5.1,3.54,5.79.59.42,1.29.66,1.91.15,1.33-1.08,2.8-2.09,2.77-4.09.06-.11.09-.22.14-.34.72-1.71.46-3.52.38-5.31,0-.41,0-.83,0-1.24Z"/></svg>