<?xml version="1.0" encoding="UTF-8"?><svg id="Daggers" xmlns="http://www.w3.org/2000/svg" viewBox="0 0 480 640"><defs><style>.cls-1{fill:#ee3025;}</style></defs><path class="cls-1" d="m167.01,361.97c-.15-.15-.31-.31-.46-.46.14.17.31.31.46.46Z"/><path class="cls-1" d="m252.27,186.39c-.15.15-.3.3-.45.45.14-.16.31-.29.45-.45Z"/><path class="cls-1" d="m208.96,270.72c.15.15.31.31.46.46-.17-.14-.29-.33-.46-.46Z"/><path class="cls-1" d="m208.03,267.96c.15.15.31.31.46.46-.17-.14-.29-.33-.46-.46Z"/><path class="cls-1" d="m208.5,269.8c.15.15.31.31.46.46-.17-.14-.29-.33-.46-.46Z"/><path class="cls-1" d="m251.36,186.85c-.15.15-.31.31-.46.46.15-.15.32-.29.46-.46Z"/><path class="cls-1" d="m213.57,281.78c.15.15.31.31.46.46-.15-.15-.29-.32-.46-.46Z"/><path class="cls-1" d="m214.03,282.24c.15.15.31.31.46.46-.16-.15-.3-.32-.46-.46Z"/><path class="cls-1" d="m213.1,280.86c.15.15.31.31.46.46-.17-.14-.29-.33-.46-.46Z"/><path class="cls-1" d="m215.41,284.55c.15.15.31.31.46.46-.17-.14-.29-.33-.46-.46Z"/><path class="cls-1" d="m214.95,283.63c.15.15.31.31.46.46-.17-.14-.29-.33-.46-.46Z"/><path class="cls-1" d="m212.18,279.02c.15.15.31.31.46.46-.17-.14-.29-.33-.46-.46Z"/><path class="cls-1" d="m210.8,275.79c.15.15.31.31.46.46-.15-.15-.29-.32-.46-.46Z"/><path class="cls-1" d="m209.88,273.49c.15.15.31.31.46.46-.17-.14-.29-.33-.46-.46Z"/><path class="cls-1" d="m212.65,279.94c.15.15.31.31.46.46-.17-.14-.29-.33-.46-.46Z"/><path class="cls-1" d="m211.26,276.25c.15.15.31.31.46.46-.16-.15-.3-.32-.46-.46Z"/><path class="cls-1" d="m209.42,271.64c.15.15.31.31.46.46-.17-.14-.29-.33-.46-.46Z"/><path class="cls-1" d="m334.32,173.94c-.15-.15-.31-.31-.46-.46.14.17.31.31.46.46Z"/><path class="cls-1" d="m333.4,173.48c-.15-.15-.31-.31-.46-.46.14.16.31.3.46.46Z"/><path class="cls-1" d="m215.87,285.47c.15.15.31.31.46.46-.17-.14-.29-.33-.46-.46Z"/><path class="cls-1" d="m216.33,286.39c.15.15.31.31.46.46-.17-.14-.29-.33-.46-.46Z"/><path class="cls-1" d="m149.5,344c-.15-.15-.31-.31-.46-.46.15.15.29.32.46.46Z"/><path class="cls-1" d="m149.96,344.92c-.15-.15-.31-.31-.46-.46.16.15.3.32.46.46Z"/><path class="cls-1" d="m149.04,343.54c-.15-.15-.31-.31-.46-.46.16.15.3.32.46.46Z"/><path class="cls-1" d="m150.42,345.38c-.15-.15-.31-.31-.46-.46.15.15.29.32.46.46Z"/><path class="cls-1" d="m148.58,342.62c-.15-.15-.31-.31-.46-.46.17.14.29.33.46.46Z"/><path class="cls-1" d="m154.11,350.45c-.15-.15-.31-.31-.46-.46.15.15.29.32.46.46Z"/><path class="cls-1" d="m150.88,346.3c-.15-.15-.31-.31-.46-.46.16.15.3.32.46.46Z"/><path class="cls-1" d="m153.65,349.99c-.15-.15-.31-.31-.46-.46.16.15.3.32.46.46Z"/><path class="cls-1" d="m153.19,349.07c-.15-.15-.31-.31-.46-.46.15.15.29.32.46.46Z"/><path class="cls-1" d="m148.12,341.69c-.15-.15-.31-.31-.46-.46.17.14.29.33.46.46Z"/><path class="cls-1" d="m152.73,348.61c-.15-.15-.31-.31-.46-.46.16.15.3.32.46.46Z"/><path class="cls-1" d="m151.81,347.22c-.15-.15-.31-.31-.46-.46.15.15.29.32.46.46Z"/><path class="cls-1" d="m147.66,340.77c-.15-.15-.31-.31-.46-.46.17.14.29.33.46.46Z"/><path class="cls-1" d="m251.82,427.87c.15-.15.31-.31.46-.46-.15.15-.32.29-.46.46Z"/><path class="cls-1" d="m193.29,349.99c-.15.15-.31.31-.46.46.15-.15.32-.29.46-.46Z"/><path class="cls-1" d="m254.59,426.49c.15-.15.31-.31.46-.46-.14.17-.33.29-.46.46Z"/><path class="cls-1" d="m255.51,426.03c.15-.15.31-.31.46-.46-.14.17-.33.29-.46.46Z"/><path class="cls-1" d="m252.28,427.41c.15-.15.31-.31.46-.46-.15.16-.32.3-.46.46Z"/><path class="cls-1" d="m145.81,337.08c-.15-.15-.31-.31-.46-.46.17.14.29.33.46.46Z"/><path class="cls-1" d="m147.2,339.85c-.15-.15-.31-.31-.46-.46.17.14.29.33.46.46Z"/><path class="cls-1" d="m237.53,433.86c.15-.15.31-.31.46-.46-.14.17-.33.29-.46.46Z"/><path class="cls-1" d="m241.22,432.48c.15-.15.31-.31.46-.46-.14.17-.33.29-.46.46Z"/><path class="cls-1" d="m145.35,336.16c-.15-.15-.31-.31-.46-.46.17.14.29.33.46.46Z"/><path class="cls-1" d="m158.26,355.06c-.15-.15-.31-.31-.46-.46.15.16.31.3.46.46Z"/><path class="cls-1" d="m188.22,359.67c-.15.15-.31.31-.46.46.16-.14.3-.31.46-.46Z"/><path class="cls-1" d="m185.45,361.05c-.15.15-.31.31-.46.46.15-.15.32-.29.46-.46Z"/><path class="cls-1" d="m168.4,362.89c-.15-.15-.31-.31-.46-.46.13.17.32.3.46.46Z"/><path class="cls-1" d="m154.57,351.37c-.15-.15-.31-.31-.46-.46.16.15.3.32.46.46Z"/><path class="cls-1" d="m170.24,363.81c-.15-.15-.31-.31-.46-.46.13.17.32.3.46.46Z"/><path class="cls-1" d="m186.37,360.59c-.15.15-.31.31-.46.46.14-.17.33-.29.46-.46Z"/><path class="cls-1" d="m192.36,351.37c-.15.15-.31.31-.46.46.16-.14.3-.31.46-.46Z"/><path class="cls-1" d="m192.83,350.45c-.15.15-.31.31-.46.46.17-.14.31-.31.46-.46Z"/><path class="cls-1" d="m190.52,354.14c-.15.15-.31.31-.46.46.17-.13.3-.32.46-.46Z"/><path class="cls-1" d="m190.98,353.21c-.15.15-.31.31-.46.46.17-.14.31-.31.46-.46Z"/><path class="cls-1" d="m190.06,355.06c-.15.15-.31.31-.46.46.16-.14.3-.31.46-.46Z"/><path class="cls-1" d="m169.32,363.35c-.15-.15-.31-.31-.46-.46.13.17.32.29.46.46Z"/><path class="cls-1" d="m161.94,358.28c-.15-.15-.31-.31-.46-.46.14.16.31.3.46.46Z"/><path class="cls-1" d="m275.33,435.71c.15.15.31.31.46.46-.16-.15-.3-.32-.46-.46Z"/><path class="cls-1" d="m161.48,357.82c-.15-.15-.31-.31-.46-.46.14.17.31.31.46.46Z"/><path class="cls-1" d="m157.34,354.14c-.15-.15-.31-.31-.46-.46.16.15.3.32.46.46Z"/><path class="cls-1" d="m156.41,353.21c-.15-.15-.31-.31-.46-.46.15.16.31.3.46.46Z"/><path class="cls-1" d="m166.09,361.51c-.15-.15-.31-.31-.46-.46.15.16.31.3.46.46Z"/><path class="cls-1" d="m163.33,359.21c-.15-.15-.31-.31-.46-.46.14.17.31.31.46.46Z"/><path class="cls-1" d="m167.48,362.43c-.15-.15-.31-.31-.46-.46.14.16.31.3.46.46Z"/><path class="cls-1" d="m165.63,361.05c-.15-.15-.31-.31-.46-.46.14.17.31.31.46.46Z"/><path class="cls-1" d="m164.71,360.59c-.15-.15-.31-.31-.46-.46.14.16.31.3.46.46Z"/><path class="cls-1" d="m250.9,428.33c.15-.15.31-.31.46-.46-.15.16-.32.3-.46.46Z"/><path class="cls-1" d="m275.79,436.63c.15.15.31.31.46.46-.15-.15-.29-.32-.46-.46Z"/><path class="cls-1" d="m291,425.57c-.15-.15-.31-.31-.46-.46.16.15.3.32.46.46Z"/><path class="cls-1" d="m283.62,414.51c-.15-.15-.31-.31-.46-.46.15.15.29.32.46.46Z"/><path class="cls-1" d="m284.08,415.43c-.15-.15-.31-.31-.46-.46.16.15.3.32.46.46Z"/><path class="cls-1" d="m283.16,445.85c.15.15.31.31.46.46-.16-.15-.3-.32-.46-.46Z"/><path class="cls-1" d="m283.62,446.77c.15.15.31.31.46.46-.15-.15-.29-.32-.46-.46Z"/><path class="cls-1" d="m279.01,313.12c.15-.15.31-.31.46-.46-.16.15-.31.3-.46.46h0Z"/><path class="cls-1" d="m304.36,463.82c.15-.15.31-.31.46-.46-.17.14-.31.31-.46.46Z"/><path class="cls-1" d="m283.16,267.5c-.15-.15-.31-.31-.46-.46.16.15.3.32.46.46Z"/><polygon class="cls-1" points="285.47 209.89 285.47 209.89 285.47 209.89 285.47 209.89"/><path class="cls-1" d="m217.25,288.23c.15.15.31.31.46.46-.17-.14-.29-.33-.46-.46Z"/><path class="cls-1" d="m190.52,314.5c-.15.15-.31.31-.46.46.17-.13.29-.32.46-.46Z"/><path class="cls-1" d="m191.44,309.43c-.15.15-.31.31-.46.46.17-.13.3-.32.46-.46Z"/><path class="cls-1" d="m191.9,334.78c.15.15.31.31.46.46-.17-.14-.29-.33-.46-.46Z"/><path class="cls-1" d="m191.9,308.51c-.15.15-.31.31-.46.46.17-.13.3-.32.46-.46Z"/><path class="cls-1" d="m190.98,330.63c.15.15.31.31.46.46-.17-.14-.29-.33-.46-.46Z"/><path class="cls-1" d="m200.2,300.22c-.15.15-.31.31-.46.46.14-.17.33-.29.46-.46Z"/><path class="cls-1" d="m193.29,305.75l-.46.46c.17-.14.31-.31.46-.46Z"/><path class="cls-1" d="m197.9,301.14c-.15.15-.3.3-.45.45.14-.16.31-.29.45-.45Z"/><path class="cls-1" d="m192.83,337.08c.15.15.31.31.46.46-.17-.14-.29-.33-.46-.46Z"/><path class="cls-1" d="m196.97,301.6c-.15.15-.31.31-.46.46.15-.15.32-.29.46-.46Z"/><path class="cls-1" d="m196.05,302.52c-.15.15-.31.31-.46.46.15-.16.32-.3.46-.46Z"/><path class="cls-1" d="m194.67,340.31c.15.15.31.31.46.46-.17-.14-.29-.33-.46-.46Z"/><path class="cls-1" d="m196.05,344c.15.15.31.31.46.46-.17-.14-.29-.33-.46-.46Z"/><path class="cls-1" d="m196.51,344.92c.15.15.31.31.46.46-.15-.15-.29-.32-.46-.46Z"/><path class="cls-1" d="m193.29,338.01c.15.15.31.31.46.46-.15-.15-.29-.32-.46-.46Z"/><path class="cls-1" d="m196.97,345.38c.15.15.31.31.46.46-.16-.15-.3-.32-.46-.46Z"/><path class="cls-1" d="m197.43,347.22c-.15.15-.31.31-.46.46.15-.16.32-.3.46-.46Z"/><path class="cls-1" d="m195.59,342.62c.15.15.31.31.46.46-.17-.14-.29-.33-.46-.46Z"/><path class="cls-1" d="m194.21,339.39c.15.15.31.31.46.46-.16-.15-.3-.32-.46-.46Z"/><path class="cls-1" d="m216.79,287.31c.15.15.31.31.46.46-.17-.14-.29-.33-.46-.46Z"/><path class="cls-1" d="m219.1,303.44c-.15-.15-.31-.31-.46-.46.17.14.29.33.46.46Z"/><path class="cls-1" d="m195.58,348.15c-.15.15-.3.3-.45.45.14-.16.31-.29.45-.45Z"/><path class="cls-1" d="m216.33,301.14c-.15-.15-.31-.31-.46-.46.14.16.31.3.46.46Z"/><path class="cls-1" d="m201.12,299.76c-.15.15-.31.31-.46.46.14-.17.33-.29.46-.46Z"/><path class="cls-1" d="m214.49,300.22c-.15-.15-.31-.31-.46-.46.13.17.32.29.46.46Z"/><path class="cls-1" d="m217.25,301.6c-.15-.15-.31-.31-.46-.46.13.17.32.29.46.46Z"/><path class="cls-1" d="m215.87,300.68c-.15-.15-.31-.31-.46-.46.14.17.31.31.46.46Z"/><path class="cls-1" d="m218.17,290.08c.15.15.31.31.46.46-.17-.14-.29-.33-.46-.46Z"/><path class="cls-1" d="m217.71,289.16c.15.15.31.31.46.46-.17-.14-.29-.33-.46-.46Z"/><path class="cls-1" d="m219.56,294.69c.15.15.31.31.46.46-.17-.14-.29-.33-.46-.46Z"/><path class="cls-1" d="m218.64,291.46c.15.15.31.31.46.46-.17-.14-.29-.33-.46-.46Z"/><path class="cls-1" d="m320.09,192.43s0,0-.01,0c0,0,0,0,.01,0,0,0,0,0,0-.01Z"/><path class="cls-1" d="m299.78,438.9s0,0,0,0c.13.17.26.33.39.5.02-.29-.11-.45-.39-.51-.04-.28-.2-.44-.49-.46.16.15.32.31.48.46,0,0,0,0,0,0Z"/><path class="cls-1" d="m299.58,198.77c.08-.02.14-.05.17-.09-.06.03-.12.06-.17.09Z"/><path class="cls-1" d="m347.24,204.35c-.13-.7-.25-1.4-.13-2.12.05-.28.02-.53-.21-.72-.16-.67.06-1.44-.52-2,0,0,0,0,0,0l.05-.13-.1-.09c.08-.41-.12-.71-.4-.98.01-.04.04-.09.03-.13-.02-.09-.07-.18-.11-.27.15-.69.14-1.34-.44-1.85-.1-.48.09-1.06-.47-1.38-.22-.59.14-1.33-.48-1.81v-.02c-.01-.38,0-.77-.44-.94-.06-.36-.06-.74-.4-.98,0-.32-.23-.4-.49-.45-.16-.3-.32-.6-.48-.89l-.1.09s0,0,0,0c.03-.03.07-.06.1-.09.08-.54.17-1.08-.4-1.42-.11-.46.06-1.05-.56-1.28l-.02-.02c-.28-.33-.56-.65-.84-.98.02-.4-.19-.67-.51-.87h0c0-.39-.08-.73-.4-.97.07-.7-.52-.98-.9-1.4.03-.41-.2-.67-.55-.84-.02.02-.04.04-.06.06,0,0,0,0,0,0l.06-.06c0-.29-.15-.45-.43-.49-.03.03-.05.05-.08.08,0,0,0,0,0,0l.08-.08c-.03-.26-.16-.44-.41-.52-.26-.77-.76-1.34-1.44-1.78h0c-.64-.59-1.06-1.4-1.88-1.81-.01.02-.03.04-.04.05,0,0,0,0,0-.01l.04-.04c-.22-.39-.51-.7-.91-.91l-.02-.03c-.01-.27-.15-.42-.43-.42l-.05-.03c-.32-.48-.87-.35-1.32-.49-.04-.26-.16-.44-.41-.52-.24-.69-.51-1.34-1.41-1.34-.27-.24-.54-.47-.94-.45-.35-.42-.89-.36-1.34-.52-.36-.57-.94-.31-1.43-.38h-.01c-.19-.36-.46-.56-.87-.51-.55-.53-1.24-.34-1.89-.37l.06-.13c-.64-.7-1.28-.51-1.92,0-.3.03-.59.07-.89.1l.06-.13c-.54-.72-1.26-.35-1.92-.33-.28-.03-.55-.06-.83-.1-.38-.29-.83-.33-1.28-.38-1.73-.18-3.46-.05-5.2.03-.98-.12-1.95-.24-2.82.4-.33.11-.74.05-.95.43-.78.04-1.63-.17-2.27.5-.3,0-.6,0-.9,0-.16-.27-.34-.33-.53-.03-.14.01-.28.03-.42.04-.5.02-1.05-.1-1.41.4-.12.05-.24.1-.36.14-.55-.13-1.06-.08-1.46.37-.12.02-.24.06-.36.11-.29-.07-.48.04-.58.31-.12.05-.25.09-.38.12-.55-.09-1.06-.11-1.36.48-.11.07-.15.17-.15.3-.62,0-1.2.11-1.76.34-.16.03-.32.09-.45.22h0c-.42.08-.84.18-1.26.24-.7.11-1.44.07-2.03.57-.55-.08-.97.16-1.32.56-.97-.12-1.91-.04-2.79.4-.43-.06-.72.12-.94.47-.76.16-1.6-.06-2.28.48-.42-.02-.79.1-1.06.45h0s-.18-.04-.18-.04l-.12.14c-.8.23-1.71.13-2.35.83-.6.22-1.36-.22-1.84.46-.57.28-1.31-.04-1.8.51h0c-.68-.1-1.33-.07-1.89.4-.41-.05-.75.03-.95.43l-1.32.09c-.16-.13-.31-.13-.46,0-.42-.07-.68.18-.93.44-.63.08-1.35-.17-1.84.46-.5.01-1.02.01-1.36.48h0c-.38,0-.76,0-.99.37-.39,0-.65.24-.87.53-.51,0-1.05-.08-1.44.37-.54-.07-1.07-.09-1.36.5-.26.04-.43.18-.51.42-.37.03-.69.15-.85.52-.65-.01-1.35-.18-1.81.51h0c-.39-.03-.73.08-.96.42-.39,0-.74.07-.88.51h0c-.16.15-.3.31-.49.42,0,0,0,0,0,0,.16-.14.33-.28.49-.42-.27.02-.41.19-.5.42-1.25.04-2.07,1.08-3.21,1.38,0,0,0,0,0,0-.25.03-.51.07-.76.1-.06.09-.13.18-.19.27-.14.19-.27.39-.41.58-.35.07-.78-.04-.98.4-.56.15-1.02.46-1.34.96-.26,0-.45.11-.55.36-.37.04-.7.13-.89.49-.39.02-.62.27-.84.56h0c-.56,0-.91.26-1.06.79-.23.16-.46.32-.69.49-.04.02-.09.05-.12.09-.85.14-1.42.66-1.83,1.38-.36.04-.69.13-.87.5l-.03.02c-.36.03-.72.04-.9.44h-.02c-.6.3-1.02.79-1.46,1.27-.54.07-.83.41-.98.9-.36.06-.68.18-.82.57-.27.02-.46.13-.52.41-.28.06-.4.26-.46.51-1.49.37-2.44,1.49-3.35,2.57-.4.47-.74,1.01-1.27,1.28-1.83.92-3.06,2.51-4.36,3.96-4,4.43-4.47,4.78-8.45,10.91-.86,1.32-1.67,2.7-2.25,4.19-.79,2.03-2.33,3.75-2.56,6.03-.03.27-.35.49-.48.76-.64,1.38-1.33,2.74-1.86,4.17-.69,1.85-1.17,3.78-1.87,5.62-1.31,3.41-2.16,6.95-3.01,10.49-.05.22-.1.46-.05.67.14.61.16,1.15-.15,1.76-.32.6.23,1.36-.2,2-.13.18-.36.35-.37.54-.1,1.06-.25,2.12-.05,3.18.02.53-.15,1.19.1,1.57.44.67.07,1.34.26,1.93.24.77.25,1.46.11,2.23-.06.35.04.76.15,1.11.28.87.41,1.75.52,2.65.1.82.24,1.72.66,2.42.98,1.66,1.18,3.56,1.93,5.29,1.18,2.73,2.3,5.46,3.86,8,1.9,3.09,3.63,6.28,4.66,9.79.36,1.24.68,2.5,1.02,3.75.03.82.06,1.63.08,2.45,0,.31.11.57.39.75,0,.29.02.59.02.88-.47.46-.5.94-.06,1.44.03.12.03.24-.01.36-.56.57-.55,1.24-.31,1.94-.54,1.55-1.14,3.09-1.58,4.67-.14.52-.24.72-.79.81-1.32.21-1.97.88-2.21,2.13-.07.36.12.75-.13,1.09-.32.04-.47.2-.37.54,0,0,0,0,0,0h0c0,.14-.03.26-.11.38-.05,0-.08.02-.11.06-.23.13-.45.25-.68.38-.02-.29-.03-.57-.05-.86.74-1.2.48-2.49.36-3.77.7-1.17.74-2.4.57-3.74-.11-.88-.48-1.44-1.16-1.84-1.77-1.04-3.57-1.99-5.73-1.82-.09-.3-.25-.45-.57-.3h0c-.12-.02-.24-.02-.36,0-.31-.07-.61-.15-.92-.23-.02,0-.03,0-.05-.01-.49.04-.98.08-1.47.1-.37.02-.7.08-.9.42-.28.02-.56.05-.84.07-.63-.61-1.25-.43-1.88,0-.13.03-.26.06-.4.09-.55-.13-1.11-.3-1.45.37-.38.43-.84.61-1.41.61-.37,0-.9-.04-1.09.18-.8.92-2.04,1.24-2.8,2.21-1.5,1.92-2.2,4.28-3.43,6.35-.07.12-.03.3-.05.45-.16,1.19-.32,2.38-.48,3.57-.47.31-.58.64-.04.99.01.29.03.57.04.86-.36.23-.41.57-.36.96-.02,1.28-.04,2.56-.05,3.83,0,.46.09.9.44,1.25.01.13.05.26.1.39,0,.64-.02,1.28-.02,1.92-.03.13-.02.26.03.38-.07.53-.16,1.07.32,1.49.03.13.07.25.12.37-.02.46-.04.92-.06,1.37-.01.4.06.76.42,1l.1-.05c-.08,1.32.23,2.56.82,3.73-.06.43.12.72.51.89.09.49,0,1.03.45,1.39-.04.41.22.65.49.89h0c-.04.4,0,.77.38.99,0,.39-.01.78.46.92.05.26.24.39.47.46.08.48-.16,1.06.41,1.4.07.36.19.69.53.89.02.42.19.78.44,1.1,0,0,0,0,0,0l-.07.14.12.11c-.07.41.11.72.42.97-.03.29.12.45.37.54.06.41.17.79.54,1.04h0s-.03.15-.03.15l.13.08c-.02.38-.1.77.33.99.02.14.04.28.06.42-.11.42.14.7.38.98,0,0-.05.22-.05.22-.45.11-.98.07-1.24.6h0c-.3.15-.71.11-.9.48h-.01c-.38,0-.73.06-.98.39-.4-.03-.71.11-.94.45-.59.05-.94.32-.9.96-.27.34-.6.56-1.02.71-.48.17-.84.51-.92,1.05-.25.11-.35.31-.32.58h0c-.32.2-.51.48-.54.86-.54.31-.41.88-.49,1.36-.25.07-.39.23-.41.49-.39.19-.5.53-.46.93-.49.54-.32,1.23-.42,1.86-.23.08-.41.21-.46.47-.63.27-.55.81-.51,1.34-.28.25-.34.61-.41.95-.28.05-.52.17-.66.43,0,0,0,0,0,0,0,0,0,0,0,0l-.14-.06-.1.11c-.41-.07-.8-.08-.99.38-.45.16-.98.12-1.33.53-.29-.03-.47.1-.56.36-.35.06-.62.27-.85.54-.81-.06-1.65-.26-2.31.43-.48.08-1.03-.03-1.3.55l-.02.02c-.26.03-.4.19-.49.41-.5.04-1.09-.27-1.46.34-1.25.19-2.5.39-3.64.99,0,0,0,0,0-.01-.32.02-.53.2-.66.48.3-.03.53-.17.65-.45-.13.28-.33.44-.65.45l-.14-.03-.08.13c-.31-.16-.62-.31-.93-.47h-.02c-.13-.43-.28-.29-.42-.02h0c-.61-.01-1.21-.03-1.82-.04-.06-.25-.16-.45-.45-.49-.47-.6-1.17-.41-1.78-.5-.09-.23-.24-.39-.49-.42-.06-.28-.24-.38-.52-.35.17.12.33.24.5.36,0,0,0,0,0,.01-.21-.07-.34-.24-.5-.37l-.08-.14-.16.03c-.41-.48-1.01-.38-1.53-.5-.06-.25-.19-.42-.46-.46-.2-.41-.59-.39-.96-.41-.07-.24-.22-.4-.49-.43-.03-.28-.21-.42-.48-.44l-.04.04h0s0,0,0,0l.05-.04c-.77-.79-1.65-1.44-2.64-1.95-.09-.26-.28-.38-.54-.41-.05-.27-.21-.41-.49-.43l-.08.08s0,0,0,0c.03-.03.05-.05.08-.08-.05-.27-.2-.42-.47-.45l-.07.07s0,0,0,0c.03-.02.05-.05.08-.07-.11-.42-.45-.52-.81-.58-.08-.25-.25-.39-.51-.4-.06-.24-.22-.4-.46-.46-.02-.27-.16-.44-.43-.5-.07-.27-.24-.39-.52-.39-.32-.48-.66-.92-1.27-1.03-.1-.33-.27-.61-.62-.75v-.02c-.14-.17-.31-.31-.41-.5,0,0,0,0,0,0,.13.17.26.33.39.5-.01-.27-.11-.46-.4-.52-.12-.45-.51-.45-.86-.51-.06-.35-.06-.73-.45-.92-.23-.68-.74-1.1-1.35-1.42-.02-.39-.12-.72-.56-.83-.03-.27-.16-.45-.46-.46-.05-.28-.26-.37-.5-.42l-.07.07s0,0-.01,0c.03-.02.05-.04.08-.06-.07-.35.02-.77-.42-.96-.02-.3-.23-.4-.48-.44-.04-.24-.12-.45-.38-.54-.04-.37-.25-.63-.53-.86.04-.29-.09-.47-.36-.55-.07-.36-.21-.67-.61-.77l-.02-.02c-.12-.17-.29-.3-.37-.5,0,0,0,0,0,0,0,0,0,0,0-.01.12.17.24.34.37.51-.04-.24-.13-.44-.37-.54,0-.39-.25-.63-.52-.85h0c.03-.4,0-.78-.41-.99-.46-.91-.93-1.82-1.39-2.72.03-.3-.1-.48-.37-.56-.17-.43-.05-1.01-.6-1.25h0c-.03-.29-.15-.52-.39-.67,0,0,0,0,0,0l.06-.15-.13-.1c.06-.28-.04-.47-.29-.58-.1-.48.1-1.07-.49-1.36-.07-.28-.26-.46-.52-.58h0s.07-.14.07-.14l-.12-.1c.05-.53,0-1.03-.38-1.44.12-1.06-.5-1.87-.93-2.75-.03-.51-.04-1.03-.46-1.41,0-.4-.14-.71-.54-.86l-.07.07s0,0-.01,0c.03-.02.05-.04.08-.07-.03-.79.23-1.64-.46-2.3h0c.01-.52-.06-1.02-.43-1.41-.03-.28-.05-.57-.08-.85.11-.68.12-1.33-.45-1.84-.06-.12-.15-.17-.28-.17.02-.14-.02-.25-.13-.34-.03-.94.23-1.94-.45-2.78-.1-.63.13-1.34-.4-1.88-.02-.65.14-1.36-.26-1.9-.51-.68-.26-1.41-.34-2.12.2-1.3.07-2.6,0-3.9-.02-.45.09-.93-.33-1.27-.18-.46-.3-.99-.97-.94-.81-.58-.97-.58-1.43,0h0c-.1.1-.29.2-.3.32-.24,2.2-.28,4.4-.2,6.6h0c-.61,1.35-.33,2.78-.4,4.18l-.1.1.06.13c-.6,1.57-.37,3.22-.41,4.84-.38.26-.66.54-.1.91.16.29.15.6.05.91-.61.55-.55,1.23-.35,1.93,0,.11,0,.22.02.33-.1.81-.32,1.61-.03,2.43.02.89.03,1.78.08,2.67.01.18.2.35.31.52.02,1.83.04,3.65.06,5.48,0,1.29-.02,2.58.01,3.87,0,.27.25.53.38.79.05.12.08.25.09.38-.18.7-.33,1.39.37,1.93.14.17.28.34.43.5-.16.69-.22,1.35.4,1.86.14.42.29.84.43,1.26.02.1.04.2.1.29l-.05.12.1.09c-.06.31.06.49.34.57.17.44.02,1.02.56,1.29.03.37.2.67.49.9l.08-.07s0,0,.01,0c-.03.02-.06.05-.09.07-.06.61.28.89.8,1.03,0,.67.22,1.2.92,1.4.05.26.2.41.46.45.07.25.22.4.47.46.07.26.27.36.52.39.06.25.21.41.47.45.03.25.13.45.38.55.03.27.19.42.44.48.15.47.41.83.94.91.1.23.3.34.54.38.03.27.18.43.45.46.06.25.23.4.47.45.02.27.16.44.42.5.05.26.2.41.46.46.05.26.22.4.48.44.06.27.2.43.5.42.31.31.61.62.92.94,0,0,0,0,0,0,.73.49.9,1.57,1.87,1.81.02-.02.05-.05.07-.07,0,0,0,0,0,0l-.07.06c.14.17.28.34.41.5.02.59.32.92.92.94.66.44.92,1.2,1.44,1.76v.02c.01.29.15.45.43.49.12.44.5.46.85.53.05.36-.02.78.48.91.32.29.64.58.95.88,0,.29.17.44.43.5.04.25.16.44.41.52.05.26.23.39.47.44.31,1.29,1.1,2.2,2.26,2.8.13.53.48.79,1.01.84.1.33.1.72.51.87h0c.12.51.54.46.91.47.17.13.31.29.48.43v.02c.13.58.27,1.15.91,1.39.02-.02.04-.05.06-.07,0,0,0,0,0,0l-.07.06c.16.45-.06,1.04.47,1.37h0c.05.51-.13,1.08.39,1.45.22.58-.18,1.34.53,1.77h.01c.01.3.13.52.39.65l-.05.17.13.12c.16.88.31,1.77.84,2.53h0s0,0,0,0l-.04.15.13.09c.13.16.31.29.36.51,0,0-.01,0-.02-.01-.11-.17-.23-.33-.34-.5-.04.28.09.45.33.53.06.49-.18,1.09.49,1.35.09.38.15.77.47,1.05h0s-.05.17-.05.17l.14.12c-.04.39-.11.79.37.96.03.26.2.41.43.5-.02.51-.15,1.06.48,1.34.12.62-.07,1.33.52,1.81,0,0,0,0,0,0,.53,1.05.6,2.29,1.38,3.23-.03.29.09.48.37.56.15.25.31.5.46.75.02.04.04.07.06.1-.05.63.41.8.88.96.15.46-.07,1.04.44,1.38.03.28.2.43.45.5.03.21.02.54.13.58.76.31.76,1.19,1.3,1.65,0,.39.13.71.53.87h0c.15.16.33.29.42.5,0,0,0,0-.01,0-.13-.17-.27-.33-.4-.5.01.27.12.46.4.52.05.27.23.4.48.44.19.82.76,1.35,1.4,1.82.02.28.11.49.43.51.31.34.61.67.92,1.01h0c-.09.15-.05.25.11.32.11.18.32.3.32.53.26.06.42.21.47.48,0,0,0,0,0,0-.05-.26-.2-.42-.47-.48h0s-.01,0-.02,0c-.1-.18-.2-.35-.3-.53-.04.26.04.46.3.56.04.28.19.45.48.48.46.44.93.88,1.39,1.31.04.31.26.39.52.43.04.25.14.45.39.53.04.27.22.4.47.45.06.25.21.4.47.46.05.25.2.41.46.46.04.25.17.44.43.5.08.27.27.38.55.37.09.24.26.37.51.4.01-.02.02-.03.04-.05,0,0,0,0,0,.01l-.04.04c.04.26.19.41.44.48h0c.02.6.15,1.26-.43,1.66-.78.55-.54,1.3-.52,2.03-.38.2-.44.54-.42.93l-.12.08.04.14c-.36.47-.36,1.04-.47,1.59-.53.36-.46.9-.41,1.43l-.11.09.05.13c-.35,1.13-.89,2.22-.89,3.44-.29.27-.33.63-.38.99-.19,1.36-.37,2.71-.56,4.07-.56.33-.31.93-.45,1.4-.71,1.25-.47,2.62-.38,3.93.04.68-.39,1.53.37,2.11l.03-.02c0,.59-.02,1.18,0,1.77.01.39.15.72.54.89.06.13.16.2.31.19-.05.8-.26,1.63.44,2.28-.1.14-.09.27.05.38-.15.46.05.77.43,1.01.02.5.11.97.48,1.35-.06.43.05.76.51.89.14.37.28.75.43,1.12,0,0,0,0,0,0h0s0,0,0,0l-.05.15.13.09c.14.16.33.3.38.53,0,0,0,0-.01,0-.12-.17-.24-.35-.37-.52-.04.3.09.47.36.54.4.94,1.01,1.71,1.89,2.26.04.26.2.4.44.48-.15.79.45,1.03.97,1.34.02-.02.05-.05.07-.07,0,0,0,0,0,0l-.07.07c0,.28.12.46.4.52.05.27.22.4.48.45.06.27.2.43.51.39-.16-.13-.32-.26-.49-.39,0,0,0,0,0,0,.2.09.34.25.49.4l.09.13.15-.04c.32.02.52.18.62.48.06.03.12.07.16.11-.05-.04-.11-.07-.16-.11,0,0,0,0,0,0,0,0,0,0,0,0-.1-.29-.31-.44-.62-.47.12.26.32.42.59.49.07.36.21.66.6.78l.04-.04h.01s-.03.03-.05.04c.22.58.73.61,1.23.66.83,1.37,2.07,2.09,3.64,2.28.21.76.71,1.2,1.49,1.3.17.13.34.26.51.4.2.32.42.61.86.52h.01c.51.69,1.23.41,1.88.41l.21.07s.14-.01.2-.01c.09.24.26.36.52.37-.17-.12-.33-.25-.5-.37,0,0,0,0,0,0,0,0,0,0,0,0,.2.08.33.26.5.38l.02.02c.28.52.78.54,1.27.59.41.44.96.28,1.47.32l-.05.09c.45.52,1.08.4,1.65.46.51.05,1.03.02,1.54.03.06-.07.12-.14.19-.21,0,0,0,0,0,0-.06.07-.12.14-.19.21.46.32.98.34,1.51.29.28,0,.55,0,.83.01.29.12.48.03.58-.26h0s0,0,0,0l-.06-.09c.15.04.29.06.44.07l-.11-.12.06-.1s.09.01.13.03c-.03.06-.05.12-.08.18.68.81,1.54.32,2.33.32h0s.21.03.21.03c0,0,.21-.03.21-.03h0c.58.22,1.05.11,1.39-.44,1.42,0,2.88.4,4.23-.38.81.09,1.64.28,2.29-.42.53-.04,1.06-.08,1.59-.11.46-.02.92-.06,1.27-.41h0s.18.06.18.06l.14-.13c.4.07.75.01.97-.37.39.01.75-.04.94-.44.38-.03.69-.17.84-.55h.01c.29-.03.52-.13.67-.39h0s.15.06.15.06l.11-.13c.4.05.78.04.94-.44.28-.04.42-.19.4-.48.04-.12.09-.24.13-.36h0s0,0,0,0c.15-.32.3-.63.44-.95.34-.08.65-.2.81-.55l.03-.02c.46-.13.59-.45.51-.88l.09-.09-.06-.11c.39-.3.42-.72.41-1.16.62-.47.6-1.12.53-1.79.37-.42.48-.9.35-1.44.03-.14.06-.29.09-.43,0,0,0,0,0,0,.55-1.19.48-2.45.34-3.71.15-.09.18-.22.09-.37.22-.3.52-.56.46-.99.3-.18.25-.35,0-.52.22-1.06.37-2.12.43-3.2.02-.16.04-.31.06-.47.02-.05.07-.12.06-.16-.02-.1-.08-.2-.12-.29,0-.31-.01-.62-.02-.93v-.03c.17-.24.43-.48.45-.73.1-.95.32-1.91.1-2.87.76-.68.32-1.56.41-2.35.37-.19.51-.52.51-.91,0-1.18-.03-2.37-.05-3.55-.03-.06-.06-.12-.09-.19.01-.01.02-.03.04-.05.04-.02.07-.05.11-.06l.09.15-.14.14c.32-.18.64-.37.95-.55.79-.05,1.63.1,2.32-.47.43.08.77,0,.91-.47,1.12-.14,2.21-.39,3.2-.95.4.03.8.08.95-.43.47-.16,1.04,0,1.44-.41.66-.2,1.35-.35,1.78-.97.47-.17,1.02-.07,1.42-.46,0,0,0,0,0,0h0s0,0,0,0c0,0,0,0,0,0,.72-.31,1.64-.33,1.88-1.31.64-.02,1.34.13,1.82-.49.4,0,.72-.13.87-.53.37-.04.7-.14.93-.46.4.03.68-.17.92-.47.52.02,1.02.01,1.33-.51-.02-.01-.03-.03-.04-.04,0,0,0,0,0,0h0s.04.04.04.04c.27-.01.44-.14.51-.4.66.04,1.2-.33,1.78-.54.44.2.78-.01,1.11-.25h0c.69-.27,1.41-.14,2.12-.11.47.38.93.21,1.4,0,.26.25.54.48.93.45.81.61,1.8.37,2.7.55.08.24.22.4.51.4.21.35.55.44.93.46.32.48.87.38,1.32.54.12.5.44.79.96.87.21.39.57.44.96.42,0,0,0,0,0,0,.19.11.33.28.49.42h0c.15.16.31.31.45.48-.15-.16-.3-.31-.45-.47,0,.3.14.47.45.47.19.41.58.39.95.43.02-.02.03-.04.05-.07,0,0,0,.01,0,.02l-.05.05c.15.16.3.32.45.48.02-.02.04-.04.06-.07,0,0,0,0,0,0l-.06.06c0,.29.11.48.42.5.18.39.54.45.91.48.08.25.26.36.51.4-.16-.13-.33-.26-.49-.4,0,0,0,0,0,0h0s0,0,0,0c0,0,0,0,0,0,.2.09.34.26.49.41h0c.15.16.32.3.4.51,0,0,0,0-.01,0,0,0,0,0,0,0-.13-.17-.26-.34-.38-.51.04.25.13.45.39.53.03.28.2.42.48.44.07.24.23.4.47.46.02.27.16.44.43.48.06.24.21.41.43.5.06.54.43.79.9.95.08.26.28.36.55.36.08.24.26.36.51.39-.16-.13-.33-.26-.49-.39,0,0,0,0,0,0,.18.1.32.27.49.39l.02.02c.13.24.25.48.38.72,0,0,0,0,0,0,0,0,0,0,0,0l-.05.13.11.09c.16.15.33.29.4.51,0,0,0,0-.01,0-.13-.17-.25-.34-.38-.5-.05.31.12.46.38.53.11.49.39.83.9.94.07.25.25.38.49.44.08.52.35.85.88.95.23.52.11,1.3,1,1.3,0,0,0,0,0,0,.18.12.33.29.49.43h0c0,.39-.04.78.36,1.01.04.3.22.43.51.42.09.23.29.33.52.39-.17-.13-.33-.26-.5-.38,0,0,0,0,0,0,0,0,0,0,0,0,.19.09.32.26.49.39l.02.02c.07.35,0,.76.36,1,.1.61.54.96.98,1.33.08.46.45.5.79.59.14.44.15.95.55,1.28-.02.4.11.72.48.91,0,.28.12.47.39.55.32.5.64,1,.96,1.51h0s-.02.16-.02.16l.14.07c-.02.26.06.45.32.54.11.6.64.89,1.01,1.3.03-.03.05-.05.08-.08,0,0,0,0,0,0h0s-.08.08-.08.08c-.03.34.14.47.46.48.15.3.3.6.45.9-.09.43.04.75.44.95,0,.29.17.44.43.5.16.44.13.95.55,1.28v.02c.14.17.31.31.42.5.18.12.33.27.44.46,0,0,0,0,0,0,0,0,0,0,0,0-.14-.15-.29-.3-.43-.45,0,0,0,0,0,0,0,0,0,0,0,0,0,0,0,0,0,0,0,0,0,0,0,0-.14-.17-.27-.33-.41-.5-.02.29.12.45.4.5.04.27.19.41.44.48.04.36.04.74.43.95.02.28.2.41.45.47.07.35.18.67.51.87-.02.39-.04.78.41.95.05.36.16.69.57.81l.03.03c.04.05.07.11.11.16.09.11.19.21.24.34,0,0,0,0,0,0l.02.04s0,0,0,0c0,0,0,0,0,0h0s0,0,0,0c0,0,0,0,0,0,0,0,0,0,0,0,.44.69.22,1.67.96,2.23h0c.15.17.31.31.42.49,0,0,0,0,0,0-.14-.16-.28-.32-.42-.48-.02.3.15.44.42.5.04.25.14.44.38.54.03.38.23.65.57.81l.07-.07s0,0,.01,0c-.03.02-.06.05-.09.07.03.39.11.79.57.84.67.09,1.35.12,2.02.14.31,0,.54-.19.69-.46.29-.03.45-.18.45-.48.47-.35.91-.73.93-1.38.36-.2.51-.51.46-.92.29-.23.27-.48.04-.73.24-.17.34-.41.37-.7h0c.46-.15.38-.58.48-.91.36-.31.44-.72.46-1.17.02-.5.07-1.01.1-1.51.12-.5.36-1.02.33-1.51-.11-1.85.26-3.7-.04-5.55l-.04-.8c.07-.27-.01-.47-.27-.59l-.11.06c.01-.15.02-.3.03-.46l.11.06c.59-.63.58-.82-.05-1.5l-.1.06c0-.42,0-.84,0-1.25,0-.29-.1-.51-.35-.67,0-.39-.03-.77-.46-.93-.16-.57-.55-.97-.98-1.34.02-.28-.11-.46-.37-.55-.16-.29-.33-.58-.49-.87.05-.43-.18-.69-.56-.84h0c-.03-.37-.14-.69-.47-.89v-.03c-.14-.18-.31-.31-.41-.51-.2-.11-.34-.29-.48-.47-.15-.27-.23-.61-.45-.79-1.45-1.13-2.14-2.9-3.53-4.1-1.02-.87-1.74-2.05-2.71-3-1.03-1-1.87-2.2-3.04-3.08-.23-.17-.39-.46-.53-.72-1.28-2.45-2.92-4.67-4.56-6.88-.36-.49-.77-.94-1.11-1.44-1.95-2.92-4.08-5.69-6.74-8.02.14-.42,0-.75-.34-1.01-.05-.14-.05-.27,0-.41.59-.94.79-1.88,0-2.82h0c.08-1.29,0-2.59-.41-3.8-.55-1.65-.23-3.13.64-4.51.37-.58.35-1.1.32-1.68.24-.09.38-.27.39-.53.4-.21.38-.59.39-.97.01-.3.02-.6.04-.9.83-.93.57-1.87.02-2.81-.04-.14-.03-.27.06-.39h0c.28-.09.39-.27.3-.56h0c.02-1.05.26-2.1,0-3.14.14-2.04.24-4.08-.36-6.07-.03-.5-.01-1.01-.51-1.32h0c-.14-.17-.32-.3-.4-.52,0,0,.01.01.02.02h0c.13.16.25.33.38.49.02-.28-.13-.44-.38-.52,0-1-.02-1.99-.48-2.91,0,0,0,0,0,0l.04-.16-.14-.1c.02-.42-.05-.82-.36-1.13,0,0,0,0,0,0l.05-.15-.13-.09c.05-.29-.06-.48-.33-.56-.18-.36-.35-.72-.53-1.08h0s0,0,0,0l.04-.13-.11-.08c-.13-.62-.12-1.23,0-1.84h0c.38-.18.45-.53.52-.87.24-.04.45-.13.53-.39.27-.08.35-.29.37-.55.36-.14.5-.43.59-.77,1.44,0,2.29-.96,3.11-1.97.9-.31,1.59-.85,1.96-1.75.53-.13.78-.5.81-1.03.38-.25.75-.49,1.13-.74.38-.25.72-.53.82-1,.56-.18.88-.64,1.23-1.07.77-1.07.79-2.14.02-3.21-.07-.1-.18-.14-.29-.14-.06-.49-.13-.97-.17-1.46-.04-.44-.03-.88-.47-1.14v-.02c-.55-1.63-1.41-3.04-2.69-4.19-.03-.29-.23-.41-.48-.48-.22-1.08-1.24-1.52-1.86-2.27-.02-.3-.2-.42-.47-.47-.05-.27-.19-.44-.49-.42.16.14.32.28.49.42,0,0,0,0,0,0,0,0,0,0,0,0h0c.15.15.3.3.45.45,0,0,0,0,0,0-.18-.12-.33-.28-.46-.46-.18-.12-.32-.29-.49-.42h-.02c-.42-.35-.85-.68-1.27-1.02-.03-.3-.22-.42-.5-.43-.08-.25-.26-.37-.51-.4.17.13.33.26.5.4,0,0,0,0,0,0,0,0,0,0,0,0-.2-.09-.33-.26-.49-.4h0c-.13-.44-.47-.52-.84-.55-.08-.24-.24-.37-.52-.34.16.11.32.22.49.34h0s0,.01,0,.02c-.2-.06-.33-.23-.49-.35l-.09-.15-.17.03c-.13-.01-.24-.05-.33-.11.1.06.21.1.33.11-.13-.26-.33-.41-.61-.47-.06-.27-.21-.43-.51-.41-.32-.46-.82-.49-1.31-.55-.09-.23-.27-.37-.52-.4-.13-.31-.38-.4-.7-.42-.35-.02-.71-.08-1.06-.13,0-.12-.03-.23-.13-.31,0-1.35.02-2.7.02-4.05,0-.58-.17-1.04-.86-1.07-.25-.59-.02-1.18-.04-1.78.54-.5.52-1.16.51-1.81.31-.25.44-.58.37-.98l.13-.15-.07-.18c.44-.59.54-1.25.45-1.96.28-.18.3-.46.32-.75.05-.5.13-1,.2-1.5.25-.07.39-.24.38-.52.5-.36.44-.74.04-1.14h0s0-.06,0-.06c.26-.13.42-.34.44-.63.42-.18.48-.53.46-.93.4-.32.37-.65.06-1,.19-.41.49-.79.41-1.29.38-.38.33-.91.47-1.37.26-.05.43-.18.45-.47.26-.06.35-.28.44-.49.52-.39.53-.9.37-1.46.02-.13.05-.26.1-.38.35-.25.44-.6.36-1.01.05-.26.1-.52.14-.79.33-.2.48-.51.54-.88.41-.24.36-.63.33-1.02.35-.21.46-.54.45-.93.49-.3.55-.79.57-1.3.24-.1.36-.28.32-.56h0c.57-.49.23-1.24.51-1.8.39-.16.5-.49.55-.86.25-.09.38-.26.38-.53.38-.2.44-.56.44-.94.51-.35.4-.9.42-1.4v-.02c.36-.19.45-.53.5-.88.64-.28.48-.85.48-1.36.61-.32.65-.82.45-1.4.24-.27.44-.55.4-.94l.14-.08-.04-.16c.4-.27.5-.66.45-1.1.43-.39.35-.92.41-1.42.78-.64.49-1.5.47-2.31.15-.1.18-.22.11-.38.62-.53.5-1.22.37-1.9.41-.38.52-.86.45-1.39.49-.63.57-1.27.07-1.94.1-.09.11-.18.04-.29.38-.24.39-.61.34-1,.37-.55.38-1.17.38-1.79.07-.29-.05-.47-.33-.56-.01-.14-.04-.28-.07-.42l.1.06c.27-.16.4-.41.39-.71-.02-.72-.06-1.44-.09-2.16.21-.55.05-.98-.41-1.32h0c-.04-1.38-.08-2.76-.1-4.13,0-.25-.12-.4-.29-.54-.1-.47.01-1.03-.53-1.32v-.02c-.17-.19-.35-.37-.4-.62.09-.13.07-.24-.08-.31.02-.42.05-.85.06-1.27,0-.3-.14-.51-.41-.62-.15-.61.14-1.35-.54-1.8,0-.38-.11-.72-.4-.98.11-.76-.56-.96-.97-1.34.04-.4-.02-.75-.4-.97-.04-.56-.17-1.09-.49-1.56,0,0,0,0,0,0l.05-.14-.12-.08c.03-.38-.07-.71-.41-.93.01-.39-.07-.74-.4-.99-.15-.69-.47-1.29-.99-1.77.03-.4-.13-.71-.42-.98-.03-.13-.06-.26-.09-.4.06-.29-.07-.45-.32-.53-.06-.35-.19-.67-.47-.92.09-.14.07-.28-.05-.4-.21-1.66-1.17-3.08-1.53-4.69-.87-.53,0-1.68-.8-2.23.08-.67.06-1.32-.47-1.84-.1-.64.19-1.36-.39-1.89-.08-1.07.24-2.21-.54-3.16h0c.03-.88.21-1.75.03-2.63-.08-.4.06-.87-.38-1.14,0-.42-.02-.85-.03-1.27.32-.19.29-.38-.03-.54-.05-.53-.05-1.06-.15-1.58-.12-.56-.03-1.06.21-1.56h0c.45-.29.38-.75.37-1.18-.01-1.02-.02-2.04-.03-3.06h0c-.01-.28-.02-.56-.04-.84.02-.33.04-.66.06-.99.1-.14.11-.28.04-.43.07-.11.11-.22.14-.33.34-.91.32-1.88.38-2.84.43-.54.72-1.11.46-1.83.33-.41.42-.9.44-1.41.13-.17.27-.33.4-.5h0c.54-.31.51-.84.5-1.35.23-.3.51-.58.34-1.01.05-.14.1-.28.14-.42l-.13.12-.12-.08s0-.02,0-.03c.02-.04.05-.08.08-.12.05.03.11.07.16.1.27-.08.36-.26.28-.53.04-.43.08-.87.11-1.3l.41-.51-.03-.02s0,0,0-.01c.01.02.03.04.03.04.16-.1.32-.21.48-.31-.08.02-.16,0-.25-.07,0,0,.02-.02.03-.03.04-.04.08-.09.12-.13.09.04.18.08.27.12.31-.05.37-.23.27-.5.04-.13.07-.25.1-.38.37-.21.44-.55.43-.93.46-.77,1.19-1.38,1.38-2.3.26-.07.4-.22.39-.5l.02-.04c.32-.19.5-.47.5-.86.3-.31.6-.62.9-.94h0s0,0,0,0c.65-.46,1.25-.97,1.41-1.81.25-.07.41-.22.44-.49.47-.13.45-.52.5-.88.24-.06.43-.18.53-.42.12-.05.23-.1.35-.16.25.03.46-.03.58-.27.67-.05.73-.55.78-1.05v-.02c.18-.12.31-.3.5-.39,0,0,0,0,0,0,.5,0,1.03.05,1.3-.53l.03-.03c.4-.13.54-.49.72-.81,0,0,0,0,0,0,0,0,0,0,0,0l.13.06.09-.1c.67,0,1.08-.39,1.39-.92.15.02.28-.01.4-.11.27.06.47-.03.57-.29l-.06-.09h0s0,0,0,0c0,0,0,0,0,0l.46.06c.78.66.82.66,1.83-.06.47-.3.94-.6,1.41-.9.28.04.47-.08.58-.33.17.03.28-.03.34-.2.28.02.44-.11.48-.38.25-.04.44-.15.53-.4.36-.05.62-.24.77-.58l.04-.03s0,0,0,0c0,0,0,0,0,0,.27,0,.43-.14.47-.41h0c.16-.15.31-.31.48-.44,0,0,0,0,0,0-.16.14-.32.29-.48.43.26-.03.41-.18.48-.43.26-.01.45-.12.54-.38.22-.05.44-.11.66-.16.03-.08.05-.16.08-.23.02-.06.04-.12.06-.18h.02c.08,0,.16,0,.24,0,.06,0,.13,0,.19.01.02,0,.03,0,.05,0h0c.03-.07.06-.13.09-.2.01-.03.03-.07.05-.1.02-.04.03-.07.05-.11,0,0,0,0,0,0l.17.03.11-.14.21.04.21-.05c.79,0,1.59,0,2.38,0l.21.07.22-.02h0c.02.05.02.11.04.16,0,.02,0,.04.01.06.01.05.03.09.03.14,0,0,0,0,0,0,.23-.01.47-.03.7-.04,0,0,0,0,0,0,0-.02,0-.04.01-.06,0-.03.01-.07.02-.1.01-.06.02-.12.03-.18l.05-.03c.29,0,.58,0,.87,0h.46c.16,0,.33,0,.49,0,0,0,0,0,0,0,.04-.05.08-.1.11-.15.04-.06.09-.11.13-.17,0-.01.02-.02.03-.04,0,0,0,0,0,0l.05.02.09.03.04-.06.04-.06c.07,0,.13,0,.2,0,.11,0,.22,0,.33.01.28.01.57.02.85.03l.13-.13.18.03c.05-.14.08-.28.09-.42,0,0,.02-.01.03-.02,0,0,0,0,0,0l.02-.02h0s.02,0,.02,0h.2s.21,0,.21,0c0-.01,0-.02,0-.03,0-.06.01-.12.03-.18.02-.05.03-.1.06-.15.12,0,.24.01.36.03.34.04.67.08.96-.03.04-.01.08-.02.12-.04.04-.01.08-.03.12-.04.61-.17,1.21-.13,1.82-.08,0,0,.02,0,.02,0,.04,0,.08,0,.12,0,0,0,.01,0,.02,0,0-.03.01-.05.01-.07,0,0,0,0,0-.01.02-.09.03-.19.06-.28l.03-.02c.56-.03,1.16.09,1.63-.36.08.1.17.16.26.2.18.07.39.05.58.06.07,0,.13,0,.19.02,0,0,0,0,0,0,0-.03.02-.06.02-.09.01-.06.03-.11.04-.17.01-.03.01-.07.03-.1h.01c.13,0,.25,0,.38,0,.23,0,.45,0,.68,0,.22,0,.44,0,.65,0,.14,0,.28-.02.39-.08.04-.02.07-.04.1-.07.07-.05.13-.11.18-.19.33-.02.66-.04.99-.06.17-.01.35-.02.52-.03.09,0,.17-.01.26-.01,0,0,0,0,0,0,.04.02.08.05.12.07.16.1.31.2.47.29.14-.12.28-.21.42-.29.53-.27,1.1-.25,1.71-.05.05.04.11.08.16.11.52.35,1.08.36,1.65.29.19-.02.39-.05.58-.08h0s.18.05.18.05c0,0,.19-.03.19-.03h0c.06.03.11.05.17.06.21.07.43.06.65.02.05,0,.1-.02.15-.03.15.01.31.03.46.04l.08.07h0s.01,0,.01,0l.09-.05s0,0,0,0c.02.02.04.04.07.06.25.24.55.31.86.33.18.01.36,0,.54,0,.16,0,.32,0,.48,0,.21,0,.43,0,.64-.01.15,0,.3,0,.45,0l.02.02s0,.07,0,.11c0,.05,0,.09.01.14,0,.05,0,.11.01.16,0,0,0,0,0,0,.44.04.88.07,1.31.11.05,0,.1,0,.15.01.08,0,.16.01.24.02,0,.03.01.06.02.09,0,.02,0,.04.01.07.02.07.03.14.05.21,0,0,0,0,0,0,.07,0,.13-.02.2-.02.04,0,.07,0,.11-.01.05,0,.1,0,.14-.02l.1.15.17-.04s0,0,0,0c.45.43,1.06.24,1.57.42.04.27.17.44.48.39h0c.13.04.26.08.4.12.56.25,1.12.51,1.68.76l.22.1s0,0,0,0c0,.04.02.09.02.13.02.1.04.2.05.3.44,0,.88.02,1.32.02.16.15.32.3.47.45l.04-.03s0,0,.01.01c-.02,0-.04.01-.05.02.02.29.17.44.46.46l.03-.05h0s.01,0,.03,0c-.02.02-.04.03-.06.05.26.55.77.56,1.27.59.08.24.24.38.5.4.07.26.26.38.52.39h0c.15.42.48.52.88.5.1.22.28.34.52.36l.04.04c.27.33.54.66.82.98-.01.39.14.7.46.93-.01.4.09.73.5.89,0,.29.17.44.44.48.59.7.75.7,1.45,0,.28-.02.5-.11.54-.43.53-.38.28-.7-.1-1.01Zm-71.13,209.62c1.06.44,1.69,1.26,2.34,2.03,1.37,1.6,2.65,3.28,3.83,5.03.43.64,1.14,1,1.43,1.73-.11.25-.25.49-.34.75,0,0,0,0,0,0-.06.17-.05.33.04.45.05.08.13.14.27.18h0s0,0,0,0c-.06.31.07.48.37.53,1.17,1.89,3.1,3.16,4.13,5.16.24.46.76.47,1.09.79,1.41,1.39,2.43,3.15,4.12,4.26.66,1.42,1.81,2.39,2.99,3.34.34.27.09.92.59,1.17.15.16.32.3.41.5,0,0,0,0-.02,0-.13-.16-.27-.33-.4-.49,0,.29.15.45.41.52.1.29.24.55.4.8.23.34.5.65.78.96.26.29.52.58.74.9l.03.03c.03.25.15.42.42.44.04.25.16.43.4.52-.02.41.12.73.49.93-.02.27.08.48.35.57.31.54-.12,1.32.57,1.74,0,1.73.09,3.47,0,5.2-.1,2.09-.32,4.18-.49,6.27-.55.51-.26,1.24-.45,1.84-.4.39-.4.91-.44,1.41-.33.17-.49.46-.58.79-.25.03-.5.07-.75.1-.07-.35-.06-.73-.47-.9-.01-.3-.21-.4-.47-.45-.02-.21-.03-.43-.06-.63-.05-.29-.16-.55-.43-.72-.09-.06-.2-.1-.33-.13-.19-.43-.04-1-.5-1.33,0-.16-.03-.31-.08-.45-.02-.05-.05-.1-.07-.15-.08-.12-.2-.22-.37-.28-.02-.26-.12-.46-.37-.55,0-.08-.02-.16-.04-.23-.07-.26-.24-.47-.45-.66l-.93-1.64c-.15-.27-.31-.55-.47-.82l.04-.16-.14-.08c.03-.3-.11-.46-.41-.48-.13-.17-.26-.33-.39-.5.01-.09.02-.18.02-.26,0-.27-.08-.5-.36-.63-.04-.02-.08-.03-.12-.05-.02-.08-.04-.15-.07-.22-.08-.19-.2-.35-.36-.48-.05-.04-.1-.08-.15-.11-.01.01-.02.03-.04.04,0,0,0,0,0,0l.04-.04c0-.29-.11-.53-.36-.7l.05-.16-.14-.09c0-.05,0-.1,0-.14-.01-.15-.08-.25-.2-.32-.04-.02-.1-.04-.16-.05-.05-.37-.19-.68-.55-.84v-.02c-.02-.08-.03-.15-.03-.23-.03-.28-.1-.55-.45-.67-.02.02-.03.04-.05.05,0,0,0,0,0,0l.05-.05c-.04-.26-.21-.39-.44-.47v-.02c-.01-.2-.07-.37-.22-.47-.04-.03-.09-.05-.14-.06,0-.1-.01-.19-.03-.29-.03-.2-.11-.38-.25-.52-.05-.05-.1-.09-.16-.13,0-.12-.03-.22-.06-.32-.04-.09-.09-.18-.14-.26-.08-.11-.19-.21-.34-.28,0-.28-.16-.44-.43-.5-.05-.26-.2-.41-.46-.46-.07-.35-.21-.65-.53-.84h0c-.12-.19-.31-.32-.37-.53,0,0,0,0,.02,0h0s0,0,0,0c.12.17.24.34.36.51.03-.29-.12-.45-.36-.54-.01-.17-.04-.33-.1-.47-.01-.02-.03-.05-.04-.07-.08-.13-.21-.23-.41-.29h-.01c-.12-.18-.29-.32-.4-.5-.19-.12-.35-.28-.48-.47-.18-.12-.33-.27-.45-.45,0,0,0,0,0,0h0s0,0,0,0c.15.15.29.29.44.44,0,0,.01.01.02.02,0,0,0,0,0,0,.15.15.31.31.46.46,0,0,0,0,0,0,0,0,0,0,0,0,.13.16.26.33.4.49-.04-.25-.13-.45-.4-.51-.02-.29-.21-.41-.46-.46-.04-.26-.2-.42-.46-.46-.07-.35-.2-.66-.5-.89.06-.31-.11-.47-.38-.56-.04-.11-.09-.22-.14-.33-.19-.38-.47-.7-.84-.94,0,0-.02-.01-.02-.02-.02.02-.04.04-.06.06,0,0,0,0,0,0l.06-.06s0-.02,0-.03c-.02-.15-.09-.26-.18-.33-.07-.05-.15-.09-.25-.12-.01-.28-.17-.43-.44-.48-.05-.27-.21-.42-.49-.43-.13-.18-.26-.35-.39-.53l-.1-.38s0-.02,0-.03c.03-.25-.06-.38-.25-.43-.05-.01-.11-.02-.17-.02-.27-.33-.55-.66-.82-.98,0-.05-.02-.09-.04-.14-.05-.15-.15-.25-.29-.3-.05-.02-.1-.03-.15-.04-.01-.06-.03-.11-.05-.16-.05-.11-.14-.2-.25-.25-.05-.02-.11-.03-.17-.04-.08-.25-.26-.36-.5-.42-.02-.17-.03-.34-.07-.49-.03-.11-.08-.21-.16-.29-.06-.06-.12-.1-.21-.14-.01-.13-.05-.23-.12-.3-.01-.01-.02-.03-.04-.04-.07-.07-.17-.11-.29-.14-.05-.26-.21-.41-.47-.45-.03-.12-.08-.22-.15-.3,0,0-.02-.02-.03-.02-.08-.07-.19-.11-.32-.12-.06-.07-.11-.15-.17-.22-.35-.44-.71-.88-1.26-1.1-.02.02-.03.04-.05.06,0,0,0,.01-.01.02,0,0,0,0,0,0h.01s.05-.06.05-.06c-.1-.22-.27-.34-.47-.42-.12-.05-.24-.09-.37-.14-.01-.09-.03-.17-.05-.25-.17-.66-.62-1.03-1.35-1.12-.13-.11-.26-.22-.39-.32l-.61-.5-.02-.02c-.05-.18-.14-.3-.26-.39-.06-.05-.12-.09-.19-.12-.1-.05-.21-.08-.32-.11-.04-.12-.11-.21-.19-.27,0,0,0,0,0,0-.09-.06-.21-.08-.36-.07-.2-.33-.52-.46-.88-.51-.07-.26-.23-.42-.52-.39.17.13.33.26.5.39,0,0,0,0,0,.01-.21-.09-.34-.26-.5-.4h0c-.29-.22-.58-.42-.89-.61-.9-.54-1.88-.92-2.89-1.21-.1-.03-.2-.06-.31-.09-.4-.4-.92-.39-1.43-.45,0,0,0,0,0,0-.85-.56-1.83-.37-2.77-.44,0,0,0,0,0,0-.16-.14-.32-.28-.42-.48,0,0,0,0,0,0,0-.11-.01-.21-.02-.32-.01-.19-.03-.37-.04-.56-.06-.12-.12-.35-.19-.35-.87-.05-1.74-.07-2.61-.08-.26,0-.33.24-.4.44-.05.05-.08.1-.1.15-.02.05-.03.11-.03.17-.08,0-.17.01-.25.03-.22.03-.42.11-.55.3-.03.05-.06.1-.09.17-.36.05-.61.28-.82.56h-.03c-.62.18-1.36-.23-1.9.37-.13,0-.25,0-.37.03-.17.03-.33.1-.45.23-.05.05-.09.11-.13.18-.38.04-.65.23-.84.55h0c-.38,0-.7.12-.88.48l-.03.02c-.37.02-.73.06-.96.4-.39-.02-.69.15-.95.43-.12,0-.22,0-.31.03-.16.04-.3.13-.41.24-.16.17-.28.4-.4.63-.24-.17-.47-.17-.68.05-.32-.07-.47.11-.55.36-.16.02-.33.02-.5.03-.24.02-.46.06-.65.22-.08.06-.15.14-.21.24-.15,0-.29.02-.42.05-.52.11-.94.39-1.27.84-.03.04-.06.08-.09.12.02.02.05.04.07.07,0,0,0,0,0,0,0,0,0,0,0,0h0s-.07-.07-.07-.07c-.04,0-.08,0-.12.01-.12.02-.22.07-.3.14-.05.05-.1.11-.13.19-.15-.05-.28,0-.37.13-.1-.02-.19-.03-.28-.04-.29-.02-.56.02-.81.15-.12.06-.24.15-.35.26-.09-.01-.17-.01-.25,0-.24.01-.43.1-.57.3-.04.05-.07.11-.1.18-.26.03-.42.17-.51.4-.07,0-.15,0-.23-.02-.31-.03-.63-.09-.81.05-.38.27-.79.41-1.2.49-.5.1-1.01.11-1.51.18-.29.04-.58.07-.76.34-.38,0-.77-.06-1,.34-.39,0-.78-.01-1.18-.02-.03-.1-.08-.18-.14-.25-.09-.09-.2-.16-.35-.18-.16-.48-.56-.24-.86-.27-.04.12-.08.24-.12.36-.01.04-.03.09-.04.13l-.09.26c-.14,0-.27.03-.39.08-.07,0-.14,0-.21,0-1.3.01-2.59.01-3.89.06-.13,0-.25.11-.37.21-.06.05-.12.1-.18.14h0c-.12.06-.25.07-.39.04-.03-.03-.07-.05-.1-.08-.42-.33-.84-.41-1.27-.01-.03.02-.05.04-.08.07-.27-.04-.53-.07-.8-.11-.09-.1-.18-.23-.28-.23-1.63-.03-3.25-.04-4.88-.05h-.01c-.2-.4-.56-.44-.93-.45-.44-.02-.88-.04-1.32-.06-.01-.02-.03-.03-.05-.05-.37-.43-.89-.41-1.4-.42-.35,0-.69.01-1.04.03-.11,0-.21.01-.32.02-.14,0-.29-.02-.43-.03-.21-.2-.42-.33-.65-.41-.43-.16-.89-.16-1.35-.13-.25.01-.5.04-.74.05-.2-.4-.57-.42-.96-.41-.1-.15-.22-.26-.35-.34-.38-.24-.83-.2-1.29-.16-.06,0-.12.01-.18.02-.02-.03-.04-.06-.06-.09-.17-.25-.39-.41-.69-.42-.04,0-.08,0-.12,0-.08-.08-.17-.14-.26-.2-.24-.15-.51-.24-.8-.27-.1-.01-.2-.02-.31-.02-.05-.07-.09-.13-.15-.18-.14-.13-.3-.2-.48-.23-.1-.02-.21-.02-.32-.02-.09-.11-.2-.19-.31-.25-.04-.01-.07-.03-.11-.04-.06-.02-.13-.04-.19-.06-.25-.06-.51-.07-.76-.12-.05-.1-.12-.18-.2-.25-.11-.09-.24-.15-.38-.18-.11-.03-.23-.05-.36-.06,0,0,0,0,0,0-.18-.12-.35-.24-.53-.36-.38-.26-.77-.51-1.19-.71-.19-.09-.39-.17-.6-.24-.37-.4-.9-.36-1.36-.53-.02-.05-.05-.1-.07-.14-.13-.19-.31-.23-.51-.24-.14,0-.28.02-.42.02-.21-.31-.48-.53-.87-.52-.12-.14-.24-.28-.36-.41-.21-.22-.44-.42-.74-.53-.07-.02-.14-.04-.21-.06-.02-.06-.04-.11-.06-.16-.07-.13-.16-.22-.31-.23-.05,0-.11,0-.18.01-.08-.04-.16-.07-.24-.1-.24-.1-.48-.2-.72-.3.01-.3-.11-.48-.41-.51-.04-.09-.1-.16-.15-.22-.12-.12-.26-.18-.42-.21-.12-.02-.24-.02-.38,0-.24-.3-.57-.41-.92-.48-.08-.09-.17-.18-.25-.27-.56-.54-1.25-.88-1.97-1.18-.06-.19-.18-.32-.35-.38-.05-.02-.1-.03-.15-.04-.05-.29-.23-.41-.53-.4-.33-.5-.87-.42-1.36-.49-.02-.12-.06-.22-.13-.3-.07-.09-.18-.14-.32-.16,0,0,0,0,0,0,0,0,0,0,0,0-.6-.76-1.24-1.47-2.05-1.98-.21-.13-.44-.26-.67-.36-.05-.27-.22-.41-.49-.44-.06-.26-.22-.42-.49-.45.16.15.32.3.47.45,0,0,0,0,0,0,0,0,0,0,0,0-.19-.11-.33-.26-.46-.43,0,0,0,0,0,0h-.01c-.27-.27-.54-.53-.81-.79-.13-.13-.27-.26-.4-.39-.06-.06-.12-.12-.19-.18-.02.02-.04.04-.05.06,0,0,0,0,0,0l.06-.05s-.01-.07-.02-.11c-.03-.15-.08-.27-.21-.34-.05-.03-.12-.05-.2-.06-.32-.44-.65-.87-.97-1.31l-.02-.02c-.34-.58-.82-1.01-1.35-1.39h0c-.02-.26-.1-.47-.36-.56-.01-.09-.04-.17-.09-.24-.06-.06-.11-.11-.17-.17-.06-.03-.12-.06-.19-.07-.02-.07-.04-.13-.07-.18-.05-.08-.11-.14-.19-.19-.06-.04-.14-.06-.22-.07-.07-.24-.23-.38-.47-.45,0-.11,0-.22-.01-.33-.02-.22-.07-.41-.29-.52-.05-.02-.1-.04-.17-.06-.06-.24-.22-.4-.45-.48,0-.07,0-.14,0-.21-.05-.4-.28-.63-.67-.73-.06-.01-.12-.03-.19-.03-.02-.1-.04-.21-.06-.3-.05-.19-.12-.37-.28-.5-.04-.03-.08-.06-.13-.09-.06-.37-.24-.65-.56-.84.02-.3-.15-.44-.41-.5-.07-.35-.16-.69-.52-.87.02-.29-.14-.46-.39-.56-.06-.12-.12-.23-.18-.35,0-.07,0-.13,0-.18-.02-.05-.05-.1-.07-.15-.06-.08-.14-.13-.26-.17,0-.15,0-.3-.02-.44-.02-.15-.08-.28-.18-.4-.05-.05-.1-.1-.17-.15-.05-.49-.15-.96-.6-1.26v-.02c-.03-.37-.06-.73-.46-.91h0c-.13-.18-.3-.32-.39-.51,0,0,0,0,.01,0,.13.16.25.33.38.49,0-.28-.12-.45-.38-.52-.06-.49-.03-1.01-.43-1.4,0-.13-.01-.24-.04-.35-.03-.11-.08-.21-.15-.3-.07-.1-.16-.19-.28-.27-.07-.66-.76-.94-.95-1.53l.09-.12-.09-.12c.02-.06.07-.12.05-.17-.02-.06-.05-.12-.07-.18-.02-.04-.04-.08-.06-.12h0c.03-.39.04-.76-.45-.88l-.03-.02c-.12-.44-.23-.88-.35-1.32-.05-.2-.09-.4-.18-.58-.07-.15-.18-.28-.37-.36l-.02-.03c-.01-.25-.1-.45-.35-.55-.17-.53-.08-1.13-.4-1.61-.03-.06-.07-.11-.12-.16.03-.28-.09-.46-.34-.56-.12-.47-.15-.97-.49-1.35-.04-.25-.08-.49-.12-.74-.03-.16-.05-.33-.08-.49.11-.32.36-.42.65-.56.96-.47,1.06-.54.56-1.42-.06-.11-.13-.23-.21-.37-.14-.17-.28-.33-.42-.5-.01-.31-.16-.47-.48-.44.16.15.32.29.48.44h0c-.17-.14-.31-.3-.48-.44h0c-.22-.31-.55-.4-.89-.5-.03-.15-.08-.29-.13-.42-.27-.74-.78-1.27-1.6-1.53-.05-.16-.14-.27-.26-.34-.07-.04-.15-.07-.24-.09-.08-.34-.22-.65-.57-.81h0c0-.31-.16-.45-.45-.48-.46-.46-.92-.92-1.38-1.38t0,0h0c0-.1-.02-.17-.06-.24-.05-.11-.15-.18-.29-.22-.03,0-.06-.02-.09-.02,0-.03-.01-.06-.02-.09-.04-.15-.11-.28-.24-.35-.05-.02-.11-.04-.17-.05-.04-.28-.23-.39-.49-.44-.04-.26-.16-.46-.44-.5,0-.06-.02-.11-.04-.15-.08-.17-.25-.23-.46-.25h0c-.46-.46-.92-.92-1.39-1.38,0,0,0,0,0,0-.02.02-.04.05-.06.07,0,0,0,0,0,0,0,0,0,0,0,0l.06-.06s0,0,0,0c-.02-.2-.09-.37-.24-.48-.04-.03-.08-.06-.13-.08l-.15-.36s0-.06,0-.09c0-.16-.06-.28-.18-.36-.04-.03-.09-.05-.15-.07,0-.07-.01-.14-.03-.19-.04-.12-.12-.21-.23-.27-.04-.02-.09-.04-.14-.05-.01-.06-.03-.11-.05-.16-.04-.09-.1-.15-.18-.2-.06-.05-.14-.08-.23-.1-.08-.35-.19-.67-.59-.79h-.01c-.21-.27-.42-.54-.64-.79-.18-.2-.39-.38-.62-.52-.13-.08-.28-.15-.43-.2-.07-.23-.23-.39-.45-.47.02-.05.02-.09.02-.13,0-.09-.06-.16-.16-.21.1-.15.07-.29-.07-.4-.12-.42-.48-.43-.8-.49-.02,0-.04,0-.06-.01h0s0-.06,0-.08c.03-.36-.02-.66-.45-.74-.03,0-.05-.01-.08-.01-.11-.1-.24-.13-.39-.1-.06-.25-.21-.4-.46-.46-.12-.34-.28-.65-.46-.93-.38-.58-.87-1.04-1.44-1.44-.24-.17-.5-.32-.76-.47-.08-.26-.23-.44-.53-.43-.29-.31-.57-.63-.86-.94-.01-.11-.05-.19-.1-.26-.03-.03-.06-.06-.09-.1-.08-.06-.18-.1-.29-.12-.02-.11-.05-.2-.11-.29-.05-.06-.11-.11-.17-.16-.04-.02-.09-.04-.14-.06,0-.04-.02-.08-.03-.11-.06-.17-.19-.28-.38-.33-.02,0-.05-.01-.07-.02,0-.02-.02-.03-.03-.04-.15-.24-.36-.33-.6-.36-.1-.02-.21-.02-.32-.03-.14-.15-.27-.31-.41-.46,0-.06-.02-.12-.03-.18-.09-.32-.3-.49-.58-.57-.13-.04-.28-.06-.44-.07h0c-.14-.16-.31-.3-.4-.49,0,0,0,0,0-.01.01-.13.02-.26.01-.38-.01-.2-.08-.38-.27-.5-.04-.03-.09-.06-.15-.08-.07-.36-.26-.63-.58-.8v-.02c-.13-.18-.31-.32-.37-.54,0,0,0,0,.01,0,.11.18.23.35.34.53.01-.27-.08-.47-.34-.56-.05-.28-.23-.41-.51-.41-.15-.22-.3-.44-.45-.66l.07-.11-.08-.1c.05-.53-.07-.99-.54-1.31l-.04-.04c-.26-.48-.53-.96-.79-1.43-.03-.6-.07-1.19-.1-1.79-.02-.37-.04-.74-.39-.98.01-.14-.01-.26-.08-.35,0,0,0,0,0,0-.06-.09-.15-.15-.27-.2,0-.04,0-.07,0-.11,0-.17-.01-.33-.02-.5,0-.04,0-.08,0-.12.08-.11.14-.21.2-.32.2-.38.26-.76.09-1.13-.08-.16-.2-.33-.37-.49-.02-.87-.04-1.74-.05-2.61v-.1c0-1.06-.02-2.11-.02-3.17.02-.01.04-.03.06-.04-.02-.01-.04-.02-.06-.03,0,0,.04,0,.04,0,0,0,0,0,0,0-.01,0-.03,0-.04,0-.03,0-.06,0-.1,0-.08,0-.16,0-.24-.01-.01,0-.03,0-.04,0,0,0,0,0,0,0-.06-.14-.06-.29.02-.42.02,0,.04,0,.05,0,.05,0,.1,0,.15-.01.07,0,.14-.01.21-.01,0,0,0,0,0,0,.02-.62.04-1.24.07-1.85,0-.12,0-.23,0-.35,0-.18,0-.36,0-.53,0,0,0,0,0,0h0c-.07-.11-.1-.23-.1-.36,0,0,0,0,0,0-.08-.03-.15-.05-.23-.07-.06-.01-.11-.04-.17-.05l.05-7.32c.27-.16.32-.43.37-.71.02-.1.04-.19.07-.27.06-.16.15-.3.34-.38.01,0,.02-.01.03-.02,0,.31.16.5.43.63,0,0,0,0,0,0h.02s0,0,0,0c-.29.4-.4.8.06,1.16h0c.02.25.04.49.07.74,0,.04,0,.08.01.12-.05.53-.12,1.06.45,1.39h0c-.12.55-.25,1.09.39,1.4.01,0,.02.01.04.02.22.29.05.74.4.97-.03.39.04.74.36,1,0,.15.05.29.11.42.14.33.37.63.32,1.06-.04.34.04.68.18,1.01.1.23.24.46.41.66-.05.32.12.46.4.51.23.43.05,1,.44,1.38.01.39.22.66.49.9-.08.15-.06.28.06.41-.02.06-.03.11-.04.17-.06.34,0,.65.18.91.08.11.19.22.32.31-.01.27.1.46.35.54.04.22.07.45.12.66.02.06.04.13.06.19.07.18.18.34.37.46-.01.18,0,.35.05.51.03.07.06.13.09.2.07.1.16.18.28.25,0,.11,0,.22,0,.33.02.23.09.43.3.58.03.02.06.04.1.06,0,.07.02.14.04.21.04.14.1.26.19.37.08.11.19.2.33.27,0,.11.01.22.03.32.03.23.13.43.39.53.03,0,.05.02.07.03h0c0,.06.02.12.03.16.03.06.06.11.09.17.06.08.16.14.28.18,0,.4.2.67.51.88h0c.04.16.1.32.17.48.2.5.49.99.85,1.44.11.14.22.28.35.4h0c.03.27.19.42.45.47.05.23.07.48.12.7.06.24.16.45.37.59.1.06.21.11.36.14.05.17.07.36.1.54.04.28.13.54.46.69.01,0,.02.01.04.02,0,0,.01-.02.03-.04,0,0,0,0,0,0,0,0,0,0,0,0l-.04.03c.04.09.09.16.14.22,0,0,0,0,0,0,.17.18.4.27.64.36,0,.21.02.4.07.58.1.35.31.66.58.95.35.36.69.73,1.03,1.09.2.21.39.41.59.62,0,.06.02.12.03.17.04.13.13.23.26.28.05.02.11.03.17.04.09.25.28.35.53.39.04.24.14.44.38.54.01.05.03.1.04.15.12.37.32.66.72.73.07.01.14.02.22.01.18.12.36.23.54.35h0c.13.18.31.31.38.53,0,0,0,0-.02,0-.12-.17-.24-.34-.37-.51.02.26.11.46.37.54.03.27.19.42.44.48.18.53.51.94,1.02,1.2l.07.16h.18s0-.01,0-.01c0,0,0,0,0,0,.21.15.41.3.62.45.02.27.16.44.43.5.06.26.21.41.47.45.07.26.25.38.5.42.05.27.21.4.5.37l.11.14.18-.03h0c.12.26.31.42.59.49.16.27.35.5.56.71.29.28.61.51.96.72.24.15.49.29.74.42.07.27.21.44.52.42.24.32.59.38.96.37l.08.14.15-.03c.08,0,.16.02.22.05-.07-.02-.14-.04-.22-.05.14.25.35.4.63.47.06.28.2.46.53.39-.17-.13-.34-.27-.51-.4,0,0,0,0,0-.01.21.09.37.25.52.41l.1.12.14-.06s0,0,0,0c.15.26.37.39.67.4.12.49.77.29.97.68.01.02.02.04.03.06,0,.01.01.02.02.04h0s0,0,0,0c.3.07.47.25.56.54.81.07,1.62.14,2.43.2,0,0,0,0,.01,0,.01.04.03.07.04.11.14.32.32.58.64.67.11.03.24.04.38.02l.1.1.13-.06s0,0,0,0c.2.23.45.32.76.35.43.04.85.11,1.27.18,0,0,0-.01-.01-.02.26.17.52.28.77.35.32.08.64.09.96.05.52-.06,1.04-.25,1.56-.48h0c.24-.01.5.03.74.03.16,0,.31-.04.44-.13.09-.06.17-.15.24-.28.71-.12,1.49.04,2.1-.46.04-.03.09-.06.13-.1h.01c.17-.13.31-.3.49-.41,0,0,0,0,0,0h0s0,0,0,0c-.16.13-.32.26-.49.39.3.02.43-.15.51-.4.3-.03.6-.01.9-.03.17-.01.33-.04.49-.1,0,0,0,0,0,0,.04,0,.07-.03.11-.03.13-.06.26-.14.38-.26.13-.04.25-.08.38-.12.38.03.71-.06.97-.36.11.01.22.01.32,0,.16-.02.29-.08.4-.19.07-.08.13-.18.18-.31.28-.04.51-.17.66-.41l.14.07.11-.12c.42.07.78.01.98-.42.43-.28.99-.13,1.45-.31.12-.03.23-.1.33-.2h0c.17-.14.3-.32.51-.4,0,0,0,0,0,.01-.17.13-.34.26-.5.38.31.04.46-.11.53-.38.28-.1.56-.21.83-.31.19-.01.37-.05.51-.19.54.08.98-.08,1.32-.51h.02c.38,0,.72-.08.94-.43.39.01.72-.07.86-.5l.03-.03c.21-.07.32-.18.37-.32.03-.08.05-.17.05-.26,0-.1,0-.19,0-.3.02-.01.03-.02.04-.03.11-.09.13-.2.06-.33.17-.32.34-.64.51-.96.28-.1.39-.29.29-.58,0,0,0,0,0,0,0,0,0,0,0,0,.05-.13.07-.26.06-.4h0c.26.01.41-.12.36-.36-.05-.27-.27-.24-.47-.15s-.37.2-.37.45h0,0c-.29.02-.59.05-.89.07l-.05-.52c.67-.25.47-.78.45-1.26,0-.05,0-.09,0-.14.1-.1.14-.22.12-.36.13-.04.21-.1.28-.18.06-.07.1-.14.12-.22.04-.17.03-.36.02-.55.24-.21.5-.41.7-.65.08-.09.15-.19.21-.3.05-.1.1-.2.13-.32.11-.04.2-.1.27-.17.01-.02.02-.03.04-.04.06-.08.1-.19.1-.32.13-.13.26-.27.39-.4.02-.02.04-.05.07-.07h0c.28-.02.46-.14.43-.46v-.02c.41-.28.81-.56,1.21-.83.05-.03.1-.07.15-.1.15-.16.3-.31.45-.47.28,0,.45-.15.52-.41.18-.04.34-.1.51-.17.3-.11.59-.22.95-.18.28.04.59-.11.77-.4.03-.04.06-.09.08-.14.1.01.2.02.29.02.37,0,.71-.08.97-.39.03-.04.07-.08.1-.13h.06s.14.03.14.03l.12-.04.08-.03c.14.13.29.23.45.31.35.17.75.23,1.17.22.52,0,.69-.21.73-.86.02-.29-.08-.52-.33-.66-.02,0-.03-.02-.04-.03-.08-.35-.25-.64-.59-.8l-.02-.03c0-.27-.12-.45-.4-.5-.04-.21-.1-.41-.2-.58-.07-.08-.13-.15-.19-.23-.11-.1-.25-.17-.42-.21-.1-.29-.21-.58-.34-.85-.2-.42-.44-.83-.74-1.2-.02-.02-.03-.05-.05-.07-.12-.15-.18-.32-.23-.5-.12-.49-.09-1.04-.55-1.38-.02-.02-.04-.04-.06-.05-.09-.23-.2-.42-.48-.45h0c-.14-.39-.27-.78-.41-1.17l.03-.15-.13-.07c.03-.27-.11-.43-.34-.51-.06-.27-.03-.57-.1-.84-.02-.09-.05-.18-.1-.26-.06-.1-.15-.19-.28-.27-.01-.28-.19-.42-.43-.5-.03-.19-.03-.39-.05-.58-.02-.18-.06-.35-.17-.49-.07-.09-.17-.17-.32-.24-.02-.25-.14-.43-.37-.54,0-.14.01-.29,0-.43-.01-.24-.06-.46-.21-.64-.08-.09-.19-.18-.34-.24-.11-.48,0-1.03-.41-1.43,0-.51-.14-.97-.44-1.39.03-.47-.18-.85-.4-1.23-.02-.05-.05-.1-.09-.15-.09-.68-.01-1.39-.47-1.98l.03-.17-.14-.1c.05-.14.04-.28-.01-.42.03-.1.05-.19.06-.28.06-.45-.11-.85-.36-1.23.03-.11,0-.2-.04-.28-.02-.03-.03-.07-.06-.1,0-.15,0-.3.01-.45l.1.06c.06-.06.11-.11.15-.17.31-.43.1-.86-.1-1.28-.01-.03-.03-.06-.04-.09,0-.08,0-.16-.01-.24-.01-.21-.02-.41-.03-.62-.03-.61-.07-1.22-.1-1.82.05-.14.05-.28,0-.42.05-.33.11-.66.13-.98.04-.5.01-.98-.21-1.44-.07-.14-.15-.29-.26-.43.01-.13,0-.25-.02-.38.12.02.22-.02.3-.1.3-.11.53-.31.55-.63.07-1.33.14-2.65-.44-3.91-.01-.07-.06-.16-.04-.22.64-1.83,1.08-3.74,2.35-5.29.26-.49.31-1.11.87-1.41,0,0,0,0,0,0,0,0,0,0,0,0,0,0,0,0,0,0,.18-.13.36-.26.41-.51,0,0,0,0,0,0,0,0,0,0,0,0,0,0,0,0,0,0,0,0,0,0,0,0,.02-.42.27-.66.61-.85.59-.32,1.18-.63,1.74-.98.59-.38,1.37.29,1.89-.37.07-.01.14-.03.21-.04.04,0,.07-.01.11-.02.06-.01.11-.02.17-.03h0c.26-.01.51-.03.77-.04.98.04,1.99.42,2.9-.26.13-.06.26-.07.4-.03.33.2.65.22.96-.04h0c.29.01.59.03.88.04.74.51,1.57.4,2.39.32.84.14,1.61.49,2.33.94.27.17.49.4.51.72.01.2-.07.42-.15.62-.08.19-.21.15-.39.07-.64-.26-1.29-.48-1.94-.73-.43-.17-.86-.32-1.34-.22-1.23.24-2.44-.09-3.64-.27-.83-.13-1.65-.1-2.47-.15-2.24-.13-3.94.77-5.44,2.29h0c-.26.28-.18.7-.42.98-.19.58-.29,1.13,0,1.73.29.61.83.81,1.37,1.07,1.02.49,2.04.93,3.2.88.18.12.35.34.54.36,1.57.18,3.14.1,4.7-.09.12-.01.21-.19.32-.29.51-.82,1.47-.19,2.07-.61.63-.44,1.21-.91,2.04-.83.73.74.44,1.68.5,2.55.04.58-.21,1.22.39,1.65.08.14.08.28-.01.41-.1.11-.28.21-.29.32-.11,1.06-.13,2.12-.1,3.18.02.73.07,1.46.13,2.2,0,.09.1.18.19.26.03.03.06.06.08.09h0c.11.93-.12,1.91.48,2.76-.07.15-.05.29.07.42,0,.47,0,.95-.01,1.42h0c-.04.14-.04.29.02.42.01.19.02.37.03.56.02.32.04.64.05.97,0,.33.14.56.43.7.02.02.04.02.05.04.08.07.17.11.28.1.14.76-.25,1.63.51,2.25h0c-.03.53-.08,1.06.39,1.44-.01.14-.01.27,0,.39.04.37.19.67.49.88.1.07.21.13.35.18,0,.12-.02.26-.04.4-.03.26-.05.51.07.62.13.12.22.25.3.38.33.55.37,1.21.68,1.76.18.54.39,1.07.62,1.59.43.99.93,1.94,1.5,2.85.22.36.45.71.69,1.05,0,0,0,0,0,0,0,0,0,0,0,0,0,.3.2.42.45.48.11.47.07.99.49,1.35h0c-.02.39.04.75.4.97,0,.38.12.71.47.92,0,.13.04.23.1.31.01.02.03.03.05.05.07.06.18.1.3.12.07.24.22.39.45.47,0,.11-.02.23-.02.34,0,.2.03.37.2.48.08.05.19.09.34.1.17.13.35.26.52.39.1.19.3.31.35.53,0,0,0,0,0,0,0,0,0,0,0,0,0,0,0,0,0,0,.15.12.28.2.4.27.33.17.59.15.87-.07.07-.06.15-.12.23-.21,0,0,0,0,0,.01,0,0,0,0,0,0,.08-.04.13-.09.18-.15.09-.09.16-.2.21-.32.05-.14.08-.29.09-.45.23-.09.38-.24.44-.49.29-.03.4-.23.42-.49.24-.06.43-.17.49-.44.29-.03.41-.22.45-.48-.16.16-.31.32-.47.48,0,0,0,0,0,0h0s0,0,0,0c-.16.14-.31.29-.47.43,0,0,0,0,0,0,.14-.16.29-.32.47-.43.12-.19.28-.34.46-.47,0,0,0,0,0,0,0,0,0,0,.01-.01.42-.42.84-.85,1.25-1.27.21-.22.43-.43.64-.65.21-.22.32-.48.4-.76.04-.15.08-.3.11-.45.24-.06.39-.21.45-.46.25-.06.39-.22.45-.47.34-.09.67-.18.76-.6l.03-.04c.24-.15.44-.32.61-.51.19-.22.32-.47.39-.76.03-.13.05-.26.06-.41.23-.08.39-.23.44-.48.27-.06.4-.22.41-.5.25-.08.36-.27.4-.51-.13.17-.27.33-.4.5,0,0,0,0,0,0,0,0,0,0,0,0,.1-.19.27-.33.4-.49h0c.27-.04.46-.15.45-.46h0c.37-.25.73-.5.9-.93h.01c.41-.14.48-.49.56-.84.26-.06.38-.24.4-.51.25-.07.41-.22.44-.49l-.43.48h0c.13-.17.29-.32.43-.48h0c.27-.04.43-.19.46-.46h0c.47-.13.43-.54.5-.89.34-.09.71-.1.88-.5h0c.16-.14.31-.3.47-.43-.16.14-.31.28-.47.43.3,0,.44-.16.48-.44.12-.01.21-.05.28-.11.08-.06.14-.16.16-.28,0-.02.01-.05.02-.07.02-.01.04-.03.06-.04.37-.23.64-.54.82-.92.05-.1.09-.21.13-.32.24-.07.41-.22.47-.47.1-.02.17-.05.24-.1.04-.05.09-.09.13-.14.04-.07.07-.14.09-.23.26-.08.38-.27.38-.54.14-.06.24-.15.32-.25.05-.09.1-.18.15-.27.03-.1.05-.22.05-.34.23-.1.37-.28.39-.54.12-.04.2-.09.28-.16.13-.12.2-.29.24-.48.02-.07.03-.15.05-.22.03-.02.06-.03.09-.05.32-.21.32-.56.3-.91.41-.4.97-.69.92-1.39.07-.09.09-.16.09-.23.06-.16.12-.31.19-.47.04-.09.08-.19.11-.28-.01-.01-.03-.02-.04-.03,0,0,0,0,0,0l.04.04s.05-.02.07-.03c.3-.11.43-.33.45-.61,0-.07,0-.15,0-.24.28-.23.44-.53.51-.88.27-.07.4-.23.34-.53-.12.17-.23.34-.35.51,0,0,0,0-.01,0,.07-.21.24-.34.36-.51.15-.08.18-.2.08-.34.28-.27.45-.59.49-.98.25-.09.35-.28.34-.55-.11.17-.22.34-.34.51,0,0,0,0-.01,0,.07-.21.25-.33.35-.52l.02-.04h0c.18-.11.35-.22.53-.33.07-.04.14-.09.21-.13,0,0,0,0,0,0,0,0,0,0,0,0,.07-.33.19-.66.25-.99.02-.13.04-.26.04-.39,0-.11,0-.22-.03-.33,0,0,0,0,0-.01.06-.01.13,0,.19-.01.06,0,.12-.01.17-.01.02,0,.03,0,.05,0l.02-.02s0-.08,0-.12c0-.06,0-.12.01-.18,0-.04,0-.08,0-.12h0s.06,0,.1,0c.01,0,.03,0,.04,0,.09,0,.18-.01.27-.04v-.02c.02-.22.02-.44.02-.66,0-.04,0-.08,0-.12,0-.05,0-.1,0-.15.01,0,.02-.02.03-.03,0,0,0,0,0,0,0,0,0,0,0,0l.06-.06s.03-.08.02-.12v-.03s-.01,0,0,0c-.01-.03-.03-.06-.05-.09,0,0,0,0,.01,0,.04,0,.08-.02.11-.04.03-.01.07-.03.1-.04.03-.02.07-.03.1-.05-.01-.06-.01-.11-.01-.16,0-.06.02-.12.04-.17.01-.02.02-.05.04-.07.01-.02.03-.03.04-.04.05-.05.12-.09.21-.12.02-.11.04-.22.06-.33.02-.12.04-.24.06-.35.05-.31.1-.62.16-.93,0,0,0,0,0-.01.07-.02.13-.05.19-.08.03-.02.05-.05.08-.07.07-.07.1-.16.1-.27,0-.02,0-.03,0-.05,0-.03,0-.05,0-.08h0s0,0,0,0l.04-.04.09-.11s0-.01,0-.02l-.03-.08-.02-.04-.02-.05h0s0,0,0,0c0,0,.02-.02.03-.03.04-.04.08-.07.11-.11.07-.07.14-.13.21-.2,0,0,0,0,0,0l-.03-.13v-.02s.02-.02.02-.02l.11-.06s0-.07,0-.1c0-.05,0-.1-.01-.15,0-.07-.01-.14-.02-.21,0,0,0,0,0,0,.06-.01.13-.03.19-.04.02,0,.04,0,.07-.01.04,0,.07-.02.11-.02,0-.06,0-.13-.01-.19,0-.02,0-.04,0-.07-.02-.48.04-.95.21-1.41,0,0,0,0,0-.01.11-.07.18-.15.24-.24.02-.03.05-.06.06-.09.14-.24.13-.51.1-.79,0-.07-.02-.14-.03-.21,0-.05-.02-.09-.02-.14.17-.23.19-.48.08-.74h0c.26-.14.39-.35.37-.65v-.02c.11-.1.17-.21.21-.33.3-.6.3-1.26.32-1.92.47-.15.5-.52.45-.92.08.03.15.06.21.1.03.02.05.03.08.05.06.07.09.15.09.26,0,0,0,0,0,.01-.04.66.04,1.29.28,1.89.03.16.08.31.19.44-.07.31-.08.61-.05.91.02.25.06.5.1.76.01.07.02.14.03.22,0,.06.02.12.02.19.02.18.04.37.03.55,0,0,0,.02,0,.03.05,0,.11.01.16.02.07,0,.15,0,.22.02,0,0,0,0,.01,0l.03.04s0,.03,0,.04c0,.06-.02.13-.02.19,0,.08-.02.16-.03.24.03.05.09.11.08.16-.02.11-.07.2-.11.31.02.45.04.9.06,1.35.06.03.13.06.19.09.05.02.11.05.16.07,0,0,.02,0,.03.01,0,.01,0,.02,0,.03-.06.13-.02.23.12.3-.01.06-.02.13-.04.19-.02.09-.03.18-.05.27l.15.12-.04.18c.08.04.15.08.22.12.04.02.08.04.11.06,0,0,.01,0,.02.01,0,.04,0,.08,0,.11,0,.15.02.3.03.45.01.25.03.49.04.74h0c.07.02.15.03.22.04.03,0,.05,0,.07.01.03,0,.06.01.09.02,0,.28.17.42.43.48.01.19.03.39.04.58,0,.03,0,.06,0,.09.02.21.03.42.05.63.01,0,.02,0,.03.01.07.04.15.07.23.08.02,0,.04,0,.05.01.01,0,.03,0,.04,0,0,.04.02.09.03.13,0,.05.02.09.03.14.03.16.06.33.1.49,0,0,0,0,0,0,.05,0,.09.01.13.02,0,0,.02,0,.03,0,.07.01.14.03.2.06,0,0,0,0,0,0,.02.21.05.42.07.62,0,0,0,.01,0,.02.02.2.05.41.07.61.27.08.47.22.36.57.14.16.28.32.42.48.72,1.57,1.89,2.85,2.77,4.32,1.17,1.97,2.65,3.7,4.35,5.22.35.31.59.59.71.92.08.23.1.49.04.81-.07.37-.04.76-.05,1.14-.03.06-.06.11-.09.17-.41.82-.37,1.71-.35,2.6-.04.06-.07.11-.09.17-.44.82-.46,1.69-.31,2.6l-.15.13.06.19s0,0,0,0c-.24.22-.27.44.03.64.03.28.06.55.1.83-.03.04-.06.07-.09.11-.22.27-.52.38-.87.39-.91.03-1.81.04-2.72.07h0c-.05.12-.09.25-.12.39h0s0,0,0,0c-1.88.25-3.73.45-5.45,1.48-1.97,1.19-3.57,2.8-5.29,4.27-.74.64-1.29,1.51-1.92,2.27-.34.41-.64.87-1.03,1.23-.95.9-1.54,2.04-2.2,3.15-.7,1.17-1.11,2.51-2.05,3.55-.1.11-.16.26-.22.4-.25.6.07,1.31.76,1.74.43.27.93.1,1.32-.55.81-1.36,1.61-2.73,2.35-4.13.17-.33.25-.7.53-.98,1.27-1.3,2.32-2.79,3.77-3.94.82-.65,1.44-1.57,2.08-2.41.19-.24.32-.51.6-.64,1.79-.83,3.34-2.11,5.25-2.7.35-.59.92-.34,1.42-.38.04,0,.08,0,.12,0,1.39-.1,2.75,0,4.1.29.15.07.3.14.47.22.05.03.1.05.15.08.13.06.26.12.39.17.44.14.9.16,1.33.34.08.04.16.08.24.12.15.09.29.19.44.27.15.09.3.16.46.22.23.08.47.15.7.24.07.03.14.07.21.11.13.09.26.18.39.27.13.09.26.18.4.25.05.02.09.05.13.07.1.07.21.13.33.17.05.03.11.05.16.08.07.04.14.08.21.12.14.16.32.24.52.3.03.02.06.03.09.05.08.07.16.14.24.2.13.28.32.47.6.57.01.01.02.02.03.03.06.05.11.11.17.16.11.11.23.21.35.3.12.1.24.19.38.25.2.1.4.21.58.33,0,0,.17.14.17.14.11.1.22.2.33.29.11.1.22.2.34.28.17.15.32.31.48.47.1.12.21.22.34.29.02.01.05.03.07.04.09.14.24.2.4.25.03.02.07.04.1.06.09.08.18.16.28.24.12.23.3.41.53.53,0,0,0,0,.01.01.1.12.19.24.29.35.08.13.16.26.24.39.07.14.16.27.25.39.1.12.2.24.31.35,0,0,.16.17.16.16.1.11.2.22.32.32,0,0,.15.16.15.16.1.11.19.22.29.32,0,0,.12.18.13.17.07.12.14.25.21.38.06.14.12.27.2.4.08.13.16.26.25.38.08.13.16.27.24.4.05.11.09.22.13.33.02.2.07.38.22.54.04.09.08.19.13.28.09.15.17.31.26.47.07.17.12.34.18.52,0,.03,0,.06,0,.1.06.77.11,1.54-.1,2.25.06-.07.12-.14.17-.21,0,.02.01.05.02.07-.05.06-.12.12-.2.18-.06.05-.12.1-.17.14-.08.35-.24.65-.44.93-.18.26-.39.5-.58.75-.3.05-.42.24-.42.52-.37.17-.48.49-.52.86-.24.07-.4.23-.46.47-.24.08-.45.19-.66.32-.28.17-.55.37-.79.6-.14.13-.27.28-.39.43-.38.03-.66.22-.86.54-.28-.02-.47.09-.56.35-.06.01-.12.02-.17.05-.11.05-.2.14-.26.25-.02.04-.04.09-.06.14-.04,0-.07,0-.11.01-.42.06-.63.32-.74.68-.02.08-.04.16-.06.25-.13.03-.26.07-.37.13-.17.09-.32.2-.45.33-.17.16-.33.35-.47.55-.15,0-.29.03-.41.08-.22.09-.39.25-.49.47-.04.09-.08.19-.1.3-.25.08-.36.27-.4.52-.26.05-.41.2-.46.47-.27.06-.41.23-.39.51.13-.17.26-.33.39-.5,0,0,0,0,0,0-.1.19-.28.33-.4.5v.02c-.52.33-.54.83-.48,1.36h0c-.13.22-.25.43-.37.64-.13.23-.27.45-.42.66-.43.62-.2,1.1.28,1.54.13.4.45.42.69.22.43-.36.74-.12,1.06.08.04.03.09.05.13.08.14.22.27.44.4.66h0s-.06.16-.06.16l.13.1c-.07.41.17.68.44.92-.05.41,0,.76.42.95.01.17.02.35.07.51.03.12.09.24.18.34.04.05.09.09.14.13,0,.06.01.12.02.18.03.37.06.74.1,1.11,0,.04,0,.09,0,.13-.02.52-.05,1.04-.06,1.56,0,.78.08,1.55.41,2.29.03.07.05.13.08.2.15,1.52.31,3.03.46,4.55-.36.26-.28.64-.3,1-.05,1.05-.1,2.1-.15,3.14-.07.08-.1.15-.12.21-.45.82-.48,1.69-.4,2.57.03.28.06.56.1.85,0,.04,0,.07.01.11-.06.12-.1.24-.13.36-.55.37-.29.71.03,1.05-.01.26-.03.52-.04.79-.38.21-.45.56-.42.95-.27,0-.54,0-.81-.01-.12-.07-.22-.12-.31-.17-.51-.25-.69-.15-.7.33,0,.29-.03.59-.02.87.02.34.12.67.42.94.55,1.88.68,3.83.93,5.76.09.68.21,1.32.47,1.94-.22,0-.45-.02-.67.01-.07.01-.14.02-.19.03-.42.09-.47.21-.19.65.06.09.12.18.2.3.36.65.95,1.18,1.04,1.99.1,1.01.8,1.75,1.59,2.08Zm25.59,28.09c0,.06.02.12.03.17-.02-.05-.03-.11-.04-.17,0,0,0,0,0,0Zm-27.67-14.24s0,0,0,0c.02.02.03.05.05.07-.02-.02-.03-.05-.05-.07Zm7.3,7.88c.16.14.32.29.48.43,0,0,0,0,0,0,0,0,0,0,0,0,.14.16.29.31.43.47,0,0,0,0,0,0-.17-.14-.33-.29-.44-.48-.19-.11-.34-.28-.49-.44,0,0,0,0,0,0Zm18.31,26.64s0,0,0,0c-.02.04-.04.08-.06.11.02-.03.04-.07.06-.11Zm-1.25-.85h0c-.17-.13-.32-.29-.46-.45,0,0,0,0,0,0h0c.15.15.31.3.46.44Zm-5.95-10.19s-.06-.04-.09-.06c.03.02.06.04.09.06h0Zm-55.34-20.18s0,0,0,0h0s0,0,0,0Zm-50.31,22.12c.02-.29-.12-.45-.41-.49-.04-.15-.11-.25-.2-.32,0,0,0,0,0,0-.07-.04-.13-.07-.19-.11-.14-.05-.31-.07-.48-.08-.07-.23-.23-.38-.45-.46-.01-.15,0-.3,0-.46,0-.32-.02-.63-.31-.85-.04-.03-.08-.06-.12-.08,0-.06-.02-.12-.04-.17-.03-.08-.08-.14-.14-.19-.07-.06-.15-.1-.26-.13-.08-.34-.27-.62-.55-.84.01-.13.01-.26,0-.38-.03-.17-.09-.33-.23-.45-.05-.05-.11-.09-.18-.13-.03-.28-.21-.41-.47-.46-.07-.34-.16-.68-.2-1.03,0-.03,0-.07-.01-.1-.03-.22-.08-.42-.25-.56-.03-.03-.05-.05-.09-.08-.01.01-.03.03-.04.04,0,0,0,0,0,0l.04-.04s0-.09,0-.14c-.02-.32-.08-.63-.36-.86-.19-.74-.38-1.48-.57-2.21.03-.57.06-1.14.09-1.71.02-.36-.04-.7-.29-.94-.06-.06-.12-.11-.21-.16-.08-.14-.07-.29,0-.43.07-.07.14-.14.2-.21.23-.25.47-.49.7-.73.01-.01.02-.02.03-.03,0,.02,0,.03.01.05.04.27.2.4.49.38l.19.08h.2s0-.01,0-.01l.04-.04s0,0,0,0c-.01.01-.03.03-.04.04,0,0,0,0,0,0,.3.48.57,1.01,1.25,1,.03,0,.05,0,.08,0,.3.15.6.3.9.46.05.15.1.3.17.43.1.18.23.32.42.39.11.04.24.06.4.04l.11.13.16-.06s0,0,0,0h0c.13.25.33.42.63.43.19.42.58.39.95.42h0c.19.39.52.49.92.46h.01c.12.12.25.21.39.3.43.27.91.41,1.41.51.17.03.33.06.5.09h.02c.21.28.45.42.7.48.14.02.27.04.41.06.38,0,.77-.08,1.15-.09l.08.14.15-.03c.32.03.54.18.6.5,0,0,0,0,0,0-.08-.3-.29-.46-.6-.5.12.27.3.47.6.53.04.05.08.1.12.14.18.15.38.2.58.21.25,0,.52-.04.77-.04l.08.12.14-.04s0,0,0,0c.29.34.7.39,1.1.46.07.25.22.42.49.45,0,0,0,0,0-.01.32.24.67.44,1.02.6.92.42,1.92.61,2.92.83.05.01.1.02.15.03.05.05.1.1.15.14.24.18.52.22.8.22.32,0,.65-.04.96.04.07.09.14.17.21.24.58.51,1.32.35,2.03.29.23.37.67.24.99.39.93.63,1.87.74,2.82.03h0c.28,0,.56.02.84.03,0,0,0,0,0,0,0,0,0,0,0,0,.95.57,1.9.68,2.84-.04l.2-.04.19.07c.11.1.21.28.32.29,1.62.03,3.26.42,4.82-.3.51-.25,1.05-.12,1.57-.14.43-.02.9.11,1.23-.28.63-.09,1.27-.15,1.86-.38.14-.03.27-.08.39-.18.15,0,.29-.02.44-.03.65,0,1.34.15,1.84-.47l.14-.1c.13-.09.25-.18.38-.28.5-.04.95-.23,1.35-.52.07.03.12.07.17.11.18.14.27.34.27.61,0,.83.01,1.65.02,2.48,0,.17,0,.33,0,.5-.06.14-.06.29-.02.44v.02s0,0,0,0c0,0,0,0,0,0-.05.05-.1.1-.14.15-.1.11-.2.21-.3.32,0,0,0,0,0,0h0c-.52.93-.68,1.91-.53,2.94.01.09.02.17.04.26,0,.3,0,.61-.01.91-.68.61-.52,1.57-.93,2.3h0s-.07.07-.1.11c-.15.17-.26.36-.33.56-.06.18-.1.37-.12.56-.02.17-.03.34-.04.51-.35.07-.66.18-.81.55-.27.01-.46.13-.52.4-.26.05-.41.21-.48.46-.74.33-1.47.67-2.21,1,0,0,0,0,0,0-.38,0-.73.08-.95.43-.65.01-1.32-.03-1.87.4-1.22.12-2.49-.07-3.66.48,0,0,0,0,0,0-.61-.18-1.19.06-1.78.13-.13,0-.26,0-.38-.01-.33-.01-.66-.02-.99-.04-.34-.01-.63.05-.86.29-.04.05-.09.09-.13.15-.77.02-1.54.04-2.3.05-.06-.07-.12-.13-.18-.18-.23-.19-.5-.27-.81-.27-1.21,0-2.43,0-3.64.01-.36-.1-.72-.24-1.09-.19-.06,0-.12.02-.18.04-.41-.34-.89-.43-1.41-.41-.85-.59-1.85-.27-2.77-.44-.18-.35-.47-.53-.86-.52-.11-.23-.32-.31-.56-.35.18.11.35.23.53.34,0,0-.01,0-.02,0,0,0,0,0,0,0-.21-.06-.35-.23-.52-.35h-.01c-.07-.19-.16-.3-.27-.38-.13-.1-.28-.15-.45-.18-.17-.03-.35-.04-.52-.07-.11-.23-.3-.34-.56-.35-.09-.17-.21-.27-.34-.33,0,0-.01,0-.02,0-.05-.02-.11-.04-.16-.05-.27-.06-.56-.04-.82-.12-.02-.07-.04-.13-.07-.18-.08-.14-.23-.2-.44-.15,0,0,0,0-.01,0,0,0,0,0,0,0-.08-.11-.18-.14-.29-.1-.03.01-.06.02-.09.04,0,0,0,0,0,0-.19-.12-.38-.25-.56-.37l-.03-.05s0,0,0,0c-.42-.82-.97-1.49-1.83-1.78-.12-.04-.25-.07-.38-.1,0,0,0,0,0,0-.19-.12-.33-.29-.49-.43h0c0-.31-.15-.47-.45-.47-.19-.37-.5-.51-.9-.49-.15-.16-.29-.32-.44-.47,0,0,0,0,0,0,.03-.4.02-.78-.53-.84l-.03-.02c-.1-.1-.19-.19-.29-.29-.15-.15-.31-.3-.46-.46-.05-.05-.1-.1-.15-.15l-.02-.03Zm-13.73-51.67s0,0,.02,0c.14.16.27.32.41.48,0,0,0,0,0,0-.17-.14-.33-.28-.42-.49Zm-28.07-60.88c0,.07.02.13.04.19-.03-.05-.04-.12-.04-.19h0Zm-4.3-4.01s.07.05.1.08c-.03-.03-.07-.05-.1-.08h0Zm2.92,20.13s0,0,0,0c-.27-.04-.42-.2-.47-.46,0,0,0,0,0,0,.05.26.21.42.47.46Zm7.38,7.84c.04.25.19.4.44.45,0,0,0,0,0,0-.25-.05-.4-.19-.44-.45,0,0,0,0,0,0Zm6.83,7.44s0,0,0,0c0,0,0,0,0,0,.16.14.31.28.47.43,0,0,0,0,0,0-.2-.1-.34-.26-.48-.44-.17-.14-.33-.29-.43-.49,0,0,0,0,0,0,.14.16.29.33.43.49,0,0,0,0,0,0,0,0,0,0,0,0Zm-.43-.48h0s0,0,0,0c0,0,0,0,0,0Zm8.78,15.67s0,0,0,0h0s0-.01,0-.02c.08.13.16.25.25.38-.09-.12-.2-.23-.25-.37Zm-4.1-10.68s0,0,0,0c-.19,0-.32-.09-.41-.22.09.13.22.2.41.22Zm33.17,53.93s0,0,0,0c-.19-.02-.32-.11-.41-.25.08.14.22.22.41.25Zm26.56,11.24s0,0,0,0l-.08-.11s.06.07.08.11Zm-6.74-9.82c1.49.03,2.98.06,4.47.1.04.13.1.23.18.29.07.06.16.07.27.06.04,0,.07,0,.12-.02l.17.05.17-.02c.18,0,.37,0,.56,0h0c.13.03.27.06.4.08.07.04.14.06.2.1.87.4,1.74.46,2.62-.04l.81.02h0c.22.24.51.26.8.33,1.39.35,2.79,0,4.18.11.02,0,.05,0,.07,0,0,.15,0,.31,0,.46,0,.29.01.57.02.86,0,.29.01.58.02.88h0s0,.02-.01.02c-.5.37-.42.94-.44,1.45-.02.45.05.91.08,1.37-.01.09-.03.19-.04.28-.03.17-.05.35-.08.52-.12.02-.24.06-.36.1-.05,0-.1-.02-.15-.02-.44-.07-.88-.1-1.19.31-.03.04-.05.07-.08.11-.45.2-.91.28-1.39.11-.09-.09-.17-.17-.24-.24-.41-.41-.52-.38-1,0-.04.04-.08.07-.14.11-.6.2-1.21.24-1.81,0-.02-.03-.05-.06-.07-.09-.17-.21-.4-.32-.68-.32-1.08,0-2.16,0-3.24,0-.36,0-.72,0-1.08,0-.46,0-.92,0-1.39,0-.46-.71-1.2-.36-1.82-.48-.06-.04-.12-.07-.18-.1-.67-.35-1.43-.2-2.14-.35-.48-.61-1.2-.39-1.82-.53-.15-.07-.3-.14-.46-.21-1.01-.46-2.04-.86-3.2-.7-.17-.28-.42-.42-.71-.49-.05-.01-.1-.03-.16-.03-.04-.11-.1-.19-.17-.25-.02-.01-.04-.03-.05-.04-.09-.05-.21-.07-.35-.05-.4-.37-.92-.35-1.41-.41h-.03c-.32-.45-.78-.56-1.28-.59-.06-.08-.12-.14-.19-.2-.26-.2-.59-.25-.91-.29-.08-.01-.16-.02-.24-.04-.01-.02-.03-.04-.04-.06-.24-.36-.59-.36-.94-.35-.14,0-.27,0-.41-.01-.03-.1-.06-.19-.1-.27-.28-.57-.8-.66-1.37-.65-.13,0-.26,0-.39.01-.08-.22-.21-.39-.44-.47,0-.06-.02-.11-.04-.16-.06-.13-.16-.21-.29-.24-.06-.01-.12-.02-.18-.02-.1-.07-.2-.13-.31-.2-.54-.35-1.09-.69-1.63-1.04-.1-.06-.19-.12-.29-.18-.07-.26-.23-.42-.49-.46-.08-.27-.26-.39-.54-.37-.25-.21-.46-.48-.67-.73-.22-.25-.45-.48-.76-.63-.1-.05-.2-.09-.31-.11-.11-.24-.32-.33-.56-.37-.04-.25-.14-.45-.39-.53-.04-.26-.19-.42-.45-.48-.06-.25-.21-.4-.46-.47-.04-.13-.09-.24-.15-.35-.27-.5-.7-.85-1.16-1.18-.06-.04-.12-.09-.18-.13-.05-.17-.15-.24-.31-.21-.1-.33-.2-.66-.52-.85-.02-.09-.04-.18-.06-.26-.15-.49-.46-.82-.91-1.02-.12-.05-.24-.1-.37-.13-.02-.15-.04-.3-.08-.44-.09-.36-.25-.66-.6-.84-.08-.04-.17-.07-.27-.1-.06-.25-.21-.41-.48-.44-.07-.24-.26-.36-.48-.44.01-.09.02-.19.04-.28.05-.32.13-.61.4-.78.08-.05.18-.09.31-.11.09.23.25.37.51.38.05.09.1.16.17.22.08.07.18.11.28.14.16.04.33.05.5.07.04.1.09.19.15.26.12.15.28.23.47.26.08.01.17.02.26.02.1.12.2.23.31.32.19.17.4.32.63.44.13.06.26.12.4.17.11.26.32.34.59.32h.02c.19.32.47.51.84.56.04.08.08.14.13.2.14.17.34.25.56.28.07,0,.14.01.22.01.05.07.1.13.16.18.1.09.22.15.34.2.12.05.25.09.39.11.02.08.05.15.09.21.06.09.14.16.25.19.05.01.1.02.16.02.07.08.14.15.22.2.16.11.35.17.54.19.22.03.44.02.66.02.12.14.26.24.41.31.27.13.58.17.88.25.05.95.88.98,1.49,1.27.02.3.16.46.48.43h0s.16.17.16.17l.15-.02h.06s.08.08.12.11c.17.16.37.26.59.31.06.02.13.03.2.04.01.03.03.06.05.09.09.15.23.22.41.21.04,0,.07,0,.11,0l.11.12.04.04s.02,0,.04,0c.05,0,.14,0,.17,0,.03.06.07.11.11.15.1.11.23.17.36.19.17.03.36,0,.55-.04.07.14.17.17.31.09.24.21.5.38.77.54.49.3,1.01.55,1.54.79.04.02.08.04.12.05,0,0,0,.01,0,.02.22.41.58.46.99.34,0,0,0,0,0,0,0,0,0,0,0,0,.12.03.25.07.37.11.38.44.88.48,1.4.42.15.02.3.04.44.06.14.02.27.03.41.05.03.05.06.1.09.14.16.2.36.28.6.28.09,0,.19,0,.29-.03.4.36.92.32,1.41.42.26.2.53.34.81.44.62.22,1.28.2,1.95.09.16-.03.32-.06.48-.09l.17.14s.13-.02.19-.02c.12.23.32.32.57.31l.03.02c.24.34.61.41.99.42Zm-23.6,8.88s-.02-.03-.02-.05c-.5-.07-1.06.09-1.44-.39-.49-.19-.94-.5-1.46-.56-.09-.01-.19-.02-.28-.01,0,0,0,0,0,0-.23-.32-.57-.41-.93-.43,0,0,0,0,0,0-.16-.36-.45-.53-.83-.54,0,0-.01,0-.02,0-.22-.36-.59-.39-.96-.42,0,0,0,0,0,0-.05-.26-.19-.43-.47-.45,0-.02-.01-.03-.02-.04-.03-.07-.06-.13-.1-.18-.1-.14-.24-.21-.4-.25-.1-.03-.2-.04-.31-.05-.01,0-.02,0-.03,0-.09-.27-.29-.36-.56-.35,0,0,0,0,0-.01-.04-.1-.1-.18-.16-.26-.28-.35-.75-.58-.81-1.09-.03,0-.07,0-.1,0-.1,0-.2-.02-.29-.03h0c-.01-.22-.02-.44-.03-.65-.04-.95-.08-1.89-.35-2.83-.07-.27-.1-.55-.1-.84,0-.53.06-1.07.06-1.6,0,0,0,0,0,0,.57-.31.49-.85.48-1.36,0-.02.01-.03.02-.05.47-.86.15-1.84.42-2.73,0,0,0,0,0,0,.39-.18.47-.52.47-.91.02-.01.02-.02.04-.03.09-.07.16-.15.21-.23.08-.12.12-.25.13-.39.03-.26,0-.53.01-.79,0,0,0,0,0,0,.16-.29.33-.58.49-.88,0,0,0,0,.01,0,.11.04.23.05.34.01,0,0,0,0,0,0,.05.26.2.41.46.45,0,0,0,.01,0,.02.03.21.11.38.21.52.05.05.1.11.16.17.13.11.3.2.5.24,0,0,.01,0,.02,0,.04.21.07.43.16.61.03.05.06.1.1.15.04.05.09.09.15.13.02.01.03.02.05.03,0,.05.01.09.02.13.04.16.13.26.28.31.05.01.1.03.16.03,0,.01.02.02.03.03.2.25.39.5.59.75-.02.03-.02.06-.03.09-.01.03-.02.06-.03.09-.03.2.08.36.27.49,0,.01.01.02.02.03.13.28.29.52.6.62.03,0,.05.02.08.03.01.02.03.02.04.04.07.07.15.1.24.1.02,0,.04,0,.06,0,.04.27.17.44.45.46.01.01.02.02.03.03.18.17.36.35.55.52.27.26.55.52.82.78,0,0,0,0,.01.01,0,0,0,0,0,0,0,.02.01.04.02.07.04.2.16.34.36.38.02,0,.04.02.07.02,0,.02.01.03.02.05,0,.02.02.04.02.06.1.21.26.31.46.36.11.03.24.04.36.05h0c.18.26.36.51.54.77,0,0,0,0,0,0,0,.01.02.02.03.04.32.63.84,1.02,1.42,1.34.1.05.19.1.29.15,0,0,.01,0,.02.01.01.04.03.07.04.1.12.24.31.33.53.35.11,0,.23,0,.35,0,0,0,0,0,0,0,.06.24.23.36.45.39.02,0,.03,0,.05.01.04.28.17.47.48.44,0,0,.01.01.01.02.21.34.56.39.92.43,0,0,0,.01,0,.02.17.4.53.44.9.46,0,0,0,.01,0,.02.17.38.51.45.88.48,0,.02.02.03.03.05.04.08.08.14.13.19.1.1.22.15.35.18.13.03.27.03.41.03,0,0,0,0,.02,0,.03.12.08.21.16.27.04.02.08.04.13.06.06.02.13.03.22.02.03.02.07.03.1.05.09.04.18.08.27.12.01.02.03.03.05.04.26.26.58.35.95.34,0,0,0,0,.01.01.33.42.81.47,1.29.54,0,0,0,0,0,0,.24.33.58.43.97.4,0,0,.02.01.02.02.13.16.28.26.44.32.01,0,.02,0,.04.01.29.09.61.07.92.07,0,0,0,0,0,0,.02.09.03.19.03.28,0,.03,0,.05,0,.08,0,0,0,.01,0,.02,0,0,.02-.01.02-.02.05,0,.1,0,.15,0,.24.02.47.03.71.05l.12.13.17-.04c.13.27.32.43.64.39h0c.17.17.37.23.58.25.52.21,1.05.35,1.64.31.09.23.28.33.51.38,0,.02,0,.03,0,.05,0,.1.03.2.06.29h0c.06.03.11.05.17.08.09.04.18.08.27.12,0,0,0,0,0,0,0,0,0,0,0,0,.24-.03.47-.06.71-.09.07,0,.13-.02.2-.03.04.02.08.03.12.04.06.02.13.03.19.03.03,0,.06,0,.09,0,0,.04.02.07.03.11.02.08.04.16.07.24,0,0,0,0,0,0,.27.02.54.03.81.05.31.02.63.04.94.06.09.09.18.09.27,0,0,0,0,0,0,0h0c.13.07.26.2.4.22.79.1,1.57.19,2.36.27.56.06,1.12.12,1.68.18.13.01.27-.12.41-.19l.17.12.14-.04.06-.02s0,0,0,0c.16.09.33.17.5.25.58.27,1.17.43,1.83.23.04-.01.08-.02.12-.04l.17.08s.16-.07.17-.07c.19.13.38.23.56.29.25.08.5.09.75,0,.2-.07.4-.19.6-.38.29.01.59.02.88.04.18.18.37.28.55.34.18.05.35.06.53.03.27-.05.55-.18.82-.36.75.05,1.49.08,2.23-.09.3-.07.58.08.54.49-.04.44-.08.87-.13,1.31-.22.08-.38.23-.44.46-.14-.02-.27,0-.39.07-.21-.01-.41-.03-.62-.05-.75-.06-1.5-.06-2.15.5-.03.02-.06.05-.09.07-.14.11-.27.22-.41.33-.08,0-.16,0-.24,0-.3,0-.57.08-.72.42-.67-.07-1.32-.08-1.82.48-.71.42-1.49-.14-2.21.15-1.24-.28-2.48.05-3.71-.01-.64.08-1.37-.34-1.88.37-.13.06-.26.06-.39,0-.18-.11-.37-.32-.55-.33-1.84-.03-3.69-.02-5.53-.02,0,0,0,0,0,0-.12,0-.24,0-.36,0h0c-.32-.18-.64-.18-.98-.04-.28-.03-.57-.05-.85-.08,0-.13-.04-.26-.1-.38,0,0-.02,0-.02,0l-.88-.1h0c-.49.04-.98.07-1.46.11-.13,0-.27.02-.4.03-.02-.02-.04-.02-.05-.03-.09-.07-.19-.11-.31-.09,0-.03-.02-.05-.03-.08-.01-.03-.02-.07-.03-.1-.07-.13-.18-.19-.34-.19-.04,0-.07,0-.12,0l-.13-.12-.02-.02-.06.02-.11.03h-.02s-.02-.01-.04-.02c0,0-.01,0-.01-.01-.22-.18-.47-.26-.73-.32-.21-.05-.43-.08-.64-.14-.01-.01-.03-.02-.04-.04-.51-.47-1.21-.23-1.79-.44,0,0,0,0,0,0-.39-.53-.97-.29-1.48-.34,0,0,0,0,0,0-.23-.29-.53-.45-.89-.49,0-.01-.01-.02-.02-.03-.07-.14-.15-.23-.24-.29-.1-.07-.22-.11-.34-.12-.26-.03-.54.03-.79-.01h0c-.02-.09-.04-.18-.05-.27,0-.04-.01-.07-.02-.11-.13-.01-.25-.02-.38-.03-.3-.03-.6-.05-.91-.08,0,0,0-.01,0-.02-.04-.12-.06-.25-.05-.38,0,0,0,0,0,0,0,0-.01,0-.02,0-.13,0-.26-.01-.4-.02,0,0-.02,0-.03,0,0-.09,0-.17-.02-.25,0-.05-.02-.11-.04-.16,0,0,0-.01,0-.01,0,0,.01.01.02.02.05.05.11.1.16.15.06.05.11.1.17.15.05.05.1.09.15.14,0,0,0,0,0,0-.05-.04-.1-.09-.14-.14-.1-.11-.21-.21-.33-.29,0,0,0,0,0,0-.01-.03-.03-.04-.04-.06-.02.02-.04.04-.07.06-.06,0-.12,0-.18,0-.2,0-.4-.01-.6-.02l-.12-.14-.18.05c-.05-.11-.1-.22-.16-.33Zm41.12-11.23s0,0,0,0c-.28-.02-.43-.19-.49-.45h0c.06.27.22.42.49.45Zm-9.24.45s0,0,.01,0c.05.07.09.15.14.22-.06-.05-.11-.12-.15-.22Zm-28.56-8.76h0c-.08,0-.14-.02-.2-.04.06.02.13.04.2.04Zm-1.49-.81c-.15-.16-.32-.3-.42-.5,0,0,0,0,0,0,.14.17.28.33.42.5Zm-5.02-3.28c-.21-.09-.35-.26-.51-.41.17.13.34.27.51.4,0,0,0,0,0,0Zm7.89,43.25s0,0,0,0c-.05,0-.11,0-.15-.02.05.01.1.02.15.02Zm-2.51-107.36s0,0,0,0c0,.07,0,.12-.02.18.02-.05.02-.11.02-.17Zm6.17-12.37h0s0,0,0,0h0Zm-4.56,14.42s0,0,0,0c0-.08.02-.15.06-.22-.03.06-.05.13-.06.22Zm35.34-15.33s0,0,0,0c-.12.18-.28.33-.45.47.15-.16.29-.32.44-.47Zm.59,3.36s0,0,0,0c.04-.27.2-.43.46-.48h0c-.27.05-.42.21-.46.48Zm-3.31,4.04c-.14.16-.29.33-.43.49,0,0,0,0,0,0,.11-.2.28-.34.44-.49Zm-4.58-5.13s0,0,0,0c.13.17.26.34.4.51-.14-.17-.32-.31-.4-.52Zm-2.36.53c.16.14.31.29.44.46,0,0,0,0,0,0-.15-.15-.29-.31-.44-.46h0Zm-3.29-14.64s0,0,0,0c0,0,0,0,0,0,0,0,0,0,0,0Zm53.92,16.54s-.02,0-.02,0h0s0,0,0,0h0s.01.03.02.04c-.44-.16-.99-.08-1.28-.57.31.45,1.01.02,1.29.54Zm-17.51-50.84c.06-.04.13-.08.19-.12,0,.08-.07.13-.19.13,0,0,0,0,0-.01Zm-.02-.3c.11,0,.18,0,.19.03.01.03.01.05.02.07-.07-.03-.14-.06-.21-.09,0,0,0,0,0,0Zm3.31,21.13c.17.14.33.28.44.47,0,0-.01,0-.02-.01-.14-.15-.28-.3-.42-.46h0Zm-7.39-31.34s0,0,0,0c-.09-.12-.17-.23-.26-.35.1.11.2.22.27.35Zm2.69,4.24s0,0,0,0c-.01-.17-.08-.3-.19-.4.12.09.2.21.2.4Zm-12.32,45.53h0s0,0,0,0c0,0,0,0,0,0Zm4.53-10.23c.06-.04.12-.08.17-.13-.05.05-.11.09-.17.13h0Zm1.43-2.72s0,0,0,0c0,0,0,0,0,0,0,0,0,0,0,0Zm-5.54,8.78s0,0,0,0c-.03.04-.06.08-.1.12.03-.04.06-.08.1-.12Zm40.99,32.23s0,0,0,0c-.09.2-.26.35-.41.5h0c.14-.17.27-.33.41-.5Zm-4.63,4.11h0c-.06.25-.21.41-.48.43,0,0,0,0,0,0,.26-.03.42-.18.48-.43Zm1.36-96.59s0,0,0,0c0-.06-.01-.12-.03-.17.02.05.03.11.03.17Zm-.86-56.35c-.11.19-.26.33-.42.47h0s0,0,0,0c.14-.16.28-.32.42-.47,0,0,0,0,0,0Zm3.73-4.6s0,0,0,0h0s0,0,0,0Zm17.48-12.05h0s0,0,0,0c.13-.08.26-.16.4-.25-.12.09-.23.21-.39.25,0,0,0,0,0,0Zm.52-.33c-.25,0-.45.09-.56.33-.12,0-.22.04-.29.09-.02.02-.04.04-.07.06-.06.07-.1.17-.12.28-.36.17-.72.34-1.07.51l-.15-.03-.07.14c-.29-.02-.41.14-.47.39-.23.01-.46.03-.69.04-.2.01-.4.02-.59.01-.62-.03-.92.29-1.05.85-.15.02-.26.09-.34.18-.06.07-.1.15-.12.26-.38.03-.68.18-.88.52h0c-.25.03-.5.06-.74.08-.03,0-.05,0-.08,0-.2-.01-.36.06-.48.21-.03.03-.06.06-.08.11-.16.1-.33.14-.5.14-.14,0-.28-.03-.42-.1-.26-.4-.64-.46-1.07-.37-1.53-.22-2.65-1.08-3.67-2.18-3.16-3.41-4.81-7.61-6.23-11.92-.1-.31-.01-.78-.69-.85.03.46,0,.92.11,1.34.31,1.26.6,2.54,1.13,3.74.75,1.68,1.45,3.37,2.17,5.06.15.16.34.31.45.5.05.08.1.16.15.23.97,1.58,2.24,2.88,3.71,3.97.23.17.46.34.7.5h0c.12.03.25.07.37.1.6.15,1.2.3,1.79.45.29.07.37.18.37.31,0,.16-.16.34-.22.51-.1,0-.19.03-.26.07-.12.06-.21.17-.24.35-.02,0-.04.01-.06.02-.23.05-.37.18-.42.42-.03,0-.06.01-.09.02-.23.05-.36.18-.37.45-.03,0-.04.02-.07.03-.21.09-.3.27-.33.49,0,0-.02,0-.02,0-.09.01-.17.04-.25.07-.1.04-.18.11-.23.21-.01.02-.03.04-.04.07-.78-.22-1.17.24-1.54.72-.07.09-.14.18-.21.27,0,0,0,0,0,.01-.29,0-.44.16-.48.44-.02,0-.03,0-.05,0-.23.03-.41.13-.49.36-.02,0-.03,0-.04,0-.07,0-.14.01-.19.03-.28.08-.42.28-.5.52-.05.14-.08.29-.1.44,0,0,0,0,0,0-.11.02-.22.04-.34.06-.09.02-.19.03-.28.05-.06,0-.11.02-.17.03-.08.24-.24.39-.49.45-.02.07-.04.13-.06.2-.05.17-.1.34-.15.5h0c-.32.08-.6.24-.77.53-.01.02-.02.03-.03.05-.27,0-.42.12-.43.37,0,.04,0,.07,0,.11-.06.03-.1.07-.12.11-.02.04-.04.08-.03.13,0,.01,0,.02,0,.03,0,.02.02.05.03.07,0,.01,0,.03.02.04-.13.18-.25.35-.38.53,0,0,0,0,0,0-.24,0-.47.02-.66.12-.05.03-.1.07-.15.11-.02.02-.04.04-.06.06-.04.05-.07.1-.1.16-.02,0-.03.01-.05.02-.73.32-.79.31-1.04-.31-.12-.3-.19-.62-.27-.93,0-.04-.02-.07-.03-.11-.32-.24-.36-.59-.34-.95-.13-.09-.17-.21-.11-.35-.14-.32-.26-.64-.38-.96-.33-.96-.52-1.94-.55-2.97,0-.1,0-.19,0-.29-.08-.04-.15-.1-.22-.16,0,0,0,0,0,0-.02-.02-.05-.05-.07-.07h0c-.06-.4-.13-.8-.19-1.2,0-.41,0-.81,0-1.22,0-.02,0-.04,0-.06,0-.01,0-.03,0-.04,0,0,0,0,0,0-.02-.02-.03-.04-.05-.06-.04-.04-.07-.08-.1-.12-.05-.06-.1-.1-.14-.16,0,0,0,0,0,0-.35-2.94-.93-5.84-1.55-8.73-.03-.15-.06-.3-.1-.46-.08-.37-.12-.74-.17-1.12-.21-.76-.62-1.48-.5-2.32,0-.02,0-.03,0-.05-.01-.08-.03-.16-.04-.24-.03-.16-.06-.33-.08-.49-.34.07-.55.28-.53.62.02.61.05,1.22.15,1.82.62,3.6,1.26,7.2,1.89,10.8-.1.58.07,1.12.33,1.63h0s0,0,0,0c-.09.4-.01.77.14,1.14-.09.43.04.8.3,1.14,0,0,0,0,0,0,.04.23.08.46.12.69.19,1.89.9,3.61,1.76,5.28.33.65.86,1.27.49,2.1h0c-.18.14-.31.31-.4.5-.05.12-.09.24-.1.38-.24.08-.41.22-.43.49-.16.05-.26.13-.33.22-.03.06-.06.13-.1.19-.05.14-.07.3-.09.46-.07.02-.13.05-.19.08-.12.07-.19.19-.19.36,0,.03,0,.05,0,.08-.03.01-.05.03-.07.05-.06.04-.1.1-.1.17,0,.04,0,.09.02.14-.23.11-.35.28-.37.54-.09.03-.16.07-.22.12-.17.13-.24.32-.27.53-.01.07-.02.15-.03.22-.05.03-.1.07-.15.1-.18.15-.27.35-.3.57-.01.09-.02.18-.02.28-.12.17-.23.33-.35.5-.2.29-.37.6-.48.94-.04.12-.07.25-.08.38-.3.26-.37.62-.38,1-.51.34-.41.89-.45,1.39h0c-.29.23-.59.45-.53.89-.06.09-.1.18-.12.27-.21.5-.29,1.04-.29,1.59-.22.19-.35.4-.42.62-.03.09-.04.18-.06.27-.04.31,0,.64.03.96-.62.5-.52,1.18-.46,1.85-.05.09-.09.19-.13.28-.16.37-.29.75-.37,1.14-.12.56-.15,1.13-.03,1.73-.36.46-.45.96-.46,1.48,0,.3.03.6.06.9.04.45.13.89-.05,1.33-.1.06-.18.12-.24.19-.31.33-.27.79-.26,1.22,0,.07,0,.14,0,.2,0,.41.02.81.03,1.22.04,1.81.09,3.63.16,5.44,0,.15.13.31.23.46.03.04.05.08.07.12.04.12.09.24.15.36-.05.51-.17,1.03-.15,1.53,0,.18.04.37.09.54.07.21.17.41.34.61.04.04.07.08.11.12.12.79-.35,1.67.4,2.35-.08.58-.07,1.13.45,1.52l-.05.17.13.12c.11.75-.36,1.63.47,2.23l.05.05c.24.45-.2,1.06.31,1.45.05.25.03.53.08.78.01.06.03.11.05.16.06.16.18.3.39.41.04.28.16.51.41.66-.18.39-.18.78.02,1.17h0c-.06.68.04,1.31.5,1.85h0c.14.16.32.3.41.51,0,0,0,0-.01,0-.13-.17-.26-.33-.39-.5-.04.31.13.45.39.52.03.23.01.48.05.7.01.1.05.19.09.27.07.14.19.25.4.33h0c.06.4.15.78.27,1.15.15.44.33.86.56,1.27.16.28.33.56.52.83.03.14.06.29.09.44.08.48.17.96.57,1.28.07.05.14.1.23.15,0,.15.01.3.04.44.03.14.08.26.19.36.06.05.13.1.23.13.02.15.03.3.07.44.03.12.08.24.17.34.06.06.13.11.22.16,0,.27.14.44.38.53.18.55.11,1.17.48,1.65.02.03.05.07.08.1-.02.18,0,.35.05.5.02.04.04.09.07.14.07.12.16.23.29.33,0,.39.17.68.52.87,0,.24-.01.48.02.71.02.15.06.3.14.43.06.1.15.19.26.27,0,.15.01.3.05.43.03.13.08.24.16.35.05.07.12.13.21.18.03.31.24.48.5.6-.03-.31-.19-.52-.48-.62h0c.29.1.45.31.48.62l-.04.14.12.09c.02.59.04,1.18.06,1.77.01.38.07.73.37,1-.04.4.02.75.41.96.18,1.63.17,3.26.07,4.89,0,.05,0,.09,0,.14-.13.18-.37.36-.38.54-.01.86-.18,1.71-.13,2.57.01.2.03.4.07.6-.03,1.71-.03,3.42-.39,5.11-.09.43-.04.89-.06,1.33l-.09-.05c-.15.08-.26.17-.34.28-.11.16-.13.35-.08.57,0,.04.02.08.03.12-.04.13-.07.26-.08.39-.03.02-.04.04-.07.06-.28.24-.42.53-.31.92-.02.2-.03.4-.05.6,0,.09-.01.17-.02.26-.12.47-.24.95-.36,1.42l-.14.07.02.16h0c-.2.13-.31.29-.38.46-.05.12-.07.25-.09.39-.03.22-.03.45-.07.67-.24.11-.34.29-.3.57l-.12.08.04.14h0c-.27.15-.42.38-.39.7-.14.23-.41.47-.41.7.01.74-.33,1.35-.61,1.99-.08.04-.16.09-.22.15-.31.27-.38.65-.45,1.03-.04.24-.09.48-.19.7-.62.37-.11,1.18-.61,1.59-.1.08-.19.17-.27.27-.3.35-.46.75-.59,1.18-.12.38-.21.77-.34,1.15-.21.17-.37.37-.49.59-.06.16-.13.31-.21.46-.09.25-.17.5-.25.76-.18.13-.29.29-.35.46,0,.02-.01.04-.02.06-.09.28-.07.59-.06.9-.19.1-.3.23-.37.37-.05.11-.09.23-.1.35-.03.2-.02.42-.04.63-.1.04-.17.09-.24.15-.26.22-.31.53-.31.85,0,.1,0,.21,0,.31-.24.11-.36.3-.31.58h0c-.3.24-.45.54-.42.92-.04.11-.09.23-.13.34h0c-.06.01-.11.04-.17.06-.06.02-.13.04-.19.06.01.13.03.26.04.39,0,.05.01.1.02.16.05.48.05.96-.16,1.4-.05.11-.12.21-.2.32-.02.03-.05.06-.07.1,0,0,0,0,0,0h0c-.04.11-.07.23-.11.34-.02.06-.04.12-.05.18-.02.08-.05.15-.07.23,0,0-.02,0-.02,0-.01,0-.03,0-.04,0-.01,0-.02,0-.04,0-.09.01-.18.04-.26.07v.02c0,.17,0,.34,0,.51,0,.04,0,.09,0,.13,0,.25.01.5.02.76h0c-.09.04-.19.06-.29.08-.02,0-.04.01-.07.02,0,0,0,0-.01,0-.03.11-.06.23-.09.34-.14.54-.28,1.08-.42,1.63-.05.2-.11.41-.16.61-.01.01-.02.03-.03.04-.36.42-.27.94-.31,1.43-.02.22-.07.47-.33.45-.03,0-.06-.01-.1-.02-.17-.04-.36-.15-.44-.28-.44-.71-.86-1.45-1.28-2.18-.06-.1-.11-.19-.17-.29h0c-.32-.19-.5-.46-.58-.82-.26-.07-.37-.26-.38-.53-.25-.07-.38-.24-.44-.49-.27-.02-.45-.14-.51-.41-.27-.04-.43-.19-.44-.48-.39-.2-.44-.56-.43-.95-.23-.14-.41-.32-.55-.52-.12-.17-.21-.35-.28-.54-.08-.22-.14-.46-.19-.7-.26-.09-.36-.29-.34-.56-.11-.03-.22-.05-.34-.04-.01-.4-.11-.76-.51-.95-.02-.38-.04-.75-.44-.95-.06-.28-.25-.38-.5-.43-.13-.46-.07-.99-.52-1.32.02-.39,0-.76-.39-.97-.1-.61.08-1.31-.56-1.74v-.02c-.01-.38-.13-.7-.41-.96.07-.67.14-1.34-.39-1.88.05-.15.02-.29-.1-.4-.09-.81.22-1.67-.33-2.41h0c-.18-.58-.24-1.16-.14-1.77.06-.37.06-.75-.37-.94l-.1.06c-.22-1.2,0-2.4.01-3.6,0-.91.09-1.81-.42-2.63h0s0,0,0,0c.07-.09.06-.17-.03-.24h0c-.03-.32-.06-.64-.09-.96,0-.28.02-.56.03-.84.06-.53.09-1.06-.36-1.47h0c-.02-.12-.06-.25-.1-.37.08-.98.25-1.97-.35-2.86-.21-.62.19-1.37-.42-1.89h0c-.03-.43-.06-.86-.1-1.28-.03-.36-.11-.71-.5-.87-.08-.11-.18-.15-.31-.15-.12-.46-.13-.97-.52-1.32.02-.4-.09-.73-.52-.86h-.01c-.03-.28-.2-.41-.45-.45l-.02-.02c-.12-.17-.3-.3-.36-.51,0,0,0,0,0,0,0,0,0-.01,0-.02.12.17.24.35.36.52-.03-.24-.14-.43-.36-.54,0-.39-.16-.69-.52-.86-.01-.37.02-.76-.36-1-.02-.38-.12-.71-.47-.92-.02-.69-.7-.96-.96-1.5h0s.06-.16.06-.16l-.13-.11c.04-.43-.13-.78-.4-1.1,0,0,0,0,0,0l.05-.18-.15-.11c-.12-.17-.31-.29-.34-.52,0,0,.02.01.03.02.1.17.21.33.31.5.04-.27-.07-.44-.31-.54-.02-.6-.15-1.18-.34-1.74-.02-.18-.07-.35-.19-.51.06-.41-.12-.7-.42-.95.11-.59.15-1.25-.18-1.7-.46-.62-.11-1.31-.38-1.91,0-1.83,0-3.65,0-5.48,0-.38-.06-.76-.35-1.05-.02-.11-.02-.23,0-.34.6-1.38.43-2.81.32-4.24.34-3.15.95-6.25,1.71-9.32.6-2.43,1.36-4.82,2.04-7.23.04-.09.08-.17.12-.25.89-1.8,1.09-2.5,1.11-3.87-.78,1.09-1.41,2.06-1.63,3.25-.37.84-.74,1.67-1.1,2.51-1.49,3.5-2.72,7.09-3.58,10.8-.71.48-.46,1.2-.44,1.86-.16,1.22-.33,2.44-.49,3.67-.56.6-.61,1.23-.07,1.88.06.13.05.26-.04.37-.1.11-.29.21-.29.32-.04,1.51-.05,3.02-.06,4.52,0,.32.16.57.4.78.04.13.08.26.12.38,0,.34,0,.68,0,1.01-.06.12-.06.25-.02.38h0c.05.79-.13,1.62.44,2.3,0,0,0,0,0,0,.41.57-.32,1.39.42,1.89-.06.69-.01,1.36.43,1.94h0c-.09.14-.07.26.07.36-.07.4.05.72.36.97-.02.52.05,1,.52,1.34-.02.29.12.45.37.54.12.51,0,1.1.5,1.48h0s-.04.17-.04.17l.14.11c-.04.39.11.68.45.87l.02.03c0,.27.11.45.37.52.03.29.19.5.45.63h0s0,.18,0,.18l.16.08c-.03.28.14.39.38.44h0c.14.17.32.3.4.51,0,0,0,0-.02,0-.13-.16-.25-.33-.38-.49.02.26.13.45.39.52.15.44,0,1,.54,1.27l.04.04c.08.19.29.31.32.53,0,0,0,0-.01,0,0,0,0,.01,0,.02-.04.31.14.46.41.53.37.5-.02,1.28.61,1.69v.02c0,.38.09.72.44.94.02.86.04,1.73.04,2.59,0,.29.07.54.3.72-.08.11-.07.21.02.3-.27.28-.29.64-.3,1.01-.03,1.05-.08,2.1-.12,3.15-.66.52-.61,1.19-.39,1.89l-.13.11.06.16c-.34.3-.34.71-.37,1.12v.02c-.68.45-.49,1.15-.54,1.78-.37.57-.33,1.24-.4,1.88h0c-.43.37-.24.94-.47,1.37-.38.2-.44.57-.45.94-.02.44-.02.89-.03,1.33-.31.24-.45.55-.46.95,0,.17-.02.33-.04.5-.02.26-.05.52-.08.77-.25.1-.39.27-.33.56-.2.19-.22.45-.23.7-.07.23-.15.46-.23.69-.45.16-.45.55-.45.93h0c-.57.5-.34,1.21-.49,1.82-.24.06-.45.16-.51.43-.07.02-.12.05-.17.08-.2.12-.26.32-.26.53,0,.11,0,.23,0,.34-.36.23-.34.62-.4.97l.03.03s0,0,0,0c0,0-.02-.02-.03-.03-.05.02-.09.05-.13.08-.28.19-.36.45-.37.74,0,.17.02.35.04.53l-.14.1.04.16h0c-.26.13-.4.36-.44.64-.1.02-.18.05-.25.1-.11.08-.17.2-.13.39h0l-.14.13.05.18c-.05.25-.23.42-.35.62l-.04.04c-.4.15-.55.44-.46.86-.06.04-.09.1-.11.15-.03.07-.03.15,0,.24-.08.03-.14.07-.19.11-.11.1-.18.23-.19.4-.26.05-.43.18-.39.48l-.15.09.04.17s0,0,0,0c-.25.16-.33.4-.35.67,0,0,0,0,0,.01l-.02.03s-.02.02-.04.02c-.23.12-.37.28-.44.5-.03.1-.05.2-.04.32-.41.4-.85.77-.91,1.39-.2.17-.4.32-.58.5-.13.13-.25.28-.32.46-.05.1-.08.21-.1.34-.25.09-.37.27-.38.54-.27.06-.39.23-.39.5l-.02.03c-.37.16-.43.51-.52.84-.18.02-.32.07-.45.13-.13.07-.23.16-.3.28-.09.14-.15.3-.17.51-.3.1-.66.11-.78.49l-.17.05v.18s-.01,0-.01,0c-.14.22-.29.44-.43.65-.27.02-.45.15-.51.42-.27.07-.39.26-.39.53-.36.17-.49.49-.53.85-.23.07-.39.22-.47.45-.1,0-.2.03-.28.05-.48.14-.76.49-.97.92-.06.12-.11.24-.16.36-.18.1-.36.21-.52.33-.26.19-.48.41-.64.68-.07.12-.14.26-.19.4-.25.08-.39.25-.42.51-.07.02-.12.05-.18.08-.22.13-.31.35-.36.59,0,.05-.02.1-.02.16-.07.02-.15.03-.22.05-.22.05-.43.13-.56.33-.03.04-.05.08-.07.13-.28.06-.38.26-.42.52-.27.05-.42.2-.44.48-.26.06-.4.22-.41.49l-.02.02c-.36.13-.49.44-.61.77-.09.01-.16.04-.23.06-.31.11-.52.32-.61.64-.02.08-.04.15-.05.24-.25.09-.34.3-.38.54-.27.05-.44.19-.41.49v.03c-.32.22-.55.47-.49.88-.23.21-.24.43-.05.67,0,0,0,0,0,0,0,0,0,0,0,0-.12.25-.23.49-.35.73l-.03.04-.87.3c0-.15-.02-.3-.06-.43-.03-.13-.09-.24-.19-.34-.05-.05-.1-.09-.17-.13,0-.09-.01-.18-.03-.26-.03-.19-.1-.35-.24-.48-.06-.06-.14-.11-.24-.15-.03-.37-.13-.71-.49-.9,0-.38-.2-.66-.52-.87h0c.02-.3-.11-.47-.38-.53-.07-.3-.16-.59-.26-.88-.17-.46-.39-.91-.63-1.34-.18-.32-.36-.63-.56-.93h0c0-.26-.09-.47-.32-.58,0-.08,0-.16-.02-.24-.03-.2-.1-.38-.26-.51-.06-.05-.14-.09-.23-.12-.11-.46.03-1.02-.57-1.26l-.04-.04c-.11-.18-.23-.35-.36-.51,0-.51.01-1.03-.45-1.39.02-.3-.15-.44-.4-.52-.14-.56-.34-1.1-.24-1.71.02-.12-.1-.25-.2-.39-.03-.04-.06-.09-.09-.13.04-.15.01-.29-.09-.41.02-.07.02-.13.02-.2,0-.28-.11-.51-.28-.74-.02-.03-.04-.06-.06-.09-.04-.15-.09-.29-.13-.44.04-.13.04-.26,0-.39.05-.14.06-.26.06-.39,0-.41-.24-.78-.38-1.17-.04-.74.04-1.51-.51-2.12-.01-.01-.02-.02-.03-.04-.14-.19-.28-.39-.42-.58.09-.14.06-.26-.08-.34,0-.31.02-.61.03-.92.35-.32.39-.63-.06-.91.06-.43.12-.86.19-1.29.52-.13.85-.43.83-1.02.13-.18.27-.36.4-.54.39-.15.53-.45.48-.85.98-1.63,1.68-3.38,2.25-5.19.39-1.22,1.14-2.28,1.62-3.48.56-1.4,1.2-2.77,1.71-4.2.28-.17.4-.42.4-.74,0-.52.03-1.04.05-1.56.34-.72.5-1.48.5-2.27h0c.1-.1.3-.19.3-.3.03-1.1.04-2.19.03-3.29,0-.09-.21-.18-.32-.27-.14-2.37-.53-4.68-1.32-6.92-.08-.21-.05-.49-.17-.66-.62-.86-.96-1.82-1.32-2.82-.32-.9-.65-1.97-1.25-2.65-.93-1.06-1.4-2.3-1.99-3.5-.61-1.24-1.14-2.53-1.9-3.66-.77-1.16-.89-2.61-1.8-3.68-.05-.63.19-1.35-.54-1.77-.3-.62-.61-1.23-.91-1.85-.17-.63.31-1.38-.36-1.91-.07-.12-.11-.24-.12-.38.16-.55.08-1.05-.35-1.46-.2-.74-.4-1.48-.6-2.22.11-.83.27-1.66-.37-2.36-.03-.13-.05-.26-.06-.4,0-1.76.01-3.52.02-5.27,0-.33-.17-.58-.42-.78-.19-.61-.07-1.21.04-1.82.43-.27.44-.71.44-1.13,0-.57-.05-1.14-.08-1.71.62-.84.36-1.88.64-2.81.12-.41.19-.86.36-1.26.63-.87.54-1.83.4-2.81.05-.12.08-.24.12-.37,0,0,0,0,0,0,.28-.1.38-.29.3-.57.07-.11.12-.23.16-.36.46-.22.47-.59.34-1.01.04-.13.08-.25.12-.38.39-.21.52-.53.42-.96.13-.83.35-1.62.67-2.41.33-.83.77-1.61.89-2.57.11-.85.81-1.61,1.19-2.44.41-.9.77-1.83.93-2.83.16-1.05.52-1.95,1.21-2.86.89-1.18,1.4-2.67,1.95-4.08.22-.57.51-1.05.81-1.56,1-1.71,2.05-3.38,3.12-5.05.86-1.35,1.82-2.6,2.82-3.83.95-1.17,1.95-2.29,2.99-3.39,1.46-1.56,3.13-2.94,4.35-4.72.59-.86,1.57-1.2,2.32-1.85,1.32-1.14,2.68-2.23,3.93-3.44.37-.02.75-.02.89-.47l.02-.02c.45-.15.62-.59.91-.9h.02c.39,0,.7-.12.93-.45h0c.16-.15.3-.32.52-.4,0,0,0,0,0,.01-.17.13-.34.26-.51.39.3.03.47-.11.54-.38.27-.06.39-.25.41-.51.24-.05.41-.19.5-.42.13,0,.26-.02.38-.04.16-.04.31-.1.43-.22.05-.05.1-.1.14-.17.08,0,.15-.02.22-.05.2-.07.34-.2.44-.37.1-.16.17-.35.23-.55.48-.06.98-.08,1.31-.53h.02c.27.02.48-.07.59-.33.12-.04.23-.08.34-.13.22-.11.41-.25.58-.42.14-.14.26-.29.36-.48.25-.02.46-.1.56-.35.35-.06.66-.22.88-.51.15,0,.29-.03.42-.08.05-.02.1-.05.15-.07.13-.08.25-.18.36-.31.12,0,.23,0,.33-.03.15-.03.29-.1.4-.21.07-.07.12-.15.17-.24.28-.01.43-.17.49-.43.34-.08.67-.18.9-.48.17,0,.32-.02.46-.07.11-.04.22-.09.31-.17.06-.05.12-.12.18-.19.06,0,.11,0,.15-.02.13-.04.22-.12.27-.24.03-.06.05-.12.06-.19.24-.06.4-.21.46-.45.5-.13,1.06-.11,1.46-.52l.18.04.11-.15c.28.04.45-.08.54-.34.74-.33,1.49-.65,2.23-.98.33.05.45-.14.52-.4.45-.15.98-.1,1.32-.53.22,0,.45.04.66.03.21,0,.4-.05.56-.2.07-.06.14-.14.19-.25.28-.03.43-.19.48-.46.56-.33,1.33.13,1.81-.49.38.02.76.01,1.01-.35.45-.09.91-.17,1.36-.27.72-.15,1.43-.32,2.13-.55.51-.17,1.02-.38,1.5-.64.42-.03.77-.06,1.08-.1.63-.08,1.07-.2,1.5-.39.22-.1.44-.22.68-.37.38-.09.78-.05,1.18-.07.21,0,.41-.03.61-.09.18-.06.36-.15.53-.29.42-.05.8-.19,1.1-.51l.13.05.09-.1c.42.08.76-.02.95-.44.64-.1,1.34.01,1.88-.47.15.1.29.07.4-.07.39.06.73,0,.98-.33.05,0,.21.03.21.03l.21-.1c.11,0,.23,0,.34,0,.67.01,1.35.07,1.92-.42.02-.01.03-.02.05-.04.33-.08.66-.13.99-.18.35-.05.7-.11,1.04-.2.42-.11.83-.26,1.21-.53.93-.11,1.91.12,2.76-.47.2.03.39.04.56,0,.05-.02.09-.04.14-.06.11-.07.2-.17.27-.33.38-.22.87-.05,1.28-.13.02,0,.03,0,.05,0,.18-.04.35-.14.49-.34.41,0,.75-.16,1.02-.47l.18.06.14-.13c.42.09.7-.13.92-.45h0c.28.03.45-.11.54-.36.14,0,.28,0,.42.01.29,0,.56-.02.77-.24.06-.07.12-.15.17-.26.68-.19,1.44-.02,2.06-.49.24.16.46.11.66-.07.4.07.78.05,1.13-.04.17-.04.33-.1.5-.16.41-.16.8-.38,1.19-.59.13.04.26.07.39.07.11,0,.22-.02.33-.07.05-.02.1-.05.15-.08.28-.03.58,0,.88.01.29.02.57.02.84-.06.22-.06.42-.17.61-.38.15.04.29.06.44.07.82.09,1.65-.07,2.47-.08.36,0,.72.02,1.07.12,0,.06,0,.11,0,.15.03.07.08.12.17.16.05.65.56.4.9.47.03-.09.05-.17.07-.26,0,0,0-.01,0-.02,0-.03.02-.06.02-.1,0,0,0,0,0,0,.15.08.27.05.35-.1.77-.21,1.53-.19,2.3.03h0c.28.21.5.34.71.43.28.11.53.11.85,0,.22-.08.47-.2.78-.38,0,0,0,0,0,0,0,0,.05,0,.1.02.06,0,.12.02.12.02l.14-.04.07-.02.09.1.12-.05s0,0,0,0c.15.19.32.3.5.37.23.09.48.11.73.11.26,0,.53-.01.78.02.1.24.28.36.55.33-.17-.11-.34-.22-.51-.33,0,0,0-.01-.01-.02.22.05.35.24.53.36l-.06.11c.21.12.42.23.63.32.67.28,1.39.43,2.11.57h.02s.09-.07.09-.07c.11.23.23.47.34.7-.25.17-.33.43-.36.71h-.01c-.17.13-.3.31-.5.39,0,0,0,0,0,0,0,0-.01,0-.02,0l-.37.06c-.12.02-.23.04-.35.06-.02,0-.04,0-.06,0,0,0,0,0,0,0-.05.25-.2.42-.45.48-.04.11-.07.23-.11.34l-.03.1c-.03.09-.06.18-.08.27,0,0,0,0,0,0-.09.02-.17.05-.24.1-.08.05-.14.12-.16.22-.01.06-.02.12,0,.19-.01,0-.02.02-.03.03-.26.24-.37.55-.42.89,0,0,0,0,0,0-.28.06-.39.25-.38.53h0s-.01.01-.02.02c-.3.22-.45.51-.47.87,0,0,0,0,0,.01-.4.18-.5.51-.47.91h0c-.34.22-.4.58-.44.94h0c-.09.02-.18.04-.27.05-.01,0-.02,0-.04,0-.02,0-.05,0-.07.01,0,.07,0,.14-.01.22,0,.04,0,.08,0,.12-.05.76-.09,1.53-.14,2.29,0,.01,0,.03,0,.04-.05,0-.11,0-.16,0-.04,0-.09.01-.13.02-.03,0-.06,0-.08.02,0,.1,0,.2,0,.3,0,.11,0,.22,0,.33l.03,1.69s0,.02,0,.04c.01.43.03.85.04,1.28,0,.05-.01.1-.02.14-.02.23.01.45.17.61.06.06.14.12.24.17.02.53.07,1.06.06,1.59,0,.25-.23.33-.45.39-.01.13-.05.25-.1.37,0,0,0,0,0,0-1.05.03-2.11.06-3.16.09-.04,0-.08,0-.12-.01-.42-.04-.84-.12-1.25-.14-.04,0-.09,0-.13,0-.3,0-.59.05-.88.17,0,0-.02,0-.03.01-.16.07-.31.16-.46.29,0,0,0,0,0,0-.39.16-.78.28-1.21.19-.04,0-.07,0-.11,0-.19-.01-.36.04-.51.15-.02.01-.03.03-.05.04-.03.02-.06.05-.09.08l-.14-.05h-.03s-.02.01-.02.01l-.05.06-.05.05c-.08-.01-.16-.02-.24-.03-.17,0-.33.02-.46.11-.1.07-.18.19-.24.36,0,0,0,0-.01,0-.67.01-1.34.03-2,.04-.09,0-.19,0-.28,0-.15,0-.3,0-.44,0,0,.04-.02.07-.03.11-.02.08-.04.16-.06.24-.64.03-1.3-.04-1.79.51-.14-.01-.29-.03-.43-.02-.18,0-.35.05-.48.2-.04.04-.07.09-.1.16-.26.03-.52.07-.79.1-.14-.19-.3-.29-.48-.34,0,0-.01,0-.02,0-.1-.02-.2-.04-.3-.06-.33-.03-.68,0-.98-.14-.03-.05-.06-.08-.1-.12-.37-.43-.87-.36-1.38-.23-.15,0-.31,0-.46,0-.36-.06-.68-.04-.95.12-.14.09-.27.21-.38.38l-.04.02Zm39.24,1.68c-.31-.54-.9-.34-1.36-.48-.2-.42-.59-.39-.97-.4-.44-.72-1.23-.62-1.9-.83l-.16-.12-.19.08s0,0,0,0c-.32-.2-.61-.45-1.02-.43-.35-.47-.85-.5-1.38-.47-.48-.65-1.21-.39-1.84-.49-1.03-.61-2.15-.4-3.25-.38-.14-.03-.28-.06-.42-.09-.4-.32-.87-.47-1.38-.46-.18-.36-.37-.32-.56-.02-.1-.07-.2-.08-.31-.05-.08-.34-.25-.61-.5-.84.01.02.03.03.03.04,0,.07-.02.13-.04.19-.04-.08-.08-.15-.12-.23.02-.03.04-.05.06-.08.16-1.09.11-2.15-.43-3.14-.14-.83-.04-1.71-.43-2.49.28-.34.42-.73.37-1.17.19-.27.17-.57.1-.87.44-.38.45-.89.41-1.42-.02-.02-.04-.04-.06-.05,0,0,0,0,0,0l.06.06c.37-.16.52-.46.56-.83.25-.1.36-.3.35-.57h0c.29-.33.59-.65.88-.97,0,0-.01-.01-.02-.02,0,0,0,0,0,0l.02.02c.27-.01.45-.14.48-.42h.01c.57-.25.44-.82.61-1.25.79-.25,1.23-.89,1.7-1.5h0c.29,0,.45-.15.48-.43.25-.04.43-.16.53-.39.25,0,.5.01.75.02.09.24.26.37.51.39.06.25.22.4.47.45.03.26.16.44.43.49.05.27.25.39.5.43.04.27.19.43.48.43h0s0,0,0,0c.3.53.68.95,1.34.97.14.16.28.31.43.47-.01.28.13.45.38.54.06.57.38.87.94.92,0,.13.04.25.11.36-.07.71.43,1.04.92,1.37h0c-.12.47.11.72.52.86.09.1.2.14.33.13.12.5.35.88.92.94.16.19.32.38.49.58h0s-.02.17-.02.17l.15.08c-.02.26.09.43.34.51.06.48.03.99.54,1.29l.02.03c.04.36,0,.75.42.94,0,.31.18.44.47.45h0c.15.16.31.3.44.47h0c0,.42.03.84.42,1.11l-.03.17.15.09c.08.48-.08,1.03.38,1.4.08.25.17.5.25.75.01.23.03.46.21.63-.06.53.04.99.5,1.33v.02c.08.49-.1,1.05.41,1.42.07.5-.18,1.08.39,1.43-.02.14.01.27.1.39-.05.54-.21.99-.89.9h0c-.03-.31-.19-.46-.5-.42h0c-.11-.07-.24-.1-.37-.09-.05-.26-.17-.44-.45-.49-.2-.39-.53-.5-.95-.42-.33-.12-.66-.24-.99-.36l-.02-.02c-.12-.4-.44-.53-.8-.6Zm-16.18-10.75h0s0,0,0,0Zm11.83-5.62c0-.08-.02-.15-.05-.22.03.06.05.13.05.22,0,0,0,0,0,0Zm3.74,4.59s0,0,0,0c.28.09.43.29.47.59-.04-.3-.19-.5-.47-.59Zm-7.34-7.91s0,0,0,0l-.45-.44s0,0,0,0c0,0,0,0,0,0,.18.11.33.26.45.43,0,0,0,0,0,0Zm-4.64-1.15s0-.01,0-.02c0,0,0-.01,0-.02,0,0,0,0,0,0v.05s0,0,0,0c0,0,0,0,0,0Zm-63.53,10.82h0c.15-.16.29-.33.5-.42,0,0,0,0,0,.02-.16.13-.33.27-.49.4Zm42.74,8.63s0,0,0,0c-.02.05-.05.09-.07.12.02-.04.04-.08.07-.12Zm40.72,2.83s0,0,0,0c-.06-.03-.1-.07-.14-.11.05.04.09.08.14.11Zm-6.91-15.68h0s-.09-.06-.13-.09c.04.03.08.06.13.09Zm-7.43-7.32s0,0,0,0h0c-.15-.15-.33-.29-.41-.49,0,0,0,0,0,0,0,0,0,0,0,0,.14.17.27.33.41.5Zm-132.39,169.23s0,0,0,0c0-.1-.03-.19-.08-.26.05.07.08.16.08.26Zm-8.21,14.63s0,0,0,0c-.12.18-.27.33-.45.46,0,0,0,0,0,0l.45-.46Zm-5.14,4.54s0,0,0,0c-.02.11-.08.19-.16.25.05-.08.1-.17.15-.25Zm-26.54-4.62s0,0,0,0c-.07,0-.14-.02-.19-.05.06.03.12.04.19.05Zm-8.82-9.61h0c-.19-.11-.34-.27-.47-.44,0,0,0,0,0,0,0,0,0,0,0,0,.16.15.31.29.47.44Zm-1.77-2.37h0c0,.07.02.14.04.2-.03-.06-.04-.12-.04-.2Zm-5.06-9.22s0,0,0,0c0,.07.01.14.03.2-.03-.06-.04-.13-.03-.2Zm-.48-1.37s0,0,0,0c-.31-.07-.45-.28-.49-.58.04.3.2.5.49.58Zm-2.33-6.42h0c-.06-.03-.11-.07-.15-.11.05.04.1.07.15.11Zm-1.99,25.5s0,0,0,0c0,0,0,0,0,0-.05-.26-.21-.41-.46-.46,0,0,0,0,0,0,.27.04.42.19.47.46.26.04.41.2.47.45,0,0,0,0,0,0-.06-.25-.21-.4-.46-.45Zm.98.88s0,0,0,0h0s0,0,0,0c0,0,0,0,0,0,.19.1.34.26.46.44,0,0,0,0,0,0,0,0,0,0,0,0-.15-.14-.3-.29-.45-.43Zm.85.96s0,0,0,0c0,0,0,0,0,0,0-.06-.02-.12-.04-.17.02.05.03.11.04.17.27.05.44.19.45.48,0,0,0,0,0,0-.03-.27-.18-.43-.44-.48Zm1.4,1.4s0,0,0,0c.08,0,.16.02.22.06-.06-.03-.14-.05-.22-.06Zm2.81,2.72s0,0,0-.01c.21.09.35.25.48.43,0,0,0,0,0,0-.16-.14-.32-.28-.47-.41Zm9.62,10.16h0s0,0,0,0c0-.07-.02-.13-.05-.18.03.05.04.11.05.18.17.03.29.1.37.22-.09-.12-.21-.19-.37-.22Zm16.59,30.87s0,0,0,0c-.03-.15-.09-.26-.19-.34.1.08.17.19.19.34Zm4.23,5.92s0,0,0,0c.17.14.33.29.43.49,0,0,0,0,0,0-.14-.16-.28-.33-.42-.49Zm6.37,6.99s0,0,0,0c-.02-.12-.06-.22-.12-.3.07.08.11.18.13.3Zm45.12,45.75c.05-.07.12-.13.22-.16,0,0,0,0,0,0-.07.05-.14.1-.22.16Zm3.28-7.44s.08-.08.14-.12h0s-.09.08-.14.12Zm46.08-20.79s0,0,0,0c.08,0,.15.02.21.05-.06-.03-.13-.04-.21-.05Zm.66-36.89s0,0,0,0c0-.08.03-.15.06-.21-.03.06-.05.13-.06.21Zm-2.37-52.7s0,.01.01.02c-.21-.08-.36-.25-.49-.42h0c.16.13.32.27.48.4Zm-5.24-8.87c.04-.09.09-.17.16-.25h0c-.06.09-.11.17-.16.25Zm4.35-14.54s0,0,0,0h0s-.01,0-.02.01c.1-.19.25-.34.44-.46h0c-.14.15-.29.3-.43.45Zm4.13-58.59h0c-.06-.03-.11-.08-.15-.12.05.04.1.08.15.12Zm-.9-1.86h0c-.06-.03-.12-.07-.16-.12.05.04.11.08.16.12Zm-3.39-32.47c.05-.05.1-.1.17-.13h0c-.06.04-.11.09-.17.13Zm9.35-17.68s0,0,0,0c.12-.18.27-.33.43-.47,0,0,0,0,0,0,0,0,0,0,0,0-.14.16-.29.32-.43.47Zm12.3-7.7c.06-.03.14-.05.23-.04,0,0,0,0,0,0-.08,0-.16.02-.22.04Zm36.95-5.14s0,0,0,0c.04.02.07.04.09.07-.03-.02-.06-.04-.09-.06Zm3.21,1.36h0c-.05-.06-.09-.12-.14-.17.06.04.11.1.14.17Zm7.4,4.13s0,0,0,0c.09.05.17.12.25.18-.09-.06-.17-.12-.26-.18Z"/><path class="cls-1" d="m283.21,275.18c.13.21.26.42.39.62-.01-.28-.14-.49-.39-.62Z"/><path class="cls-1" d="m277.31,217.72c-.05.03-.11.07-.16.1.05-.02.11-.05.16-.1Z"/><path class="cls-1" d="m264.68,322.85s0,0,0,.01c.16.13.33.27.49.4-.15-.15-.29-.33-.5-.42Z"/><path class="cls-1" d="m265.18,323.27s0,0,0,0c.14.16.29.32.43.48,0,0,0,0,0,0-.12-.18-.28-.32-.43-.47Z"/><path class="cls-1" d="m166.64,367.36c.06.31.25.48.55.53-.3-.05-.49-.23-.55-.53Z"/><path class="cls-1" d="m251.23,315.3c0,.07,0,.13-.02.19.02-.05.03-.12.02-.19,0,0,0,0,0,0Z"/><path class="cls-1" d="m308.06,194.27c.1-.06.2-.11.31-.17-.1.04-.21.09-.31.17Z"/><path class="cls-1" d="m252.39,312.09s-.05.07-.07.11c.03,0,.05-.04.07-.11Z"/><path class="cls-1" d="m225.03,349.17c-.12-.19-.24-.38-.37-.57.02.25.05.51.37.57Z"/><path class="cls-1" d="m274.72,358.55c1.18.25,2.28.67,3.42,1.01.21.06.45.03.68.07.74.11,1.32-.31,1.94-.56.66-.26.32-.95.53-1.4.13-.27.33-.51.49-.76-.03-.09-.07-.17-.11-.25-.79-1.89-1.88-3.55-3.54-4.83-1.02-.79-2.03-1.61-2.91-2.55-1.74-1.87-4.11-2.81-6.1-4.3-.23-.17-.58-.16-.87-.27-1.66-.6-3.36-.8-5.08-.77-.41,0-.82.02-1.23.05l.06.09c-.35-.04-.5.1-.41.46-.04.11-.05.23-.02.34-.11.54-.19,1.07.32,1.48.65,1.55,1.75,2.82,2.59,4.25.67,1.16,1.6,2.02,2.54,2.88,1.12,1.02,2.34,1.91,3.51,2.86.36.29.68.63,1.08.83,1.01.51,2.01,1.15,3.1,1.38Z"/><path class="cls-1" d="m253.57,402.34c-.97-2.07-2.24-3.98-3.56-5.84-1.09-1.54-1.93-3.26-3.19-4.68-1.34-1.5-2.74-2.94-4.16-4.37-1.42-1.43-3.05-2.63-4.66-3.82-3.4-2.52-6.88-4.97-10.77-6.75-1.52-.7-2.99-1.54-4.55-2.13-2.18-.82-4.44-1.45-6.78-1.62-.47-.03-.91-.09-1.33-.3-1.47-.75-3.08-.7-4.67-.76-.31-.41-.75-.45-1.21-.46-1.58-.05-3.15-.1-4.73.07-.39.04-.74.11-1.01.41-.75.3-1.55-.09-2.26.11-1.96.55-3.97.86-5.92,1.38-3.46.93-6.75,2.27-9.01,5.31-.18.24-.51.36-.7.59-.39.46-.81.56-1.41.47-1.36-.2-2.7-.09-4.05.31-.7.21-1.02.4-1.15,1.12-.11.63-.27,1.17.33,1.65.23.18.48.46.52.73.16,1.17.84,2.12,1.3,3.16.84,1.88,1.78,3.7,3.18,5.27.61.69,1.56,1.04,1.93,1.92.41.96,1.2,1.58,1.95,2.22,2.19,1.87,4,4.16,6.36,5.85.86,1.57,2.54,2.12,3.9,3.03,1.05.7,2.11,1.55,3.48,1.63,2.23,1.21,4.54,2.16,7.13,2.21.15,0,.32.04.44.12,1.67,1.09,3.59,1.06,5.46,1.23.85.82,1.87.38,2.83.37h0c.6,0,1.19,0,1.79,0h0c.18,0,.35-.01.53-.02.13.03.26.06.39.09h0c1.4.8,2.93.28,4.4.43.57.06,1.22.18,1.68-.39l.18-.04.18.02c1.32,1,2.8,0,4.17.34.38.09.75.03.99-.34l.19-.07.2.03h0c.78.64,1.56.47,2.35.01.12-.04.24-.07.36-.12.52.02,1.09.28,1.5-.29.28,0,.57-.02.85-.03.2.33.37.31.5-.05h0c.6-.25,1.38.36,1.87-.4l.03-.02c.45-.03.9-.07,1.35-.1.11,0,.22-.02.32-.06.68.05,1.38.25,1.95-.34.13-.05.26-.08.4-.07.56.2,1.06.13,1.47-.34,1.02-.33,2.02-.73,3.06-.97,1.09-.26,1.99-1.12,3.2-.95.73-.64,1.73-.56,2.55-.93,1.52-.69,1.73-1.86.56-3.04-.26-.26-.56-.43-.74-.8Zm-2.31,1.47c-.17.83-1.13.56-1.71.83-1.17.53-2.55.46-3.69,1.16-.66.03-1.37-.27-1.91.37-.13.04-.27.07-.4.08-.69-.15-1.35-.18-1.87.43-.64.22-1.3.38-1.9.67-.44.2-.85.24-1.31.21-.45-.03-.96-.14-1.34.02-1.22.53-2.51.3-3.76.46-2.28.03-4.56.04-6.84.09-.19,0-.38.21-.57.33l-.18.03h-.19c-.33-.4-.78-.44-1.24-.46-1.6-.08-3.2-.12-4.79.05-2.63-.13-5.26-.27-7.82-.94-.08-.06-.15-.1-.23-.14-.92-.51-1.95-.37-2.95-.37l-3.72-1.35c-.19-.46-.55-.51-.98-.39-.13-.03-.26-.07-.38-.11-.21-.39-.53-.53-.96-.4-1.36-.68-2.78-1.28-4.06-2.08-1.28-.79-2.48-1.73-3.61-2.73-1.02-.9-1.94-1.94-2.83-2.97-1.09-1.27-2.37-2.36-3.55-3.53-1.59-1.57-2.86-3.34-4.18-5.11-.81-1.08-1.31-2.15-1.58-3.41.41.08.76.03.93-.43,1.61-.66,2.72-1.95,3.8-3.2.91-1.05,1.94-1.93,2.97-2.81,1.23-1.06,2.88-1.32,4.41-1.71,2.56-.66,5.15-1.22,7.75-1.72,1.03-.2,2.1-.4,3.17-.25h0c.26.14.52.4.79.41,1.6.03,3.2,0,4.8,0,0,0,0,0,0,0h0c1.69.23,3.41.37,5.03.96.67.73,1.51.49,2.33.44h0c.7.3,1.37.75,2.1.88,3.09.55,5.62,2.19,8.15,3.89.38.25.9.37,1.15.7.58.76,1.73.28,2.3,1.28.4.7,1.43,1.05,2.17,1.56.75.52,1.49,1.05,2.23,1.58.74.53,1.53,1,2.22,1.59.86.74,1.55,1.72,2.47,2.36,2.12,1.45,3.38,3.66,4.98,5.55,1.21,1.43,1.89,3.29,2.81,4.96.33.6.67,1.2,1,1.8.29.53,1.15.77,1.01,1.44Z"/><path class="cls-1" d="m220.08,383.76c-.08-.85.2-1.77-.45-2.52-.2-.49-.35-1.01-.6-1.47-.84-1.57-2.43-1.6-3.66-.26-.64.69-.9,1.53-1.4,2.27-1.68,2.51-2.69,5.25-2.76,8.3-.58.53-.44,1.25-.42,1.9.06,1.84-.29,3.71.4,5.5.58.65.25,1.53.56,2.25-.06.97-.3,1.96.38,2.83.24.47.72.9.58,1.46-.28,1.11.38,1.49,1.23,1.82.81.31.99.25,1.38-.63,1.17-2.6,1.56-5.39,2.05-8.16.21-1.2.44-2.38.8-3.55.47-1.51,1.06-2.99,1.08-4.61,0-.36.21-.72.32-1.07.61-.53.39-1.23.38-1.89.06-.14.07-.28.01-.42.04-.58.16-1.17.11-1.73Z"/></svg>