<?xml version="1.0" encoding="UTF-8"?><svg id="Daggers" xmlns="http://www.w3.org/2000/svg" viewBox="0 0 480 640"><defs><style>.cls-1{fill:#f58120;}</style></defs><path class="cls-1" d="m261.83,261.97c-.15-.15-.31-.31-.46-.46.16.15.3.32.46.46Z"/><path class="cls-1" d="m265.98,267.04c-.15-.15-.31-.31-.46-.46.14.17.31.31.46.46Z"/><path class="cls-1" d="m267.36,267.97c-.15-.15-.31-.31-.46-.46.14.17.31.31.46.46Z"/><path class="cls-1" d="m264.6,266.12c-.15-.15-.31-.31-.46-.46.16.15.3.32.46.46Z"/><path class="cls-1" d="m266.44,267.51c-.15-.15-.31-.31-.46-.46.14.16.31.3.46.46Z"/><path class="cls-1" d="m264.14,265.2c-.15-.15-.31-.31-.46-.46.15.15.29.32.46.46Z"/><path class="cls-1" d="m262.76,263.36c-.15-.15-.31-.31-.46-.46.16.15.3.32.46.46Z"/><path class="cls-1" d="m262.3,262.44c-.15-.15-.31-.31-.46-.46.15.15.29.32.46.46Z"/><path class="cls-1" d="m263.22,263.82c-.15-.15-.31-.31-.46-.46.15.15.29.32.46.46Z"/><path class="cls-1" d="m263.68,264.74c-.15-.15-.31-.31-.46-.46.16.15.3.32.46.46Z"/><path class="cls-1" d="m267.83,268.43c-.15-.15-.31-.31-.46-.46.14.16.31.3.46.46Z"/><path class="cls-1" d="m265.06,266.58c-.15-.15-.31-.31-.46-.46.14.16.31.3.46.46Z"/><path class="cls-1" d="m277.5,276.26c-.15-.15-.31-.31-.46-.46.17.14.29.33.46.46Z"/><path class="cls-1" d="m277.96,277.18c-.15-.15-.31-.31-.46-.46.17.14.29.33.46.46Z"/><path class="cls-1" d="m275.2,306.22c.15-.15.31-.31.46-.46-.17.13-.3.32-.46.46Z"/><path class="cls-1" d="m275.66,305.3c.15-.15.31-.31.46-.46-.17.13-.3.32-.46.46Z"/><path class="cls-1" d="m277.04,275.34c-.15-.15-.31-.31-.46-.46.17.14.29.33.46.46Z"/><path class="cls-1" d="m268.75,268.89c-.15-.15-.31-.31-.46-.46.14.17.31.31.46.46Z"/><path class="cls-1" d="m269.21,269.35c-.15-.15-.31-.31-.46-.46.14.16.31.3.46.46Z"/><path class="cls-1" d="m271.51,270.27c-.15-.15-.31-.31-.46-.46.13.17.32.29.46.46Z"/><path class="cls-1" d="m276.12,273.96c-.15-.15-.31-.31-.46-.46.15.15.29.32.46.46Z"/><path class="cls-1" d="m273.36,271.19c-.15-.15-.31-.31-.46-.46.14.17.31.31.46.46Z"/><path class="cls-1" d="m272.43,270.73c-.15-.15-.31-.31-.46-.46.13.17.32.29.46.46Z"/><path class="cls-1" d="m269.67,245.38c-.14.17-.33.29-.46.46.15-.15.31-.31.46-.46Z"/><path class="cls-1" d="m294.09,240.77c.15-.15.31-.31.46-.46-.15.16-.32.3-.46.46Z"/><path class="cls-1" d="m293.63,241.23c.15-.15.31-.31.46-.46-.15.15-.32.29-.46.46Z"/><path class="cls-1" d="m291.79,242.62c.15-.15.31-.31.46-.46-.15.15-.32.29-.46.46Z"/><path class="cls-1" d="m290.87,243.08c.15-.15.31-.31.46-.46-.15.16-.32.3-.46.46Z"/><path class="cls-1" d="m292.25,242.16c.15-.15.31-.31.46-.46-.15.16-.32.3-.46.46Z"/><path class="cls-1" d="m296.86,238.01c.15-.15.31-.31.46-.46-.17.14-.31.31-.46.46Z"/><path class="cls-1" d="m300.08,233.4c.15-.15.31-.31.46-.46-.17.13-.29.32-.46.46Z"/><path class="cls-1" d="m260.45,259.21c-.15-.15-.31-.31-.46-.46.17.14.29.33.46.46Z"/><path class="cls-1" d="m299.17,234.77c.15-.15.3-.3.45-.45-.16.14-.3.31-.45.45Z"/><path class="cls-1" d="m298.7,235.7c.15-.15.31-.31.46-.46-.17.14-.31.31-.46.46Z"/><path class="cls-1" d="m297.32,237.09c.15-.15.31-.31.46-.46-.16.14-.3.31-.46.46Z"/><path class="cls-1" d="m299.62,234.32c.15-.15.31-.31.46-.46-.17.14-.31.31-.46.46Z"/><path class="cls-1" d="m262.3,250.45c.15-.15.31-.31.46-.46-.17.13-.29.32-.46.46Z"/><path class="cls-1" d="m263.22,249.53c.15-.15.31-.31.46-.46-.14.17-.33.29-.46.46Z"/><path class="cls-1" d="m259.99,253.68c.15-.15.31-.31.46-.46-.16.14-.3.31-.46.46Z"/><path class="cls-1" d="m261.83,251.37c.15-.15.31-.31.46-.46-.17.14-.31.31-.46.46Z"/><path class="cls-1" d="m290.41,243.54c.15-.15.31-.31.46-.46-.15.15-.32.29-.46.46Z"/><path class="cls-1" d="m264.14,249.07c.15-.15.31-.31.46-.46-.14.17-.33.29-.46.46Z"/><path class="cls-1" d="m265.52,248.61c.15-.15.31-.31.46-.46-.14.17-.33.29-.46.46Z"/><path class="cls-1" d="m288.1,244.46c.15-.15.31-.31.46-.46-.14.17-.33.29-.46.46Z"/><path class="cls-1" d="m274.74,307.14c.15-.15.31-.31.46-.46-.17.14-.31.31-.46.46Z"/><path class="cls-1" d="m266.44,248.15c.15-.15.31-.31.46-.46-.15.15-.32.29-.46.46Z"/><path class="cls-1" d="m266.9,247.69c.15-.15.31-.31.46-.46-.15.16-.32.3-.46.46Z"/><path class="cls-1" d="m258.61,342.63c-.15-.15-.31-.31-.46-.46.17.14.29.33.46.46Z"/><path class="cls-1" d="m267.83,357.38c-.15-.15-.31-.31-.46-.46.16.15.3.32.46.46Z"/><path class="cls-1" d="m268.29,357.84c-.15-.15-.31-.31-.46-.46.15.15.29.32.46.46Z"/><path class="cls-1" d="m271.05,373.05c.15-.15.31-.31.46-.46-.17.14-.31.31-.46.46Z"/><path class="cls-1" d="m266.9,355.54c-.15-.15-.31-.31-.46-.46.16.15.3.32.46.46Z"/><path class="cls-1" d="m269.67,362.45c.15.15.29.32.46.46-.15-.15-.31-.31-.46-.46Z"/><path class="cls-1" d="m264.6,352.31c-.15-.15-.31-.31-.46-.46.16.15.3.32.46.46Z"/><path class="cls-1" d="m270.59,373.51c.15-.15.31-.31.46-.46-.15.15-.32.29-.46.46Z"/><path class="cls-1" d="m264.14,351.39c-.15-.15-.31-.31-.46-.46.15.15.29.32.46.46Z"/><path class="cls-1" d="m265.52,353.69c-.15-.15-.31-.31-.46-.46.16.15.3.32.46.46Z"/><path class="cls-1" d="m265.06,352.77c-.15-.15-.31-.31-.46-.46.15.15.29.32.46.46Z"/><path class="cls-1" d="m266.44,354.61c-.15-.15-.31-.31-.46-.46.15.15.29.32.46.46Z"/><path class="cls-1" d="m271.05,375.36c-.15-.15-.31-.31-.46-.46.15.15.29.32.46.46Z"/><path class="cls-1" d="m263.22,350.47c-.15-.15-.31-.31-.46-.46.16.15.3.32.46.46Z"/><path class="cls-1" d="m270.13,378.12c.15-.15.31-.31.46-.46-.15.15-.32.29-.46.46Z"/><path class="cls-1" d="m270.59,377.66c.15-.15.31-.31.46-.46-.17.14-.31.31-.46.46Z"/><path class="cls-1" d="m274.28,307.6c.15-.15.31-.31.46-.46-.16.14-.3.31-.46.46Z"/><path class="cls-1" d="m265.98,318.2c.15-.15.31-.31.46-.46-.16.14-.3.31-.46.46Z"/><path class="cls-1" d="m266.44,317.74c.15-.15.31-.31.46-.46-.17.14-.31.31-.46.46Z"/><path class="cls-1" d="m266.9,316.82c.15-.15.31-.31.46-.46-.17.13-.3.32-.46.46Z"/><path class="cls-1" d="m264.6,320.05c.15-.15.31-.31.46-.46-.16.14-.3.31-.46.46Z"/><path class="cls-1" d="m265.52,319.13c.15-.15.31-.31.46-.46-.17.14-.31.31-.46.46Z"/><path class="cls-1" d="m268.75,314.06c-.16.14-.3.31-.46.46.15-.15.31-.31.46-.46Z"/><path class="cls-1" d="m270.6,311.74c.15-.15.3-.3.45-.45-.16.14-.29.3-.45.45Z"/><path class="cls-1" d="m273.82,308.52c.15-.15.31-.31.46-.46-.17.14-.31.31-.46.46Z"/><path class="cls-1" d="m270.13,312.67c.15-.15.31-.31.46-.46-.17.14-.31.31-.46.46Z"/><path class="cls-1" d="m264.14,320.97c.15-.15.31-.31.46-.46-.17.14-.31.31-.46.46Z"/><path class="cls-1" d="m267.83,315.44c.15-.15.31-.31.46-.46-.17.14-.31.31-.46.46Z"/><path class="cls-1" d="m263.22,321.89c.15-.15.31-.31.46-.46-.16.14-.3.31-.46.46Z"/><path class="cls-1" d="m259.99,344.94c-.15-.15-.31-.31-.46-.46.15.15.29.32.46.46Z"/><path class="cls-1" d="m259.53,344.48c-.15-.15-.31-.31-.46-.46.16.15.3.32.46.46Z"/><path class="cls-1" d="m259.07,343.55c-.15-.15-.31-.31-.46-.46.17.14.29.33.46.46Z"/><path class="cls-1" d="m260.91,346.78c-.15-.15-.31-.31-.46-.46.17.14.29.33.46.46Z"/><path class="cls-1" d="m260.45,345.86c-.15-.15-.31-.31-.46-.46.17.14.29.33.46.46Z"/><path class="cls-1" d="m301.01,231.09c.15-.15.31-.31.46-.46-.17.13-.29.32-.46.46Z"/><path class="cls-1" d="m262.76,322.81c.15-.15.31-.31.46-.46-.17.14-.31.31-.46.46Z"/><path class="cls-1" d="m261.37,347.7c-.15-.15-.31-.31-.46-.46.16.15.3.32.46.46Z"/><path class="cls-1" d="m259.99,326.5c.15-.15.31-.31.46-.46-.16.14-.3.31-.46.46Z"/><path class="cls-1" d="m258.61,329.73c.15-.15.31-.31.46-.46-.17.13-.3.32-.46.46Z"/><path class="cls-1" d="m258.15,330.65c.15-.15.31-.31.46-.46-.17.13-.3.32-.46.46Z"/><path class="cls-1" d="m286.26,194.68c.15-.15.31-.31.46-.46-.17.13-.29.32-.46.46Z"/><path class="cls-1" d="m262.76,165.65c-.15.15-.31.31-.46.46.15-.15.32-.29.46-.46Z"/><path class="cls-1" d="m278.89,159.66c-.15.15-.31.31-.46.46.14-.17.33-.29.46-.46Z"/><path class="cls-1" d="m297.78,156.43c-.15.15-.31.31-.46.46.14-.17.33-.29.46-.46Z"/><path class="cls-1" d="m274.28,160.58c-.15.15-.31.31-.46.46.14-.17.33-.29.46-.46Z"/><path class="cls-1" d="m296.86,156.89c-.15.15-.31.31-.46.46.14-.17.33-.29.46-.46Z"/><path class="cls-1" d="m269.67,162.42c-.15.15-.31.31-.46.46.14-.17.33-.29.46-.46Z"/><path class="cls-1" d="m265.06,164.73c-.15.15-.31.31-.46.46.14-.17.33-.29.46-.46Z"/><path class="cls-1" d="m266.44,163.8c-.15.15-.31.31-.46.46.14-.17.33-.29.46-.46Z"/><path class="cls-1" d="m268.75,162.88c-.15.15-.31.31-.46.46.14-.17.33-.29.46-.46Z"/><path class="cls-1" d="m267.83,163.34c-.15.15-.31.31-.46.46.14-.17.33-.29.46-.46Z"/><path class="cls-1" d="m279.81,159.2c-.15.15-.31.31-.46.46.14-.17.33-.29.46-.46Z"/><path class="cls-1" d="m245.24,183.16c-.15.15-.31.31-.46.46.17-.13.29-.32.46-.46Z"/><path class="cls-1" d="m241.1,203.44c-.15.15-.31.31-.46.46.17-.13.29-.32.46-.46Z"/><path class="cls-1" d="m239.71,204.82l-.46.46c.15-.15.32-.29.46-.46Z"/><path class="cls-1" d="m244.32,185.47c-.15.15-.31.31-.46.46.17-.14.31-.31.46-.46Z"/><path class="cls-1" d="m245.7,182.24c-.15.15-.31.31-.46.46.17-.13.29-.32.46-.46Z"/><path class="cls-1" d="m239.25,205.28c-.15.15-.31.31-.46.46.15-.16.32-.3.46-.46Z"/><path class="cls-1" d="m260.91,167.03c-.15.15-.31.31-.46.46.15-.16.32-.3.46-.46Z"/><path class="cls-1" d="m234.64,208.05c-.15.15-.31.31-.46.46.15-.16.32-.3.46-.46Z"/><path class="cls-1" d="m233.72,208.51c-.15.15-.31.31-.46.46.14-.17.33-.29.46-.46Z"/><path class="cls-1" d="m237.87,206.21c-.15.15-.31.31-.46.46.15-.16.32-.3.46-.46Z"/><path class="cls-1" d="m236.95,206.67c-.15.15-.31.31-.46.46.15-.15.32-.29.46-.46Z"/><path class="cls-1" d="m238.33,205.75c-.15.15-.31.31-.46.46.15-.15.32-.29.46-.46Z"/><path class="cls-1" d="m254.92,171.18c-.15.15-.31.31-.46.46.15-.16.32-.3.46-.46Z"/><path class="cls-1" d="m246.17,181.32c-.15.15-.31.31-.46.46.17-.14.31-.31.46-.46Z"/><path class="cls-1" d="m255.84,170.26c-.15.15-.31.31-.46.46.15-.15.32-.29.46-.46Z"/><path class="cls-1" d="m259.99,167.49c-.15.15-.31.31-.46.46.15-.15.32-.29.46-.46Z"/><path class="cls-1" d="m257.69,169.33c-.15.15-.31.31-.46.46.15-.16.32-.3.46-.46Z"/><path class="cls-1" d="m256.76,169.8c-.15.15-.31.31-.46.46.14-.17.33-.29.46-.46Z"/><path class="cls-1" d="m246.63,180.86c-.15.15-.31.31-.46.46.16-.14.3-.31.46-.46Z"/><path class="cls-1" d="m253.54,172.1c-.15.15-.31.31-.46.46.15-.15.32-.29.46-.46Z"/><path class="cls-1" d="m247.09,179.94l-.46.46c.17-.13.29-.32.46-.46Z"/><path class="cls-1" d="m249.39,176.71c-.15.15-.31.31-.46.46.17-.13.29-.32.46-.46Z"/><path class="cls-1" d="m251.23,174.4l-.46.46c.17-.14.31-.31.46-.46Z"/><path class="cls-1" d="m289.49,185.93c.15-.15.31-.31.46-.46-.17.13-.29.32-.46.46Z"/><path class="cls-1" d="m289.95,214.96c-.15-.15-.31-.31-.46-.46.17.14.29.33.46.46Z"/><path class="cls-1" d="m289.02,213.12c-.15-.15-.31-.31-.46-.46.17.14.29.33.46.46Z"/><path class="cls-1" d="m289.49,214.04c-.15-.15-.31-.31-.46-.46.17.14.29.33.46.46Z"/><path class="cls-1" d="m290.87,217.27c-.15-.15-.31-.31-.46-.46.16.15.3.32.46.46Z"/><path class="cls-1" d="m290.41,216.35c-.15-.15-.31-.31-.46-.46.17.14.29.33.46.46Z"/><path class="cls-1" d="m288.56,211.74c-.15-.15-.31-.31-.46-.46.17.14.29.33.46.46Z"/><path class="cls-1" d="m291.33,217.73c-.15-.15-.31-.31-.46-.46.15.15.29.32.46.46Z"/><path class="cls-1" d="m286.72,206.67c-.15-.15-.31-.31-.46-.46.17.14.29.33.46.46Z"/><path class="cls-1" d="m287.18,208.05c-.15-.15-.31-.31-.46-.46.17.14.29.33.46.46Z"/><path class="cls-1" d="m288.1,210.82c-.15-.15-.31-.31-.46-.46.17.14.29.33.46.46Z"/><path class="cls-1" d="m287.64,209.43c-.15-.15-.31-.31-.46-.46.17.14.29.33.46.46Z"/><path class="cls-1" d="m292.25,219.11c-.15-.15-.31-.31-.46-.46.15.15.29.32.46.46Z"/><path class="cls-1" d="m296.86,224.18c-.15-.15-.31-.31-.46-.46.13.17.32.29.46.46Z"/><path class="cls-1" d="m297.78,224.64c-.15-.15-.31-.31-.46-.46.14.17.31.31.46.46Z"/><path class="cls-1" d="m299.16,225.56c-.15-.15-.31-.31-.46-.46.14.17.31.31.46.46Z"/><path class="cls-1" d="m295.94,223.72c-.15-.15-.31-.31-.46-.46.14.16.31.3.46.46Z"/><path class="cls-1" d="m301.01,227.41c-.15-.15-.31-.31-.46-.46.15.15.29.32.46.46Z"/><path class="cls-1" d="m285.8,196.07c.15-.15.31-.31.46-.46-.17.13-.29.32-.46.46Z"/><path class="cls-1" d="m292.71,220.03c-.15-.15-.31-.31-.46-.46.17.14.29.33.46.46Z"/><path class="cls-1" d="m291.79,218.65c-.15-.15-.31-.31-.46-.46.16.15.3.32.46.46Z"/><path class="cls-1" d="m295.02,222.8c-.15-.15-.31-.31-.46-.46.14.17.31.31.46.46Z"/><path class="cls-1" d="m293.63,221.42c-.15-.15-.31-.31-.46-.46.15.15.29.32.46.46Z"/><path class="cls-1" d="m293.17,220.96c-.15-.15-.31-.31-.46-.46.16.15.3.32.46.46Z"/><path class="cls-1" d="m302.39,173.48c.15-.15.31-.31.46-.46-.15.15-.32.29-.46.46Z"/><path class="cls-1" d="m305.61,170.26c.15-.15.31-.31.46-.46-.15.16-.32.3-.46.46Z"/><path class="cls-1" d="m301.47,173.94c.15-.15.31-.31.46-.46-.14.17-.33.29-.46.46Z"/><path class="cls-1" d="m300.09,174.86c.15-.15.3-.3.45-.45-.14.16-.31.29-.45.45Z"/><path class="cls-1" d="m299.62,175.33c.15-.15.31-.31.46-.46-.15.15-.32.29-.46.46Z"/><path class="cls-1" d="m308.84,167.95c.15-.15.31-.31.46-.46-.15.16-.32.3-.46.46Z"/><path class="cls-1" d="m307,169.33c.15-.15.31-.31.46-.46-.14.17-.33.29-.46.46Z"/><path class="cls-1" d="m298.7,175.79c.15-.15.31-.31.46-.46-.14.17-.33.29-.46.46Z"/><path class="cls-1" d="m307.92,168.87c.15-.15.31-.31.46-.46.15-.15.31-.31.46-.46-.16.15-.31.3-.46.46-.15.15-.32.29-.46.46Z"/><path class="cls-1" d="m292.71,181.78c.15-.15.31-.31.46-.46-.17.14-.31.31-.46.46Z"/><path class="cls-1" d="m289.02,186.85c.15-.15.31-.31.46-.46-.17.13-.29.32-.46.46Z"/><path class="cls-1" d="m301.47,228.33c-.15-.15-.31-.31-.46-.46.17.14.29.33.46.46Z"/><path class="cls-1" d="m289.95,185.01c.15-.15.31-.31.46-.46-.17.13-.29.32-.46.46Z"/><path class="cls-1" d="m288.56,188.23c.15-.15.31-.31.46-.46-.17.13-.29.32-.46.46Z"/><path class="cls-1" d="m288.1,189.15c.15-.15.31-.31.46-.46-.17.13-.29.32-.46.46Z"/><path class="cls-1" d="m290.87,183.62c.15-.15.31-.31.46-.46-.17.13-.29.32-.46.46Z"/><path class="cls-1" d="m295.02,179.01c.15-.15.31-.31.46-.46-.15.15-.32.29-.46.46Z"/><path class="cls-1" d="m294.09,179.94c-.17.13-.29.32-.46.46.15-.15.31-.31.46-.46Z"/><path class="cls-1" d="m296.4,177.63c.15-.15.31-.31.46-.46-.15.16-.32.3-.46.46Z"/><path class="cls-1" d="m291.79,182.7c.15-.15.31-.31.46-.46-.15.15-.32.29-.46.46Z"/><path class="cls-1" d="m224.04,211.74c-.15.15-.31.31-.46.46.14-.16.33-.28.46-.46Z"/><path class="cls-1" d="m165.98,355.08c.15.15.31.31.46.46-.17-.14-.29-.33-.46-.46Z"/><path class="cls-1" d="m223.12,212.2c-.15.15-.31.31-.46.46.14-.17.33-.29.46-.46Z"/><path class="cls-1" d="m164.6,310.83c-.15.15-.31.31-.46.46.16-.14.3-.31.46-.46Z"/><path class="cls-1" d="m165.06,309.45l-.46.46c.17-.13.29-.32.46-.46Z"/><path class="cls-1" d="m165.52,308.53c-.15.15-.31.31-.46.46.17-.13.29-.32.46-.46Z"/><path class="cls-1" d="m164.13,311.29c-.15.15-.31.31-.46.46.17-.14.31-.31.46-.46Z"/><path class="cls-1" d="m165.98,307.6l-.46.46c.17-.14.31-.31.46-.46Z"/><path class="cls-1" d="m167.36,305.3c-.15.15-.31.31-.46.46.17-.13.29-.32.46-.46Z"/><path class="cls-1" d="m161.37,318.2c-.15.15-.31.31-.46.46.17-.13.29-.32.46-.46Z"/><path class="cls-1" d="m162.29,315.9c-.15.15-.31.31-.46.46.17-.13.29-.32.46-.46Z"/><path class="cls-1" d="m162.75,314.06c-.15.15-.31.31-.46.46.17-.13.29-.32.46-.46Z"/><path class="cls-1" d="m163.67,312.21c-.15.15-.31.31-.46.46.17-.13.29-.32.46-.46Z"/><path class="cls-1" d="m163.21,313.13c-.15.15-.31.31-.46.46.17-.13.29-.32.46-.46Z"/><path class="cls-1" d="m171.05,298.85c-.15.15-.31.31-.46.46.17-.13.29-.32.46-.46Z"/><path class="cls-1" d="m171.97,297.46c-.15.15-.31.31-.46.46.16-.15.3-.31.46-.46Z"/><path class="cls-1" d="m172.43,296.54c-.15.15-.31.31-.46.46.17-.14.31-.31.46-.46Z"/><path class="cls-1" d="m171.51,297.92c-.15.15-.31.31-.46.46.17-.14.31-.31.46-.46Z"/><path class="cls-1" d="m176.12,292.86c-.15.15-.31.31-.46.46.15-.15.32-.29.46-.46Z"/><path class="cls-1" d="m167.82,304.38c-.15.15-.31.31-.46.46.17-.13.29-.32.46-.46Z"/><path class="cls-1" d="m173.81,295.16c-.15.15-.31.31-.46.46.15-.15.32-.29.46-.46Z"/><path class="cls-1" d="m173.35,295.62c-.15.15-.31.31-.46.46-.15.15-.31.31-.46.46.16-.15.31-.3.46-.46.16-.15.31-.3.46-.46Z"/><path class="cls-1" d="m160.91,319.59l-.46.46c.17-.13.29-.32.46-.46Z"/><path class="cls-1" d="m168.28,303.46l-.46.46c.17-.14.31-.31.46-.46Z"/><path class="cls-1" d="m169.2,302.53l-.46.46c.16-.14.3-.31.46-.46Z"/><path class="cls-1" d="m170.59,299.77c-.15.15-.31.31-.46.46.17-.13.29-.32.46-.46Z"/><path class="cls-1" d="m170.13,301.15c-.15.15-.31.31-.46.46.17-.13.29-.32.46-.46Z"/><path class="cls-1" d="m173.81,363.37c.15.15.31.31.46.46-.17-.14-.29-.33-.46-.46Z"/><path class="cls-1" d="m177.04,292.39c-.15.15-.31.31-.46.46.15-.16.32-.3.46-.46Z"/><path class="cls-1" d="m171.97,361.53l.46.46c-.13-.17-.32-.29-.46-.46Z"/><path class="cls-1" d="m177.04,375.82c.15.15.31.31.46.46-.17-.14-.29-.33-.46-.46Z"/><path class="cls-1" d="m171.05,361.07c.15.15.31.31.46.46-.14-.17-.31-.31-.46-.46Z"/><path class="cls-1" d="m170.59,360.61c.15.15.31.31.46.46-.15-.15-.29-.32-.46-.46Z"/><path class="cls-1" d="m180.26,378.58h0l.46.46c-.16-.15-.31-.3-.46-.46Z"/><path class="cls-1" d="m179.8,388.26c-.15.15-.31.31-.46.46.17-.13.29-.32.46-.46Z"/><path class="cls-1" d="m175.19,417.76l.46.46c-.17-.14-.29-.33-.46-.46Z"/><path class="cls-1" d="m179.34,378.12c.15.15.31.31.46.46-.13-.17-.32-.29-.46-.46Z"/><path class="cls-1" d="m180.26,386.88c-.15.15-.31.31-.46.46.17-.13.29-.32.46-.46Z"/><path class="cls-1" d="m169.66,359.22c.15.15.31.31.46.46-.16-.15-.3-.32-.46-.46Z"/><path class="cls-1" d="m160.91,346.32c.15.15.31.31.46.46-.17-.14-.29-.33-.46-.46Z"/><path class="cls-1" d="m161.83,349.08c.15.15.31.31.46.46-.17-.14-.29-.33-.46-.46Z"/><path class="cls-1" d="m169.2,358.76c.15.15.31.31.46.46-.14-.16-.31-.3-.46-.46Z"/><path class="cls-1" d="m160.45,344.94l.46.46c-.17-.14-.29-.33-.46-.46Z"/><path class="cls-1" d="m163.21,351.39c.15.15.31.31.46.46-.17-.14-.29-.33-.46-.46Z"/><path class="cls-1" d="m161.37,347.7l.46.46c-.17-.14-.29-.33-.46-.46Z"/><path class="cls-1" d="m162.29,350.01c.15.15.31.31.46.46-.17-.14-.29-.33-.46-.46Z"/><path class="cls-1" d="m163.67,352.31c.15.15.31.31.46.46-.15-.15-.29-.32-.46-.46Z"/><path class="cls-1" d="m166.9,356.46c.15.15.31.31.46.46-.16-.15-.3-.32-.46-.46Z"/><path class="cls-1" d="m166.44,356c.15.15.31.31.46.46-.15-.15-.29-.32-.46-.46Z"/><path class="cls-1" d="m164.6,353.23l.46.46c-.16-.15-.3-.32-.46-.46Z"/><path class="cls-1" d="m213.45,221.42c-.15.15-.31.31-.46.46.17-.13.29-.32.46-.46Z"/><path class="cls-1" d="m215.29,242.62c.15.15.31.31.46.46-.15-.15-.29-.32-.46-.46Z"/><path class="cls-1" d="m213.91,239.85c.15.15.31.31.46.46-.17-.14-.29-.33-.46-.46Z"/><path class="cls-1" d="m214.37,240.77c.15.15.31.31.46.46-.17-.14-.29-.33-.46-.46Z"/><path class="cls-1" d="m214.83,241.7c.15.15.31.31.46.46-.17-.14-.29-.33-.46-.46Z"/><path class="cls-1" d="m216.67,244.46l.46.46c-.17-.14-.29-.33-.46-.46Z"/><path class="cls-1" d="m216.21,243.54c.15.15.31.31.46.46-.16-.15-.3-.32-.46-.46Z"/><path class="cls-1" d="m224.51,260.13c.15.15.31.31.46.46-.17-.14-.29-.33-.46-.46Z"/><path class="cls-1" d="m222.2,250.91l.46.46c-.16-.15-.3-.32-.46-.46Z"/><path class="cls-1" d="m218.98,247.69l.46.46c-.15-.15-.29-.32-.46-.46Z"/><path class="cls-1" d="m218.05,246.3c.15.15.31.31.46.46-.16-.15-.3-.32-.46-.46Z"/><path class="cls-1" d="m217.13,245.38c.15.15.31.31.46.46-.15-.15-.29-.32-.46-.46Z"/><path class="cls-1" d="m220.81,213.59c-.15.15-.3.3-.45.45.14-.16.31-.29.45-.45Z"/><path class="cls-1" d="m216.21,217.27l-.46.46c.17-.14.31-.31.46-.46Z"/><path class="cls-1" d="m217.13,216.35l-.46.46c.15-.15.32-.29.46-.46Z"/><path class="cls-1" d="m213.45,238.47c.15.15.31.31.46.46-.17-.14-.29-.33-.46-.46Z"/><path class="cls-1" d="m222.2,212.66c-.15.15-.31.31-.46.46.14-.17.33-.29.46-.46Z"/><path class="cls-1" d="m221.28,213.12c-.15.15-.31.31-.46.46.15-.15.32-.29.46-.46Z"/><path class="cls-1" d="m225.89,264.28c.15.15.31.31.46.46-.17-.14-.29-.33-.46-.46Z"/><path class="cls-1" d="m212.98,222.34l-.46.46c.17-.13.3-.32.46-.46Z"/><path class="cls-1" d="m212.98,237.55c.15.15.31.31.46.46-.17-.14-.29-.33-.46-.46Z"/><path class="cls-1" d="m213.91,220.5l-.46.46c.17-.14.31-.31.46-.46Z"/><path class="cls-1" d="m176.58,422.83c.15.15.31.31.46.46-.15-.15-.29-.32-.46-.46Z"/><path class="cls-1" d="m214.37,220.03c-.15.15-.3.3-.45.45.16-.14.29-.31.45-.45Z"/><path class="cls-1" d="m211.14,288.25c-.15-.15-.31-.31-.46-.46.14.17.31.31.46.46Z"/><path class="cls-1" d="m191.32,286.86c-.15.15-.31.31-.46.46.15-.15.32-.29.46-.46Z"/><path class="cls-1" d="m193.16,285.95c-.15.15-.3.3-.45.45.14-.16.31-.29.45-.45Z"/><path class="cls-1" d="m193.63,285.48c-.15.15-.31.31-.46.46.15-.15.32-.29.46-.46Z"/><path class="cls-1" d="m208.38,286.86c-.15-.15-.31-.31-.46-.46.14.17.31.31.46.46Z"/><path class="cls-1" d="m207.45,286.4l-.46-.46c.13.17.32.29.46.46Z"/><path class="cls-1" d="m189.02,288.71c-.15.15-.31.31-.46.46.17-.14.31-.31.46-.46Z"/><path class="cls-1" d="m190.4,287.79l-.46.46c.15-.16.32-.3.46-.46Z"/><path class="cls-1" d="m183.03,290.09c-.15.15-.31.31-.46.46.14-.16.33-.29.46-.46Z"/><path class="cls-1" d="m179.34,291.01c-.15.15-.31.31-.46.46.15-.15.32-.29.46-.46Z"/><path class="cls-1" d="m210.22,287.79c-.15-.15-.31-.31-.46-.46.13.17.32.29.46.46Z"/><path class="cls-1" d="m189.48,288.25l-.46.46c.15-.15.32-.29.46-.46Z"/><path class="cls-1" d="m226.35,278.57c-.15.15-.31.31-.46.46.17-.13.29-.32.46-.46Z"/><path class="cls-1" d="m224.04,282.72c-.15.15-.31.31-.46.46.16-.14.3-.31.46-.46Z"/><path class="cls-1" d="m178.88,291.47l-.46.46c.15-.16.32-.3.46-.46Z"/><path class="cls-1" d="m225.43,279.95c.17-.13.29-.32.46-.46-.15.15-.31.31-.46.46Z"/><path class="cls-1" d="m223.12,283.64c-.15.15-.31.31-.46.46.15-.16.32-.3.46-.46Z"/><path class="cls-1" d="m224.04,282.25c.17-.14.31-.31.46-.46-.15.15-.31.31-.46.46Z"/><path class="cls-1" d="m218.98,287.79c-.15.15-.31.31-.46.46.15-.16.32-.3.46-.46Z"/><path class="cls-1" d="m218.05,288.71c-.15.15-.31.31-.46.46.16-.14.3-.31.46-.46Z"/><path class="cls-1" d="m219.44,287.32l-.46.46c.16-.14.3-.31.46-.46Z"/><path class="cls-1" d="m221.74,284.56c.15-.15.32-.29.46-.46-.15.15-.31.31-.46.46Z"/><path class="cls-1" d="m221.28,285.02l-.46.46c-.15.15-.31.31-.46.46.16-.15.31-.3.46-.46.16-.15.31-.3.46-.46Z"/><path class="cls-1" d="m225.43,280.41c-.15.15-.31.31-.46.46.17-.13.29-.32.46-.46Z"/><path class="cls-1" d="m267.36,379.5c.15-.15.31-.31.46-.46-.14.17-.33.29-.46.46Z"/><path class="cls-1" d="m268.75,379.04c.15-.15.31-.31.46-.46-.14.17-.33.29-.46.46Z"/><path class="cls-1" d="m177.5,423.75c.15.15.31.31.46.46-.16-.15-.3-.32-.46-.46Z"/><path class="cls-1" d="m261.83,379.96c.15-.15.31-.31.46-.46-.15.16-.32.3-.46.46Z"/><path class="cls-1" d="m193.63,440.34c.15.15.31.31.46.46-.13-.17-.32-.3-.46-.46Z"/><path class="cls-1" d="m229.57,391.95l.46-.46c-.17.13-.29.32-.46.46Z"/><path class="cls-1" d="m202.85,444.03l.46.46c-.13-.17-.32-.29-.46-.46Z"/><path class="cls-1" d="m198.24,442.65c.15.15.31.31.46.46-.13-.17-.32-.29-.46-.46Z"/><path class="cls-1" d="m199.62,443.11l.46.46c-.13-.17-.32-.29-.46-.46Z"/><path class="cls-1" d="m208.84,445.87c.15.15.31.31.46.46-.13-.17-.32-.29-.46-.46Z"/><path class="cls-1" d="m228.65,393.79c.15-.15.31-.31.46-.46-.17.14-.31.31-.46.46Z"/><path class="cls-1" d="m229.11,392.87c.15-.15.31-.31.46-.46-.17.13-.29.32-.46.46Z"/><path class="cls-1" d="m228.2,394.24c.15-.15.3-.3.45-.45-.16.14-.3.31-.45.45Z"/><path class="cls-1" d="m224.97,437.58c.15-.15.31-.31.46-.46-.17.13-.29.32-.46.46Z"/><path class="cls-1" d="m225.43,418.68c.15-.15.31-.31.46-.46-.17.13-.29.32-.46.46Z"/><path class="cls-1" d="m201,443.57c.15.15.31.31.46.46-.13-.17-.32-.29-.46-.46Z"/><path class="cls-1" d="m179.34,427.9l.46.46c-.17-.14-.29-.33-.46-.46Z"/><path class="cls-1" d="m178.88,426.98c.15.15.31.31.46.46-.17-.14-.29-.33-.46-.46Z"/><path class="cls-1" d="m178.42,426.05l.46.46c-.17-.14-.29-.33-.46-.46Z"/><path class="cls-1" d="m180.26,429.28c.15.15.31.31.46.46-.15-.15-.29-.32-.46-.46Z"/><path class="cls-1" d="m177.96,424.67c.15.15.31.31.46.46-.17-.14-.29-.33-.46-.46Z"/><path class="cls-1" d="m183.03,432.51c.15.15.31.31.46.46-.15-.15-.29-.32-.46-.46Z"/><path class="cls-1" d="m188.56,437.12c.15.15.31.31.46.46-.14-.16-.31-.3-.46-.46Z"/><path class="cls-1" d="m187.18,436.19c.15.15.31.31.46.46-.13-.17-.32-.29-.46-.46Z"/><path class="cls-1" d="m180.72,429.74c.15.15.31.31.46.46-.16-.15-.3-.32-.46-.46Z"/><path class="cls-1" d="m184.87,433.89l.46.46c-.14-.16-.31-.3-.46-.46Z"/><path class="cls-1" d="m189.02,437.58l.46.46c-.14-.17-.31-.31-.46-.46Z"/><path class="cls-1" d="m246.17,395.63c.15.15.31.31.46.46-.13-.17-.32-.3-.46-.46Z"/><path class="cls-1" d="m261.83,392.87c.15-.15.31-.31.46-.46-.17.13-.3.32-.46.46Z"/><path class="cls-1" d="m245.24,395.17c.15.15.31.31.46.46-.13-.17-.32-.3-.46-.46Z"/><path class="cls-1" d="m247.55,396.1l.46.46c-.13-.17-.32-.3-.46-.46Z"/><path class="cls-1" d="m243.86,394.25c.15.15.31.31.46.46-.13-.17-.32-.3-.46-.46Z"/><path class="cls-1" d="m230.5,389.64l.46-.46c-.17.13-.29.32-.46.46Z"/><path class="cls-1" d="m249.85,397.02l.46.46c-.13-.17-.32-.3-.46-.46Z"/><path class="cls-1" d="m248.47,396.56c.15.15.31.31.46.46-.13-.17-.32-.3-.46-.46Z"/><path class="cls-1" d="m261.37,393.79c.15-.15.31-.31.46-.46-.17.13-.29.32-.46.46Z"/><path class="cls-1" d="m260.91,394.71c.15-.15.31-.31.46-.46-.17.13-.29.32-.46.46Z"/><path class="cls-1" d="m242.48,393.33c.15.15.31.31.46.46-.14-.16-.31-.3-.46-.46Z"/><path class="cls-1" d="m257.69,397.48c.15-.15.31-.31.46-.46-.14.17-.33.29-.46.46Z"/><path class="cls-1" d="m242.94,393.79c.15.15.31.31.46.46-.14-.17-.31-.31-.46-.46Z"/><path class="cls-1" d="m235.11,386.88c.15.15.31.31.46.46-.14-.17-.31-.31-.46-.46Z"/><path class="cls-1" d="m234.18,385.96c.15.15.31.31.46.46-.15-.15-.29-.32-.46-.46Z"/><path class="cls-1" d="m233.72,385.03c.15.15.31.31.46.46-.17-.14-.29-.33-.46-.46Z"/><path class="cls-1" d="m231.42,385.95c.15-.15.3-.3.46-.46-.17.13-.29.32-.46.46Z"/><path class="cls-1" d="m241.56,392.87c.15.15.31.31.46.46-.14-.17-.31-.31-.46-.46Z"/><path class="cls-1" d="m233.26,384.11c.15.15.31.31.46.46-.16-.15-.3-.32-.46-.46Z"/><path class="cls-1" d="m236.49,388.26c.15.15.31.31.46.46-.15-.15-.29-.32-.46-.46Z"/><path class="cls-1" d="m239.25,391.03l.46.46c-.14-.17-.31-.31-.46-.46Z"/><path class="cls-1" d="m241.1,392.41l.46.46c-.14-.16-.31-.3-.46-.46Z"/><path class="cls-1" d="m238.79,390.56c.15.15.31.31.46.46-.14-.16-.31-.3-.46-.46Z"/><path class="cls-1" d="m236.95,388.72c.15.15.31.31.46.46-.16-.15-.3-.32-.46-.46Z"/><path class="cls-1" d="m185.84,393.75c.08.21.26.34.41.51-.13-.17-.27-.34-.4-.51,0,0,0,0,0,0Z"/><path class="cls-1" d="m188.4,396.83c.07.05.15.07.25.08,0,0,0,0,0,0-.1,0-.18-.03-.25-.07Z"/><path class="cls-1" d="m316.6,157.27c-.16.35-.44.53-.82.53-.5,0-.99-.04-1.49-.07-.18.44-.56.54-1,.54-.42,0-.85,0-1.27-.01.03-.07.05-.15.07-.23,0-.05.01-.1.01-.16-1.1-.19-2.2-.06-3.3-.02-.13-.04-.26-.04-.39.01,0,0,0,0,0,0-.99-.22-1.98-.02-2.97.02-.45.02-.93-.1-1.26.34-.59.02-1.19.05-1.78.07-.84-.16-1.65-.15-2.39.36-.27.05-.54.09-.81.14-.54-.1-1.1-.36-1.49.3l.06.1c-1.23.39-2.6-.42-3.78.43-.73,0-1.54-.27-2.17.13-.76.49-1.54.33-2.33.38-.95.07-1.96-.32-2.81.39-.12.05-.24.09-.37.13-.64-.04-1.29-.09-1.93-.12-.37-.01-.7.13-.93.44-2.57.35-4.95,1.47-7.53,1.78-.37.04-.73.18-1.08.32-1.25.51-2.66.63-3.74,1.55-2.46.57-4.48,2.1-6.72,3.16-.84.4-1.74.87-2.48,1.43-1.58,1.2-3.32,2.15-4.91,3.32-2.38,1.75-4.5,3.76-6.28,6.12-.91,1.21-1.98,2.32-2.41,3.83-1.54,1.61-1.68,3.85-2.62,5.73,0,0,0,0,0,0h0c-.43.3-.44.75-.45,1.2,0,.67,0,1.34-.01,2.02-.57,2.27-1.14,4.53-1.7,6.8-.12.49-.53.97-.1,1.5-.02,1.23-.03,2.46-.05,3.69-.11.19-.33.4-.31.58.12.95-.35,1.54-1.01,2.15-1.46,1.36-3.13,2.4-4.88,3.29-1.82.93-3.74,1.63-5.54,2.59-1.23.65-2.53,1.04-3.83,1.39-1.32.35-2.61.6-3.85,1.31-1.23.7-2.54,1.24-3.65,2.19-1.73,1.49-3.33,3.04-4.52,5.04-.77,1.3-1.12,2.77-1.93,4.03-.4.2-.42.56-.45.95-.14,1.74.17,3.45.26,5.18,0,.12.17.24.25.36.45,1.21.73,2.47,1.16,3.69,1.18,3.41,3.02,6.41,5.19,9.23,1.02,1.33,2.2,2.53,3.33,3.76.94,1.03,1.59,2.15,1.93,3.54.2.82.22,1.62.34,2.42.34,2.26.91,4.48,1.83,6.56.46,1.03.39,2.27,1.27,3.12.07.13.15.27.22.4.15.83-.35,1.64-.04,2.49.61,1.68.44,3.44.44,5.18,0,1.27-.28,2.53-.06,3.79-.23.28-.42.57-.43.95-.5.36-.24.92-.37,1.38l-.16.09.02.18c-.32.3-.46.68-.48,1.11-.44.22-.61.65-.82,1.06-.91,1.74-1.73,3.54-3.56,4.56-.13.07-.22.21-.32.32-1,1.05-2.07,2.04-2.97,3.17-.94,1.18-2.23,2.03-3.02,3.35-.18.3-.57.5-.89.7-.85.52-1.69.99-2.25,1.89-.35.57-1.12.35-1.39-.3-.09-.21-.23-.41-.27-.63-.41-2.39-2.01-3.82-3.96-5-2.06-1.26-4.33-1.86-6.68-2.24h0c-.18-.12-.36-.35-.55-.35-1.2-.05-2.41-.06-3.61-.06-.38,0-.74.14-1.01.44-1.43.05-2.63.7-3.78,1.45-1.54,1-2.9,2.19-4.03,3.64-1.7-.54-3.41-.81-5.12-.06-1.61.38-3.29.58-4.56,1.81-1.28.31-2.36.92-3.07,2.08-2.16,1.5-3.43,3.62-4.2,6.08-.09.3-.25.52-.5.73-1.21,1.08-1.87,2.57-2.65,3.94-.6,1.05-1.13,2.16-1.76,3.2-.86,1.42-1.14,3.13-2.26,4.42-.04.05-.05.14-.06.22-.09,1.55-1.29,2.76-1.32,4.32-1.15,2.28-1.55,4.74-1.81,7.25-.02.21-.22.4-.33.6-.69,1.19-.6,2.45-.39,3.73-.31,1.67-.08,3.34-.09,5.02-.02,3.51,1.13,6.76,2.19,10,.83,2.54,2.1,4.91,4.02,6.87.37.37.64.87.88,1.34.43.83,1.09,1.47,1.64,2.2,1.02,1.34,2.56,2.16,3.49,3.59.19.29.59.49.92.65,1.73.83,2.11,3.02,3.86,3.83.22.1.31.51.45.78.04.07.05.15.07.22-.12.42.01.74.38.96,0,.29,0,.58,0,.87-.12.19-.32.37-.33.56-.15,1.95-.14,3.89.02,5.84.02.19.22.37.34.55h0c.27.64.72,1.16,1.1,1.73.42.64,1.06.81,1.64,1.16.59.36,1.35.09,1.89.49-.27.94-.02,1.82-.48,2.57-.5.72-.41,1.54-.39,2.35-.06.14-.06.28,0,.42-.16.31-.15.63-.03.95-.15,2.03-.5,4.02-.9,6.01-.35.22-.52.55-.51.96.01.61.05,1.22.08,1.83-.15.34-.44.69-.44,1.03-.01,1.84-.73,3.54-1.03,5.31-.47.39-.37.8-.03,1.21,0,0,0,0,0,0h-.01c-.25.18-.38.41-.4.73-.03.42-.08.85-.12,1.27-.6.69-.21,1.56-.41,2.32-.5.37-.36.92-.37,1.43l-.13.14.06.18c-.65.57-.18,1.35-.38,2v.02c-.42.56-.5,1.2-.49,1.88.02.74-.02,1.48-.03,2.21-.49.35-.48.83-.37,1.34-.02.91-.04,1.83-.05,2.74,0,.39.1.75.41,1.03.17.46-.09,1.06.46,1.39.04.5.06,1.01.44,1.4,0,.51.16.97.48,1.37-.05.3.1.46.36.55.09.34.22.66.54.85,0,.42.13.79.45,1.08h0s-.06.16-.06.16l.13.1c.47,1.41,1.11,2.72,2.18,3.77.2.74.73,1.14,1.4,1.42.32.71.51,1.52,1.35,1.84.07.26.23.43.51.45.31.29.62.58.93.87-.02.42.48.51.56.86.03.02.06.04.09.06,4.79,3.44,9.65,6.78,15.45,8.37.14.3.37.43.69.4.43-.04.87-.1,1.3-.15l.05.03c0,.27.15.41.41.45.71.92,2.01.13,2.75.95.64.71,1.47.53,2.27.5.91.18,1.82.36,2.73.55,1.25.66,2.5.59,3.74-.01,3.63-1.2,6.14-3.36,6.42-7.45.01,0,.02,0,.04-.01.12-.03.24-.08.35-.14.06-1.8.24-3.59.04-5.39,0-.29-.01-.57-.02-.86-.05-2.03.31-4.08-.25-6.07-.03-.15-.07-.29-.14-.44-.1-.45-.2-.91-.04-1.37.57-.42.56-1.04.53-1.65-.02-.53-.05-1.05-.07-1.58.16-.74-.23-1.51.07-2.25.32-.28.37-.67.37-1.04.02-1.82.02-3.65.02-5.47h0q.61-.63.07-1.41c-.03-.12-.03-.23.02-.35.28-.08.42-.26.34-.56h0c-.01-.28-.03-.57-.04-.85.03-.32.06-.64.09-.96h0c.2-1.22.56-2.43.44-3.69l.13-.09-.05-.15c.48-.4.4-.96.35-1.46-.11-1.12-.03-2.24.1-3.35.71-1.03.54-2.17.44-3.31-.08-.86-.07-1.65.89-2.12.28-.14.45-.61.55-.96.25-.91.74-1.67,1.28-2.41.66-.67.59-1.49.44-2.32.17-1.9.92-3.66,1.42-5.47.58-2.07,1.44-2.15,3-.56.8.82,1.28,1.87,1.96,2.74,4.26,5.45,9.33,9.84,16.25,11.59.19.41.54.51.94.5.46-.01.92-.04,1.37-.07,4.03-.52,6.16-2.24,6.38-5.12.22-2.94-.02-5.84-.43-8.77-.24-1.68-.68-3.5-.21-5.35,1.1.34,2.02.63,2.95.91,4.18,1.25,6.27-.2,6.51-4.49.02-.38,0-.76,0-1.14,0-.59,0-1.18-.02-1.78,0-.52.05-1.06-.42-1.45-.08-.78-.09-1.57-.54-2.25.08-.8.29-1.63-.52-2.22-.5-.62-.67-1.37-.78-2.13-.31-2.17-1.75-3.85-2.51-5.83-1.24-1.04-1.67-2.72-2.97-3.73-.28-.22-.5-.6-.6-.94-.29-.99-.84-1.79-1.62-2.45-.22-.19-.48-.45-.51-.71-.13-.96-.86-1.58-1.28-2.37-.46-.86-.94-1.72-1.45-2.56-.49-.79-.48-1.88-.7-2.84,0-2.49,0-4.98,0-7.47.4-2.6,1.56-4.92,2.62-7.28.21-.48.54-.91.85-1.34,1.85-2.54,3.45-5.26,5.59-7.59.15-.17.31-.35.39-.56.42-1.05,1.16-1.88,1.83-2.76.82-1.07,1.7-2.12,2.44-3.25.57-.88.96-1.83,2.09-2.23.44-.16.81-.69,1.09-1.12,1.39-2.17,2.59-4.43,2.96-7.03.71-.51.27-1.25.38-1.88.06-.13.06-.25.01-.38.01-.33.02-.66.03-.98.16-.41.39-.81.47-1.24.33-1.74.61-3.5.91-5.24.81-.98.57-2.1.43-3.21.08-.13.09-.27.04-.41.18-.56.01-1.03-.39-1.43-.1-.59-.12-1.18-.04-1.78.09-.74-.44-2.39-.94-3.25-.12-.96-.34-1.9-.92-2.7l-.04-.04c-.28-.48-.55-.95-.83-1.43,0-.31-.08-.65-.35-.77-.85-.38-1.36-1.13-2-1.73-.38-.36-.82-.63-1.34-.72-.18-.42-.52-.51-.94-.45l-.1-.12-.14.06c-.61-.41-1.22-.82-1.96-.95-.1-.25-.28-.38-.56-.36h0c-.17-.36-.5-.47-.85-.55-.06-.26-.21-.42-.51-.41-.56-.53-.97-1.25-1.83-1.39-1.31-1.27-2.23-2.83-3.34-4.25-1.27-1.63-2.14-3.41-2.76-5.34.02-1.24.05-2.48.07-3.72.16-.9.16-1.87.52-2.68.35-.8,1.06-1.45,1.6-2.17.14-.18.27-.37.36-.58.66-1.51,1.91-2.33,3.39-2.84,1.48-.51,2.84-1.16,3.58-2.66.14-.28.35-.47.68-.56,1.84-.47,3.67-.96,5.51-1.45,1.92.19,2.87.11,4.23-.33.28,0,.57-.02.85-.03.64.47,1.27.68,1.88-.05.59-.29,1,.04,1.4.41.17.14.33.37.52.4,1.64.21,3.29.15,4.94.01.16-.01.3-.3.45-.45.17-.15.31-.38.51-.44,2.18-.63,3.89-1.95,5.42-3.56.98-1.03,2.09-1.95,2.62-3.33,1.35-.88,1.97-2.24,2.47-3.69.19-.56.79-.98.62-1.67-.17-.7-.64-1.32-1.15-1.67-1.03-.72-1.9-1.8-3.32-1.82-.33,0-.6-.15-.79-.4-1.21-1.63-2.97-2.84-3.68-4.84-.83-.51-.76-1.64-1.54-2.21-.88-.64-.6-1.83-1.13-2.68-.6-.97-1.03-2.04-1.45-3.1-.84-2.12-1.63-4.25-2.19-6.47.04-1.56.06-3.11-.32-4.63-.04-.15-.08-.31-.12-.46-.01-.14-.04-.27-.09-.4.28-.93.1-1.86.07-2.8-.18-1.42.54-2.66.8-3.98.83-4.15,2.67-7.9,4.67-11.54,1.04-1.89,2.9-3.27,4.05-5.15,1.94-1.29,3.48-3.09,5.59-4.18,1.07-.55,2-1.38,2.97-2.11,1.34-1.01,2.21-2.49,3.68-3.35,1.17-.69,2.18-1.67,3.38-2.3,2.44-1.27,4.69-2.76,6.66-4.69.34-.6.89-.49,1.42-.44.22-.48.63-.5,1.08-.45h0l.17.02.09-.15c.15-.23.36-.34.64-.34.14.06.23.02.29-.11.16-.13.31-.26.47-.38.03-.35.06-.7.1-1.05-.95-.34-1.96-.35-2.95-.44Zm-19.06,13.03c-.7.47-1.4.9-1.85,1.64-.27.45-.74.53-1.2.46-.75-.1-1.49-.25-2.23-.39-.18-.13-.35-.36-.53-.36-1.71-.07-3.43-.07-5.13.17-.13.02-.24.17-.36.26-.3,0-.6-.02-.91-.02-.23-.4-.58-.49-1-.37-.8-.08-1.42-.58-2.03-1.01-2.05-1.44-3.81-3.19-5.26-5.33,1.3-.43,2.45-.81,3.61-1.19.33.08.66.22,1.01.07.14.04.27.03.39-.04.53.05,1.04.05,1.48-.31,1.5-.45,3.12-.34,4.58-.96.32.08.63.09.92-.08.13.02.26.02.39-.02,1.14.23,2.23.09,3.3-.36.28-.04.55-.08.83-.12.82.02,1.68.36,2.4-.33.35-.26.67-.58,1.19-.44.51.14,1.03.2,1.52-.09.98,0,1.97,0,2.95-.01.32,0,.58-.14.78-.39.14-.05.29-.06.44-.02-.02.28-.04.56-.06.85-.77.47-1.53.94-2.3,1.41-.42.02-.73.19-.67.65.05.39.42.34.69.33.51-.02,1.04-.04,1.42-.46,1.19-.42,2.52-.3,3.63-1,.47.25,1.2-.17,1.48.57-1.75,1.06-3.33,2.33-4.93,3.6-1.47,1.17-3.02,2.26-4.58,3.32Zm-5.94,5.49c-2.08,1.15-3.23,3.14-4.57,4.96-1.02,1.39-1.8,1.5-3.27.75-3.39-1.74-6.04-4.31-8.42-7.21-.34-.41-.72-.79-1.08-1.18-1.29-1.42-2.16-3.1-2.96-4.81-.3-.64.22-.97.69-1.25.52.02,1.03.04,1.41-.42.12-.04.25-.08.38-.12.43.11.79.06.92-.45.44-.38.82.01.9.27.49,1.5,1.68,2.51,2.59,3.69,2.73,3.51,6.31,5.09,10.79,4.32.83.15,1.67.29,2.39-.34.29,0,.59-.02.88-.02l.04.92c-.23.31-.39.73-.69.9Zm-9.92,16.61c-.04.06-.08.13-.11.2-.53.95-.51,1.98-.35,3.02-.42.89.13,1.81-.06,2.71-.7.53-.42,1.24-.37,1.91-.06.14-.07.28-.01.42-.08,1.42-.24,2.85.39,4.2.02.13.05.25.1.37-.12.97-.32,1.96.4,2.81.36,1.62,1.42,3.02,1.46,4.74,1.08,1.47,1.04,3.52,2.45,4.82.07.96.77,1.63,1.17,2.43,1.23,2.46,2.8,4.67,4.77,6.6.32.31.7.68,1.11.77,1.21.28,2,1.4,3.29,1.51.39.04.54.58.29.94-.79,1.12-1.21,2.44-2.01,3.58-1.44,2.04-3.44,3.43-5.31,4.98-1.14.95-2.65,1.13-4.08,1.38-.22.04-.5.09-.68,0-1.08-.56-2.26-.27-3.39-.41-.92-.75-1.86-.68-2.81-.07l-.19.03-.19-.03c-.26-.35-.57-.54-1.01-.33h-.18s-.17.04-.17.04c-.98-.12-1.98-.42-2.85.34-.27.12-.54.34-.81.34-1.98-.01-3.75.81-5.5,1.53-.64.26-1.27.36-1.9.52-.44-.18-.77-.06-1,.35-.29-.02-.57-.04-.86-.07-.15-.28-.39-.4-.7-.37-.43.04-.86.08-1.28.13-1.86.03-3.55-.6-5.27-1.19-2.79-.95-5.21-2.37-7.17-4.66-1.09-1.28-1.99-2.66-2.95-4.02-1.4-1.99-2.35-4.23-3.47-6.38-.4-.77-.88-1.56-.82-2.57.03-.63-.38-1.31-.68-1.92-.97-2.01-1.61-4.11-1.81-6.34-.05-.53-.18-1.06-.27-1.58-.31-1.72-.32-1.78,1.28-2.21.95-.25,1.53-.97,2.29-1.46.93-.6,1.63-1.4,2.06-2.55.51-1.32,1.25-2.57,1.75-3.92.76-1.5.41-3.09.4-4.65.13-.51.41-1.03.38-1.54-.09-1.4.23-2.73.46-4.09.39-2.34,1.38-4.49,2-6.75.77-2.79,2.76-4.8,4.24-7.14.08-.13.15-.32.27-.35,1.24-.34,1.72-1.59,2.75-2.24.97-.61,1.97-1.32,2.71-2.26.09-.12.18-.27.3-.32,2.31-.98,4.2-2.64,6.3-3.95.5-.32,1.11-.48,1.68-.69,1.09-.39,1.1-.38,1.59.73.06.14.07.32.17.42,1.31,1.49,1.91,3.43,3.12,4.95,1.08,1.36,2.32,2.59,3.5,3.88.91.18,1.05,1.22,1.86,1.61.63.3,1.3.71,1.75,1.4.25.39.88.57,1.38.74.51.17,1.03.26,1.48.57.67.47,1.88.45,2.02,1.31.13.83-.14,1.88-.61,2.6-.72,1.11-1.03,2.33-1.51,3.51-.23.56-.51,1.11-.76,1.66Zm-6.96,93.53c-.32.26-.4.64-.4,1.02-.01,1.36-.01,2.72-.02,4.08-.11.28-.33.56-.31.83.1,1.72-.75,3.32-.61,5.03.06.73-.46,1.25-.52,1.92-.11,0-.23.03-.33.06,0,.13-.01.27-.03.4-.06.48-.18.96-.01,1.44-.04.13-.08.25-.12.38-.37.19-.45.53-.43.91l-1.27.1c-.52.12-.88.39-.9.97-.02.12-.06.23-.11.35-.11,0-.22,0-.33,0-.03,0-.06,0-.09,0,0-.01,0-.03,0-.04,0-.02,0-.03,0-.05-.02-.14-.03-.28-.05-.42.01-.22-.07-.36-.26-.41-.04-.01-.07-.02-.12-.02-.04-.27-.19-.42-.46-.46-.04-.27-.21-.41-.45-.47-.03-.26-.13-.45-.39-.53-.05-.26-.22-.4-.48-.45-.21-.53-.47-1.02-1.02-1.28h0c-.03-.27-.19-.42-.44-.48-.02-.27-.14-.45-.42-.5-.05-.26-.21-.41-.47-.45-.05-.28-.18-.5-.44-.63l-.02-.18-.17-.07c0-.25-.13-.37-.37-.38l-.04-.04c-.18-.42-.49-.7-.85-.95,0-.32-.17-.44-.47-.45h0c-.14-.17-.31-.31-.43-.49,0,0,0,0,0,0,0-.17-.02-.31-.07-.43-.07-.17-.18-.3-.33-.39-.12-.08-.27-.14-.44-.17-.03-.23-.09-.44-.16-.65-.14-.36-.35-.68-.61-.96-.21-.22-.44-.42-.71-.6h0c0-.3-.13-.5-.4-.63.1-.29.12-.56-.15-.77.02-.26-.08-.46-.32-.59.1-.12.08-.23-.05-.32.11-.44-.09-.71-.48-.88l-.02-.03c-.12-.48-.02-1.02-.4-1.41-.04-.64-.01-1.3-.48-1.82h0c.04-.67.21-1.36-.45-1.86,0-1.11,0-2.23.01-3.34,0-.46,0-.91,0-1.37,0-.42,0-.84,0-1.26.35-.5.3-1.09.38-1.65.07-.44.13-.85.49-1.14.07-.79-.12-1.62.35-2.34,0,0,0,0,0,0,0,0,0,0,0,0h0c.21-.77-.15-1.66.51-2.32.05-.27.09-.54.14-.81.54-.3.48-.83.49-1.32.1-.08.2-.09.31-.01,0,0,0,0,0,0,.06.3.26.38.54.36.77.62,1.35,1.41,1.9,2.22.27.06.4.25.45.5.23.03.46.05.69.08.04,0,.09.01.13.02,0,0,0,0,0,.01,0,.03.01.06.02.09.03.16.06.32.09.49.01.06.02.12.03.18.35.17.7.34,1.06.52,0,0,0,0,0,0l.15-.03.07.13c.25.16.5.32.74.48,1.08.7,2.17,1.4,3.41,1.8.11.03.21.07.32.1,0,0,.01,0,.02,0,.11.26.31.36.58.33,0,0,0,0,.01.01.21.32.48.52.88.48,0,0,0,0,0,0,.03.09.06.19.08.28,0,.01,0,.03.01.04,0,.02,0,.03.01.05.04,0,.08.02.11.03.02,0,.04.01.06.02.18.05.36.09.55.14,0,0,0,0,0,0,.07.14.14.28.22.41.25.44.57.84.95,1.19.07.06.13.12.2.18.02.01.03.03.04.04.05.27.24.38.49.42,0,0,0,0,0,0,.04.37.07.75.11,1.12,0,.02,0,.05,0,.07,0,.02,0,.05,0,.07,0,0,0,0,.01,0,.03,0,.06.02.09.02.09.02.18.03.27.06,0,0,0,0,0,0,.01.24.03.49.04.73l.03.62c.13.02.25.05.38.09,0,.8.02,1.59.33,2.37.33.83.25,1.74.13,2.62Zm-8.28,16.16c.17.13.32.29.47.44-.16-.15-.31-.29-.47-.44,0,0,0,0,0,0Zm-7.77-54.64c-1.06.84-1.61,1.95-2.09,3.19-.29.75-.4,1.67-1.14,2.21-.16,1.17-.97,2.26-.58,3.48.21.65-.09,1.21-.01,1.8.19,1.44.77,2.76,1.4,4.04.23.46.54.91.77,1.39.36.76,1.04,1.5,1.05,2.26.01.73-.62,1.49-1.02,2.22-.38.69-.34,1.48-.52,2.21-.47,1.9-1.17,3.76-1.18,5.76h0s0,0,0,0c-.58.8-.42,1.76-.47,2.64-.12,2.18-.12,4.36.47,6.5-.1.14-.07.26.08.34-.04.38-.05.75.3,1.01.02.21.03.43.05.64.02.18.05.36.12.53.08.21.21.41.43.57h0c0,.52-.14,1.08.43,1.41.01.38.17.68.47.91-.04.29.08.47.35.56.07.36.27.63.58.81h0c.14.17.32.31.4.52,0,0,0,0-.01,0-.13-.17-.26-.34-.39-.51-.02.29.11.46.39.53.05.27.21.46.47.56-.08.13-.05.23.08.3-.03.16-.05.32-.04.46.01.15.07.28.2.38.06.05.14.09.24.12.04.25.13.46.4.53.07.27.28.35.52.39.07.34.13.69.53.81l.05.05c.11.22.22.45.32.67v.2s.18.09.18.09c0,.24.12.38.35.43h0c.13.19.29.33.41.5,0,0,0,0,0,0-.14-.16-.28-.32-.41-.48,0,.29.15.44.41.5.03.26.15.45.42.5.04.26.2.41.45.47.04.26.21.4.46.45.07.35.13.7.56.8l.04.03c.03.25.17.39.42.43l.03.03c.02.26.14.44.42.47h0c.03.29.2.41.47.42l.04.03c.16.37.48.47.84.51.06.25.21.41.48.44.04.28.2.42.49.38l-.05.13c.08.11.17.19.26.25.46.33,1.05.14,1.58.17,0,0,.01,0,.02,0,0,.29-.01.58-.02.86-1.17,1.87-2.11,3.9-3.55,5.59-.66.77-.59,1.87-1.46,2.54-.71.54-1.39,1.25-1.78,2.04-.72,1.45-1.93,2.53-2.7,3.95-.59,1.11-1.52,2.03-2.31,3.04-.23.3-.49.58-.71.89-.52.71-.39,1.7-1.27,2.34-.66.49-.97,1.53-1.26,2.32-.68,1.83-1.41,3.67-1.64,5.66-.09.82.33,1.66-.19,2.47-.48.75.09,1.58-.14,2.44-.26.99-.08,2.07.32,3.13.45,1.2.54,2.54,1.15,3.7.94,1.8,1.82,3.63,3,5.3,1.97,2.8,3.89,5.64,5.78,8.5.8,1.21,1.49,2.49,2.14,3.77.31.6.58,1.3.6,1.97.04,1.08.41,2.08.55,3.11.2,1.49.69,2.9,1.04,4.35.15.62.16,1.22.1,1.81-.18,1.7-.82,1.87-2.09,1.63-.75-.14-1.46-.28-2.16-.64-.74-.38-1.66-.43-2.36-.86-1.13-.7-1.85-.27-2.54.59-.13.17-.23.35-.33.52.08-.18.18-.36.33-.52-.23-.01-.44.04-.6.15-.14.09-.24.23-.28.4-.06.27-.09.54-.11.81-.09,1.31.21,2.62.09,3.93-.03.31.09.59.36.77.08.44.07.93.25,1.32.31.66.38,1.25.06,1.94-.09.19.15.54.24.82-.03.91-.11,1.83-.08,2.74.03.97-.2,1.99.45,2.87-.12.26-.39.55-.35.79.2,1.18-.63,1.51-1.45,1.87-1.25.04-2.5.27-3.75-.03-.27-.06-.58.08-.87.12-1.45-.65-2.92-1.25-4.34-1.95-.91-.46-1.77-1.02-2.63-1.59-1.57-1.05-2.62-2.74-4.42-3.49-.25-.1-.51-.37-.61-.63-.67-1.74-1.93-3.01-3.3-4.2-.32-.28-.32-.68-.5-1-.69-1.2-1.48-2.31-3.05-2.43-.78-.64-1.56-.72-2.35,0-2.03,1.79-3.07,4.05-3.36,6.73-.12,1.11-.57,2.18-.87,3.27-.12.44-.27.87-.35,1.31-.25,1.35-.79,2.04-1.98,2.04-1.42,0-2.85.13-4.24-.57-1.55-.79-3.23-1.33-4.85-1.98-.14-.06-.29-.11-.44-.12-2.03-.06-3.53-1.24-5.07-2.36-.18-.39-.5-.52-.9-.48.03-.52.04-1.03-.52-1.31-.09-.13-.17-.25-.26-.38-.8-1.19-1.39-2.43-1.77-3.85-.57-2.12-1.73-3.99-3.12-5.74-1.13-1.42-2.31-2.76-3.57-4.07-1.06-1.1-2.27-1.72-3.65-2.17-.19-.45-.53-.55-.97-.4-.3,0-.6,0-.9,0-.6-.01-1.2-.03-1.8-.03-.4,0-.75.08-.92.5-1.47.49-2.5,1.67-3.7,2.54-.72.53-1.61.85-2.18,1.59-.52.67-.43,1.65-1.15,2.21-.2.12-.39.21-.56.27.17-.08.35-.16.56-.27-.22.02-.44.03-.66.07-.72.16-1.13-.09-1.26-.83-.04-.2-.2-.39-.31-.58,0-.14-.03-.28-.07-.41.23-.79.02-1.57-.02-2.36.05-.13.04-.26-.02-.39.12-.32.21-.64.07-.97.92-2.02.46-3.74-1.23-5.09-.56-.45-.39-1.38-1.21-1.57-1.05-1.5-2.69-2.4-3.86-3.8-1.13-1.34-2.58-2.42-3.67-3.78-1.37-1.71-2.86-3.35-3.82-5.38-.41-.88-.92-1.75-1.52-2.56-.57-.77-.37-1.96-1.25-2.63-.09-1.31-.74-2.52-.85-3.79-.16-1.97-.86-3.87-.55-5.9.18-1.18-.19-2.45.02-3.62.21-1.13.28-2.26.49-3.38.32-1.7.73-3.4,1.27-5.04.29-.88.39-1.79.64-2.67.3-.03.45-.17.39-.48v-.03c.19-.14.29-.29.36-.45.04-.11.07-.22.08-.33.04-.35-.02-.72,0-1.07.23-.31.63-.6.65-.92.07-1.22.96-2.02,1.42-3.03.47-1.03,1.04-2.01,1.56-3.01h0c.24-.08.43-.2.59-.33.35-.29.53-.69.65-1.13.07-.26.13-.53.19-.8.74-1.13,1.09-2.48,2.01-3.5.81-.89,1.34-1.93,1.93-2.98,1.21-2.16,2.67-4.2,5.15-5.16.2-.08.37-.26.55-.39.62-.13,1.35.21,1.83-.47h0c.96.05,1.95.25,2.82-.4.34.08.52.33.41.64-.46,1.3-.96,2.6-1.44,3.89,0,0,0,0,0,0h0c-.13.17-.36.33-.38.51-.11,1.26-.16,2.52.39,3.71.17.58.3,1.18.52,1.75.55,1.4.92,2.93,2.38,3.77.24.14.37.48.56.71.63.77,1.28,1.51,2.35,1.69.29.05.65.17.82.38.78.99,1.97,1.04,3.02,1.42.17.11.35.32.53.33,1.24.03,2.48.02,3.72.02.29,0,.59-.02.88-.03.54.11,1.05.09,1.47-.33,1.34-.5,2.67-1.01,4.01-1.5.11-.04.31,0,.39.09.08.08.1.26.09.39-.11.76-.82,1.31-.75,2.13.02.2.11.49.25.56.15.08.49.02.61-.11.73-.77,1.5-1.52,2.1-2.39.95-1.36,1.8-2.8,2.64-4.23.66-1.12,1.12-2.31,1.36-3.61.25-1.35.64-2.67,1.07-3.98.38-1.17,1.01-2.14,2.22-2.73,1.23-.61,2.17-1.63,3.11-2.62.88-.93,1.97-1.62,2.82-2.6,1.73-1.98,3.56-3.87,5.37-5.78.34-.36.52-.74.49-1.22.24-.08.46-.18.66-.29.42-.24.74-.6.81-1.24.12-1,1.31-1.25,1.66-2.11.2-.48.19-1.03.32-1.54.09-.36.25-.69.62-.95.04-.02.07-.05.1-.08.42-.34.51-.82.49-1.33,0-.03,0-.06,0-.08-.03-.43-.1-.86-.15-1.28.12-.12.15-.25.08-.4,0,0,0,0,0,0,.76-2.53.72-5.06.05-7.6l.05-.16-.13-.09h0c.01-.43-.02-.86.04-1.28.09-.61-.04-1.14-.44-1.6.1-.14.08-.25-.07-.34.07-.41-.06-.71-.44-.89v-.02c0-.19,0-.39,0-.58-.01-1.04-.24-2.06-.57-3.03-.48-1.44-.8-2.94-1.42-4.35-.45-1.03-.58-2.22-.11-3.34.19-.46.29-.9.07-1.32-.53-1.01-.91-2.14-1.78-2.91-1.63-1.46-2.71-3.2-3.13-5.38-.19-.96-.59-1.9-1.33-2.63-.17-.42-.54-.44-.92-.45-.59-.01-1.18-.04-1.77-.07h0c-.62-.65-1.15-1.25-1.26-2.29-.11-1.09-.73-2.12-1.13-3.18-.01-.62-.02-1.24-.03-1.86.76-.62,1.47-1.34,2.48-1.58.29-.07.57-.24.81-.43,2.03-1.62,4.43-2.22,6.92-2.62.3-.05.59-.15.9-.19.45-.07.63-.38.74-.76.11-.39.07-.8-.27-1.04-.73-.54-1.51-1.22-2.48-.73-.87.44-1.86-.24-2.65.42-1.11-.07-2.22-.18-3.23.45-.6.17-1.2.35-1.8.52-.37-.02-.75-.11-1.11-.06-.61.1-.82-.12-.77-.7.02-.22-.03-.44-.04-.66.26-.93.29-1.98,1.32-2.5.95-2.1,2.95-3.12,4.61-4.49.35-.29.85-.43,1.12-.77.76-.96,1.95-1.06,2.95-1.33,2.09-.58,4.16-1.23,6.19-1.98.55.33.51.89.51,1.4,0,.54-.04,1.06.4,1.46.44,2.75,1.59,5.25,2.78,7.73,1.12,2.33,2.36,4.62,4.24,6.47,2,3.3,4.95,5.76,7.58,8.5.9.94,1.93,1.73,3.07,2.36.41.23.8.45,1.08.84.32.45.71.79,1.3.85.22.02.48.12.62.27.98,1.02,2.14,1.65,3.54,1.9.59.1.76.87.29,1.24Zm-37.88,177.65c-.55.94-.78,1.88.02,2.82-.02.29-.03.57-.05.86-.11.19-.33.37-.33.56-.03,2.31-.19,4.62.04,6.93-.05.22-.18.47-.14.67.42,1.77-.78,2.82-1.76,3.96-.19.22-.48.45-.75.48-1.86.2-3.64.64-5.6.22-2.38-.51-4.64-1.55-7.11-1.63-.72-.02-1.04-.95-1.84-.79-1.54-.78-3.42-.72-4.81-1.78-1.33-1.02-2.92-1.55-4.28-2.52-1.28-.92-2.66-1.71-3.89-2.73-.42-.35-1.04-.5-1.5-.89-.06-.05-.12-.11-.17-.17,0,0,0,0,0,0-.02-.12-.04-.22-.08-.32-.09-.23-.24-.39-.45-.51-.1-.06-.22-.1-.35-.14-.08-.27-.27-.38-.55-.37,0,0,0,0,0,0-.15-.15-.31-.29-.4-.49,0,0,0,0,0-.02,0-.13-.02-.23-.07-.31-.04-.07-.09-.12-.17-.16-.06-.03-.12-.04-.2-.05-.32-.29-.64-.58-.96-.87,0-.15-.02-.27-.06-.38-.06-.14-.16-.24-.28-.31-.17-.1-.39-.15-.62-.19,0,0,0,0,0,0-.15-.15-.31-.3-.44-.48,0,0,0,0,0,0-.02-.19-.05-.37-.1-.54-.27-1.07-.97-1.93-1.52-2.87-.06-.1-.12-.2-.17-.3,0-.4-.2-.68-.51-.9.08-.59.04-1.15-.43-1.59l.05-.14-.12-.09c0-.43-.08-.83-.31-1.19-.03-.07-.07-.14-.14-.2-.18-.9-.36-1.8-.53-2.7.02-.11.04-.22.06-.33.08-.53.06-1.05-.31-1.5-.03-.04-.05-.07-.09-.11-.04-.13-.05-.26-.02-.4.06-.06.11-.12.16-.18.27-.35.33-.69.04-1.02-.06-.07-.13-.14-.22-.21.03-.36-.03-.75.1-1.07.05-.14.09-.28.13-.42.17-.56.27-1.14.31-1.72.02-.25.04-.5.05-.75.25.11.49.21.74.32,0,.39.13.7.48.9,0,.01,0,.03,0,.04.09.35.13.72.28,1.05.97,2.07,2.17,4.03,3.54,5.84.86,1.14,2.03,2.05,2.66,3.39.12.25.4.48.66.61.71.36,1.13,1.01,1.7,1.51.96.82,1.88,1.72,2.92,2.43,1.24.85,2.58,1.55,3.9,2.27,3.27,1.78,6.84,2.4,10.5,2.67,2.06.15,4.09.02,6.09-.49.45.16.86.03,1.24-.2.11-.07.17-.22.23-.35.07-.16,0-.25-.2-.28-.58-.11-1.15-.2-1.73-.05-.28-.04-.55-.07-.83-.11-1.06-.55-2.19-.49-3.32-.33-.45-.07-.91-.15-1.36-.21-1.89-.25-3.76-.54-5.59-1.08-1.9-.57-3.71-1.39-5.43-2.37-2.45-1.4-4.81-2.96-6.65-5.16-2.02-1.15-2.56-3.58-4.3-4.98-1.03-1.94-2.08-3.88-3.09-5.83-.47-.9-.9-1.82-1.33-2.74-.05-.11-.1-.21-.15-.32-.02-.14-.07-.28-.19-.4.11-.32.24-.64.35-.96.05-.14.09-.29.11-.44.05-.29.05-.58-.03-.9l.14-.13-.06-.18s0,0,0,0c.19-.38.39-.76.58-1.14.07-.14.14-.28.22-.42.01-.31.02-.62.03-.92,0-.02,0-.04,0-.05.03-.74.05-1.47.08-2.21.12-.03.24-.05.35-.08.1-.62-.23-1.35.44-1.82.05-.66,0-1.35.19-1.97.15-.54.13-1.39.67-1.54.86-.24.55.86.97,1.22.27.23.42.59.62.9.3.04.43.22.4.53h0c.07.06.11.12.14.2.15.2.29.39.44.59.78.17,1.09.77,1.33,1.44.24.04.43.16.52.39.86.09,1.05.8,1.33,1.43.26.07.37.27.42.52.26.02.45.13.52.4.28.05.44.24.55.49.34.04.69.08,1.03.12.12.32.28.59.53.76,0,0,0,0,0,0,.14.09.3.16.49.18.21.41.6.38.98.39.08.23.22.4.49.43h0c.11.18.23.3.36.39.24.16.51.2.8.2.2,0,.4-.01.6-.03.1.23.27.36.53.37-.17-.12-.34-.25-.51-.37,0,0,0,0,.01,0,0,0,0,0,0-.01.2.08.34.24.5.38h0c.52.51,1.13.81,1.84.95.14.04.27.07.41.11.12.11.24.2.37.28,1.02.66,2.29.53,3.39.94,1.37.8,2.75.77,4.14.05h.12s.08-.02.08-.02l.19.05s0,0,0,0c.16.13.34.38.49.36.92-.07,1.84.12,2.75.11.33,0,.66-.03.99-.11.06.03.11.05.17.06.07.02.15.03.23.02,1,.38,2.02.57,3.05.53.38-.02.77-.06,1.15-.14.14.03.27.02.4-.03.37.08.73.13,1.09.14.81.03,1.6-.11,2.38-.4.09-.03.18-.07.27-.1.13-.03.27-.07.4-.08.01,0,.02,0,.03,0,.92,0,.92,0,.95,1,0,.15,0,.29.01.44l-.13.09.04.16h0c-.59.4-.32,1.04-.42,1.57,0,.02-.02.04-.03.06-.5,1.09-.52,2.21-.42,3.35.02.23.05.46.07.69,0,.04,0,.08.01.12-.06.13-.11.25-.15.38-.27.74-.35,1.51-.37,2.28,0,.31,0,.61,0,.92.02,2.55-.25,5.11.05,7.66.04.32-.04.66-.08.99,0,.05-.01.09-.02.14Zm-41.53-3.1c0-.06-.01-.11-.03-.16.02.05.03.1.03.16h0Zm16.27-51.77h0c-.03.34.13.49.46.48,2.73.9,3.5,3.59,5.12,5.53,1.52,1.82,2.09,4.06,2.89,6.18,1.47,3.87,3.98,6.44,7.99,7.62,2.82.83,5.58,1.9,8.36,2.86.88.6,1.84.62,2.84.37.51.28.99-.01,1.6-.1-.45,1.72-1.36,3.28-1.26,5.08-.13.05-.25.11-.38.16,0,.24,0,.47,0,.71,0,.38,0,.76,0,1.14h0c-.11.04-.22.06-.33.06-.02,0-.04,0-.06,0,0,.03,0,.07,0,.1,0,.1-.03.2-.07.29-.06,0-.11,0-.17,0-.02,0-.05,0-.07,0-.06,0-.11.02-.17.04,0,0,0,0,0,0,0,.04,0,.08,0,.13,0,.1-.02.2-.02.3,0,0,0,0,0,0h0s-.08,0-.12,0c-.58,0-1.16-.02-1.74-.03l-4.14-.07c-1.09.19-2.18.36-3.26-.04-.32.04-.63.08-.95.12-.15.02-.3.04-.45.06-.02,0-.04,0-.05,0-.09-.01-.19-.02-.28-.03-.19-.02-.38-.04-.56-.06l.07.12c-.19,0-.38,0-.56-.01l.07-.12c-.09,0-.18.02-.27.03-.07,0-.14.02-.21.02,0,0,0,0,0,0-.02-.05-.04-.1-.06-.15-.03-.08-.06-.17-.09-.25-.24-.04-.48-.09-.71-.13,0,0,0,0,0,0h0c-.18-.17-.36-.33-.55-.5-.4.04-.8.07-1.2.11-.01,0-.02,0-.03,0-.04,0-.08,0-.13.01,0,0,0-.01-.01-.02-.13-.16-.26-.31-.39-.47-.77-.19-1.62.01-2.32-.48-.22-.41-.54-.54-.98-.38-.13-.03-.26-.06-.4-.09-.69-.57-1.52-.44-2.32-.44-1.03-.65-1.94-1.49-3.12-1.89-.07-.02-.15-.04-.21-.09-4.67-3.47-9.08-7.18-11.47-12.72,0-1.4,0-2.81-.01-4.21.23-1.12.39-2.25.72-3.34.3-1.01.64-2.04,1.55-2.73.12-.09.21-.22.29-.35.86-1.33,2.07-2.2,3.56-2.7l3.65-.11Zm1.3-80.55c.91.55,1.64.56,2.85.02.12-.09.24-.09.37-.02.17.27.42.39.72.39.72-.02,1.43-.05,2.15-.08,1.55.15,2.7,1.2,4.08,1.73,1.1.43,1.89,1.13,2.32,2.18.22.53.75.72.99,1.19-.13,2.04-.14,4.07,0,6.11-.05.27-.1.55-.15.82-.58.56-.41,1.26-.33,1.93h0c-.41.45-.89.85-1.21,1.35-.85,1.3-1.96,2.28-3.28,3.1-2.42,1.51-4.15,2.27-7.15,2.49-1.12.08-2.1-.35-3.14-.56-.21-.39-.53-.54-.97-.4h0c-.33-.44-.79-.58-1.31-.54-2.36-1.37-4.01-3.33-4.55-6-.65-3.2-.1-6.14,2.3-8.64,1.9-1.98,3.95-3.71,6.32-5.07Zm42.9-63.66c-1.92-3.15-3.37-6.49-4.01-10.16-.09-.53-.18-1.06-.22-1.59-.06-.88.07-1.02,1.08-1.47.37-.17.62-.07.66.29.37,3.29,1.39,6.43,2.1,9.64.19.86.87,1.44.93,2.31-.12.37-.02.85-.54.99Zm-52.81,66.29c-.14-.02-.28-.05-.42-.07.15,0,.3.03.42.07Zm-1.67,138.92s0,0,0,0c.18.02.3.1.38.23-.09-.12-.21-.2-.38-.23Z"/><path class="cls-1" d="m209.91,400.93c-.1-.06-.2-.11-.3-.17.1.06.2.11.3.17h0Z"/><path class="cls-1" d="m267.56,296.42c-.09-.15-.17-.29-.26-.44-.16-.26-.32-.53-.48-.79-.13-.08-.29-.12-.38-.24-1.62-2.13-3.22-4.27-4.83-6.41-.79-1.05-1.42-2.18-1.7-3.47,0-1.11,0-2.22,0-3.33.06-.25.12-.5.17-.76.1-.06.21-.1.31-.13v-.43c0-.07,0-.14.01-.22,0-.24,0-.48.01-.72.09-.12.12-.25.09-.39.2-.21.29-.46.36-.73.05-.21.08-.42.13-.63.06-.27.14-.52.31-.74,0-.01.01-.02.02-.03l-.08-.12.09-.11c.14-.68-.2-1.47.45-2.04,0,0,0,0,0,0-.03-.05-.09-.11-.09-.16.01-.11.05-.22.08-.33h0c-.28.07-.56.15-.84.22-.04.16-.08.31-.12.47.03.28-.06.5-.3.65,0,0,0,0,0,0,.05.12.01.21-.11.27,0,.38-.06.73-.39.98,0,0,0,0,0,0,.04.16,0,.3-.14.4,0,.14.03.28.08.41,0,0,0,0,0,0,0,0,0,.01,0,.02h0s-.02,0-.03.01c0,0-.01,0-.02,0-.09.03-.18.07-.26.1,0,0,0,0-.01,0,0,.08,0,.16,0,.24,0,.2-.02.39-.02.59-.09.12-.13.25-.11.4-.4.4-.49.89-.43,1.43-1.15,3.1-.73,5.95,1.27,8.6,1.92,2.55,3.85,5.09,6,7.45.3.33.65.62,1.01.89.04.03.1.03.17.03.09,0,.18-.04.23-.08.08-.07.15-.29.1-.37-.1-.17-.2-.34-.3-.51Z"/><path class="cls-1" d="m260.81,274.89c-.1.22-.28.39-.3.65.1-.21.2-.43.3-.65Z"/><path class="cls-1" d="m245.33,319.08c-1.03-.58-2.17-.7-3.3-.91-.24-.35-.58-.45-.99-.42-.45.02-.91.03-1.36.04-.23-.38-.53-.57-.99-.4-.13,0-.25-.04-.36-.1-1.17-.76-2.46-.45-3.72-.42-.6,0-1.2,0-1.79,0-.65.01-1.36-.24-1.9.37-.13.06-.27.08-.41.03-.63-.54-1.25-.6-1.87.02-.13.06-.26.08-.39.08-1.28-.14-2.56-.3-3.78.32-.81.19-1.51.71-2.39.75-1.87.08-3.49.84-4.93,1.99-.29.23-.53.5-.9.66-1.36.58-2.43,1.56-3.48,2.57-1.03,1-2.08,1.97-3.12,2.95-.89.83-1.94,1.53-2.64,2.49-1.08,1.49-2.8,2.33-3.74,3.93-2.32,1.58-3.29,4.27-5.11,6.28-.85.94-1.09,2.41-2.13,3.32-.2.18-.28.54-.34.84-.19.91-.51,1.75-.93,2.58-.45.92-.54,1.92-.19,2.9.14.39.47.6.91.46.29-.09.56-.25.83-.38.33-.01.47-.25.61-.51.1-.17.3-.28.45-.42.17.15.33.33.52.44,1.03.61,2.02,1.39,3.14,1.77,1.27.44,2.03,1.59,3.26,2.01.43.15.86.31,1.3.44,1.96.62,3.96.96,6.01.96,1.41.01,2.84.2,4.19-.42,2.18-.11,4.18-.95,6.09-1.86,1.34-.64,2.52-1.66,3.97-2.09.73-.22.91-1,1.58-1.27,1.47-.59,2.37-1.82,3.25-3.06.17-.24.35-.49.58-.68,1.5-1.32,2.36-3.13,3.51-4.72,1-1.38,1.7-2.97,2.66-4.4,1.07-1.59,2.09-3.22,2.95-4.92,1.22-2.42,2.36-4.87,3.77-7.19.6-.98,1.05-2.04,1.54-3.08.18-.38.04-.72-.37-.95Zm-7.31,9.67c-.93,1.72-1.98,3.38-2.89,5.12-1.19,2.27-2.88,4.2-4.18,6.4-.73,1.24-1.5,2.49-2.58,3.46-1.1,1-1.96,2.29-3.47,2.8-.49.17-.89.58-1.34.87-.38.25-.73.59-1.15.73-2.37.8-4.58,2.11-7.14,2.32-2.32.03-4.64.06-6.95.08-.12-.03-.25-.05-.38-.03-.16,0-.33-.02-.49-.03-.21-.37-.48-.6-.94-.44-.07-.03-.15-.04-.21-.08-1.08-.65-2.52-.63-3.35-1.76-1.27-.37-2.21-1.31-3.35-1.9-.72-.37-1.19-.94-1.54-1.64.33-.77.71-1.52.97-2.31.13-.39.31-.68.62-.91.9-.68,1.09-1.83,1.75-2.65.66-.82,1.52-1.44,2.17-2.32.83-1.12,1.4-2.56,2.86-3.14,1.63-2.23,4.27-3.42,5.83-5.72,2.16-1.4,3.82-3.4,5.96-4.85,1.77-1.2,3.68-1.73,5.71-2.1,1.41-.25,2.94-.03,4.2-.96.11-.08.33-.13.44-.08,1.42.7,2.84-.45,4.25,0h0c.19.11.38.31.58.31,1.21.04,2.42.04,3.64.06.89.04,1.78.25,2.68.1.38-.06.74.08,1.03.34.25.51.96.75.86,1.47-1.18,2.28-2.34,4.57-3.56,6.84Z"/><path class="cls-1" d="m222.44,333.32c-.84-1.35-1.71-2.69-2.56-4.04-.27-.56-.6-.48-.95-.08-.13.04-.25.08-.38.11-.43-.1-.8-.07-.94.44-.29,1.46-.12,2.88.26,4.31.53,1.99,1.23,3.92,2.05,5.81.85,1.97,2.31,2.3,3.92.87.11-.1.18-.24.26-.37.52-.8.81-1.59-.05-2.35-.45-1.6-.72-3.25-1.62-4.69Z"/></svg>