<?xml version="1.0" encoding="UTF-8"?><svg id="Daggers" xmlns="http://www.w3.org/2000/svg" viewBox="0 0 480 640"><defs><style>.cls-1{fill:#49b749;}</style></defs><path class="cls-1" d="m294.14,249.78c.15-.15.31-.31.46-.46-.17.14-.31.31-.46.46Z"/><path class="cls-1" d="m293.68,251.62c.15-.15.31-.31.46-.46-.17.14-.31.31-.46.46Z"/><path class="cls-1" d="m300.13,336.88c.15-.15.31-.31.46-.46-.15.15-.32.29-.46.46Z"/><path class="cls-1" d="m294.6,264.99c-.15-.15-.31-.31-.46-.46.16.15.29.32.46.46Z"/><path class="cls-1" d="m325.93,306c-.15-.15-.31-.31-.46-.46.14.17.31.31.46.46Z"/><path class="cls-1" d="m318.09,243.33c-.17.14-.31.31-.46.46.15-.15.31-.31.46-.46Z"/><path class="cls-1" d="m293.68,343.33c-.15.15-.32.29-.46.46.15-.15.31-.31.46-.46Z"/><path class="cls-1" d="m232.86,207.84c-.15.15-.31.31-.46.46.17-.14.31-.31.46-.46Z"/><path class="cls-1" d="m233.32,207.38c-.15.15-.31.31-.46.46.16-.15.31-.3.46-.46h0Z"/><path class="cls-1" d="m233.78,206.46c-.15.15-.31.31-.46.46.17-.14.31-.31.46-.46Z"/><path class="cls-1" d="m228.71,215.21c-.15.15-.31.31-.46.46.17-.14.31-.31.46-.46Z"/><path class="cls-1" d="m226.87,218.44c-.15.15-.31.31-.46.46.17-.14.31-.31.46-.46Z"/><path class="cls-1" d="m225.95,247.93c.15.15.31.31.46.46-.16-.15-.29-.32-.46-.46Z"/><path class="cls-1" d="m243.44,305.08h.01v-.02s0,.01-.01.02Z"/><path class="cls-1" d="m250.81,299.09s.01,0,.02.01h0s-.01-.01-.02-.01Z"/><polygon class="cls-1" points="229.63 309.69 229.63 309.7 229.63 309.69 229.63 309.69"/><path class="cls-1" d="m278.01,351.17c-.15.16-.32.29-.46.46.15-.15.31-.31.46-.46Z"/><path class="cls-1" d="m279.85,350.25c-.15.16-.32.29-.46.46.15-.15.31-.31.46-.46Z"/><path class="cls-1" d="m226.87,249.78c.15.15.31.31.46.46-.15-.15-.29-.32-.46-.46Z"/><path class="cls-1" d="m291.83,344.25c-.15.16-.32.29-.46.46.15-.15.31-.31.46-.46Z"/><path class="cls-1" d="m280.77,349.78c-.15.16-.32.29-.46.46.15-.15.31-.31.46-.46Z"/><path class="cls-1" d="m278.93,350.71c-.15.16-.32.29-.46.46.15-.15.31-.31.46-.46Z"/><path class="cls-1" d="m231.48,256.69c.15.15.31.31.46.46-.14-.17-.31-.31-.46-.46Z"/><path class="cls-1" d="m275.71,352.55c-.15.16-.32.29-.46.46.15-.15.31-.31.46-.46Z"/><path class="cls-1" d="m230.56,255.77c.15.15.31.31.46.46-.15-.15-.29-.32-.46-.46Z"/><path class="cls-1" d="m265.57,362.23c-.17.14-.31.31-.46.46.15-.15.31-.31.46-.46Z"/><path class="cls-1" d="m300.59,336.42c.15-.15.31-.31.46-.46-.17.14-.31.31-.46.46Z"/><path class="cls-1" d="m178.96,368.72v-.04s-.01,0-.02,0c0,.01.01.02.02.04Z"/><path class="cls-1" d="m266.95,178.8c-.15.15-.31.31-.46.46.15-.16.32-.29.46-.46Z"/><path class="cls-1" d="m268.8,177.42c-.15.15-.31.31-.46.46.15-.16.32-.29.46-.46Z"/><path class="cls-1" d="m286.76,167.74c-.15.15-.31.31-.46.46.15-.16.32-.29.46-.46Z"/><path class="cls-1" d="m257.74,183.87c-.15.15-.31.31-.46.46.15-.16.32-.29.46-.46Z"/><path class="cls-1" d="m308.42,161.75c-.15.15-.31.31-.46.46.15-.16.32-.29.46-.46Z"/><path class="cls-1" d="m304.73,162.67c-.15.15-.31.31-.46.46.15-.16.32-.29.46-.46Z"/><path class="cls-1" d="m302.89,163.13c-.15.15-.31.31-.46.46.15-.16.32-.29.46-.46Z"/><path class="cls-1" d="m289.07,166.82c-.15.15-.31.31-.46.46.15-.16.32-.29.46-.46Z"/><path class="cls-1" d="m236.97,260.42s0,0,0,0c-.13-.17-.27-.34-.4-.51,0,.28.1.47.39.52.07.27.27.36.53.37-.17-.12-.34-.24-.51-.37,0,0,0,0,0,0Z"/><path class="cls-1" d="m349.34,161.36c-.49-.38-1.03-.54-1.66-.51-.96.04-1.92,0-2.87-.01-.2-.18-.42-.24-.64-.24-1.23-.39-2.56-.4-3.85,0-.06.02-.11.1-.16.15-.34.09-.69.16-.83.55h-.02s0,.01,0,.01c-.14-.02-.28,0-.41.05-.81.04-1.68-.39-2.38.36-.91,0-1.81-.01-2.72-.02,0,0,0,0,0,0h0c-1.2-.6-2.46-.58-3.75-.38-.29,0-.57,0-.86,0-.94-.26-1.88-.05-2.82-.02-.17,0-.32.24-.48.37l.06.12c-.36-.03-.72-.1-1.08-.07-.9.07-1.87-.24-2.67.43-1.26-.12-2.51-.07-3.7.42,0,0,0,0,0-.01-1.1.05-2.21.01-3.25.48,0,0,0,0,0-.01l-.04.02s0,0,0,0c0,0,0,0,0,0,0,0,0,0,0,0-.51.41-1.31-.08-1.75.54-.14-.04-.28-.03-.42.04-1.13-.2-2.24-.19-3.29.38-.47.13-1.06-.07-1.38.49-.56.37-1.29.02-1.83.45-.49.07-1.05-.09-1.42.4-.65.24-1.46-.14-2.02.49,0,0,0,0,0,0l-.16-.02-.07.15c-.27-.02-.41.12-.49.36-.49,0-.98-.02-1.47-.03-.37,0-.68.1-.86.44-1.12-.06-2.18.32-3.27.49-.16.03-.29.26-.43.42-.27.04-.55.09-.82.13-.81.02-1.67-.28-2.39.35-.22.08-.43.17-.5.42-.58.22-1.32-.09-1.79.52-.44-.03-.81.08-1.08.45,0,0,0,0,0,0l-.15-.07-.11.12c-.54-.06-1.05-.07-1.42.43-.39,0-.74.08-.97.44-.91.45-1.82.91-2.72,1.36-.42-.03-.7.16-.85.55h-.02c-.64.26-1.49.07-1.87.89-.27.04-.43.19-.47.46-.26.03-.41.19-.49.43-.41.03-.83.06-1.09.45,0,0,0,0,0,0l-.16-.03-.08.14c-.16.13-.3.29-.49.37,0,0,0,0,0-.01.16-.12.32-.24.49-.36-.28-.03-.46.09-.51.37-.34.15-.67.31-1.01.46,0,0,0,0,0,0l-.17-.09-.15.12c-.44-.1-.73.08-.93.46-.68.15-1.29.42-1.75.97l-.05.05c-.48.26-.97.52-1.45.77-.42-.03-.67.2-.86.54h-.01c-.93.07-1.35.93-2.07,1.31h0s-.13-.07-.13-.07l-.1.1c-.44-.1-.74.08-.97.44-.56.02-.84.35-.99.85-1.18.21-2.34.45-3.13,1.49-.39-.03-.72.1-.94.43-.28-.01-.45.13-.53.38-.34.08-.68.18-.87.51-.38.01-.67.21-.92.48-.95.06-1.23,1.11-2.04,1.38,0,0,0,0,0,0l-.14-.04-.08.12c-.28-.04-.47.06-.56.33-.25.05-.4.2-.49.44-.37.03-.71.13-.9.5-.74.31-1.29.84-1.75,1.47-.25.04-.45.14-.53.4-.27.02-.42.18-.48.44-.25.05-.41.21-.47.46-.74.28-1.31.78-1.8,1.38-.31.05-.52.23-.66.49.31-.03.53-.18.66-.46h0c-.12.29-.33.45-.66.46l-.14-.03-.07.12c-.16.14-.3.29-.49.39h0c.16-.13.32-.26.49-.39-.3-.03-.45.11-.5.39-.28.05-.39.24-.41.51.02.02.05.04.07.05,0,0,0,0-.01,0h0s-.05-.06-.05-.06c-.17.13-.34.26-.51.4-.32,0-.45.18-.45.48-.52.41-.9.95-1.57,1.23-.59.25-1.15.71-1.29,1.46-.19.17-.38.34-.57.51.31-.05.51-.2.59-.49,0,0,0,0,0,0-.06.33-.28.47-.6.49l-.14-.03-.08.13c-.16.13-.29.31-.51.36,0,0,0-.01,0-.02.17-.12.34-.23.51-.35-.28-.03-.46.09-.54.35-.5.1-.81.41-.95.89-.26.05-.41.21-.46.46-.48.15-.82.43-.88.96-.25.1-.32.3-.34.55.11-.17.22-.35.33-.52,0,0,0,0,0,0h0s0,0,0,0h0s0,0,.01,0c-.05.21-.24.34-.35.52l-.02.03c-.33.28-.65.55-.98.83-.61-.05-.89.3-1.02.83-.14.05-.32.07-.37.16-.63,1.16-1.6,2.01-2.56,2.87-.51.46-.92.98-1.14,1.64-.25.06-.41.22-.45.48-.27.05-.4.23-.42.5-.44.17-.48.53-.44.93l-.12.09.04.15c-.48.23-.92.5-.87,1.13-.32.23-.38.59-.42.95v.02c-.25.06-.42.18-.47.44h0c-.29.02-.44.17-.45.46h0c-.55.29-.52.81-.55,1.31-.24.06-.42.19-.47.46-.44.19-.46.56-.4.97-.24.27-.48.53-.46.92-.31.21-.49.5-.53.87-.4.2-.41.58-.42.96-.72.59-1.35,1.25-1.48,2.23-.37.24-.38.61-.36.99-.33.22-.5.52-.46.92-.29.25-.42.57-.39.95l-.13.08.04.15c-.4.27-.49.68-.46,1.12-.57.7-.32,1.55-.4,2.34-.38.16-.57.45-.58.86h0s0,0,0,0h0s0,0,0,0c-.61.86-.33,1.85-.39,2.79-.64.68-.52,1.51-.43,2.34l-.08-.06c-.11.19-.33.38-.33.57-.02,1.51,0,3.02.03,4.52,0,.19.22.37.34.55l.07-.05c.11.56.23,1.11.06,1.68-.08.28.04.53.28.7.04.37.1.73.12,1.1.01.31.07.58.35.75.04.3.24.47.5.59-.04-.3-.19-.5-.47-.6,0,0,0,0,0,0,.29.09.44.3.47.6l-.06.15.12.11c.11.63-.28,1.38.46,1.85.03.25.15.43.37.53-.09.67-.05,1.31.48,1.82-.03.4,0,.77.44.95.05.26.2.41.44.48.02.5.02,1.01.52,1.33,0,.39.15.7.47.92.02.64.46,1.02.91,1.39.02.38.18.68.49.9-.02.3.15.44.41.51.07.35.2.66.53.86,0,.6.42.88.87,1.13,0,0,0,0,0,0l-.05.15.13.09c.15.15.32.3.41.51,0,0,0,0,0,0-.13-.17-.27-.33-.4-.5-.05.31.1.47.38.52.06.24.21.39.44.49,0,.38.02.76.47.9.07.28.26.39.53.4.06.26.22.39.48.42l.02.02c.13.25.25.49.38.74,0-.01,0-.03,0-.04,0,.01,0,.03,0,.04l-.06.1.08.09c-.09.44.15.71.5.91h0c.14.18.32.32.4.53.2.08.33.26.51.37l.03.02c.11.18.28.32.39.5-.03.39,0,.76.4.97.03.39.22.69.52.94-.09.15-.06.27.08.37-.08.28.03.48.29.58.37.67.73,1.35,1.12,2.01.06.1.24.12.36.18.12.33.04.75.4.98.02.3.23.39.48.45.08.34.16.67.55.8l.04.04c.01.26.17.4.41.47h0c-.05.91.34,1.63.93,2.27l.02.04c-.01.29.15.43.41.49.02.26.12.46.37.55.19.67.64,1.17,1.04,1.71v.02c0,.29.17.43.44.48.04.25.13.46.4.52.05.29.25.39.52.4,0,0,0,0,0,0,.17.14.32.3.47.45h0c0,.66-.05,1.34.83,1.48.08.34.17.67.58.78l.03.03c.03.25.14.43.39.5,0,.3.14.47.45.48.31.3.61.6.92.91.02.31.21.43.49.45.13.17.25.34.38.51,0,.41.15.71.54.87.01.27.13.46.4.52.04.26.2.41.44.49.05.63.47,1.01.96,1.34.03.31.24.39.51.43.05.24.17.42.41.51.03.64-.11,1.32.43,1.84-.06.15-.03.29.09.41l.08,4.67c-.21.72-.31,1.44-.17,2.18-.64.51-.34,1.23-.41,1.87-.34.21-.51.51-.5.91-.61.82-.93,1.74-.92,2.76-.62.44-.67,1.17-.95,1.79-.26.1-.34.31-.33.58v.03c-.66.42-.45,1.3-.99,1.78-.47.19-.51.56-.38.98-.04.13-.07.26-.1.38-.25.06-.39.23-.42.49-.45.35-.84.75-.97,1.33-.35.18-.43.52-.52.85-1.08-.1-1.57.51-1.77,1.48-.23.15-.46.3-.68.45.17-.02.33-.07.45-.16-.12.1-.27.16-.45.16h-.19c-.08.12-.15.19-.21.2.07-.07.14-.13.21-.2-.1-.11-.22-.14-.36-.09-.53-1-1.15-1.91-2.32-2.27-.15-.49-.44-.82-.98-.9h0s0,0,0,0c0,0,0,0,0,0,0,0,0,0,0,.01-1.2-.69-2.46-.5-3.72-.21-.04,0-.07.08-.1.14-.61.18-1.37-.23-1.84.46-.8-.04-1.26.54-1.8.99-.43-.05-.63.26-.86.53h0c-.28-.03-.49.06-.58.34-.27.09-.34.31-.33.58h0c-.16.15-.31.31-.48.44,0,0,0,0,0,0-.3-.02-.48.12-.52.42-.28.17-.34.43-.35.74-.02.52-.08,1.04-.12,1.56-.54.34-.4.91-.39,1.39.02.68.06,1.35-.28,1.96,0-.31-.16-.53-.58-.59-.04-.26-.18-.43-.44-.49-.28-.64-.48-1.36-1.38-1.38-.12-.23-.31-.32-.56-.33.18.11.36.22.53.33,0,0-.01,0-.02,0h0s0,0,0,0c0,0,0,0,0,.01-.22-.04-.34-.24-.52-.34l-.03-.02c-.32-.54-.89-.32-1.35-.44l-.04-.02c-.13-.11-.26-.18-.4-.21-.59-.22-1.26-.08-1.86-.25h-.01c-.3-.57-.84-.5-1.35-.5-.16-.4-.54-.41-.88-.5-1.03-.67-2.18-.43-3.29-.39-.13-.05-.27-.07-.41-.06-.36-.3-.79-.45-1.25-.45-1.5.02-3.01.05-4.51.09-.11,0-.22.19-.32.29l.06.1c-.83.03-1.66.06-2.48.09-.3.01-.57.09-.78.32-.64.02-1.32-.13-1.77.53h-.02c-.49.09-1.03-.03-1.41.42-.3-.02-.44.14-.51.4-.35.06-.73.09-.91.47-.37.02-.71.12-.93.45-.61,0-.8.43-.95.9-.37.03-.74.06-.88.5-.28.06-.4.23-.36.52.12-.17.24-.33.36-.5,0,0,0,0,0,0-.07.2-.24.34-.37.5l-.14.09.04.16c-.12.23-.24.46-.35.69l-.03.04c-.17.12-.33.26-.48.41h0c-.3,0-.46.16-.45.46h0s0,0,0,0c-.34.18-.48.48-.54.84-.25.08-.41.23-.4.52-.36.21-.58.49-.46.94l-.11.14.07.17c-.13.2-.27.41-.4.61h0c-.8.45-.39,1.21-.46,1.84h0c-.47.35-.48.86-.52,1.36-.72,1.17-.61,2.43-.4,3.7l-.13.11.05.16h0c-.15.04-.26.12-.34.25-.26.18-.49.39-.48.73.02,1.14.05,2.28.08,3.42-.42,1.5.03,3.03-.09,4.54-.01.17.25.35.38.53,0,.14.03.27.05.41h0c-.39.3-.59.62-.13,1-.05.16-.01.28.13.38.01.32.03.63.04.95,0,.29.01.58.02.87-.03.45-.07.91-.1,1.36h0c-.46.34-.53.69-.02,1.04.02.12.07.23.14.33-.1.69-.4,1.4.29,1.97.01.14.05.27.11.4l-.11-.06c-.68.67-.4,1.3.07,1.92.02.13.05.26.11.38,0,1.32-.02,2.64-.01,3.96,0,.1.19.21.28.31l.12-.06c-.04.15-.03.29.04.43-.02,1.17-.05,2.33-.06,3.5,0,.31.13.56.38.75.12.52-.11,1.15.49,1.51h0s-.06.16-.06.16l.13.11c0,.45.02.91.03,1.36,0,.81-.47,1.69.35,2.38l.09-.06c0,.15,0,.3.01.45-.13.68-.29,1.38.36,1.91l.09-.06c-.07.15-.06.3.03.44-.13.42,0,.75.37.99l.08-.05c.01.46.02.91.04,1.37.02.42-.11.73-.51.9-.24-.32-.59-.36-.96-.39-.43-.04-.85-.11-1.27-.16-.24-.34-.58-.45-.98-.39-.85-.66-1.84-.4-2.79-.41-.08-.23-.22-.39-.49-.4l-.04-.03c-.43-.7-1.19-.27-1.75-.52-.19-.43-.56-.44-.95-.41l-.08-.12-.14.04c-.61-.66-1.4-.3-2.12-.38-.16-.38-.47-.49-.86-.51-.43-.02-.86-.08-1.28-.12-.2-.12-.39-.24-.59-.35-.04,0-.08,0-.12,0-1.02,0-2.04,0-3.06-.01-.36-.29-.75-.48-1.23-.47-.97.03-1.94.05-2.91.11-.19.01-.37.22-.55.33-.6.08-1.21-.22-1.8.09-.62-.13-1.25-.13-1.87.02-.6-.11-1.2-.16-1.79.04-1.12-.25-2.2-.1-3.23.4h0c-.42.02-.83.06-1.25.05-.28,0-.52.06-.69.29-.5.03-1,.07-1.49.09-.37.02-.72.09-.97.4,0,0,0,0,0,0-.17-.17-.34-.17-.5,0-.24-.25-.47-.29-.68.04-.29-.04-.46.09-.54.35-.35.05-.7.14-1.04.13-.47-.02-.85.15-1.21.41-.14.01-.27.03-.41.04-.44-.12-.71.16-.98.43-.13.02-.27.05-.4.07h0c-.42-.1-.71.09-.96.39-.71-.24-1.31,0-1.86.45-.54-.08-1.05-.09-1.36.48-.37.04-.71.11-.93.45-.52-.03-1,.06-1.31.55.02.02.04.03.05.05,0,0,0,0,0,0h0s-.05-.05-.05-.05c-.26,0-.47.07-.59.31-.84-.19-1.6-.03-2.28.5-.13.05-.25.09-.38.14-.29-.03-.44.12-.48.39-.45.15-.98.1-1.35.49h-.01c-.4-.03-.69.16-.92.46h0c-.16.15-.3.33-.52.39,0,0,0,0,0-.01.17-.13.34-.25.52-.38-.3-.04-.47.1-.54.37-.25.04-.41.18-.49.42-.48.08-.98.11-1.29.56-.29-.02-.48.1-.55.38-.24.15-.49.31-.73.46-.04.02-.08.04-.11.07-.41-.07-.8-.07-.97.41-.27.05-.42.21-.49.47-.55.4-1.39.24-1.79.92-.36.07-.73.12-.9.52-1.29.66-2.64,1.24-3.33,2.66-.26.11-.36.3-.32.58l-.12.08.04.14c-.32.29-.41.69-.5,1.08-.26.08-.39.25-.33.54.11-.17.23-.34.34-.51,0,0,.01,0,.02,0-.03.23-.22.36-.36.52l-.13.13.05.18c-.45.42-.55.94-.45,1.52-.13.17-.26.34-.4.51-.69.81-.55,1.77-.51,2.72-.99.75-.52,1.79-.56,2.73-.14.15-.27.31-.41.46-.58,1.35-.58,2.72-.21,4.11.02.06.11.1.17.15l.1-.06c-.02.39.01.75.4.97,0,.38.12.71.54.84l.02.02c.23.55.78.47,1.22.63.08.24.24.39.51.4.21.38.55.46.94.45.36.45.92.32,1.39.44.18.39.52.49.91.48.24.36.61.37.98.37h.01c.33.5.85.49,1.35.5.83.6,1.68,1.12,2.77.91.5.66,1.19.47,1.86.44h0c.74.81,1.6,1.38,2.72,1.46.78.26,1.38.99,2.29.91.07.25.22.39.5.34.13.04.26.08.38.12.26.29.56.5.98.43.27.24.54.47.94.41l.12.14.17-.06c.31.28.7.34,1.1.39h.01c.17.43.53.48.92.47l.06-.06h0s-.04.04-.06.06c.32.44.76.61,1.29.58.23.4.6.41,1,.36.45.58,1.12.51,1.73.6.07.23.22.38.47.44.08.27.25.41.54.37.39.36.9.35,1.37.47.2.37.53.48.92.46.19.25.45.35.77.35.38,0,.75.03,1.13.05.01-.02.03-.04.04-.06,0,0,0,0,0,.01l-.04.04c.14.38.41.57.8.6.24.38.61.41,1.01.33l.15.13.19-.06c.29.32.7.35,1.09.4.17.39.47.53.89.46l.17.14.22-.02s0,0,0,0c1.17.62,2.44.78,3.73.85.14.45.48.55.9.49.42.32.91.4,1.42.41l.15.13s.18-.08.18-.08c.59.39,1.27.4,1.94.43.17.15.38.17.6.19.27.08.54.17.8.25.05.26.16.45.47.44-.16-.15-.31-.29-.47-.44,0,0,0,0,0,0,.16.14.31.3.47.44h.01c.33.5.86.44,1.35.49.35.51.9.4,1.39.45.32.53.86.45,1.36.5.16.14.32.29.48.43.29.51.78.51,1.28.52,0,.27.01.54.01.81-.55.36-.47.88-.38,1.41-.01.15-.02.3-.03.45-.5.84-.65,1.75-.5,2.72-.83.66-.42,1.54-.42,2.35-.45.35-.53.83-.5,1.36-.38.39-.24.94-.43,1.39-.41.49-.44,1.09-.46,1.68-.03.67-.04,1.34-.05,2.01-.64.73-.23,1.6-.29,2.4-.02.14-.06.27-.11.39-.63.93-.66,1.86,0,2.8.09.14.1.29.03.44-.78,2.09-.62,4.2-.13,6.31.01.06.11.1.17.15l.06-.04c-.03.59-.06,1.18-.1,1.77-.08,1.05.09,2.71.36,3.64.02.07.04.15.06.21l.09-.05c-.2,1.58-.01,3.17.34,4.69.28,1.21.22,2.55,1.01,3.62.11.51.07,1.12.35,1.5.59.8.63,1.78,1.05,2.63h0c.07.5-.1,1.06.35,1.45-.03.53-.15,1.08.45,1.4.09.39.18.77.52,1.04h0s-.02.18-.02.18l.16.1c.15.61-.57,1.39.34,1.86.41.56-.03,1.31.42,1.86.02.15.03.29.05.44-.15.69-.14,1.34.42,1.87.16.3.33.6.49.9.16.61.07,1.28.48,1.82-.07.41.02.75.4.97.01.38.18.69.47.93.16.59-.14,1.32.54,1.74v.02c.13.17.32.3.38.51,0,0,0,0-.01,0h0c-.12-.16-.24-.33-.35-.5,0,.26.12.44.35.54-.02.52-.04,1.03.47,1.37.01.28.17.43.41.5.05.49-.07,1.06.56,1.3.14.37.28.73.42,1.1,0,0,0,0,0,0v.19s.18.08.18.08c.41.47.81.94,1.22,1.41,0,.51-.12,1.07.39,1.44.05.65.46,1.03.99,1.33.03.26.17.43.42.51.06.35.15.69.52.87,0,.29.17.44.42.51.03.26.19.42.44.48.28.96.95,1.52,1.88,1.8.14.87.88,1.25,1.43,1.79h0c.06.51.46.52.82.58.08.25.26.38.52.39.59.82,1.26,1.54,2.24,1.89.09.26.26.4.55.34-.17-.11-.34-.22-.51-.33,0,0,0-.01,0-.02.23.03.36.22.52.35l.11.14.17-.05c.26.01.45.19.64.33l.13.16.2-.04c.24.05.42.23.63.33l.05.05c.79.64,1.67,1,2.7.94h.01c1.09,1.2,2.35,1.2,3.69.54.39.06.74,0,1.08-.25.67-.48,1.64-1.83,2.15-3,0,0,0,0,0,0,.42-.38.31-.93.46-1.4.25-.04.46-.14.52-.41.45-.19.4-.59.4-.97.39-.2.42-.57.43-.95.53-.28.51-.81.59-1.3.56-.33.4-.89.42-1.39.24-.08.41-.22.39-.51.5-.36.41-.9.42-1.41h0c.24-.21.32-.47.34-.79.03-.65.1-1.3.15-1.95.11-.11.15-.25.17-.4.13-.3.25-.59.38-.89.13.02.25-.02.33-.14.46-.18.87-.51,1.42-.44.15.02.33-.22.5-.34l-.06-.12c.14.03.27.06.4.1,0,0,0,0,0,0h0c.07.27.24.39.52.36.56.23,1.15.15,1.72.15.1.23.27.37.53.38.2.41.55.47.96.43.46.16.91.32,1.37.48,1.25.62,2.48.8,3.71-.06.14-.16.28-.32.41-.48l.03-.03c.35-.06.74-.01,1-.34.39.02.68-.17.91-.48.3,0,.45-.16.48-.44.25-.08.37-.26.43-.5.27-.03.43-.16.49-.43.26-.06.4-.23.43-.49.26-.06.45-.18.49-.47.38-.34.77-.67,1.13-1.02.24-.23.23-.53.21-.84.32-.21.49-.51.52-.89.53-.37.44-.86.27-1.38.05-.43.11-.85.15-1.28.04-.46-.1-.84-.55-1.05-.06-.12-.16-.17-.28-.17-.1-.48.24-1.11-.47-1.37-.07-.25-.25-.38-.48-.45-.12-.76.25-1.63-.49-2.26-.04-.75-.4-1.34-.97-1.81-.04-1.24-.08-2.47-.12-3.71.1-.13.13-.27.08-.42h0c.09-.19.21-.36.27-.55.24-.85.23-.85,1.11-.77.13.01.25.04.38.07.09.25.28.36.55.34.17.13.31.29.48.43h.01c-.04.15-.01.27.08.38.14.31.39.43.71.44.53.01,1.05.02,1.58.03.25,0,.5.01.76.02.32.03.48-.13.51-.44.09-.1.12-.21.11-.34.51-.13.85-.41.84-.99.35-.62.69-1.24.13-1.9,0,0,0,0,0,0h0s0,0,0,0h0c-.05-.59-.11-1.17-.16-1.76.03-1.11.23-2.24-.41-3.27-.16-.46.24-1.11-.46-1.4l.08-.09c-.05-.28-.1-.56-.15-.83.05-.13.06-.26,0-.4.15-.32,0-.48-.3-.56l-.09.07c.02-.14.04-.27.05-.41.4-.34.4-.67-.03-.99h0c.11-.33.08-.64-.09-.94.04-.13.03-.25-.02-.37.02-2.48.05-4.96.07-7.44h.02c.79-.82.43-1.82.43-2.78-.28-1.34.44-2.48.77-3.7.12-.43.51-.61.88-.44,1.37.66,2.84.83,4.31,1,1.83.62,3.72.39,5.6.37h0c1.07.61,2.16.53,3.26.08.28,0,.57-.01.85-.02.48.51.96.59,1.47.04l.17-.03.17.05c.11.29.3.38.59.26,0,0,0,0,0,0,0,0,0,0,0,0,.27,0,.54.02.81.03.18,0,.37,0,.55,0,0,0,0,0,0,0,.28,0,.57.01.85.02.17,0,.35,0,.52,0,.28,0,.56-.02.84-.03,1.11.04,2.21.27,3.32,0l.19.03h.19c1.41.02,2.84.32,4.18-.43.32.12.49-.02.55-.33l.15-.06.16.03c.1.28.3.37.58.28,0,0,0,0,0,0,0,0,0,0,0,0l.19.06.19-.02c1.22,0,2.43.02,3.65-.01.19,0,.38-.22.57-.34,1.04,0,2.07,0,3.11,0q.74.53,1.53.02h0c.25,0,.5,0,.76,0h0c.19.4.58.41.94.48.02,0,.05,0,.07.01.32-.06.63-.13.95-.19.29,0,.58,0,.87,0,.31.14.63.18.96.05.13.04.27.07.4.1.2.1.4.28.6.28,2.14,0,4.28.26,6.43,0l.17.05h.18c.47.14.94.17,1.42.06h0c.26.35.64.4,1.01.41,1.36.02,2.72.03,4.07.04,1.45.05,2.96-.15,4.32.22,1.54.42,2.88-.02,4.25-.36,1.51-.38,2.78-1.4,3.57-2.66.84-1.32,1.51-2.7,2.83-3.64.17-.12.29-.36.36-.57.48-1.49,1.38-2.68,2.56-3.69.21-.18.46-.52.43-.76-.1-.84.35-1.49.69-2.15.34-.65.36-1.32.38-2,.6-.5.52-1.02.05-1.56,0,0,0,0,0,0v-.22c.13-.18.36-.37.35-.55-.07-1.7.26-3.41,0-5.11.09-.31.11-.61-.06-.89.06-.3-.09-.45-.35-.54,0,0,0,0,0,0,.24-1.73-.56-2.91-1.93-3.84-1.38-.94-2.9-1.62-4.35-2.44-3.41-1.95-6.7-4.11-10.13-6.04-.85-.48-1.76-.86-2.6-1.37-1.88-1.13-3.74-2.34-5.81-3.15-2.25-.87-4.22-2.37-6.65-2.84-.43-.08-.8-.42-1.2-.65-.22-.48-.6-.45-1.01-.32-.13-.04-.27-.06-.41-.07-.4-.38-.87-.53-1.42-.41-2.66-.83-5.3-1.71-8.06-2.14-1.92-.3-3.82-.74-5.73-1.12-.86-.66-1.84-.47-2.8-.41-.82-.59-1.79-.27-2.69-.41-.88-.14-1.28-.38-1.48-1.14-.08-.29.01-.63-.1-.9-.48-1.13-.08-2.47-.85-3.53.05-.46.11-.91.13-1.37.02-.54,0-1.08-.55-1.41-.62-1.31-.67-2.75-.93-4.15-.01-2.03-.03-4.06-.04-6.08.04-.38.02-.77.13-1.13.59-1.96,1.23-3.93,2.41-5.61,1-1.42,1.48-3.16,2.8-4.38.78-.72,1.51-1.51,2.19-2.32,1.16-1.39,2.68-2.31,4.18-3.22,1.68-1.02,3.47-1.87,5.2-2.82,1.24-.68,2.35-1.59,3.76-1.97.56-.15,1.1-.55,1.54-.95.48-.42,1.02-.6,1.57-.86,2.97-1.37,5.99-2.63,8.8-4.31,1.72-1.03,3.09-2.49,4.33-4,.94-1.14,1.83-2.43,2.28-3.91.45-.15.56-.48.45-.91.05-.12.09-.25.12-.37.38-.21.46-.56.41-.96.14-.27.33-.52.4-.8.34-1.43,1.35-2.24,2.58-2.85.07-.03.13-.07.2-.1.32.09.63.19.96.03l.22.03.22-.04c.61.04,1.22.1,1.83.11,2.2.02,4.4.12,6.56-.44,1.39-.3,2.78-.57,4.17-.9.66-.16,1.24-.52,1.75-.98.48-.12,1.03-.02,1.44-.41.27-.04.53-.08.8-.12.41.05.77-.04,1.04-.38h0c.15-.15.31-.3.46-.45,1-.22,1.6-.84,1.86-1.81-.02-.03-.05-.06-.07-.09,0,0,0,0,0,0,0,0,.07.09.07.09.35-.1.69-.21.83-.6.06-.13.07-.27.04-.4.28-.05.38-.25.42-.5-.03-.02-.05-.04-.08-.06,0,0,.01-.01.02-.02l.06.08c.25-.07.4-.22.44-.48l-.06-.06s0,0,0-.01c.02.02.04.05.06.07.38-.13.52-.44.6-.79.27-.07.41-.24.37-.54.33-.22.39-.58.46-.92.25-.04.45-.13.53-.39.29-.05.42-.21.41-.51.31-.31.6-.63.92-.92.3-.26.48-.55.43-.95.36-.29.48-.71.56-1.12.1-.52.07-1.01-.55-1.21-.15-.43-.51-.47-.89-.5-.08-.25-.22-.42-.51-.4-.18-.37-.52-.46-.89-.5-.07-.26-.24-.39-.51-.4-.02.03-.04.06-.07.08,0,0,0,0,0,0,0,0,0,0,0,0l.07-.07c-.07-.24-.22-.4-.48-.44l-.06.07s0,0-.01,0c.02-.02.05-.04.07-.06-.11-.38-.42-.53-.76-.63-.04-.26-.2-.42-.46-.46-.09-.25-.24-.41-.53-.39-.22-.33-.57-.38-.92-.46-.09-.55-.37-.89-.97-.87,0,0,0,0,0,0-.17-.13-.33-.28-.45-.46,0,0,0,0,0,0,.04-.62-.31-.89-.85-1-.13-.48-.42-.81-.92-.91-.07-.25-.26-.36-.5-.42-.06-.35-.09-.72-.48-.91-.08-.48-.47-.5-.83-.56-.09-.34-.25-.63-.57-.8-.11-.96-1-1.49-1.29-2.36,0,0,0,0,0,0-.2-.68-.28-1.42-1.03-1.79-.17-.53.09-1.17-.4-1.62,0,0,0,0,0,0l.04-.14-.13-.08c.05-.14.05-.29.01-.44.13-1.22-.39-1.57-1.6-1.47-.82.07-1.11.7-1.66,1.03-.1-.09-.21-.13-.34-.12-.2-.52-.45-1.01-.87-1.38-.07-.3-.28-.39-.56-.4-.08-.24-.23-.39-.49-.43.16.14.32.28.48.43,0,0,0,0,0,0-.18-.12-.32-.28-.48-.43h0c-.02-.29-.18-.44-.45-.47h0c-.04-.27-.2-.41-.46-.44v-.02c-.15-.16-.3-.31-.46-.45h-.01c-.13-.18-.29-.32-.4-.5h0s0,0,0,0c.13.16.26.33.4.49-.03-.25-.16-.42-.4-.51-.02-.37,0-.76-.43-.94-.04-.28-.22-.41-.48-.46-.05-.26-.16-.46-.45-.5-.37-.42-.92-.7-.93-1.39,0-.16-.24-.31-.38-.47-.04-.29-.19-.45-.48-.47-.12-.23-.34-.29-.58-.33h0c-.08-.35-.11-.72-.43-.96.02-.35-.17-.45-.48-.43.16.15.32.29.48.44h0c-.18-.12-.33-.29-.48-.44h0c-.33-.34-.53-.73-.57-1.22-.03-.42-.33-.64-.72-.73-.24-.5-.43-1.04-.98-1.31-.03-.27-.19-.42-.43-.51-.03-.65-.5-.99-.96-1.34,0-.3-.16-.44-.44-.48-.07-.26-.23-.4-.5-.42-.04-.27-.22-.4-.48-.43,0,0,0,0,0,0h0c-.08-.34-.1-.71-.46-.9v-.02c-.08-.45-.44-.5-.77-.6-.04-.49-.01-1.01-.55-1.3-.01-.27-.13-.46-.41-.52-.07-.25-.25-.37-.49-.44-.03-.36-.09-.72-.46-.91-.02-.38-.14-.71-.53-.87,0-.28-.16-.44-.42-.5-.04-.29-.18-.52-.45-.66.01.16.06.3.14.42-.09-.12-.14-.25-.14-.42l.03-.14-.12-.07c.01-.38-.05-.72-.45-.89v-.02c-.02-.29-.19-.42-.45-.46h0c-.04-.25-.14-.45-.37-.56-.15-.61.23-1.35-.45-1.82,0-.51-.15-.97-.52-1.35.17-.57,0-1.02-.48-1.37.12-.71-.09-1.34-.44-1.94,0,0,0,0,0,0,.09-.17.05-.29-.13-.36-.27-.75.41-1.64-.31-2.32.04-.44.04-.88-.17-1.29v-1.03c.1-.11.12-.24.06-.38,0-.63,0-1.26.01-1.89.05-.13.09-.26.11-.4.65-.86.37-1.85.4-2.79.14-1.08-.06-2.21.5-3.22,0,0,0,0,0,0,.29-.77.59-1.55.88-2.32,0,0,0,0,0,0,.31-.24.45-.56.43-.94v-.02c.41-.38.99-.65.92-1.35.14-.07.16-.17.08-.3.25-.11.43-.28.48-.55.25-.05.4-.2.47-.45.58-.04.83-.41.91-.93.46-.13,1-.04,1.35-.48.41.03.62-.28.88-.52.74.24,1.25-.33,1.86-.52.29,0,.58-.01.87-.02h0c.93.03,1.86.07,2.79.1l.11.09.13-.05c.1,0,.18.02.26.06-.08-.03-.17-.05-.26-.06.14.28.37.41.67.42.14.16.28.32.43.48.01.3.17.46.47.47.38.41.77.79,1.32.96.08.25.25.39.49.45.05.28.19.45.51.4.08.06.17.1.27.13.22.11.43.22.65.32.04.27.19.43.47.46.14.42.46.54.86.55.24.3.57.42.93.46.56.62,1.1.24,1.64-.06,0,0,0,0,0,0l.17.05.11-.14c.16-.14.3-.3.5-.38,0,0,0,0,0,.01-.17.12-.33.24-.5.37.29.04.46-.09.52-.36.49-.13.87-.36.94-.92.4-.21.43-.58.41-.97.31-.21.54-.47.54-.87.3-.23.35-.58.44-.92.16-.61.33-1.22.49-1.83.32-.22.4-.56.48-.91.25-.07.38-.24.4-.5.25-.09.35-.28.34-.54-.11.17-.23.34-.34.51,0,0,0,0,0,0h0s0,0-.01,0c.06-.21.25-.34.35-.52l.02-.04c.16-.12.21-.27.22-.43.27-.53.47-1.08.4-1.71.24-.11.34-.31.34-.57l.08.06c.73-.5.53-1.01.03-1.53l-.08.06c.07-.15.06-.29-.01-.43l.08.06c.26-.12.32-.32.25-.58,0-.27,0-.54,0-.82.08-.3-.03-.48-.33-.55-.45-.46-.9-.92-1.36-1.38,0,0,0,0,0,0-.51-.6-1.04-1.18-1.81-1.43-.23-.35-.62-.35-.97-.43-.48-.99-1.35-1.46-2.35-1.76h-.02c-.46-.55-1.08-.61-1.72-.6-.11-.23-.3-.34-.55-.36,0,0,0,0,0,0-.72-.53-1.4-1.11-2.26-1.41-.21-.3-.51-.46-.85-.56-.05-.25-.2-.4-.45-.45-.08-.35-.19-.67-.61-.75l-.03-.02c-.13-.17-.27-.33-.4-.5-.11-.63.19-1.35-.42-1.87-.02-.13-.05-.27-.08-.4-.05-1.26.48-2.58-.37-3.76-.02-.29-.04-.58-.06-.87l.1.06c.27-.03.37-.23.45-.45.59-.53.37-1.23.39-1.89-.07-.07-.14-.13-.21-.2,0,0,0,0,0,0,.07.07.14.14.21.2.45-.53.43-1.19.47-1.82.02-.14.05-.28.07-.43.38-.39.26-.94.45-1.39.41-.18.48-.53.45-.93.38-.38.4-.88.46-1.36.24-.1.35-.29.35-.55l-.34.51s0,0,0,0h0s-.01,0-.02.01c.06-.22.23-.35.36-.52v-.02c.41-.17.41-.55.49-.89.65-.4.91-1.03,1.04-1.73.24-.1.35-.3.38-.55.27-.04.4-.2.37-.49h0c.05-.12.09-.23.14-.35.25-.11.34-.32.37-.57h0c.61-.26.79-.8.92-1.38h0c.35-.16.49-.47.59-.81.24-.06.4-.21.46-.45.28-.09.5-.23.38-.59l.09-.11-.08-.12c.02-.21.1-.37.23-.49-.13.12-.21.28-.23.49.15-.2.31-.41.46-.61.28-.04.46-.18.44-.49.32-.24.33-.62.41-.96h0c.27-.04.43-.19.45-.47h0c.45-.15.46-.54.49-.9.62-.6,1.25-1.2,1.86-1.81.26-.26.44-.58.41-.97h0c.28-.21.49-.47.58-.8.58-.1.9-.4.8-1.04l.12-.1-.06-.15c.34-.15.7-.28.88-.64.28,0,.45-.14.52-.4.26-.05.42-.2.47-.46.27-.07.42-.24.36-.54-.12.17-.24.35-.37.52,0,0,0,0-.01,0,.06-.22.22-.37.38-.52l.13-.1-.06-.15c.15-.21.29-.41.44-.62.36-.04.7-.12.81-.54l.04-.05c.33-.16.53-.42.54-.8.25-.08.34-.28.4-.51-.13.16-.27.33-.4.49,0,0,0,0,0,0h0s0,0,0,0h0s0,0,0,0c.09-.2.26-.33.41-.49h0c.16-.15.29-.33.5-.41,0,0,0,0,0,.01-.16.13-.33.26-.49.4.26-.02.45-.14.52-.4.26-.03.44-.15.52-.41.27-.06.44-.21.43-.5.3-.22.41-.54.5-.88.27-.07.44-.26.54-.51h0s.16.04.16.04l.09-.14h0c.28.04.47-.06.55-.33.27-.07.4-.25.41-.53.47-.32.86-.71,1.03-1.27.25-.07.4-.22.45-.47.25-.06.4-.22.44-.47.27-.08.44-.27.56-.52-.3.05-.5.2-.58.49,0,0,0,0,0,0,0,0,0,0,0,0-.25.06-.4.22-.44.48,0,0,0,0,0,0,0,0,0,0,0,0-.26.05-.41.2-.44.46,0,0,0,0,0,0,0-.29.16-.44.45-.47.02-.28.18-.43.44-.48.07-.3.28-.45.58-.49l.16.03.09-.14c.17-.12.3-.28.49-.36,0,0,0,0,0,0-.16.12-.33.24-.49.35.28.03.45-.09.51-.35.27-.04.42-.19.47-.46.27-.06.41-.23.41-.51.35-.16.51-.45.57-.82.29-.17.59-.34.88-.52,0,0,0,0,0,0h0s0,0,0,0c0,0,0,0,0,0,.13-.05.25-.09.38-.14h0c.46-.08.45-.46.5-.8.23-.06.43-.16.53-.38.4,0,.66-.29.93-.53.56-.48,1.12-.97,1.68-1.45l.02-.02c.59-.48,1.46-.72,1.54-1.67.39-.15.83-.2,1.13-.52.03-.03.06-.06.08-.09h.01c.3.02.47-.12.49-.42.31-.31.62-.61.92-.92.4.04.77,0,.93-.45.25-.03.45-.14.54-.38.26-.03.41-.19.48-.43.63-.06,1.14-.3,1.38-.93.36-.06.7-.14.86-.51.3-.05.5-.23.63-.49-.3.03-.52.18-.64.46,0,0,0,0,0,0,.12-.29.32-.45.64-.46l.14.03.08-.12c.31.03.45-.13.47-.42-.03-.02-.06-.05-.08-.07,0,0,0,0,0,0,0,0,.08.07.08.07.18-.12.37-.24.55-.37h0c.41.01.65-.23.8-.57h.01c.17-.14.3-.33.51-.4,0,0,0,0,0,.02-.17.12-.34.25-.51.37.27,0,.45-.11.53-.37.14.01.28,0,.41-.06.78-.03,1.25-.54,1.32-1.21.07-.66.38-1.49-.5-1.95Zm-41.8,80.09s0,0,0,0h0c.08.1.16.21.24.31-.09-.1-.18-.2-.24-.31-.19-.11-.34-.28-.48-.45,0,0,0,0,0,0,.16.15.32.3.48.45Zm5.02,1.87s0,0,0,0c.14-.17.27-.33.41-.5,0,0,0,0,.01,0-.09.21-.27.35-.42.51Zm1.38-2.78s0,0,0,0c-.22.21-.39.45-.52.7-.13.24-.22.5-.29.77-.07.26-.12.52-.16.79-.26.06-.43.2-.4.51-.37.39-.8.5-1.31.35-.22-.14-.44-.29-.66-.43-.36-.24-.72-.47-1.1-.67-.11-.06-.24-.09-.38-.11-.21-.04-.44-.05-.66-.08,0,0,0,0,0,0-.1-.06-.18-.13-.27-.21-.08-.06-.15-.12-.23-.18l-.02-.02c-.02-.26-.12-.45-.39-.52-.03-.28-.18-.44-.48-.44-.19-.36-.53-.47-.91-.5-.16-.14-.32-.28-.48-.41,0,0-.01-.01-.01-.02-.19-.29-.44-.42-.75-.4-.07,0-.14,0-.21.03-.13-.09-.27-.11-.42-.06l.06-.1h0c-.03-.07-.07-.13-.11-.18-.17-.22-.41-.22-.65-.17-.09.02-.18.04-.27.06-.59-.05-1.19-.13-1.78-.16-.23,0-.46,0-.69.01-.56.05-1.11.19-1.64.53-.53-.06-1.01,0-1.34.49h-.02c-.17.13-.31.3-.53.36,0,0,0-.01,0-.02h0s0,0,0,0c.17-.11.35-.22.52-.33-.26-.02-.45.1-.55.33-.12-.01-.24-.02-.36-.02-.33,0-.63.07-.86.32-.05.05-.1.12-.15.19-.3.03-.46.22-.57.48h-.19s-.1.16-.1.16c-.26-.03-.42.09-.49.33-.3.02-.47.16-.42.49.15-.17.29-.33.44-.5-.13.18-.28.34-.44.5l-.12.09.05.14s0,0,0,0h0c-.33.18-.69.31-.86.68-.29,0-.44.16-.51.42-.28.05-.44.19-.41.5-.28.22-.54.45-.55.85-.11.08-.2.18-.27.29-.03.05-.07.1-.09.16-.06.14-.11.28-.14.44-.25.1-.35.3-.34.57-.58.33-.41.89-.44,1.39v.02c-.39.16-.43.53-.54.86h0s0,0,0,0c-.03.03-.06.05-.08.08-.44.42-.43.91-.36,1.41.04.31.11.61.1.91-.51.49-.48,1.14-.55,1.77-.86,1.5-.36,3.1-.37,4.67-.06.12-.07.25-.03.38-.02.9-.06,1.8-.05,2.7,0,.63-.01,1.27.38,1.82.03.04.05.08.08.12.1.33.11.71.47.9v.02c-.03.15-.02.29.05.42-.04.35-.1.69-.11,1.03,0,.38.06.74.3,1.08.06.08.12.16.2.24.29.81.63,1.61.62,2.5,0,.1.14.21.24.32-.02.3.15.44.4.52.18.66.14,1.39.55,2l-.02.14.13.07c-.02.25.07.43.3.54,0,.13,0,.26.03.38.03.16.1.3.22.42.05.05.11.09.18.13.02.16.03.33.06.48.03.16.07.31.15.45.08.14.2.26.38.35h0c0,.27.09.49.35.6,0,0,0,0,0,0,.24.39.46.8.69,1.2.19.33.39.65.63.94.16.2.34.38.54.55.05.28.24.41.49.46.03.13.06.25.1.37.11.28.29.49.6.59.05.01.1.02.15.03.03.11.08.19.14.27.01.01.03.03.04.04.07.07.16.12.27.15.07.35.22.65.58.8,0,.27.14.44.4.52,0,.1.03.2.06.28.09.25.26.41.49.52.11.05.23.1.36.13,0,.13.01.26.03.38.03.16.09.3.24.39.07.04.15.07.27.09,0,0,0,0,0,0,.15.15.31.29.41.48,0,0,0,0,0,.01,0,.13.02.23.06.32.04.04.08.09.12.13.06.04.13.07.22.08.11.24.33.31.56.36.03.32.09.6.18.87.26.76.78,1.33,1.49,1.76.15.09.32.18.49.26.07.21.09.43.13.65.03.18.08.35.19.5.05.07.11.13.2.18.02.1.05.19.08.28.08.2.22.35.39.46.13.08.27.15.44.2.08.35.21.66.57.82h0c0,.28.09.49.37.57.14.24.28.47.43.7.38.59.8,1.13,1.45,1.45.12.06.25.11.39.15.05.24.19.41.44.49.2.54.59.92,1.04,1.26,0,.29.14.45.41.51.06.27.2.43.5.42.18.33.47.48.81.57.09.34.3.59.62.73l.02.03c.05.35,0,.75.43.91h.01c.12.19.3.32.36.53,0,0,0,0,0,0h0s0,0,0,.01l-.36-.53c0,.26.13.44.36.55,0,.13.03.24.07.35.09.26.25.47.45.65.14.12.29.23.44.34.01.28.16.44.43.5.06.27.23.42.51.43.61.44,1.3.77,1.74,1.42,0,.07.02.12.04.18.05.14.13.23.27.29.05.02.1.03.16.04.09.25.3.34.54.38.06.35.2.65.51.86v.02c.04.26.11.48.2.68.28.67.81,1.1,1.45,1.44.18.09.36.18.55.26.07.24.21.41.44.49.01.11.03.22.05.32.04.17.12.33.28.43.06.04.12.07.21.09.04.11.1.19.16.25.07.04.13.08.2.12.16.07.35.09.52.13.02.13.04.24.09.34.1.22.25.37.47.46.11.05.24.08.39.09.07.24.2.42.45.47.03.27.21.41.46.45.08.33.09.71.53.81l.05.04c.16.34.44.5.79.56.06.27.22.4.51.34.09.15.21.18.36.1.21.25.42.5.63.75,0,.03,0,.05,0,.07,0,.27.13.44.4.51.07.22.21.36.42.38.04,0,.08,0,.13,0,0,.05-.01.1-.02.16-.03.28-.06.56-.09.84h0c-.84.58-1.69,1.14-1.85,2.27,0,.06-.01.11-.02.17,0,.09-.02.19-.03.28-.26.04-.44.17-.49.45-.05,0-.08.02-.12.04-.18.08-.26.24-.26.46,0,0,0,.01,0,.02,0,0-.01,0-.02,0-.22.07-.36.21-.42.42,0,.01-.01.02-.01.04-.02,0-.03,0-.04,0-.2.01-.34.09-.39.25-.02.06-.03.12-.03.2-.36.17-.43.52-.53.85-.15,0-.3.01-.44.05-.16.03-.3.1-.41.23-.04.04-.07.09-.1.15-.17.02-.31.06-.44.13-.02.01-.04.02-.06.03-.14.09-.25.23-.32.42h0c-.27.01-.46.12-.53.39-.13,0-.23.04-.31.11-.01,0-.02.02-.03.03-.07.07-.13.15-.16.27-.09,0-.18.02-.26.04-.2.05-.37.14-.51.29-.04.05-.09.1-.12.16-.06,0-.11.01-.15.03-.11.03-.19.1-.24.2-.04.07-.07.14-.08.23-.28.06-.47.22-.58.49h-.02s0,.01,0,.01c-.23-.13-.46-.29-.68-.3-.07,0-.15,0-.22.04-.09.05-.18.13-.28.27-.49.07-1.02.02-1.34.52h0c-1.23.02-2.47.03-3.7.04l-.03-.02c-.15-.23-.29-.47-.47-.66-.12-.13-.25-.23-.42-.31-.1-.04-.21-.07-.34-.08-.1-.28-.25-.52-.5-.68-.03-.03-.06-.05-.11-.07l-.03-.05c0-.28-.14-.42-.41-.44l-.02-.02c-.07-.09-.14-.18-.21-.27-.2-.27-.41-.53-.63-.78-.08-.09-.28-.16-.39-.13-.1.03-.22.21-.22.33-.03.44,0,.87.28,1.21.06.07.14.14.23.21-.06.3-.07.6.22.81h0s0,0,0,0c0,.23.11.34.33.37l.04.06c-.12.84-.28,1.09-.8.99-.37-.07-.72-.2-1.1-.09-.89,0-1.78,0-2.66,0-.09-.27-.29-.39-.56-.43-.03-.25-.11-.46-.37-.55,0-.05-.01-.1-.03-.15-.04-.13-.13-.23-.25-.28-.05-.02-.1-.04-.16-.05-.08-.35-.29-.6-.61-.76l-.02-.03c0-.28-.16-.42-.42-.48-.04-.36-.13-.69-.48-.88v-.03c0-.28-.14-.45-.4-.51-.04-.36-.12-.71-.51-.87h0c0-.29-.13-.46-.38-.55v-.03c-.05-.26-.09-.53-.13-.79-.01,0-.02.01-.04.02-.66.33-.78.49-.54,1.13.04.1.08.21.13.33-.09.13-.07.24.06.33-.03.19-.07.39-.07.58,0,.25.04.48.22.67.06.07.14.13.24.19.02.24.03.48.09.7,0,.03.02.07.03.1.07.2.19.38.43.51h0c-.01.3.16.44.42.51.11.26.21.54.35.79.15.26.21.5.13.74-.03.09-.09.19-.17.28,0,.13.01.27.01.4.11-.12.2-.23.28-.33,0,.16-.09.27-.28.33-.92.64-2.2.96-2.53,2.16-.47,1.7-1.6,3.06-2.23,4.67-.55,1.4-1.16,2.77-2.08,3.99-.47.62-1.03,1.06-1.72,1.44-.63.34-.85,1.3-1.77,1.28-2.03,1.49-4.53,2.1-6.58,3.53-.58.16-1.36-.26-1.69.6-.16.16-.29.43-.48.48-2.62.64-4.62,2.58-7.15,3.44-.77.26-1.43.85-2.13,1.31-.81.55-1.5,1.27-2.55,1.42-.34.05-.65.37-.95.61-2.56,2.1-5.18,4.06-7.1,6.89-1.51,2.22-2.98,4.41-3.98,6.9-.77,1.92-1.17,3.91-1.52,5.93-.06.37-.07.78,0,1.14.24,1.2.23,2.4.31,3.61.06.89.2,1.79.57,2.67.5,1.18.34,2.56.89,3.76.11.63-.24,1.37.4,1.88.14.59.27,1.19.42,1.78.37,1.48.38,2.86-1.22,3.96,0,0-.01,0-.02.01,0,0,.01,0,.02,0,1.23.23,2.15.6,2.67,1.66.32.64.76.67,1.27.08.71-.82,1.4-1.11,2.38-.53.18.11.45.08.67.12,1.79.32,3.57.68,5.37.94,2.04.29,4.04.72,5.99,1.35,1.09.35,2.22.37,3.32.74,1.29.44,2.67.6,3.84,1.38.18.12.43.19.65.21,2.27.13,3.97,1.86,6.17,2.18.2.03.37.26.57.37,3.27,1.74,6.55,3.47,9.83,5.2,1.66,1.62,3.9,2.32,5.77,3.62,1.8,1.25,3.81,2.25,5.83,3.13.82.36,1.49.96,2.42,1.19.83.2,1.1,1.21,1.2,2.05.09.76.06,1.53.09,2.29h0c0,.81.02,1.61.03,2.42h0c-.01.11,0,.21.02.31,0,0,0,0,0,0,0,0,0,0,0,0-.01.5-.03,1.01-.04,1.51-.14,1.98-.41,3.91-1.62,5.59-.17.23-.26.56-.28.86-.09,1.07-.58,1.84-1.51,2.4-.81.48-1.18,1.38-1.75,2.08-.86,1.05-1.65,2.16-2.44,3.26-.71,1-1.56,1.59-2.88,1.4-.74-.1-1.52-.04-2.26.08-.94.15-1.81.04-2.69-.27-.21-.08-.44-.18-.66-.18-2.35,0-4.65-.73-7.02-.5-.27-.52-.58-.5-.94-.08l-.2.04-.2-.05c-.2-.25-.49-.31-.79-.37-.98-.19-1.96-.01-2.94.01-.77.01-1.54.02-2.3.03l-.21-.06-.2.07c-.94-.36-1.89.02-2.83,0l.03-.06h0s0,0,0,0c-.44-.5-.9-.64-1.4-.08l-.2.06-.21-.04c-.47-.52-1.12-.46-1.71-.42-1.06.07-2.12.04-3.18-.02-1.36-.07-2.73-.04-4.09-.03-.44,0-.93-.08-1.21.42-.58.39-1.21-.1-1.8.1-1.66-.2-3.32.07-4.98.09-.19,0-.38.21-.58.33h0s0,0,0,0c-.28-.02-.56-.04-.84-.06-.19-.11-.37-.31-.56-.31-2.45-.02-4.91-.01-7.36,0-1.5-.35-3.03.09-4.53-.13-1.04-.74-2.19-.32-3.31-.33-1.96-.04-3.93-.09-5.89-.13,0,0,0,0,0,0h0c-.26-.29-.57-.42-.89-.45-.34-.04-.69.02-.99.09-.73.16-.42.52-.04.78.03.02.06.04.08.06.91.87.88.86.51,1.62-.65,1.33-1.67,2.49-1.94,4-.74.85-.58,1.83-.4,2.82-.05,1.06-.36,2.11-.17,3.19.04.14.08.29.12.43,0,.3,0,.61,0,.91l-.13.09.05.16s0,0,0,0c-.35.4-.43.8-.03,1.2,0,.33,0,.65,0,.98,0,.23,0,.47.01.7.01.32,0,.66.18.93.05.07.11.13.19.19,0,.19,0,.39,0,.58,0,.51.03,1.02.18,1.51.07.22.16.44.29.66,0,0,0,0,0,0h0c-.02.12-.03.23-.04.34-.04.49.01.97.18,1.44-.04.66-.05,1.32.44,1.86,0,0,0,0,0,0,.04.12.07.25.09.37-.01.03-.02.06-.03.1-.1.35-.09.66.24.88.03.02.06.04.09.06h0c.06.12.11.24.14.36-.13.49-.13.99,0,1.48-.05.12-.08.25-.1.38-.06.03-.12.06-.18.09-.22.11-.44.23-.66.34h0c-.26-.45-.69-.42-1.09-.45-.09,0-.17-.01-.25-.02l-.09.07c-.04-.25-.16-.44-.42-.49-.03-.1-.06-.19-.11-.26-.12-.17-.3-.25-.51-.27-.07,0-.15-.01-.23-.01-.25-.34-.62-.36-.99-.33l-.08-.13-.15.04h0c-.4-.59.01-1.44-.63-1.95.12-.27.14-.52-.07-.76-.21-.61.13-1.34-.41-1.87.06-.41-.08-.72-.42-.96,0-.16-.02-.32-.07-.45-.02-.04-.04-.08-.06-.13-.08-.13-.21-.23-.4-.29-.03-.27-.19-.4-.46-.38l-.1-.16-.19.02c-.08-.06-.16-.12-.25-.17-.39-.24-.75-.29-.75.47,0,.1,0,.2-.01.31-.03.46-.07.96.32,1.35.02.51-.09,1.05.44,1.39-.04.66.05,1.31.16,1.95.05.27.1.55.15.82.09.45.17.89.21,1.34l-.12.11.07.15s0,0,0,0c-.73.71-.26,1.65-.47,2.46-.17.35-.29.67-.36.98-.18.78-.05,1.54.41,2.76.07.12.15.24.22.37l.3.5c-.04.27-.06.53-.06.79,0,.65.11,1.29.43,1.89.02.04.04.08.06.12h0c.13.23.26.46.39.69,0,0,0,0,0,0l-.05.15.13.09c-.05.27.06.46.29.57,0,.11,0,.2.03.29.04.15.11.28.21.38.07.07.16.14.28.19.02.24.02.49.07.72.02.08.05.15.07.23.07.16.17.3.34.42.05.27.1.54.15.81-.02.06-.02.13-.03.19-.06.42.03.81.3,1.14.03.04.05.08.09.12,0,.14.03.27.09.4-.09.17-.18.35-.28.52-.08.16-.17.31-.25.47-.3.23-.44.53-.51.86-.03.14-.05.28-.07.42-.24.09-.38.26-.38.52-.25.07-.38.25-.43.49-.36.04-.68.16-.91.47h0c-.16,0-.31,0-.47,0-.02,0-.03.01-.05.02-1.19.53-2.44.65-3.72.49-.3-.04-.61.02-.91.04-.02,0-.04,0-.06,0-.41-.04-.81-.07-1.22-.11-.16-.09-.32-.15-.48-.18-.33-.12-.67-.22-1.01-.29-.35-.07-.71-.11-1.08-.1-.2,0-.4.01-.6.04-.17-.13-.34-.25-.51-.38-.02-.03-.04-.06-.06-.09-.32-.46-.83-.44-1.29-.38-.51.06-.89-.14-1.28-.36-.04-.03-.09-.05-.14-.08-.14-.22-.27-.44-.41-.66,0,0,0,0,0,0l.06-.15-.13-.1c.05-.47-.07-.88-.31-1.27-.02-.05-.06-.1-.09-.15.03-.13.04-.26.04-.38,0-.23-.09-.42-.32-.56-.03-.02-.07-.04-.11-.06-.02-.05-.03-.1-.05-.14-.38-1.04-.64-2.14-1.48-2.95-.21.15-.36.31-.47.47.06-.21.2-.38.47-.47-.52-.38-.89-.37-.9.03-.05,1.09-.26,2.2.4,3.2.04.27.05.55.13.8.06.21.17.4.39.56-.02.42.06.8.41,1.08l-.04.18.14.12c0,.3,0,.59,0,.89,0,.13,0,.25,0,.38,0,.64,0,1.29.01,1.93,0,.33,0,.66,0,.99-.05.57-.11,1.14-.16,1.71-.23.1-.37.27-.38.54-.19.1-.3.24-.35.38-.01.04-.03.08-.04.12-.06.28,0,.61-.04.9h0c-.38.2-.47.53-.45.93h0c-.06.06-.1.11-.14.16-.27.35-.3.78-.33,1.21h0c-.06.05-.11.11-.14.17-.27.33-.42.71-.41,1.15-.34.25-.33.63-.36.99h0c-.1.16-.21.31-.3.46-.37.56-.67,1.15-.87,1.79-.1.31-.17.63-.21.97l-.13.12.07.16s0,0,0,0c-.3.35-.6.7-.9,1.05-.29,0-.44.16-.5.42-.25.05-.4.2-.47.44-.42.09-.82.08-1.21.02-.42-.06-.83-.18-1.24-.3-.2-.06-.4-.11-.6-.16-.26-.26-.57-.42-.93-.48-.03-.05-.06-.1-.09-.15-.16-.21-.37-.3-.63-.3-.08,0-.16,0-.24.02-.04-.02-.07-.04-.11-.05-.27-.13-.54-.25-.8-.38-.05-.26-.2-.42-.46-.46-.06-.27-.22-.42-.51-.4.17.14.33.27.5.41,0,0,0,0,.01.01,0,0,0,0,0,0,.15.14.29.29.43.43,0,0,0,0,0,0,0,0,0,0,0,.01-.19-.11-.34-.26-.45-.45-.19-.11-.33-.28-.5-.41h0c-.2-.36-.52-.49-.9-.48-.33-.46-.83-.51-1.34-.53-.16-.14-.32-.28-.48-.42,0-.21-.02-.42-.1-.58-.02-.03-.03-.05-.05-.08-.07-.09-.18-.17-.35-.21h-.02c-.06-.2-.16-.33-.28-.41-.03-.02-.06-.04-.09-.05-.13-.06-.27-.1-.43-.12-.06-.24-.22-.39-.46-.47-.03-.13-.07-.25-.12-.36-.1-.24-.25-.44-.43-.61-.13-.12-.28-.23-.46-.32-.29-.33-.58-.65-.87-.98-.03-.19-.09-.36-.17-.51-.07-.09-.14-.19-.2-.28-.17-.19-.38-.35-.62-.5l-.02-.02c-.03-.26-.19-.41-.43-.48-.01-.37-.11-.7-.49-.87l-.02-.03c-.1-.19-.29-.31-.34-.53,0,0,.01,0,.02,0h0s0,0,0,0c0,0,0,0,0,0,.11.18.22.35.32.53,0-.25-.08-.46-.34-.56-.13-.58-.55-.95-1.01-1.28h0c-.01-.3-.13-.52-.39-.66l.06-.16-.13-.11c.07-.41-.17-.67-.45-.9h0c.04-.33-.1-.55-.38-.7l.05-.15-.13-.09c.05-.29-.07-.47-.33-.56-.12-.37-.17-.77-.26-1.15-.06-.24-.14-.48-.28-.69-.1-.16-.24-.3-.43-.43-.01-.5-.04-1-.56-1.29l-.02-.03c0-.28-.17-.42-.42-.48h0c-.08-.28-.12-.58-.15-.87-.08-.73-.1-1.48-.52-2.12-.06-.1-.12-.19-.2-.28.02-.12.03-.23.04-.35.04-.5,0-.97-.4-1.35-.04-.04-.08-.08-.13-.11-.03-.13-.06-.26-.1-.38,0-.03.01-.06.02-.1.12-.51.11-.97-.49-1.22,0,0-.01,0-.02-.01-.09-.09-.2-.14-.33-.14-.07-.44,0-.91-.03-1.35,0-.08-.02-.15-.03-.23-.05-.26-.15-.51-.37-.74,0-.17.01-.34,0-.51-.01-.26-.07-.5-.24-.71-.05-.06-.11-.13-.19-.18-.03-.39-.21-.67-.56-.85.03-.25.06-.5.08-.76,0-.1.02-.21.02-.31,0-.29-.06-.55-.27-.74-.05-.04-.1-.08-.17-.12-.01-.13-.01-.27-.02-.4,0-.33-.01-.65-.28-.89-.04-.04-.1-.08-.16-.11-.17-.48-.18-1.01-.4-1.47-.03-.11-.08-.2-.17-.29-.02-.51.03-1.03-.41-1.42-.03-.53-.09-1.06-.23-1.57-.07-.25-.15-.5-.28-.74.09-.79.08-1.57-.42-2.25,0-.01-.01-.02-.02-.03-.05-.28-.09-.55-.14-.83.01-.1.02-.2.03-.3.05-.55.02-1.09-.34-1.57-.02-.02-.03-.04-.04-.06-.14-.22-.29-.44-.43-.67l.04-.15-.13-.09c.1-.5.25-.98.13-1.53-.21-.97-.27-1.97-.12-2.97,0-.04,0-.08.01-.13,0-.97,0-1.95,0-2.92,0-.43-.04-.84-.35-1.17-.02-.02-.04-.05-.07-.07,0-.75,0-1.5-.01-2.25.03,0,.05-.02.06-.06.05-.05.11-.1.15-.15.15-.21.22-.45.21-.73-.03-.8-.06-1.59-.09-2.39.06-.23.1-.46.1-.69,0-.21-.01-.42-.07-.65-.07-.26.05-.58.08-.87.01-.02.02-.03.03-.05.67-.87.42-1.85.31-2.82.04-.12.07-.24.1-.37.56-.81.58-1.69.48-2.59-.02-.23-.06-.46-.09-.69.11-.13.13-.27.06-.42.32-.15.32-.31.03-.49-.01-.5.08-.97.45-1.34.01,0,.02-.02.03-.03.57-.4.55-.93.44-1.47-.03-.13-.06-.27-.08-.4.04-.12.08-.25.12-.37,0,0,0,0,.01-.01.46-.39.29-.94.37-1.43,0-.03,0-.07,0-.1.02-.26.05-.52.07-.78.16-.26.27-.48.34-.68.08-.25.08-.47-.01-.71-.06-.16-.16-.34-.31-.53,0,0,0,0,0,0h0c-.03-.29-.06-.59-.09-.88h0c.31-.2.48-.5.57-.84.14-.08.26-.15.36-.23.75-.55.54-1.08.09-1.59-.16-.19-.36-.37-.56-.56h0c-.05-.1-.09-.18-.14-.25-.18-.29-.33-.31-.6-.08-.08.07-.16.15-.27.25l.04-.04s0,0,0,0h0,0s0,0,0,0c-.3-.04-.59-.09-.89-.13-.17-.01-.34-.04-.52-.07-.56-.08-1.13-.16-1.69-.24-.07-.25-.22-.41-.51-.4-.23-.36-.59-.4-.97-.4h-.02c-.34-.44-.83-.49-1.32-.53-.17-.28-.43-.37-.74-.39-.52-.02-1.04-.05-1.56-.07-.26-.28-.57-.43-.96-.42h0c-.21-.34-.54-.46-.92-.46h0c-.67-.67-1.53-.35-2.31-.44h-.02c-.15-.24-.33-.37-.53-.45-.18-.07-.37-.1-.57-.11-.21-.01-.43,0-.64-.03-.04-.07-.08-.13-.13-.19-.2-.22-.47-.28-.8-.22,0,0-.02,0-.03,0l-1.42-.42c-.12-.22-.27-.35-.44-.42,0,0-.01,0-.02,0-.28-.11-.61-.08-.94-.07l-.09-.08-.11.06s0,0,0,0c-.33-.32-.72-.45-1.17-.38-.22-.18-.46-.21-.71-.09,0,0,0,0,0,0,0,0,0,0,0,0-.14-.27-.34-.43-.65-.42-.13-.19-.28-.29-.45-.36-.16-.06-.34-.09-.51-.11-.26-.02-.53-.03-.77-.12-.03-.11-.07-.2-.14-.27-.07-.04-.13-.09-.2-.13-.05-.02-.1-.03-.16-.04-.03-.04-.06-.07-.09-.1-.21-.21-.48-.25-.75-.27-.19-.01-.38-.02-.56-.07-.04-.08-.08-.14-.13-.19-.13-.14-.3-.2-.48-.22-.11-.02-.22-.02-.33-.03-.04-.06-.08-.12-.12-.17-.21-.23-.48-.27-.76-.26-.18,0-.37.03-.55.05-.23-.31-.57-.41-.93-.45h0c-.06-.25-.19-.42-.48-.42l-.03-.02s-.07-.07-.1-.11c-.44-.45-1.05-.4-1.61-.48-.05-.08-.1-.15-.16-.2-.11-.1-.25-.16-.4-.18-.13-.02-.27-.02-.42,0-.22-.3-.51-.48-.88-.52-.04-.07-.09-.13-.14-.18-.19-.19-.43-.25-.68-.26-.19-.01-.38,0-.58,0-.09-.23-.25-.38-.51-.4-.06-.14-.14-.24-.23-.31-.18-.14-.42-.18-.66-.21-.13-.02-.27-.04-.39-.08-.02-.03-.04-.07-.06-.09-.14-.2-.34-.25-.56-.25-.13,0-.27.01-.4.02-.19-.39-.53-.49-.93-.45-.1-.13-.2-.24-.32-.34-.16-.12-.34-.19-.58-.15-.23-.28-.57-.32-.89-.37-.03,0-.05,0-.08-.01l-.04-.03s-.03-.04-.05-.07c-.14-.2-.34-.27-.58-.29-.03,0-.06,0-.09,0-.5-.02-1-.09-1.5-.14-.03-.18-.09-.32-.23-.4-.02-.01-.04-.02-.07-.03-.05-.02-.1-.03-.17-.02-.03-.04-.06-.07-.09-.1-.18-.18-.39-.26-.62-.31-.21-.04-.43-.06-.64-.1-.22-.38-.57-.44-.97-.4l-.09-.12-.14.05s0,0,0,0c-.57-.5-1.32-.29-1.96-.53-.1-.25-.29-.36-.56-.36-.15-.2-.32-.33-.51-.41-.06-.02-.12-.04-.18-.06-.22-.05-.46-.06-.71-.03l-.12-.1-.13.09s0,0,0,0c-.22-.09-.44-.19-.66-.28-.12-.08-.23-.16-.35-.25-.08-.08-.18-.14-.27-.2-.69-.39-1.63-.32-2.08-1.12-.26-1.2,0-2.42,0-3.63,0-.31-.01-.62-.06-.92.03-.13.06-.26.1-.39,0,0,0,0,0,0,.54-.38.31-.95.35-1.45.17-.32.18-.66.15-.99-.01-.1-.03-.21-.05-.31.3-.23.38-.58.46-.93.07-.03.13-.07.18-.1.41-.3.34-.75.26-1.2,0-.03,0-.06-.01-.09.03-.03.05-.06.07-.09.34-.41.52-.86.46-1.36-.02-.14-.04-.28-.1-.42.18-.17.3-.36.37-.56.06-.17.08-.35.08-.53,0-.1,0-.21-.03-.31v-.02c.15-.15.3-.3.44-.45h.03c.12-.02.25-.02.37-.03.13-.01.25-.04.36-.1.09-.05.18-.13.25-.24.39,0,.69-.16.9-.49.16,0,.31-.02.43-.07.18-.07.33-.18.47-.32.17-.16.32-.36.48-.54.18,0,.36,0,.51-.06.06-.02.11-.05.16-.09.09-.08.17-.18.22-.34h0c.16-.14.3-.3.48-.42,0,0,0,0,0,0h0s0,0,0,0l-.48.42c.26-.03.44-.16.5-.42.37-.04.67-.18.88-.5h0c.18,0,.34-.03.47-.09.16-.07.28-.18.38-.32.07-.11.13-.24.18-.39.2-.02.4-.03.59-.08.09-.03.18-.07.27-.1.16-.08.29-.21.39-.42h.02s0-.01,0-.01c.28,0,.48-.13.61-.38-.2.13-.4.26-.61.38.19-.14.37-.31.61-.38.14.09.25.06.33-.08.17-.13.3-.31.53-.35,0,0,0,0,0,.01-.18.11-.35.22-.53.34.29.06.47-.04.55-.32.28-.07.45-.25.56-.5h.11s0,0,0,0c.23.26.46.31.68-.02,0,0,0,0-.01,0,.6-.32,1.2-.63,1.8-.95.4.03.72-.1.98-.4.21-.03.44-.02.65-.05.18-.02.35-.07.5-.18.08-.06.15-.14.21-.24.28-.04.4-.23.46-.47.58-.05,1.16-.09,1.74-.14.02,0,.04,0,.06,0,.17.03.31,0,.4-.11.04-.05.08-.11.11-.19l-.06-.1.22.04.22-.06c.07.02.14.03.2.05.28.05.53,0,.71-.24.03-.04.06-.09.09-.15l-.06-.1c.17-.12.31-.3.52-.36,0,0,0,.01,0,.02-.17.11-.34.23-.52.34.27.02.46-.09.55-.34.12,0,.23-.01.34-.03.16-.03.31-.09.43-.21.06-.06.11-.13.15-.21.22-.02.45-.04.66-.09.09-.02.17-.05.25-.07.17-.06.32-.16.46-.3.26,0,.53,0,.79,0,.34,0,.68-.03,1.01-.1.32-.07.64-.19.94-.4.6-.18,1.2-.35,1.79-.53h0s.05,0,.07,0c.28.02.55,0,.77-.16.06-.05.12-.1.17-.18.11,0,.22.01.33,0,.29,0,.57-.06.81-.23.08-.06.16-.13.24-.22.87-.06,1.75-.12,2.62-.18h0s.07,0,.1,0c2.59,0,5.18,0,7.77.01h0s0-.08.01-.12c0-.05.01-.1.01-.15,0-.04.01-.08.01-.12l-.05-.07c.48-.01.95-.03,1.43-.04l.2.06.2-.07c1.63.25,3.28.12,4.92.07.62-.02,1.24-.03,1.85,0,.36.02.71.04,1.07.08.03.03.05.06.08.09.31.34.7.37,1.11.3.08-.01.16-.03.24-.05l.21.08.22-.03-.06.1s0,0,0,0c.03.06.06.12.1.16.19.23.46.2.73.17.06,0,.12-.01.19-.02.02.02.04.02.06.04.37.28.77.23,1.18.17.16-.02.33-.05.49-.05.1.23.27.36.54.35.12.22.29.34.47.4.19.07.41.08.63.08.02,0,.04,0,.06,0,.36,0,.72.03,1.08.05.1.16.22.27.36.34.04.02.08.03.12.05.14.05.29.06.46.03.04.07.09.12.13.15.08.06.16.05.24,0,.05-.04.1-.09.14-.16l.2.06.2-.03c.1.15.22.28.36.38,0,0,.01,0,.02.01,0,0,.02,0,.02.01.13.08.28.13.46.13.26.32.5.23.73-.06h.14s0,0,0,0c.34.15.68.31,1.03.46.28.16.57.28.85.37.91.27,1.84.15,2.77-.21.04-.02.08-.07.11-.11.01-.02.03-.04.04-.06.24-.06.42-.18.48-.43.1-.01.19-.03.28-.06.52-.16.78-.54.71-1.16-.03-.27-.07-.54-.2-.77-.08-.15-.19-.29-.36-.41-.03-.59-.06-1.18-.09-1.78.03-.27.06-.55.09-.82.06-.7.04-1.38-.48-2-.02-.1-.06-.19-.1-.27-.06-.11-.15-.19-.3-.23-.03-.36-.07-.72-.08-1.08,0-.45,0-.9-.42-1.19.05-.15.03-.29-.07-.42,0-1.38.01-2.77-.02-4.15,0-.18-.22-.36-.33-.54l-.07.06c-.02-.45-.04-.89-.05-1.34.06-.47.11-.94.12-1.41.01-.69-.07-1.37-.36-2.02-.05-.1-.09-.21-.15-.31-.03-.13-.06-.25-.08-.38.05-.46.08-.92.09-1.37.02-.98-.06-1.96-.32-2.92-.18-.58-.2-1.15-.12-1.77.1-.75.13-1.53-.34-2.19-.03-.05-.07-.1-.11-.15-.03-.13-.06-.26-.08-.39,0-.34-.01-.67-.02-1.01.02-.13.05-.26.09-.39.05-.1.1-.2.14-.3.4-.89.48-1.77,0-2.64-.05-.1-.11-.2-.18-.3-.16-.74-.06-1.49.15-2.16,0-.02,0-.03.01-.05.09-.28.07-.55,0-.81-.13-.53-.42-1.04-.16-1.58.12-.11.2-.23.27-.36.25-.43.25-.89.21-1.37-.02-.2-.04-.41-.06-.61.04-.13.07-.26.08-.4.02-.01.04-.03.06-.04.21-.15.21-.28.02-.41-.03-.02-.06-.04-.1-.05,0-.29.02-.59.03-.88.09-.08.17-.16.23-.24.34-.43.27-.86,0-1.28-.07-.12-.16-.24-.26-.37-.02-.15-.03-.3-.05-.45l.11.06h0s0,0,0,0h0s0,0,0,0c.28-.07.39-.26.35-.54,0,0,0,0,0,0,0,0,0,0,0,0,.1-.13.11-.27.04-.42.13-.11.25-.22.38-.34,0,0,0,0,0,0,0-.01,0-.03,0-.04l.06-.55s.04-.02.06-.04c.36-.22.41-.55.35-.93.77-.42.46-1.15.51-1.78,0,0,0-.02,0-.03,0,0,.01,0,.02,0,.23-.08.37-.23.42-.46.68-.46.99.15,1.39.5v.03c.08.05.12.1.16.16-.04-.06-.09-.11-.15-.16,0,.5-.08,1.03.46,1.35h0c0,.32.02.62.03.93-.33.14-.33.29,0,.44-.03.38.05.72.41.93.15.32.29.63.44.95.01.58.17,1.12.47,1.61,0,0,0,0,0,0l-.06.12.09.09c-.06.53-.06,1.04.5,1.35l.02.02c.02.28.11.52.37.66,0,0,0,0,0,0l-.08.15.11.12c-.07.54-.05,1.05.51,1.35l.02.02c.53.51.2,1.42.87,1.87-.01.39.18.66.5.85l.02.04c0,.27.12.44.37.51.08.46.04.98.53,1.27l.04.05c.02.24.1.44.34.54,0,.29.15.43.41.5.07.35.21.66.57.82h0c0,.28.12.45.37.55.01.66.48,1.01.96,1.35.01.28.15.45.43.49.07.24.23.4.46.48.05.53.38.82.87.97.06.25.22.4.47.45.14.51.5.75,1,.83.06.26.21.43.5.42-.16-.14-.32-.27-.48-.41,0,0,0,0,0,0,.19.11.33.27.48.42h0c.15.16.3.32.44.48.06.28.22.42.51.38h.02c.14.31.39.57.66.31.25-.24.04-.54-.24-.72,0-.14-.03-.27-.1-.39.1-.42-.07-.72-.4-.96-.14-.19-.27-.39-.41-.58,0,0,0,0,0,0,.07-.17.02-.29-.15-.36.04-.26-.11-.4-.33-.48,0-.38-.16-.66-.51-.83l-.03-.05c0-.26-.13-.43-.38-.51,0-.28-.14-.45-.41-.51-.12-.59-.49-.99-1.02-1.26l-.02-.03c-.01-.26-.16-.42-.4-.5,0-.3-.16-.45-.45-.47-.14-.2-.29-.4-.43-.6,0,0,0,0,0,0l.05-.17-.13-.12c.04-.39-.04-.73-.42-.93,0-.31-.19-.42-.46-.46-.14-.22-.27-.44-.41-.65h0s0,0,0,0c0,0,0,0,0,0v-.18s-.14-.09-.14-.09c.03-.29-.13-.4-.38-.43h-.01c-.14-.47.21-1.09-.46-1.37l-.02-.02c-.12-.18-.23-.35-.35-.53,0-.51.06-1.05-.46-1.39-.04-.37-.28-.63-.54-.87,0-.51.13-1.07-.42-1.41,0-.38.02-.77-.41-.97-.23-.57.06-1.31-.57-1.75h0c-.03-.56-.04-1.11-.39-1.58,0,0,0,0,0,0,.11-.76-.75-1.23-.7-1.85.12-1.29-.6-2.26-1.01-3.34-.03-.07-.05-.13-.08-.2h0s0,0,0,0c-.02-.22-.04-.45-.06-.67,0,0,0,0,0,0h0c.31-.2.63-.4.94-.59.22-.09.43-.18.63-.29.32-.17.63-.37.92-.59.23-.17.46-.35.68-.54,0,0,0,0,0,0,.35-.07.71-.13.93-.46.53.04,1.03.03,1.39-.44.04,0,.21.03.21.03l.21-.08c.54-.01,1.08-.02,1.61-.03.6-.01,1.2-.03,1.8-.05.39-.01.82.11,1.15-.18.04-.04.08-.07.12-.12.12-.02.23-.03.35-.03.51.4,1.1.5,1.72.49,1.44-.02,2.88-.06,4.32-.09l.19.11s.18-.02.21-.02c.1.13.2.23.31.29.26.16.55.17.85.16.23,0,.47-.03.69,0,.06.13.14.22.22.28.16.13.35.17.55.17.2,0,.41-.02.61,0,.11.14.25.26.4.34.16.09.33.12.5.1,0,0,.01,0,.02,0,.71-.14,1.2.31,1.76.55.08.25.26.38.51.43.05.25.21.4.46.45.07.35.25.62.56.81l.02.03c-.02.28.11.45.37.53.16.69.49,1.28.95,1.81.06.62.46,1.02.87,1.41.03.38.14.71.51.89.05.34.17.66.16,1.01,0,.09-.02.19-.05.29-.18.61.23.99.72,1.21.46.21.63-.26.88-.51.09-.1.18-.2.26-.3.1-.12.21-.25.31-.37l.03-.03c.41-.15.54-.45.46-.87,0-.16-.01-.31-.02-.47h0c.08-.14.07-.28-.02-.42,0-.11,0-.22,0-.33,0-.64,0-1.28,0-1.92,0-.32,0-.64,0-.96,0-1.21,0-2.41,0-3.62,0-.21,0-.42,0-.63.27-.71-.18-1.47.16-2.18.26-.05.41-.2.46-.46.26-.07.38-.25.41-.51.23-.06.42-.16.53-.39.1,0,.19,0,.28-.03.19-.04.36-.12.5-.26.05-.05.1-.11.14-.18.65-.32,1.29-.65,1.93-.97l.15.07.11-.13c.29-.02.58-.05.88-.07,0,0,0,0,0,0,.34,0,.67,0,1.01,0,.13.05.26.08.39.1.01.01.02.02.03.04.23.29.53.43.91.4.04.05.08.09.13.11.06.03.12.04.19.03.1.33.29.6.62.74l.02.02c0,.27.13.42.42.41l.07.15.17-.02s0,0,0,0c.13.26.34.41.62.46.07.35.21.66.53.86,0,.04,0,.08.01.11.06.51.5.65.9.83.35.46.24.91-.04,1.36t0,0s.1.1.14.14c.11.11.22.22.33.33l.04.04c1.49-.77-.03-2.37.91-3.3.49-.42,1.11-.68,1.63-1.06.27-.2.52-.43.71-.73.28-.02.43-.18.48-.45.27-.05.41-.22.43-.49.24-.06.44-.16.52-.41.3-.03.4-.23.4-.51.15-.1.31-.2.46-.3.25-.18.46-.4.53-.71.02-.09.03-.18.02-.28.23-.11.37-.28.36-.55h0c.23-.15.45-.31.61-.5.07-.09.14-.18.19-.28.08-.17.13-.36.13-.59.37-.19.42-.55.48-.91.11-.03.2-.08.27-.14.15-.12.22-.28.23-.47,0-.09,0-.18,0-.28.29-.26.43-.58.4-.97h0c.44-.35.55-.82.5-1.35.34-.22.46-.54.45-.92.43-.36.5-.85.48-1.37.4-.38.47-.88.45-1.4.5-.34.44-.88.47-1.38.03-.03.05-.07.07-.11.18-.26.29-.53.35-.82.1-.43.1-.88.1-1.33,0,0,0,0-.01,0,0-.02.01-.04.02-.05.16-.47.29-.94.38-1.41.22-1.12.22-2.24-.09-3.35-.1-.34-.21-.68-.37-1.03l.09-.11-.08-.11c0-.33.03-.68.01-1.01,0-.17-.03-.34-.08-.49-.19-.57-.33-1.23-.83-1.62-.12-.09-.25-.16-.41-.22-.08-.27-.27-.44-.52-.55l.03-.17-.14-.1c.02-.38.07-.76-.33-.99-.08-.62-.56-.96-.96-1.35,0-.15-.04-.29-.09-.4-.08-.18-.21-.32-.39-.41-.12-.06-.25-.11-.4-.14-.07-.24-.22-.4-.46-.47-.03-.22-.11-.41-.23-.57,0,0,0,0,0,0-.2-.28-.5-.49-.8-.69l-.02-.03c-.11-.18-.29-.32-.34-.53,0,0,.01,0,.02,0,.11.18.21.35.32.53,0-.25-.08-.46-.33-.57-.04-.37-.2-.65-.58-.78l-.03-.03c-.12-.38-.42-.52-.77-.61-.14-.23-.29-.45-.43-.68-.02-.05-.05-.11-.1-.15.02-.11,0-.2-.03-.27-.04-.09-.1-.16-.19-.21-.05-.02-.1-.04-.16-.06-.09-.26-.29-.36-.55-.37,0,0,0,0,0,0-.16-.13-.32-.28-.42-.47,0,0,0,0,0,0-.02-.21-.02-.42-.04-.62-.02-.15-.06-.3-.14-.42-.07-.12-.18-.22-.33-.3-.01-.28-.17-.43-.44-.49-.03-.26-.16-.42-.4-.51,0-.1,0-.2-.01-.29-.02-.23-.09-.44-.33-.56-.04-.02-.09-.03-.14-.05-.06-.25-.23-.39-.46-.47,0-.14-.01-.27-.04-.4-.03-.15-.09-.28-.2-.39-.06-.06-.13-.11-.21-.15-.06-.14-.11-.29-.17-.42-.18-.41-.42-.77-.87-.93-.1-.03-.2-.06-.32-.07-.13-.2-.27-.4-.4-.61-.03-.08-.08-.16-.14-.22.04-.16.07-.32.07-.48.02-.3-.04-.57-.28-.79-.06-.05-.13-.1-.21-.15-.03-.38-.17-.68-.53-.86h0c-.13-.18-.3-.31-.4-.5,0,0,0,0,0,0h0c.13.16.27.32.4.49.01-.29-.16-.43-.4-.51-.01-.18-.02-.36-.07-.53-.03-.11-.08-.21-.16-.3-.04-.05-.1-.1-.16-.14,0-.06-.01-.11-.03-.16-.03-.08-.07-.15-.13-.2-.07-.06-.16-.1-.27-.13-.03-.15-.06-.29-.11-.42-.16-.5-.44-.92-.8-1.29-.18-.18-.37-.34-.58-.5-.04-.37-.11-.71-.42-.96,0-.09,0-.17-.02-.25-.06-.32-.28-.55-.51-.77-.13-.12-.26-.24-.37-.38,0-.11,0-.21-.03-.31-.04-.18-.12-.34-.25-.48-.05-.05-.11-.1-.18-.15-.01-.08-.04-.14-.06-.21-.09-.27-.26-.47-.5-.61-.1-.05-.21-.1-.33-.13-.18-.42-.09-.97-.62-1.22l-.03-.03c-.11-.39-.46-.46-.77-.58,0-.15,0-.31-.02-.46-.02-.21-.07-.4-.2-.56-.08-.1-.19-.18-.35-.25h0c-.13-.18-.3-.31-.39-.51,0,0,0,0,.01,0h0s0,0,0,0c.13.17.25.33.38.5-.02-.26-.12-.45-.38-.53-.02-.3-.19-.5-.46-.63l.02-.16-.14-.08c.02-.26-.05-.46-.31-.57-.11-.26-.23-.52-.36-.78-.14-.3-.3-.59-.47-.88-.2-.34-.41-.68-.66-.99h0c.03-.28-.06-.49-.33-.58-.05-.25-.22-.39-.45-.47,0-.1,0-.2-.02-.31-.03-.34-.09-.66-.32-.92-.04-.04-.09-.09-.14-.13,0-.07-.01-.14-.02-.21-.04-.22-.12-.41-.28-.57-.05-.05-.11-.09-.17-.13,0-.07,0-.15,0-.22-.02-.24-.09-.46-.29-.61-.05-.04-.1-.07-.16-.1-.06-.41-.16-.8-.5-1.08l.05-.14-.11-.09c.06-.41-.12-.71-.44-.95-.13-.61.09-1.32-.49-1.81h0c0-.51-.09-1-.41-1.42.12-.45,0-.87-.12-1.3.02-.16.05-.31.08-.47.08-.42.12-.84-.14-1.22-.06-.09-.14-.18-.24-.26l-.1.06c0-.31,0-.62-.01-.93l.1.06c.1-.27.17-.55.23-.83.13-.65.17-1.3.16-1.96,0-.47-.02-.95-.03-1.42.05-.14.04-.29-.02-.43l-.02-.52c.03-.28.06-.56.09-.85.15-.13.26-.27.34-.42.17-.3.23-.64.22-.99,0-.13,0-.27-.02-.41.14-.22.25-.45.34-.68.14-.36.23-.74.3-1.12.06-.34.11-.68.16-1.01.16-.08.28-.18.37-.29.14-.18.21-.4.22-.64,0-.11,0-.23,0-.35.23-.12.33-.31.31-.57v-.02c.36-.19.33-.59.5-.89.05-.02.09-.05.14-.07.29-.19.35-.48.28-.82,0-.03-.01-.06-.02-.08.04-.13.08-.25.12-.37.04-.01.07-.03.1-.05.17-.09.24-.22.23-.41,0-.04,0-.07,0-.11.1-.12.12-.26.07-.4.37-.2.46-.54.44-.93h0c.46-.37.42-.89.44-1.39v-.02c.34-.2.46-.51.52-.86.25-.05.45-.16.49-.44.09-.04.16-.09.22-.14.27-.22.31-.54.32-.87,0-.1,0-.21,0-.31.22-.09.36-.26.41-.5.13-.02.24-.07.31-.15,0,0,0,0,0,0,.08-.08.12-.19.12-.34.12-.06.21-.14.28-.23,0,0,.01-.02.02-.02.03-.05.06-.11.08-.17.05-.16.06-.34.05-.53.28-.21.5-.47.56-.82.24-.09.36-.28.38-.54.09-.03.16-.07.22-.12.15-.11.22-.27.26-.45.02-.1.03-.21.04-.32.19-.28.46-.49.71-.71.05-.04.09-.08.14-.12.18-.17.33-.36.42-.61.35-.15.51-.45.6-.8.08-.02.14-.05.2-.08.09-.06.16-.13.21-.24.02-.05.03-.1.04-.15.26-.1.37-.29.35-.56.37-.2.39-.57.47-.92.24-.04.46-.12.52-.4.28-.06.37-.26.41-.52.26-.05.42-.2.46-.46.25-.04.44-.15.52-.4.11-.01.2-.04.27-.09.04-.04.08-.08.12-.12.04-.06.08-.14.09-.23.25-.07.37-.27.42-.51.26-.04.45-.15.5-.42.27-.09.37-.28.36-.56-.12.18-.24.35-.35.53,0,0,0,0-.02,0,.06-.22.23-.36.37-.53h0c.32-.18.51-.45.6-.8.1-.02.17-.06.24-.11.04-.04.07-.08.11-.11.05-.06.08-.14.11-.22.1-.02.2-.04.3-.07.16-.05.3-.12.42-.24.06-.06.1-.13.14-.22.13-.01.23-.05.32-.11.01-.01.03-.02.04-.04.07-.07.12-.16.14-.28.25-.07.38-.24.46-.47.08,0,.16-.02.23-.05.23-.09.39-.27.51-.54.02-.04.04-.07.05-.11.14-.27.33-.52.49-.79h0s0,0,0,0c.31.01.43-.17.47-.45.25-.05.47-.14.57-.4,0,0,0,0,0,0,.28-.16.55-.33.8-.52.88-.65,1.63-1.45,2.35-2.28.23,0,.41-.07.56-.19.1-.08.19-.19.26-.34l.04-.03c.48-.11.45-.51.49-.86h0s0,0,0,0c.16-.14.29-.31.49-.4,0,0,.01,0,.02,0,.18,0,.34-.01.49-.07.06-.02.12-.06.18-.1.1-.08.17-.19.22-.35.27-.03.42-.19.48-.44.27-.02.44-.16.49-.43.35-.07.64-.24.85-.53h.01c.17-.13.31-.31.51-.4,0,0,0,0,0,0-.17.13-.34.26-.51.39.3.03.47-.1.52-.38.25-.05.4-.21.48-.44.11,0,.22-.01.33-.03.2-.03.37-.1.49-.28.03-.05.06-.1.08-.17.26-.04.43-.18.48-.45.35-.07.62-.27.84-.54h.01c.17-.14.31-.3.49-.43,0,0,0,0,0,0-.16.14-.33.29-.49.43.32.04.46-.13.49-.41.29,0,.58,0,.88,0,0,.38.16.67.49.88h0c.04.34.18.61.35.87.05.08.11.16.16.23.3.4.66.76.86,1.22,0,0,0,0,0,0,0,0,0,0,0,0,.01.29.17.44.44.49.07.35.02.76.49.9.03.26.16.44.42.52.11.24.18.51.27.76.08.25.18.5.33.73.08.12.18.24.31.34.02.38.27.63.53.88-.05.31.09.48.37.56.31.51.61,1.03.92,1.54l.11.18h0s0,.01,0,.01c0,.29.16.43.42.49.1.65.51,1.11.89,1.58.19.22.37.45.51.7h0c.11.41.45.5.79.6.08.27.26.45.52.56-.04-.31-.2-.51-.49-.59,0,0,0,0,0,0,.32.06.46.28.49.59v.16s.13.07.13.07c0,.36-.05.74.35.95,0,.28.14.45.4.53.02.1.05.19.09.28.1.21.26.37.46.49.11.07.22.13.35.19.04.12.1.24.16.35.21.41.49.76.85,1.03.15.12.32.22.5.31h0c.04.25.12.46.37.56.04.29.23.41.52.41,0,0,0,0,0,0,.18.12.33.27.46.44,0,0,0,0,0,0,0,.28.12.47.39.54.07.26.26.37.52.4.07.25.2.42.5.38l.1.15.17-.04s0,0,0,0c.21.14.43.28.64.41.04.26.14.47.44.48.18.38.56.4.9.48.05.26.18.43.46.46.04.1.09.17.16.23.06.05.12.09.19.12.17.08.36.1.55.14.05.15.12.28.2.39.28.42.71.64,1.17.83.15.06.3.12.44.18.06.08.12.14.19.2.11.09.24.15.37.19.13.04.26.06.4.07.12.12.25.25.38.37.2.19.42.36.68.48.09.04.18.07.28.1.11.25.32.34.58.33h0s0,0,0,0c.06.12.14.22.22.3.17.17.38.25.67.19.01,0,.02,0,.04,0,.13.01.26.03.39.04.33.28.66.56,1,.84h0c.03.15.09.25.15.33.09.11.22.17.36.19.11.02.22.02.34.02.22.29.52.45.87.51.09.25.28.35.55.32-.17-.11-.34-.21-.51-.32,0,0,0-.01,0-.02.22.04.35.22.52.34l.07.13.15-.03s0,0,0,0c0,0,0,0,0,0,.15.26.4.38.69.42.02.13.07.24.14.31.05.05.11.07.18.09.05.01.11.02.17.01h0s0,0,0,0h.03c.04.07.09.11.13.16.18.17.38.26.61.31.19.04.39.03.6,0l.12.13.17-.05c.11.25.28.44.56.5.03.07.07.13.11.18.11.13.26.19.41.2.15.01.31,0,.46-.02.16.2.39.22.62.23.25.09.49.18.74.27.04.1.08.19.13.25.17.24.41.24.67.21.21-.03.43-.09.62-.07h.02c.17.37.5.47.84.55.03.04.07.06.1.1.34.31.73.38,1.14.37.21,0,.42-.02.63-.05.08.08.18.1.28.04h0c.28.35.65.5,1.09.45.38.38.88.41,1.38.46.07.25.23.39.48.44.02.25.14.44.38.53.05.19.06.4.09.6.02.14.06.28.14.4.07.11.18.21.34.28h0c.14.16.31.3.43.48,0,0,0,0,0,0-.14-.16-.28-.32-.43-.48.04.26.14.46.43.5.17.44.63.6.94.9-.03.32.13.48.44.52.19.18.41.33.63.45.18.1.37.19.56.27.2.08.39.15.6.22.05.07.1.14.15.19.13.13.29.2.47.22.12.01.24,0,.37-.01.09.08.2.12.31.16.2.1.4.2.6.31.04.12.09.2.16.27.07.07.15.11.24.13.16.05.35.04.54.04.1.16.2.32.32.47.2.27.45.49.82.55.05,0,.11.02.17.02.08.09.17.17.26.23.08.04.16.08.23.12.14.05.29.08.46.07.13.14.26.28.39.41.17.17.35.32.57.41.12.05.26.08.41.09.08.24.2.43.48.47.05.08.1.14.16.19.14.12.32.17.5.19.22.03.46.03.66.12.07.35.13.7.55.82-.02.75-.03,1.5-.05,2.24-.16.35-.4.66-.61.99-.04.09-.1.18-.15.27-.08.17-.15.35-.18.56-.39.4-.3.94-.41,1.43-.18.12-.29.26-.35.42-.01.04-.03.08-.04.12-.07.26-.05.56-.08.83-.24.07-.41.22-.43.49.14-.16.29-.32.43-.48,0,0,0,0,0,0-.11.18-.27.33-.42.46h0Zm-4.19,54.91s0,0-.01,0c-.13-.16-.27-.33-.4-.49,0,0,0,0,0,0,.16.14.33.29.42.5Zm16.05,21.49s0,0,0,0c0,0,0,0,0,0,0,0,0,0,0,0Zm.06-.18s0,0,0,.01c0,0,0,0,0,0,.01-.04.04-.07.06-.09-.02.03-.04.06-.05.09Zm-2.28-6.6s0,0,0,0c-.15-.15-.3-.3-.45-.45,0,0,0,0-.01-.01,0,0,0,0,0,0h0s0,0,0,0c-.15-.15-.29-.3-.44-.45,0,0,0,0,0,0,.18.12.33.27.44.45.19.11.35.27.47.46,0,0,0,0-.01,0Zm-15.71-16.98s0,0,0,0c.26.06.42.21.44.48,0,0,0,0,0,0-.03-.26-.18-.42-.44-.48Zm-7.79-9.74h0s0,0,0,0c0,0,0,0,0,0Zm-3.26-4.07s0,0,0,0c.26.04.41.19.44.45,0,0,0,0,0,0-.04-.25-.19-.4-.44-.45Zm1.01,1.28c.15.15.31.29.4.5,0,0,0,0-.01,0h0s0,0,0,0c-.13-.16-.26-.33-.39-.49,0,0,0,0,0,0Zm-5.1-36.91s0,0,.01-.01c0,0,0,0,0,0h0s0,0,0,0c.16-.14.32-.27.49-.41,0,0,0,0,0,0-.16.15-.3.32-.49.42-.11.2-.28.34-.43.5,0,0,0,0,0,0,.14-.17.28-.33.43-.5Zm-59.43,235.06c-.12.18-.28.32-.43.48h0c.14-.16.29-.32.43-.48,0,0,0,0,0,0Zm-89.33-80.18h0s0,0,0,0c0,0,0,0,0,0Zm7.36,2.77s0,0,0,0c.16.13.33.27.49.4,0,0,0,0-.01,0,0,0,0,0,0,0-.2-.09-.33-.26-.48-.4h0Zm11.16,4.96s0,0,0,0c-.28-.03-.42-.19-.48-.45,0,0,0,0,0,0,.05.26.21.41.48.45Zm-.18-37.76l.07.07s-.06-.05-.1-.08c0,0,.02,0,.03,0Zm45.19-34.47s0,0,0,0c0,0,0,0,0,0-.07-.09-.13-.18-.2-.27.07.08.15.17.2.27Zm.9,1.86s0,0,0,0c0,0,0,0,0,0-.07-.11-.14-.22-.21-.33.08.1.16.2.21.32Zm4.1,5.16s0,0,0,0c.29.01.43.17.47.44,0,0,0,0,0,0-.05-.26-.2-.41-.47-.44Zm-.8-4.27c-.18-.14-.34-.29-.46-.48,0,0,0,0,0,0,.15.16.3.32.45.48Zm29.57-73.85s0,0,0,0c.02.14.06.25.14.34-.08-.08-.13-.19-.14-.34Zm5.92,9.32s0,0,0,0c.14.16.29.31.43.47h0c-.15-.15-.31-.3-.43-.47,0,0,0,0,0,0Zm3.24,36.48s0,0-.01.01c0,0,0,0,0,0,0,0,0,0,0,0,0,0,0,0,0,0-.16.13-.33.27-.49.4,0,0,0,0,0,0,.15-.16.29-.32.49-.41.09-.21.27-.35.42-.51,0,0,0,0,0,0-.14.17-.28.34-.42.51Zm5.57-24.58s0,0,0,0c-.21-.05-.35-.18-.43-.36.08.18.22.3.43.36Zm-6.5,25.48c.11-.19.28-.34.44-.49-.14.16-.29.32-.43.49,0,0,0,0,0,.01,0,0,0,0,0,0-.15.15-.31.29-.46.44,0,0,0,0,0,0,.13-.18.28-.34.47-.45Zm-20.83,8.29c-.08-.12-.17-.23-.25-.35.09.11.19.22.26.35,0,0,0,0,0,0Zm15.82-116.53s0,0,0,0c.05-.26.2-.41.46-.45,0,0,0,0,0,0-.25.04-.41.19-.46.45Zm-11.13,14.67s0,0,0,0c.13-.17.28-.32.47-.43,0,0,0,0,0,0-.16.14-.31.28-.47.43,0,0,0,0,0,0Zm5.61-8.21s0,0,0,0c.03-.27.19-.42.45-.47,0,0,0,0,0,0-.26.05-.41.21-.45.47Zm2.22-2.85s0,0,0,0c.13-.17.28-.32.45-.46,0,0,0,0,0,0-.15.15-.3.3-.45.45,0,0,0,0,0,0Zm-9.14,43.21s0,0,0,0c-.26-.05-.41-.19-.45-.46,0,0,0,0,0,0,.05.25.2.41.45.45Zm36.18-67.26s0,0,0,0h0s0,0,0,0Zm11.27-3.96s0,0,0,0c-.06.03-.13.06-.19.1.05-.05.12-.08.19-.1Zm59.34-8.88c-1.12.13-1.66,1.07-2.39,1.73-.39.01-.71.15-.85.56-.28.03-.41.21-.46.46-.26.02-.45.14-.53.4-.75.17-1.19.64-1.39,1.37-.24.06-.4.2-.49.43-.36.05-.68.18-.83.56-.26.01-.46.12-.55.37-.29.03-.45.19-.47.49-.61.76-1.28,1.47-2.15,1.94h-.02c-.29.01-.44.17-.47.45h0c-.28.03-.43.18-.46.46h0c-.52.29-.83.75-.99,1.31-.26.07-.39.25-.41.51-.26.05-.41.21-.46.46-.26.02-.45.14-.53.4-.93.32-1.59.89-1.78,1.91-.24.04-.47.11-.55.37-.27.06-.37.26-.41.51-.26.06-.44.19-.45.49-.6.56-1.26,1.06-1.78,1.69-.8.96-1.93,1.64-2.39,2.87,0,.02-.01.03-.02.04,0,0,0,0,0,0-.07.21-.24.35-.35.52l-.02.02c-.27.03-.44.15-.47.43-.27.04-.44.17-.47.46-.29.12-.58.24-.86.36-.05-.27-.24-.36-.5-.37-.15-.36-.44-.53-.8-.58-.08-.24-.25-.38-.5-.42-.06-.25-.21-.4-.45-.47-.13-.83-1.04-.79-1.48-1.28h0c-.34-.48-.76-.86-1.36-.98,0,0,0,0,0,0-.8-.38-1.32-1.23-2.25-1.4-.26-.29-.6-.38-.96-.44-.16-.41-.51-.5-.9-.5-.48-.58-1.17-.46-1.8-.5-.1-.24-.25-.39-.54-.36-.24-.32-.56-.46-.95-.43h0c-.37-.41-.85-.52-1.38-.45l-.12-.13-.17.06s0,0,0,0c-.42-.42-.99-.39-1.5-.53,0,0,0,.01,0,.02-1.03-.52-2.13-.77-3.27-.83-.01-.06-.03-.12-.04-.18-.02-.08-.03-.15-.05-.23-.74,0-1.48,0-2.22-.01l-.13-.13-.17.07s0,0,0,0c-.45-.32-.98-.38-1.5-.46-.43-.43-.99-.36-1.51-.37-1.36-.03-2.73,0-4.09,0-.28,0-.57.02-.85.02-.16-.04-.32-.09-.47-.13-.03.06-.06.12-.09.18,0,0,0,0,0,0,.03-.06.06-.12.09-.17-.39-.38-.87-.49-1.4-.46-.64.04-1.29.09-1.93.14-.1,0-.2,0-.3.02-.29-.12-.49-.04-.6.25l.06.13c-.14-.04-.29-.07-.44-.07-.49-.49-.96-.54-1.41.07-.29.01-.58.03-.88.04-.19-.19-.39-.38-.58-.57,0,0,0,0,0,0,.31.04.44-.15.5-.42.31.05.49-.08.51-.4,0,0,0,0,0,0,.09-.11.12-.23.11-.36.33-.09.64-.22.84-.53.51,0,.98-.09,1.3-.54h.02c.18-.13.31-.31.51-.39,0,0,0,0,0,0-.17.12-.34.25-.51.37.28.02.46-.1.53-.37.25-.04.4-.19.48-.43.98.2,1.67-.29,2.27-.98.57.03.84-.33,1.02-.79.68-.12,1.39-.11,2-.49.06-.03.13-.07.19-.12.41.06.76,0,.95-.42.47-.1,1-.06,1.33-.52h0c.16-.14.31-.31.49-.43,0,0,0,0,0,0-.16.14-.33.28-.49.42.3.02.44-.14.5-.41,1.15.08,2.14-.63,3.27-.66.31,0,.39-.36.48-.65,1.04-.24,2.18.09,3.16-.51.54,0,1.06-.1,1.54-.34.1-.03.2-.08.29-.16,1.31.02,2.53-.32,3.68-.92,0,0,0,0,0,0,.54-.36,1.35.21,1.8-.51h.02c.62-.17,1.36.23,1.87-.42.38.02.77.04.98-.36.43-.02.86-.04,1.29-.04.53,0,1.03-.09,1.4-.53.39.03.77.02.96-.4.43-.03.87-.1,1.3-.09.96.01,1.92.05,2.8-.42.57-.02,1.14-.04,1.71-.06.24-.35.62-.23.95-.3.14-.03.28-.04.42-.05.4-.04.81-.09,1.12-.42.27-.02.55-.04.82-.06.18.3.36.35.53,0,.15,0,.29-.02.44-.03.16-.01.32-.03.48-.04l.2.02.19-.04c.31.13.48,0,.56-.3l-.06-.11c.31-.01.62-.02.93-.03,0,0,0,0,0,0,0,0,0,0,0,0h0s-.05.11-.05.11q.77.55,1.42-.09s0,0,0,0c.16,0,.32-.01.48-.02.75.77,1.52.59,2.31.07.15-.01.3-.02.44-.03.25.32.59.47.99.47,1.37,0,2.74-.02,4.11-.04.19,0,.37.01.56.02.61.03,1.23.06,1.84.08,1.13.04,2.26.03,3.39-.19.31-.06.51.21.59.52-.24.06-.39.21-.46.45-.85.09-.93.91-1.34,1.42-.68.62-.68.61.09,1.02.12.06.21.2.31.3l.07.07Zm-12.91,11.51c.15-.15.3-.3.45-.45,0,0,0,0,0,0-.13.17-.28.32-.45.45,0,0,0,0,0,0Zm-10.06,10.11h0s0,0,0,0c0,0,0,0,0,0Zm-1.02,2.32s.05-.05.08-.08c-.02.05-.05.07-.08.08,0,0,0,0,0,0Zm-.31-3.31s0,0,0,0c-.13,0-.23-.05-.31-.11.08.06.18.1.31.11Zm.26,2.99s.05.02.07.03c-.02,0-.05-.02-.07-.02h0Zm-42.43-10.2c.19.14.38.28.58.43,1.18.64,1.92.65,3.28.04l-.05-.09c.78-.19,1.66.27,2.37-.34.28-.03.57-.06.85-.09.98.19,1.91,0,2.8-.41l.21-.03.21.03c.3.29.68.32,1.06.33,1.6.06,3.19.11,4.79.17,0,0,0,0,0,0,.81.37,1.64.61,2.53.3,1.36.24,2.72.1,4.09.08.46.68,1.2.36,1.81.5.06.05.12.08.18.11.37.22.8.27,1.22.33.24.29.54.44.93.39.09.15.22.19.37.1.42.42.95.43,1.48.42h0c.23.31.5.52.91.44l.13.13.18-.05s0,0,0,0c.27.35.66.39,1.06.42.18.42.51.52.93.44l.15.12.18-.07s0,0,0,0c.31.22.6.5,1.03.45.13.1.28.15.44.19.17.08.34.15.51.23h0s0,0,0,0h0c.04.26.16.43.45.4h0c.12.05.24.1.36.16.23.34.56.44.94.46.1.24.29.35.54.37h0c.78.6,1.55,1.21,2.33,1.8.1.07.25.07.38.1.23.34.59.41.97.42.47.55.95,1.11,1.42,1.66.2.23.47.28.75.29-.03.12,0,.22.08.31-.13.17-.26.34-.39.51.02.02.03.03.05.05,0,0,0,0,0,0,0,0,0,0,0,0l-.05-.05c-.28-.01-.47.1-.53.39-.28.06-.4.24-.38.53.13-.17.25-.34.38-.51,0,0,0,0,0,0-.09.2-.27.33-.39.51v.02c-.32.2-.51.48-.53.86-.45.35-.88.71-.98,1.32-.81.6-1.51,1.3-1.85,2.29-.25.11-.36.31-.34.58h0c-.36.2-.47.53-.48.91-.58.52-1.23.98-1.41,1.81-.37.21-.42.57-.45.94-1.05.58-1.39,1.56-1.51,2.66-.47.17-.81.46-.82,1.02-.39.71-1.02,1.32-1.03,2.21-.24.1-.4.26-.35.55-.08.1-.13.2-.16.32-.23.46-.41.94-.36,1.48-.33.25-.41.59-.37.98-.09.09-.14.2-.17.3-.22.48-.24,1.01-.33,1.53-.6,1-.4,2.12-.5,3.2-.44.5-.25,1.13-.32,1.7-.07.51-.06,1.03-.09,1.55h-.87c-.11-.29-.32-.47-.62-.53-.56-.12-1.13-.24-1.69-.37-.05-.05-.1-.1-.15-.13-.34-.29-.75-.39-1.2-.39-.18-.27-.46-.3-.76-.31-.36-.02-.73-.09-1.09-.14-.06-.27-.2-.44-.5-.4.16.14.33.27.49.41,0,0,0,0,0,0-.18-.11-.32-.28-.49-.41h-.01c-.04-.05-.09-.09-.14-.12-.32-.28-.71-.39-1.11-.5-.19-.39-.55-.43-.92-.46-.16-.48-.43-.84-1.01-.81-.25-.27-.52-.5-.91-.53,0,0,0,0,0,0-.48-.27-.96-.55-1.44-.82h0c0-.32-.16-.47-.47-.45l-.05.05s0,0,0,0c.02-.02.03-.03.05-.05-.65-.53-1.38-.86-2.19-1.05-.05-.25-.18-.42-.44-.48-.1-.27-.3-.36-.57-.35-.21-.37-.53-.48-.93-.43l-.11-.13-.16.05s0,0,0,0c0,0,0,0,0,0-.14-.25-.36-.38-.64-.42-.04-.27-.19-.44-.48-.43.16.14.32.29.48.43,0,0,0,0,0,0-.17-.13-.31-.29-.48-.43h0c-.18-.38-.5-.49-.89-.5-.31-.51-.84-.46-1.33-.51-.09-.23-.24-.39-.49-.43-.06-.28-.24-.39-.52-.38h-.03c-.51-.57-.97-1.19-1.67-1.55-.08-.53-.47-.77-.94-.92-.49-.86-1.22-1.51-1.98-2.12l-.02-.03c0-.27-.13-.44-.39-.51-.02-.28-.18-.43-.44-.47-.04-.24-.15-.43-.39-.54-.06-.56-.37-.86-.93-.92-.08-.23-.24-.38-.46-.47-.08-.62-.55-.95-.97-1.32.02-.4-.15-.7-.51-.89-.01-.57-.38-.82-.85-.97.09-.65-.27-1.12-.66-1.55-.4-.44-.82-.85-1.23-1.28l.06-.18-.13-.14c.06-.4,0-.75-.36-.99,0-.28-.16-.43-.42-.5-.08-.35-.14-.7-.5-.88-.03-.37-.21-.66-.5-.89.03-.41-.19-.66-.52-.86v-.02c-.13-.18-.31-.31-.39-.51,0,0,0,0,.01,0,.12.17.24.34.36.51.01-.27-.11-.45-.36-.53-.04-.37-.09-.74-.51-.89-.58-.77-1.15-1.54-1.74-2.29-.06-.07-.08-.14-.1-.21,0-.09,0-.19.01-.29.02-.11.05-.21.06-.32.34-.07.7-.11.89-.47.28-.02.41-.2.46-.45.77,0,1.32-.43,1.81-.97.41.05.7-.13.9-.48.27.02.46-.09.56-.34.37-.04.71-.13.88-.51.38-.02.72-.12.85-.55h0c.35-.08.73-.08,1-.37.31.03.44-.15.49-.42.27-.07.54-.13.8-.2.07.16.18.2.34.12Zm30.06,41.02s0,0,0,0c.18.11.32.26.45.42,0,0,0,0,0,0-.15-.14-.3-.29-.46-.43,0,0,0,0,0,0Zm1.74-14.45s0,0,0,0c0,.07,0,.13-.03.19.02-.06.03-.12.03-.19Zm1.86-3.25h0s0,0,0,0h0s0,0,0,0Zm-25.67,4.24s0,0,0,0c-.13-.07-.24-.17-.35-.26.11.09.23.17.34.26Zm-2.8.53s0,0,0,0c.16.14.32.29.44.47h0c-.15-.16-.29-.31-.44-.47Zm8.4,2.64s0,0,0,0c.01.09.04.17.08.24-.04-.07-.07-.14-.08-.24Zm-22.68-21.08c.16.14.31.29.44.47,0,0,0,0,0,0-.14-.15-.29-.31-.43-.46,0,0,0,0,0,0Zm.93,1.38h0c.15.15.31.29.41.48,0,0,0,0,0,0,0,0,0,0,0,0,0,0,0,0,0,0,0,0,0,0,0,.01-.14-.16-.27-.33-.41-.49,0,0,0,0,0,0Zm8.84,9.11s0,0,0,0c-.25-.05-.4-.19-.44-.44,0,0,0,0,0,0,.05.24.2.39.44.44Zm1.34,1.45s0,0,0,0c.15.16.3.31.45.47,0,0,0,0,0,0,0,0,0,0,0,0,.05.07.11.14.16.2-.06-.06-.11-.13-.16-.2-.18-.13-.34-.28-.45-.48Zm-19.39-11.02c.15-.15.3-.31.47-.44,0,0,0,0,0,0-.16.15-.31.29-.47.44,0,0,0,0,0,0Zm.47-.44c.14-.17.28-.34.48-.44,0,0,0,0,0,.01-.16.14-.32.28-.48.43Zm50.16,35.05s0,0,0,0c-.14-.17-.28-.33-.41-.5,0,0,0,0,0,0,.16.15.33.29.42.5Zm16.58-64.62s0,0,0,0c-.03.05-.07.1-.11.14.04-.05.07-.09.11-.14Zm-6.95.89s0,0,0,0c-.03.11-.09.19-.17.25.05-.08.11-.17.16-.25Zm-1.76.54s0,0,0,0c-.05.06-.1.1-.16.13.05-.04.1-.09.16-.13Zm-32.27,10.13s0,0,0,0c0,0,0,0,0,0,0,0,0,0,0,0,.15-.15.3-.3.45-.45,0,0,0,0,0,0-.13.18-.28.33-.46.46-.13.17-.27.32-.46.42,0,0,0,0,0,0,0,0,0,0,0,0,.16-.14.31-.28.46-.42Zm-22.17,12.38s0,0,0,0c-.06.25-.2.41-.47.44,0,0,0,0,0,0,.25-.04.41-.19.47-.43Zm-3.15,2.38s0,0,0,0c0,0,0,0,0,0-.14.16-.29.33-.5.41,0,0,0-.01,0-.02,0,0,0,0,0,0,.17-.13.33-.26.5-.39Zm-5.56,4.58s0,0,0,0c-.1.2-.26.35-.45.47,0,0,0,0,0,0,.15-.16.3-.31.44-.47Zm-5.58,5.03s0,0,0,0c-.05.26-.2.41-.46.46,0,0,0,0,0,0,.25-.05.4-.21.46-.46Zm-3.7,3.66s0,0,0,0c.04-.01.07-.02.11-.04-.03.02-.07.03-.11.04Zm-4.55,5.15s0,0,.01,0c-.09.2-.26.34-.43.48h0c.14-.16.28-.32.41-.48Zm-1.84,50.33s0,0,0-.01c.22.08.36.25.51.41-.17-.13-.34-.27-.51-.4Zm4.55,6.94s0,0,0,0c0-.08-.01-.16-.03-.22.03.06.05.14.04.23Zm6.97,11.02s0,0,0-.01c0,0-.01,0-.02,0-.13-.16-.26-.33-.39-.49,0,0,0,0,0,0,0,0,0,0,0,0,.17.15.33.29.41.51.22.08.36.25.51.42-.17-.14-.34-.27-.51-.41Zm2.8,3.63c.17.14.33.29.45.48,0,0,0,0,0,0-.15-.16-.3-.32-.44-.48Zm1.38,1.4s0,0,0,0c.19.12.34.28.48.44,0,0,0,0,0,0-.16-.15-.32-.29-.48-.44Zm1.4,1.82s0,0,0,0c.17.14.33.29.42.5,0,0,0,0-.01,0-.13-.16-.27-.33-.4-.49Zm1.81,2.34s0,0,0,0c.21.1.35.27.49.43h0c-.16-.14-.32-.28-.49-.42Zm.49.42s0,0,0,0c.16.14.32.28.41.48,0,0,0,0,0,0,0,0,0,0,0,.01-.13-.16-.27-.33-.4-.49Zm-8.65,25.23s0,0,0,0c.03.08.06.16.09.24-.04-.03-.08-.11-.1-.25Zm-13.01.09c-.14.17-.29.34-.5.43,0,0,0,0,0,0,.17-.14.34-.28.5-.42Zm-26.73,2.3s0,0,0,0c-.13.18-.28.34-.49.42,0,0,0-.01,0-.02l.48-.4Zm-6.51,5.97s.01,0,.02,0c-.08.21-.24.35-.41.49,0,0,0,0,0,0,.13-.16.26-.32.39-.48Zm-54.64,54.26c-.05.03-.12.05-.19.06,0,0,0,0,0,0,.07-.01.13-.03.19-.06Zm-10.35,6.5s0,0,0,0c0,.07,0,.14-.02.19.02-.06.02-.12.02-.19Zm-1.37,17.27s0,0,0,0c.18,0,.29.08.38.19-.09-.11-.22-.17-.38-.19Zm16.64,6.86s0,0,0,0c-.05-.06-.1-.12-.16-.19.06.05.12.11.16.19Zm8.25,3.27s0,0,0,0c.26.03.41.19.46.45,0,0,0,0,0,0-.06-.25-.21-.4-.46-.45Zm6,2.75s0,0,0,0c-.04-.06-.08-.13-.13-.19.05.05.1.11.13.19Zm55.46,73.27s0,0,0,0c.02-.06.05-.11.09-.15-.03.05-.06.1-.08.15Zm4.87-.42s0,0,0,0c.13,0,.23.04.31.1-.08-.06-.19-.09-.31-.1Zm12.66-8.96s0,0,0,0c.02.05.05.11.07.16-.03-.05-.06-.1-.07-.16Zm-.48-1.39s0,0,0,0c-.27-.02-.42-.18-.48-.43,0,0,0,0,0,0,.06.25.22.39.48.43Zm4.43-8.96s.08-.06.13-.08c0,0,0,0,0,0-.04.03-.08.05-.12.08Zm85.42-153.72s0,0,0,0c0,0,0,0,0,0,.04.27.19.42.46.46,0,0,0,0,0,0-.28-.03-.44-.18-.46-.47-.12,0-.22-.04-.3-.1.08.05.18.09.3.1Zm-13.4-13.76s0,0,0,0c.03.05.06.1.09.14-.04-.04-.06-.09-.09-.14Zm-6.41-7.89h0c-.29-.02-.44-.19-.5-.46,0,0,0,0,0,0,.06.27.23.42.5.45Zm-6.56-8.21s0,0,0,0h0s0,0,0,0h0s0,0,0,0c0,0,0,0,0,0,0,0,0,0,0,0l.48.41s0,0,0,0h0s0,0,0,0h0s0,0,0,0c0,0,0,0,0,.01,0,0,0,0,0,0,.15.16.29.31.44.47,0,0,0,0,0,0-.19-.13-.34-.28-.45-.48-.21-.1-.35-.27-.49-.43-.17-.13-.31-.29-.47-.43.16.14.31.29.47.43Zm-4.15-5.98s0,0,0,0c-.16-.15-.33-.29-.42-.49,0,0,0,0,.01,0,0,0,0,0,0,0,.14.16.27.32.41.48Zm-1.86-2.75c-.14-.16-.31-.3-.37-.51,0,0,0,0,.01,0,0,0,0-.02,0-.02.12.18.24.35.36.52Zm15.21-25.32h0s0,0,0,0c0,0,0,0,0,0,.18.12.33.27.45.45,0,0,0,0,0,0-.15-.15-.3-.3-.45-.44Zm7.94-5.47s0,0,0,0c0-.08.03-.15.07-.21-.03.06-.06.13-.07.21Zm1.4-3.22s0,0,0,0c0-.08.01-.15.04-.2-.02.06-.04.13-.04.2Zm-11.54-12.18s0,0,0,0c-.27-.04-.42-.19-.45-.46,0,0,0,0,0,0,.05.25.2.41.45.45Zm2.32-20.1s0,0,0,0c0-.06.02-.12.04-.17-.02.05-.03.11-.04.17Zm3.23-4.59s0,0,0,0c0,0,0,0,0,0-.26.04-.41.19-.47.45,0,0,0,0,0,0,.05-.26.2-.42.47-.45,0-.07.02-.14.05-.2-.02.06-.04.13-.05.2Zm11.97-14.75s0,0,0,0c0,0,0,0,0,0-.06,0-.12.02-.18.05.05-.02.11-.04.18-.05.01-.08.04-.15.07-.21-.03.06-.06.13-.07.21Zm.92-1.39s0,0,0,0c.07-.3.28-.45.58-.49-.3.05-.49.2-.58.48Zm.83-.58c.17-.13.29-.32.53-.35,0,0,0,0,0,.02-.17.11-.35.22-.52.34Zm4.67-4.53s0,0-.01,0c.09-.21.25-.35.42-.49,0,0,0,0,0,0-.13.16-.27.32-.4.49Zm1.83-1.82s0,0,0,0c.03-.06.06-.1.1-.14-.03.05-.07.1-.1.14Zm1.26-1.31s.1-.03.15-.03c0,0,0,0,0,0-.05,0-.11.02-.15.03Zm8.45-6.49s0,0,0,0c.06-.26.2-.43.49-.44,0,0,0,0,0,0-.26.03-.42.18-.48.44Zm6.47-4.64s0,0,0,0c0,0,0,.01,0,.02h0Z"/><path class="cls-1" d="m200.15,317.06c.16-.14.32-.27.48-.41-.24.04-.42.16-.48.41Z"/><path class="cls-1" d="m309.33,291.74c.15.15.3.3.45.45-.03-.26-.18-.41-.45-.45Z"/><path class="cls-1" d="m203.82,496.27c-.21-.11-.43-.22-.64-.33.14.25.35.36.64.33Z"/><path class="cls-1" d="m253.57,397.47c-.87-.53-1.59-1.15-1.94-2.16-.11-.32-.5-.56-.8-.79-1.56-1.19-3.15-2.33-4.68-3.55-.49-.39-.97-.75-1.53-.99-2.16-.93-4.16-2.17-6.42-2.93-2.65-.89-5.2-2.06-7.8-3.1-1.76-.7-3.6-1.18-5.4-1.72-2.53-.75-5.18-1.09-7.78-1.6h0c-.06-.3-.22-.45-.55-.36,0,0,0,0,0,0,0,0,0,0,0,0-.28-.04-.56-.08-.83-.11-.18-.12-.36-.34-.55-.35-1.33-.03-2.67-.22-4.01-.01-.39.06-.72.13-.98.44-2.23.52-4.45,1.1-6.77,1.08-.21,0-.42.17-.64.26-.75,0-1.49-.02-2.23.02-.51.03-1.06-.02-1.45.44-.15.04-.29.08-.43.13-1.25.5-2.63.81-3.72,1.55-1.16.79-2.56.82-3.7,1.53-.5.02-1.13-.32-1.39.45h0c-.47.24-.4.63-.31,1.02-.29.62-.22,1.21.26,1.69.44.44.79.91,1.11,1.44.94,1.56,2.04,3.03,2.89,4.63.39.74,1.3.87,1.54,1.64.33,1.08,1.04,1.81,1.9,2.5.75.6,1.4,1.36,1.99,2.13.94,1.2,1.87,2.35,3.32,3,.45.2.81.7,1.1,1.13.26.41.61.7,1,.92.93.53,1.79,1.13,2.48,1.97.25.3.55.55.95.6.66.07,1.09.47,1.52.93.3.32.73.62,1.15.73,1.07.28,1.9.96,2.82,1.49,1.43.83,2.83,1.71,4.39,2.28.5.18.97.4,1.42.7.5.33,1.09.64,1.67.7.64.07,1.16.32,1.69.61.67.36,1.44.52,2.12.83,1.06.48,2.3.19,3.27.9.72.49,1.53.48,2.35.4.12.05.24.1.36.15.41.5.93.46,1.48.32h.18s.17-.05.17-.05c.33.04.66.07.99.11h0s.01-.01.01-.01c.19.51.63.53,1.06.52.57-.01,1.14-.05,1.71-.07,0,0,0,0,0,0,1.94.54,3.95.46,5.93.55.16.28.4.45.73.44,1.81-.04,3.62-.08,5.43-.13.45-.01.91,0,1.27-.36v-.02c1.09.04,2.22.2,3.23-.44,1.27-.08,2.44-.7,3.65-.86,1.75-.24,3.26-1.03,4.88-1.55,1.07-.34,1.55-1.1,1.55-2.2-.02-.34-.22-.53-.54-.53-.58,0-1.15.04-1.73.07-.15,0-.31,0-.46,0,0-.3.02-.61.03-.91l.04.03c.28-.1.39-.28.28-.58t0,0h0c.06-.11.07-.23.05-.36.01-.56.03-1.13.04-1.69,0-.32-.14-.54-.44-.64-.11-.2-.31-.38-.32-.59-.13-1.53-.79-2.84-1.41-4.23-1.08-2.41-2.82-4.31-4.22-6.46-.24-.37-.6-.72-.97-.95Zm2.24,7.19c.35.31.44.91.65,1.38.6,1.36,1.21,2.73,1.81,4.09l-.03,2.79c0,.3,0,.6,0,.9-.03.14-.04.26,0,.35.03.07.08.12.17.15.05.01.1.01.17.01.02,0,.03,0,.05,0-.03.02-.05.05-.08.07-.14.13-.29.26-.43.39-.15.13-.29.26-.44.39-.88.38-1.69.85-2.76.67-.7-.12-1.47.2-2.21.33,0,0,0,0,0,0h0c-.98,0-1.97,0-2.95,0-.45,0-.92-.02-1.25.37-.14.04-.27.07-.42.09-2.32,0-4.63,0-6.95,0,0,0,0,0,0,0h0c-.14-.02-.27-.05-.4-.08-1.18-.71-2.48-.37-3.73-.4-1.85-.24-3.71-.41-5.51-.95-.71-.55-1.51-.55-2.34-.41-.14,0-.27-.03-.4-.08-.38-.5-.92-.4-1.44-.38-4.94-1.08-9.51-3.19-13.8-5.73-5.11-3.03-9.92-6.6-13.81-11.17-1.8-2.12-3.29-4.52-4.84-6.85-.5-.76-1.66-.93-1.7-2.04-.17-.82.66-.95.99-1.43,1.18-.25,2.03-1.17,3.21-1.49,1.07-.29,2.14-.58,3.22-.85.51-.03,1.02,0,1.43-.39h0c.63.07,1.25.05,1.86-.12.12.05.24.05.37,0,.44.18.71-.09.98-.36,1.22-.32,2.44-.64,3.66-.96.52.01,1.05.04,1.57.03,1.94-.02,3.89.18,5.83-.07.3.25.64.36,1.03.38.91.04,1.76.3,2.6.65.69.68,1.55.36,2.35.41.37.38.88.4,1.35.5.25.36.56.52.99.35.13.04.26.07.4.09.73.45,1.49.68,2.34.4,2,.62,3.8,1.77,5.91,2.11.49.08.92.51,1.37.78.38.53.91.49,1.46.36h0c.19.36.41.67.9.49,1.57.75,3.13,1.49,4.7,2.24,2.6,1.24,4.89,2.95,7.08,4.78.8.67,1.34,1.64,2.39,2.03.17.06.26.36.36.56.14.27.17.67.38.8,1.84,1.18,2.33,3.44,3.9,4.83Z"/><path class="cls-1" d="m230.98,391.11c.03-1.02-.49-1.6-1.43-1.46-.64.09-1.18.39-1.44,1.01-.3.73-.76,1.49-1.38,1.77-1.09.5-1.09,1.83-2.1,2.29-.33,1.06-1.3,1.92-.99,3.2.05.19-.09.46-.21.64-.99,1.52-1.02,3.25-1.27,5.35-.25.54.28,1.4.33,2.31.07,1.23,1.9,2.62,2.7,2.28,1.69-.71,3.05-1.83,3.42-3.7.18-.9.47-1.75.72-2.62.52-1.82.71-3.73,1.43-5.51.42-1.04.7-2.13.29-3.33-.23-.68-.1-1.49-.08-2.23Z"/></svg>