<?xml version="1.0" encoding="UTF-8"?><svg id="Layer_1" xmlns="http://www.w3.org/2000/svg" viewBox="0 0 200 300"><defs><style>.cls-1,.cls-2{fill:#ffffff;}.cls-2{fill-rule:evenodd;}</style></defs><path class="cls-1" d="m103.25,103.17c.21.41.4.79.55,1.19.07.2.15.39.22.59.35.91.69,1.83.89,2.78.25,1.18-.78,1.61-1.62,1.93-1.1.42-2.32-.06-2.51-1.04-.33-1.69-.28-3.49-.1-5.22.11-1.08.94-.98,1.73-.89.18.02.36.04.53.05.1.21.21.42.3.61Z"/><path class="cls-1" d="m61.08,125.86c-.3.75-.43,1.36.05,2.25h0c1.09,2.04,1.97,4.19,2.85,6.35.12.28.23.56.35.84.31.75.54,1.55.77,2.34.11.37.22.74.34,1.11-.09.04-.17.09-.26.14-.09.04-.17.09-.26.14-1.23-.54-2.25-1.44-2.5-2.77-.37-1.99-1.42-3.59-2.48-5.2-.3-.45-.6-.91-.88-1.37l-.02-.03c-.67-1.09-1.21-1.97-.44-3.4.55-1.02.86-2.17,1.19-3.4.16-.58.32-1.17.51-1.79-.12-.15-.28-.31-.45-.48-.43-.44-.96-.98-1.28-1.63-1-1.97-1.97-3.99-2.61-6.09-.43-1.42-.59-2.93-.75-4.43-.04-.38-.08-.76-.12-1.14-.08-.7-.06-1.4-.04-2.11,0-.24.01-.49.02-.73,0-.71.03-1.42.06-2.14v-.02c.01-.3.03-.6.05-.91.02-.34.04-.69.05-1.03.01-.42,0-.83-.02-1.25,0-.06,0-.12,0-.18,0-.04-.03-.08-.06-.12-.03-.04-.06-.08-.06-.12.02-.35.03-.7.05-1.05.06-1.23.12-2.46.22-3.69.09-1,.24-1.99.39-2.99.03-.23.07-.45.1-.67.06-.38.1-.76.15-1.14.12-.96.24-1.92.49-2.85.3-1.13.67-2.25,1.03-3.37.31-.95.62-1.9.89-2.86.28-.99.5-2,.73-3,.14-.63.28-1.27.43-1.9.05-.22.15-.43.25-.65.09-.21.19-.41.24-.63.23-.92.46-1.84.68-2.77.36-1.5.72-3,1.13-4.48.45-1.59,1.05-3.15,1.66-4.7l.03-.09c.07-.18.3-.29.54-.4.11-.05.22-.11.32-.17.06.09.14.19.21.29.16.2.32.4.3.58-.19,1.5-.43,3-.72,4.49-.27,1.35-.59,2.68-.96,4-.29,1.05-.59,2.09-.9,3.13-.38,1.29-.76,2.59-1.11,3.89-.39,1.49-.73,3-1.07,4.5-.1.45-.2.91-.31,1.36-.17.76-.35,1.52-.54,2.27-.45,1.88-.9,3.76-1.2,5.66-.21,1.36-.23,2.76-.25,4.15,0,.59-.01,1.18-.04,1.76-.03.68-.07,1.36-.11,2.04-.09,1.54-.18,3.08-.11,4.61h0c.2,4.03.4,8.08,2.18,11.8.33.69.73,1.34,1.13,1.99.38.61.75,1.23,1.07,1.87.35.71.72,1.62.56,2.32-.2.9-.59,1.76-.97,2.63-.18.4-.36.81-.52,1.21Z"/><path class="cls-1" d="m145.14,78.19c-.14-1.81-.35-3.61-.56-5.42h0c-.07-.65-.15-1.31-.22-1.96-.06-.57-.12-1.14-.18-1.71-.15-1.51-.3-3.02-.57-4.5-.39-2.24-.93-4.45-1.52-6.65-.25-.92-.59-1.82-.93-2.72-.16-.42-.32-.83-.47-1.25-.21.04-.42.08-.64.12-.02.16-.06.33-.09.49-.08.35-.15.7-.11,1.03.24,1.78.56,3.55.88,5.32.12.67.26,1.34.41,2.01.25,1.18.5,2.35.64,3.54.18,1.48.24,2.97.31,4.46h0c.02.58.05,1.15.08,1.72.05.89.1,1.78.14,2.66h0c.11,2.07.21,4.14.36,6.21.05.78.16,1.55.26,2.33.08.62.17,1.24.23,1.87.02.2.04.41.06.61.12,1.23.24,2.47.22,3.7-.03,1.09-.24,2.18-.46,3.25-.01.06-.02.11-.03.17,0,.04-.01.07-.02.11-.11.58-.21,1.16-.3,1.74-.3,1.9-.6,3.79-1.64,5.53-.48.8-.82,1.68-1.17,2.57-.24.61-.48,1.22-.76,1.8-.33.68-.7,1.35-1.07,2.01-.55,1-1.11,2-1.53,3.05-.08.21-.18.42-.28.64-.47,1.03-.98,2.13-.28,3.24.48.77,1.06,1.46,1.65,2.16.39.47.79.94,1.15,1.43l.11.15c.65.88,1.32,1.78,1.72,2.77.1.25-.18.64-.46,1.04-.15.21-.29.42-.39.61-.12.24-.26.49-.4.73-.33.58-.66,1.16-.8,1.78-.06.27-.12.54-.18.81-.74,3.29-1.49,6.61.28,10.22.15-.59.32-1.15.47-1.69.34-1.16.66-2.24.79-3.34.33-2.81,1.09-5.38,2.74-7.71.79-1.11.63-3.91-.07-4.79-.34-.42-.66-.86-.99-1.3-.73-.98-1.45-1.96-2.33-2.77-1.14-1.05-.8-2.02-.44-3.03.06-.16.11-.32.16-.48.32-1,.68-1.99,1.05-2.98.07-.19.14-.39.21-.58.05-.12.13-.23.21-.34.05-.06.09-.12.13-.19.14-.22.28-.43.43-.65.32-.47.64-.94.87-1.45.31-.67.57-1.35.84-2.03.41-1.05.82-2.09,1.36-3.07,1.36-2.46,1.5-5.11,1.63-7.76.03-.49.05-.97.08-1.46.07-1.11-.03-2.22-.12-3.34-.05-.55-.1-1.1-.12-1.66-.04-.83-.07-1.65-.11-2.48-.06-1.53-.12-3.06-.24-4.58h.01Z"/><path class="cls-2" d="m154.03,93.34c.04-.26.09-.51.15-.76.03-.14.06-.28.09-.42-.01-.05-.02-.09-.03-.14l-.02-.07s-.01-.04-.02-.07c-.03-.02-.07-.03-.1-.05-.02,0-.04-.02-.06-.02h-.02s-.02-.02-.03-.02c.03-.03.07-.06.1-.09.04-.03.07-.06.1-.09-.05-.22-.1-.43-.15-.65-.22-.91-.44-1.83-.65-2.74-.01-.05.07-.13.15-.2.03-.03.06-.06.08-.08.06-.14.11-.28.17-.42h0c.06-.15.11-.29.17-.42-.07-.33-.15-.66-.23-.99-.21-.88-.42-1.76-.57-2.66-.03-.17.12-.37.27-.57.07-.1.14-.19.2-.28,0-.05.02-.09.03-.14,0-.05.02-.09.03-.14l-.27-1.98s-.02-.09-.03-.14c0-.03-.01-.06-.02-.08v-.02s0-.02-.01-.03c-.03-.03-.07-.06-.1-.09-.04-.03-.07-.06-.1-.09.03-.02.07-.03.1-.05.04-.02.07-.03.1-.05.01-.05.02-.09.03-.14,0-.05.02-.09.03-.14-.09-.38-.19-.76-.28-1.13-.1-.38-.19-.76-.28-1.13.06-.38.12-.76.19-1.14.01-.23.03-.47.04-.7.02-.23.03-.47.04-.7-.05-.19-.09-.37-.14-.56-.05-.19-.09-.37-.14-.56.03-.24.05-.48.08-.72.03-.24.05-.48.08-.72l.03-.49-.49-1.47c-.07-.07-.09-.15-.07-.24-.08-.13-.17-.26-.27-.38-.21-.28-.42-.57-.45-.87-.05-.5.02-1.01.09-1.52.03-.21.06-.43.08-.64-.07-.19-.14-.37-.21-.56,0-.14.01-.29.01-.43s0-.28.01-.43c-.02-.17-.04-.35-.06-.53-.02-.18-.04-.35-.06-.53-.06-.16-.12-.32-.18-.49-.22-.61-.44-1.21-.67-1.82-.03-.14-.07-.28-.1-.42h0c-.03-.15-.07-.3-.1-.44v-.22c-.02-.12-.03-.24-.03-.35h0c-.12-.09-.24-.18-.35-.27l-.2-.86c-.21-.77-.41-1.54-.62-2.32h0c-.26-.98-.53-1.96-.79-2.95-.05,0-.1,0-.16,0-.18,0-.38,0-.39-.02-.18-1.17-.34-2.35-.5-3.53h0c-.04-.26-.07-.51-.11-.76-.08-.25-.17-.5-.25-.75h0c-.2-.61-.41-1.21-.58-1.82-.05-.17-.01-.36.02-.56.01-.09.03-.18.04-.26l-.34-.82c-.04-.05-.08-.1-.12-.15-.04-.05-.08-.1-.12-.15-.04-.41-.08-.81-.12-1.22-.12-.36-.24-.72-.35-1.09-.12-.36-.23-.72-.35-1.09-.11-.19-.23-.37-.34-.55-.7-.23-.63-.7-.56-1.18.04-.28.08-.56-.04-.79-.13-.47-.26-.94-.4-1.41h0s0-.01,0-.01c-.13-.47-.27-.94-.4-1.42-.09-.14-.19-.28-.28-.42h0c-.09-.15-.19-.29-.28-.43-1.02-.42-.97-1.19-.93-1.96.02-.29.04-.59,0-.86-.86-1.49-2.41-1.61-3.58-.28-.04.05-.08.1-.12.14-.04.05-.08.1-.12.14v.85c.03.1.07.19.1.29.03.1.07.19.1.29l.02.21h0c.08.96.16,1.92.24,2.87-.08.14-.16.29-.24.43-.08.14-.16.28-.24.43l-.08.56c-.03.05-.07.11-.1.16-.04.05-.07.1-.1.16l-.07,1.37c-.04.12-.07.25-.11.37-.05.16-.09.32-.14.47-.04.14-.08.28-.13.42-.04.14-.08.28-.13.42.03.02.07.04.1.06s.07.04.1.06c-.03.04-.07.07-.1.11-.04.04-.07.07-.1.11,0,.18,0,.36,0,.54.03.02.07.03.1.05.04.02.07.03.1.05-.07.07-.14.14-.21.2-.02.19-.03.37-.06.55-.04.05-.07.11-.11.16-.04.05-.07.1-.11.16-.1.73-.2,1.47-.3,2.2-.04.05-.08.1-.12.15-.04.05-.08.1-.12.15.01.21.03.41.05.62.04.48.09.97.04,1.44-.05.44-.19.88-.33,1.31-.06.19-.13.39-.18.58,0,.47,0,.95-.01,1.42h0c-.33,1.18-.66,2.36-1.01,3.53-.03.1-.1.19-.18.28-.04.04-.07.09-.11.14-.1.4-.21.81-.31,1.21-.1.4-.21.81-.31,1.21-.04.02-.08.04-.12.05-.04.02-.08.04-.12.05l-.54,2.25c-.16.56-.31,1.13-.47,1.69-.16.56-.31,1.13-.47,1.69-.07.1-.14.2-.21.3-.04.19-.09.37-.14.55h0c-.05.19-.09.37-.14.56-.04.1-.09.19-.13.28-.04.09-.09.19-.13.28-.1.23-.2.47-.3.7-.1.24-.2.47-.3.7-.04.04-.09.09-.13.13h0s-.09.09-.13.14c-.15.37-.3.75-.45,1.12-.15.37-.3.75-.45,1.12-.03.19-.07.38-.1.57-.03.19-.07.38-.1.57-.4.7-.79,1.4-1.19,2.1h0c-.4.71-.79,1.41-1.19,2.11l-.1.16-.11.16c-.18.27-.36.55-.54.82v.05c-.03.08-.05.16-.07.23-.01.01-.03.02-.04.04-.01.01-.02.02-.03.03-.05.05-.1.09-.15.14-.05.06-.11.12-.16.18-.06.06-.11.12-.16.18l-.51.88c0,.09-.03.17-.08.25l-1.9,1.71c-.14.18-.29.37-.43.55-.15.18-.29.37-.43.55-.13.1-.27.2-.4.3h0c-.14.1-.27.2-.41.3-.08.09-.17.18-.26.27-.02.01-.04.02-.06.04-.03.02-.07.04-.1.06h0c-.05.03-.1.07-.16.1l-.35.34s-.07.1-.1.14h0s-.07.1-.1.14c-.18.14-.37.28-.56.42h0s-.01.01-.01.01c-.18.14-.37.28-.55.42-.14.22-.28.43-.43.64h0c-.14.22-.29.44-.43.65-.23.1-.46.2-.7.29-.23.1-.47.19-.7.29-.14-.08-.27-.16-.41-.25h0c-.14-.08-.27-.17-.41-.25-.05,0-.09-.02-.14-.03-.06-.01-.11-.02-.17-.03-.28-.36-.57-.71-.85-1.07h0s0-.01,0-.01c-.29-.36-.57-.72-.86-1.08-.24-.08-.48-.16-.72-.25-1.05-.36-2.1-.71-3.14-1.08-.04-.01-.04-.14-.03-.27,0-.05,0-.09,0-.13l-.11.05c-.13-.08-.25-.17-.38-.26h0c-.13-.09-.25-.17-.38-.26-.23-.06-.45-.12-.68-.17-.23-.06-.45-.12-.68-.17-.02.01-.04.03-.06.05-.03.03-.07.05-.1.08h0c-.05.04-.11.08-.16.12-.52.06-1.03.13-1.54.19h0c-.51.06-1.03.13-1.54.19-.2.11-.4.22-.6.34l-.27.15c-.09,0-.18.02-.27.02-.09,0-.18.01-.27.02-.1.03-.19.06-.29.09-.1.03-.19.06-.29.09-.09.03-.17.05-.26.07-.28.17-.57.33-.86.5-.29.17-.57.33-.86.5-.37.16-.73.32-1.09.47-.16.08-.31.15-.47.23-.16.08-.31.15-.47.23-.25.21-.51.43-.76.64l-1.17.51-3.35,1.71c-.24.18-.47.35-.71.53-.24.18-.47.35-.71.53l-.55.35c-.28.14-.56.28-.85.43-.28.14-.57.28-.85.43-.14.14-.28.29-.42.43-.14.15-.28.29-.42.43-.1.07-.21.14-.31.2l.03.1c-.13-.02-.27-.03-.4-.05-.15-.02-.29-.03-.44-.05-.02-.08,0-.16.04-.24-.09-1.07-.66-1.58-1.75-1.49h0c-.54-.25-1.08-.51-1.61-.76-.72-.66-1.43-1.32-2.15-1.98-.72-.66-1.43-1.32-2.15-1.98-.04-.04-.08-.09-.12-.13-.04-.04-.08-.09-.12-.14-.1-.1-.21-.2-.31-.3-.1-.1-.21-.2-.31-.3-.07-.03-.16-.05-.24-.07-.19-.05-.38-.09-.45-.2-.41-.68-.77-1.39-1.14-2.09-.12-.23-.25-.47-.37-.7l-.37-.83c-.08-.19-.17-.38-.26-.57l-1.66-3.11c-.29-.66-.59-1.32-.87-1.97-.04-.05-.08-.09-.12-.14-.04-.05-.08-.09-.12-.14-.06-.18-.11-.36-.17-.54-.06-.18-.12-.36-.17-.54-.75-.81-1.31-1.68-1.05-2.86-.16-.45-.32-.89-.48-1.34-.16-.45-.32-.89-.48-1.34-.09-.21-.18-.41-.27-.62h0c-.09-.21-.18-.42-.27-.62h0c-.25-.56-.51-1.14-.77-1.71-.09-.42-.18-.84-.27-1.27-.09-.42-.18-.84-.27-1.27,0-.1,0-.19-.01-.28s0-.19-.01-.28c-.04-.23-.09-.47-.13-.7-.04-.23-.09-.47-.13-.7v-.57l-.08-.51c-.09-.38-.17-.76-.25-1.14h0c-.07-.3-.13-.6-.2-.9-.02-.26-.04-.53-.06-.8-.02-.27-.04-.53-.06-.8-.05-.04-.12-.09-.19-.13-.15-.1-.31-.2-.31-.3.05-1.08.14-2.16.22-3.23h0c.02-.32.05-.63.07-.94v-.84c-.02-.75-.08-1.51-.15-2.26-.19-2.22-.38-4.43.64-6.64.78-1.7,1.08-3.6.25-5.46-1.13-.05-2.75,1.05-3,2.12-.13.56-.21,1.13-.28,1.71-.21,1.58-.41,3.15-1.79,4.32l-.2.3c0,.05,0,.1-.01.15,0,.05,0,.1-.01.15.07.03.15.07.23.1-.04.01-.08.02-.12.03-.04,0-.08.02-.12.03-.01.06-.02.12-.03.18,0,.06-.02.12-.03.18-.03.05-.06.1-.1.14s-.06.1-.1.14l-1.18,2.23c-.03.14-.06.29-.09.43-.03.15-.06.29-.09.43-.1.19-.2.38-.3.57-.1.19-.2.38-.3.57-.08.08-.16.17-.24.26-.41,1.03-.81,2.06-1.22,3.1l-.51,1.15h0c-.13.18-.26.37-.38.56-.06.09-.13.19-.19.28v.53c.43.66.05.99-.33,1.32-.23.2-.47.41-.51.69,0,.09-.02.17-.06.25v.86s-.08.07-.12.11c-.04.04-.08.08-.12.11h-.05c-.08.03-.16.05-.23.07-.01.09-.04.17-.07.26-.04.05-.07.1-.11.15-.04.05-.07.1-.11.15,0,.19,0,.4.02.62.03.46.07.91-.14,1.13-1,1.03-1.5,2.3-2,3.57-.3.77-.6,1.53-1.01,2.24l-.51,1.44-1.47,3.91c-.09.19-.17.39-.26.58-.09.19-.17.39-.26.58-.1.28-.2.56-.3.83h0c-.1.28-.2.56-.3.83l-1.08,3.41s-.03.09-.04.14c-.02.05-.03.09-.05.14v.57c-.19.42-.38.84-.56,1.26h0c-.19.43-.37.85-.56,1.27-.03.14-.07.29-.1.43-.04.14-.07.28-.1.43-.19.75-.39,1.5-.59,2.25-.2.75-.39,1.5-.59,2.25-.13.52-.26,1.04-.38,1.55-.06.27-.13.55-.2.82.05,0,.09,0,.14.01.02,0,.05,0,.07,0-.06,0-.12,0-.18,0h-.01c0,.16-.01.33-.02.49,0,.16-.01.33-.02.49-.07.09-.15.18-.21.27l-.25.86v.06c-.03.26-.05.52-.07.78l-.51,1.15c-.02.08-.02.16,0,.24.07.1.14.2.21.3-.1.56-.2,1.13-.3,1.7l-.19.3c0,.18,0,.36,0,.54.03.03.07.06.1.1l.1.1-.21.1-.27.81c.03.05.07.1.1.15.04.05.07.1.1.16,0,1.03,0,2.05.01,3.08,0,.19,0,.38-.01.58,0,.19,0,.39-.01.58.03.55.06,1.1.09,1.65.03.58.06,1.16.09,1.74-.01.66-.03,1.31-.05,1.97-.02.66-.03,1.31-.05,1.97l.02.85.55,1.93-.03.61c0,.19,0,.38-.01.57,0,.1,0,.19,0,.29.02.15.04.31.06.46.04.33.09.67.13,1,.03.26.05.52.07.79,0,.09.01.17.02.26.05.15.1.3.15.45.05.15.1.3.15.45-.14,1.81-.07,3.59.59,5.31,0,.19,0,.37,0,.56.11.85.23,1.69.33,2.54l.24.25c.19.57.39,1.13.58,1.7.19.57.39,1.14.58,1.7.03.08.06.16.1.24.04.11.09.22.13.33.05.14.11.27.16.41.13.33.25.66.41.98.45.92.91,1.83,1.37,2.75.2.4.41.81.61,1.22.12.25.25.5.38.75.06.12.13.25.19.37.1.19.19.37.29.56.13.14.26.29.39.43.13.14.26.29.39.43.15.33.3.65.46.98.15.33.3.65.46.98.09.19.18.37.28.56.16.28.32.56.47.84.16.28.32.56.47.84l.46.49c.05.06.09.12.14.18.05.06.09.12.14.18.04.05.07.1.11.14.04.05.08.1.11.14.17.31.33.61.5.92.44.82.88,1.63,1.34,2.44.14.24.31.45.49.66.09.1.18.21.26.32.04.03.07.06.11.08.04.03.07.06.11.08.12.27.24.54.36.82l.81.88c.11.04.21.08.32.12.06.05.13.1.2.15,0,.1.02.2.03.3,0,.09.02.18.03.27.14.14.27.28.4.42.13.14.27.28.4.42.03.08.06.16.07.25l.83.59c.14.31.48.39.82.46.47.11.93.21.89.94l.73.86s.04.09.05.13c0,.01.01.03.02.04v.02s.02.02.03.04c0,0,0,.02,0,.03.18.1.36.19.54.29.18.1.36.19.54.29,0,.05.01.09.02.14,0,.05.01.09.02.14.1.09.2.18.3.28.1.09.2.18.3.28l.54.31c.14.18.29.36.43.55h0s0,0,0,0c.14.18.29.37.43.55.05.04.1.07.16.11.13.09.26.18.39.27.07.06.14.13.21.19l2.89,1.69c.09.08.19.16.28.23.09,0,.19,0,.28.01.09,0,.19,0,.28.01l.56-.28c.14-.14.28-.28.43-.42.14-.14.28-.28.42-.41l.07-1.7s-.02-.1-.03-.14c0-.05-.02-.1-.03-.14-.02-.02-.04-.03-.06-.05-.05-.04-.1-.08-.14-.12.07-.03.14-.06.21-.08l-.2-1.13-.03-1.98c-.07-.07-.09-.14-.07-.23-.09-.08-.18-.16-.27-.23-.09-.08-.18-.15-.27-.23.06-.05.12-.1.18-.16l.09-.07c.09-.08.18-.16.27-.23-.02-.1,0-.17.07-.24,0-.75,0-1.5-.01-2.25v-.02s0-.56,0-.56c.07-.66.15-1.32.23-1.98.01-.1.02-.19.03-.28-.01-.17-.03-.34-.04-.51-.04-.39-.08-.77-.04-1.15.07-.79.21-1.59.41-2.36.16-.64.36-1.27.57-1.9.09-.28.18-.56.27-.84.28-.47.56-.93.85-1.4,0-.13,0-.25-.01-.38,0-.06,0-.13,0-.19.13-.24.26-.47.39-.71.13-.24.26-.47.39-.71.08-.13.16-.25.25-.38.08-.12.17-.25.25-.38.65-2.73,2.32-4.59,4.85-5.73.14-.1.28-.2.42-.3.14-.1.28-.2.42-.3h-.01c.05-.02.11-.06.16-.09.06-.04.11-.07.16-.1.09-.06.18-.12.27-.18h0c.09-.06.18-.12.28-.19.14-.09.29-.17.43-.26.14-.09.28-.17.43-.26.19-.05.37-.1.56-.14h.01s0,0,0,0c.18-.05.36-.09.54-.14.1-.09.2-.17.3-.26.1-.09.2-.17.3-.26l.02-.02c.09-.09.18-.18.27-.27h0s0,0,0,0c.09-.09.18-.18.28-.27v-.03s.55-.51.55-.51c.36-.03.73-.07,1.13-.11l.62-.06-.02-.42c-.03-.6-.06-1.16-.09-1.72-.07-.17-.14-.33-.21-.5l-.07-.16-.03-.06-.03-.07s.08-.06.12-.1c.04-.03.08-.06.12-.1.12.1.24.21.35.32.12.11.23.21.35.32,1.35,0,1.24.73,1.14,1.47-.03.24-.07.47-.05.68-.09.26-.17.52-.26.78-.09.26-.17.52-.26.78,0,.38,0,.75.01,1.13v.02c0,.32,0,.64,0,.96,0,.96,0,1.92-.05,2.88-.01.28-.12.56-.23.84-.05.12-.1.25-.14.37,0,.1,0,.19-.01.29,0,.1,0,.19-.01.29.02.05.04.09.06.14.01.03.02.05.03.07.01.02.02.04.03.07,0,.13,0,.25,0,.38,0,.07,0,.13,0,.2-.05.13-.09.26-.14.4h0c-.05.13-.09.27-.14.4l.22.31c.01.23.02.47.04.7.01.23.03.47.04.7.04.24.07.47.11.71.04.24.07.47.11.71v.28c.08.47.18.94.27,1.41.09.54.17,1.08.25,1.62.18,1.21.36,2.42.64,3.61.08.36.14.74.2,1.12.23,1.45.46,2.89,2.1,3.32.06.35.11.67.16.99.11.7.21,1.33.34,1.96.08.39.18.78.28,1.16.09.36.19.72.26,1.08.29,1.39.57,2.78.83,4.18.15.83.29,1.67.43,2.5.07.42.14.84.21,1.25l.05.09.09.15c.12.21.25.43.37.64-.02.14-.06.28-.1.42-.08.31-.17.62-.09.89.11.4.24.79.36,1.18.43,1.36.85,2.72.85,4.21,0,.62.22,1.24.44,1.86.1.28.2.56.28.83,0,.09,0,.17.01.26,0,.08,0,.16.01.24.07.45.14.91.2,1.36h0c.21,1.41.42,2.82.61,4.23.25,1.86.5,3.72.74,5.58h0c.1.78.2,1.55.3,2.32,0,.13,0,.26,0,.38,0,.06,0,.13,0,.19.04.27.09.54.14.81.11.61.22,1.22.23,1.83.01.55-.05,1.12-.11,1.69-.1,1.02-.21,2.03.09,2.91.31.93.23,1.8.16,2.65-.05.55-.1,1.1-.04,1.66l.05.58s.06.06.09.09l.05.05c.38.35.71.64.24,1.36-.21.32-.13.83-.06,1.34.03.22.06.43.07.63,0,.1.03.2.05.29.04.16.08.31.03.44-.51,1.56-.7,3.06.13,4.6.2.36.08,1.21-.21,1.47-.97.83-.47,1.72-.06,2.38.59.95.83,1.99,1.06,3.03.13.6.27,1.19.47,1.77.06.15.12.29.18.44.06.15.12.29.18.44.13.2.27.39.41.58h0c.3.41.59.82.83,1.27.54.99,1.05,2,1.55,3.01.17.34.34.67.51,1.01.05.05.09.11.14.16l.12.14c.06.07.11.13.17.2.03.03.06.07.09.1.15.15.29.3.44.45.15.15.29.3.44.45.08.02.15.03.23.05-.02.02-.04.04-.06.07l-.04.05s-.07.08-.1.12c.42.7.83,1.4,1.25,2.1.42.7.84,1.4,1.25,2.1.13,0,.25,0,.38,0h0s.07,0,.07,0c.04,0,.08,0,.12,0h1.13c.22-.33.44-.67.67-1,.44-.67.89-1.34,1.33-2.01.05-.07.05-.17.05-.27,0-.01,0-.02,0-.04,0-.03,0-.05,0-.07,0,0,0-.02,0-.03l.19-.32c.17-.24.34-.48.51-.72.29-.41.59-.82.88-1.22.19-.39.38-.78.57-1.16.32-.36.63-.72.95-1.08.04-.16.08-.32.12-.48h0c.04-.17.08-.33.12-.49.02-.05.06-.09.11-.11l.56-.56c.07-.18.14-.36.21-.54l.57-1.46c.26-.67.52-1.33.79-2,.03-.04.06-.07.08-.1.02-.03.05-.06.07-.09.02-.02.03-.04.05-.06.01-.01.02-.02.03-.04.06-.09.11-.18.17-.27.06-.09.11-.18.17-.27.15-.28.29-.56.43-.85,0-.1-.02-.2-.02-.3,0-.1-.01-.2-.02-.3.35-1.02.7-2.05,1.04-3.07l-.02-3.95c-.06-.14-.11-.28-.17-.42h0c-.03-.1-.07-.18-.1-.26-.02-.05-.04-.11-.06-.16-.19-.09-.38-.19-.56-.28h0c-.19-.1-.38-.19-.57-.29-.17-.38-.36-.76-.55-1.15-.44-.88-.88-1.75-1.07-2.68-.19-.9-.12-1.85-.05-2.8.03-.43.06-.85.07-1.27l.02-.85c-.06-.44-.15-.9-.25-1.35-.22-1.04-.44-2.07-.19-2.98.2-.73.16-1.43.12-2.12-.03-.57-.06-1.14.05-1.71.02-.22.05-.44.07-.67h0s0-.04,0-.04c.03-.24.05-.48.08-.71v-.82c-.03-.24-.06-.48-.09-.71-.03-.24-.06-.48-.09-.71-.01-.19-.02-.37-.03-.56.01-.28.02-.57.03-.85-.1-.94-.2-1.88-.3-2.81,0-.05,0-.1.01-.14,0-.04,0-.09,0-.13h0c0-.05,0-.11.01-.16v-.05s0-.03,0-.04c0-.01,0-.03,0-.04,0-.23,0-.46-.01-.69h0c0-.24,0-.47-.01-.7.03-.1.06-.19.09-.29l.03-.09s.02-.07.03-.1c0-.03.02-.06.03-.1v-.54c0-.43,0-.85.01-1.28,0-.43,0-.85.01-1.28.01-.14.03-.28.04-.42.01-.14.03-.28.04-.42.02-.47.03-.94.04-1.4.04-1.24.08-2.49.14-3.73,0-.11.12-.22.23-.33.05-.05.1-.1.14-.15,0-.1-.02-.19-.03-.29h0c0-.07-.01-.14-.02-.21,0-.03,0-.06,0-.08-.04-.1-.08-.19-.13-.28-.04-.1-.08-.19-.13-.29,0-.1-.01-.19-.01-.29,0-.09,0-.18-.01-.28l.05-.85c.03-.14.07-.29.1-.43.03-.14.07-.28.1-.43.07-.25-.02-.52-.1-.79-.15-.47-.3-.93.37-1.29.01-.17.03-.34.05-.5.02-.17.03-.34.05-.51,0-.14,0-.28,0-.43s0-.28,0-.43c.04-.46.08-.93.12-1.4.04-.47.08-.93.12-1.4-.07-.1-.15-.2-.23-.31.1-.19.2-.37.3-.56.1-.19.2-.37.3-.56l-.03-.57c-.05-.14-.1-.28-.14-.42-.05-.14-.1-.28-.14-.42l.32-1.98c-.06-.08-.08-.16-.09-.25-.02,0-.03-.02-.05-.03-.05-.03-.11-.05-.16-.08l.2-.22h0s0,0,0,0c.03-.37.06-.74.09-1.11-.02-.19-.04-.37-.07-.56-.15-.65-.29-1.29-.45-1.94-.01-.05-.02-.1-.03-.15-.01-.05-.02-.1-.03-.15.04-.11.08-.23.13-.35l.09-.25h0c.1-.28.2-.55.3-.82.14-.14.28-.29.41-.43h0c.14-.15.27-.29.41-.43.14-.19.28-.38.43-.58.14-.19.28-.38.43-.57l.03-.05.03-.05s.03-.05.04-.07c.02-.03.04-.06.05-.09.05-.09.11-.18.16-.26.05-.61.1-1.23.15-1.84.05-.61.1-1.23.15-1.85-.05-.07-.1-.13-.15-.2-.05-.07-.1-.13-.15-.2.01-.07.02-.14.03-.21h0c.01-.07.02-.14.03-.21l-.05-5.36c-.06-.42-.12-.83-.18-1.25l-.06-.41c-.04-.27-.08-.55-.12-.82-.04-.39-.08-.77-.12-1.16l-.12-1.15c-.08-.04-.11-.11-.06-.19-.03,0-.06-.02-.1-.03-.01,0-.02,0-.03,0,0,0-.02,0-.03,0-.11-.03-.22-.05-.22-.09-.02-.43-.04-.87-.05-1.3-.02-.65-.04-1.3-.1-1.95-.06-.66-.17-1.31-.28-1.96-.06-.33-.11-.65-.16-.98-.04-.29-.07-.58-.09-.87,0-.08-.01-.15-.02-.23-.14-.09-.28-.18-.42-.27l-.42-.27c-.19-.12-.38-.24-.57-.36-1.19.2-1.12,1.02-1.06,1.76.02.27.04.53,0,.75-.26,1.48-.23,3.06-.02,4.55.11.81.33,1.63.55,2.43.34,1.24.67,2.47.61,3.69-.03.69.04,1.36.1,2.03.08.77.16,1.54.08,2.32-.06.57-.03,1.14,0,1.72.02.27.03.54.04.81.07.19.15.38.22.58.01.07.02.15.02.23-.01.01-.02.03-.03.05,0,0-.01.02-.02.03-.02.03-.04.06-.06.09-.04.05-.08.11-.11.16-.09.23-.17.46-.26.7h0c-.12.32-.24.64-.36.96-.09.05-.18.1-.28.15-.09.05-.18.1-.28.15l-1.71,1.09-.78.63-4.48,2.22c-.07-.02-.13-.03-.2-.05-.07-.02-.14-.03-.2-.05h0c-.17-.04-.33-.08-.5-.13-.49.05-.99.12-1.48.18-1.2.15-2.39.3-3.59.34-1.42.04-2.87-.08-4.28-.3-.57-.09-1.11-.28-1.66-.48-.43-.15-.87-.31-1.32-.41-3.17-.74-3.48-3.01-3.09-5.87,2.46,2.23,5.46,2.85,8.54,2.81,2.65-.03,5.34-.29,7.89-1.13.39-.13.76-.34,1.13-.54.3-.17.59-.33.9-.46.62-.25,1.27-.5,1.93-.57,1.46-.15,2.74-1.04,2.65-2.02-.06-.64-.28-.97-1.11-1.21-2.32-.65-3.82.51-5.41,1.8-.26.2-.62.26-1,.31-.28.04-.56.08-.8.18-2.9,1.23-5.95,1.02-8.93.82-.29-.02-.59-.04-.88-.06-2.4-.15-4.25-1.84-5.67-3.74-.35-.47-.37-1.23-.39-1.92,0-.12,0-.24-.01-.36-.04-1.1-.06-2.19-.07-3.29,0-.75-.02-1.51-.03-2.26-.02-.7-.05-1.4-.08-2.1-.02-.53-.05-1.06-.06-1.59-.01-.44-.01-.89,0-1.39,0-.27,0-.56,0-.88.27.18.53.35.77.52h0c.56.37,1.06.71,1.57,1.03.6.38,1.2.77,1.8,1.16,1.57,1.03,3.15,2.07,4.85,2.82,1.09.48,2.75.21,3.97-.23,1.04-.38,1.99-1.02,2.93-1.66.4-.27.8-.54,1.21-.8.1-.07.2-.15.3-.22l.07-.05s.09-.06.13-.1c.03-.02.06-.05.1-.07.18-.15.36-.3.55-.44h0c.18-.15.37-.3.55-.45.05-.04.1-.08.15-.12.05-.04.1-.08.15-.12.37-.32.75-.65,1.12-.97,1.32-1.14,2.64-2.29,3.97-3.42.16-.13.36-.22.56-.3.09-.04.17-.07.26-.11.01-.04.02-.09.04-.13v-.05s.03-.06.04-.09c-.3-.62.09-.86.47-1.07.15-.09.3-.17.39-.28.63-.72,1.43-1.31,2.24-1.84.13-.09.41.06.69.2.13.06.25.13.37.17.03.03.05.05.08.08l.06.06h0s0,0,0,0c.03.03.06.06.09.09.01.01.03.03.04.04.14.14.28.28.42.43.14.14.28.28.42.43.27.27.55.54.83.8.65.63,1.29,1.25,1.93,1.89.05.05.06.15.07.25,0,.05,0,.1.02.15l.28,1.13c.09.1.18.2.27.3.2.22.4.43.55.69.24.43.45.88.65,1.33.08.17.15.34.23.51.05.33.11.65.16.98.05.33.11.65.16.98,0,.06,0,.13-.01.19,0,.03,0,.06,0,.1.08.15.16.3.25.46h0c.08.15.17.31.25.46,0,.08,0,.16.01.25,0,.08,0,.16.01.25.03.03.07.07.1.1l.02.02.02.02s.03.02.04.04c0,0,.02.02.03.02-.07.03-.14.07-.21.1.1.4.36.74.61,1.08.43.58.86,1.16.56,2.02.05.06.1.13.16.19.12.14.23.28.34.43.01.18.02.36.03.54,0,.18.02.36.03.54.08.11.16.21.25.32.08.11.17.21.25.32.05.27.1.54.15.81.05.27.1.54.15.81l.47.85.41,1.12c.1.47.19.94.28,1.41.03.05.07.1.1.14h0s.07.1.1.14l-.02.24c0,.11-.02.22-.03.33.33,1.31.66,2.63,1,3.93.13.33.26.66.39.99.13.33.26.66.39.99,0,.05.01.1.02.14,0,.05.01.09.02.14.06.2.12.4.18.59.11.18.23.36.33.54.05.04.1.09.14.13.05.04.1.09.14.13l1.72.1c.05-.03.1-.06.15-.09.04-.02.08-.04.12-.07.09-.05.18-.1.27-.16.66-.67,1.32-1.33,1.98-1.99.04,0,.09-.01.13-.02h.05s.08-.02.08-.02c0-.04,0-.09-.01-.14,0-.05,0-.09-.01-.14l1.44-2.27c-.06-1.02.2-1.9,1.14-2.46l1.15-2.32.54-1.12c.11-.27.29-.52.47-.77.4-.55.8-1.11.47-1.93-.03-.08.18-.25.39-.42.1-.08.2-.16.28-.24.2-.57.39-1.14.59-1.71.2-.57.39-1.14.59-1.71.14-.33.33-.63.52-.94.44-.72.88-1.43.73-2.39-.02-.12.13-.27.28-.41.07-.07.14-.13.19-.2.01-.23.02-.47.03-.7.05-1.54.1-3.08,1.16-4.38v-.04c-.02-.1-.04-.19-.06-.29-.04-.01-.08-.03-.12-.05l-.04-.02s-.05-.02-.07-.03h.02s.03-.02.03-.02h0c.06-.02.13-.05.19-.07l.03-.03c.02-.25.04-.49.06-.74.06-.7.11-1.4.21-2.09.02-.15.17-.28.32-.41.07-.06.14-.12.19-.18,0-.09.02-.17.05-.26.13-.28.26-.56.4-.84h0c.13-.29.27-.57.4-.85.02-.19.03-.38.04-.56l.51-1.98c0-.12,0-.25,0-.37,0-.06,0-.12,0-.19.04-.2.09-.4.13-.6.05-.25.11-.49.16-.74l.64-3.18s0-.05,0-.07c0-.01,0-.03,0-.04,0-.05,0-.11,0-.16,0-.06,0-.12,0-.18,0-.03,0-.06,0-.09l-.07-.54s.04-.02.07-.04l.04-.02s.04-.03.07-.04c.01,0,.03-.02.04-.02-.07-.08-.15-.16-.22-.23l.04-.23h0c.09-.57.18-1.14.27-1.7.05-.14.11-.28.16-.42.05-.14.1-.28.16-.42l-.02-1.14.29-2.81c.03-.24.05-.48.07-.72.02-.24.05-.48.07-.72,0-.26.01-.51.01-.77,0-.26,0-.51.01-.77-.57-1.39-.61-2.84-.41-4.3l-.06-.09Zm-31.88,47.51s-.07.05-.1.07v-.15s.07.04.1.07Zm-23.74,17.01c.83-.83,1.32-.53,1.99,1.1-.66-.36-1.31-.72-1.99-1.1Zm17.25,1.51c.24-.07.64-.11.74.02.12.16.11.45.1.7,0,.04,0,.07,0,.1-.04.85-.09,1.7-.14,2.54-.05.85-.1,1.7-.14,2.54-.02.33,0,.67,0,.97,0,.13,0,.25,0,.36-2.75,1.4-5.51,1.62-8.59,1.06.26-.12.47-.22.63-.3.18-.08.31-.14.39-.18l-.3-.29c-1.99-1.89-3.98-3.78-5.97-5.68-.33-.38-.65-.75-.98-1.13h0s0,0,0,0c-.32-.37-.65-.75-.97-1.12,1.08.05,1.98.39,2.52,1.41,1.2,1.18,2.62,1.01,4.01.85.39-.04.78-.09,1.15-.1,1.31-.05,2.65-.56,3.9-1.07.55-.22,1.03-.6,1.59-1.06.27-.22.56-.45.89-.69l-.03.38c-.03.5-.05.8-.09,1.25.12-.05.24-.11.35-.17.32-.15.62-.29.94-.4h0Zm-13.51,10.74c-1.25-.93-1.45-2.25-1.65-3.57-.08-.55-.17-1.09-.32-1.61-.19-.62-.3-1.27-.4-1.93-.05-.31-.1-.63-.16-.94-.03-.06-.06-.12-.1-.18l-.07-.13c-.06-.1-.11-.21-.17-.31l.27-.12c.06.15.12.31.18.46.04.09.07.18.11.27.14.26.28.53.42.8.32.62.64,1.25,1.02,1.83.19.29.46.56.72.82.37.37.74.74.89,1.19.4,1.17,1.2,1.84,2.05,2.56.12.1.24.2.36.3,1.83,1.57,3.96,1.64,6.12,1.43,1-.1,1.99-.36,3.02-.63.47-.12.95-.25,1.44-.37-.02.29-.03.58-.04.88-.03.7-.06,1.41-.15,2.12-.06.49-.16.98-.27,1.47-.17.8-.33,1.6-.32,2.4.01,1.01.14,2.02.27,3.03.11.83.21,1.67.25,2.51.03.6-.1,1.2-.24,1.87-.07.33-.14.68-.2,1.05-.25-.16-.5-.32-.74-.48-.41-.27-.81-.53-1.21-.78-.34-.22-.68-.43-1.03-.63h0c-.69-.42-1.38-.84-2.03-1.31-.92-.67-1.83-1.4-2.63-2.22-1.43-1.45-2.46-3.19-3.48-4.93-.32-.54-.64-1.09-.97-1.62-.52-.84-.61-1.57-.71-2.37l-.02-.12s0-.07-.01-.11c-.03-.23-.07-.54-.22-.64h0Zm.91,9.16h0c.06-.05.12-.09.18-.14.11.11.24.22.37.32.27.22.55.44.67.73,1.01,2.39,2.9,3.83,5.11,4.98.82.43,1.63.87,2.44,1.32h0c.78.43,1.57.87,2.36,1.28.25.13.54.18.93.26.22.04.48.09.78.16,0,.35,0,.7,0,1.06,0,1.23.01,2.52-.05,3.81-.01.21-.59.54-.92.56-.24.01-.49.04-.74.06-.88.09-1.79.17-2.53-.12-1.22-.47-2.43-1.31-3.27-2.3-1.13-1.34-2.12-2.81-3.1-4.27-.34-.51-.68-1.02-1.03-1.52-.95-1.38-1.09-2.93-1.23-4.48-.05-.53-.09-1.05-.17-1.57h0c.06-.06.12-.1.18-.15h0Zm1.35,14.78c-.03-.79-.16-1.58-.29-2.37-.06-.35-.11-.7-.16-1.05.08-.04.16-.07.24-.11.02-.01.05-.02.07-.03h.03s.05-.04.07-.05c.02,0,.04-.02.06-.03.09.1.18.2.26.3.18.2.36.4.51.62,1.89,2.7,3.99,5.11,7.66,5.07.61,0,1.23-.15,1.95-.32.36-.09.74-.18,1.17-.26.03.35.06.7.09,1.04l.03.35c.04.52.08,1.03.13,1.53-.15.03-.25.06-.32.08h0c-.12.03-.16.04-.2.02-2.03-1.04-3.96-.46-5.61,1.32-1.03,1.1-2.2,2.07-3.38,3.04-.39.32-.78.64-1.17.97-.17.14-.6.21-.73.11-.19-.16-.29-.51-.3-.78-.07-1.65-.14-3.3-.16-4.95,0-.63.01-1.26.03-1.9.03-.87.05-1.74.02-2.61h0Zm14.5,13.1c.36.48.34,1.43.19,2.09-.41,1.66-.92,3.3-1.53,4.89-.36.96-.83,1.88-1.3,2.8-.15.3-.31.61-.46.91-.05.11-.11.21-.16.32-.4.8-.79,1.61-1.27,2.36-.63,1-1.29,1.98-1.93,2.93h0c-.26.38-.51.75-.76,1.12-3.29-4.15-5.35-8.85-7.21-13.91.21-.29.42-.62.64-.98.51-.82,1.09-1.75,1.98-2.54.43-.38.83-.78,1.24-1.18.96-.95,1.92-1.9,3.17-2.57.54-.29.95-.82,1.41-1.4.22-.28.45-.57.7-.86.1.1.19.21.29.31.07.07.13.14.19.21.34.36.67.71,1,1.07.34.38.68.75,1.02,1.12.97,1.07,1.95,2.14,2.81,3.29h0Zm-21.02-56.16c.09.04.19.08.28.12.09.04.19.08.28.12l.21.06h0c1.35.37,2.7.74,4.14.31.13-.04.3.06.48.17.08.05.16.1.24.13.09.08.19.17.28.25.63-.06,1.26-.1,1.89-.15,1.38-.11,2.76-.22,4.13-.38,1.43-.18,2.85-.47,4.25-.79.21-.05.39-.2.57-.35.17-.14.34-.28.53-.34.36-.11.75-.14,1.14-.17.17-.01.34-.02.5-.04l.2.32c0,.07-.01.15-.02.22.05.21.09.41.14.61h0c.05.21.09.41.14.62-.22.7-.44,1.41-.66,2.15h-1.37c-.92,1.86-2.64,2.65-4.36,3.34-1.35.54-2.8.97-4.23,1.1-1.84.16-3.53-.34-4.91-1.82-.83-.89-1.96-1.63-3.1-2.04-1.15-.41-1.43-1.23-1.73-2.13-.18-.53-.37-1.09-.76-1.61.68.11,1.1.17,1.45.23h0s.29.05.29.05Zm-3.9-60.98c.47-.23.95-.46,1.4-.73.69-.4,1.37-.82,2.05-1.25.73-.45,1.45-.9,2.19-1.33.26-.15.58-.19.9-.23.14-.02.29-.04.43-.06.06-.04.13-.08.2-.12l.13-.08c.11-.07.22-.14.33-.21l.47-.34c.13-.1.26-.19.4-.28.13-.09.26-.19.4-.28,1.61-1.14,3.37-1.63,5.34-1.3.4.07.79.14,1.19.21.24.09.47.18.71.27h0c.24.09.47.18.71.27.34.22.7.43,1.05.64.82.48,1.63.97,2.34,1.58.54.47.94,1.09,1.35,1.71.19.29.38.59.59.87.48.66.98,1.32,1.48,1.97l.24.27c.28.49.56.97.86,1.5l.32.56c-.51.3-1.02.59-1.53.88-1.21.69-2.42,1.38-3.6,2.11-1.44.9-2.83,1.86-4.2,2.86-.74.54-1.35.45-2.25.29-1.8-.33-3.63-.48-5.46-.63-.72-.06-1.44-.12-2.16-.19h0c-.67.17-1.34.34-2.02.5h-.17c-.12.02-.24.03-.36.03-.15.04-.29.08-.44.13h0c-.14.04-.29.08-.43.13-.21.07-.41.13-.62.19-.49.15-.99.3-1.47.49-.33.13-.66.3-.98.46-.62.31-1.23.63-1.88.7-.78.09-1.74-.3-2.45-.75-1.09-.7-2.11-1.48-3.17-2.29-.44-.33-.88-.67-1.34-1.01.2-1.12,1.09-1.85,2.19-2.56.99-.64,1.92-1.36,2.86-2.09.8-.62,1.6-1.23,2.43-1.8h-.01c.62-.43,1.31-.76,1.99-1.1Zm14.58,19.89h0c-.56.2-1.12.4-1.68.59-.05.04-.11.08-.16.12l-.03.02-.05.04s-.05.04-.08.06c-.37.06-.74.12-1.12.18-.94.15-1.88.3-2.83.41-.36.04-.72.09-1.08.13-1.48.18-2.96.37-4.45.37-1.1,0-2.21-.17-3.31-.33-.49-.07-.97-.15-1.46-.2-.05,0-.12,0-.14-.02-.34-.47-.83-.81-1.31-1.15-.69-.48-1.39-.97-1.69-1.87-.14-.43-.4-.82-.65-1.2-.11-.16-.21-.32-.31-.49.52-.26,1.07-.54,1.63-.83,1.33-.69,2.76-1.44,4.26-2,1.47-.55,3-.92,4.53-1.29.68-.16,1.36-.33,2.04-.51.14,0,.28,0,.42.01h0c.14,0,.28,0,.43.01h1.97c.39,0,.78,0,1.17.01,1.02,0,2.04,0,3.05.09.28.02.53.2.8.38.16.11.32.22.48.3l.09.04.06.03c.47.22.94.45,1.44.59,1.39.39,2.69.83,3.39,2.28.13.28.36.51.64.8.16.16.34.35.53.57-.6.28-1.18.54-1.74.8-.49.23-.98.45-1.47.67-.13.07-.26.14-.39.21-.13.07-.26.14-.39.21l-.35.13c-.1.04-.19.07-.29.11-.1.04-.19.07-.29.11h0c-.56.2-1.12.4-1.68.59h0Zm-20.5-6.7c-.22.17-.47.33-.73.49-.59.37-1.2.75-1.5,1.31-.74,1.4-1.76,1.02-2.62.7-.11-.04-.22-.08-.33-.12-1.01-.33-1.95-.86-2.86-1.37-.37-.21-.74-.42-1.1-.61.2-.26.4-.53.61-.8.47-.61.95-1.24,1.41-1.89,1.05-1.49,1.36-1.61,2.85-.65,1.03.66,2.02,1.37,3.02,2.07.42.3.83.59,1.25.88Zm-1.74,18.82c-.66.6-1.4,1.11-2.14,1.63-.67.46-1.34.93-1.95,1.46-1,.86-2.03,1.43-3.27,1.93-.73.3-1.27,1.07-1.8,1.85-.24.34-.47.69-.73.99-.1.14-.19.29-.29.43-.1.14-.19.29-.29.43-.18.29-.36.58-.54.88-.18.29-.36.58-.54.88-.75.3-.79.77-.33,1.37-.09.18-.18.36-.27.55-.09.18-.18.36-.27.55-.06.08-.12.16-.18.24l-.05.07c-1.22,3.24-1.7,6.63-2.06,10.04-.16.22-.32.44-.48.67l-.05,3.94c-.48.83-.54,1.62.26,2.32-.02.21-.04.43-.06.64-.02.21-.04.43-.06.64-.13-.05-.27-.1-.41-.14-.3-.1-.6-.2-.83-.38-1.38-1.1-2.72-2.24-4.07-3.38l-.31-.26c-.17-.15-.41-.35-.42-.54-.07-1.5-1.09-2.06-2.15-2.64-.18-.1-.37-.2-.55-.31-.6-.36-1.08-1.04-1.43-1.67-.46-.82-.85-1.67-1.25-2.52-.17-.36-.34-.72-.51-1.08-.03-.07-.05-.14-.08-.21-.03-.11-.07-.22-.13-.31-.45-.61-.9-1.23-1.36-1.84-.45-.61-.91-1.22-1.35-1.84l-.02-.03-.04-.05c-.17-.24-.35-.49-.4-.75-.24-1.42-.92-2.62-1.6-3.83-.31-.55-.62-1.1-.88-1.67-.71-1.53-1.19-3.17-1.66-4.81-.2-.7-.4-1.4-.63-2.09-.06-.15-.11-.3-.17-.45-.06-.15-.12-.3-.17-.45,0-.09,0-.18-.01-.26,0-.09,0-.18-.01-.27l-.27-.83c-.09-.76-.18-1.51-.26-2.27l-.27-.9c-.6-1.62-.66-3.31-.72-5-.02-.61-.04-1.23-.09-1.83-.12-1.48-.16-2.96-.2-4.45-.04-1.19-.07-2.39-.14-3.58-.03-.49-.14-.98-.25-1.46-.14-.61-.27-1.22-.25-1.82.03-1.06.2-2.11.36-3.17.09-.55.17-1.1.24-1.65.06-.51.1-1.03.14-1.54.02-.26.04-.52.06-.78.04-.05.07-.1.11-.15.04-.05.07-.1.11-.15.2-1.03.4-2.05.6-3.08.2-1.03.4-2.05.6-3.08.13-.17.27-.34.4-.5l.08-.1c.12-.51.23-1.03.35-1.54.27-1.22.54-2.43.87-3.64.21-.77.51-1.53.81-2.28.12-.3.24-.6.35-.9.02-.05.06-.1.1-.15.05-.06.11-.13.1-.19-.05-1.14.45-2.09.94-3.04.27-.51.53-1.01.71-1.55.21-.64.4-1.28.59-1.93.21-.73.42-1.46.67-2.17.14-.4.35-.77.55-1.15.19-.34.38-.68.52-1.04.31-.8.6-1.61.89-2.41.41-1.16.83-2.32,1.31-3.45.24-.57.59-1.1.94-1.62.27-.41.54-.81.76-1.24.26-.51.45-1.07.64-1.62.08-.25.17-.49.26-.74.05-.1.11-.21.16-.32.05-.11.11-.21.16-.32.02-.02.05-.04.07-.06.06-.04.11-.08.13-.13.56-1.44,1.11-2.87,1.66-4.31,0-.09,0-.18.01-.28,0-.09,0-.18.01-.28.09-.14.19-.27.28-.41.09-.14.19-.27.28-.41.08-.01.17-.02.25-.03.08-.01.17-.02.25-.03-.07.15-.15.29-.22.44-.07.15-.15.29-.22.44,0,.25,0,.5.01.75h0c0,.12,0,.25,0,.37l.2.34-.02.18c-.07.67-.13,1.34-.2,2.01l.17.59c.07.27.14.55.2.82.23.93.46,1.85.65,2.79.04.19-.04.4-.12.61-.04.1-.07.19-.1.28l-.24.27c.01.08.03.17.04.25.03.22.07.44.12.66.6,2.23,1.2,4.46,1.8,6.69h0c.17.29.34.59.51.87l.32.83.25.85c.11.56.21,1.12.33,1.69.04.05.07.11.11.16.04.05.08.11.11.16.19.32.38.64.58.96h0s0,0,0,0c.19.32.39.64.58.96.1.38.19.75.29,1.13.28.56.56,1.13.84,1.69.09.13.18.26.28.39.09.13.18.26.28.39.21.46.42.92.63,1.38.63,1.38,1.26,2.76,1.91,4.13.07.14.23.25.38.35.07.04.14.09.2.14l.53,1.08c.09.1.18.21.27.31.09.1.18.21.27.31.15.21.29.43.44.64h0c.14.22.29.43.44.64.3.3.59.6.89.9.3.3.59.6.89.9.15.21.29.43.43.64.04.06.08.12.12.17.51.77,1.01,1.53,2.15,1.5.14,0,.29.23.44.47.07.11.14.23.21.32.13.09.26.18.39.27.13.09.26.18.39.27l.39.11c.61.17,1.22.33,1.83.51.05.03.1.06.15.1.05.03.1.06.15.1l.19.04h0c.37.08.76.16,1.27.26-.91.56-1.7,1.24-2.48,1.91-1.2,1.03-2.37,2.04-3.9,2.53-.31,1.62-1.45,2.71-2.59,3.81-.54.51-1.07,1.03-1.53,1.61-.07.11-.14.22-.21.32h0c-.07.11-.14.22-.21.32-.2.44-.4.88-.6,1.32h0c-.4.89-.81,1.77-1.2,2.65-.03.08-.03.2,0,.28.16.32.32.65.48.98.44.91.88,1.82,1.39,2.69.61,1.03,1.31,2.03,2.11,2.91.76.83,1.58,1.6,2.41,2.37.43.4.86.81,1.28,1.22.15.14.28.3.42.45.2.23.4.47.64.65.37.29.76.55,1.15.81.28.19.56.37.84.57.15.11.33.22.51.33.47.29.95.59,1.08,1,.2.59-.01,1.64-.45,2.03h.02Zm30.63-3.97c-.65.36-1.2.92-1.74,1.47-.25.25-.49.5-.75.74-.22.2-.45.4-.68.59-.5.41-.99.82-1.49,1.23-1.16.98-2.33,1.95-3.57,2.82-1.36.96-2.86,1.76-4.39,2.4-.92.38-1.78-.1-2.55-.92-.51-.55-1.19-.93-1.87-1.32-.3-.17-.6-.34-.89-.53h0c-.21-.13-.42-.26-.62-.38-.43-.31-.85-.62-1.28-.92-.43-.31-.85-.62-1.28-.92-.04-.04-.08-.08-.13-.12-.04-.04-.08-.08-.13-.12-1.3-.23-2.2-1.05-3.11-1.88-.35-.32-.7-.64-1.07-.93-.55-.42-1.08-.87-1.61-1.32-1.27-1.08-2.55-2.16-4.02-2.75-1.72-.69-2.77-1.55-3.49-3.1-.09-.19-.31-.35-.5-.46-1.37-.8-2.18-2.07-2.91-3.42-.07-.11-.14-.21-.21-.32h0c-.07-.11-.14-.22-.22-.33-.15-.24-.31-.48-.48-.75h0s0,0,0,0c-.16-.25-.33-.52-.54-.84,1.44-.03,2.48.59,3.48,1.19.47.28.94.56,1.43.76.02.02.05.04.07.06.03.02.05.04.08.06h0s.1.08.15.12c.38.09.76.17,1.14.25.99.22,1.98.43,2.95.71.33.1.74.56.79.9.2,1.62,1.37,2.24,2.55,2.87.15.08.31.16.46.25.26.15.51.31.76.48.12.08.23.16.35.23l.24.24c.04-.05.07-.11.11-.16.01-.02.03-.04.04-.06.25.04.49.09.74.13h0c.2.04.4.07.6.11l1.96.5h.55c.27.06.53.12.8.17h0s0,0,0,0c.21.05.41.09.62.14.19,0,.37,0,.56.01.19,0,.37,0,.56.01.14,0,.28,0,.42.01.14,0,.28,0,.42.01.37,0,.74-.01,1.11-.02.38,0,.76-.01,1.14-.02.19-.07.38-.14.58-.2,1.13-.29,2.26-.58,3.39-.87,1.13-.29,2.26-.58,3.39-.87.11-.03.22-.05.33-.08.25-.05.5-.11.74-.21.29-.12.57-.26.85-.4.36-.18.72-.35,1.09-.49.44-.16.89-.27,1.35-.38.22-.05.43-.11.65-.16-.05.17-.1.35-.16.53.2.21.4.43.61.64.45.47.89.93,1.32,1.41.14.16.29.32.44.48.51.55,1.02,1.1,1.4,1.73.45.73.47,1.41-.55,1.98h0Zm6.54-6.97l-.21.24c-.53.52-1.05,1.04-1.58,1.56-.53.52-1.05,1.04-1.58,1.56-.09-.01-.18-.02-.27-.03h0c-.09-.01-.18-.02-.28-.03-.07-.09-.15-.17-.23-.26-.14-.15-.28-.31-.4-.47-.17-.22-.34-.44-.5-.65-.26-.35-.52-.69-.8-1.03-.38-.45-.79-.87-1.22-1.28-.59-.56-.82-.94.2-1.35,1.75-.7,1.96-2.42.67-3.87-.27-.3-.39-.73-.5-1.17-.05-.19-.11-.39-.17-.57-.12-.1-.24-.2-.36-.3-.12-.1-.24-.2-.36-.3-.8-.67-1.6-1.34-2.47-2.06.22-.19.45-.4.69-.62.47-.42.97-.87,1.47-1.32l.57-.49c.25-.18.5-.36.75-.54.53-.38,1.06-.75,1.55-1.18.91-.79,1.83-.68,2.82-.26.04.05.08.1.12.15.04.05.08.1.12.15.24.33.48.65.73.98.24.33.48.65.73.98.14.19.27.37.4.56.13.19.27.37.4.56.19.25.39.49.58.74.63.8,1.27,1.6,1.9,2.41.13.17.27.33.4.49.36.43.72.86.96,1.34.17.34.1,1.15-.12,1.27-1.17.64-1.73,1.62-2.01,2.85-.02.08-.1.14-.18.2-.04.03-.08.06-.11.09-.2.15-.41.31-.61.46l-1.08,1.18h0Zm27.59-9.38c-.08.19-.17.39-.25.59-.08.2-.17.39-.25.59v1.4c-.02.52-.04,1.04-.05,1.56s-.04,1.04-.05,1.56c.02.08.04.16.06.24-.08.24-.17.48-.25.72-.08.24-.17.48-.25.72-.25,1.12-.49,2.24-.74,3.36-.25,1.12-.49,2.24-.74,3.36-.18.8-.35,1.6-.52,2.41-.45,2.07-.89,4.14-1.4,6.2-.47,1.89-.99,3.79-1.7,5.6-.43,1.11-1,2.17-1.56,3.22-.28.53-.57,1.07-.84,1.61-.11.22-.19.45-.28.67-.04.11-.08.23-.13.34v.55c-.06.07-.07.15-.05.24l-.11.2c-.07.13-.15.26-.22.39h0c-.07.12-.13.25-.2.37-.04.08-.09.15-.13.23-.17.31-.33.63-.49.94-.35.68-.7,1.37-1.09,2.03-.42.71-.88,1.4-1.34,2.08-.21.31-.41.62-.61.93-.09-.01-.19-.03-.28-.04-.09-.02-.19-.03-.28-.04-.15-.47-.29-.94-.43-1.41h0c-.35-1.15-.71-2.3-1.07-3.46-.29-.91-.58-1.81-.88-2.71l-.11-.34c-.09-.29-.18-.58-.27-.87-.2-.67-.41-1.35-.68-1.99-.91-2.17-1.54-4.41-2.17-6.65-.15-.52-.3-1.05-.45-1.57-.05-.16-.09-.33-.14-.5-.33-1.22-.73-2.66-1.99-3.56-.52-.37-.88-.95-1.25-1.53-.17-.26-.33-.52-.51-.76h0c-.16-.19-.33-.38-.48-.57-.23-.31-.46-.62-.69-.93-.48-.64-.96-1.28-1.4-1.95-.52-.8,0-1.29.48-1.73.13-.12.25-.24.35-.35.52-.63,1.11-1.19,1.7-1.76.51-.49,1.01-.97,1.48-1.5.35-.39.6-.88.84-1.37.11-.22.22-.43.33-.64.07-.06.13-.12.2-.19.83-1.56.39-3.48-.95-4.99-.37-.41-.66-.91-.94-1.41-.18-.32-.36-.64-.57-.94-.11-.16-.28-.3-.44-.43-.15-.12-.31-.25-.42-.4-.24-.34-.49-.67-.74-1.01-.79-1.08-1.58-2.15-2.22-3.31-.17-.3-.29-.61-.41-.92-.34-.86-.67-1.69-1.88-2.18-.86-.35-1.46-1.38-2.05-2.37-.18-.3-.35-.6-.53-.87-.17-.26-.02-1.04.24-1.23.41-.3.88-.5,1.35-.71.28-.12.55-.24.82-.38.17-.09.31-.23.45-.37.06-.06.13-.13.19-.19.09-.05.19-.09.28-.14.09-.05.19-.09.28-.14.1-.07.21-.15.31-.22.1-.07.21-.14.31-.22h0c.16-.23.33-.46.49-.69,1.75-1.16,3.15-2.56,4.03-4.55.24-.54.7-.98,1.17-1.42.38-.36.77-.73,1.04-1.16.7-1.12,1.23-2.34,1.77-3.55.07-.15.13-.3.2-.45.26-.59.47-1.19.69-1.8.15-.41.29-.82.45-1.23.53-1.35,1.06-2.69,1.6-4.04h0s.01-.04.01-.04c.22-.54.43-1.09.65-1.63.17-.43.37-.85.57-1.28.45-.97.91-1.94,1.02-2.95.2-1.77.7-3.43,1.2-5.09h0c.15-.5.3-.99.44-1.49.19-.66.2-1.37.21-2.08,0-.37.01-.74.04-1.11.01-.14.08-.27.14-.41.05-.1.09-.19.12-.29.08-.28.15-.57.25-.97h0c.04-.18.09-.38.15-.62.73-.36.7-1.16.67-2.03,0-.3-.02-.6,0-.9.03-.43.13-.86.23-1.29.06-.24.12-.49.16-.73.05-.27.1-.56.06-.82-.15-1.09-.13-1.17,1.08-2.13.01.2.02.4.03.59v.08c.04.6.06,1.14.09,1.68.08.11.16.21.23.32,0,.1.04.18.12.24.06.11.12.23.18.34h0c.09.17.18.35.27.52.19.76.37,1.52.56,2.29.35,1.26.7,2.51,1.04,3.77.21.77.43,1.55.64,2.32.21.77.43,1.55.64,2.32.08.24.16.49.24.73.08.24.16.49.25.73.19.55.38,1.1.57,1.65.44,1.26.88,2.51,1.26,3.79.18.59.25,1.2.31,1.82.03.29.06.57.11.85.04.28.08.57.13.86l.13.86c.02.14.04.27.07.41.02.14.04.27.06.41.16.38.32.77.47,1.16l.34,2.23v2.54c.05.19.09.38.14.56.05.19.09.37.14.56,0,.09,0,.18,0,.27v.02s.52,1.98.52,1.98l-.05,1.11c0,.14.01.28.02.42h0c0,.15.01.3.02.45.06.81.15,1.62.24,2.43.23,2,.45,4,.13,6.02.08.38.17.76.25,1.13,0,.09,0,.18-.01.27v.02s.52,1.98.52,1.98l-.3,1.12c0,.14,0,.29-.01.43h0c0,.15,0,.29-.01.44.03.47.07.95.1,1.42.1,1.28.2,2.56.21,3.85,0,.47-.15.94-.31,1.41-.07.21-.14.43-.2.64.07.47.15.95.22,1.41v1.1Zm-.61,5.7c.02-.05.04-.1.06-.15h0s-.04.1-.06.15Zm.43-2.33c.06.26.06.52.03.78.03-.26.02-.52-.03-.78Z"/><path class="cls-2" d="m75.87,247.61s.01-.13.11-.4c.12-.29.38-.57.79-.83.41-.26,1.08-.41,2.02-.43.84-.02,1.48.09,1.91.32.43.22.72.43.87.65l.25.32.4.94c.26.62.62,1.46,1.08,2.49.46,1.01.96,2.14,1.51,3.39.55,1.25,1.11,2.52,1.66,3.82.58,1.27,1.11,2.48,1.59,3.61.5,1.11.93,2.04,1.26,2.81.34.75.55,1.21.65,1.41.22.46.34.78.36.97.02.19.01.33-.04.4-.02.05-.04.08-.04.11-.17.34-.5.62-1.01.87-.48.26-1.07.41-1.77.43-.96.02-1.66-.08-2.09-.32-.43-.22-.72-.44-.87-.68-.12-.22-.17-.31-.14-.29l-.4-.83c-.24-.55-.53-1.21-.87-1.98-.34-.79-.65-1.51-.94-2.16h-3.25c-.1.34-.19.76-.29,1.26-.1.48-.18.91-.25,1.3l-.11.58-.18.43c-.1.29-.37.58-.83.87s-1.21.43-2.27.43c-.79,0-1.39-.08-1.8-.25-.38-.19-.65-.41-.79-.65-.12-.24-.18-.45-.18-.61v-.29c.05-.24.14-.73.29-1.48.17-.77.36-1.68.58-2.74.24-1.08.48-2.22.72-3.43.26-1.2.52-2.39.76-3.57.24-1.18.46-2.25.65-3.21.19-.99.35-1.77.47-2.35l.18-.9Zm3.79,5.7c-.02.1-.05.29-.07.58l-.14,1.01c-.05.55-.11,1.14-.18,1.77-.07.63-.14,1.21-.22,1.77-.05.29-.08.47-.11.54h.47c.29,0,.6-.01.94-.04.34-.02.64-.04.9-.04-.1-.19-.18-.43-.25-.72-.05-.31-.11-.6-.18-.87-.14-.55-.31-1.13-.5-1.73-.17-.6-.32-1.17-.47-1.7-.07-.29-.13-.48-.18-.58Z"/><path class="cls-1" d="m99.71,256.45l1.98-2.74.25-.29c.19-.19.52-.38.97-.58.48-.19,1.13-.28,1.95-.25.84,0,1.48.17,1.91.51.46.31.72.67.79,1.08.07.41-.07.78-.43,1.12-.26.24-.62.6-1.08,1.08-.43.48-.89.99-1.37,1.51-.46.5-.85.94-1.19,1.3l-.47.54,3.53,4.69.18.25c.12.17.22.38.29.65.07.26.06.53-.04.79-.07.24-.31.46-.72.65-.38.19-1,.3-1.84.32-.84.02-1.49-.1-1.95-.36-.43-.26-.73-.53-.9-.79l-.25-.4-1.51-2.63-1.98,3.18-.18.25c-.12.17-.38.34-.79.51-.38.17-1.02.25-1.91.25-1.32,0-2.12-.28-2.38-.83-.26-.58-.07-1.27.58-2.09.43-.55.89-1.17,1.37-1.84.5-.67.93-1.25,1.26-1.73l.54-.76-4.33-4.65-.18-.25c-.1-.17-.17-.38-.22-.65-.02-.26.08-.53.32-.79.26-.29.76-.53,1.48-.72.96-.26,1.72-.31,2.27-.14.58.17.99.39,1.23.65l.36.36,2.45,2.81Z"/><path class="cls-2" d="m123.63,256.19c-.07,1.2-.41,2.18-1.01,2.92-.6.72-1.33,1.27-2.2,1.66-.84.36-1.68.61-2.52.76-.84.12-1.55.18-2.13.18h-.83c.14.84.35,1.44.61,1.8.26.36.55.57.87.61.34.05.65.02.94-.07.29-.12.52-.25.69-.4l.29-.22.4-.32c.26-.22.67-.42,1.23-.61.58-.22,1.3-.32,2.16-.32.99,0,1.65.13,1.98.4.36.24.53.53.5.87,0,.31-.07.6-.22.87l-.18.36-.32.36c-.19.22-.55.48-1.08.79-.53.31-1.26.6-2.2.87-.94.24-2.14.37-3.61.4-1.42.02-2.61-.17-3.57-.58-.96-.41-1.75-.94-2.38-1.59-.62-.67-1.11-1.37-1.44-2.09-.31-.74-.54-1.43-.69-2.06-.12-.65-.18-1.15-.18-1.51s.02-.83.07-1.41c.07-.58.23-1.18.47-1.8.26-.65.66-1.26,1.19-1.84.53-.58,1.25-1.05,2.16-1.41.94-.36,2.13-.55,3.57-.58,1.8-.02,3.21.13,4.22.47,1.01.34,1.74.75,2.2,1.23.46.48.73.94.83,1.37.12.43.18.73.18.9Zm-9.19,3.03c1.47-.12,2.56-.43,3.28-.94.72-.5,1.14-1.07,1.26-1.7.12-.62,0-1.15-.36-1.59-.34-.46-.85-.66-1.55-.61-.7.02-1.23.29-1.59.79-.36.48-.61,1.05-.76,1.7-.14.62-.23,1.18-.25,1.66l-.04.69Z"/></svg>