<?xml version="1.0" encoding="UTF-8"?><svg id="Daggers" xmlns="http://www.w3.org/2000/svg" viewBox="0 0 480 640"><defs><style>.cls-1{fill:#b75aa3;}</style></defs><path class="cls-1" d="m280.09,185.93c-1.32.17-2.38-.45-3.24-1.4-.74-.82-1.53-1.49-2.74-1.4-.28.02-.68-.1-.84-.31-.89-1.16-2.24-1.44-3.49-1.96-.47-.2-.89-.6-1.25-.99-1.28-1.42-2.63-2.75-4.22-3.83-.37-.25-.65-.64-.94-.99-1.21-1.46-2.09-3.2-3.8-4.2-.12-.07-.2-.23-.3-.34-1.18-1.32-1.2-1.32-1.76.24-.38,1.06-.74,2.13-.76,3.27.06-.03.11-.05.16-.07.17-.16.31-.35.39-.58.21-.58.3-1.19.55-1.76.44-1.03.5-1.05,1.44-.33.54.42,1.09.86,1.5,1.42,1.62,2.26,3.66,4.1,5.72,5.94,1.54,1.38,2.91,2.95,4.99,3.56.21.06.39.24.57.39.65.56,1.39.94,2.24,1.13.38.08.8.15,1.07.4,1.69,1.56,3.64,2.49,5.95,2.66,1.87,1.1,4.01,1.47,6,2.25.94.37,1.89.78,2.89.57,1.35-.29,2.56-.14,3.72.64.52.35,1.17.22,1.79.23,1.24.01,1.38.2.88,1.31-.47,1.05-1.01,2.06-1.51,3.1-.65,1.38-.74,1.41-2.33,1.17-2.2-.34-4.27-1.25-6.49-1.51-.38-.04-.7-.31-1.01-.53-.37-.27-.76-.52-1.2-.68-3.6-1.31-7.18-2.67-10.86-3.75-1.21-.35-2.3-.86-3.2-1.72-.95-.9-2.04-1.61-3.05-2.43-2.69-2.17-5.26-4.47-7.02-7.52-.61-1.06-1.36-2.04-1.93-3.13-.21-.4-.39-1.11-1.09-.85-.04.04-.09.08-.14.12.18.12.42.21.48.37.42,1.24,1.31,2.22,1.9,3.35,1.8,3.41,4.76,5.74,7.48,8.3,1.37.45,2.19,1.61,3.23,2.48.92.77,1.85,1.61,3.22,1.56.43-.02.88.23,1.31.38,2.3.8,4.6,1.61,6.9,2.42.86.3,1.62.88,2.58.9.21,0,.5.12.61.28.79,1.13,1.98,1.2,3.18,1.27.15,0,.28.12.43.16,1.85.46,3.69.93,5.54,1.37.86.2,1.29-.02,1.65-.83.47-1.05.88-2.12,1.38-3.15.3-.62.76-1.16,1.05-1.77.26-.56-.06-1.03-.48-1.42-.31-.29-.63-.4-1.01-.1-.96.78-1.95.52-2.7-.22-.71-.69-1.47-.92-2.28-.57-1.53.64-2.85.16-4.15-.56-.48-.27-.93-.53-1.49-.49-.8.06-1.43-.35-2.14-.63-1.11-.44-2.02-1.42-3.38-1.24Z"/><path class="cls-1" d="m211.67,407.15c.17-.14.31-.31.46-.46-.15.15-.31.31-.46.46Z"/><path class="cls-1" d="m296.93,231.57c-.15-.15-.31-.31-.46-.46.16.15.29.32.46.46Z"/><path class="cls-1" d="m213.97,401.16c-.15.15-.31.31-.46.46.17-.14.31-.31.46-.46Z"/><path class="cls-1" d="m212.13,397.47c.15.15.31.31.46.46-.15-.15-.29-.32-.46-.46Z"/><path class="cls-1" d="m213.97,398.39c.15.15.31.31.46.46-.16-.15-.3-.31-.46-.46Z"/><path class="cls-1" d="m300.15,244.02c-.15-.15-.31-.31-.46-.46.16.15.29.32.46.46Z"/><path class="cls-1" d="m299.69,242.63c-.15-.15-.31-.31-.46-.46.16.15.29.32.46.46Z"/><path class="cls-1" d="m298.31,212.68c.15-.15.31-.31.46-.46-.17.13-.29.32-.46.46Z"/><path class="cls-1" d="m299.23,241.25c-.15-.15-.31-.31-.46-.46.16.15.29.32.46.46Z"/><path class="cls-1" d="m194.61,438.03c-.15.15-.31.31-.46.46.15-.16.32-.29.46-.46Z"/><path class="cls-1" d="m297.85,236.64c-.15-.15-.31-.31-.46-.46.17.14.29.33.46.46Z"/><path class="cls-1" d="m298.31,238.02c-.15-.15-.31-.31-.46-.46.16.15.29.32.46.46Z"/><path class="cls-1" d="m296.46,226.04c.15-.15.31-.31.46-.46-.17.14-.31.31-.46.46Z"/><path class="cls-1" d="m249.46,330.19c-.15.15-.31.31-.46.46.17-.14.31-.31.46-.46Z"/><path class="cls-1" d="m180.79,354.15c-.15.15-.31.31-.46.46.17-.14.31-.31.46-.46Z"/><path class="cls-1" d="m250.38,329.27c-.15.15-.31.31-.46.46.15-.15.32-.29.46-.46Z"/><path class="cls-1" d="m219.96,347.24c-.15.15-.31.31-.46.46.17-.14.31-.31.46-.46Z"/><path class="cls-1" d="m209.36,396.09c.15.15.31.31.46.46-.15-.15-.29-.32-.46-.46Z"/><path class="cls-1" d="m250.84,328.35c.17-.14.31-.31.46-.46-.15.15-.31.31-.46.46Z"/><path class="cls-1" d="m251.76,326.97c-.15.15-.31.31-.46.46.17-.14.31-.31.46-.46Z"/><path class="cls-1" d="m205.21,393.79c.15.15.31.31.46.46-.15-.15-.29-.32-.46-.46Z"/><path class="cls-1" d="m300.15,203.92c.15-.15.31-.31.46-.46-.17.13-.29.32-.46.46Z"/><path class="cls-1" d="m299.23,207.61c.15-.15.31-.31.46-.46-.17.14-.31.31-.46.46Z"/><path class="cls-1" d="m151.29,381.34c-.15.15-.31.31-.46.46.17-.14.31-.31.46-.46Z"/><path class="cls-1" d="m153.6,388.72c.15.15.31.31.46.46-.14-.17-.31-.31-.46-.46Z"/><path class="cls-1" d="m322.27,342.17c.15-.15.31-.31.46-.46-.17.13-.3.32-.46.46Z"/><path class="cls-1" d="m174.8,455.08c.17-.14.31-.31.46-.46-.15.15-.31.31-.46.46Z"/><path class="cls-1" d="m300.61,245.4c-.15-.15-.31-.31-.46-.46.16.15.29.32.46.46Z"/><path class="cls-1" d="m309.37,258.76c-.15-.15-.31-.31-.46-.46.15.15.29.32.46.46Z"/><path class="cls-1" d="m309.83,259.68l-.46-.46c.16.15.29.32.46.46Z"/><path class="cls-1" d="m306.6,255.54l-.46-.46c.16.15.3.32.46.46Z"/><path class="cls-1" d="m310.75,260.61c-.15-.15-.31-.31-.46-.46.14.17.31.31.46.46Z"/><path class="cls-1" d="m306.14,254.61c-.15-.15-.31-.31-.46-.46.15.15.29.32.46.46Z"/><path class="cls-1" d="m178.02,450.01c.17-.14.31-.31.46-.46-.15.15-.31.31-.46.46Z"/><path class="cls-1" d="m171.57,478.12c.15.15.31.31.46.46-.16-.15-.3-.32-.46-.46Z"/><path class="cls-1" d="m172.49,480.42c.15.15.31.31.46.46-.15-.15-.29-.32-.46-.46Z"/><path class="cls-1" d="m176.64,482.27c.15.15.31.31.46.46-.14-.17-.31-.31-.46-.46Z"/><path class="cls-1" d="m172.95,460.61c-.15.15-.31.31-.46.46.17-.14.31-.31.46-.46Z"/><path class="cls-1" d="m252.22,326.5l-.46.46c.15-.15.32-.29.46-.46Z"/><path class="cls-1" d="m176.64,451.85c.17-.14.31-.31.46-.46-.15.15-.31.31-.46.46Z"/><path class="cls-1" d="m307.99,256.92c-.15-.15-.31-.31-.46-.46.15.15.29.32.46.46Z"/><path class="cls-1" d="m178.94,448.62c-.15.15-.31.31-.46.46.17-.14.31-.31.46-.46Z"/><path class="cls-1" d="m191.85,439.41c.15-.16.34-.28.46-.46-.15.15-.31.31-.46.46Z"/><path class="cls-1" d="m302.92,250.01c-.15-.15-.31-.31-.46-.46.16.15.3.32.46.46Z"/><path class="cls-1" d="m312.13,262.91l-.46-.46c.16.15.29.32.46.46Z"/><path class="cls-1" d="m301.53,247.24c-.15-.15-.31-.31-.46-.46.16.15.3.32.46.46Z"/><path class="cls-1" d="m301.07,246.32c-.15-.15-.31-.31-.46-.46.17.14.29.33.46.46Z"/><path class="cls-1" d="m303.84,250.93c-.15-.15-.31-.31-.46-.46.15.15.29.32.46.46Z"/><path class="cls-1" d="m183.55,444.02c-.15.15-.31.31-.46.46.15-.15.32-.29.46-.46Z"/><path class="cls-1" d="m182.17,444.94c-.15.15-.31.31-.46.46.15-.15.32-.29.46-.46Z"/><path class="cls-1" d="m185.86,442.17c-.15.15-.31.31-.46.46.15-.15.32-.29.46-.46Z"/><path class="cls-1" d="m188.16,441.25c.15-.15.32-.29.46-.46-.15.15-.31.31-.46.46Z"/><path class="cls-1" d="m304.3,251.85c-.15-.15-.31-.31-.46-.46.16.15.29.32.46.46Z"/><path class="cls-1" d="m302.46,249.08c-.15-.15-.31-.31-.46-.46.16.15.29.32.46.46Z"/><path class="cls-1" d="m240.7,178.58c-.15.15-.31.31-.46.46.16-.14.3-.31.46-.46Z"/><path class="cls-1" d="m240.24,179.04c-.15.15-.31.31-.46.46.17-.14.31-.31.46-.46Z"/><path class="cls-1" d="m241.16,177.66c-.15.15-.31.31-.46.46.17-.14.31-.31.46-.46Z"/><path class="cls-1" d="m239.78,179.96c-.15.15-.3.3-.45.45.16-.14.3-.31.45-.45Z"/><path class="cls-1" d="m242.08,176.27c-.15.15-.31.31-.46.46.17-.14.31-.31.46-.46Z"/><path class="cls-1" d="m241.62,177.19c-.15.15-.31.31-.46.46.16-.14.3-.31.46-.46Z"/><path class="cls-1" d="m239.32,180.42c-.15.15-.31.31-.46.46.17-.14.31-.31.46-.46Z"/><path class="cls-1" d="m237.47,183.65c-.15.15-.31.31-.46.46.16-.14.3-.31.46-.46Z"/><path class="cls-1" d="m236.55,185.03c-.15.15-.31.31-.46.46.16-.14.3-.31.46-.46Z"/><path class="cls-1" d="m243.93,173.97l-.46.46c.16-.14.3-.31.46-.46Z"/><path class="cls-1" d="m237.93,182.72c-.15.15-.31.31-.46.46.17-.13.29-.32.46-.46Z"/><path class="cls-1" d="m238.4,181.8c-.15.15-.31.31-.46.46.17-.14.31-.31.46-.46Z"/><path class="cls-1" d="m238.86,181.34c-.15.15-.31.31-.46.46.16-.14.3-.31.46-.46Z"/><path class="cls-1" d="m235.63,186.87h0c-.15.15-.31.31-.46.46.16-.14.3-.31.46-.46Z"/><path class="cls-1" d="m258.21,157.38c-.15.15-.31.31-.46.46.15-.15.32-.29.46-.46Z"/><path class="cls-1" d="m257.75,157.84c-.15.15-.31.31-.46.46.17-.14.31-.31.46-.46Z"/><path class="cls-1" d="m256.83,158.76c-.15.15-.31.31-.46.46.15-.16.32-.29.46-.46Z"/><path class="cls-1" d="m266.51,150.01c-.15.15-.31.31-.46.46.17-.14.31-.31.46-.46Z"/><path class="cls-1" d="m266.97,149.55c-.15.15-.31.31-.46.46.15-.15.32-.29.46-.46Z"/><path class="cls-1" d="m269.27,147.7c-.15.15-.31.31-.46.46.15-.16.32-.29.46-.46Z"/><path class="cls-1" d="m249.46,167.06c-.15.15-.31.31-.46.46.17-.14.31-.31.46-.46Z"/><path class="cls-1" d="m244.39,173.05c-.15.15-.31.31-.46.46.17-.14.31-.31.46-.46Z"/><path class="cls-1" d="m255.91,159.22c-.15.15-.31.31-.46.46.15-.15.32-.29.46-.46Z"/><path class="cls-1" d="m247.15,169.82c-.15.15-.31.31-.46.46.17-.14.31-.31.46-.46Z"/><path class="cls-1" d="m254.53,161.07l-.46.46c.17-.14.31-.31.46-.46Z"/><path class="cls-1" d="m254.99,160.14l-.46.46c.17-.14.31-.31.46-.46Z"/><path class="cls-1" d="m222.73,210.37c-.15.15-.31.31-.46.46.16-.14.3-.31.46-.46Z"/><path class="cls-1" d="m213.51,266.14c.15.15.31.31.46.46-.16-.15-.29-.32-.46-.46Z"/><path class="cls-1" d="m227.34,276.27c.15.15.31.31.46.46-.14-.17-.31-.31-.46-.46Z"/><path class="cls-1" d="m244.85,282.73l.46.46c-.14-.17-.31-.31-.46-.46Z"/><path class="cls-1" d="m214.89,236.64c-.15.15-.31.31-.46.46.16-.14.3-.31.46-.46Z"/><path class="cls-1" d="m219.5,218.67l-.46.46c.17-.14.31-.31.46-.46Z"/><path class="cls-1" d="m218.58,220.97c-.15.15-.31.31-.46.46.17-.14.31-.31.46-.46Z"/><path class="cls-1" d="m247.15,283.65c.15.15.31.31.46.46-.14-.17-.31-.31-.46-.46Z"/><path class="cls-1" d="m235.17,187.33c-.15.15-.31.31-.46.46.17-.14.31-.31.46-.46Z"/><path class="cls-1" d="m254.99,322.36c-.15.15-.31.31-.46.46.17-.14.31-.31.46-.46Z"/><path class="cls-1" d="m303.84,190.56c.15-.15.31-.31.46-.46-.17.14-.31.31-.46.46Z"/><path class="cls-1" d="m256.83,319.59c-.15.15-.31.31-.46.46.17-.14.31-.31.46-.46Z"/><path class="cls-1" d="m258.21,316.37c-.15.15-.31.31-.46.46.17-.14.31-.31.46-.46Z"/><path class="cls-1" d="m259.6,312.68c-.15.15-.31.31-.46.46.17-.14.31-.31.46-.46Z"/><path class="cls-1" d="m260.06,311.76c-.15.15-.31.31-.46.46.17-.14.31-.31.46-.46Z"/><path class="cls-1" d="m230.56,195.63c-.15.15-.31.31-.46.46.16-.14.3-.31.46-.46Z"/><path class="cls-1" d="m229.18,197.47c-.15.15-.31.31-.46.46.17-.14.31-.31.46-.46Z"/><path class="cls-1" d="m228.72,198.39l-.46.46c.17-.13.29-.32.46-.46Z"/><path class="cls-1" d="m306.14,182.72c.15-.15.31-.31.46-.46-.16.14-.3.31-.46.46Z"/><path class="cls-1" d="m234.25,189.18c-.15.15-.31.31-.46.46.16-.14.3-.31.46-.46Z"/><path class="cls-1" d="m305.22,185.95c.15-.15.31-.31.46-.46-.17.14-.31.31-.46.46Z"/><path class="cls-1" d="m234.71,188.25c-.15.15-.31.31-.46.46.17-.13.3-.32.46-.46Z"/><path class="cls-1" d="m220.88,214.98c-.15.15-.31.31-.46.46.16-.14.3-.31.46-.46Z"/><path class="cls-1" d="m253.14,325.58c-.15.15-.31.31-.46.46.17-.14.31-.31.46-.46Z"/><path class="cls-1" d="m224.57,206.69c-.15.15-.31.31-.46.46.16-.14.3-.31.46-.46Z"/><path class="cls-1" d="m228.26,199.31c-.15.15-.31.31-.46.46.16-.14.3-.31.46-.46Z"/><path class="cls-1" d="m225.49,204.38c-.15.15-.31.31-.46.46.17-.14.31-.31.46-.46Z"/><path class="cls-1" d="m293.7,443.56c.15.15.31.31.46.46-.14-.17-.31-.31-.46-.46Z"/><path class="cls-1" d="m299.69,448.16c.15.15.31.31.46.46-.14-.17-.31-.31-.46-.46Z"/><path class="cls-1" d="m298.77,447.24c.15.15.31.31.46.46-.14-.16-.31-.3-.46-.46Z"/><path class="cls-1" d="m301.99,450.01c.15.15.31.31.46.46-.14-.17-.31-.31-.46-.46Z"/><path class="cls-1" d="m297.85,446.78c.15.15.31.31.46.46-.14-.17-.31-.31-.46-.46Z"/><path class="cls-1" d="m309.37,175.81c.15-.15.31-.31.46-.46-.17.14-.31.31-.46.46Z"/><path class="cls-1" d="m275.73,430.19c.15.15.31.31.46.46-.14-.17-.31-.31-.46-.46Z"/><path class="cls-1" d="m296,445.4c.15.15.31.31.46.46-.14-.17-.31-.31-.46-.46Z"/><path class="cls-1" d="m312.13,404.85c-.15-.15-.31-.31-.46-.46.15.15.29.32.46.46Z"/><path class="cls-1" d="m309.83,450.93c.15-.15.31-.31.46-.46-.15.15-.32.29-.46.46Z"/><path class="cls-1" d="m312.59,444.94c.15-.15.31-.31.46-.46-.17.13-.29.32-.46.46Z"/><path class="cls-1" d="m309.83,396.09l-.46-.46c.17.14.29.33.46.46Z"/><path class="cls-1" d="m311.67,448.62c.15-.15.31-.31.46-.46-.17.13-.29.32-.46.46Z"/><path class="cls-1" d="m311.21,449.55c.15-.15.31-.31.46-.46-.17.14-.31.31-.46.46Z"/><path class="cls-1" d="m278.03,431.57c.15.15.31.31.46.46-.13-.17-.32-.29-.46-.46Z"/><path class="cls-1" d="m281.26,433.88c.15.15.31.31.46.46-.14-.17-.31-.31-.46-.46Z"/><path class="cls-1" d="m283.1,435.26l.46.46c-.14-.17-.31-.31-.46-.46Z"/><path class="cls-1" d="m279.87,432.96l.46.46c-.14-.17-.31-.31-.46-.46Z"/><path class="cls-1" d="m277.11,431.11c.15.15.31.31.46.46-.13-.17-.32-.29-.46-.46Z"/><path class="cls-1" d="m308.91,393.33c-.15-.15-.31-.31-.46-.46.16.15.29.32.46.46Z"/><path class="cls-1" d="m284.48,436.18c.15.15.31.31.46.46-.14-.16-.31-.3-.46-.46Z"/><path class="cls-1" d="m291.86,442.17c.15.15.31.31.46.46-.14-.17-.31-.31-.46-.46Z"/><path class="cls-1" d="m289.09,439.87c.15.15.31.31.46.46-.14-.17-.31-.31-.46-.46Z"/><path class="cls-1" d="m324.12,285.03c-.15-.15-.31-.31-.46-.46.16.15.29.32.46.46Z"/><path class="cls-1" d="m286.79,438.03c.15.15.31.31.46.46-.14-.16-.31-.3-.46-.46Z"/><path class="cls-1" d="m285.86,437.56c.15.15.31.31.46.46-.14-.17-.31-.31-.46-.46Z"/><path class="cls-1" d="m287.25,438.49c.15.15.31.31.46.46-.14-.17-.31-.31-.46-.46Z"/><path class="cls-1" d="m303.84,450.93c.15.15.31.31.46.46-.14-.17-.31-.31-.46-.46Z"/><path class="cls-1" d="m310.75,363.83c.15-.15.31-.31.46-.46-.15.15-.32.29-.46.46Z"/><path class="cls-1" d="m307.53,367.98c.15-.15.31-.31.46-.46-.15.15-.32.29-.46.46Z"/><path class="cls-1" d="m313.98,359.22c.15-.15.31-.31.46-.46-.17.14-.31.31-.46.46Z"/><path class="cls-1" d="m311.21,363.37c.15-.15.31-.31.46-.46-.17.14-.31.31-.46.46Z"/><path class="cls-1" d="m310.29,364.75c-.17.14-.31.31-.46.46.15-.15.31-.31.46-.46Z"/><path class="cls-1" d="m326.88,295.63c-.15-.15-.31-.31-.46-.46.16.15.29.32.46.46Z"/><path class="cls-1" d="m314.9,357.38c.15-.15.31-.31.46-.46-.15.15-.32.29-.46.46Z"/><path class="cls-1" d="m320.43,347.24c.15-.15.31-.31.46-.46-.17.14-.31.31-.46.46Z"/><path class="cls-1" d="m321.81,343.09c.15-.15.31-.31.46-.46-.17.14-.31.31-.46.46Z"/><path class="cls-1" d="m319.51,349.09c.15-.15.31-.31.46-.46-.17.14-.31.31-.46.46Z"/><path class="cls-1" d="m319.05,350.01c.15-.15.31-.31.46-.46-.17.14-.31.31-.46.46Z"/><path class="cls-1" d="m318.59,350.93c.15-.15.31-.31.46-.46-.17.14-.31.31-.46.46Z"/><path class="cls-1" d="m318.13,351.85c.15-.15.31-.31.46-.46-.17.14-.31.31-.46.46Z"/><path class="cls-1" d="m308.45,392.4c-.15-.15-.31-.31-.46-.46.16.15.29.32.46.46Z"/><path class="cls-1" d="m304.3,383.65c-.15-.15-.31-.31-.46-.46.15.15.29.32.46.46Z"/><path class="cls-1" d="m301.99,381.34l-.46-.46c.16.15.3.31.46.46Z"/><path class="cls-1" d="m306.6,369.36c.15-.15.31-.31.46-.46-.17.14-.31.31-.46.46Z"/><path class="cls-1" d="m302.92,381.8c-.15-.15-.31-.31-.46-.46.14.17.31.31.46.46Z"/><path class="cls-1" d="m307.53,389.64c-.15-.15-.31-.31-.46-.46.16.15.29.32.46.46Z"/><path class="cls-1" d="m307.06,388.72l-.46-.46c.16.15.29.32.46.46Z"/><path class="cls-1" d="m306.6,387.8c-.15-.15-.31-.31-.46-.46.15.15.29.32.46.46Z"/><path class="cls-1" d="m306.14,369.82c.15-.15.31-.31.46-.46-.15.15-.32.29-.46.46Z"/><path class="cls-1" d="m305.22,370.74c-.17.14-.31.31-.46.46.15-.15.31-.31.46-.46Z"/><path class="cls-1" d="m301.07,375.35c.15-.15.31-.31.46-.46-.17.14-.31.31-.46.46Z"/><path class="cls-1" d="m301.53,374.43c.15-.15.31-.31.46-.46-.16.14-.3.31-.46.46Z"/><path class="cls-1" d="m300.61,376.27c-.17.14-.31.31-.46.46.15-.15.31-.31.46-.46Z"/><path class="cls-1" d="m258.21,449.09c-.15-.15-.31-.31-.46-.46.14.16.31.3.46.46Z"/><path class="cls-1" d="m266.51,497.01c.15-.15.31-.31.46-.46-.15.15-.32.29-.46.46Z"/><path class="cls-1" d="m270.2,491.02l.46-.46c-.16.14-.3.31-.46.46Z"/><path class="cls-1" d="m264.2,498.39c.15-.15.31-.31.46-.46-.15.15-.32.29-.46.46Z"/><path class="cls-1" d="m269.27,493.33c.15-.15.31-.31.46-.46-.17.14-.31.31-.46.46Z"/><path class="cls-1" d="m264.66,497.93c.15-.15.31-.31.46-.46-.15.16-.32.3-.46.46Z"/><path class="cls-1" d="m316.74,269.82c-.15-.15-.31-.31-.46-.46.15.15.29.32.46.46Z"/><path class="cls-1" d="m265.59,497.47l.46-.46c-.14.17-.33.29-.46.46Z"/><path class="cls-1" d="m271.58,467.06c-.15-.15-.31-.31-.46-.46.16.15.29.32.46.46Z"/><path class="cls-1" d="m271.12,465.68c-.15-.15-.31-.31-.46-.46.16.15.29.32.46.46Z"/><path class="cls-1" d="m270.66,464.75c-.15-.15-.31-.31-.46-.46.16.15.29.32.46.46Z"/><path class="cls-1" d="m318.59,272.59l-.46-.46c.14.17.31.31.46.46Z"/><path class="cls-1" d="m272.96,471.67c-.15-.15-.31-.31-.46-.46.17.14.29.33.46.46Z"/><path class="cls-1" d="m270.66,490.56c.15-.15.31-.31.46-.46-.17.14-.31.31-.46.46Z"/><path class="cls-1" d="m315.82,268.44c-.15-.15-.31-.31-.46-.46.16.15.3.32.46.46Z"/><path class="cls-1" d="m191.39,483.65c.15-.15.31-.31.46-.46-.15.15-.32.29-.46.46Z"/><path class="cls-1" d="m207.52,473.51c.15-.15.31-.31.46-.46-.15.16-.32.29-.46.46Z"/><path class="cls-1" d="m191.85,483.19c.15-.15.31-.31.46-.46-.15.16-.32.3-.46.46Z"/><path class="cls-1" d="m190.47,484.11c.15-.15.31-.31.46-.46-.15.16-.32.29-.46.46Z"/><path class="cls-1" d="m263.28,498.86c.15-.15.31-.31.46-.46-.15.16-.32.29-.46.46Z"/><path class="cls-1" d="m313.98,265.21c-.15-.15-.31-.31-.46-.46.15.15.29.32.46.46Z"/><path class="cls-1" d="m180.79,483.65c.15.15.31.31.46.46-.14-.17-.31-.31-.46-.46Z"/><path class="cls-1" d="m240.7,482.73c.15.15.31.31.46.46-.14-.17-.31-.31-.46-.46Z"/><path class="cls-1" d="m253.6,497.93c.15.15.31.31.46.46-.15-.15-.29-.32-.46-.46Z"/><path class="cls-1" d="m260.52,499.32c.15-.15.31-.31.46-.46-.14.17-.33.29-.46.46Z"/><path class="cls-1" d="m270.2,463.83c-.15-.15-.31-.31-.46-.46.16.15.29.32.46.46Z"/><path class="cls-1" d="m243,485.03c.15.15.31.31.46.46-.14-.17-.31-.31-.46-.46Z"/><path class="cls-1" d="m265.13,426.97c.15-.15.31-.31.46-.46-.17.14-.31.31-.46.46Z"/><path class="cls-1" d="m262.36,437.1c-.17.14-.31.31-.46.46.15-.15.31-.31.46-.46Z"/><path class="cls-1" d="m262.36,436.18c.15-.15.31-.31.46-.46-.17.14-.31.31-.46.46Z"/><path class="cls-1" d="m260.98,440.33c.15-.15.31-.31.46-.46-.17.13-.3.32-.46.46Z"/><path class="cls-1" d="m259.6,443.56c.15-.15.31-.31.46-.46-.17.14-.31.31-.46.46Z"/><path class="cls-1" d="m260.52,442.17c-.17.14-.31.31-.46.46.15-.15.31-.31.46-.46Z"/><path class="cls-1" d="m262.82,434.8c.15-.15.31-.31.46-.46-.17.14-.31.31-.46.46Z"/><path class="cls-1" d="m321.35,278.12c-.15-.15-.31-.31-.46-.46.16.15.29.32.46.46Z"/><path class="cls-1" d="m270.66,426.97c.15.15.31.31.46.46-.14-.17-.31-.31-.46-.46Z"/><path class="cls-1" d="m264.2,431.11c-.17.13-.29.32-.46.46.15-.15.31-.31.46-.46Z"/><path class="cls-1" d="m272.04,427.89c.15.15.31.31.46.46-.14-.17-.31-.31-.46-.46Z"/><path class="cls-1" d="m266.97,424.66c.15.15.31.31.46.46-.14-.17-.31-.31-.46-.46Z"/><path class="cls-1" d="m264.2,430.65c.15-.15.31-.31.46-.46-.17.13-.29.32-.46.46Z"/><path class="cls-1" d="m272.96,428.35c.15.15.31.31.46.46-.13-.17-.32-.29-.46-.46Z"/><path class="cls-1" d="m268.81,460.61c-.15-.15-.31-.31-.46-.46.15.15.29.32.46.46Z"/><path class="cls-1" d="m267.43,458.3c-.15-.15-.31-.31-.46-.46.16.15.29.32.46.46Z"/><path class="cls-1" d="m269.73,462.45c-.15-.15-.31-.31-.46-.46.16.15.29.32.46.46Z"/><path class="cls-1" d="m266.97,457.38l-.46-.46c.15.15.29.32.46.46Z"/><path class="cls-1" d="m319.97,274.89c-.15-.15-.31-.31-.46-.46.15.15.29.32.46.46Z"/><path class="cls-1" d="m259.13,444.94c.15-.15.31-.31.46-.46-.17.13-.29.32-.46.46Z"/><path class="cls-1" d="m269.27,461.53c-.15-.15-.31-.31-.46-.46.17.14.29.33.46.46Z"/><path class="cls-1" d="m265.13,455.08c-.15-.15-.31-.31-.46-.46.15.15.29.32.46.46Z"/><path class="cls-1" d="m312.59,263.83c-.15-.15-.31-.31-.46-.46.16.15.3.32.46.46Z"/><path class="cls-1" d="m257.75,447.24c.15-.15.31-.31.46-.46-.17.14-.31.31-.46.46Z"/><path class="cls-1" d="m260.06,450.01c-.15-.15-.31-.31-.46-.46.14.17.31.31.46.46Z"/><path class="cls-1" d="m263.28,452.77c-.15-.15-.31-.31-.46-.46.14.17.31.31.46.46Z"/><path class="cls-1" d="m259.13,449.55c-.15-.15-.31-.31-.46-.46.13.17.32.29.46.46Z"/><path class="cls-1" d="m176.64,356.46c-.15.15-.31.31-.46.46.15-.16.32-.29.46-.46Z"/><path class="cls-1" d="m247.15,333.88s.03-.01.04-.02c-.01-.01-.03-.03-.04-.04v.06Z"/><path class="cls-1" d="m248.07,332.96h-.06s.03.02.04.04c0-.01.01-.02.02-.04Z"/><path class="cls-1" d="m270.2,147.24l-.46.46c.15-.16.32-.29.46-.46Z"/><path class="cls-1" d="m248.53,332.5s.05-.03.07-.04c-.03-.03-.05-.06-.07-.1v.14Z"/><path class="cls-1" d="m251.76,286.44s.01-.02.02-.03c0,0-.01,0-.02,0v.03Z"/><path class="cls-1" d="m248.89,284.11h.1s-.04-.04-.06-.06c-.01.02-.03.04-.05.06Z"/><path class="cls-1" d="m323.8,143.87s0,0,0,0c.11-.11.21-.21.32-.32-.11.1-.21.21-.32.31Z"/><polygon class="cls-1" points="244.39 282.27 244.39 282.26 244.39 282.26 244.39 282.27"/><path class="cls-1" d="m258.67,293.41s.04-.02.06-.04c-.02-.02-.04-.03-.06-.05v.09Z"/><path class="cls-1" d="m184.01,353.2v.04s.02,0,.02,0c0-.01-.02-.02-.02-.03Z"/><path class="cls-1" d="m180.33,354.97v.1s.03,0,.04,0c-.02-.03-.03-.06-.04-.1Z"/><path class="cls-1" d="m183.06,353.72s.02-.02.03-.03h-.07s.02.02.04.03c0,0,0,0,0,0Z"/><path class="cls-1" d="m228.72,344.48s.02,0,.03,0c-.01-.03-.02-.05-.03-.08v.08Z"/><path class="cls-1" d="m192.31,350.41v.06s.02,0,.02,0c0-.02-.02-.04-.02-.06Z"/><path class="cls-1" d="m227.34,345.4h-.11s.03.04.04.06c.02-.02.04-.04.07-.06Z"/><path class="cls-1" d="m219.5,348.16s.03,0,.04-.01c-.02-.03-.03-.05-.04-.08v.09Z"/><path class="cls-1" d="m196.92,349.46v.09s.03,0,.04,0c-.02-.03-.03-.06-.04-.09Z"/><path class="cls-1" d="m217.63,270.22s-.06.04-.08.06h.11s-.02-.04-.03-.06Z"/><path class="cls-1" d="m321.35,150.01c.15-.15.31-.31.46-.46-.17.14-.31.31-.46.46Z"/><path class="cls-1" d="m322.27,148.62c-.17.14-.31.31-.46.46.15-.15.31-.31.46-.46Z"/><path class="cls-1" d="m216.27,269.4s.02-.03.03-.04c0,0-.02,0-.03,0v.04Z"/><path class="cls-1" d="m215.81,268.86s-.06.03-.09.04h.1s0-.03,0-.04Z"/><path class="cls-1" d="m252.6,286.87h.08s-.02-.04-.03-.05c-.02.02-.03.04-.05.05Z"/><path class="cls-1" d="m229.14,276.69s-.02.03-.03.04h.07s-.03-.03-.04-.04Z"/><path class="cls-1" d="m237.87,279.96h.07s-.02-.03-.03-.05c-.01.02-.02.04-.03.05Z"/><path class="cls-1" d="m238.86,280.5s.02-.06.04-.08c-.01,0-.03,0-.04,0v.08Z"/><path class="cls-1" d="m231.48,277.75s.03-.06.05-.09c-.02,0-.03,0-.05,0v.09Z"/><path class="cls-1" d="m219.04,271.69s.01-.02.02-.03c0,0-.01,0-.02,0v.03Z"/><path class="cls-1" d="m219.93,272.07s-.03.04-.05.05h.09s-.02-.04-.03-.05Z"/><path class="cls-1" d="m242.96,281.75s-.02.04-.03.05h.08s-.03-.03-.05-.05Z"/><path class="cls-1" d="m223.65,274.46s.01-.02.02-.02c0,0-.01,0-.02,0v.03Z"/><path class="cls-1" d="m189.54,351.39h-.12s.04.04.06.06c.02-.02.04-.04.05-.06Z"/><path class="cls-1" d="m314.44,124.2c-.15.15-.31.31-.46.46.15-.15.32-.29.46-.46Z"/><path class="cls-1" d="m304.3,127.89c-.15.15-.31.31-.46.46.15-.16.32-.29.46-.46Z"/><path class="cls-1" d="m310.29,125.58c-.15.15-.31.31-.46.46.15-.16.32-.29.46-.46Z"/><path class="cls-1" d="m318.59,122.82l-.46.46c.15-.16.32-.29.46-.46Z"/><path class="cls-1" d="m305.22,127.43c-.15.15-.31.31-.46.46.15-.16.32-.29.46-.46Z"/><path class="cls-1" d="m320.89,121.43c-.15.15-.31.31-.46.46.15-.16.32-.29.46-.46Z"/><path class="cls-1" d="m308.91,126.04c-.15.15-.31.31-.46.46.15-.16.32-.29.46-.46Z"/><path class="cls-1" d="m307.53,126.5c-.15.15-.31.31-.46.46.15-.16.32-.29.46-.46Z"/><path class="cls-1" d="m316.74,123.28c-.15.15-.31.31-.46.46.15-.16.32-.29.46-.46Z"/><path class="cls-1" d="m329.65,120.97c-.15-.15-.31-.31-.46-.46.14.17.31.31.46.46Z"/><path class="cls-1" d="m331.03,121.43c.15.15.29.32.46.46-.15-.15-.31-.31-.46-.46Z"/><path class="cls-1" d="m322.27,120.97c-.15.15-.31.31-.46.46.15-.16.32-.29.46-.46Z"/><path class="cls-1" d="m324.12,120.51c-.15.15-.31.31-.46.46.15-.15.32-.29.46-.46Z"/><path class="cls-1" d="m331.49,126.96c.15-.15.31-.31.46-.46-.17.14-.31.31-.46.46Z"/><path class="cls-1" d="m326.42,120.05c-.15.15-.31.31-.46.46.15-.16.32-.29.46-.46Z"/><path class="cls-1" d="m178.48,356h-.07s.03.02.04.03c0-.01.02-.02.02-.03Z"/><path class="cls-1" d="m201.51,391.94h.02v-.02s-.01.02-.02.02Z"/><polygon class="cls-1" points="158.21 371.67 158.21 371.67 158.21 371.67 158.21 371.67"/><path class="cls-1" d="m153.6,377.66h-.13s.08.04.12.06c0-.02,0-.04.01-.06Z"/><path class="cls-1" d="m202.45,392.4v.02s.01-.02.02-.02h-.02Z"/><path class="cls-1" d="m175.26,357.73v.11s.03,0,.05-.01c-.02-.03-.04-.06-.05-.1Z"/><path class="cls-1" d="m158.21,371.63v.04s.02-.02.04-.02c-.01,0-.02,0-.04-.02Z"/><path class="cls-1" d="m326.42,138.02l.46-.46c-.16.15-.31.3-.46.46h0Z"/><path class="cls-1" d="m160.51,368.9h-.12s.06.03.08.05c.01-.02.02-.03.04-.05Z"/><path class="cls-1" d="m328.26,134.34c.15-.15.31-.31.46-.46-.16.14-.3.31-.46.46Z"/><path class="cls-1" d="m302.92,128.35c-.15.15-.31.31-.46.46.15-.16.32-.29.46-.46Z"/><path class="cls-1" d="m299.69,130.19c-.15.15-.31.31-.46.46.15-.16.32-.29.46-.46Z"/><path class="cls-1" d="m301.99,128.81c-.15.15-.31.31-.46.46.15-.16.32-.29.46-.46Z"/><path class="cls-1" d="m300.61,129.73c-.15.15-.31.31-.46.46.15-.16.32-.29.46-.46Z"/><path class="cls-1" d="m327.21,302.05c.03.32.05.63.08.95.07-.24.09-.49,0-.75-.02-.07-.05-.13-.08-.2Z"/><path class="cls-1" d="m327.75,309.69c.15-.68.06-1.38-.15-2.08.05.69.1,1.38.15,2.08Z"/><path class="cls-1" d="m234.16,342.63s.04.05.05.07c.01-.03.03-.05.04-.07h-.09Z"/><path class="cls-1" d="m289.55,135.26c-.15.15-.31.31-.46.46.15-.16.32-.29.46-.46Z"/><path class="cls-1" d="m288.63,135.72c-.15.15-.31.31-.46.46.15-.16.32-.29.46-.46Z"/><path class="cls-1" d="m284.48,138.02c-.15.15-.31.31-.46.46.15-.16.32-.29.46-.46Z"/><path class="cls-1" d="m290.47,134.8c-.15.15-.31.31-.46.46.15-.16.32-.29.46-.46Z"/><path class="cls-1" d="m285.4,137.56c-.15.15-.31.31-.46.46.14-.17.33-.29.46-.46Z"/><path class="cls-1" d="m195.38,350.01c-.02.09-.04.17-.06.24.08-.07.15-.15.22-.24h-.16Z"/><path class="cls-1" d="m315.82,161.53c.15-.15.31-.31.46-.46-.17.14-.31.31-.46.46Z"/><path class="cls-1" d="m311.67,170.28c.15-.15.31-.31.46-.46-.17.14-.31.31-.46.46Z"/><path class="cls-1" d="m313.06,167.52c.15-.15.31-.31.46-.46-.17.14-.31.31-.46.46Z"/><path class="cls-1" d="m281.72,139.41c-.15.15-.31.31-.46.46.15-.16.32-.29.46-.46Z"/><path class="cls-1" d="m275.73,143.09c-.15.15-.31.31-.46.46.14-.17.33-.29.46-.46Z"/><path class="cls-1" d="m272.04,145.86c-.15.15-.31.31-.46.46.15-.15.32-.29.46-.46Z"/><path class="cls-1" d="m273.88,144.48c-.15.15-.31.31-.46.46.15-.16.32-.29.46-.46Z"/><path class="cls-1" d="m271.12,146.78c-.15.15-.31.31-.46.46.15-.16.32-.3.46-.46Z"/><path class="cls-1" d="m278.03,141.71c-.15.15-.31.31-.46.46.15-.16.32-.29.46-.46Z"/><path class="cls-1" d="m282.64,138.95c-.15.15-.31.31-.46.46.15-.16.32-.29.46-.46Z"/><path class="cls-1" d="m283.56,138.49c-.15.15-.31.31-.46.46.15-.16.32-.29.46-.46Z"/><path class="cls-1" d="m276.65,142.63c-.15.15-.31.31-.46.46.15-.16.32-.29.46-.46Z"/><polygon class="cls-1" points="290.01 430.65 290.01 430.66 290.02 430.65 290.01 430.65"/><path class="cls-1" d="m256.9,182.23s0,0-.01,0c.07.21.25.34.39.5-.13-.17-.25-.34-.38-.5,0,0,0,0,0,0Z"/><path class="cls-1" d="m264.66,203.92s.05.04.08.06c0-.02-.01-.03-.02-.05-.02,0-.04,0-.07-.01Z"/><path class="cls-1" d="m257.77,183.15c-.16-.14-.32-.28-.49-.42.16.14.3.31.48.41,0,0,0,0,0,0Z"/><path class="cls-1" d="m329.37,123.64c-.76-.45-1.61-1.18-2.46-.97-2.19.55-4.58.58-6.43,2.17-.17.14-.41.22-.62.28-3.17.94-6.21,2.3-9.42,3.12-.93.86-2.23.78-3.31,1.32-1.95.99-4.13,1.52-5.93,2.84-.12.09-.29.09-.43.14-1.87.66-3.73,1.36-5.39,2.45-1.52.99-3.3,1.52-4.69,2.71-1.02.01-1.53.96-2.37,1.3-1.28.52-2.4,1.39-3.66,1.86-1.38.52-2.34,1.6-3.62,2.22-1.06.52-2.18.98-3.11,1.77-.76.64-1.89.82-2.44,1.68-.64,1-1.77,1.13-2.6,1.76-.49.37-.73,1.05-1.38,1.17-.84.16-1.3.72-1.76,1.36-.45.62-1.45.51-1.79,1.31-.25.6-.8.88-1.32,1.22-1.13.74-2.46,1.3-2.88,2.79-.03.12-.19.26-.32.3-1.47.48-2.19,1.85-3.33,2.7-.69.52-.79,1.46-1.69,1.78-.67.24-1.98,1.73-2.35,2.32-.12.19-.28.36-.44.52-.86.87-1.76,1.7-2.56,2.61-.79.89-1.5,1.84-2.31,2.73-1.19,1.32-2.54,2.57-3.35,4.23-.11.23-.49.33-.74.5-.02.05-.04.09-.06.14-.2.44-.36.92-.66,1.26-1.3,1.48-2.34,3.12-3.4,4.77-1.9,2.97-4.03,5.8-5.59,8.99-.42.21-.48.6-.5,1-.38.21-.38.59-.4.96-.24.08-.38.24-.42.5.14-.16.28-.32.41-.48h0c-.11.19-.27.33-.41.48h0c-.26.04-.42.16-.4.45l-.15.07.02.16c-.42.28-.48.68-.42,1.14-.02.02-.05.04-.06.07-.31.34-.4.78-.51,1.21-.51.12-.88.37-.9.95-.35.25-.38.62-.35,1.01-.4.4-.97.67-.94,1.36-.26.26-.46.54-.47.92-.71.39-.83,1.1-.98,1.8-.26.06-.44.18-.42.49-.31.22-.42.55-.5.9-.45.15-.47.54-.48.93h0s0,0,0,0h0s0,0,0,0c-.45.92-.89,1.83-1.34,2.75-.35.21-.51.53-.49.93-.38.36-.3.9-.49,1.34-.25.07-.41.22-.43.49-.42.21-.39.61-.38.99h0c-.3.22-.58.46-.51.89-.36.38-.39.89-.48,1.37-.41.12-.51.49-.62.83-.4,1.25-1.11,2.4-1.25,3.74-.24.08-.4.22-.42.49-.26.06-.36.27-.44.49-.39.24-.49.58-.37,1-.02.13-.06.26-.1.38-.43.32-.35.84-.49,1.27-.52.42-.55.96-.35,1.55-.03.13-.07.26-.1.39-.27.1-.38.29-.3.58-.09.12-.11.25-.06.39l-.13.07.02.15c-.52.46-.24,1.09-.37,1.64l-.02.03c-.5.51-.53,1.14-.49,1.8-.07.09-.12.19-.15.29-.37.75-.55,1.55-.43,2.41-.35.23-.41.57-.39.96-.4.31-.4.75-.42,1.2,0,.37-.05.73-.08,1.1-.53.37-.39.75.04,1.13t0,0c-.13.2-.13.41,0,.61-.34.28-.54.62-.43,1.08l-.11.13.09.15c-.04.05-.06.11-.09.17-.34.69-.23,1.5-.47,2.22-.57.35-.47.9-.42,1.44h0s0,0,0,0c0,0,0,0,0,0-.52,1.01-.45,2.11-.46,3.2-.47.37-.26.95-.4,1.42-.55.7-.42,1.55-.47,2.35-.06,1.03,0,2.07,0,3.1.05.07.09.13.14.2,0,.02-.02.03-.03.05-.05-.08-.09-.16-.11-.25-.82,1.7-.39,3.47-.33,5.22l-.08-.05c-.65.85-.66.92-.06,1.86.09.15.08.29-.03.42-.45.3-.41.77-.41,1.22,0,.98.02,1.97.02,2.95h0c.03.13.06.26.1.39.07.2.17.37.37.49.01,0,.03.02.04.03.13.17.26.35.39.52.1.4.2.81.3,1.21.41,1.65.93,3.23,2.42,4.2.3.2.64.37,1.03.51l.02.02c.04.25.17.42.43.47h0c-.03.15,0,.27.1.38,0,.04.02.08.03.11.1.33.34.42.64.4.06,0,.12-.01.19-.02h0c0,.06.02.12.04.17.06.18.18.29.41.31l.17.14h.03s.17-.03.17-.03c.21.34.56.4.91.49.1.19.22.35.35.49.32.34.72.54,1.16.66.27.07.56.11.86.13.06.24.17.44.45.47.05.15.12.26.21.33.08.07.17.11.26.14.13.03.27.04.41.04.23.37.58.41.97.37l.1.13.16-.05s0,0,0,0c.41.49.98.46,1.53.46.1.22.28.35.53.36l.03.02c.31.52.84.45,1.32.51.22.36.52.53.95.45l.09.1.12-.06s0,0,0,0c.32.31.72.43,1.16.41.17.2.36.34.57.44.27.14.57.22.88.29.29.06.58.11.85.2.1.09.21.14.32.18.6.27,1.28.24,1.92.34.1.24.29.34.54.36-.17-.12-.34-.23-.51-.35,0,0,0,0,.01,0,0,0,0,0,0,0,.2.08.33.25.51.36l.02.02c.16.41.49.49.89.46l.08.11.13-.04s0,0,0,0c.47.41,1.09.24,1.61.44.06.14.14.24.22.32.19.18.44.23.7.23.15,0,.3-.01.45-.03,0,0,0,0,0,0,.43.17.86.37,1.3.54.49.19.99.34,1.52.38.29.02.58.01.89-.05,0,0,0,0,0,0,.18.12.32.28.48.43h0c0,.31.15.46.47.44h.02c.07.1.15.15.24.19.46.29.99.32,1.52.37.12.15.24.29.37.41.26.23.56.39.9.46.17.04.36.05.55.05.1.23.29.35.53.38l-.51-.38s0,0,.01,0c0,0,0,0,0,0,.2.08.33.25.5.38h0c.44.68,1.02,1.16,1.78,1.44.08.26.25.4.52.4-.17-.13-.33-.26-.5-.39,0,0,0,0,.01,0,0,0,0,0,0,0,.19.1.33.27.49.4h0c.45.32.91.63,1.36.94.16.45.52.7.91.93,0,.1.03.18.06.24.07.13.2.22.35.29.06.25.24.33.45.35.03,0,.05,0,.08,0,0,.03,0,.07,0,.1-.03.37.04.68.49.79.03.04.07.07.11.1.07.04.14.06.23.05.06.25.21.4.47.44.05.25.21.4.45.48.02.1.05.19.09.28.12.27.31.46.59.58.07.03.14.06.22.08.08.25.26.37.51.42.05.25.2.4.45.47.06.36.11.71.49.9,0,.26.15.43.38.52,0,.12,0,.23,0,.34.05.49.26.91.5,1.32.19.32.39.63.57.95l.02.03c0,.26.15.42.38.51,0,.29-.03.59-.03.88,0,.25.02.5.09.74.08.23.2.45.44.65-.05,1-.03,1.99.42,2.92-.14.26-.16.52.05.76.19,2.3.12,4.59-.1,6.88-.19.29-.31.59-.37.91-.05.21-.07.43-.08.65-.01.24-.01.48,0,.72-.49.56-.22,1.27-.36,1.9h0c-.18.09-.29.2-.37.33-.09.14-.13.3-.14.48-.01.17,0,.36,0,.54-.28.25-.49.54-.43.95-.06.05-.1.11-.13.17-.25.33-.4.71-.43,1.14-.11.07-.19.16-.25.25-.06.08-.1.18-.13.28-.04.13-.06.27-.05.42-.14.1-.22.23-.28.36-.05.11-.07.22-.09.34-.04.36,0,.74-.17,1.06-.11.03-.2.07-.27.12-.31.19-.42.49-.46.82-.02.19-.03.38-.04.58-.47.33-.42.86-.5,1.34-.23.08-.39.23-.45.47-.28.03-.44.18-.43.48-.32.2-.48.49-.53.86-.26.09-.37.27-.36.55.12-.17.24-.34.35-.51,0,0,.01,0,.02,0-.07.21-.24.35-.37.52h0c-.34.22-.6.47-.5.92l-.09.1.06.12s0,0,0,0c0,0,0,0,0,0-.12.24-.24.48-.36.72l-.02.03c-.38.15-.57.42-.54.83-.3.23-.39.56-.47.9-.12.02-.24.04-.35.08-.29.1-.5.3-.57.63-.01.07-.02.14-.03.21-.06.02-.12.04-.17.07-.12.08-.19.19-.21.35,0,.03-.01.06-.01.09-.03,0-.04.03-.07.04-.26.12-.39.33-.46.59-.02.06-.03.12-.05.19-.08.03-.16.06-.22.11-.08.05-.14.12-.18.21-.02.05-.04.12-.04.19-.11.1-.22.2-.32.31-.19.2-.36.42-.46.68-.05.13-.09.28-.1.44-.23.08-.39.23-.41.49-.04.02-.08.04-.12.06-.57.31-.86.8-.93,1.42,0,.07-.01.14-.02.22-.08.01-.17.03-.25.05-.22.06-.41.15-.53.36-.02.04-.04.08-.06.13-.28.06-.4.25-.42.52-.41.15-.46.51-.51.87-.25.06-.4.21-.44.48-.27.06-.38.24-.42.5-.14.03-.28.07-.41.11-.63.22-1.11.64-1.39,1.3,0,0,0,0,0,0,.02.01.04.03.06.04,0,0,0,0-.01,0l-.05-.04h0s-.03.02-.05.04c-.32.27-.64.54-.95.81,0,0,0,0,.01,0-.39.19-.76.4-1.12.62-.23.14-.46.29-.68.45-.33.24-.65.49-.94.78-.19-.02-.37-.01-.53.04-.05.03-.09.05-.14.08-.03.02-.06.04-.1.06-.07.06-.13.15-.19.25-.28.01-.43.18-.49.44-.31.15-.62.3-.92.45-.03,0-.06.02-.1.03-.88.21-1.65.65-2.41,1.09-.51.29-1.02.58-1.57.8h0s0,0,0,0c-.3-.02-.45.15-.5.42-.47.09-.98.06-1.3.53h-.03c-.62.22-1.34-.13-1.9.38-.18,0-.36,0-.53.01-.23.02-.45.09-.65.23-.08.05-.15.11-.22.19-.4,0-.65.28-.92.51-.13.03-.26.06-.39.1,0,0-.02,0-.03,0-.2-.02-.32.05-.38.19-.03.06-.05.13-.06.22,0,0,0,0,0,0-.15.15-.29.31-.48.41,0,0,0,0-.01,0-.37.01-.69.14-.96.39-.01-.01-.02-.02-.03-.03-.1-.08-.2-.07-.31.03-.61-.23-1.11-.1-1.56.22-.12.09-.24.19-.36.3-.69-.04-1.35.04-1.91.48l-.2-.06-.16.13c-.2.01-.41.03-.61.04-.22.02-.45.03-.67.05-.43.1-.5.65-.88.82-.05.02-.12.04-.19.04-.05,0-.1,0-.15,0-.22,0-.45,0-.67,0-.67-.01-1.35-.15-1.93.35-.05,0-.1,0-.15.01-.25.02-.5.04-.74.06l.05-.1c-.11-.15-.23-.26-.36-.33-.26-.15-.55-.16-.85-.13-.23.02-.46.07-.69.09-1.84,0-3.68,0-5.53-.01-.46,0-.93.02-1.39.02-.15-.06-.29-.06-.43.01-1.13-.13-2.26-.16-3.33.33-.28.01-.57.02-.85.03-.24,0-.48.02-.72.03-.18,0-.34.04-.47.13-.1.06-.18.15-.24.28l.06.08c-.45.02-.9.04-1.36.05-.37.01-.74.01-1.01.32-.55.02-1.09.06-1.51.49l-.1-.08-.1.06s-.04-.03-.06-.04c-.26-.2-.51-.25-.75-.09-.07.05-.14.11-.2.19-.4-.03-.69.16-.92.47-.4.04-.82-.02-1.23-.01-.13,0-.25.02-.38.04-.26.05-.5.15-.73.36-.27-.02-.53-.03-.79-.03-.33,0-.65.02-.97.1-.34.08-.66.23-.97.47-.21.04-.44.03-.65.05-.25.03-.49.11-.65.39,0,.01-.02.02-.03.04l-.03.03s-.04.01-.06.04c-.17.1-.33.2-.5.31,0,0,0,0,0,0-.07-.01-.15-.02-.22-.03-.45-.05-.88-.02-1.28.13-.26.09-.5.23-.74.43-.2-.02-.4-.03-.58.02-.05.02-.1.04-.15.07-.1.06-.18.16-.25.3-.22.06-.45.05-.68.08-.24.02-.46.08-.65.27-.03.03-.05.05-.08.08-.03,0-.06.01-.09.02-.17.03-.28.12-.36.26-.03.05-.05.11-.06.17-.28.17-.57.33-.85.5-.02,0-.03,0-.04-.01-.89-.3-1.26.32-1.66.9-.03.04-.06.08-.08.12.02.02.04.04.05.05,0,0,0,0,0,0l-.05-.05c-.11,0-.22,0-.33-.01-.29-.02-.58-.03-.8.14-.09.08-.18.18-.24.34h0c-.89.1-1.35.86-2,1.33l-.18-.06-.14.13c-.31.04-.58.14-.83.28-.21.11-.4.25-.59.39-.3.22-.58.46-.9.65-.17,0-.3.04-.43.1-.15.07-.27.17-.36.3-.09.13-.15.29-.2.47-.35.07-.63.25-.83.55h0c-.21-.05-.41-.05-.58-.02-.25.04-.46.16-.65.32-.21.18-.4.4-.59.63h-.02c-.18.13-.31.32-.52.38,0,0,0,0,0-.01.17-.12.35-.24.52-.36-.28-.03-.47.09-.55.35-.58.14-.93.59-1.33.98-.31-.03-.45.14-.52.41-.23.1-.45.21-.68.32-.78.39-1.49.86-2.1,1.5-.15.15-.29.32-.42.49-.29.05-.39.26-.43.51-.25.04-.46.13-.55.39-.15.06-.3.13-.44.21-.5.29-.89.7-1.25,1.16-.02.03-.05.06-.07.09-.01,0-.03,0-.04,0-.23,0-.39.08-.47.28-.01.03-.03.05-.03.08-.28.09-.36.29-.31.57-.14.07-.17.17-.09.3-.33.15-.72.21-.91.58-.31.01-.43.2-.44.48-.25.07-.38.24-.4.5l-.03.03c-.39.16-.51.47-.5.86-.13.17-.3.31-.42.49,0,0,0,0,0,0h-.02c-.17.13-.31.31-.5.41,0,0,0,0,0,0,.16-.13.33-.26.5-.4-.27,0-.46.12-.51.39-.27.04-.42.19-.47.46-.27.05-.41.21-.38.5.13-.16.25-.32.38-.49,0,0,0,0,0,0-.1.18-.25.33-.38.49l-.12.08.04.14s0,0,0,0h0c-.29.39-.59.77-.88,1.16-.54.25-.38.84-.61,1.24-.1.02-.19.05-.28.08-.48.18-.76.54-.91,1.01-.04.12-.07.25-.1.38-.34.2-.44.53-.51.89-.27.08-.39.25-.33.54.11-.17.23-.35.34-.52,0,0,.01,0,.02,0-.05.22-.23.36-.36.52l-.13.12.05.17c-.26.13-.39.34-.4.63h0c-.44.17-.44.55-.44.93v.02c-.33.21-.51.49-.45.89l-.14.15.06.19s0,0,0,0c-.27.24-.27.49,0,.74l-.07.18.14.13c0,.5.01,1,.46,1.35v.02c.03.12.07.2.12.26.14.19.37.19.61.17.06,0,.11,0,.17,0l.05.04.12.1s.2,0,.22,0c.16.14.32.28.49.42.87.44,1.73.6,2.59.43.31-.06.62-.17.93-.33.07,0,.14-.04.24-.12.36,0,.71-.02,1.07-.03.31,0,.62-.02.93-.02.06,0,.13,0,.19,0,.29,0,.58-.01.87-.02.01,0,.02,0,.03,0,.02-.14.06-.27.13-.4.92,0,1.84,0,2.76,0,.48-.03.96-.07,1.44-.1.41,0,.82,0,1.24-.01.28.1.48.02.6-.26l-.06-.11c.14.06.28.08.43.07.49.31.97.44,1.45,0,.2-.15.4-.3.59-.45h.17s0-.01,0-.01c.42.36.89.49,1.43.33,4.2.23,8.4.08,12.6,0,.59.04,1.18.07,1.77.11.15,0,.31,0,.46-.01.45.01.9.03,1.35.04.15.29.41.38.72.39.38.02.75.05,1.12.07.23.43.57.53,1,.35.14,0,.26.04.37.12.4.6.99.25,1.5.3.27.04.54.08.81.12.39.4.87.49,1.4.45.07.06.14.1.22.13.63.34,1.35.28,2.02.42.21.39.59.39.97.39.22.37.58.4.96.41.44.02.89.05,1.33.07.33.51.82.58,1.37.49.28.17.57.33.85.5.1.27.3.37.58.32l.09.12.14-.05c.6.57,1.4.19,2.07.42.04.24.13.45.37.53-.03.14.01.25.14.34.18.44.5.56.94.44.12.04.25.08.37.12.1.29.3.38.59.3h0c.41.05.83.11,1.24.16.07.24.21.4.47.44.05.27.2.43.48.44.16.42.52.47.9.49.33.56.91.36,1.4.45.31.51.77.8,1.32.97.23.35.58.45.97.42.37.39.83.53,1.36.49.23.29.55.4.9.45.02.28.04.57.06.85-.62.31-.45.88-.45,1.39h0c-.51.5-.62,1.12-.54,1.79-.43.38-.42.89-.43,1.4-.44.21-.55.64-.62,1.07-.09.58-.15,1.16-.22,1.74l-.15.11.04.18c-.77.79-.92,1.79-.99,2.82-.25.11-.37.29-.3.57-.03.05-.1.11-.09.15.01.1.06.21.09.31-.02.3-.04.59-.06.89-.24.07-.44.18-.47.46-.59.3-.46.86-.48,1.37-.43.35-.47.86-.52,1.35-.42.41-.13.99-.34,1.46,0,0,0,0,0,0-.72,1.31-.55,2.73-.49,4.13-.55.3-.57.82-.57,1.36,0,.45.04.9.06,1.35-.36.2-.36.41,0,.61-.1.12-.09.24.02.35-.15.3-.31.61-.46.91-.66.89-.44,1.88-.33,2.87-.03.13-.06.26-.08.39-.29.28-.4.62-.43,1.02-.11,1.51-.22,3.02-.02,4.52-.17,1.27-.14,2.53.41,3.72,0,0,0,0,0,0-.04.61.32,1.2.05,1.81-.47.17-.94.34-1.41.52-.42-.04-.85-.09-1.27-.13-.09-.24-.28-.31-.52-.3.16.1.33.2.49.29,0,0,0,0,0,0-.17-.08-.33-.18-.48-.29l-.09-.16h-.18c-.25-.27-.48-.32-.66.07-1.2.31-2.52-.32-3.66.48h-.01c-.49.09-1.06-.11-1.43.4-.5.04-1.04-.06-1.38.46-.63.04-1.36-.22-1.78.53h-.01c-.47.17-1.06-.11-1.44.38-.39,0-.71.12-.93.45-.42,0-.78.15-1.06.48,0,0,0,0,0,0l-.16-.06-.1.13c-.4-.06-.72.08-.94.42-1.08-.09-1.63.76-2.35,1.3-.74-.09-1.2.23-1.41.92-.58.21-1.3-.04-1.77.53-.31,0-.5.17-.63.43h0l-.18-.02-.1.15c-.27-.03-.42.11-.49.36-.51.08-.88.31-.99.85-.24.07-.39.22-.46.46-.66.04-.93.59-1.28,1.03-.52.07-.47.5-.54.85-.34.08-.63.23-.8.55h-.02c-.3,0-.45.15-.45.45h0c-.35.17-.48.49-.58.83-.8.17-.69.89-.83,1.46-.27.05-.43.18-.45.47-.51.3-.86.72-1.03,1.28-.27.09-.39.27-.34.56l-.12.09.05.14c-.16.36-.32.72-.49,1.07-.27.07-.44.21-.41.51-.36.37-.39.88-.52,1.34-.41.38-.19.96-.43,1.39-.26.05-.44.18-.47.47-.54.33-.37.9-.45,1.39-.43.19-.45.56-.39.96l-.13.12.05.17c-.33.29-.41.67-.42,1.08-.52.34-.47.86-.46,1.38-.62.68-.35,1.54-.45,2.33l-.11.11.07.14c-.38.48-.35,1.04-.37,1.6l-.02.02c-.46.28-.55.59-.13.95,0,.26-.02.52-.03.78,0,0,0,0,0,0,0,0,.01,0,.02-.01-.56.76-.41,1.61-.31,2.46.07.62-.3,1.33.38,1.81-.06.12-.07.25-.01.37-.49.49-.42.95.1,1.38l.02.03c.08.4.41.51.72.63-.05.14,0,.24.13.31-.08.55-.08,1.07.43,1.43.02.3.19.44.49.46.31.5.85.47,1.34.54.4.49.95.32,1.46.33h0c.41.73,1.19.34,1.76.58.37.56.93.38,1.45.32l.14.12.18-.05c.23.35.55.55.97.54.38.44.91.45,1.43.46.46.01.91,0,1.37,0h0s0,0,0,0c.87.74,1.73.46,2.58-.07,0,0,0,0,0,0l.12.08.11-.08c.5.16.79-.12,1.05-.48l.2.03.15-.14c.38.04.72-.03.94-.37.78-.11,1.25-.55,1.45-1.29.33-.11.68-.17.91-.48.3,0,.45-.16.51-.43.25-.06.4-.21.47-.45.37-.05.68-.18.74-.62.33-.3.65-.6.98-.9.32.02.47-.14.48-.45,0,0,0,0,0,0,.12-.18.26-.33.46-.44,0,0,0,0,0,0,.44.05.83-.01,1.06-.45l.18.03.11-.15c.15-.13.32-.25.49-.34,0,0,0,0,0,0-.16.11-.33.23-.49.34.28.04.44-.09.51-.34.26-.03.45-.15.5-.41.24-.06.38-.22.47-.45.91.07,1.54-.55,2.28-.91,0,0,0,0,0,.01.39-.03.73-.13.93-.49.38-.04.68-.2.83-.57,1.13-.44,2.26-.89,3.39-1.33,0,0,0,0,0,0l.18.05.12-.14c.38.04.71-.05.96-.37.83.13,1.6-.01,2.31-.46.28-.03.56-.06.83-.09,1.87,0,3.74,0,5.6,0,1.18.25,2.42-.16,3.58.38.12.06.38-.18.58-.29l-.07-.11s0,0,0-.01c.02.04.04.08.06.12l.14.07.13-.08c.25.06.42.23.61.38l.03.02c.52.47,1.15.51,1.8.46l.15.12.19-.05c.25.35.64.38,1.01.47.42.41.94.44,1.48.34.12.04.24.08.36.13.36.56.88.54,1.43.39l.22.04.22-.03c.34.46.78.63,1.34.53.36.38.84.48,1.33.53.09.25.25.39.54.34.34.34.7.27,1.06.02,0,0,0,0,0,0l.18.02c.19.15.37.3.56.46.03.27.14.47.44.51.21.36.57.41.94.46.2.42.6.37.97.39.19.4.53.49.92.46.57.52,1.01,1.18,1.78,1.44.06.27.21.43.51.42.57.51,1.02,1.18,1.8,1.42.06.27.22.41.5.42.07.24.22.4.46.47.01.29.16.45.45.47.47.67,1.08,1.17,1.84,1.49-.08.14-.05.24.1.3.12.17.31.3.35.52,0,0,0,0-.01,0-.11-.17-.22-.34-.33-.51-.05.28.05.46.32.54.04.26.19.44.44.52.49.71.63,1.68,1.51,2.11l.03.03c.13.43.48.48.84.51.11.21.22.43.33.64.03.1.07.19.14.28-.01.96.82,1.3,1.37,1.84.01.27.12.46.39.54.07.28.26.47.51.6-.04-.3-.19-.52-.48-.62,0,0,0,0,0,0,.3.09.46.3.48.62-.17.24-.17.47.05.68-.07.31.07.49.34.58.06.25.21.4.45.47.08.36.19.68.6.79h0c.03.28.2.41.46.45h.01c.13.24.26.47.39.7,0,0,0,0,0,0,0,0,0,0,0,0l-.04.15.14.08c.06.53.49.45.83.51.11.33.04.75.51.87h0s0,0,0,0c.26.53.85.37,1.25.6.12.93.85.77,1.47.83l.06-.08h0s0,0,0,0c0,0,0,0,.01,0-.02.03-.05.05-.07.08.65.49,1.31.68,1.99.07l-.12-.14s0,0,0,0c0-.01.02-.02.03-.03.03.06.06.11.1.17,1.11.17,2.19-.16,3.29-.25.11,0,.21-.19.32-.29-.02-.02-.05-.05-.07-.07,0,0,0,0,.01,0h0s0,0,0,0l.05.07c.56-.02.83-.36.98-.84.48-.1,1.12.24,1.35-.51,0,0,0,0,0-.02,0,0,0,0,0,0,.08-.21.25-.35.41-.49,0,0,0,0,0,0,.26-.01.47-.09.57-.35.26-.05.4-.22.46-.48.25-.06.41-.21.44-.48.26-.09.35-.29.34-.55-.11.17-.23.35-.34.52,0,0-.01,0-.02,0,.05-.22.24-.35.36-.53l.02-.03c.46-.31.52-.79.58-1.28.47-.39.25-.96.37-1.44.88-.7,1.05-1.66,1.01-2.7.12-.18.25-.35.37-.53.7-1.19.41-2.49.41-3.75.03-.14.04-.29.01-.43l-.05-.04s0,0,0,0c.01.02.03.03.04.05.35-.23.53-.56.42-.96-.12-.46,0-.88.07-1.32l.07.05c.27-.16.38-.41.42-.71.1-.87.1-1.74-.09-2.6.1-.13.1-.26,0-.4.11-.28.03-.48-.27-.58l-.07.06c.06-.14.05-.29-.03-.42l.07.06c.79-.97.53-1.93-.04-2.88l-.07.05c.02-.51.19-1.08-.46-1.37h0c.01-.15,0-.28-.06-.41-.04-.81.38-1.68-.32-2.41-.17-.14-.35-.28-.52-.43-.14-.47,0-1.03-.4-1.43,0-.52-.08-1-.52-1.34.03-.28-.08-.48-.34-.57-.2-.43-.17-.95-.57-1.29-.13-.7-.53-1.26-.95-1.81h0c-.15-.16-.31-.31-.44-.48h0c.15.16.29.32.44.48.02-.31-.13-.47-.43-.48-.08-.26-.28-.36-.52-.4l-.03.03s0,0,0,0c0,0,0,0,0,0,.01,0,.03-.02.04-.03-.21-.46.13-1.07-.39-1.44.01-.29-.13-.45-.4-.52-.04-.26-.17-.43-.43-.49-.08-.28-.27-.46-.53-.59.04.31.2.53.5.62,0,0,0,0,0,0,0,0,0,0,0,0,.03.15.1.27.2.36-.11-.08-.18-.2-.2-.36-.33-.07-.48-.29-.5-.63l.04-.12-.1-.08c-.16-.15-.33-.29-.41-.51,0,0,0,0,.01,0,.13.17.26.33.4.5.05-.32-.12-.46-.39-.52-.04-.25-.16-.43-.42-.5-.05-.26-.21-.41-.46-.48-.38-1.18-1.25-1.84-2.38-2.22-.05-.36-.04-.75-.51-.86l-.02-.02c-.15-.38-.43-.56-.83-.55-.42-.37-.77-.87-1.44-.84l-.1-.13-.16.05c-.14-.34-.3-.67-.69-.8l-.03-.03c-.12-.45-.45-.53-.85-.51-.31-.43-.77-.52-1.26-.57,0-.23-.01-.46-.02-.69.25-.06.38-.22.42-.48.26-.07.36-.26.33-.53-.11.17-.22.34-.34.5,0,0,0,0-.01,0,.05-.22.23-.34.35-.51l.14-.1-.04-.17c.36-.28.38-.69.44-1.09.25-.06.43-.19.44-.48.41-.15.45-.52.52-.88.45-.15.47-.52.46-.91.23-.1.36-.27.37-.54-.12.17-.25.34-.37.51,0,0,0,0,0-.01h0s0,0,0,0h0s0,0-.01,0c.07-.21.24-.35.38-.5h0c.54-.31.36-.89.51-1.35.41-.18.43-.55.47-.92.47-.25.51-.69.43-1.13-.1-.5.13-.86.38-1.23l.04-.03c.61-.24.56-.77.56-1.28.02-.03.04-.06.05-.08.31-.53.35-1.13.44-1.72.24-.1.34-.28.3-.54l.15-.13-.04-.19c.38-.42.49-.93.48-1.47.32-.25.35-.61.36-.99.01-.43.09-.86.13-1.29.43-.21.4-.6.38-.99.49-.33.58-.81.52-1.35.37-.41.4-.92.4-1.44l.12-.12-.07-.15c.42-.42.65-.9.48-1.5.4-.41.29-1,.52-1.46l-.14.13-.17-.1s.03-.06.05-.09c.09.02.17.03.26.05.29-.18.36-.45.33-.77-.04-.53-.05-1.05-.08-1.58.13-.54.15-1.07-.48-1.31-.38-.15-.71-.03-.92.34-.28.04-.44.19-.48.47-.26.09-.36.29-.37.55-.4.18-.51.53-.52.92-.02.44,0,.89,0,1.34-.24.09-.39.25-.36.53v.02c-.42.37-.43.86-.46,1.36-.04.12-.07.25-.11.37,0,0,0,0,0-.01-.43.42-.45.94-.38,1.48-.13.11-.16.24-.1.39-.47.36-.22.96-.43,1.4-.38,0-.71.1-.83.52-.14.01-.27.02-.4.04-.79-.01-1.59-.04-2.38-.04-.38,0-.71.12-.91.47h0s0,0,0,0l.04.08c-.28-.07-.47.03-.59.28,0,0,0,0,0,0-.1.02-.2.02-.3,0-.25-.35-.62-.37-1-.37-.45,0-.9-.05-1.35-.09-.17-.19-.34-.21-.52-.02h0c-.15.05-.3.1-.45.16l.04-.08c-.36-.46-.88-.51-1.4-.5-.81.02-1.61.09-2.42.14-.25-.03-.49-.07-.74-.1-.68-.68-1.53-.5-2.35-.47-.22-.33-.55-.46-.93-.45-.54-.43-1.13-.65-1.83-.48-.26-.28-.55-.47-.95-.41l-.1-.13-.16.05c-.71-.64-1.61-.33-2.42-.51-.07-.25-.22-.4-.49-.42-.21-.42-.57-.46-.98-.39l-.11-.12-.15.06c-.31-.31-.7-.41-1.13-.39h0c-.35-.41-.81-.55-1.33-.53-.39-.36-.91-.35-1.39-.45-.23-.35-.57-.44-.96-.38-.1-.13-.21-.16-.36-.07,0,0,0,0,0,0-.96-.45-1.91-.9-2.87-1.34-.28-.38-.67-.5-1.12-.48-.42.02-.85.05-1.27.08-1.83-1.88-3.58-3.82-5.04-6q.09-.85.87-.9c.23.31.53.49.91.52.09.24.25.37.5.42.07.27.24.4.53.35l.1.14.16-.04c.13.01.24.05.34.12-.1-.06-.21-.1-.34-.12.12.26.31.44.6.47.21.45.64.3.99.36h.01c.06.25.17.43.45.44l.03.02c.17.37.47.53.87.49.38.38.86.46,1.36.49.19.41.58.4.95.43h0c.31.59.88.42,1.38.46h0c.31.6.83.54,1.37.43l.17.12.2-.05c.27.31.63.4,1.02.38.07.16.2.22.37.18.55.69,1.27.35,1.94.31h.02c.33.53.82.56,1.36.48h0c.13.06.26.11.39.14,1.19.41,2.42.5,3.67.43.39.5,1,.14,1.46.36.18.13.36.36.54.36,2.26.11,4.52.26,6.77-.01.12-.01.23-.13.34-.24,0,0,0,0,0,0,0,0,0,0,0,0,.05-.05.1-.11.15-.15.18.06.32,0,.31-.19-.01-.17-.17-.23-.34-.17-.87-.41-1.71-.9-2.7-.98-.07-.17-.19-.21-.36-.13,0,0,0,0,0,0-.58-.52-1.29-.26-1.95-.32h-.01c-.09-.05-.19-.09-.28-.12-1.23-.5-2.54-.29-3.82-.39-1.01-.58-2.14-.39-3.22-.46-.55-.67-1.11-.33-1.67,0,0,0,0,0,0,0l.04-.02c-.12,0-.22-.04-.31-.08.09.04.2.07.31.08-.15-.27-.36-.43-.67-.44-.5-.67-1.25-.26-1.87-.42-.08-.09-.18-.14-.28-.17-.47-.23-1.03-.21-1.51-.42h0s0,0,0,0h0s0,.02.01.03c-1.03-.57-2.1-1.06-3.27-1.3-.21-.31-.5-.5-.88-.53-.2-.38-.58-.39-.95-.44-.17-.44-.56-.43-.94-.45-.07-.24-.21-.4-.5-.34h0c-.12-.04-.25-.09-.37-.13-.1-.24-.28-.37-.54-.4-.12-.43-.47-.51-.83-.56-.08-.24-.25-.39-.52-.4-.17-.4-.54-.44-.9-.48-.07-.24-.2-.42-.46-.47-.13-.42-.5-.47-.84-.55-.12-.5-.41-.81-.94-.88-.11-.25-.3-.36-.57-.31l-.1-.14-.17.04c-.13-.27-.35-.39-.63-.42-.06-.25-.21-.41-.48-.44-.04-.27-.2-.42-.47-.46-.03-.24-.12-.44-.33-.56.06-.1.06-.2-.02-.3.29-.26.38-.6.34-.98l.11-.08-.04-.13c.61-.77.41-1.68.42-2.55.53-.46.52-1.11.63-1.72.25-.09.43-.23.38-.54.39-.58.35-1.25.34-1.91v-.02c.63-.47.61-1.12.54-1.78.59-.64.49-1.44.52-2.21.23.01.45.03.68.04.16.5.49.78,1.04.78.22.34.54.46.93.45.34.45.88.38,1.34.51.06.26.21.43.5.41.34.51.89.42,1.39.46l.07-.07h0s-.05.05-.07.07c.33.5.66,1,1.38.92.35.39.85.43,1.31.54.08.26.25.39.53.38.44.69,1.09.7,1.78.56.23.27.53.43.88.49.11.25.3.35.58.31h.02c.05.07.1.11.16.14.33.27.73.36,1.15.4.21.33.49.52.89.5.25.3.62.32.97.4.05.27.19.43.5.41-.16-.14-.32-.27-.48-.41,0,0,0,0,0,0,.19.11.32.27.49.41h.01c.35.4.81.54,1.32.54.08.06.17.1.26.12.48.25.95.52,1.54.4.12.22.31.32.56.32h.01c.32.58.88.42,1.37.45h.03c.21.34.48.53.88.48l.1.13.16-.05c.03.16.11.27.25.35.45.79,1.19.43,1.84.46.11.07.24.1.37.1.05.25.21.41.47.45.06.27.23.41.51.4-.16-.13-.33-.27-.49-.4,0,0,0,0,0-.01.2.09.34.26.5.41h0c.39.71,1.16.36,1.72.61.07.25.23.41.5.45h0s0,0,0,0c0,0,0,0,0,0,0,0,0,0,0,0,.8.66,1.68,1.08,2.76.91.1.23.28.34.52.37.05.27.2.42.47.45.05.25.2.39.47.37l.08.15.17-.03c.97.47,1.95.94,2.92,1.4.35.51.9.41,1.4.46.21.34.52.5.92.46.52.47,1.06.9,1.79.98.07.24.22.4.48.43.21.38.56.47.96.42.26.27.56.42.94.45.32.54.86.46,1.37.47.09.23.24.38.48.44.02.28.17.44.44.48.07.27.25.38.52.37-.17-.12-.34-.25-.5-.37,0,0,0,0,0,0,0,0,0,0,0,0-.15-.15-.29-.31-.44-.46,0,0,0,0,0,0,.19.12.35.27.45.47.2.08.33.26.51.38l.03.02c.3.5.77.61,1.3.54,0,0,.01,0,.02,0,.2.08.33.25.49.39h0c0,.28.07.49.35.57.08.28.27.39.56.36h0c.2.32.5.48.86.54.15.42.5.49.88.51.09.23.24.4.51.41.2.42.63.31.97.39.04.26.14.47.46.46.46.29.92.59,1.38.88l.07.13.15-.03c.21,0,.36.08.49.21-.13-.12-.29-.19-.49-.21.14.27.35.43.64.46.08.27.25.4.53.38l.06-.06s0,0,0,0c-.02.02-.04.04-.06.06.53.45,1.12.78,1.79.97.05.27.2.43.49.44.18.4.52.48.91.48.19.35.52.45.89.5.07.24.22.4.48.44.05.28.22.41.51.4-.16-.13-.33-.27-.49-.4,0,0,0,0,0,0,.19.1.33.27.5.4h.02c.32.51.84.48,1.34.51.07.24.22.4.49.43.31.49.69.88,1.29,1,.35.26.69.52,1.04.78l.04.04c.15.37.46.48.82.53.15.4.5.46.85.54.1.53.4.85.96.89.18.41.55.45.93.45.08.22.21.4.45.47.02.27.17.43.43.5.07.26.25.39.52.4.08.25.25.38.52.39-.17-.13-.33-.26-.5-.39,0,0,0,0,0,0h0s0,0,0,0c0,0,0,0,0,0,.2.08.34.26.5.39h.01c.31.5.71.88,1.3,1.01.2.36.57.4.92.47.05.25.16.43.43.49.08.26.27.36.53.39.06.26.2.43.5.4-.16-.13-.32-.27-.49-.4,0,0,0,0,0,0,.19.1.33.27.49.41h.02c.2.32.48.49.83.56.06.26.24.38.5.42.05.26.16.45.45.47.06.27.26.37.51.41-.16-.13-.33-.27-.49-.4,0,0,0,0,0,0h0s0,0,0,0c0,0,0,0,0-.01,0,0,0,0,0,0-.15-.15-.3-.3-.44-.46,0,0,0,0,0,0h0s0,0,0,0c.19.12.34.27.45.47.2.1.33.27.49.41h0c.12.45.48.5.85.55.07.25.22.4.49.43.06.27.2.43.5.41l.07-.07h0s-.05.05-.07.07c.2.36.52.46.9.48.07.25.24.37.48.42-.16-.14-.32-.28-.48-.42.17.13.31.29.48.42v.02c.15.17.32.3.41.5,0,0,0,0,0,0-.13-.17-.26-.33-.4-.5.02.26.11.48.41.52.49.6.98,1.22,1.78,1.42.09.26.26.39.54.39.17.37.46.55.87.55.28.16.56.33.84.49-.05.15,0,.26.16.32-.03.34.14.45.45.41.13.04.27.07.4.11,0,0,.02,0,.03,0,0,0,0,0,0,0,.21.08.35.24.49.4,0,0,0,0,0,0,.1.52.23,1.02.93.95l.18.12s.12-.02.18-.03c.1.24.27.38.55.36.93.75,1.88.64,2.83.07,0,0,0,0,0,0,.3,0,.46-.18.52-.44.47-.17.85-.42.86-.99.4-.4.52-.88.4-1.43.03-.14.05-.27.08-.41.61-1.01.55-2.13.48-3.24.49-.69.24-1.53.44-2.27.4-.44.35-1,.36-1.52.02-2.28,0-4.57,0-6.85-.02-1.89-.05-3.78.09-5.67.07-.89.09-1.82-.54-2.59v-.02c.02-.6.06-1.21.09-1.81.51-1.49.55-3.1.12-4.52-.02-.06-.11-.1-.17-.15-.16-.33-.19-.65-.12-1.02.08-.41.06-.83.08-1.25.19-1.74,0-3.48-.14-5.21-.01-.13-.17-.24-.25-.37-.06-.23-.17-.43-.41-.51-.03-.27-.05-.55-.08-.82.28-.17.29-.33-.02-.48-.02-.64.16-1.34-.48-1.81v-.02c-.03-1.1.32-2.25-.35-3.28,0-1.04-.6-1.84-1.01-2.72,0,0,0,0,0,0-.05-.5.2-1.09-.43-1.41-.02-.3-.17-.51-.44-.65h0s.05-.15.05-.15l-.13-.09c.06-.56.16-1.13-.38-1.55l.06-.16-.12-.13c.08-.53.08-1.03-.48-1.32l-.04-.04c-.01-.25-.15-.42-.38-.5,0-.38-.05-.73-.39-.96.1-.68.08-1.32-.52-1.8-.03-.37-.04-.75-.41-.97,0-.28-.17-.43-.41-.51-.03-1.13-.89-1.83-1.39-2.73,0,0,0,0,0,0-.04-.39-.13-.74-.56-.87-.03-.26-.16-.43-.41-.51-.02-.37-.11-.71-.46-.92-.01-.29-.16-.49-.41-.65-.36-.22-.7-.45-1.05-.67.08-.7-.03-1.28-.8-1.5-.07-.24-.24-.38-.48-.45-.06-.36-.14-.7-.56-.82-.13-.44-.51-.46-.87-.53-.16-.33-.32-.65-.48-.98,0,0,0,0,0,0l.07-.1-.07-.09c.28-.29.43-.64.43-1.04.49-.31.46-.83.54-1.31.25-.1.38-.27.34-.55h0s0-.02,0-.02c.32-.59.64-1.18.97-1.77h0c.26-.09.36-.29.4-.54l-.05-.05s0,0,0-.01c.02.02.03.04.05.06.55-.25.97-.62,1.04-1.26.32-.13.67-.2.84-.55.31,0,.45-.16.42-.47l.14-.09-.04-.16c.04-.31.18-.52.48-.59,0,0,0,0,0,0-.28.09-.44.29-.48.59.17-.19.33-.38.5-.56.31-.05.46-.21.4-.54.31-.3.62-.6.93-.91.6,0,.89-.34.98-.91.43-.48.86-.96,1.29-1.44-.03-.03-.05-.05-.08-.08h0s.08.08.08.08c.53-.12.48-.52.46-.92.82-.59,1.56-1.25,1.89-2.25.25-.07.41-.22.46-.48.27-.05.44-.2.41-.5.29-.21.48-.49.57-.84.26-.09.34-.3.33-.56h0c.31-.2.56-.44.56-.84.25-.09.33-.29.31-.54.17-.04.24-.15.21-.32.24-.08.41-.23.44-.49.39-.2.4-.58.44-.95.25-.06.42-.2.44-.47.4-.23.35-.63.35-1v-.02c.42-.38.97-.67.93-1.36l.13-.1-.06-.15c.27-.14.42-.36.39-.67h0c.41-.38.94-.68.97-1.34.47-.38.34-.93.41-1.43h0c.52-.31.88-.72.97-1.33.33-.24.38-.6.41-.97.39-.18.51-.5.48-.9.33-.22.42-.56.45-.93.61-.3.36-.9.48-1.37.27-.05.43-.19.41-.49-.14.16-.28.32-.42.48,0,0,0,0,0,0,.11-.18.28-.32.42-.48h0c.31-.22.58-.46.52-.89.34-.58.39-1.22.39-1.87l.13-.12-.05-.17c.25-.11.43-.29.49-.56.28-.06.42-.23.38-.54.51-.99.88-2.03,1.03-3.13.31-.25.41-.59.42-.96.48-.33.52-.84.5-1.36.28-.27.38-.61.36-.98.46-.37.46-.88.44-1.4h0c.49-.35.52-.85.42-1.38l.14-.11-.05-.17c.46-.6.37-1.32.44-2,.13-.17.27-.34.4-.51.36-.23.45-.59.46-.98.01-.75,0-1.51,0-2.26.05-.13.07-.26.07-.39h0c.58-1.38.69-2.8.32-4.25.4-.92.04-1.85.03-2.77.44-.28.55-.73.5-1.19-.12-1.14.03-2.26.06-3.39.03-1.58-.04-3.16-.07-4.74,0-.32-.16-.57-.44-.74-.15-.35-.12-.69-.01-1.05.1-.35.05-.69-.31-.89-.13-.72-.17-1.45-.06-2.18.65-.79.6-1.59.01-2.4-.15-.2-.3-.41-.46-.61l-.02-.02c.53-.82.53-.91-.04-1.64.05-.15.04-.29-.04-.43,0-.69,0-1.37,0-2.05,0-.32-.14-.58-.44-.73-.14-.2-.28-.39-.42-.59,0,0,0,0,0,0v-.18c.53-.74.53-.85-.01-1.56-.03-.65,0-1.32-.38-1.89-.16-.6-.04-1.29-.56-1.78,0-.29-.16-.43-.41-.5-.02-.44-.06-.88-.03-1.31.03-.54,0-1.05-.49-1.4h0c0-.39-.08-.74-.4-1-.21-.66-.62-1.26-.53-2.03.03-.22-.23-.48-.37-.72-.25-.64-.23-1.43-.96-1.82-.07-.49.2-1.1-.44-1.4-.04-.26-.2-.42-.44-.49-.1-.52-.16-1.06-.49-1.51,0,0,0,0,0,0l.06-.15-.13-.1c.04-.4-.02-.75-.4-.96,0-.29-.16-.43-.42-.49-.07-.35-.13-.71-.49-.9-.31-.99-.69-1.95-1.41-2.72,0-.28-.15-.45-.41-.52-.04-.26-.17-.43-.43-.5-.07-.25-.24-.37-.48-.42-.05-.75.1-1.59-.87-1.91-.09-.34-.22-.65-.59-.79,0-.3-.19-.42-.46-.46-.08-.36.01-.78-.4-1.01-.42-.68-.82-1.38-1.27-2.04-.1-.14-.38-.16-.59-.22-.15-.3-.3-.61-.45-.91.04-.42-.08-.75-.5-.92-.45-.89-1.64-1.2-1.83-2.29,0,0,0,0,0,0,.02-.31-.12-.48-.41-.54-.08-.25-.28-.35-.52-.41-.05-.36-.08-.72-.43-.94,0-.29-.17-.44-.43-.5-.06-.25-.21-.4-.46-.46-.06-.24-.22-.38-.45-.45,0-1.34-1.1-1.91-1.89-2.71-.01-.38-.03-.76-.47-.92-.05-.36-.05-.75-.46-.93-.03-.29-.24-.39-.49-.44-.04-.25-.17-.42-.41-.5-.04-.37-.12-.71-.53-.86-.41-1.18-1.05-2.25-1.77-3.27.18-.59.07-1.06-.51-1.37-.24-.58.1-1.32-.51-1.79h0c.02-.29-.1-.47-.35-.56-.05-.42-.1-.85-.15-1.27.14-.42-.1-.72-.33-1.02h0c-.03-.78.03-1.58-.54-2.23-.12-.18-.23-.36-.35-.54,0-.52-.08-1-.52-1.35-.03-.55-.06-1.1-.07-1.65,0-.28-.09-.52-.31-.7.05-.15.01-.29-.1-.4.22-.98-.09-1.88-.37-2.79-.04-2.28-.07-4.57-.11-6.85.03,0,.06-.04.09-.11.23-.26.34-.58.34-.92,0-1.06-.02-2.12-.03-3.18.09-.13.11-.26.05-.41h0s0,0,0,0h0c.13-.26.34-.51.36-.78.11-1.24.16-2.49.23-3.74.48-.4.37-.93.29-1.46.15-.09.18-.21.08-.35.44-.7.54-1.41.01-2.12t0,0v-.13c.16-.04.27-.13.34-.27.39-.18.55-.5.53-.91-.02-.6-.04-1.2-.07-1.8.05-.27.11-.54.16-.81.24-.16.29-.4.29-.68,0-.4.06-.81.09-1.21.76-.82.39-1.83.45-2.77.37-.2.5-.52.46-.92.39-.37.3-.92.48-1.37.31-.15.65-.26.93-.46.54-.39.57-.73.11-1.23-.12-.13-.33-.18-.52-.25.01-.26.02-.51.03-.77.5-.36.48-.88.42-1.41.39-.4.4-.91.43-1.43.03-.43.05-.86.08-1.29.24-.09.38-.26.36-.53.64-.51.29-1.25.43-1.88l.12-.1-.06-.14c.31-.29.52-.63.49-1.08.39-.56.47-1.21.48-1.87.35-.19.69-.51.64-.87-.12-.82.34-1.45.53-2.17.31-1.23,1.3-2.25,1.07-3.65-.05-.3.24-.75.5-1,.84-.79.97-1.89,1.26-2.89.15-.51.28-1.01.54-1.47.74-1.33,1.4-2.7,1.84-4.18.24-.8.58-1.61,1.05-2.29.5-.73.32-1.6.75-2.33,1.87-3.13,3.11-6.55,4.72-9.8.53-1.07,1.05-2.18,1.64-3.19,1.27-2.17,2.22-4.48,3.38-6.69.5-.33.58-.81.47-1.36.55-.48.66-1.15.86-1.8.21-.72.33-1.54.76-2.11.92-1.23,1.43-2.62,1.99-4,.61-.31.62-.82.45-1.38.04-.12.08-.25.1-.38.27-.1.38-.29.32-.57t0,0s0,0,0,0c1.46-3.09,2.95-6.17,4.38-9.28.35-.76.55-1.59.74-2.41.1-.43.17-1.03-.26-1.28Zm-7.46,12.82c-1.02.74-1.21,1.91-1.62,2.95-.5,1.27-.88,2.58-1.27,3.89-.11.38-.21.74-.55.96-.43.27-.65.61-.57,1.14.03.2-.03.5-.17.63-1.03.98-1.33,2.33-1.91,3.54-.59,1.22-1.18,2.44-1.78,3.66-.63,1.29-1.44,2.51-1.55,4.01-.01.21-.16.48-.33.58-.94.57-1.23,1.49-1.5,2.47-.12.42-.47.78-.68,1.18-.68,1.27-1.67,2.41-1.69,3.95,0,.61-.55.87-.78,1.34-1.28,2.66-2.44,5.38-3.38,8.17-.58,1.72-1.56,3.24-2.08,4.99-.52,1.74-1.3,3.39-1.97,5.08-.45.44-.9.88-1.35,1.32-.29,0-.57,0-.86,0-.19-.4-.52-.48-.92-.39-.93-.15-1.86-.3-2.79-.45-.26-.11-.51-.31-.78-.33-1.24-.09-2.49-.13-3.74-.18-.59-.16-1.16-.42-1.76-.46-1.55-.1-2.91-.81-4.31-1.31-2.46-.88-4.86-1.94-7.24-3.06-1.18-.55-2.13-1.39-3.28-1.94-.88-.41-1.48-1.27-2.48-1.51-.21-.05-.46-.2-.55-.37-.88-1.78-2.82-2.47-4-3.94-.09-.12-.28-.17-.34-.3-.86-1.86-2.58-2.98-3.89-4.44-.81-.91-1.56-1.86-2.22-2.88,0-.47-.01-.94-.02-1.41h.01c.67.09.9-.3.97-.88,1.08-.97,2.19-1.9,3.23-2.91,2.34-2.29,4.78-4.48,7.35-6.52.77-.61,1.74-.97,2.33-1.81.54-.75,1.77-.61,2.08-1.65,1.74-.49,2.92-1.94,4.55-2.63.21-.09.43-.18.61-.32,2.35-1.78,4.95-3.16,7.42-4.73,1.09-.7,2.02-1.61,3.4-1.77.26-.03.49-.35.74-.53.31-.22.6-.52.94-.63,2.87-.9,5.44-2.41,8.04-3.84.67-.37,1.36-.67,2.09-.95,2.06-.79,4.08-1.7,6.11-2.56.51.03,1,0,1.36-.45.13-.04.25-.08.38-.11.54.1,1.03,0,1.4-.44.32-.19.62-.5.97-.56,2.13-.35,4.08-1.16,5.97-2.15.2-.11.4-.26.61-.31,1.87-.45,3.51-1.48,5.32-2.07.35.12.74.15.97.51h0c-.51.36-.46.89-.43,1.41h0c-.16.26-.41.5-.46.79-.36,1.75-1.56,3.09-2.26,4.67-.34.76-.88,1.42-.82,2.33.04.47-.15.95-.53,1.22Zm-22.12,57.86s0,0,0,0c0-.06.01-.11.03-.16-.02.05-.03.1-.03.16Zm-2.9,188.43s0,0,0,0c0,0,0,0,0,0-.07-.09-.14-.19-.21-.28.08.09.16.18.22.29.2.11.35.27.48.45,0,0,0,0,0,0-.16-.15-.32-.3-.48-.44Zm.4-11.19h0s0,0,0,0c.08-.01.14-.03.2-.06-.06.03-.12.05-.2.06-.02.16-.1.28-.21.36.11-.08.18-.2.2-.36Zm8.37-9.6s0,0,0,0c-.13.18-.29.33-.44.48h0c.15-.16.29-.32.44-.48Zm-14.75-173.88c.91.11,1.83.17,2.74.26.75.51,1.57.45,2.41.3.72.03,1.45.07,2.17.1.43.89.06,1.82.13,2.73-.15.07-.19.18-.1.32,0,0,0,0,0,0-.48.42-.55.95-.41,1.53-.06.05-.1.1-.13.16-.28.34-.4.73-.37,1.19-.36.2-.31.63-.51.92-.56.27-.37.85-.53,1.28h0c-.06.14-.14.27-.18.41-.34,1.1-.34,1.11-1.3,1.16-.38.02-.76-.02-1.14-.03-.14-.07-.29-.08-.43-.02-.05-.05-.1-.09-.15-.13-.36-.25-.81-.23-1.23-.3-.21-.25-.45-.25-.71-.1,0,0,0,0,0,0-.42-.52-1-.45-1.57-.44-.19-.4-.53-.5-.93-.44-.04-.04-.08-.07-.12-.09-.49-.37-1.08-.39-1.66-.47-.37-.43-.9-.38-1.4-.44-.49-.56-1.17-.46-1.81-.51-.22-.34-.55-.45-.94-.43-.38-.41-.85-.55-1.4-.45-.28-.25-.62-.34-1-.34h0c-.34-.46-.78-.63-1.33-.52-.05-.03-.1-.06-.16-.08-.25-.13-.5-.27-.75-.4-.37-.53-.88-.53-1.43-.38-.13-.06-.27-.08-.41-.07-.18-.44-.54-.47-.95-.42-.24-.29-.54-.46-.92-.46-.22-.36-.55-.45-.94-.4l-.14-.14-.19.06c-.18-.09-.37-.13-.57-.18-.17-.05-.34-.11-.51-.16l-.05-.04c-.27-.59-.81-.47-1.3-.51-.06-.25-.19-.42-.47-.46-.14-.47-.51-.51-.91-.5-.87-.93-1.87-1.75-2.93-2.4-1.51-.92-2.76-2.11-3.99-3.3-1.58-1.52-3.01-3.2-4.2-5.07-.34-.53-.52-1.09-.66-1.69-.25-1.02-.51-2.04-.77-3.05-.54-.37-.29-.97-.43-1.45,0-1.72,0-3.44,0-5.15.12-.57.57-.88,1.03-1.3,1.58,1.92,3.14,3.81,4.69,5.7.1.12.16.29.28.36,2.02,1.27,3.16,3.44,5.06,4.85,1.8,1.33,3.51,2.78,5.31,4.11,1.04.77,2.22,1.28,3.44,1.76,1.17.46,2.24,1.17,3.51,1.53,1.61.45,3.13,1.17,4.7,1.77,2.13.83,4.3,1.56,6.59,1.83Zm-19.76,15.31s0,0,0,0c-.14-.06-.25-.16-.36-.25.12.08.25.16.37.25,0,0,0,0-.01,0Zm4.59,1.9s0,0,0,0c.16.13.32.26.48.39,0,0,0,0,0,0,0,0,0,.01.01.02-.2-.09-.35-.25-.49-.41Zm-6.57-13.24s0,0,0,0c.16,0,.27.07.35.16-.09-.09-.2-.15-.35-.16Zm1.46.87s0,0,0-.01c.2.1.34.25.48.41,0,0,0,0,0,0-.16-.13-.32-.27-.48-.4,0,0,0,0,0,0Zm-17.08-9.53c-.79-1.25-.97-2.64-.88-4.07.09-1.48.02-2.99.48-4.43.03-.02.05-.04.08-.07.29-.28.23-.9.84-.87h0c0,.47.02.94.02,1.4-.07.15-.05.28.04.41-.08.29.03.48.31.58l.21,1.2c.55.18.53.57.36,1.03l.11.13-.08.15h0c.32.26.49.59.52.99.24.11.33.31.29.57l.13.08-.03.15s0,0,0,0c.25.15.4.37.46.65.48.13.48.52.47.9.24.09.35.28.38.53h0c.26.04.43.17.5.42.28.02.48.12.48.44.34.22.38.58.45.93.25.04.43.17.48.43.26.05.4.22.46.47.69.21,1.19.62,1.45,1.29.35.09.66.23.77.62h.01c.34.07.69.11.85.48l.05.04c.43.16.66.53.91.87l.03.02c.6.08.67.9,1.31.92,0,.07.03.13.05.19.02.08.03.15.06.23.28.03.57.07.85.1.61.46.99,1.24,1.86,1.34.32.45.86.38,1.3.56.07.26.23.41.51.42.22.36.59.38.95.42.08.25.22.41.51.41.19.4.55.45.93.45.35.49.86.49,1.39.45h0c.22.31.5.51.91.45l.11.13.17-.05h0c.53.58,1.31.7,2,.91.64.19,1.29.2,1.83.73.22.22.7.17,1.06.24.36.08.87.03,1.05.25.68.83,1.58.68,2.45.7.06.25.18.44.48.42.26.3.62.31.99.31l.09.15.17-.03s0,0,0,0c.46.42,1.01.49,1.6.4h0c.35.44.82.56,1.36.48.32.39.77.45,1.21.36.4-.08.69.13,1.04.19.15.24.38.32.67.32.41,0,.82.05,1.22.08.52.62,1.25.2,1.86.37l.14.14.19-.05s0,0,0,0c.5.26,1.04.48,1.39.96-.1.14-.08.27.05.38l-.07.11.08.1s0,0,0,0c-.37.31-.45.72-.4,1.17l-.11.09.05.13s0,0,0,0c-.38.32-.42.78-.51,1.22-.12.59-.28,1.17-.42,1.75-.48.35-.38.89-.43,1.38h-.01c-1.13.02-2.26.03-3.38.05-.44,0-.92-.06-1.21.41-.3.03-.6.05-.9.08.09.04.19.09.28.13-.09-.03-.19-.07-.28-.13l.05-.11c-.24-.46-.63-.4-1.03-.3-.12-.05-.24-.08-.37-.11-.88-.56-1.85-.45-2.82-.4-.14,0-.27-.03-.41-.06-.56-.52-1.21-.56-1.91-.38-.14-.07-.28-.08-.42-.04l.06-.11h0s0,0,0,0c-.08-.3-.28-.38-.57-.31h0c-.44-.17-.89-.16-1.34-.06-.36-.43-.81-.61-1.36-.49-.47-.64-1.17-.44-1.8-.5-.08-.25-.22-.41-.51-.4-.44-.67-1.17-.4-1.78-.54-.07-.26-.21-.43-.52-.38-.73-.37-1.34-1.03-2.25-.98-.11-.23-.29-.34-.54-.35l-.03-.02c-.37-.72-1.15-.3-1.68-.59-.1-.52-.4-.84-.93-.93-.08-.25-.25-.4-.52-.42-.34-.54-.93-.3-1.4-.42-.07-.24-.22-.38-.49-.35l-.08-.15-.17.02h0c-.2-.16-.4-.31-.6-.47-.22-.98-.98-1.45-1.79-1.88-.1-.25-.31-.36-.56-.39-.04-.26-.2-.42-.46-.46-.05-.27-.19-.44-.5-.41.16.14.33.27.49.41,0,0,0,0,.01,0h0c.15.15.29.29.44.44h0s0,0,0,0c-.18-.12-.33-.27-.46-.45-.18-.12-.32-.29-.5-.41h-.02c-.05-.1-.13-.15-.22-.19-.18-.14-.35-.29-.53-.43-.11-.54-.49-.79-1.01-.87-.32-.71-.73-1.35-1.37-1.82-.04-.26-.17-.44-.43-.51-.06-.37-.29-.62-.52-.89-.28-.33-.55-.68-.57-1.15-.08-.02-.15-.05-.23-.08-.06-.02-.11-.05-.17-.08,0,0,0,0,0,0-.02-.21-.05-.42-.07-.63,0-.06-.01-.13-.02-.19-.02,0-.04-.01-.07-.01-.1-.02-.21-.04-.31-.07l.05-.46-.14-.08.03-.16s0,0,0,0c-.38-.49-.86-.93-.9-1.62l-.1-.12.09-.13s0,0,0,0c-1.11-.88-1.23-2.15-1.32-3.43l-.12-.1.06-.14s0,0,0,0Zm45.17,15.17s.08-.06.14-.09c0,0,0,0,0,0-.05.03-.1.06-.14.09Zm-78.75,67.53s0,0,0,0c-.17-.13-.32-.27-.42-.46h0s0,0,0,0c0,0,0,0,0,0,.14.16.28.31.43.47,0,0,0,0,0,0Zm6.05-51.09s0,0-.01,0c.06-.15.17-.26.26-.38-.08.12-.17.25-.25.37Zm7.83-15.66s0,0-.01,0c.08-.21.26-.35.4-.51h0c-.13.17-.26.34-.39.5Zm-5.5,72.2s0,0,0,0c-.14-.01-.25-.06-.33-.15.08.08.19.13.33.15Zm.32,2.48s0,0,.01,0c0,0,0,0,0,0,.14.06.25.17.36.26-.12-.09-.25-.17-.37-.26Zm26.8,9.11s0,0,0,0c0,0,0,0,0,0,.14.16.28.32.43.48,0,0,0,0,0,0-.16-.15-.33-.29-.44-.49-.19-.11-.34-.27-.48-.44,0,0,0,0,0,0,.16.14.31.29.47.43Zm3.68,3.23c-.18-.11-.33-.26-.45-.45,0,0,0,0,0,0,.15.15.3.29.44.44,0,0,0,0,0,0Zm3.01,9.09c.05.06.1.12.15.19,0,0,0,0,0,0-.05-.06-.1-.13-.15-.19Zm-15.48,45.34h0c.15-.15.29-.31.48-.42,0,0,0,0,0,0h0s0,0,.01,0c-.16.14-.33.28-.49.42,0,0,0,0,0,0Zm11.47-18.47s0,0,0,0c-.11.19-.27.34-.44.48h0c.15-.16.29-.32.44-.48Zm-5.14,7.76s0,0,0,0c-.01.2-.1.33-.24.41.14-.09.22-.22.24-.41Zm-5.01,6.53s0,0,0,0c-.1.19-.27.33-.42.48,0,0,0,0,0,0,0,0,0,0,0,0,.14-.16.28-.32.41-.48Zm-12.39,7.86h0c-.15.15-.3.31-.48.42,0,0,0,0,0,0,.16-.14.32-.28.48-.42Zm-7.37,5.06c.61-.19,1.39.36,1.84-.45h0c.44-.04.87-.09,1.26-.31.06-.02.11-.06.17-.1.43.03.81-.11,1.14-.36.07-.03.14-.08.2-.15h0c.3.05.46-.1.55-.36.36-.06.7-.15.91-.49l.39-.11h0c.65-.03,1.35.2,1.89-.35.4.01.74-.08.93-.46.37-.02.73-.08.97-.41.39-.03.64-.25.83-.58.38,0,.74-.06.98-.39.41.03.71-.12.88-.51.3-.02.53-.15.68-.42l.12.05.09-.1c.66,0,1.03-.51,1.49-.85,0,0,0,0,0,0,.12-.06.24-.11.36-.17.27.03.41-.12.48-.36,1.04-.27,1.6-1.14,2.29-1.85.27-.03.42-.19.51-.43,1.08-.17,1.61-.86,1.76-1.9l.02-.02c.17-.13.33-.27.47-.43h0c.27,0,.47-.09.56-.35.53-.08.82-.4.95-.9.48-.16.82-.44.88-.98.7-.7,1.52-1.29,1.83-2.29.26-.07.37-.26.41-.52.27-.05.44-.19.41-.5v-.02c.29-.21.51-.45.59-.81.27-.07.37-.26.37-.53l-.08-.07s0,0,0,0c.02.02.05.05.07.07.71-.37.82-1.09,1.04-1.75.27-.08.4-.25.36-.55.41-.36.46-.85.51-1.34.62-.29,1.34-.48,1.41-1.35.24-.11.33-.31.33-.57v-.02c.59-.28.28-.91.52-1.32,1.15-.22.89-1.11.89-1.88.09-.1.12-.22.11-.36.23-.07.4-.2.47-.45.27-.06.43-.21.45-.5.49-.36.31-.92.42-1.4.24-.07.4-.22.44-.48.28-.05.39-.22.36-.5l.15-.11-.03-.18c.14-.21.27-.42.41-.63.68-.46.43-1.18.49-1.81.79-.78.81-1.8.89-2.81.61-.47.27-1.22.52-1.8.56-.37.29-.95.36-1.44l.1.06c.1-.1.3-.19.3-.29-.01-1.01.33-2.01.06-3.02.21-2.14.1-4.27.03-6.41.08-.67.3-1.37-.37-1.9-.06-.53-.04-1.09-.49-1.49l.07-.17-.12-.14c.1-.32-.05-.49-.33-.59-.36-.52.11-1.32-.58-1.73-.02-.38-.14-.7-.48-.91,0-.38-.09-.72-.37-.99.02-.31-.14-.46-.43-.5-.1-.24-.31-.33-.54-.38-.07-.39-.12-.79-.44-1.08l.03-.18-.15-.1c.02-.26-.09-.44-.35-.5-.02-.27-.18-.42-.43-.48-.06-.35-.09-.72-.43-.94-.02-.39-.23-.65-.57-.83h0c-.13-.18-.3-.31-.41-.5,0,0,0,0,0,0l.4.49c0-.28-.13-.46-.4-.51-.04-.26-.2-.42-.46-.46-.05-.26-.2-.42-.47-.46-.13-.43-.47-.52-.86-.53-.34-.59-.59-1.26-1.41-1.34-.09-.24-.29-.35-.52-.4-.02-.27-.16-.44-.43-.49-.05-.27-.2-.43-.49-.44-.53-.56-.98-1.25-1.86-1.32l-.14-.13-.19.05c-.13-.25-.33-.38-.6-.41-.36-.74-.97-1.04-1.77-1.01-.08-.23-.23-.39-.48-.43-.06-.27-.22-.41-.51-.37.16.12.33.25.49.37,0,0,0,0,0,0-.19-.09-.33-.25-.5-.38l-.09-.14-.16.04s0,0,0,0c-.38-.51-.96-.47-1.49-.55-.55-.77-1.68-.2-2.31-.99-.23-.28-.97-.16-1.48-.22h-.01c-.21-.35-.54-.44-.9-.47h0c-.32-.62-.92-.3-1.39-.43l-.02-.02c-.29-.54-.81-.51-1.31-.53-.36-.41-.88-.43-1.37-.49-.51-.55-1.23-.23-1.82-.43,0,0,0,0,0,0-.3-.16-.61-.32-.91-.49-.18-.45-.56-.45-.95-.44-.24-.35-.62-.34-.99-.36-.44-.02-.88-.06-1.32-.09-.05-.25-.17-.43-.43-.49-.07-.27-.23-.41-.53-.35.17.12.34.24.51.36,0,0,0,0,0,0-.21-.07-.34-.24-.51-.37l-.14-.14-.19.06s0,0,0,0c-.44-.31-.89-.58-1.47-.49-.47-.57-1.17-.41-1.77-.54-.07-.24-.22-.39-.48-.42-.1-.25-.3-.35-.57-.34h-.01c-.66-.52-1.37-.91-2.2-1.04-.22-.32-.54-.44-.91-.48-.1-.25-.28-.37-.56-.34-.22-.34-.5-.55-.93-.47l-.09-.11-.13.05h0c-.15-.27-.37-.41-.68-.41-.45-.77-1.11-1.34-1.83-1.84-.03-.27-.19-.42-.44-.5-.07-.5-.36-.82-.82-.99-.21-.72-.42-1.44-.63-2.16,0-.95.31-1.95-.42-2.8-.27-2.9.08-5.78.12-8.67,0,0-.01,0-.02.01.52-1.36.48-2.76.4-4.18.36-.22.27-.64.42-.96.25-.2.38-.47.39-.79.01-.98.02-1.96.03-2.94,0-.14.03-.28.06-.41.54-.85.58-1.78.46-2.74-.03-.77-.29-1.55,0-2.32,0,0,0,0,0,0,.4-.56.33-1.23.42-1.87h0c.62-.47.48-1.15.54-1.78.37-.4.41-.91.41-1.42.35-.25.41-.59.28-.99-.09-.28-.17-.56-.26-.84.12-.01.23-.06.32-.15.41-.14.6-.43.59-.85-.01-.45-.04-.91-.06-1.36.11-.11.15-.23.11-.38.84-.58.56-1.57.84-2.35.54-.34.45-.87.41-1.39l.14-.12-.05-.18s0,0,0,0c.33-.43.48-.93.52-1.46.4-.4.48-.89.4-1.43.11-.11.14-.26.16-.41.12-.3.24-.6.36-.9.13,0,.23-.04.3-.16.37-.2.47-.51.45-.91-.02-.28.06-.57.09-.86.55-.34.57-.85.44-1.4.08-.13.1-.26.07-.4.25-.09.34-.28.34-.54l.11.06h0c.3-.07.44-.24.34-.55h0c.04-.12.09-.24.13-.36.51-.35.42-.88.43-1.38.08-.12.1-.26.08-.4.24-.1.38-.26.39-.53.42-.19.44-.56.43-.95.48-.37.26-.94.41-1.41v-.02c.58-.69,1.25-1.32,1.43-2.25.32-.24.4-.59.41-.96v-.02c.35-.18.5-.48.53-.85.25-.06.37-.23.34-.49.16-.06.21-.16.13-.32h0c.45-.96,1.35-1.7,1.42-2.85.55-.31.44-.86.48-1.36.24-.07.39-.22.43-.48.27-.07.39-.25.39-.53.39-.18.5-.5.49-.89.12-.03.24-.05.36-.06.01-.14.02-.27.03-.41.02-.31.05-.62.07-.93.47-.34,1.05-.6.99-1.33.29-.24.38-.57.45-.92.25-.06.43-.18.48-.45.41-.17.43-.55.47-.91.25-.08.39-.25.38-.53.35-.19.46-.52.51-.88.26-.07.4-.24.39-.52l-.39.49s0,0-.01,0c.09-.2.26-.34.4-.5h0c.53-.33.52-.85.5-1.37.64-.32,1.18-.83,1.39-1.45.37-1.11,1.17-1.9,1.75-2.86.12-.2.33-.36.38-.57.42-1.87,1.96-3.01,2.9-4.54.64-1.04,1.44-1.95,2.01-3.05.56-1.06,1.48-1.87,2.36-2.75.48.66.29,1.25.22,1.82-.72,1.48-.67,2.99-.2,4.52.02.06.11.1.17.15.06.43-.14.88.14,1.28.12.78-.47,1.68.38,2.35h0c-.16.57-.2,1.09.52,1.3.61.53.39,1.25.42,1.91.12.02.24.04.37.05.04,1.15.83,1.9,1.44,2.75.12.16.24.33.35.49-.13.86.51,1.31.95,1.88.05.19.1.38.14.57.01.05.03.11.04.16,0,0,0,0,0,0,.05.01.08.04.12.06.38.16.61.48.76.86.15.36.36.63.79.65,0,0,0,0,0,0,.07.25.26.35.49.39,0,0,.02,0,.03,0,.03.25.14.44.39.53,0,0,0,0,0,.01.03.66.42,1.05,1,1.3,0,0,.01.01.02.02.69.69,1.13,1.68,2.23,1.87,0,0,0,0,0,0,.04.22.13.4.34.46.03,0,.05.02.09.03.04.27.21.38.44.41.02,0,.03,0,.05.01.04.28.19.44.48.44,0,.01.01.02.01.03.17.38.52.42.88.44,0,0,0,0,.01,0,.02.13.04.26.06.39.28.04.55.07.83.11,0,0,0,0,0,0,.03.12.06.24.09.37.24.06.49.11.73.17,0,0,.02,0,.03,0,.02.06.05.11.08.17.09.12.23.18.39.19.02,0,.04,0,.06,0,.03.2.11.38.29.48.03.02.06.04.1.05.02.29.18.44.46.47.02.02.03.04.05.05.08.08.16.16.24.24.15.15.3.3.44.45.24.03.49.06.73.09.23.31.5.55.92.48.07.04.14.08.21.1.24.11.47.23.71.34.14.43.48.54.88.52.25.3.6.36.96.41.17.42.48.55.91.49.4.32.88.41,1.37.48.17.13.34.25.51.38.64.63,1.48.4,2.23.51l.09-.08c.25.67.81.54,1.33.54.2.4.57.42.96.4.45.64,1.21.28,1.78.54.52.58,1.24.31,1.88.42.04.03.07.05.11.07.53.32,1.13.4,1.74.4.17.1.33.23.51.27,1.22.3,2.45.07,3.68.11.49.63,1.21.58,1.86.51.9-.09,1.79-.09,2.68.01.04.21.19.51.1.62-.48.63-.42,1.37-.51,2.08-.41.32-.45.77-.45,1.24,0,.53.04,1.06.07,1.59l-.1,1.78c-.06.13-.1.25-.14.38-.4,1.22-.46,2.47-.33,3.75-.34.34-.41.79-.43,1.24-.03.97-.02,1.94-.03,2.9-.85,1.72-.6,3.45-.06,5.18l.08-.06c.08.64-.3,1.38.43,1.87,0,.52-.14,1.07.43,1.41.06.65-.2,1.38.49,1.86,0,.59.04,1.17.02,1.76-.02.54.06,1.03.48,1.41.1.34.16.69.47.92-.08,1.69.62,3.17,1.31,4.65,0,0,0,0,0,0h0s0,0,0,0c.32.61.33,1.38.9,1.87.03.38.08.75.51.9.06.36.23.65.5.89-.1.82.23,1.42.95,1.8h0c.12.19.29.32.39.52,0,0,0,0-.01,0-.13-.16-.25-.33-.38-.49,0,.27.13.45.39.52.04.29.18.52.45.65l-.05.12.1.09c-.08.43.09.73.44.96-.01.39.02.76.43.96.03.29.19.45.49.45.33.28.65.56.98.84v.02c-.02,1.03.57,1.74,1.25,2.4.05.28.21.44.49.46.08.24.27.36.49.43.01.38-.05.81.5.89,0,0,0,0,0,0,.19.11.33.28.48.43,0,0,0,0,0,0,.01.38.12.7.48.89v.02c.09.28.1.61.26.83.63.81,1.34,1.54,1.76,2.52.22.5.76.86,1.16,1.29,0,.28.13.45.37.54.04.37.11.72.53.86.03.26.14.46.41.55.49.99,1.49,1.62,1.83,2.71,0,0,0,0,0,0h0c.17.84.93,1.22,1.4,1.84.03.39.14.72.54.88,0,.26.11.45.35.56.15.68.34,1.35.96,1.78.05.27.24.4.48.46.04.5-.12,1.06.47,1.37.05.36.11.72.47.92.01.38.14.7.47.91,0,.38.12.71.43.94,0,.39.22.66.47.91-.05.52-.03,1.03.4,1.41.06.49.07,1.01.58,1.3h0c.07.49-.08,1.06.44,1.4,0,.38.12.71.48.9h0c0,.37.03.74.33,1.01-.21,1.11.38,1.91,1.04,2.68h0c.09.93-.33,1.94.47,2.74v.02c-.03.14-.02.28.04.42-.1.41-.05.76.33,1.01.06.13.06.25,0,.38-.44.34-.44.67.02,1,.06.13.09.26.09.4-.17.47,0,.77.47.92h0c0,1.14,0,2.28,0,3.42,0,.32.13.58.37.79.04.13.09.25.15.37-.02.97-.5,1.99.31,2.87.04.77.09,1.53.13,2.3h0c-.08.13-.08.25,0,.38-.02.78-.04,1.56-.06,2.34.04,2.17-.37,4.36.43,6.48,0,.14,0,.29.02.43l-.11-.07c-.32.09-.43.27-.27.58-.03.12,0,.23.05.33-.03.81-.05,1.61-.08,2.42-.03.59-.07,1.18-.1,1.77,0,0,0,0,0,0h0c-.26.2-.38.46-.38.78,0,1.14,0,2.28,0,3.43-.04.29-.07.57-.11.86-.12.33-.24.65-.36.98-.68.49-.59,1.16-.44,1.85,0,.15,0,.3,0,.45l-.09-.06c-.37.25-.48.59-.33,1.01-.03.29-.05.57-.08.86-.5.53-.53,1.17-.48,1.84-.55.34-.46.88-.42,1.41-.44,1.24-1.12,2.38-1.37,3.69h0c-.62.46-.74,1.08-.55,1.78-.28.25-.46.54-.42.94-.3.25-.4.59-.42.96-.35.17-.57.43-.57.83-.36.26-.33.65-.34,1.02.02.01.04.03.06.04,0,0,0,0,0,0l-.05-.05c-.38.18-.49.51-.5.89-.39.18-.49.51-.49.9-.34.21-.51.51-.47.91-.27.26-.45.57-.42.96-.31.61-.86,1.1-.92,1.84-.59.68-1.1,1.42-1.4,2.28-.46.55-.78,1.17-.91,1.89l-.09.09.06.12s0,0,0,0c-.12.24-.24.48-.37.72h-.02c-.27.03-.47.13-.46.45h0s0,0,0,0c-.06.08-.11.17-.15.26-.28.5-.57,1-.85,1.49-.49.17-.45.57-.43.97-.51.57-1.29.92-1.45,1.77-.25.09-.38.27-.39.53-.26.06-.38.25-.41.5.14-.16.27-.32.41-.49,0,0,0,0,0,0-.12.18-.28.32-.41.48h0c-.44.13-.55.45-.55.84-.23.09-.36.27-.42.5-.29.03-.45.17-.43.48-.16.11-.2.27-.21.45-.13.26-.25.53-.38.79-.15-.05-.26,0-.32.17-1,.7-1.77,1.61-2.37,2.66-.26.05-.45.17-.5.44-.27.09-.35.3-.35.56h0c-1.05.48-1.51,1.56-2.32,2.28,0,0,0,0,0,0-.41.13-.49.49-.56.84-.24.07-.39.22-.44.47-.25.05-.42.19-.48.44-.26.06-.4.22-.45.48-.27.07-.43.23-.39.53-.58.65-1.38,1.2-.95,2.28-1,.9-1,.9-2.05.2-.16-.11-.37-.15-.56-.22-.08-.26-.26-.38-.54-.38-.27-.46-.74-.63-1.13-.37-.45.29-.24.79.01,1.18.04.06.12.09.18.13.14.37.27.74.41,1.11v.2s.17.09.17.09c0,.24.1.4.35.43h0c.24.52.78.81.92,1.42.08.37.46.49.83.52.11.32.25.62.56.81v.02c.13.18.32.31.38.53,0,0,0,0-.01,0-.12-.17-.24-.35-.37-.52-.02.28.08.47.36.55.06.27.23.4.49.44.05.26.21.41.46.45.07.35.19.65.53.83l.02.03c0,.27.11.45.37.52.03.29.21.41.48.44.06.25.19.43.44.51.51.98.82,2.1,1.86,2.72-.02.39.06.73.4.96,0,.4.17.69.54.86.04.36.06.73.5.86l.03.03c.39.41.24,1.14.85,1.42.08.99.57,1.75,1.33,2.35.09.56.04,1.17.42,1.64.04.04.07.09.11.13h0c-.03.41.09.74.41.99,0,0,0,0,0,0,.32.75.64,1.5.96,2.25,0,0,0,0,0,0,.28.6-.09,1.33.36,1.9-.03.43.23.67.55.87-.14.89-.12,1.76.43,2.54l-.04.14.12.08c.13.16.29.3.36.51,0,0-.01,0-.02-.01h0c-.11-.16-.22-.33-.34-.49-.04.28.1.44.34.53.02.74-.15,1.49.1,2.22,0,1.09-.16,2.21.48,3.21h0c-.19.99-.35,1.97.38,2.83h0c.02,1.06.04,2.12.06,3.18-.2.79-.05,1.57.07,2.35-.09.12-.1.26-.03.39.02.75-.24,1.55.3,2.2.03.04.06.08.1.13,0,0,0,0,0,0,.19.66.15,1.32.13,1.99-.04,1.48-.44,2.95-.08,4.43.01,1.4.02,2.8.03,4.2,0,.16,0,.31-.01.47-.08.13-.08.27,0,.4h0c.16,1.09-.42,2.17-.06,3.26,0,.15,0,.3,0,.45,0,.16,0,.31-.01.47h-.01c-.77,1.93-.39,3.96-.49,5.96l.06.07c-.13.18-.21.36-.25.56-.31.82-.39,1.68-.36,2.57,0,0,0,0,0,0-.64,1.1-.67,1.11-1.59.86-.1-.25-.28-.38-.54-.41-.05-.28-.24-.38-.51-.36h0s-.04-.02-.04-.02c-.21-.3-.45-.55-.87-.48l-.09-.12-.14.05s0,0,0,0c-.23-.47-.47-.95-1.12-.89-.04-.03-.09-.06-.14-.08-.24-.14-.48-.28-.72-.42-.02-.39,0-.79-.53-.87-.33-.5-.72-.91-1.38-.93-.06-.24-.17-.43-.43-.49-.05-.29-.24-.4-.53-.38.17.13.34.26.51.39,0,0,0,0,0,0-.21-.09-.34-.27-.51-.4h-.01c-.2-.3-.47-.48-.81-.58-.07-.55-.38-.85-.93-.91-.06-.26-.19-.45-.48-.48-.59-.48-.97-1.25-1.83-1.35-.25-.36-.65-.32-1.01-.35h-.02c-.06-.25-.21-.4-.44-.47h0c0-.28-.09-.48-.36-.57-.06-.28-.23-.41-.52-.4-.08-.24-.27-.34-.51-.38l-.02-.03c-.03-.26-.14-.44-.43-.46h0s0,0,0,0c-.23-.57-.79-.46-1.23-.6-.02-.39-.11-.73-.58-.8-.15-.4-.47-.51-.84-.55-.07-.24-.23-.39-.49-.43-.14-.42-.5-.48-.86-.53-.12-.51-.45-.79-.97-.85-.09-.26-.27-.38-.55-.36.17.12.34.24.52.35,0,0,0,0,0,.01-.21-.06-.34-.25-.52-.37h-.02c-.19-.31-.45-.51-.8-.59-.08-.27-.26-.39-.55-.34l-.08-.12-.14.04c-.1,0-.19-.03-.27-.07.08.03.17.06.27.07-.14-.26-.36-.4-.64-.46-.05-.26-.17-.46-.45-.51,0,0,0,.01,0,.02-.87-.46-1.7-.97-2.34-1.75-.2-.25-.58-.36-.89-.52-.22-.38-.56-.48-.97-.42-.24-.27-.55-.42-.89-.49-.05-.26-.21-.41-.47-.46-.29-.66-.88-.41-1.38-.46-.07-.24-.22-.4-.48-.43-.04-.27-.19-.43-.48-.44-.05-.26-.22-.4-.48-.43h-.01c-.49-.52-1.05-.89-1.76-1-.23-.3-.56-.43-.91-.5-.15-.5-.56-.44-.95-.41-.07-.23-.19-.42-.43-.5-.04-.31-.23-.41-.53-.37.17.13.35.26.52.39,0,0,0,0,0,0-.22-.08-.36-.25-.52-.4l-.09-.12-.14.05c-.31-.03-.52-.18-.61-.47,0,0,0,0,0,0,.1.29.31.44.61.47-.12-.26-.29-.47-.6-.5-.2-.35-.55-.4-.9-.48-.15-.49-.42-.84-1-.84-.22-.3-.54-.43-.89-.49-.05-.26-.19-.43-.48-.46-.31-.54-.84-.49-1.34-.49-.1-.22-.28-.35-.52-.39-.03-.27-.18-.44-.46-.46-.19-.43-.54-.5-.96-.42l-.11-.13-.15.06c-.21-.48-.48-.89-1.07-.92-.19-.34-.5-.49-.88-.52-.23-.36-.58-.45-.98-.4-.53-.51-1.17-.57-1.85-.46-.28-.17-.56-.34-.84-.5-.06-.26-.21-.41-.46-.47-.07-.26-.22-.43-.51-.43-.47-.59-1.13-.52-1.77-.54-.16-.51-.5-.77-1.05-.77-.36-.43-.92-.3-1.36-.48-.05-.27-.19-.43-.49-.43.16.14.32.28.48.42,0,0,0,0,0,0-.18-.12-.32-.29-.48-.43h0c-.19-.38-.53-.46-.91-.48-.19-.38-.52-.49-.91-.48-.21-.35-.53-.49-.93-.45-.35-.42-.85-.44-1.33-.52-.08-.26-.23-.41-.53-.38.17.13.33.25.5.38,0,0,0,0,0,.01-.2-.08-.34-.26-.51-.39h0c-.35-.43-.84-.49-1.35-.5-.36-.43-.83-.55-1.36-.48-.1-.23-.28-.34-.53-.36l-.03-.03c-.12-.32-.37-.43-.68-.44-.37-.02-.73-.04-1.1-.06-.05-.26-.15-.47-.46-.46-.2-.39-.58-.39-.93-.44h0c-.14-.32-.41-.38-.72-.4-.36-.02-.72-.07-1.08-.11-.06-.25-.17-.45-.47-.46-.19-.38-.51-.5-.91-.47-.24-.31-.58-.39-.95-.37l-.11-.15-.18.05s0,0,0,0c-.46-.31-.98-.42-1.53-.45-.22-.35-.57-.42-.95-.42-.32-.46-.83-.45-1.3-.55-.08-.24-.25-.38-.5-.42-.06-.27-.2-.44-.51-.4.16.14.33.27.49.41,0,0,0,0,0,0-.19-.11-.33-.28-.5-.41h0s-.06-.07-.1-.1c-.46-.44-1.15-.16-1.66-.45-.06-.27-.21-.43-.51-.42-.23-.35-.58-.41-.96-.42h0c-.21-.35-.47-.59-.92-.47l-.14-.11-.17.07c-.13-.24-.33-.39-.61-.41-.03-.27-.25-.37-.46-.46-.71-.59-1.41-1.21-2.39-1.27l-.02.19s-.02,0-.03-.01c0-.06.02-.12.06-.18l-.02-.02c-.22-.72-.77-.59-1.31-.53-.86-.08-1.4-.83-2.21-1.02-.55-.42-1.2-.41-1.84-.47-.09-.23-.28-.35-.52-.39-.26-.7-.83-.54-1.35-.5-.22-.3-.5-.48-.87-.52-.2-.38-.57-.42-.94-.44-.26-.55-.83-.48-1.29-.58-.57-.13-.73-.94-1.42-.83-.1-.24-.29-.35-.54-.38-.13-.46-.5-.51-.89-.52-.08-.25-.24-.38-.53-.34h0c-.11-.04-.23-.08-.34-.13-.12-.24-.33-.33-.58-.36h0c-.27-.65-.8-.61-1.35-.51-.47-.54-1.21-.23-1.75-.53-.14-.56-.54-.84-1.1-.86-.44-.02-.88.04-1.32.07l-.09-.13-.15.05h0c-.15-.26-.38-.35-.67-.33l-.09-.15-.17.02c-.14-.27-.34-.43-.66-.4-.61-.69-1.47-.41-2.21-.58-.1-.24-.28-.34-.55-.29.17.1.34.2.52.3,0,0,0,.01.01.02-.23-.02-.36-.21-.53-.32l-.13-.14-.19.04h0c-.42-.44-.95-.48-1.51-.44-.65-.62-1.42-.71-2.26-.5-.44-.25-.86-.53-1.4-.45-.51-.57-1.24-.27-1.85-.45-.7-.59-1.56-.28-2.34-.43l-.09-.1-.12.05s0,0,0,0c-.31-.36-.76-.32-1.16-.42-.93-.48-1.86-.69-2.81-.04-.3.02-.59.04-.89.06l.06-.13c-.53-.74-1.26-.29-1.91-.33-.15-.04-.3-.04-.44,0-.93,0-1.87.01-2.8.02-.28.02-.55.03-.83.05-.35-.1-.7-.15-1.05,0-.11-.02-.21-.01-.31.03-.99-.18-1.98-.35-2.89.3-.59,0-1.18,0-1.77,0h0c-.34-.47-.66-.31-.98.03-.27.04-.55.09-.82.13-.94-.04-1.89-.08-2.83-.1-.37,0-.71.13-.93.46h0c-.32,0-.63,0-.95.01-.14-.05-.29-.05-.43,0-1.42.14-2.88-.28-4.25.37l-4.96.06c.04-.27.08-.53.11-.8.24-.07.38-.23.42-.47.26-.07.41-.23.43-.5.42-.2.45-.57.4-.98l.11-.09-.05-.13s0,0,0,0c0,0,0,0,0,0,.15-.22.29-.43.44-.65.79-.1.82-.77,1-1.32.25-.06.4-.22.43-.48.26-.08.38-.26.4-.53.52-.32.83-.78.9-1.39.46-.34,1.07-.56,1.03-1.29.24-.1.37-.27.36-.54.25-.06.35-.23.34-.47l.17-.09v-.19s0,0,0,0c0,0,0,0,0,0,.25-.12.4-.32.48-.59.52-.08.81-.4.94-.89.25-.05.42-.18.49-.43.25-.06.41-.21.46-.46.26-.06.4-.23.43-.49.26-.08.38-.26.39-.53.26-.07.37-.25.38-.51l.03-.04c.2-.09.33-.26.5-.38.65-.02.99-.51,1.39-.91.61-.05,1.06-.39,1.44-.84.3-.05.43-.24.42-.53.18-.15.36-.31.54-.46.13.1.24.08.33-.05.66.1.86-.33.99-.84,1.1-.1,1.86-.84,2.67-1.47h.02c.28-.02.44-.16.48-.44.58-.2.8-.98,1.61-.9.4.04.68-.42.75-.87.34-.08.71-.09.94-.41.39,0,.72-.13.86-.54.26-.03.45-.16.55-.41.11-.06.22-.11.34-.17.4-.24.8-.48,1.2-.71.07-.03.13-.07.19-.11.39,0,.72-.1.95-.44.32.01.52-.16.65-.43l.14.05.09-.12c.6.08.91-.24,1.05-.76.63-.04,1.27-.05,1.77-.53.52,0,.97-.14,1.32-.55h0c.28.04.46-.09.56-.34.49-.06,1.01-.02,1.35-.48.51,0,1.01-.06,1.37-.49.05,0,.2.04.2.04l.2-.1c.15-.01.31-.02.46-.04.53.08,1-.07,1.42-.39.53.07,1-.06,1.4-.44.43.02.79-.14,1.08-.46l.13.09.12-.1c.15,0,.31-.01.46-.02,1.06-.15,2.2.16,3.18-.52l.03-.02.21.02.19-.08c.81,0,1.7.47,2.39-.35.13-.03.27-.05.41-.05.99.2,1.96.23,2.85-.36.28-.03.57-.07.85-.1,1.1.07,2.23.3,3.21-.48.34-.17.65-.03.95.11.16.15.32.3.48.45h0s.07-.02.11-.03c.31-.08.63-.13.82-.45.15,0,.3,0,.45,0,1.23.73,2.47.71,3.72.07.15-.05.31-.1.46-.15l-.06.11c.74.64,1.46.43,2.19.06.06-.02.11-.05.17-.09,2.32,0,4.64-.02,6.96-.02.28,0,.35-.22.47-.41l-.05-.04c.69-.42.3-1.39.93-1.84.88.2,1.34-.39,1.81-.96h0Zm-3.55,76.05c1.95,1.83,4.03,3.61,6.56,4.68.13.28.34.43.65.41.22.34.56.43.95.41l.08.13.15-.03s0,0,0,0c0,0,0,0,0,0,.13.27.35.42.65.43.07.14.17.24.28.32.07.05.14.08.22.11.13.04.26.05.42.04.24.29.55.42.91.47.07.26.22.41.51.39-.16-.13-.33-.26-.49-.39,0,0,0,0,0,0,.19.1.32.27.5.39h.02c.09.08.19.13.29.18.48.28.96.57,1.44.85.04.09.08.15.13.21.12.13.26.2.43.22.13.02.26.02.4.01.41.4.79.84,1.43.85l.09.12.15-.05h0c.12.28.31.45.62.46.07.12.16.2.26.27.07.04.14.08.22.1.15.05.31.06.48.05.21.32.53.45.89.49.08.25.23.41.5.43.06.14.14.23.23.3.11.08.23.12.35.14.25.04.52,0,.77.05.07.25.21.41.51.36.07.16.18.19.33.09.3.27.64.43,1.06.4l.09.13.15-.05s0,0,0,0c.38.14.76.27,1.13.41.05.05.09.09.14.13.44.36.99.33,1.52.36.15,0,.3,0,.45.01.04,0,.09,0,.13,0,.33,0,.66,0,.99,0,.02,0,.05-.01.07-.02.1-.03.2-.05.31-.05.02,0,.04,0,.05,0h0c.02-.06.03-.11.04-.17.01-.07.02-.14.03-.22l-.06-.11c.22-.02.43-.03.65-.05.07,0,.15-.01.22-.02.14-.02.29-.09.4-.18.18-.15.65-.18.34-.57-.1-.12-.39-.09-.6-.12-.15-.16-.31-.24-.49-.28-.45-.1-.95.05-1.38-.14-.55-.49-1.23-.39-1.88-.41l-.12-.13-.17.05c-.43-.52-1.02-.34-1.56-.39h0c-.03-.11-.05-.21-.07-.32,0-.03-.02-.06-.02-.1,0,0,0,0,0-.01,0,0,0,0,0,0l-.45-.04c-.26-.02-.51-.05-.77-.07-.08-.25-.23-.39-.52-.34l-.12-.14-.18.03c-.26-.41-.64-.5-1.09-.41l-.11-.12-.15.06c-.14-.27-.35-.39-.65-.34l-.14-.13-.19.03c-.11-.24-.29-.4-.55-.46-.04-.29-.19-.44-.49-.42-.2-.35-.51-.49-.9-.48-.21-.36-.57-.41-.94-.44-.15-.39-.46-.53-.85-.54-.1-.24-.29-.32-.54-.3l-.09-.15-.18.02s0,0,0,0c-.28-.31-.65-.43-1.04-.48-.08-.26-.25-.39-.54-.32l-.14-.13-.19.03c-.03-.13-.09-.25-.17-.35,0-.03-.02-.06-.03-.09-.12-.35-.43-.46-.77-.54,0,0,0,0,0,0-.29-.17-.59-.33-.88-.5,0,0,0,0,0,0-.19-.17-.4-.3-.64-.34-.12-.02-.24-.03-.38,0h-.01c.05-.1.1-.17.17-.22.22-.17.54-.16.79-.26.02,0,.05,0,.07,0,.11,0,.21.04.3.11.15.36.49.45.81.54.33.24.66.45,1.08.28.01,0,.02,0,.03-.01.15-.03.27,0,.37.12,0,.02.02.03.02.04.19.38.48.44.84.35.04-.01.08-.02.13-.04.14,0,.28-.01.41-.04l.1.15.18-.02s0,0,0,0c.33.25.7.31,1.1.31,1.34.78,2.89.82,4.34,1.2,1.91.5,3.86.83,5.79,1.23,0,0,0,0,0,0,2.03.58,2.26.58,3.73.02.29,0,.57.02.86.02.04.21.18.3.34.35.05.02.11.03.16.04.04-.13.05-.26.04-.39.26-.06.53-.11.79-.17,0,0,0,0,0,0,0,0,0,0,0,0,.29.12.49.03.6-.26.12-.06.25-.12.39-.15.25.04.49.08.67.2.17.11.27.28.29.56,0,.03,0,.06,0,.09,0,.35,0,.7,0,1.06-.13.07-.19.18-.16.33-.25.11-.33.3-.27.57-.15.09-.18.22-.08.37-.24.29-.48.58-.47.99-.6.51-.26,1.25-.43,1.86-.31.22-.54.49-.49.9-.29.23-.48.51-.51.89-.07.04-.12.09-.17.14-.24.25-.28.57-.31.9,0,.1-.02.21-.03.31-.06.04-.12.09-.16.14-.13.15-.21.32-.26.52-.02.09-.03.17-.04.26-.08.08-.16.16-.24.24-.16.18-.29.38-.38.59-.09.19-.16.4-.18.62-.26.26-.45.56-.45.94-.16.2-.32.4-.48.6-.28.35-.56.7-.82,1.07-.09.12-.1.29-.12.45,0,.04-.01.08-.02.12-.29.33-.57.66-.86.99-.24.13-.43.3-.59.5-.06.07-.11.15-.16.23-.11.18-.2.37-.25.58-.09.05-.16.1-.22.16-.1.1-.16.22-.2.35-.04.12-.06.25-.08.38-.23.08-.38.24-.42.48-.25.05-.42.19-.5.44-.05.01-.1.03-.14.05-.49.18-.82.55-1.17.91-.17.18-.33.35-.52.49l-.2-.05-.16.13c-.24-.03-.47-.05-.67.03-.02,0-.03.02-.05.03-.1.05-.19.14-.27.26-.3.03-.47.23-.58.49l-.16-.04-.1.13c-.39-.04-.73.04-.99.36-.27.04-.55.08-.82.12-.07-.02-.14-.03-.21-.04-.62-.1-1.21.05-1.77.35-.42.04-.87-.04-1.18.29-.05.06-.11.13-.15.21-.13.08-.26.09-.39.03-.08-.04-.17-.07-.25-.11-1.01-.43-2.07-.26-3.13-.24-.13,0-.27,0-.4,0-.11-.03-.22-.03-.33.01-.27-.08-.53-.11-.8-.11-.13,0-.26.01-.39.03-.1.01-.21.03-.31.05h0s0,0,0,0c-.46-.73-1.16-.55-1.83-.46l-.59-.05c-.23-.02-.47-.04-.7-.06-.43-.33-.94-.32-1.44-.37h-.02c-.04-.06-.09-.1-.13-.14-.45-.38-1.1-.16-1.58-.45-.07-.1-.16-.18-.25-.24-.21-.13-.47-.16-.73-.18-.21-.01-.42-.02-.63-.03-.23-.01-.46-.02-.68-.03-.08-.23-.23-.38-.47-.43-.08-.27-.26-.39-.55-.36-.13-.18-.27-.33-.45-.44-.06-.03-.11-.07-.18-.09-.06-.02-.13-.04-.21-.04-.02-.04-.04-.07-.06-.1-.15-.2-.35-.28-.57-.32-.09-.02-.19-.03-.29-.03-.09-.25-.27-.37-.55-.36h0c-.33-.47-.72-.87-1.32-.98-.08-.25-.26-.38-.53-.39.17.13.33.26.5.39,0,0,0,0,0,0,0,0,0,0,0,0-.2-.09-.34-.26-.5-.39h0c-.14-.4-.48-.49-.83-.57-.03-.11-.06-.22-.1-.31-.11-.23-.28-.39-.51-.5-.09-.04-.2-.07-.32-.09-.09-.26-.29-.35-.56-.35.17.11.35.23.52.34,0,0,0,0,0,.01-.21-.06-.34-.25-.53-.35l-.03-.02c-.13-.17-.26-.34-.39-.51,0-.04,0-.07,0-.11,0-.36-.14-.63-.52-.75l-.04.04h0s0,0,0,0c0,0,0,0,.01,0,.01-.01.03-.02.04-.04-.08-.29-.27-.41-.5-.49-.1-.03-.2-.06-.3-.09-.02-.14-.03-.28-.07-.41-.04-.13-.1-.25-.22-.35-.06-.05-.13-.09-.22-.12-.03-.27-.19-.42-.44-.47-.03-.2-.05-.4-.11-.58-.02-.07-.05-.13-.1-.19-.05-.07-.11-.13-.19-.18,0-.09,0-.17-.01-.24-.02-.13-.07-.25-.14-.35-.08-.12-.19-.22-.34-.29-.08-.45-.15-.9-.23-1.36-.07-.43-.14-.85-.22-1.27-.09-.52-.18-1.04-.27-1.56-.02-.12-.2-.21-.31-.32v-.03c-.02-.37-.04-.74-.38-.99,0-.04,0-.08,0-.13,0-.23,0-.45,0-.68.07-.14.12-.28.17-.42.57-1.67-.07-3.44.28-5.12.22-.23.25-.51.26-.81.05-1.58.11-3.17.16-4.75.61-.83.2-1.84.51-2.72.04-.03.07-.07.1-.11.32-.36.35-.8.26-1.26,0-.04-.01-.07-.02-.11,0-.28-.02-.56-.02-.84.05-.31.09-.62.14-.93l-.07-.08c.15-.22.23-.46.26-.7.14-.45.22-.91.27-1.38.03-.24.04-.49.05-.73.01-.25.02-.5.02-.75.09-.08.16-.16.21-.25.11-.18.15-.38.15-.59,0-.2,0-.4-.01-.6.32-.17.5-.42.54-.77.26.11.51.23.77.34,0,0,0,0,.01,0,.04.13.09.25.13.37.63,1.8,1.68,3.39,2.58,5.05,1.46,2.71,3.56,4.91,5.76,6.97Zm17.4,8.71s0,0,0,0c-.19-.12-.33-.28-.48-.43h0c.16.14.32.29.48.43Zm11.57,14.42s-.09.07-.13.09c.04-.03.08-.06.13-.1,0,0,0,0,0,0Zm13.86,15.94c0,.06.01.12.03.18-.02-.05-.03-.11-.03-.18,0,0,0,0,0,0Zm-4.35,28.11s0,0,0,0c-.05.26-.2.41-.46.46,0,0,0,0,0,0,.26-.05.41-.2.46-.46Zm1-29.82c.17.12.32.27.43.44,0,0,0,0,0,0-.15-.15-.29-.3-.44-.45,0,0,0,0,0,0Zm-.98-1.39h0s0,0,0,0c-.12-.16-.23-.33-.35-.49-.04.29.11.43.35.52,0,.15.02.3.05.44.04.14.11.27.23.37.05.04.11.08.18.11.04.28.23.41.5.43.06.24.21.4.45.47.02.23,0,.47-.01.71-.01.35,0,.69.24.98.05.06.11.12.18.18.02.28.18.43.43.49.03.17.03.36.05.54.01.17.04.34.11.5.07.16.18.3.37.41-.08.14-.05.25.1.31-.06.26.03.45.26.57,0,.22.03.44.07.65.02.12.05.24.09.36.07.23.18.45.33.65.02.04.05.07.08.11-.04.41.13.71.47.92-.04.15-.03.29.04.43-.02.25-.03.5-.05.75-.08,1.17-.11,2.33.47,3.44,0,.14.01.28.04.42l.09,1.01c-.06.11-.11.22-.16.34-.53.94-.53,1.94-.39,2.95.02.12.03.24.05.37-.04.9-.09,1.8-.13,2.7h0s0,0,.01,0c-.2.62-.4,1.24-.6,1.86-.12.38-.25.75-.37,1.13-.01.03,0,.07,0,.11,0,.04.02.07.03.11-.06.1-.12.21-.17.32-.2.43-.3.89-.32,1.35,0,.21,0,.42.02.64-.1.05-.18.11-.25.18-.19.18-.27.42-.22.73-.25.3-.39.65-.47,1.02-.03.11-.05.22-.06.34-.42.48-.84.96-1.27,1.44-.27,0-.46.11-.55.37-.12.02-.22.07-.3.14-.01.01-.02.02-.03.03-.07.08-.12.18-.14.3-.25.07-.37.25-.42.49-.09.02-.17.04-.26.05-.69.08-1.44-.12-2.02.44-.6.19-1.35-.2-1.81.48-.28-.01-.56-.02-.83-.03-.05-.25-.16-.45-.44-.49-.17-.36-.52-.4-.86-.47,0,0-.01,0-.02,0,0-.02,0-.04-.01-.06-.1-.56-.46-.89-.87-1.19-.21-.15-.44-.3-.64-.47h0c-.03-.28-.2-.41-.46-.45l-.02-.02c-.03-.26-.19-.41-.43-.47-.04-.27-.02-.56-.17-.79,0,0,0-.01-.01-.02-.05-.07-.11-.13-.19-.19,0-.05,0-.1-.02-.14-.04-.13-.11-.23-.23-.29-.05-.03-.11-.05-.17-.07-.01-.09-.03-.17-.05-.26-.05-.17-.12-.32-.25-.43-.07-.06-.16-.11-.27-.15-.02-.27-.16-.44-.43-.5-.03-.25-.16-.43-.4-.51-.01-.11-.04-.21-.07-.31-.04-.11-.09-.21-.16-.3-.07-.1-.17-.18-.29-.25,0-.18-.03-.35-.09-.5,0-.01-.01-.03-.02-.04-.08-.14-.2-.25-.42-.3l-.02-.02c-.04-.24-.16-.42-.4-.5.01-.39-.14-.68-.5-.87v-.02c-.13-.18-.3-.31-.41-.49,0,0,0,0,0,0l.4.49c0-.28-.12-.45-.4-.51-.03-.26-.16-.44-.41-.52-.03-.14-.08-.27-.13-.39-.16-.33-.41-.59-.68-.82-.21-.18-.44-.35-.65-.53-.03-.13-.08-.22-.15-.29-.08-.09-.19-.15-.3-.19-.11-.04-.23-.07-.35-.1-.02-.11-.04-.21-.06-.31-.05-.21-.14-.4-.33-.53-.03-.02-.05-.04-.08-.05,0-.05-.03-.09-.04-.14-.04-.09-.09-.16-.16-.2-.09-.06-.2-.08-.33-.07,0,0,0,0-.01,0-.19-.1-.33-.27-.49-.41h0c0-.24-.07-.43-.17-.6-.16-.27-.42-.47-.69-.66-.05-.04-.11-.08-.16-.12-.25-.18-.49-.36-.73-.54,0-.11-.03-.2-.08-.28-.03-.05-.07-.08-.12-.11-.07-.04-.17-.07-.28-.07-.33-.28-.66-.56-.99-.84h0c-.29-.51-.74-.83-1.27-1.04-.04-.06-.07-.11-.12-.15-.13-.14-.29-.21-.46-.24-.12-.02-.25-.03-.38-.03-.1-.23-.28-.35-.53-.38.17.13.34.25.51.38,0,0,0,0-.01,0,0,0,0,0,0,0-.2-.08-.34-.24-.5-.39h0c-.05-.16-.12-.28-.21-.36-.05-.05-.11-.08-.18-.1-.14-.05-.31-.06-.5-.03,0,0,0,0,0,0-.07-.04-.13-.1-.2-.15-.1-.08-.19-.17-.31-.23l-.02-.03c0-.29-.15-.44-.43-.46h0c-.15-.43-.51-.48-.88-.5-.08-.14-.17-.24-.28-.31-.21-.15-.47-.17-.73-.17-.27,0-.54.03-.79-.03-.13-.51-.41-.84-.99-.81l-.09-.13-.16.05c-.14-.08-.3-.11-.46-.13-.37-.11-.73-.21-1.1-.32-.06-.15-.13-.26-.23-.33-.08-.06-.17-.11-.28-.13-.12-.03-.26-.03-.41-.02-.09-.11-.18-.2-.28-.27-.18-.12-.37-.18-.58-.2-.18-.01-.37.01-.57.06l-.1-.12-.15.06h0c-.14-.27-.36-.42-.67-.39h0c-.13-.14-.27-.2-.43-.23-.43-.17-.9-.22-1.35-.3-.17-.19-.35-.29-.54-.35-.11-.03-.21-.05-.32-.06-.33-.02-.68.04-1.02.05l-.11-.14-.17.05s0,0,0,0c-.28-.3-.61-.41-.94-.44-.35-.04-.71,0-1.07.02-.6-.53-1.28-.65-2.05-.46-.62.15-1.18-.01-1.64-.48-.05-.06-.09-.15-.15-.16-1.76-.44-3.52-.41-5.29-.03-.06.01-.09.11-.14.17h0l.02.04s-.09,0-.13,0c-.55-.01-1.1,0-1.65-.05-.01,0-.03,0-.04,0-.67-.05-1.3-.01-1.85.4-.02.02-.05.03-.07.05-.41.07-.85.04-1.1.47h0s-.14-.04-.14-.04l-.08.12c-.51,0-1,.05-1.39.43-.41-.05-.65.21-.87.49h-.03c-.45.04-.89.07-1.34.1-.24.01-.41.13-.5.36h-.01c-.26.04-.41.2-.49.43-.29,0-.6-.04-.87.04-.03,0-.06.02-.08.03-.16.07-.31.18-.42.4-.32,0-.65-.04-.94.06,0,0,0,0-.01,0-.17.06-.33.18-.45.38-.25.09-.52.17-.77.27-.31.12-.6.27-.8.54-.12.16-.2.35-.24.6-.46.22-1.07-.1-1.44.41-.28.09-.56.2-.82.33-.49.24-.95.55-1.36.92-.2.18-.39.37-.57.57-.28.03-.44.19-.5.45-.52.13-.82.5-1.07.94l-.14-.04-.08.12c-.15.15-.31.3-.49.43,0,0,0,0,0,0,.16-.14.32-.29.49-.43-.31-.03-.5.08-.49.42-.26.27-.61.45-.95.64-.33.19-.63.4-.82.73-.07.11-.12.24-.16.39-.25.07-.39.24-.41.51-.25.08-.35.28-.39.53.13-.17.25-.34.38-.5,0,0,0,0,0,0,0,0,0,0,0,0-.08.2-.26.34-.39.5h0c-.13,0-.25.03-.37.09-.28-.09-.47.03-.6.28-.21,0-.41,0-.62,0-.08,0-.16,0-.23,0-1.04-.7-2.19-.39-3.3-.35-.56-.09-1.11-.22-1.68-.19-.18.01-.36.04-.54.09-.24-.27-.51-.49-.91-.5-.18-.15-.38-.25-.59-.33-.45-.17-.94-.24-1.39-.38-.12-.04-.24-.08-.35-.13-.02.03-.05.05-.07.08h0s.07-.08.07-.08c-.03-.03-.06-.05-.1-.08-.23-.2-.48-.32-.76-.37-.17-.03-.34-.05-.52-.03-.95-.39-1.58-1.04-1.69-2.11,0-.06-.09-.12-.13-.18-.03-.75-.08-1.5-.08-2.25,0-.91.06-1.82.09-2.73-.04-.03-.07-.06-.11-.09,0,0,0,0,0,0l.11.09c.33-1.04.42-2.12.51-3.2.35-.23.45-.56.4-.96.41-.4.38-.91.36-1.42.04-.13.08-.27.12-.4.04-.08.08-.17.1-.26.2-.53.25-1.08.29-1.64-.02-.01-.03-.03-.05-.04,0,0,0,0,0,0l.05.04c.06-.03.12-.07.17-.11.2-.14.34-.33.37-.58,0-.05.02-.1.01-.15.37-.4.34-.92.42-1.41.15-.1.24-.22.31-.35.06-.12.09-.24.12-.37.04-.2.05-.41.09-.61.25-.08.41-.22.4-.51.33-.23.4-.58.43-.95.16-.08.27-.19.34-.31.03-.05.05-.09.07-.15.05-.13.08-.27.09-.43.08-.05.16-.1.22-.16.14-.13.23-.3.25-.49,0-.09,0-.18-.01-.28.33-.39.36-.89.47-1.36.24-.06.4-.22.45-.46.25-.04.44-.15.51-.41.26-.07.38-.26.42-.51.27-.07.45-.21.39-.54-.13.17-.26.34-.39.51,0,0,0,0-.01,0,.08-.21.24-.37.4-.52l.1-.09-.05-.12s0,0,0,0c0,0,0,0,0,0,.14-.23.28-.46.42-.69.26,0,.47-.09.56-.35.07-.02.13-.04.19-.07.06-.04.11-.09.15-.15.05-.07.09-.16.1-.27.11-.03.21-.07.3-.11.2-.1.35-.24.47-.42.07-.11.12-.23.15-.38.34-.09.67-.19.85-.55.3.01.44-.16.52-.42.38-.21.75-.43,1.11-.66.44-.28.87-.58,1.28-.89.29-.22.57-.44.85-.67.09,0,.18-.01.26-.03.17-.04.32-.11.42-.25.06-.08.11-.19.14-.32h0c.17-.14.3-.3.49-.41h0c.17,0,.34.02.5.02.25,0,.49-.05.69-.23.07-.06.14-.14.2-.24.37-.04.7-.15.96-.43.43.01.78-.18,1.07-.49l.14.05.09-.12c.29.06.46-.06.57-.31.14,0,.28,0,.41,0,.28,0,.54-.05.77-.2.12-.08.23-.19.33-.34l.13.05.09-.11c.4.05.76-.01.99-.4.56-.27,1.31.08,1.76-.54h.01c.17-.13.31-.3.49-.41,0,0,0,0,0,0-.16.13-.32.27-.48.4.3.02.44-.14.5-.4.44,0,.89.03,1.32-.02.5-.06,1.07.05,1.43-.46.49-.06,1.05.07,1.41-.41.46,0,.92,0,1.39,0,.12,0,.24,0,.36,0,.46,0,.92,0,1.38,0,.08.24.23.38.51.33l.12.14.18-.03c.16.32.22.72.64.83l.02.02c.04.26.18.4.45.41l.05.03c.18.35.48.5.86.48h.01c.15.15.31.29.46.44v.02c.13.18.3.31.39.51,0,0,0,0-.01,0-.12-.17-.24-.33-.36-.5-.02.28.11.45.36.53,0,.14.01.28.04.41.03.14.09.27.21.37.06.05.14.09.24.12.04.27.22.41.48.45.04.26.19.41.45.47.12.47-.03,1.03.49,1.36,0,.3.16.44.43.49.04.25.16.44.41.52.02.09.04.17.08.25.11.29.32.49.61.61.06.03.13.06.2.08.02.07.04.13.07.19.06.1.13.18.24.23.05.02.1.04.16.05.01.06.03.11.05.16.05.1.13.17.23.22.06.03.12.05.2.07.02.07.04.14.07.19.05.08.11.15.19.19.06.03.13.05.22.05.1.25.32.31.55.37h0c.14.17.32.3.4.52,0,0,0,0-.01,0-.13-.17-.25-.34-.38-.51.02.26.11.47.38.53.05.28.23.4.51.42.04.11.1.19.16.27.1.11.22.17.36.22.1.03.21.06.32.07.1.24.28.38.56.37,0,0,0,0,0,0,.47.29.94.58,1.41.86l.02.02c.15.44.48.52.89.45.25.18.52.16.79.07.24.07.41.24.6.4h.01c.15.43.48.53.88.5.22.29.48.52.87.55.05.06.11.12.17.17.27.21.59.22.92.22.26,0,.52-.01.76.06.22.37.58.43.97.4.39.4.93.22,1.39.34l.08.15h.18s0-.01,0,0c.38.15.76.29,1.15.39.73.19,1.47.27,2.27.1.16-.04.32-.03.49-.02.26.02.53.06.79.08,0,.12.06.22.16.28.02.04.05.08.07.12.13.23.33.39.61.39.84,0,1.68-.02,2.52-.03.06,0,.13,0,.19,0,.98-.01,1.96-.02,2.94-.04.37,0,.76-.05,1.03-.37.13-.04.26-.09.35-.18.07-.06.13-.14.16-.25.34-.16.67-.32,1.01-.47h.15s0,0,0,0c.31.22.62.29.91.07.05-.04.09-.08.14-.13h.01c.27.04.47-.06.59-.3.12-.02.24-.05.36-.07.18-.04.35-.09.51-.17.15-.08.29-.19.41-.36.28.03.46-.1.56-.35.11,0,.22-.03.31-.05.12-.04.23-.1.32-.18.08-.09.15-.2.19-.35h0c.16-.14.3-.31.48-.43,0,0,0,0,0,0-.16.14-.32.28-.48.43.26-.03.43-.17.49-.43.28-.03.43-.18.45-.47.25-.07.38-.24.41-.49l.02-.02c.26-.03.41-.19.47-.44h0c.25-.01.47-.1.58-.34.13-.04.25-.09.37-.14.23-.1.44-.24.61-.43.11-.13.2-.29.26-.48v-.02c.32-.15.54-.5.96-.45h.01c.03.28.18.43.45.47h0c.04.18.11.3.21.38.05.04.1.07.16.1.13.06.29.09.45.11.08.26.22.43.52.39.42.38.75.87,1.39.91.37.41.75.81,1.28,1.02.05.17.12.31.21.43.07.09.15.17.25.23.15.1.33.16.55.18.25.26.49.52.74.79.4.42.79.84,1.21,1.25.11.1.25.17.4.23.11.04.21.08.31.12.05.16.09.31.16.46.03.07.07.13.12.19.07.08.15.15.26.2.02.38.17.68.54.84h0c.12.18.3.32.39.52,0,0,0,0-.01,0,0,0,0,0,0,0-.12-.17-.25-.34-.37-.5,0,.27.12.45.38.53,0,.12.04.22.09.3.03.04.06.08.1.11.06.04.12.08.21.1.07.28.26.45.52.57-.04-.31-.2-.51-.49-.59,0,0,0,0,0,0,.31.07.46.28.49.6l-.04.16.14.08c.12.16.29.3.36.49,0,0,0,0-.01,0Zm-89.9,8.62c.05-.03.11-.07.15-.09-.04.03-.09.06-.15.1h0Zm-17.95-86.76s.1-.09.17-.13c0,0,0,0,0,0-.06.05-.12.09-.17.13Zm60.36,65.76s0,0,0,0c0,0,0,0,0,0-.05-.26-.2-.41-.46-.45,0,0,0,0,0,0,.27.04.42.19.46.45.09.01.16.04.22.08-.06-.04-.14-.07-.22-.08Zm-2.21-2.39c.15.15.32.29.43.48,0,0,0,0,0,0-.14-.16-.28-.32-.42-.48h0Zm1.93-1.44s0,0,0,0c.02.03.04.06.06.09-.03-.03-.05-.06-.07-.09Zm-2.87-.39c.17.13.32.28.44.46,0,0,0,0,0,0h0s0,0,0,0c-.14-.15-.29-.3-.43-.45,0,0,0,0,0,0,0,0,0,0,0,0,0,0,0,0,0,0,0,0,0,0,0,0-.15-.14-.31-.29-.46-.43h0c.19.11.33.27.47.44Zm-35.41,18.92s0,0,0,0c-.04.03-.08.06-.11.09.03-.03.07-.07.11-.1Zm70.93-9.7c.13-.19.29-.34.47-.48-.16.16-.31.32-.47.48Zm5.44-4.86s.09.06.14.09c0,0,0,0,0,0-.06-.03-.1-.06-.14-.09Zm-37.17-39.03s0,0,0,0c-.02,0-.05-.02-.07-.04.02.01.05.03.07.04Zm22.05-5.95s0,0,0,0c-.18-.12-.33-.27-.45-.45h0c.15.15.3.3.45.44h0Zm25.37,11.99c.15.15.3.3.45.45,0,0,0,0,0,0-.18-.12-.33-.27-.45-.46,0,0,0,0,0,0Zm11.97,7.83s0,0,.01.01c0,0,0,0,0,0h0s0,0,0,0c.15.14.31.28.46.42,0,0,0,0,0,0,0,0,0,0,0,0-.19-.11-.33-.26-.46-.43-.18-.13-.33-.29-.48-.45.16.15.32.3.48.45Zm-111.45-52.41s0,0,0,0h0c-.26.05-.41.2-.46.46h0s0,0,0,0c-.09.01-.16.04-.22.08.06-.04.14-.06.22-.08.04-.27.19-.42.46-.46,0-.08.03-.14.06-.2-.03.06-.05.12-.06.2Zm.85-1.01s.06-.08.09-.12c-.03.04-.06.08-.09.12,0,0,0,0,0,0Zm36.84-19.84h0s0,0,0,0Zm-17.65,4.7c-.08.16-.22.25-.42.27,0,0,0,0,0,0,.2-.03.34-.11.42-.27Zm-22.93,15.56s0,0,0,0c-.12.19-.28.34-.45.48.15-.16.3-.32.45-.48Zm41.88,19.03s0,0,0,0c.06,0,.11,0,.16.02-.05-.01-.1-.02-.16-.02Zm6.98,3.17s0,0,0,0c.19.11.34.26.46.44,0,0,0,0,0,0-.15-.14-.31-.29-.46-.43Zm3.68,16.99s0,0,0,0c-.12.18-.27.33-.45.44,0,0,0,0,0,0,.15-.15.3-.29.45-.44Zm-6.39,28.05h0s0,0,0,0h0Zm-22.24,7.85s0,0,0,0c-.05.24-.2.39-.45.45h0c.24-.06.39-.2.45-.45Zm-5,5.59s0,0,0,0c-.13.17-.29.32-.45.47h0c.15-.16.3-.31.44-.47Zm-6.86,17.69s-.07-.06-.12-.09h0s.08.06.12.09Zm19.89,9.15s0,0,0,0c0,0,0,0,0,0-.17.02-.3.09-.39.21.09-.12.21-.2.39-.21.03-.28.18-.44.47-.45,0,0,0,0,0,0-.26.03-.42.18-.46.44Zm2.2-1.94h0c.14-.17.29-.34.48-.46-.16.15-.32.3-.48.46Zm3.3-2.24s0,0,0,0c.06-.25.21-.4.46-.45,0,0,0,0,0,0-.25.05-.4.2-.46.45Zm42.75,5.03s0,0,0,0c.18.11.33.26.44.45,0,0,0,0,0,0-.15-.15-.3-.3-.45-.46Zm.44.44c.2.12.36.27.46.48,0,0,0,0,0,0-.15-.16-.31-.32-.46-.48Zm3.17,3.3s0,0,0,0c-.02-.16-.09-.28-.19-.37.11.08.18.2.19.37Zm5.53,7.84s0,0,0,0c0,0,0,0,0,0,0-.06-.01-.13-.03-.18.02.05.03.11.03.18.28.03.43.18.46.46,0,0,0,0,0,0-.05-.26-.2-.41-.46-.45Zm14.94,2.75s0,0,0,0c.04-.26.2-.41.45-.47h0c-.25.06-.4.22-.45.47Zm3.04-6.8c.05-.05.11-.1.18-.13,0,0,0,0,0,0-.06.04-.12.09-.18.13Zm-6.27-30.69h0c-.25-.06-.41-.21-.44-.47,0,0,0,0,0,0,.05.25.19.41.44.47Zm-7.41-10.04s0,0,0,0h0s0,0,0,0c.11-.19.26-.33.44-.46,0,0,0,0,0,0-.14.15-.29.31-.43.46Zm5.13-20.03c-.05.05-.11.1-.19.14,0,0,0,0,0,0l.19-.14Zm-.46,1.85c-.04.05-.1.1-.18.14h0c.06-.05.12-.09.18-.14Zm-37.98-11.23s0,0,0,0c.1.01.18.04.24.09-.07-.04-.15-.08-.24-.09Zm.5.43s0,0,0-.01c.22.06.35.23.51.37-.17-.12-.34-.24-.51-.36Zm1.95-1.06s0,0,0,0c.05.07.1.13.15.2-.06-.05-.12-.11-.16-.2Zm-5.03-3.73h0c-.05,0-.1,0-.15-.01.05.01.1.01.15.01Zm-1.46-.84s0,0,0,0c-.18-.12-.33-.28-.47-.44,0,0,0,0,0,0,0,0,0,0,0,0,.16.15.31.29.47.44Zm.12-7.23s0,0,0,0c-.02-.21.07-.33.21-.42-.13.1-.2.24-.21.42Zm1.82-6.53s0,0,0,0c.03-.04.05-.07.08-.1-.02.03-.05.07-.08.1Zm.69.07s0,0,0,0c-.05-.08-.09-.15-.12-.21.04.05.08.12.13.21Zm3.33,1.79s0-.01-.01-.02c.21.09.35.26.49.42h0l-.47-.41Zm18.25,8.3c.08.01.15.04.21.08l-.21-.08Zm5.18,2.34s0,0,0,0c.28.02.43.18.47.45,0,0,0,0,0,0-.05-.26-.21-.41-.47-.45Zm4.24,2.21c-.16-.15-.31-.3-.47-.44,0,0,0,0,0,0,.19.12.34.28.47.45,0,0,0,0,0,0Zm7.75,3.77s0,0,0,0c.27.03.42.19.48.45,0,0,0,0,0,0-.06-.25-.22-.4-.48-.44Zm16.21,10.08s0,0,0,0c.19.11.33.27.47.43h0c-.16-.14-.31-.29-.47-.43Zm11.91,8.35s0,0,0,0c-.01-.07-.03-.13-.06-.19.03.05.05.12.06.19Zm21.1,13.48c.07-.06.17-.1.28-.12,0,0,0,0,0,0-.11.02-.21.06-.28.12Zm1.48-2.81s.09-.09.15-.12h0s-.1.08-.15.12Zm-5.81-56.49s0,0,0,0c.01.08.03.15.07.21-.03-.06-.06-.13-.07-.21Zm-5.07-7.84s0,0,0,0c-.26-.03-.4-.18-.46-.43,0,0,0,0,0,0,.06.24.21.39.46.43Zm-1.37-5.38s-.02,0-.02.01c.05-.22.23-.36.36-.52-.11.17-.23.34-.34.51Zm11.01-13.37s0,0-.01,0c.09-.21.26-.35.43-.49h0c-.14.16-.28.33-.41.49Zm2.38-3.6s0,0,0,0c-.01-.31.16-.45.44-.49h0c-.27.05-.42.22-.44.49Zm11.86-68.8s0,0,0,0c-.16-.14-.33-.28-.43-.49,0,0,.01.01.02.01h0c.14.16.27.31.41.47Zm-17.89-32.34s0,0,0,0c0,0,0,0,0,0,.05.25.21.41.46.46,0,0,0,0,0,0h0c.01.07.03.13.06.19-.03-.05-.05-.12-.06-.19-.26-.05-.41-.2-.46-.46-.27-.05-.42-.21-.47-.48,0,0,0,0,0,0,.05.27.21.43.47.48Zm-3.27-5.03s0,0,0,0c-.2-.1-.35-.25-.48-.44,0,0,0,0,0,0,0,0,0,0,0,0,.16.14.31.28.47.43Zm-4.21-8.24c-.14-.17-.32-.3-.37-.53,0,0,.01,0,.02.01.12.17.23.34.35.51Z"/><path class="cls-1" d="m221.82,470.25c-.2-.13-.41-.25-.61-.38.13.25.32.39.61.38Z"/><polygon class="cls-1" points="255.09 193.66 255.09 193.66 255.09 193.66 255.09 193.66"/><path class="cls-1" d="m256.27,189.68h0s0,0,0,0c-.02-.03-.03-.06-.05-.07.02.03.03.05.05.08,0,0,0,0,0,0Z"/><path class="cls-1" d="m223.19,454.14c-.2-.13-.4-.26-.6-.4.12.24.32.38.6.4Z"/><path class="cls-1" d="m223.71,370.23c-1.05.12-2.17.25-3.08.72-1.61.84-3.41,1.34-4.83,2.54-.5.17-.52.53-.4.96-.06.14-.06.27,0,.41-.12.41-.09.78.33,1.02.21.32.48.62.61.96.83,2.22,1.99,4.23,3.32,6.2,1.25,1.85,2.57,3.56,4.27,5.02,2.02,1.73,4.3,3.09,6.3,4.84,1.28,1.12,2.95,1.79,4.47,2.63,1.19.65,2.45,1.17,3.67,1.75.95.45,1.73,1.2,2.89,1.18.28,0,.62.15.82.35,1.5,1.49,3.59,1.6,5.41,2.27,1.76.64,3.71.73,5.58,1.06.88.75,1.89.35,2.86.31.43.05.87.1,1.3.15.64.6,1.28.55,1.91-.01l.2-.05.21.03c.55.59,1.27.29,1.92.36.28.01.56.03.84.04.94.02,1.88.05,2.82.06.38,0,.71-.12.91-.47h0s0,0,0,0c.23.02.46.05.68.04,2.04-.09,5.58-.96,7.63-1.83.34-.14.74-.23,1.1-.2.57.03,1.05-.2,1.53-.41,1.8-.8,3.72-1.24,5.59-1.86.54.11,1.04.07,1.46-.35.14-.02.27-.05.4-.09.61.04,1.22.09,1.83.11.41,0,.74-.15.86-.6.81-1.32.47-2.44-.49-3.53-.66-.74-1.21-1.57-1.79-2.38-2.27-3.15-4.32-6.49-7.51-8.91-1.74-1.32-3.33-2.85-5.07-4.21-1.82-1.42-3.97-2.36-5.71-3.77-2.85-2.31-6.22-3.09-9.51-4.19-2.52-.85-5.07-1.6-7.61-2.39-.8-.74-1.78-.53-2.73-.5h0q-.69-.55-1.43-.03c-.13.06-.27.06-.41.01-.55-.6-1.22-.56-1.91-.36-.28,0-.56-.01-.83-.02-.53-.04-1.06-.14-1.58-.11-1.19.09-2.43-.16-3.56.47-1.33.21-2.77-.11-3.96.84-.15.12-.44.11-.67.09-1.87-.13-3.59.53-5.35.98-1.1.28-2.15.72-3.3.85Zm7.42,1.08c2.36-.68,4.79-.87,7.22-1.06h0c1.29.01,2.58.03,3.87.03.46,0,.91-.04,1.27-.4.29,0,.58.01.87.02.39.51.91.49,1.45.35,1.28.21,2.53.58,3.85.51.28-.02.66.05.85.23.61.57,1.32.7,2.11.7.63,0,1.18.28,1.68.64.25.17.49.51.78.38,1.03-.43,1.47.56,2.2.85.85.65,1.84.43,2.79.42.3.23.59.66.9.67,1.43.03,2.36,1.19,3.65,1.51.48.12.9.55,1.31.88,1.9,1.51,3.76,3.06,5.7,4.52.71.54,1.64.78,2.12,1.62,2.28,1.21,3.48,3.49,5.25,5.22,1.2,1.18,1.72,2.8,2.91,3.97.54.53,1.03,1.11,1.32,1.82.01.26.1.45.39.49v.02c-.03.14-.07.28-.11.42-.12.04-.24.08-.37.12-.55-.14-1.08-.22-1.46.35-1.9.53-3.82.99-5.55,2.01-.38.22-.86.26-1.3.38-.5.04-1.03-.01-1.41.43-.12.05-.25.08-.39.09-.41-.14-.8-.21-1.03.29l-.04.03c-.75.16-1.6-.14-2.24.48-.12.05-.24.09-.36.13-.68-.07-1.41-.43-1.92.36h0c-2.05.02-4.11,0-6.16.04-.27,0-.53.24-.8.37-2.85-.32-5.7-.7-8.55-.93-.7-.06-1.34-.19-1.99-.38-2.31-.69-4.67-1.21-6.88-2.24-.95-.44-1.85-1.08-2.96-1.14-.14,0-.3-.09-.41-.19-1.17-1.11-2.69-1.63-4.02-2.47,0,0,0,0,0,0-.04-.33-.22-.44-.54-.36-.12-.04-.24-.09-.37-.13-.17-.38-.49-.49-.87-.47-1.65-.9-3.05-2.22-4.81-2.96-.4-.17-.76-.53-1.06-.87-1.69-1.93-3.84-3.39-5.43-5.45-.79-1.03-1.4-2.13-2.04-3.22-.38-.65-.59-1.38-1.15-1.95-.56-.57-.53-1.41-.71-2.14-.04-.17.11-.47.27-.57.51-.33,1.03-.71,1.61-.85,1.47-.36,2.88-.88,4.3-1.38,1.13-.4,2.36-.5,3.55-.7.9-.16,1.84-.18,2.71-.43Z"/><path class="cls-1" d="m246.63,393.34c0,.81.63,1.35.88,2.06.13.37.27.73.72.75.59.02,1.26.32,1.74-.13.77-.71,1.55-1.47,1.86-2.51.48-1.58.9-3.17,1.35-4.76.62-1.04.36-2.18.37-3.29.26-1.02.59-2.04.77-3.07.28-1.56.49-3.13.68-4.7.08-.63-.18-1.12-.77-1.53-1.42-.97-2.67-.93-3.85.38-.41.46-.69.97-.96,1.53-.56,1.17-.68,2.51-1.32,3.59-.57.96-.88,1.9-1.01,2.97-.12,1.06-.29,2.11-.44,3.16-.4.31-.48.62,0,.94,0,.15,0,.3,0,.44-.66,1.29-.67,2.35-.04,4.17Z"/></svg>