<?xml version="1.0" encoding="UTF-8"?><svg id="Daggers" xmlns="http://www.w3.org/2000/svg" viewBox="0 0 480 640"><defs><style>.cls-1{fill:#fffde7;}</style></defs><path class="cls-1" d="m163.53,403.99c.15.15.31.31.46.46-.14-.17-.31-.31-.46-.46Z"/><path class="cls-1" d="m143.72,383.72c.15.15.31.31.46.46-.16-.15-.29-.32-.46-.46Z"/><path class="cls-1" d="m144.18,384.64c.15.15.31.31.46.46-.15-.15-.29-.32-.46-.46Z"/><path class="cls-1" d="m146.49,387.87c.15.15.31.31.46.46-.16-.15-.29-.32-.46-.46Z"/><path class="cls-1" d="m147.87,390.17c.15.15.31.31.46.46-.16-.15-.3-.32-.46-.46Z"/><path class="cls-1" d="m147.41,389.71c.15.15.31.31.46.46-.15-.15-.29-.32-.46-.46Z"/><path class="cls-1" d="m146.95,388.79c.15.15.31.31.46.46-.16-.15-.29-.32-.46-.46Z"/><path class="cls-1" d="m147.87,324.75c-.15.15-.31.31-.46.46.15-.15.32-.29.46-.46Z"/><path class="cls-1" d="m140.03,374.51c.15.15.31.31.46.46-.16-.15-.29-.32-.46-.46Z"/><path class="cls-1" d="m142.8,381.88c.15.15.31.31.46.46-.15-.15-.29-.32-.46-.46Z"/><path class="cls-1" d="m141.42,378.65c.15.15.31.31.46.46-.16-.15-.29-.32-.46-.46Z"/><path class="cls-1" d="m151.09,325.21c-.15-.15-.31-.31-.46-.46.14.17.31.31.46.46Z"/><path class="cls-1" d="m140.5,375.89c.15.15.31.31.46.46-.16-.15-.29-.32-.46-.46Z"/><path class="cls-1" d="m158.46,401.23c.15.15.31.31.46.46-.14-.17-.31-.31-.46-.46Z"/><path class="cls-1" d="m159.85,402.15c.15.15.31.31.46.46-.14-.17-.31-.31-.46-.46Z"/><path class="cls-1" d="m156.16,399.85c.15.15.31.31.46.46-.14-.17-.31-.31-.46-.46Z"/><path class="cls-1" d="m162.15,403.53c.15.15.31.31.46.46-.14-.17-.31-.31-.46-.46Z"/><path class="cls-1" d="m160.77,402.61c.15.15.31.31.46.46-.13-.17-.32-.29-.46-.46Z"/><path class="cls-1" d="m148.8,391.56c.15.15.3.3.45.45-.16-.14-.29-.31-.45-.45Z"/><path class="cls-1" d="m154.78,398.46c.15.15.31.31.46.46-.15-.15-.29-.32-.46-.46Z"/><path class="cls-1" d="m149.25,392.93c.15.15.31.31.46.46-.15-.15-.29-.32-.46-.46Z"/><path class="cls-1" d="m152.47,396.16c.15.15.31.31.46.46-.14-.17-.31-.31-.46-.46Z"/><path class="cls-1" d="m153.4,397.08c.15.15.31.31.46.46-.15-.15-.29-.32-.46-.46Z"/><path class="cls-1" d="m153.86,397.54c.15.15.31.31.46.46-.14-.17-.31-.31-.46-.46Z"/><path class="cls-1" d="m148.33,391.09c.15.15.31.31.46.46-.15-.15-.29-.32-.46-.46Z"/><path class="cls-1" d="m178.28,380.96c-.15-.15-.31-.31-.46-.46.14.16.31.3.46.46Z"/><path class="cls-1" d="m179.2,381.42c-.15-.15-.31-.31-.46-.46.13.17.32.29.46.46Z"/><path class="cls-1" d="m177.82,380.5c-.15-.15-.31-.31-.46-.46.14.17.31.31.46.46Z"/><path class="cls-1" d="m176.89,380.03c-.15-.15-.31-.31-.46-.46.14.16.31.3.46.46Z"/><path class="cls-1" d="m215.6,239.51c-.15.15-.31.31-.46.46.17-.13.29-.32.46-.46Z"/><path class="cls-1" d="m217.9,232.61c-.15.15-.31.31-.46.46.17-.13.29-.32.46-.46Z"/><path class="cls-1" d="m218.36,231.68c-.15.15-.31.31-.46.46.17-.13.29-.32.46-.46Z"/><path class="cls-1" d="m216.98,234.45c-.15.15-.31.31-.46.46.17-.13.29-.32.46-.46Z"/><path class="cls-1" d="m176.43,379.57c-.15-.15-.31-.31-.46-.46.14.17.31.31.46.46Z"/><path class="cls-1" d="m216.52,235.83c-.15.15-.31.31-.46.46.17-.13.29-.32.46-.46Z"/><path class="cls-1" d="m158,364.37c-.15-.15-.31-.31-.46-.46.17.14.29.33.46.46Z"/><path class="cls-1" d="m154.32,346.4c-.15-.15-.31-.31-.46-.46.15.15.29.32.46.46Z"/><path class="cls-1" d="m167.22,374.51c-.15-.15-.31-.31-.46-.46.13.17.32.29.46.46Z"/><path class="cls-1" d="m166.3,374.05c-.15-.15-.31-.31-.46-.46.14.16.31.3.46.46Z"/><path class="cls-1" d="m156.62,360.68c-.15-.15-.31-.31-.46-.46.17.14.29.33.46.46Z"/><path class="cls-1" d="m171.37,376.81c-.15-.15-.31-.31-.46-.46.14.17.31.31.46.46Z"/><path class="cls-1" d="m173.21,378.19c-.15-.15-.31-.31-.46-.46.14.16.31.3.46.46Z"/><path class="cls-1" d="m175.51,379.11c-.15-.15-.31-.31-.46-.46.13.17.32.29.46.46Z"/><path class="cls-1" d="m168.14,374.97c-.15-.15-.31-.31-.46-.46.14.17.31.31.46.46Z"/><path class="cls-1" d="m170.44,376.35c-.15-.15-.31-.31-.46-.46.13.17.32.29.46.46Z"/><path class="cls-1" d="m169.52,375.89c-.15-.15-.31-.31-.46-.46.14.16.31.3.46.46Z"/><path class="cls-1" d="m255.22,449.14c-.15-.15-.31-.31-.46-.46.17.14.29.33.46.46Z"/><path class="cls-1" d="m254.76,451.45c.15-.15.31-.31.46-.46-.17.13-.29.32-.46.46Z"/><path class="cls-1" d="m253.84,445c.15.15.29.32.46.46-.15-.15-.31-.31-.46-.46Z"/><path class="cls-1" d="m254.76,446.38c-.15-.15-.31-.31-.46-.46.16.15.29.32.46.46Z"/><path class="cls-1" d="m254.3,452.37c.15-.15.31-.31.46-.46-.17.14-.31.31-.46.46Z"/><path class="cls-1" d="m222.05,455.13c.15.15.31.31.46.46-.14-.17-.31-.31-.46-.46Z"/><path class="cls-1" d="m219.74,454.21c.15.15.31.31.46.46-.13-.17-.32-.29-.46-.46Z"/><path class="cls-1" d="m250.62,455.12c.15-.15.3-.3.45-.45-.14.16-.31.29-.45.45Z"/><path class="cls-1" d="m218.82,453.75c.15.15.31.31.46.46-.14-.17-.31-.31-.46-.46Z"/><path class="cls-1" d="m220.67,454.67c.15.15.31.31.46.46-.14-.17-.31-.31-.46-.46Z"/><path class="cls-1" d="m334.85,456.05h.08s-.03-.03-.04-.04c-.01.01-.03.03-.04.04Z"/><path class="cls-1" d="m164.45,404.45c.15.15.31.31.46.46-.13-.17-.32-.29-.46-.46Z"/><path class="cls-1" d="m216.98,452.37c.15.15.31.31.46.46-.14-.17-.31-.31-.46-.46Z"/><path class="cls-1" d="m218.82,230.76c-.15.15-.31.31-.46.46.17-.13.29-.32.46-.46Z"/><path class="cls-1" d="m181.96,409.52c.15.15.31.31.46.46-.13-.17-.32-.29-.46-.46Z"/><path class="cls-1" d="m212.37,446.84c.15.15.31.31.46.46-.16-.15-.29-.32-.46-.46Z"/><path class="cls-1" d="m183.35,409.98c.15.15.31.31.46.46-.14-.17-.31-.31-.46-.46Z"/><path class="cls-1" d="m196.71,411.36c.15.15.31.31.46.46-.14-.17-.31-.31-.46-.46Z"/><path class="cls-1" d="m185.19,410.44c.15.15.31.31.46.46-.14-.17-.31-.31-.46-.46Z"/><path class="cls-1" d="m177.36,408.14c.15.15.31.31.46.46-.14-.17-.31-.31-.46-.46Z"/><path class="cls-1" d="m174.13,407.22c.15.15.31.31.46.46-.14-.17-.31-.31-.46-.46Z"/><path class="cls-1" d="m167.68,405.37c.15.15.31.31.46.46-.13-.17-.32-.29-.46-.46Z"/><path class="cls-1" d="m175.97,407.68c.15.15.31.31.46.46-.14-.17-.31-.31-.46-.46Z"/><path class="cls-1" d="m202.7,412.28c.15.15.31.31.46.46-.14-.17-.31-.31-.46-.46Z"/><path class="cls-1" d="m179.2,408.6c.15.15.31.31.46.46-.14-.17-.31-.31-.46-.46Z"/><path class="cls-1" d="m181.04,409.06c.15.15.31.31.46.46-.14-.17-.31-.31-.46-.46Z"/><path class="cls-1" d="m208.69,427.95c.15.15.31.31.46.46-.16-.15-.29-.32-.46-.46Z"/><path class="cls-1" d="m207.3,424.72c.15.15.31.31.46.46-.16-.15-.29-.32-.46-.46Z"/><path class="cls-1" d="m207.76,426.11c.15.15.31.31.46.46-.16-.15-.29-.32-.46-.46Z"/><path class="cls-1" d="m211.91,437.62c.17-.14.31-.31.46-.46-.15.15-.31.31-.46.46Z"/><path class="cls-1" d="m210.07,429.79c.15.15.31.31.46.46-.15-.15-.29-.32-.46-.46Z"/><path class="cls-1" d="m205.46,416.43c.15.15.31.31.46.46-.16-.15-.29-.32-.46-.46Z"/><path class="cls-1" d="m206.84,421.96c.15.15.31.31.46.46-.16-.15-.29-.32-.46-.46Z"/><path class="cls-1" d="m205,415.51c.15.15.31.31.46.46-.16-.15-.29-.32-.46-.46Z"/><path class="cls-1" d="m203.62,412.75c.15.15.31.31.46.46-.14-.17-.31-.31-.46-.46Z"/><path class="cls-1" d="m205.92,417.81c.15.15.31.31.46.46-.16-.15-.29-.32-.46-.46Z"/><path class="cls-1" d="m206.38,418.73c.15.15.31.31.46.46-.17-.14-.29-.33-.46-.46Z"/><path class="cls-1" d="m157.54,363.45c-.15-.15-.31-.31-.46-.46.17.14.29.33.46.46Z"/><path class="cls-1" d="m294.66,236.45s-.05.06-.07.09c0,0,0,0,.01,0,.02-.03.04-.06.06-.09Z"/><path class="cls-1" d="m291.62,337.61s-.02.02-.03.02c.01,0,.02.01.03.02,0-.01,0-.03,0-.04Z"/><path class="cls-1" d="m222.97,224.77c-.15.15-.31.31-.46.46.15-.16.32-.3.46-.46Z"/><path class="cls-1" d="m239.1,208.65c-.15.15-.31.31-.46.46.15-.15.32-.29.46-.46Z"/><path class="cls-1" d="m240.48,207.26c-.15.15-.31.31-.46.46.17-.14.31-.31.46-.46Z"/><path class="cls-1" d="m240.94,206.8c-.15.15-.31.31-.46.46.15-.15.32-.29.46-.46Z"/><path class="cls-1" d="m237.25,210.49c-.15.15-.31.31-.46.46.14-.17.33-.29.46-.46Z"/><path class="cls-1" d="m238.64,209.11c-.15.15-.31.31-.46.46.17-.14.31-.31.46-.46Z"/><path class="cls-1" d="m244.16,204.5c-.15.15-.31.31-.46.46.14-.17.33-.29.46-.46Z"/><path class="cls-1" d="m246.93,202.66c-.15.15-.31.31-.46.46.14-.17.33-.29.46-.46Z"/><path class="cls-1" d="m249.23,201.74c-.15.15-.31.31-.46.46.15-.16.32-.3.46-.46Z"/><path class="cls-1" d="m242.32,205.88c-.15.15-.31.31-.46.46.15-.16.32-.3.46-.46Z"/><path class="cls-1" d="m233.57,214.18c-.15.15-.31.31-.46.46.16-.14.3-.31.46-.46Z"/><path class="cls-1" d="m245.55,203.58c-.15.15-.31.31-.46.46.14-.17.33-.29.46-.46Z"/><path class="cls-1" d="m248.31,202.2c-.15.15-.31.31-.46.46.14-.17.33-.29.46-.46Z"/><path class="cls-1" d="m221.59,226.15c-.15.15-.31.31-.46.46.17-.13.29-.32.46-.46Z"/><path class="cls-1" d="m221.13,227.08c-.15.15-.31.31-.46.46.16-.14.3-.31.46-.46Z"/><path class="cls-1" d="m220.21,228c-.15.15-.31.31-.46.46.17-.14.31-.31.46-.46Z"/><path class="cls-1" d="m219.28,229.84c-.15.15-.31.31-.46.46.17-.14.31-.31.46-.46Z"/><path class="cls-1" d="m219.74,229.38c-.15.15-.31.31-.46.46.16-.14.3-.31.46-.46Z"/><path class="cls-1" d="m277.34,172.71c-.15.15-.31.31-.46.46.17-.13.29-.32.46-.46Z"/><path class="cls-1" d="m229.42,218.32c-.15.15-.31.31-.46.46.17-.13.29-.32.46-.46Z"/><path class="cls-1" d="m227.58,220.16c-.15.15-.31.31-.46.46.14-.17.33-.29.46-.46Z"/><path class="cls-1" d="m232.18,215.56c-.15.15-.31.31-.46.46.15-.16.32-.3.46-.46Z"/><path class="cls-1" d="m223.43,224.31c-.15.15-.31.31-.46.46.16-.14.3-.31.46-.46Z"/><path class="cls-1" d="m225.27,222.01c-.15.15-.31.31-.46.46.17-.14.31-.31.46-.46Z"/><path class="cls-1" d="m225.73,221.55c-.15.15-.31.31-.46.46.15-.15.32-.29.46-.46Z"/><path class="cls-1" d="m272.73,182.39c-.15.15-.31.31-.46.46.16-.14.3-.31.46-.46Z"/><path class="cls-1" d="m269.51,186.07c-.15.15-.31.31-.46.46.15-.16.32-.3.46-.46Z"/><path class="cls-1" d="m273.19,181.46c-.15.15-.31.31-.46.46.17-.13.29-.32.46-.46Z"/><path class="cls-1" d="m268.12,186.99c-.15.15-.31.31-.46.46.15-.16.32-.3.46-.46Z"/><path class="cls-1" d="m268.58,186.53c-.15.15-.31.31-.46.46.15-.15.32-.29.46-.46Z"/><path class="cls-1" d="m275.5,177.78c-.15.15-.31.31-.46.46.16-.14.3-.31.46-.46Z"/><path class="cls-1" d="m276.88,174.55c-.15.15-.31.31-.46.46.17-.13.29-.32.46-.46Z"/><path class="cls-1" d="m273.65,180.54c-.15.15-.31.31-.46.46.17-.13.29-.32.46-.46Z"/><path class="cls-1" d="m276.42,175.47c-.15.15-.31.31-.46.46.17-.13.29-.32.46-.46Z"/><path class="cls-1" d="m274.11,179.62c-.15.15-.31.31-.46.46.17-.14.31-.31.46-.46Z"/><path class="cls-1" d="m267.2,187.91c-.15.15-.31.31-.46.46.16-.14.3-.31.46-.46Z"/><path class="cls-1" d="m263.98,190.22c-.15.15-.31.31-.46.46.14-.17.33-.29.46-.46Z"/><path class="cls-1" d="m254.76,198.05c-.15.15-.31.31-.46.46.14-.17.33-.29.46-.46Z"/><path class="cls-1" d="m253.84,198.51c-.15.15-.31.31-.46.46.14-.17.33-.29.46-.46Z"/><path class="cls-1" d="m251.54,200.35c-.15.15-.31.31-.46.46.14-.17.33-.29.46-.46Z"/><path class="cls-1" d="m256.14,197.13c-.15.15-.31.31-.46.46.15-.16.32-.3.46-.46Z"/><path class="cls-1" d="m250.61,200.81c-.15.15-.31.31-.46.46.14-.17.33-.29.46-.46Z"/><path class="cls-1" d="m261.67,192.06c-.15.15-.31.31-.46.46.14-.17.33-.29.46-.46Z"/><path class="cls-1" d="m258.91,194.36c-.15.15-.31.31-.46.46.15-.15.32-.29.46-.46Z"/><path class="cls-1" d="m249.69,201.28c-.15.15-.31.31-.46.46.15-.15.32-.29.46-.46Z"/><path class="cls-1" d="m264.9,189.3c-.15.15-.31.31-.46.46.17-.14.31-.31.46-.46Z"/><path class="cls-1" d="m260.75,192.98c-.15.15-.31.31-.46.46.16-.14.3-.31.46-.46Z"/><path class="cls-1" d="m259.83,193.9c-.15.15-.31.31-.46.46.15-.16.32-.3.46-.46Z"/><path class="cls-1" d="m308.2,313.69c-.15.14-.3.27-.44.41.29.02.42-.13.44-.41Z"/><path class="cls-1" d="m238.19,304.02c.15-.15.29-.31.44-.46-.26.04-.41.2-.44.46Z"/><path class="cls-1" d="m339.6,452.92s-.04-.06-.06-.09l-.08.07s0,0,0,0c.03-.02.06-.05.09-.07.03-.24.06-.48.08-.71.05-.48.06-.96-.03-1.43-.07-.38-.22-.75-.49-1.1,0-.24.06-.49.1-.74.05-.35.05-.68-.22-.97-.06-.07-.14-.13-.24-.19-.01-.31-.04-.61-.04-.91,0-.06,0-.11,0-.17.02-.51-.05-.99-.29-1.43-.05-.09-.1-.17-.17-.25.03-.08.04-.15.05-.22.02-.19,0-.37-.04-.56-.04-.17-.1-.33-.15-.5,0-.49,0-.97.01-1.46.05-.13.04-.26-.01-.38.03-.1.05-.2.07-.3.09-.54,0-1.04-.35-1.5-.03-.04-.05-.07-.08-.11-.19-.6.18-1.35-.46-1.84.08-.44.08-.86.04-1.27-.04-.39-.13-.76-.24-1.13-.19-.64-.46-1.27-.69-1.91l.02-.18-.15-.1c-.07-.48.06-1.01-.35-1.4.03-.25,0-.47-.07-.67-.05-.16-.13-.32-.21-.47-.22-.38-.5-.74-.64-1.16.01-.1,0-.19,0-.27-.05-.21-.2-.36-.37-.51-.05-.04-.09-.08-.14-.11-.02.02-.03.03-.05.05,0,0,0,0,0,0l.05-.05s0-.09,0-.13c.02-.27.02-.53-.18-.69-.06-.05-.14-.09-.25-.12-.07-.38-.12-.77-.44-1.04l.03-.2-.16-.13c.03-.27-.1-.42-.34-.49-.01-.16-.02-.32-.05-.48-.03-.16-.09-.31-.23-.42-.03-.03-.07-.05-.11-.08,0-.05-.02-.1-.03-.15-.08-.29-.27-.51-.47-.72,0,0,0,0,0,0,0,0,0,0,0-.01.06-.37,0-.7-.18-.98-.08-.12-.19-.24-.34-.34,0-.18,0-.37-.03-.53-.02-.08-.06-.15-.11-.22-.07-.08-.16-.14-.3-.19-.03-.27-.18-.43-.45-.47-.02-.13-.04-.25-.07-.37-.05-.23-.13-.44-.33-.61-.05-.12-.11-.25-.16-.37,0-.18-.04-.32-.15-.42-.05-.04-.11-.08-.18-.1-.01-.38-.23-.62-.55-.8l-.03-.05c-.12-.2-.3-.38-.36-.61.09-.14.06-.25-.09-.33.03-.19.05-.39.02-.56-.02-.12-.07-.22-.16-.32-.04-.05-.09-.09-.16-.13-.06-.37-.21-.67-.57-.84-.07-.62-.5-.99-.95-1.35h0c-.14-.18-.31-.32-.37-.54,0,0,0,0,.01,0,.12.17.24.35.36.52.02-.28-.08-.47-.35-.55-.07-.35-.23-.64-.57-.8l-.02-.03h0c0-.28-.16-.42-.41-.49,0-.14-.02-.27-.05-.38-.08-.3-.26-.51-.59-.59-.06-.01-.13-.02-.21-.03-.09-.25-.28-.35-.55-.36h-.01s0,0,0,0h0c-.14-.16-.3-.3-.43-.47h0c.14.16.29.32.43.47-.05-.24-.2-.4-.43-.48,0-.17.02-.34,0-.5-.02-.16-.08-.3-.23-.4-.05-.03-.1-.06-.17-.08-.05-.26-.22-.4-.46-.48,0-.1-.02-.19-.05-.27-.12-.32-.4-.55-.61-.82-.66-.83-1.52-1.43-2.34-2.07-.39-.3-.78-.62-1.13-.97-.02-.12-.06-.21-.12-.28-.03-.03-.05-.06-.08-.08-.07-.06-.17-.11-.28-.13-.08-.27-.26-.39-.55-.37h0c-.2-.33-.52-.45-.88-.5-.06-.26-.24-.39-.5-.42-.04-.26-.14-.47-.44-.51-.19-.22-.39-.44-.6-.64-.17-.12-.33-.25-.49-.39-.22-.15-.47-.26-.75-.34-.07-.25-.22-.41-.5-.42.16.14.32.28.48.42,0,0,0,0,0,0-.19-.11-.33-.27-.48-.41h0c-.28-.57-.84-.45-1.32-.54-.15-.19-.31-.38-.46-.57l.05-.17-.14-.1c0-.11-.03-.2-.06-.27-.08-.16-.22-.23-.39-.25-.11-.02-.24-.02-.35-.03-.08-.23-.21-.41-.47-.46-.06-.28-.25-.4-.54-.38h0s0,0,0,0c-.2-.36-.53-.45-.91-.47-.28-.22-.56-.44-.86-.64-.28-.19-.58-.36-.89-.48-.32-.12-.66-.2-1.04-.19l-.03-.03h0c-.09-.19-.21-.32-.33-.4-.21-.15-.45-.18-.7-.16-.25.02-.51.07-.76.08h0s0,0,0,0c0,0,0,0,0,0-.14-.15-.3-.27-.49-.36l-.06-.06h0c-.76-.8-1.81-.12-2.65-.52-.2-.37-.61-.33-.93-.47-.04-.05-.07-.1-.11-.14-.29-.33-.66-.37-1.05-.3-.1.02-.21.04-.31.07,0,0,0,0,0,0-.13,0-.25-.04-.36-.11,0,0,0,0,0,0h0s-.01-.01-.02-.02c-.23-.31-.57-.35-.92-.35-.5,0-.99.02-1.49.04h0s-.06,0-.09,0c-.39-.04-.78-.07-1.17-.11-.28-.48-.77-.36-1.2-.39-.52-.03-1.05-.04-1.57-.06h0c-.05-.04-.1-.08-.15-.12-.85-.63-1.8-.28-2.72-.19,0,0-.02,0-.03,0,0,0,0,0,0,0-.02-.01-.05-.02-.07-.03-.08-.04-.17-.08-.25-.11-.12-.09-.23-.26-.35-.27-1.5-.07-3-.25-4.5-.21-.4,0-.8.03-1.2.08-.91-.01-1.81-.02-2.72-.03h0c-.14-.32-.41-.44-.73-.38-.38.07-.73.02-1.08-.12.03-.3.02-.58-.06-.84-.03-.08-.07-.16-.1-.25-.06-.12-.14-.23-.23-.33,0-.03.02-.05.02-.08.17-.53.01-.94-.47-1.28-.3-.21-.56-.47-.83-.72-.06-.06-.12-.12-.19-.17,0-.04,0-.08,0-.12-.02-1.32-.04-2.63-.06-3.95,0-.18,0-.37,0-.55,0-.28-.01-.57-.02-.85,0-.34-.02-.67-.03-1.01.1-.12.13-.25.09-.41h0s0,0,0,0c.59-.33.36-.91.41-1.4l.1.05c.13-.06.21-.14.28-.23.1-.13.15-.3.14-.5,0-.21,0-.41,0-.62,0-.33,0-.65,0-.98.13-.11.17-.25.1-.41.37-.4.36-.92.4-1.41.62-.68.33-1.53.46-2.31.57-.52.26-1.25.42-1.87.43-.37.53-.84.47-1.38.14-.13.27-.27.36-.42.11-.17.18-.36.19-.56,0-.12,0-.24-.04-.37.22-.28.42-.58.37-.97l.14-.1-.05-.16s0,0,0,0c.29-.3.44-.66.46-1.08.5-.36.27-.94.41-1.42.2-.1.31-.24.38-.39.01-.05.03-.1.05-.15.06-.26.02-.55.06-.82.34-.19.47-.51.54-.87.05-.02.09-.05.13-.08.32-.21.35-.5.33-.82-.01-.17-.04-.35-.05-.51.23-.09.39-.24.41-.51-.14.16-.27.33-.41.49,0,0,0,0,0-.01,0,0,0,0,0,0,.1-.19.26-.33.41-.48h0s0,0,0,0h0s0,0,0,0c.25-.24.45-.52.61-.82.01-.02.02-.05.04-.07.15-.28.26-.59.35-.9.54-.68.46-1.6.87-2.33,0,0,0,0,0,0,0,0,0,0,0,0h0s0,0,0,0c.16-.17.28-.36.37-.55.13-.26.19-.54.18-.84,0-.15-.02-.3-.06-.45.3-.25.36-.6.4-.96h0s0,0,0,0c.19-.07.32-.18.41-.32.02-.03.03-.06.05-.09.06-.13.08-.28.07-.46.12-.09.21-.2.3-.31.19-.26.31-.55.39-.85.07-.24.11-.49.18-.73.61-.47.07-1.27.5-1.8,0,0,0,0,0,0,0,0,0,0,0,0h0c.4-.21.5-.55.43-.97.05-.05.08-.1.11-.15.26-.36.43-.75.36-1.23.42-.72.5-1.51.43-2.32.28-.25.48-.53.44-.93h0s0-.01,0-.01c.52-.5.25-1.23.5-1.81h0s.05-.06.07-.1c.44-.6.45-.68.06-1.22-.03-.04-.05-.08-.09-.12-.07-.13-.09-.26-.05-.4,0,0,0,0,0,0,.18-.2.3-.42.38-.64.1-.27.13-.56.12-.85,0-.44-.08-.89-.11-1.33l.04-1.03s0-.05,0-.07c0,0,0-.02,0-.03l.03-.64s.08-.02.11-.04c.09-.03.18-.06.27-.09.04-.73.07-1.46.11-2.19.7-.66.44-1.51.43-2.3.42-.56.5-1.19.4-1.87.04-.14.08-.28.12-.43.33-.42-.03-.87.04-1.3.12,0,.22-.05.29-.16h0c.72-.27.58-.82.46-1.37.08-.14.08-.29.02-.44l.1.06c.39-.23.51-.55.38-.98.04-.28.08-.55.12-.83.35-.22.43-.56.44-.93.24-.09.34-.28.31-.53l.14-.07-.03-.16c.35-.27.47-.65.5-1.07.24-.1.33-.3.33-.56l.02-.03c.34-.17.5-.46.54-.82.25-.06.4-.22.46-.47,1.44-.77,2.87-1.53,4.31-2.3,0,0,0,0,0,0l.13.06.1-.11c.52,0,1.03,0,1.42-.42.29.02.44-.14.52-.39.66.03,1.31.04,1.8-.52.47-.09.98-.1,1.31-.53h.02c.31,0,.54-.13.69-.4,0,0,0,0,0,0,0,0,0,0,0,0l.14.05.09-.12c.44.04.85-.02,1.16-.38h0,0s.16.03.16.03l.07-.14c.16-.12.31-.26.44-.41h.01c.16-.15.29-.33.5-.4,0,0,0,0,0,0,0,0,0,0,.01,0-.17.13-.34.26-.51.38.24-.05.43-.15.52-.38.39.02.68-.17.9-.48.63.02.84-.39.93-.91.35-.06.75-.03.95-.42.28-.02.44-.17.51-.42.29-.07.46-.23.45-.55h0c1.17-.8,2.5-1.42,3.15-2.81.09-.19.32-.34.51-.43.78-.39,1.16-1.14,1.71-1.75,1.34-1.46,1.74-3.54,3.29-4.83.1-.09.17-.26.19-.4.22-1.41,1.2-2.6,1.19-4.08.42-.15.5-.5.5-.89-.01-1.48-.21-2.95-.06-4.43.02-.23-.27-.49-.41-.74h0c-.03-.13-.07-.26-.13-.38.03-.49.06-.98.08-1.47.01-.37-.09-.7-.42-.91-.18-.75-.35-1.49-.53-2.24,0-.8.32-1.66-.48-2.29-.76-2.22-1.26-4.53-2.27-6.66-.06-.14-.11-.29-.12-.44-.16-2.11-1.42-3.63-2.71-5.14-.52-.61-1.26-.54-1.74.14-.53.75-.82,1.58-1.03,2.49-.78,3.36-2.4,6.08-5.91,7.23-.94.06-1.94-.22-2.79.43,0,0,0,0,0,0-.12.02-.24.02-.37,0-.43-.39-.92-.49-1.48-.35h0s0,0,0,0c-.3-.07-.59-.16-.89-.21-2.29-.4-4.04-2.04-6.19-2.75-1.39-1.62-3.36-2.52-4.95-3.91-1.5-1.31-2.85-2.6-3.76-4.42-.74-1.48-1.88-2.74-2.46-4.32-.83-.55-1.12-1.46-1.37-2.31-.26-.88-1.21-1.43-1.09-2.46-.8-1.05-.83-2.44-1.53-3.53-.83-1.29-1.2-2.75-1.57-4.2-.17-.67-.26-1.36-.69-1.92-.8-1.06-1.09-2.3-1.35-3.56.01-.81.24-1.61.04-2.42.45-.73.23-1.67.63-2.38.59-1.06,1.3-2.08,2.06-3.02.56-.7,1.21-1.34,2.18-1.59.58-.15,1.09-.54,1.63-.82.77.01,1.55.03,2.32.04h0c.22.33.51.55.88.68,2.56.87,4.44,2.74,6.37,4.5.71.64,1.4,1.52,1.64,2.41.39,1.46.99,2.86,1.33,4.34.19,1.04.41,1.12,1.34.53h0c.79-.17,1.35-.46,1.52-1.42.13-.74.34-1.48.34-2.24.42-.38.53-.86.44-1.41.62-1.35.27-2.79.37-4.19,0-.29,0-.58,0-.87l.04-2.35s0,0,0,0c0-.3,0-.6,0-.89v-.49c-.02-.29-.03-.58-.04-.88h0c.13-.68.41-1.39-.38-1.88l.02-.03c0-.67.03-1.35.02-2.02-.01-.59.07-1.22-.45-1.67-.11-.45-.18-.92-.54-1.25-.3-.28-.51-.61-.41-1.01.16-.68-.23-1.17-.52-1.7-.73-1.33-1.4-2.7-2.19-3.99-.59-.97-1-2.02-1.75-2.94-.68-.84-.79-2.09-1.4-3.09-.47-.78-.53-1.58.35-2.42.77-.73,1.42-1.53,2.39-2.03.67-.35,1.23-.91,1.82-1.39,1.7-1.4,3.03-3.23,5.01-4.31.26-.14.48-.38.7-.6,1.03-1.01,1.96-2.13,3.08-3.03,2.82-2.26,4.54-5.23,5.88-8.5.37-.9.43-1.77.02-2.66.7-1.06.43-2.11-.01-3.16,0,0,0,0,0,0l.07-.16-.13-.11c.07-.39.05-.76-.3-1.01.17-.71-.05-1.29-.6-1.76.01-.52-.06-1.01-.43-1.4.05-.41,0-.77-.43-.95-.05-.28-.24-.39-.5-.44-.1-.31-.2-.62-.3-.94-.01-.16-.04-.32-.15-.46-.05-.61-.33-1.09-.83-1.43-.03-.37-.07-.75-.48-.93-.07-.3-.27-.48-.53-.62.04.32.19.54.5.64,0,0,0,0,0,0-.33-.08-.48-.3-.5-.64l.06-.1-.08-.09c.11-.94-.46-1.6-.97-2.28h0s-.02-.02-.02-.02c-.12-.23-.25-.46-.37-.7,0,0,0,0,0,0,0,0,0,0,0,0l.06-.14-.12-.09c.06-.29-.08-.45-.32-.55.08-.59-.06-1.11-.53-1.52,0,0,0,0,0,0l.04-.15-.13-.08c.04-.28-.07-.46-.32-.55-.03-.37-.15-.69-.52-.87.01-.39.07-.79-.38-.99-.16-.3-.33-.59-.49-.89-.1-.62-.63-.91-1.01-1.31.01-.39-.12-.71-.43-.95-.03-.51-.08-1.02-.1-1.53-.01-.32-.1-.57-.41-.7h0s0,0,0,0l-.02-.02c-.12-.17-.3-.3-.37-.5,0,0,0,0,0,0,0,0,0-.01,0-.02.12.17.24.34.36.52-.02-.25-.14-.43-.37-.54-.09-.68-.59-2-1-2.66h0s0,0,0,0l-.02-.03c0-.25-.08-.45-.31-.57.05-.91-.5-1.56-1.01-2.21-.06-.5.14-1.08-.43-1.42-.09-.48-.05-1.01-.45-1.38.03-.3-.16-.44-.41-.54-.34-1.26-.88-2.43-1.43-3.6,0,0,0,0,0,0-.03-.67-.58-.96-.97-1.37.06-.53.21-1.09-.41-1.41-.05-.36-.1-.72-.45-.93.04-.15.02-.28-.08-.41h0c-.13-.7-.39-1.34-.9-1.86-.22-.31-.48-.58-.53-1-.04-.3-.13-.6-.46-.74h0s.07-.12.07-.12c.07-.4-.14-.71-.36-1.01h0c-.07-.35-.14-.7-.54-.83h0c-.14-.16-.29-.32-.43-.48-.02-.39-.16-.7-.55-.86,0,0,0,0,0,0h0c-.1-.22-.2-.44-.3-.67-.03-.11-.07-.21-.13-.3h0s0,0,0,0c0,0,0,0,0,0-.26-.88-.81-1.58-1.36-2.29,0,0,0,0,0,0-.04-.37-.07-.74-.43-.97,0-.39-.12-.72-.54-.86h0c-.17-.14-.33-.29-.44-.48-.19-.11-.34-.26-.45-.45,0,0,0,0,0,0h0c.15.14.29.29.44.44,0,0,0,0,0,0,0,0,0,0,0,0,0,0,0,0,0,0,.15.16.29.32.44.48-.02-.27-.16-.45-.43-.49-.04-.27-.21-.4-.45-.46-.04-.36-.03-.75-.42-.95-.03-.61-.34-.92-.96-.92h0s0,0,0,0c-.95-.58-1.6-.58-2.44-.03,0,0,0,0,0-.01v.02s-.01,0-.01,0c0,0,0,0,0,0,0,0,0,0,0,0-.57.97-.49,1.93.06,2.88-.05.13-.06.26-.02.4-.14.15-.29.31-.43.46-.28.18-.37.46-.38.77-.02.98-.04,1.96-.06,2.94-.2.92.37,1.84,0,2.76,0,0,0,0,0,0h0c-.74.84-.4,1.84-.43,2.79.01.29.02.57.03.86-.16.55-.27,1.08.3,1.48h0s.11-.06.11-.06c0,.3-.02.6-.02.91-.58.62-.53,1.25-.04,1.9.01.14.04.28.07.42l-.11-.06c-.37.21-.44.57-.43.94.03,1.1.07,2.19.1,3.29-.07.14-.08.28-.03.43h0c-.31.15-.38.31-.06.51,0,.27.01.55.02.82-.14.17-.38.33-.39.5-.05,2.01-.23,4.03.05,6.04-.23.56-.04,1.03.34,1.44,0,0,0,0,0,0l-.08.12.07.12c-.18.19-.36.39-.54.58,0,.05,0,.09.01.14.05.57.09,1.14.14,1.71l-.11-.06c-.95,1.1.1,2.49-.53,3.64h0c-.34.37-.32.82-.31,1.28.01.52,0,1.05,0,1.58-.08.11-.11.23-.11.36-.13-.01-.23.04-.31.15-.57.69-.58,1.48-.43,2.31-.07.25-.14.49-.21.74-.13-.01-.23.03-.31.14-.41.1-.55.41-.63.78-.23.45-.39.91-.37,1.43l.08.11c-.9,1.05-1.59,2.22-1.91,3.58-.16.3-.33.6-.49.91-.27.07-.42.24-.39.53-.31.2-.44.52-.54.86-1.14.39-1.8,1.25-2.24,2.33h0c-.31.22-.45.54-.51.9-.25.08-.36.27-.4.52-.45.13-1,0-1.3.5h0l-.04.03c-.27,0-.45.11-.5.39-.5.13-.56.66-.87.96-1.12.15-1.63,1.1-2.36,1.77-.31.02-.42.21-.44.49-.32.12-.71.11-.89.48h-.01c-.15.16-.29.33-.49.42,0,0,0,0,0-.01,0,0,0,0,0,0,.16-.13.33-.27.49-.4-.3-.03-.44.15-.51.41-1.14.4-1.94,1.13-2.27,2.33-.46.13-1.05-.11-1.33.49,0,0,0,0,0,0l-.02.02c-.27.01-.44.15-.47.43h0c-1.2.93-2.31,1.95-3.31,3.1-.35.09-.74.13-.88.55-.44.32-.89.64-1.33.96h0c-.15.16-.28.33-.5.41,0,0,0,0,0-.01,0,0,0,0,0,0,.16-.13.33-.26.49-.39-.3-.03-.44.14-.52.4-.36.04-.63.23-.82.54l-.03.02c-.17.12-.3.32-.52.36,0,0,0-.01.01-.02.17-.11.34-.23.51-.34-.27-.02-.46.09-.54.35-.4.07-.79.17-1.08.49,0,0,0,0,0,0h-.17s-.07.14-.07.14c-.28-.03-.42.11-.46.37h0c-.26.01-.46.12-.56.37-.83.35-1.66.7-2.47,1.07-.11.05-.16.22-.24.34-.38.02-.7.13-.87.52h0c-.14.17-.29.33-.48.44,0,0,0,0,0,0,.16-.14.32-.29.48-.43-.3,0-.44.16-.49.43-.25.03-.44.14-.54.38-.71.11-1.14.71-1.74,1.03h0c-.31-.03-.48.1-.52.4-.26.08-.34.29-.37.54h0s-.02.02-.02.02c-1.57.55-2.57,1.69-3.29,3.13-.16.15-.32.29-.47.44-.39,0-.72.12-.88.53-.27.01-.45.14-.51.41-.27.05-.4.23-.44.48-.26.04-.42.18-.48.44-.26.04-.42.18-.48.45-.27.06-.4.24-.43.51-.59.5-1.34.88-1.43,1.78-.23.07-.38.23-.46.45-.37.04-.73.1-.87.52-.45.18-.62.61-.86.97h0s0,0,0,0c-.15.16-.29.33-.51.39,0,0,0-.01,0-.02,0,0,0,0,0,0,.17-.13.34-.25.51-.38-.28,0-.45.13-.53.38-.78.09-.79.78-1,1.32-.35.08-.67.2-.75.62-.37.12-.52.41-.62.75-.35.08-.71.15-.84.56-.34.31-.67.61-1.01.92h0s-.2-.03-.2-.03l-.1.17c-.44.09-.45.45-.51.78-.25.05-.4.2-.47.45-.56.05-.92.31-.92.92-.22.09-.4.22-.47.46-.29.01-.42.18-.47.45-.26.06-.41.22-.43.49-.25.06-.41.21-.44.48-.29.04-.39.24-.41.5l.05.05s0,0,0,0c-.02-.02-.03-.04-.05-.06-.59.44-.87,1.05-1.02,1.74-.15.31-.3.62-.45.94-.27.05-.44.2-.43.5-.35.18-.53.47-.54.87-.47.37-.44.89-.42,1.41-.24.08-.38.24-.41.5-.47.16-.54.51-.47.94-.15.09-.18.2-.11.35-.23.12-.31.32-.3.57h0v.02c-.59.47-.66,1.1-.56,1.78-.63.66-.42,1.62-.84,2.35-.47.61-.61,1.23-.06,1.87.02.16,0,.3-.09.44-.56.39-.32.92-.24,1.42-.01.28-.03.56-.04.83-.19.44-.12.79.36,1,.52.82-.34,1.93.54,2.68l.02.03c.12.18.31.31.36.52,0,0,0,0-.01,0-.12-.17-.23-.35-.35-.52-.02.28.09.46.35.55.03.27.19.42.44.48.29.58-.15,1.35.44,1.85.62,1.04,1.29,2.04,2.32,2.74.07.35.21.66.59.78l.04.04c.13.42.5.43.84.51.09.89.73,1.37,1.38,1.84,0,.3.16.46.47.45h0c.67.71,1.23,1.54,2.15,1.97.09.35.18.69.59.8.03.28.22.4.46.46.02.26.13.45.39.52.04.26.18.43.45.48.09.27.27.39.56.33l-.05.11c.15.15.29.3.44.45.07.35.1.74.57.81l.17.12s.14,0,.19-.01c.09.25.28.34.53.36l.03.02c.14.39.44.52.82.53,0,.02,0,.03,0,.05.03.12.05.23.06.35h0s.22,0,.22,0c0,0,.16.04.2.05.07.47-.09,1.02.53,1.26l.06.04c.48.59.82,1.35,1.71,1.47,0,0,.01,0,.02,0h0s0,0,0,0c.2.08.34.25.49.39h0s0,.01,0,.01c0,.27.08.48.36.55.05.27.23.41.49.46.56,1.27,1.58,2.09,2.74,2.77.25.67.68,1.16,1.37,1.39.07.25.22.41.49.45.06.27.25.39.52.41.48.53.97,1.06,1.43,1.6.47.55,1.03.97,1.72,1.21.1.34.18.68.57.81h0s0,0,0,0v.02c.28.54.65.96,1.29,1.01.1.24.3.33.54.35l.02.02c.03.26.18.41.44.45h.01c.15.17.31.31.43.5.18.12.34.27.46.46,0,0,0,0,0,0,0,0,0,0,0,0-.15-.15-.3-.3-.45-.45,0,0,0,0,0,0,0,0,0,0,0,0h0s0,0,0,0c0,0,0,0,0,0,0,0,0,0,0,0-.14-.16-.28-.32-.43-.48.02.27.14.45.42.49.03.27.19.42.46.47.04.28.18.43.48.39l.11.15.17-.05c.32.18.64.36.97.54.06.47.35.77.73,1.03,1.01.7,2.01,1.41,3.01,2.11l.12.86-.13.08.04.15c-.17.37-.33.75-.5,1.12h0s0,0,0,0h0s0,0,.01,0c-.32.95-1.13,1.55-1.67,2.34l-.17.1.03.2c-.17.33-.34.65-.51.98-.36.05-.61.25-.77.58l-.04.03c-.5.09-.47.49-.5.86h0c-.13.18-.28.33-.45.46,0,0,0,0,0,0-.29,0-.47.13-.51.42-.47.18-.38.6-.4.97h0c-.24.08-.39.23-.44.49l.04.04s0,0,0,.01c-.01-.02-.03-.04-.04-.06-.26.03-.44.16-.48.43h0s0,0,0,0c-.51.12-.46.53-.47.91-.29.31-.58.63-.87.94h0s-.03.03-.03.03c-.44.12-.48.48-.51.85-.24.08-.36.25-.4.5.13-.16.26-.33.4-.49,0,0,0,0,0,0-.1.18-.27.32-.39.49l-.02.02h0c-.25.04-.44.14-.46.43h0s0,0,0,0c-.55.3-.44,1.02-.89,1.38h-.03c-.17.15-.3.33-.51.4,0,0,0,0,0-.01.17-.13.34-.25.51-.38-.28-.02-.46.11-.52.37-.25.03-.43.15-.53.39-.17-.04-.28.02-.33.19-.28-.02-.44.1-.49.37-.28.03-.43.18-.48.45-.29.05-.51.19-.65.45.11-.01.21-.04.3-.08-.09.05-.19.08-.3.08l-.13-.05-.09.11c-.42-.07-.68.15-.88.48l-.03.02c-.17.12-.31.29-.5.4-.11.19-.27.34-.44.48.14-.16.29-.32.43-.48,0,0,0,0,0,0,0,0,0,0,0,0,.16-.13.33-.27.49-.4-.28-.01-.46.11-.5.4-.28.04-.41.22-.43.49h0s0,0,0,0c-.15.15-.29.31-.44.46h0s-.02.02-.02.02c-.16.14-.3.3-.48.42,0,0,0,0,0,0,.16-.14.32-.28.48-.42-.26.03-.44.15-.48.42-.29.02-.4.19-.38.47l-.15.1.02.18c-.25.11-.4.31-.48.56-.36.04-.75.03-.94.45-.45.19-.36.61-.41.98-.24.06-.41.2-.46.46-.27.03-.44.16-.48.44-.25.06-.4.21-.48.46-.56.08-.89.37-.83.99l-.13.13.06.17c-.25.13-.38.35-.42.62-.27.03-.45.17-.47.46h0s0,0,0,0c0,0,0,0,0,0-.47.61-.93,1.21-1.4,1.82-.47.12-.49.5-.53.88-.25.09-.37.26-.31.54-.16.09-.19.22-.08.37-.31.48-.87.79-.93,1.44-.25.06-.41.22-.44.48-.27.04-.4.2-.38.47l-.15.08.02.17c-.27.14-.42.36-.4.68-.37.21-.39.57-.44.93h0c-.78.42-.42,1.17-.53,1.79-.33.21-.42.55-.48.9-.25.06-.4.21-.45.47-.27.06-.42.22-.41.51-.49.3-.54.8-.58,1.29-.24.07-.4.22-.41.5-.51.38-.34.94-.38,1.45-.87.68-.81,1.87-1.46,2.67,0,0,0,0,0,0-.37.21-.48.55-.5.94-.33.32-.67.64-1,.96,0,0,0,0,0,0h-.03c-.22-.3-.44-.59-.67-.88.09-.16.07-.29-.07-.41.08-.99.34-1.99-.33-2.89-.31-1.6.45-3.3-.38-4.85-.03-.06-.06-.12-.1-.18-.04-.12-.03-.25.02-.37.64-.66.5-1.28-.09-1.88h0s0,0,0,0c-1.06-.78-2.04-.97-2.76.43-.01.14-.03.28-.04.42-.53.52-1.03,1.05-.87,1.88-.3.24-.41.57-.42.94l-.02.03c-.9.45-1.64,1-1.54,2.15-.43.2-.81.45-.84.99-.63.44-.67,1.19-.92,1.83-.35.21-.5.52-.49.92-.42.39-.19.97-.39,1.43-.51.13-.5.51-.47.92-.66.51-.26,1.25-.4,1.88l-.02.02c-.49.21-.56.66-.6,1.1-.04.35-.02.71-.02,1.07-.25.07-.41.22-.39.52-.42.56-.2,1.27-.4,1.88-.6.63-.31,1.5-.58,2.22-.58.52-.09,1.29-.43,1.87-.77.69-.01,1.62-.35,2.37h0s0,0,0,0c-.25.05-.39.21-.47.45-.51.56-.54,1.22-.38,1.91-.05.13-.08.26-.09.39-.41.39-.6.84-.43,1.41-.05.13-.08.26-.08.39-.4.41-.52.89-.38,1.45-.02.29-.04.58-.07.87-.53.49-.53,1.15-.55,1.79-.44.39-.34.94-.39,1.44h0s0,0,0,0h0s0,0,0,0c-.43,1.19-1.15,2.32-.92,3.68-.27.17-.37.42-.37.73,0,.53-.04,1.05-.07,1.57-.62.47-.6,1.17-.48,1.8.12.65.11,1.29.08,1.93.11,1.27.29,2.52.81,3.7,0,0,0,0,0,0-.06.42.07.75.46.95.07.41.15.82.22,1.23.06.41.35.56.7.62.38,1.34.49,2.83,1.93,3.6h0c.13.5-.07,1.07.37,1.49,0,0,0,0,0,0,0,0,0,0,0,0,.48.87-.35,1.94.39,2.77.05.28.1.56.16.83l-.08-.05c-.49.25-.49.71-.48,1.16.04,1.63.09,3.27.13,4.9-.01.45-.02.9-.04,1.35h0s0,0,0,0c-.42.19-.41.53-.34.91.06.28.08.58.12.86l-.15-.05-.1.13c-.15-.07-.29-.07-.43.02-2.07-.19-4.13-.25-6.16.36-1.32,0-2.64.02-3.97.02h0c-.14-.02-.29-.04-.43-.07h0s0,0,0,0c-.72-.46-1.51-.5-2.32-.43-.67-.69-1.53-.4-2.32-.43-.66-.62-1.52-.28-2.27-.49-.21-.4-.56-.49-.98-.4l-.1-.12-.15.06c-.13-.27-.34-.43-.66-.41-.47-.61-1.24-.21-1.8-.53-.72-.72-1.6-.28-2.42-.32-.12-.1-.24-.12-.39-.08-.48-.7-1.22-.37-1.85-.46-3.45-1.87-6.94-3.67-10.31-5.67-1.07-.63-2.35-.95-3.23-1.95-.28-.32-.77-.55-1.2-.65-1.46-.31-2.41-1.46-3.56-2.22-1.15-.77-2.29-1.74-3.1-2.95-.47-.69-.71-1.64-1.32-2.11-.93-.71-1.18-1.72-1.65-2.63-.2-.39-.37-.78-.62-1.16-1.01-1.59-1.13-3.55-2-5.21-.03-.06-.03-.16,0-.22.34-.77-.16-1.5-.13-2.24.06-1.17-.7-2.19-.54-3.36,0-.75,0-1.5,0-2.25,0-.4-.15-.73-.51-.94-.45-.72-.64-1.49-.39-2.33q.54-.75.04-1.44c-.06-.12-.09-.25-.1-.39,0-.16.02-.33.02-.49l-.02-.9c.11-.54.3-1.09-.32-1.48-.06-.11-.07-.22-.04-.33.52-1.1.82-2.2-.1-3.26,0-.52.17-1.13-.03-1.56-.56-1.16-.33-2.36-.37-3.55-.02-.92-.05-1.84-.07-2.76-.02-.29-.03-.58-.05-.87.1-.83.29-1.67-.3-2.41-.02-.3,0-.62-.07-.91-.31-1.18-.78-1.5-1.96-1.37-1.02.11-1.04.13-1.33,1.2-.18.66-.35,1.32-.52,1.98-.31.09-.42.27-.3.58l.03.85c-.04.3-.09.61-.13.91h0c-.62.55-.25,1.28-.37,1.91-.16.46.18,1.05-.36,1.41-.04.23-.07.45-.11.68-.16.98-.31,1.95-.49,2.92-.3,1.65-.49,3.32-.96,4.92-.46,1.54-.79,3.08-.97,4.67-.04.36-.24.71-.36,1.06-.42.3-.54.72-.51,1.21.03.54.07,1.07.1,1.61-.38.68.16,1.53-.42,2.17-.43,2.6-.88,5.2-.45,7.85-.07.27.03.46.27.59.02.11.02.22,0,.33-.15.25-.42.5-.42.75-.01.97.05,1.94.13,2.91.02.18.27.33.42.49h0c.36.77-.3,1.7.36,2.42-.04,1.25-.06,2.5.37,3.68.04.13.09.26.15.39,1.43,3.41,2.38,7.02,4.5,10.13.98,1.44,2.03,2.88,2.75,4.45.87,1.9,2.14,3.44,3.53,4.93.3.33.76.51,1.06.83,3.35,3.65,7.5,6.05,12.07,7.81,0,0,0,0,0,0,.04.06.08.1.12.14.15.16.34.24.53.27.24.04.5.02.75.03.13.19.28.29.43.36.14.06.29.08.44.08.33,0,.67-.06.98,0,.34.52.85.53,1.39.45.11.13.24.14.37.03.19.13.38.27.56.4.1.12.2.2.31.27.36.24.77.27,1.18.25.27-.01.55-.05.82-.05.15,0,.29.02.44.02.37.24.74.23,1.13.06,0,0,0,0,0,0,0,0,0,0,0,0,.17.26.41.38.72.37l.03.02s0,0,0,0c.05.04.1.07.15.1.24.17.49.29.76.37.35.1.71.13,1.07.13.22,0,.45-.02.67-.04.08.24.22.41.51.39,1.29.74,2.77.89,4.15,1.37.35.54.97.21,1.42.42.05.04.1.07.16.1.92.64,1.99.47,3.02.46,0,0,0,0,0,0,.02-.07.04-.13.06-.2.02,0,.03,0,.05.01-.04.06-.07.12-.11.18,0,0,0,0,0,0,1.66.57,2.3.57,3.71,0,.01,0,.03,0,.04-.02.03,0,.06,0,.09,0,.26.03.52.05.78.08.18.11.35.3.53.31,1.16.09,2.33-.15,3.48.12.93.61,1.95.32,2.95.3h0c.59.19,1.18.36,1.78.45.46.07.92.1,1.4.07h0c.32.51.84.5,1.34.51.23.35.55.49.97.4.09.14.2.15.32.04.43.33.71.69.6,1.31-.1.58-.09,1.19.39,1.65l-.02.15.14.07c.14.19.31.37.35.62-.08.14-.04.25.11.31-.04.38.1.68.4.91h0c0,.44.14.83.41,1.17v.16s.14.06.14.06c.1.2.28.36.32.59-.09.14-.06.25.08.33-.07.53-.01,1.02.38,1.42.01.24-.03.48-.06.72-.06.38-.1.75.07,1.12,0,.67.01,1.34.01,2.01,0,.44.04.86.43,1.14.02.01.03.03.05.04.13.17.25.34.38.52,0,.14.01.27.04.39.07.35.23.66.53.91,0,0,.02-.02.02-.02.01-.01.03-.02.04-.04,0,0,0,0,0,0h0l-.04.04-.03.02c.02.39.25.51.53.57.07.02.15.03.22.04,0,.1.01.19.03.29.07.47.25.85.73,1.03.06.02.12.04.19.06,0,.06,0,.12.02.17.07.41.29.67.7.73.07.01.14.01.22.01.11.33.24.64.56.82,0,.23-.04.47-.04.69,0,.16.02.31.1.44.06.11.17.2.33.28.06,1.89.12,3.78.16,5.67,0,.22-.09.44-.14.67,0,0,0,0,0,0-.01.03-.02.05-.03.08-.44,1.05-.49,1.76-.15,2.66.01.04.06.06.11.09.03.01.05.03.07.04h0s.1-.06.1-.06c-.03.14-.05.28-.06.43-.09.06-.16.12-.22.19-.27.3-.25.65-.2,1.01.03.24.08.49.06.72h0c0,.29,0,.57-.01.86h0s-.02.06-.03.09c-.11.33-.17.65.16.86.05.03.1.06.16.08l.02.02c0,.14.03.27.05.4.06.29.17.56.4.78.03.03.07.07.11.1,0,.06.02.12.04.18.03.09.08.16.14.22.06.05.12.1.22.12.02.14.06.25.13.33,0,0,0,0,0,0,.07.08.18.13.32.15.08.27.29.34.54.38-.17-.13-.34-.25-.51-.38,0,0,0,0,0-.01.22.07.35.25.51.39h0c.04.25.1.48.35.59.03.07.07.15.1.22.02.04.04.07.05.11h0c-.02.3.14.43.41.46h0c.04.25.17.4.41.44.02,0,.03.01.05.01h0s0,0,0,0c0,.04.02.08.03.12.03.09.06.16.12.22.07.07.17.11.3.13h0s0,0,0,0h0c.03.28.2.41.46.42l.03.02h0c.14.42.5.45.86.5.06.25.2.43.49.42-.16-.14-.32-.28-.48-.42h0c.18.12.32.28.48.42h.02s0,0,0,0c.31.3.62.59.93.89h0s.03.03.04.05c.4.53.96.47,1.51.47.08,0,.16,0,.24,0,.11.09.24.13.38.1.02.04.04.08.06.11.15.26.4.32.67.32.08,0,.15,0,.23,0,.07.1.15.17.24.22.09.03.17.05.26.07.06,0,.12.01.18,0,.41,0,.82.01,1.23.02l.04.02c.27.43.72.48,1.17.49.66.03,1.31.05,1.97.07,1.04.77,2.2.32,3.32.33.18.26.42.4.74.45.83.14,1.66.07,2.49-.03.44.02.88.04,1.31.07.63.02,1.28.09,1.91.08.58-.01,1.15-.11,1.71-.39.05-.03.11-.05.16-.08.34-.07.72-.06.91-.44.6-.03,1.2-.06,1.79-.08.53-.02,1.07-.03,1.51-.4.14.11.25.08.34-.07.44.06.82-.06,1.13-.38l.14.06.1-.12c.36.02.72.04,1.08.05.14,0,.28.01.42.02.26,0,.5-.05.67-.22.07-.07.13-.15.18-.25.22-.02.44-.02.63-.09.02-.01.05-.02.07-.03.1-.06.2-.14.27-.27.15-.02.31-.02.47-.04.22-.02.42-.07.58-.23.07-.08.14-.18.18-.32l.15-.06v-.16s-.01,0-.01,0c.27-.14.41-.36.42-.67.25-.07.36-.26.38-.51l.03-.03c.19-.19.32-.32.39-.43.09-.14.1-.25.02-.4-.07-.12-.19-.27-.39-.5h0c-.02-.42-.06-.81-.14-1.2-.22-1.19-.74-2.23-1.71-3.05-.14-.12-.29-.24-.46-.36h0c-.11-.48-.02-1.02-.44-1.4.01-.54-.13-1.03-.46-1.45v.15s-.04-.06-.05-.09c.02-.02.04-.04.05-.06,0-1.34,0-2.69,0-4.03,0-.39-.09-.74-.41-.99l-.09.05c.04-.11.04-.21.01-.32-.01-.04-.01-.08-.03-.12.16-.33.31-.66.47-.99h0s0,0,0,0c.16-.14.32-.29.48-.43h.02c.64,0,1.29,0,1.93,0,.07,0,.14,0,.21,0,.17,0,.33-.05.45-.13.09-.06.17-.14.23-.24.37-.03.65-.24.86-.53h.01c.29.03.47-.1.54-.37.28-.06.47-.23.59-.49.29.14.54.14.71-.18.34-.1.52-.35.59-.68.25-.06.4-.21.45-.47.1-.02.17-.06.24-.11.06-.07.12-.15.18-.22.02-.04.04-.08.05-.12.02,0,.04-.01.06-.02.2-.05.47-.08.52-.19.35-.9,1.09-1.52,1.67-2.25.19-.24.36-.49.5-.77.27-.1.37-.3.35-.58h0s0,0,0,0c.44-.28.5-.71.49-1.18-.03-1.28-.05-2.56-.08-3.84-.01-.54.05-1.05.47-1.45l.03-.02c.28.03.45-.1.54-.34.56.03,1.07-.1,1.54-.37.09-.03.18-.08.25-.15.6-.15,1.32.14,1.79-.5h.03s.21.02.21.02c0,0,.21-.05.21-.05.07.02.14.02.22.03.47.05.88-.08,1.24-.41,0,0,0,0,0,0,0,0,0,0,0,0,.13-.02.25-.05.37-.09,0,0,.02,0,.03,0,.42.1.75,0,.94-.43,0,0,0,0,0,0,.27-.19.7-.09.88-.45l.04-.02c.21.02.38-.03.49-.17.03-.04.06-.08.08-.13.02,0,.21.02.21.02l.15-.17c.31.04.53-.1.67-.37,0,0,0,0,0,0l.16.05.1-.13c.8-.04,1.61.04,2.34-.38.14-.05.28-.1.42-.15.25.03.43-.07.52-.3.9-.03,1.8-.05,2.7-.08h.01s0,0,0,0c.14.14.29.27.43.41.01,0,.02.02.03.03.41.46.84.5,1.3.18.04-.03.09-.06.13-.1,0,0,0,0,0,0,.14,0,.28-.03.41-.08l-.05.11c.1.12.2.2.31.27.51.34,1.1.19,1.68.13.12-.01.25-.02.37-.02.15,0,.31,0,.46,0,.16.01.31.02.47.04l.11.1.13-.08s0,0,0,0c.19.22.4.33.62.39.17.04.34.06.52.06.3,0,.61-.04.9-.03.16.37.46.54.85.56.04.05.08.09.12.13.17.15.38.2.59.22.24.01.5-.01.73.03.06.25.19.43.48.43-.16-.14-.31-.29-.47-.43,0,0,0,0,0,0,.18.12.32.28.47.43h0s0,0,0,0c.17.43.55.44.92.45h0c.32.52.86.43,1.34.51.08.25.24.38.51.39-.16-.13-.33-.26-.49-.39,0,0,0,0,0,0,0,0,0,0,0,0,.19.1.32.27.49.39l.02.02c.04.25.19.4.44.45h0s0,0,0,0c0,.03,0,.05.01.08.03.24.17.37.44.37h0s.01,0,.01,0h0c.27.39.53.8.99.92.11.03.22.04.35.03.21.27.45.52.8.59.04.13.09.24.15.35.3.54.77.88,1.28,1.17.34.2.7.37,1.02.59l.03.03c.13.25.29.48.48.65.1.07.2.14.3.2.15.07.32.12.51.13.25.25.54.43.9.48.07.26.26.37.52.39-.16-.13-.33-.26-.49-.39,0,0,0,0,0,0,0,0,0,0,0-.01.2.09.34.26.5.4h0s0,0,0,0h0c.15.16.31.3.43.48h0c-.14-.16-.29-.32-.43-.48.05.25.14.46.44.48,0,0,0,0,0,0,0,0,0,0,0,0,.47.29.94.59,1.41.88h0s0,.02,0,.02c-.01.31.13.46.45.44h.03s0,.02,0,.02c.03.05.07.1.12.13.31.29.71.36,1.11.46.08.15.15.3.23.45.2.37.43.7.86.83.1.03.2.05.32.06.11.23.31.32.55.35-.18-.12-.35-.23-.53-.35,0,0,0,0,.01,0,0,0,0,0,0,0,.22.05.34.24.52.35l.02.02h0c.06.16.14.27.24.35.14.11.31.15.49.17.18.02.37.01.55.04.06.24.2.41.46.45.03.13.07.23.14.3,0,0,.01.01.02.02.08.07.18.11.32.12.03.08.08.14.12.19.12.13.27.21.43.26.1.03.2.06.3.08.03.09.06.17.1.25.12.24.29.43.53.51.12.04.25.05.4.05h0c.15.14.27.31.4.47.23.28.49.53.95.48.1.23.28.35.52.36,0,0,.06.05.06.05h0c.09.24.26.36.46.41.11.03.24.05.37.06h0c.16.41.48.53.89.5.22.3.51.47.88.51.02.06.04.1.07.14.09.12.22.18.37.2.04,0,.07,0,.11,0l.05-.05s0,0,0,0c-.02.02-.04.03-.05.05.02.03.04.06.06.09.13.22.31.38.54.47.05.02.11.04.17.05.09.25.28.36.53.38.07.25.2.44.5.43.21.23.42.48.66.67.05.04.1.07.15.11.15.1.32.17.51.2.37.48.89.7,1.46.84h0c.04.27.18.44.47.42l.04.02c.19.33.48.48.85.5.06.25.22.4.49.43l.07-.07s0,0,0,0c-.02.02-.05.04-.07.06.01.04.02.07.04.1.12.29.33.42.61.43.07,0,.14,0,.22,0,.25.3.61.35.97.39h.01c.06.24.17.44.44.48h0c.14.5.54.45.92.45h.02s0,0,0,0c.43.24.8.58,1.2.88.07.04.13.09.19.14.26.17.54.32.86.4.33.27.66.55.98.82l.04.04h0s0,0,0,0c.27.55.81.44,1.27.54.04.24.14.44.39.52,0,.05.02.1.04.15.06.16.17.25.34.29.03,0,.06.02.1.02.02.03.04.06.06.09.13.18.32.24.51.28.13.02.26.03.39.05.05.25.18.42.44.47.06.27.23.41.51.41.19.43.55.45.94.41l.11.13.17-.04c.16.33.27.69.64.87.02.11.06.19.11.26.08.11.2.17.34.2.13.03.28.04.42.07.06.25.17.45.48.45.29.31.58.62.88.93,0,.07,0,.13.02.18.04.12.12.21.23.26.05.03.11.05.18.06.02.09.06.16.09.23.11.22.26.38.47.48.13.06.27.11.44.12.06.23.18.43.42.52.02.12.05.22.08.32.22.59.76.82,1.4.92l.05.03c.28.39.57.67.92.07.3-.04.39-.24.39-.52,0,0,0-.01,0-.01h0c1.06-.89,1.09-.93.52-1.73Zm-6.48-5.2c-.18-.12-.33-.28-.48-.43h0c.16.14.32.29.48.44,0,0,0,0,0,0Zm-.48-.43c-.16-.15-.32-.3-.45-.48h0c.15.16.3.32.44.48Zm.5-21.21h0s0,0,0,0h0Zm-1.87-4.15h0c-.17-.13-.33-.28-.45-.46,0,0,0,0,0,0,.15.15.3.3.45.46Zm-12.47-13.33h0c.16.15.32.29.43.48,0,0,0,0,0,0,0,0,0,0,0,0-.14-.16-.29-.32-.43-.48Zm2.74,2.82s0,0,0-.01c.2.09.34.25.48.42,0,0,0,0,0,0l-.47-.42s0,0,0,0Zm.47.41h0c.18.14.34.29.45.49,0,0,0,0,0,0-.15-.16-.3-.32-.45-.49Zm-5.49-8.32s0,0,0,0c0,0,0,0,0,0,0,0,0,0,0,0h0s0,0,0,0h0s0,0,0,0c.16.14.32.28.47.42,0,0,0,0,0,0,0,0,0,0,0,0-.2-.1-.34-.26-.48-.43-.16-.14-.33-.29-.43-.49,0,0,0,0,0,0,.14.16.28.32.42.49Zm-41.05-11.6s0,0,0,0h0s0,0,0,0Zm19.28-75.1s0,0,0,0c-.04.26-.2.42-.46.46,0,0,0,0,0,0,.26-.05.41-.2.46-.46Zm11.6-4.98s0,0,0,0c-.14.17-.28.32-.46.45,0,0,0,0,0,0l.46-.44Zm-14.61,15.77s0,0,0,0c0,0,0,0,0,0-.12.08-.21.16-.29.23.06-.08.15-.16.29-.23.01-.06.03-.11.07-.16-.02.05-.04.1-.07.16Zm2.76-6.49s0,0,0,0h0s-.02,0-.02.01c.04-.22.22-.36.34-.53-.11.17-.21.34-.32.52Zm17.5-10.08s0,0,0,0c0,0,0,0,0,0-.17.02-.3.09-.39.2.09-.12.21-.2.39-.21,0-.15.06-.26.15-.34-.08.09-.13.2-.15.34Zm-25.98-173.76c-.12-.17-.25-.33-.37-.5.13.17.31.3.39.51,0,0,0,0-.01,0Zm8.21,17.55c-.09.15-.23.26-.45.29-.67.07-1.36.02-2.04.11-2.27.29-4.31-.45-6.31-1.34-.47-.21-.9-.54-1.33-.84-.37-.26-.34-.64-.24-1.02.11-.19.31-.38.31-.57.03-2.65.04-5.29.04-7.94,0-.24-.09-.44-.23-.61-.05-.06-.11-.11-.17-.16,0-.61,0-1.22,0-1.83h0s.12-.11.12-.11l-.07-.14s0,0,0,0c.49-.43.32-1.03.43-1.56h0s.06-.07.09-.1c.63-.76.02-1.92.76-2.64.01-.01.02-.03.04-.04.16.15.31.29.47.44h0s0,0,0,0v.02h0c-.02.28.11.45.37.53.03.2.05.4.14.58.02.04.04.07.06.1.06.09.15.17.27.24.01.27.17.42.41.5,0,.1,0,.19.01.28.04.45.18.84.61,1.04.08.04.17.07.26.09.03.18.03.38.03.57,0,.31.03.62.23.87.08.11.19.21.35.29h0c.03.37.11.71.42.95,0,.12,0,.23.03.33.06.25.22.42.44.54.1.05.22.1.35.13.04.21.05.42.06.64.02.21.05.41.14.59.08.16.21.31.43.42l.05.05c.11.23.3.41.33.67l-.05.17.15.1c-.04.28.09.44.33.53.06.48.08.99.54,1.3h0c-.02.31.14.5.4.62-.09.14-.06.24.09.31-.08.41.13.66.46.85l.03.05c0,.24.06.44.27.57-.02.09-.03.18-.04.26-.02.31.08.57.29.79.09.09.2.17.32.25,0,.38,0,.77.4.99.16.36.32.73.48,1.09l-.03.14.13.07c-.05.19-.1.38-.19.54Zm-1.35-4.18h0s0,0,0,0c-.09-.18-.19-.36-.28-.54.09.19.27.33.3.54,0,0-.01,0-.02,0Zm-1.81-3.7c-.11-.16-.22-.33-.33-.49.11.17.28.3.35.5,0,0,0,0-.02,0Zm11.59,26.23c.16.15.32.29.43.48,0,0,0,0,0,0-.14-.16-.28-.32-.42-.47h0Zm-5.87-19.48s0,0,0,0c0,.13.05.24.11.33-.07-.08-.12-.19-.11-.33Zm-52.61,56.81h0c.13-.17.28-.33.47-.43,0,0,0,0,0,0-.16.14-.31.28-.47.43Zm22.57-16.59c.14-.16.28-.32.46-.44,0,0,0,0,0,0-.16.15-.31.29-.47.44,0,0,0,0,0,0Zm1.44-3.63s0,0,0,0c0,0,0,0,0,0-.02-.02-.03-.05-.05-.07l.05.06Zm-2.42,1.73s0,0,0,0c-.09.21-.26.35-.44.49,0,0,0,0,0,0,.14-.16.29-.32.43-.48Zm-22.61,16.12s0,0,0,0h0s0,0,0,0c0,0,0,0,.01,0,0,0,0,0,0,0,.17-.14.34-.28.51-.41-.15.17-.28.35-.51.42-.06.22-.25.34-.38.51.12-.17.24-.34.36-.51Zm-3.49,6.59h0c0-.06,0-.11.02-.16-.01.05-.02.1-.02.16Zm-5.28,2.13s0,0,0,0c-.05.25-.2.39-.44.45,0,0,0,0,0,0,.24-.05.39-.2.44-.44Zm-4.44,4.29s0,0,0,0c0,0-.06-.06-.06-.06.02.02.04.04.07.06Zm6.88,45.04s0,0,0,0c.13.17.27.33.4.5-.15-.16-.32-.3-.41-.5Zm-12.93-13.34s0,0,0,0c-.18-.13-.33-.27-.44-.47,0,0,0,0,0,0,.14.15.29.31.43.46Zm-3.17-15.11s0,0,0,0l-.14.1s.08-.07.14-.1Zm2.72-6.04c.12-.18.28-.33.44-.47,0,0,0,0,0,0-.15.16-.29.32-.44.47,0,0,0,0,0,0Zm.38-4.66s0,0,0,0h0s0,0,0,0c-.1.19-.26.34-.44.46,0,0,0,0,0,0,0,0,0,0,0,0,.14-.15.29-.31.43-.46Zm-3.71,6.45s0,0,0,0c0,0,0,0,.01,0-.09.2-.25.34-.42.47h0s0,0,0,0c.14-.16.27-.31.41-.47Zm-.96,1.78s0,0,0,0c0,.05,0,.11-.02.15.01-.05.01-.1.02-.15Zm5.16,21.76s0,0,0,0c.18.13.33.28.47.45-.16-.15-.31-.3-.47-.45Zm3.23,3.23h0s0,0,0,0c.18.12.33.28.46.45,0,0,0,0,0,0-.15-.15-.3-.3-.46-.45Zm3.2,3.27h0s0,0,0-.01c.22.06.34.25.52.37-.17-.12-.34-.24-.51-.36Zm15.65,15.22s0,0,.01,0h0s0,0,0-.01c.22.04.35.23.52.36-.17-.12-.35-.23-.52-.35Zm8.01,10.62h0c0-.06,0-.12.02-.17-.02.05-.02.11-.02.17Zm1.33-6.14s0,0,0-.01c.12.17.24.34.37.51-.12-.17-.3-.3-.37-.51,0,0,0,0,0,0Zm-6.41-5.15s0,0,0,0c-.19,0-.32-.09-.4-.22.09.13.22.2.4.22Zm-1.02-.82c-.17-.14-.33-.28-.42-.47,0,0,0,0,0,0h0s0,0,0,0l.42.48s0,0,0,0Zm-.87,21.26s0,0-.01,0c.08-.22.25-.35.41-.5h0c-.13.17-.27.33-.4.5Zm1.76-6.05h0c-.14.17-.28.34-.49.43,0,0,0,0,0,0,.16-.14.33-.28.49-.42Zm-14.7,19.4s0,0,0,0c0,0,0,0,0,0-.16.14-.33.28-.49.42.16-.14.3-.31.49-.42.07-.13.18-.24.28-.35-.09.12-.19.23-.28.35Zm-26.25,59.83s0,0,0,0c0,0,0,0,0,0,.12.16.25.33.37.49-.12-.17-.29-.31-.38-.5Zm-2.95-9.88c.03-.07.09-.14.15-.21h0c-.06.07-.11.14-.15.21Zm24.6-42.59c.05-.08.11-.15.17-.22-.06.08-.11.15-.17.23,0,0,0,0,0,0Zm2.31-4.14s0,0,0,0c.1-.2.26-.34.44-.47,0,0,0,0,0,0-.14.15-.29.31-.43.46Zm5.06-6.89s0,0,0,0c-.17.13-.34.26-.5.4.16-.14.3-.32.5-.4Zm4.53-6.98s0,0,0,0h0s0,0,0,0Zm-.84,3.8s0,0,0,0c-.17.12-.34.24-.52.35.17-.12.3-.31.52-.37,0,0,0,0,0,.01Zm2.02-4.46c-.08.08-.19.12-.34.12,0,0,0,0,0,0,.13,0,.25-.05.33-.12Zm-1.18.66s0,0,0,0c-.11.19-.26.34-.46.44,0,0,0,0,0-.01,0,0,0,0,0,0,.15-.15.3-.29.45-.44Zm-6.46,5.99s0,0,0,0c0,0,0,0,0,0-.11.19-.26.33-.45.44,0,0,0,0,0,0,0,0,0,0,0,0,.15-.15.3-.29.45-.44Zm-2.73,3.24c-.14.17-.29.33-.47.45,0,0,0,0,0,0,.16-.15.31-.3.47-.45Zm-4.15,5.98s0,0,0,0c.14-.15.29-.31.43-.46,0,0,0,0,0,0,0,0,0,0,0,0-.1.19-.26.34-.44.47,0,0,0,0,0,0Zm-3.77,7.3s0,0,0,0c-.01.12-.06.22-.12.3.06-.08.1-.18.12-.3Zm-15.21,11.05s0,0,0,0c0,.1-.04.18-.09.25.04-.07.07-.15.09-.25Zm-16.03,73.95s-.03-.04-.07-.07c-.03-.03-.06-.07-.06-.07l.08-.13s.03,0,.05.01c0,.06,0,.13,0,.19,0,.02,0,.04,0,.07Zm23.93,22.95c.04.09.09.17.14.23.19.22.45.26.76.17.03,0,.06-.02.1-.03h0s0,0,0,0c.13.02.26.04.39.07.03.03.07.06.1.09.36.33.77.45,1.25.33.03,0,.07-.02.1-.03.28.02.56.05.85.07.07.25.21.41.5.39-.16-.13-.32-.26-.49-.39,0,0,0,0,0,0,.18.11.31.28.49.39l.03.02c.15.37.36.31.58.07h.11s0,0,0,0c.71.68,1.64.28,2.44.47.21.42.57.44.97.38l.11.13.16-.06h0c.2.24.47.33.78.33,1.03.03,2.06.06,3.09.08l-.05.08c.09.1.18.18.29.23.15.08.31.11.5.11.42,0,.84-.02,1.26-.03,1.31-.04,2.63-.08,3.93,0,1.28.08,2.56.07,3.84.05.58,0,1.16-.02,1.74-.02.47,0,.95,0,1.42,0,0,0,.21.05.21.05,0,0,.21-.05.21-.05.63,0,1.26-.01,1.88-.02h0s.2.09.2.09c0,0,.22-.04.22-.04l-.04.09s0,0,0,0c.06.06.14.11.21.16.4.26.91.44.77,1.11-.02.9-.05,1.79-.07,2.69-1.4.07-2.81-.04-4.16.47-.88.04-1.77.07-2.65.11h0c-.68-.01-1.36-.04-2.03-.04-2.12.02-4.23.05-6.35.07,0,0,0,0,0,0-3.79-.75-7.27-2.14-10.07-4.91-.15-.15-.39-.23-.6-.27-.09-.02-.32.15-.31.22.01.22.06.47.18.64,1.09,1.49,2.34,2.84,3.95,3.75,2.4,1.36,4.94,2.36,7.76,2.41.05.06.09.15.16.16,1.7.42,3.87.36,5.54-.14h0s0,0,0,0c2.26-.49,4.59-.67,6.76-1.58.63-.12,1.26-.23,1.89-.35h0c-.02.18.03.3.12.39.06.06.15.1.26.13l.07-.06c0,.26-.01.52-.02.78,0,.03,0,.05,0,.08-.43.5-.55.99,0,1.48h0s0,0,0,0c.1.16.13.34.15.53.03.31.02.63.28.87,0,.31.2.42.46.47.07.28.04.58.06.87,0,.19.04.37.12.53.07.14.18.27.35.38-.01.28.12.45.37.55.01.13.04.25.09.36.09.24.23.45.39.66.19.24.4.47.56.72h0c-.04.29.07.47.33.56.03.26.06.53.08.79-.24.06-.41.19-.48.44-.27.02-.42.17-.48.43-.47.12-1,.06-1.36.48-.54-.03-1.03.09-1.48.34-.11.03-.22.09-.31.19h0c-.35-.02-.69-.03-1.04-.07-.08,0-.17-.01-.25-.02-.46-.07-.88-.06-1.24.16-.11.07-.21.16-.3.27-1.06.11-2.14.04-3.15.45-.08.03-.15.06-.23.09l-.13-.06-.1.11c-2.44-.02-4.88-.05-7.32-.07-.24-.35-.61-.38-.98-.39-.75-.02-1.51-.02-2.26-.03-.49-.6-1.29-.01-1.82-.48-.02-.02-.04-.03-.06-.05-.49-.41-1.04-.45-1.61-.42-.22,0-.44.02-.66.03h0s-.09.06-.09.06c-.46-.26-.93-.52-1.39-.78-.36-.2-.72-.4-1.08-.59,0,0,0,0,0,0-.18-.09-.42-.07-.63-.09-.07-.25-.22-.4-.49-.43-.05-.27-.2-.42-.47-.45-.05-.16-.13-.27-.23-.35-.04-.03-.09-.05-.13-.08-.14-.07-.31-.1-.47-.13-.06-.25-.21-.41-.48-.45-.3-.44-.62-.87-.93-1.31-.49-.68-.96-1.38-1.34-2.12-.2-.38-.38-.78-.52-1.2l.11-.13s-.06-.13-.06-.15c.26-.28.31-.62.32-1,.08-1.62-.19-3.26.18-4.8.02-.01.04-.02.06-.03.32-.13.49.01.64.15,1.89,1.79,4.05,3.21,6.17,4.69,2.45,1.71,5.08,3,8.12,3.28,1.37.61,2.8.53,4.24.36,0,0,0,0,0,0,.44,0,.89,0,1.33,0,3.06.24,4.69.09,6.36-.63-.55-.38-1.14-.34-1.74-.2-.14-.05-.28-.08-.42-.1-2.15-.65-4.35-.44-6.55-.35,0,0,0,0,0,0-.31-.02-.61-.04-.92-.05-2.24-.07-4.33-.63-6.36-1.62-2.42-1.17-4.67-2.59-6.86-4.12-1.37-.96-2.71-1.92-3.82-3.16-.11-.12-.21-.24-.31-.37-.06-.33-.04-.66-.09-.99-.03-.18-.07-.35-.15-.53-.01-.03-.03-.06-.04-.09-.3-.65-.41-1.33.16-1.94.08.25.27.31.52.31l-.05.11Zm-.28-.33c-.06-.04-.12-.08-.18-.12,0,0,0,0,0,0,.06.04.12.08.18.12Zm3.55,17.32h0c.16.15.31.3.47.45,0,0,0,0,0,0,0,0,0,0,0,0,.16.14.31.28.47.42,0,0,0,0,0,0,0,0,0,0,.01.01-.2-.1-.35-.26-.48-.44-.17-.13-.32-.29-.47-.45h0Zm31.35,2.33s0,0,0,0c.03-.05.07-.1.11-.15-.04.05-.07.1-.11.15Zm4.21-19.28s0,0,0,0c0,0,0,0,0,0-.26.05-.41.21-.45.47,0,0,0,0,0,0,.03-.27.19-.42.45-.47.05-.26.2-.42.47-.44,0,0,0,0,0,0-.26.03-.42.18-.47.44Zm4.5-10.72c.18-.11.3-.3.52-.36,0,0,0,.01-.01.02,0,0,0,0,0,0-.17.11-.34.23-.51.34Zm12.5-4.06s0,0,0,0c.03-.07.08-.13.14-.18-.05.06-.09.12-.14.18Zm18.03,1.68h0s0,0,0,0c-.21-.02-.35-.11-.43-.27.08.16.22.25.43.27Zm7.32,5.6s0,0,0,0h0s0,0,0,0c.12.17.24.34.35.51-.11-.18-.29-.31-.36-.51Zm6,4.14s.04.06.06.09c-.02-.03-.05-.06-.07-.09,0,0,0,0,0,0Zm9.49,9.39h0c.07,0,.14.01.19.03-.06-.02-.12-.03-.19-.03Zm3.37-.6h0c.15.15.3.3.45.44,0,0,0,0,0,0,0,0,0,0,0,0-.18-.12-.33-.27-.46-.45Zm13.39,8.75h0s0,0,0,0c.13.16.27.33.4.49-.14-.16-.31-.3-.41-.49,0,0,0,0,0,0Zm.4.49h0c-.04-.25-.14-.44-.41-.51-.02-.28-.18-.44-.46-.49-.01-.05-.03-.1-.05-.14-.08-.17-.23-.25-.47-.2h0c-.09-.15-.2-.18-.35-.08,0,0,0,0,0,0,0,0-.01,0-.02,0-.22-.07-.37-.24-.56-.34h0s-.04-.05-.04-.05c-.2-.47-.54-.75-.98-.9-.1-.03-.2-.07-.31-.09-.05-.1-.11-.19-.17-.25-.12-.12-.26-.18-.43-.21-.1-.02-.2-.03-.31-.02-.22-.35-.57-.41-.94-.43-.04-.1-.09-.18-.15-.25-.12-.14-.28-.22-.46-.26-.07-.02-.15-.03-.23-.03-.09-.24-.25-.39-.53-.4-.11-.14-.22-.28-.34-.41-.19-.2-.39-.36-.65-.44-.12-.04-.25-.06-.4-.06-.04-.03-.08-.05-.12-.07-.25-.15-.5-.29-.75-.44-.02-.1-.05-.19-.08-.27-.15-.37-.42-.6-.93-.53-.06-.01-.12-.03-.18-.04-.2-.04-.4-.09-.61-.13-.07-.14-.14-.28-.22-.4-.2-.32-.45-.58-.8-.74-.14-.06-.29-.11-.46-.13-.24-.28-.57-.4-.92-.46-.04-.27-.18-.44-.47-.45-.05-.13-.12-.22-.2-.3-.09-.08-.2-.14-.32-.17-.11-.03-.24-.04-.37-.03-.24-.32-.59-.39-.97-.39h-.02,0s0,0,0,0h0s0,0,0,0c-.18-.32-.46-.51-.81-.59-.01-.03-.02-.06-.04-.09-.09-.19-.25-.27-.47-.26-.01,0-.02,0-.04,0,0-.01-.02-.02-.03-.04-.25-.34-.4-.79-.92-.87-.01.02-.03.03-.04.05,0,0-.02.02-.03.03,0,0,0,0,0,0l.02-.03.04-.05c-.12-.29-.34-.44-.61-.52-.07-.02-.13-.04-.2-.05-.04-.12-.09-.21-.17-.28,0,0-.02-.02-.03-.03-.09-.06-.2-.09-.34-.08-.2-.35-.57-.39-.91-.47-.03-.26-.13-.45-.41-.51-.07-.27-.26-.38-.53-.39-.05-.12-.11-.21-.19-.29-.09-.09-.2-.15-.32-.18-.11-.03-.23-.05-.36-.06-.09-.25-.26-.38-.54-.36h-.01s0,0,0,0c-.18-.35-.48-.49-.85-.53-.07-.26-.24-.4-.53-.37.17.12.33.25.5.37,0,0,0,0,0,.01-.21-.08-.34-.25-.5-.38h-.02s0-.01,0-.01c-.19-.32-.48-.49-.85-.52-.07-.25-.26-.37-.51-.4l.49.4s0,0,0,0c0,0,0,0,0,0-.19-.1-.33-.27-.49-.4h0c-.02-.12-.05-.22-.11-.29-.06-.08-.14-.13-.26-.14-.03,0-.05-.01-.09-.01h0s-.02-.01-.02-.01h0s0,0,0,0c0-.02-.03-.04-.04-.06-.11-.22-.29-.34-.5-.41-.09-.03-.19-.06-.29-.08-.06-.27-.23-.41-.51-.41-.19-.41-.56-.42-.93-.44h0c-.06-.14-.15-.23-.25-.3-.15-.11-.33-.16-.53-.16-.05,0-.09,0-.14,0-.03-.04-.07-.08-.1-.12-.26-.32-.49-.68-.89-.81-.1-.03-.2-.06-.32-.06-.04-.14-.09-.25-.15-.35-.17-.28-.42-.42-.72-.47-.18-.03-.38-.03-.59-.01h-.01s0,0,0,0c-.14-.16-.29-.3-.46-.42l-.02-.03h0c0-.26-.11-.45-.36-.54,0-.1-.03-.19-.06-.28-.12-.35-.41-.52-.8-.58-.04,0-.07-.01-.11-.02l-.06.06s0,0,0,0c.02-.02.04-.04.06-.06-.03-.05-.07-.09-.1-.14-.35-.51-.82-.85-1.33-1.15-.3-.18-.6-.35-.89-.54h0s0,0,0,0c-.02-.14-.07-.24-.14-.31-.06-.06-.13-.11-.21-.14-.15-.05-.33-.07-.49-.09-.03-.14-.07-.26-.12-.37-.11-.24-.29-.42-.56-.5-.08-.02-.16-.04-.25-.05-.05-.09-.11-.16-.17-.23-.11-.11-.25-.17-.4-.2-.13-.02-.27-.02-.43.02l-.13-.11-.15.08c-.12-.25-.31-.4-.57-.47-.03-.25-.15-.43-.4-.51,0-.05-.02-.09-.04-.13-.06-.15-.15-.25-.3-.3-.04-.01-.09-.02-.14-.03-.09-.25-.29-.35-.54-.38-.05-.27-.19-.43-.48-.44.16.15.31.29.47.44,0,0,0,0,0,0-.18-.12-.33-.28-.47-.44h0c-.16-.42-.52-.48-.9-.48-.21-.38-.53-.5-.95-.43l-.12-.12-.16.06h0c-.17-.18-.36-.31-.55-.39-.27-.11-.56-.14-.88-.06-.04.01-.09.02-.13.03,0,0-.03-.03-.06-.06-.03-.03-.06-.06-.06-.06l-.06.03-.1.04s0,0,0,0c-.02-.03-.04-.06-.06-.09-.13-.2-.31-.3-.56-.27-.01,0-.03,0-.04,0,0,0,0,0,.01-.02.02-.03.05-.07.05-.07h0c-.55-.59-1.22-.51-1.89-.44-.16.02-.31.03-.47.04-.14-.01-.28-.02-.43-.03-.09-.08-.19-.14-.29-.21-.53-.34-1.11-.47-1.74-.34-.09.02-.17.04-.26.07-.23-.21-.5-.37-.77-.47-.4-.15-.83-.17-1.24-.07-.02,0-.05,0-.07.02-1.2.34-2.36.1-3.54.04-.33-.02-.65-.04-.98-.04-.2,0-.39.02-.59.03-.42.05-.82.17-1.21.42,0,0,0,0,0,0h0s0,0,0,0h0c-.56.17-1.04.58-1.66.57-.06,0-.13,0-.2-.01-.08-.01-.18.06-.28.16-.06.06-.13.12-.19.17-.12,0-.23,0-.35.01-.25.02-.48.07-.68.21-.11.08-.22.19-.3.34-.64.05-1.32-.06-1.83.48-.2.02-.4.03-.59.05-.02,0-.04,0-.06,0-.08,0-.15.01-.23.02,0,.03,0,.06-.01.09,0,.1-.02.2-.04.3-.61.22-1.35-.17-1.88.4-.58.26-1.3,0-1.83.47-.11,0-.21,0-.3.01-.18.03-.34.11-.47.24-.06.06-.11.13-.16.21-.08,0-.17,0-.25,0-.22.02-.42.09-.55.28-.04.06-.07.13-.1.22-.29.04-.38.25-.42.5.14-.16.28-.32.42-.49h0c-.11.18-.28.32-.42.49h0c-.24.04-.45.12-.56.35-.01,0-.03,0-.04-.01-.14-.04-.25,0-.32.16h0c-.3-.03-.47.09-.49.4-.49.32-.37.62.05.9h0s.02.03.02.03c0,.1.02.19.05.27.05.15.14.29.3.38,0,0,0,0,0,0v.09s0,0,0,0c-.56,1.24-.29,2.57-.42,3.86-.34.21-.47.52-.49.9-.16.08-.26.18-.34.31-.03.05-.06.1-.08.15-.05.12-.09.26-.11.4-.25.1-.36.29-.34.56h0s0,0,0,0c-.39.4-.78.81-1.17,1.21-.06.06-.12.13-.18.19,0,0,0,0,0,0,.02.02.03.03.05.05,0,0,0,0,0,0l-.05-.05h0c-.38.03-.51.27-.58.56-.02.06-.03.13-.04.2-.1.02-.19.04-.29.06-.15.03-.3.07-.44.1-.96.05-1.6.62-2.17,1.29-.04.04-.08.08-.12.14-.51-.07-1.03-.17-1.43.3h0c-.92.28-1.86.1-2.79.07-.3-.4-.74-.45-1.19-.45-1.33.02-2.66.04-4,.06-.75.04-1.53-.15-2.2.38,0,0,0,0,0,0-.14.05-.28.04-.41-.03h0c-.21-.37-.6-.4-.95-.52h0,0c-.32-.46-.74-.94-1.29-.73-1.7.65-3.37-.12-5.05.02-2.21.18-4.42.3-6.63.45-.06-.27-.22-.44-.5-.51,0,0,0,0,0,0,0,0,0,0,0,0-.13.02-.25,0-.35-.1h0,0c-.37-.67-.97-.87-1.7-.86-1.12.02-2.25,0-3.37,0-.04,0-.08,0-.13-.01-.24-.02-.48-.05-.73-.07-.08-.25-.25-.38-.53-.37.17.12.33.24.5.37,0,0,0,0,0,0,0,0,0,.01,0,.02-.21-.07-.34-.25-.5-.38h-.02s0,0,0,0c-.51-.49-1.12-.8-1.82-.93h0s0,0,0,0c-.07-.24-.21-.41-.48-.41l-.03-.03c-.14-.38-.46-.49-.81-.55-.06-.26-.21-.42-.48-.43-.06-.27-.26-.37-.51-.4l.49.4s0,0,0,0c0,0,0,0,0,0-.19-.1-.33-.27-.49-.41h0s0,0,0,0c-.13-.16-.31-.3-.39-.51,0,0,0,0,.01,0h0s0,0,0,0c.13.17.25.34.38.51-.04-.24-.13-.45-.38-.53,0-.27-.16-.42-.4-.5-.02-.14-.04-.28-.05-.42-.03-.27-.08-.53-.25-.76-.05-.06-.1-.12-.18-.18-.02-.38-.15-.69-.48-.91-.05-.58-.1-1.15-.15-1.73.05-.35.1-.69.12-1.04.08-1.09,0-2.16-.47-3.2-.05-.07-.11-.13-.16-.2-.08-.1-.16-.19-.23-.29,0-.12.01-.23,0-.35,0-.31-.09-.6-.31-.83-.07-.07-.14-.13-.23-.18,0-.09-.02-.16-.04-.23-.04-.11-.11-.19-.23-.24-.05-.02-.1-.03-.17-.04-.04-.07-.1-.14-.15-.19-.09-.08-.19-.14-.3-.19-.13-.05-.27-.09-.41-.13-.04-.13-.08-.26-.12-.39-.03-.11-.06-.21-.1-.32h0s0,0,0,0c.15-.51.61-.45.99-.53.42.1.85.19,1.27.32.13.04.22.2.35.27.38.22.82.56,1.22.28.57-.41-.03-.92-.07-1.39-.01-.15-.29-.28-.44-.42h0c-.07-.28-.04-.6-.24-.83-.04-.05-.09-.1-.16-.14,0-.12-.03-.2-.08-.27-.02-.03-.05-.06-.07-.08-.09-.06-.2-.1-.33-.11-.02-.07-.04-.13-.06-.18-.08-.15-.21-.24-.44-.2h0s-.14-.15-.14-.15c0,0-.16.05-.18.06,0,0-.01,0-.01,0,0,0,0,0,0,0,0,0,0,0,0,0,0,0-.01,0-.02-.01-.45-.38-.93-.7-1.45-.96-.3-.15-.61-.28-.93-.37-.24-.31-.55-.46-.95-.4-.13-.04-.26-.07-.38-.11-.25-.32-.58-.45-.99-.4h0c-.26-.15-.54-.21-.83-.23-.23-.06-.46-.13-.69-.19-.68-.19-1.37-.37-2.05-.56-.02,0-.04-.01-.06-.02,0,0,0,0,0,0-.35-.34-.79-.35-1.24-.34-.37,0-.74-.03-1.11-.05-.08-.1-.17-.18-.26-.25-.23-.17-.49-.22-.78-.21-.13,0-.27.03-.4.07-.28,0-.57,0-.85,0-.78-.03-1.55-.06-2.33-.09-.45,0-.9-.01-1.35-.02-.05-.1-.11-.16-.16-.2-.07-.05-.14-.05-.21,0-.06.04-.11.11-.17.21-.44,0-.88,0-1.31,0-.17-.28-.43-.37-.74-.38-.98-.03-1.95-.06-2.93-.09-.01,0-.03,0-.04-.02-1.42-.55-2.93-.63-4.42-.79-.08,0-.15-.02-.23-.02-.14-.06-.27-.06-.41,0l-.09-.13-.16.04s0,0,0,0c-.45-.38-.97-.56-1.56-.48-.15-.1-.33-.13-.51-.14-.3-.09-.6-.17-.9-.26-.05-.26-.24-.37-.46-.45-.02-.03-.04-.05-.07-.08-.42-.55-1.1-.38-1.66-.52-.59-.25-1.2-.42-1.85-.34-.04,0-.07,0-.11.01h0s-.01-.02-.02-.03c-.35-.57-.87-.53-1.42-.34h-.02s0,0,0,0c-.33-.59-.87-.49-1.4-.44t0,0c-.39-.19-.79-.25-1.2-.22-.17,0-.34.03-.5.06-.38-.46-.93-.32-1.42-.39,0,0,0,0,0,0t0,0c-.16-.15-.31-.38-.49-.42-.11-.03-.23-.06-.34-.09-2.34-.57-4.47-1.67-6.65-2.68-.92-.43-1.65-1.04-2.41-1.68-1.1-.93-2.39-1.6-3.49-2.57-1.22-1.07-2.06-2.41-3.04-3.66-.28-.36-.43-.86-.78-1.13-1.91-1.47-2.67-3.67-3.74-5.68-.78-1.47-1.33-3.06-2.41-4.38-.4-.49-.56-1.27-.6-1.94-.05-.72-.34-1.33-.53-1.98.1-.67.28-1.37-.46-1.83-.3-.93-.6-1.86-.9-2.79,0-.48-.01-.96-.02-1.45.02-.13.02-.26,0-.39-.18-1.25.37-2.56-.36-3.76-.14-.34-.5-.63-.35-1.03.45-1.16.22-2.36.3-3.54.43-.41.46-.96.47-1.48.01-1.21-.04-2.42-.07-3.64.09-.52.03-1.05.22-1.58.28-.79.53-1.61.61-2.43.09-.92.35-1.78.63-2.65.32-1,.5-2.05.73-3.08.57-2.51,1.24-4.99,1.6-7.72.63.63.75,1.3.58,1.92-.26.95-.01,1.8.24,2.67-.12.18-.32.36-.34.55-.14,1.64-.11,3.29.04,4.92.02.19.23.36.35.54.66.68.55,1.62.51,2.37-.07,1.4.23,2.71.45,4.05h0c0,.84,0,1.68,0,2.52,0,.33.13.58.42.75.23.28.61.57.5.92-.27.87.16,1.55.46,2.28-.14.83-.11,1.62.44,2.32.11.71.43,1.32.95,1.82h0c-.08.67-.23,1.36.46,1.84,1.32,2.19,2.65,4.34,4.42,6.24,1.39,1.5,3.12,2.61,4.41,4.18,1.57.41,2.67,1.64,4.08,2.37,2.26,1.16,4.63,2.15,6.64,3.8.84.7,2,1.03,3.02,1.49,1.37.62,2.75,1.22,4.14,1.78.33.13.75.03,1.12.03,0,0,0,0,0,0,0,0,0,0,0,0,.16.26.41.34.69.33l.07.14.16-.02s0,0,0,0c.73.62,1.74.41,2.53.85l-.05.08c.2.2.41.31.64.36.03,0,.05.01.08.02.39.07.8,0,1.21-.05.28,0,.57,0,.85,0,0,0,0,0,0,0,.17.02.34.04.5.06h0s.2.1.2.1c0,0,.19-.04.21-.04.54.51,1.21.44,1.86.43.1.2.23.32.38.39.08.04.17.07.26.08.23.04.48.02.72,0,.07.14.16.24.26.33.28.24.66.27,1.05.23.05,0,.09,0,.13,0,.1,0,.19,0,.28.03.22.05.42.15.62.27.68.68,1.47.54,2.25.45.19-.02.38-.04.57-.05.42,0,.83,0,1.25,0t0,0c.15.05.29.07.42.06.24-.01.45-.12.62-.38,0,0,0,0,0,0h0c.25,0,.51-.02.76-.02.03,0,.05,0,.08,0,0,0,0,0,0,0,.04.04.07.08.11.11.23.24.46.46.85.31,0,0,0,0,0,0,0,0,0,0,0,0,.23,0,.45,0,.63-.09.13-.06.23-.17.3-.35.31.05.61.08.91.1.55.04,1.09.02,1.62-.07.54-.09,1.07-.25,1.59-.52h0s0,0,0,0c.28.07.66-.03.81.28.02.05.04.11.05.18.04.26.3.48.4.39.32-.3.72-.35,1.12-.37.55-.02,1.11.02,1.53-.4.31.26.61.4.92.44.21.03.43.01.64-.04.34-.08.67-.24,1.01-.43,0,0,0,0,0,0h0c.36-.04.77,0,.82-.52.05-.1.11-.19.14-.29.01-.05-.03-.11-.04-.17,0-.01.02-.02.03-.04.11-.17.25-.33.32-.51.17-.43.2-.9-.21-1.18-.42-.29-.82-.09-1.12.3-.93-.23-2.29.85-2.77-.78-.01-.05-.03-.09-.04-.14.19-.9.15-1.81.09-2.71.9-1.69.05-3.58.57-5.31-.36-1.13.19-2.4-.53-3.47,0-.51-.12-.99-.47-1.39.04-.2.07-.39.07-.58,0-.25-.05-.49-.16-.71-.09-.18-.22-.35-.42-.5v-.03c0-.28-.15-.44-.39-.52,0-.21-.02-.39-.06-.57-.11-.51-.39-.92-.78-1.26-.18-.15-.38-.3-.6-.43h0c0-.26.04-.53.01-.79-.01-.14-.05-.28-.12-.4-.05-.1-.13-.2-.24-.28-.13-.6-.02-1.29-.56-1.76-.02-.2-.04-.4-.06-.61,0-.08-.02-.16-.02-.23.03-.93.37-1.89-.28-2.73-.03-.04-.05-.08-.09-.12v-.88c.32-.17.3-.34,0-.51,0-.44.01-.88.02-1.33.38-.39.53-.86.44-1.4.41-.37.32-.92.48-1.38,0,0,0,0,0,0h0s.04-.04.07-.06c.41-.37.48-.83.33-1.36,0,0,0-.01,0-.02h0s0,0,0,0c0-.1.02-.2.05-.3.01-.03.02-.07.03-.1.47-.35.35-.87.38-1.34,0-.03,0-.06,0-.09h0s0,0,0,0v-.02s.04-.02.07-.03c.41-.15.47-.47.37-.87,0,0,0-.01,0-.02.03-.13.07-.25.1-.38.01-.01.02-.02.03-.03.38-.33.45-.73.38-1.16-.01-.09-.03-.19-.06-.28.07-.14.08-.28.02-.42l.12.06c.11-.07.18-.14.24-.22.15-.22.13-.48.13-.75,0-.11,0-.21.02-.32,0-.04.01-.07.02-.11.52-.55.52-1.21.41-1.89h.01c.69-.66.48-1.51.44-2.32.09-.31.21-.62.2-.95,0-.12-.02-.24-.07-.36,0,0,0,0,0,0,.2-.45.37-.91.5-1.37.15-.53.25-1.06.31-1.61.06-.55.07-1.1.04-1.67l.1-.1-.07-.13s0,0,0,0c.31-.3.48-.66.46-1.1.08-.1.12-.21.14-.33.21-.47.4-.96.35-1.5.48-.55.24-1.26.4-1.87.17-.1.28-.22.35-.36.07-.13.11-.26.12-.41.03-.19.03-.39.03-.58.18-.19.31-.4.41-.63.08-.17.14-.35.18-.54.09-.39.13-.8.2-1.21l.03-.03c.37-.15.54-.43.54-.83.13-.08.22-.17.28-.27.03-.05.05-.1.07-.15.06-.17.06-.35.04-.55h0c.28-.24.49-.51.48-.9.36-.19.48-.51.5-.9.57-.37.47-1.26,1.18-1.52.24-.09.49-.09.52.16.06.59.02,1.19.06,1.78.03.5-.06,1.06.46,1.41,0,.58.11,1.12.45,1.61l-.07.11.09.1c-.1.47.05.86.42,1.16l-.04.15.13.08c.14.17.32.3.36.54,0,0,0,0,0,0-.12-.18-.23-.36-.35-.54-.03.29.04.5.36.56.12.12.24.25.36.36.33.31.68.56,1.16.56.11,0,.23-.01.36-.04.15.16.31.25.46.26.02,0,.05,0,.07,0,.15-.01.3-.11.45-.29.22-.07.43-.15.63-.24.53-.25.95-.62,1.18-1.19.04-.1.08-.22.11-.33.12-.09.23-.18.33-.28.69-.66,1.01-1.52,1.31-2.4.06-.18.13-.36.19-.54.26-.09.41-.26.36-.56h0s0,0,0,0c.31-.23.4-.57.45-.92h0c.45-.16.49-.52.47-.92.43-.35.51-.83.52-1.34.13-.06.23-.15.3-.25.05-.07.09-.15.11-.24.04-.13.06-.28.07-.43.09-.06.16-.12.22-.19.16-.19.2-.41.22-.64.01-.18,0-.37.02-.55.23-.18.44-.39.62-.61.24-.29.43-.6.61-.92.22-.4.4-.82.58-1.25.25-.08.38-.25.38-.52l.03-.04h0s0,0,0,0c.45-.32.49-.8.54-1.28.32-.21.43-.53.5-.89.26-.08.41-.24.38-.53.34-.2.42-.54.5-.88.27-.04.43-.19.44-.48.16-.08.27-.19.35-.31.01-.02.03-.05.04-.07.07-.15.1-.32.12-.5.25-.08.34-.26.32-.52l.15-.1-.03-.18h0c.13-.21.27-.43.4-.64h0c.26-.03.45-.14.5-.42.28-.05.41-.22.39-.51v-.02s.01,0,.01,0h0c.33-.19.48-.49.54-.84.08-.03.15-.08.21-.12.24-.2.26-.49.28-.78,0-.14.02-.27.05-.4.34-.08.62-.24.77-.59h.01s0,0,0,0c.27,0,.48-.09.52-.4.08-.03.15-.08.2-.13.09-.08.14-.17.19-.28.06-.15.09-.32.13-.48.87-.64,1.74-1.29,2.61-1.93h.02c.27,0,.45-.12.54-.37.14-.03.26-.07.37-.11.38-.15.65-.41.81-.77.07-.16.12-.34.15-.54.21-.06.44-.06.67-.09.33-.04.63-.14.75-.54.02-.07.03-.14.04-.22.24-.08.4-.23.44-.49.28-.07.38-.26.37-.54-.13.17-.25.34-.38.52,0,0,0,0-.01,0,.06-.22.25-.35.39-.52h0s0-.01,0-.01h0c.13-.12.26-.23.4-.35.54-.45,1.11-.89,1.41-1.55.04-.1.08-.2.11-.31.25-.08.37-.27.41-.53.25-.04.46-.13.52-.41.29-.05.38-.26.4-.52.16-.05.27-.13.35-.23.03-.06.07-.12.1-.18.05-.13.08-.28.09-.44.24-.08.4-.23.43-.49.07-.02.13-.05.18-.08.2-.12.28-.32.32-.54.01-.08.02-.16.03-.24.24-.08.37-.24.41-.49.25-.05.43-.17.49-.44.28-.07.37-.28.36-.55h0c.16-.15.31-.3.45-.46h.01c.3,0,.45-.16.47-.45.43-.15.45-.53.5-.89.25-.05.43-.18.47-.45.28-.05.39-.24.43-.5.27-.04.43-.19.44-.48-.15.16-.29.31-.44.47,0,0,0,0,0,0h0s0,0,0,0t0,0s0,0,0,0c-.14.16-.28.32-.42.47,0,0,0,0-.01,0,.1-.2.26-.34.43-.48.13-.17.29-.32.44-.47h0c.11-.05.2-.1.27-.17.18-.16.23-.4.22-.67,0-.02,0-.04,0-.05.02-.01.04-.03.06-.04.23-.16.39-.37.47-.63.01-.05.03-.1.04-.15.06-.02.12-.05.17-.09.07-.05.12-.11.15-.18.04-.08.06-.17.05-.29.32-.22.39-.58.51-.9.21-.12.39-.25.56-.39.55-.48.82-1.11.83-1.87,0-.17,0-.34-.02-.52.09-.07.16-.14.21-.21.16-.2.17-.4-.04-.59-.06-.06-.14-.12-.25-.17-.03-.28-.22-.39-.47-.43l-.02-.02h0c-.04-.24-.14-.43-.37-.54,0-.09,0-.17-.02-.25-.07-.41-.32-.65-.78-.71-.03,0-.06,0-.09-.01-.03-.05-.08-.09-.12-.13-.12-.12-.27-.19-.42-.25-.12-.04-.24-.07-.36-.11-.02-.08-.04-.15-.07-.22-.12-.29-.32-.49-.62-.56-.1-.02-.21-.04-.33-.04-.11-.17-.23-.31-.38-.4,0,0-.02,0-.03-.01-.15-.08-.32-.1-.54-.03l-.13-.11-.15.08c-.17-.16-.35-.33-.52-.49,0-.1,0-.19-.02-.26-.07-.33-.3-.49-.6-.58-.1-.03-.21-.05-.33-.07-.02-.12-.04-.24-.08-.34-.11-.29-.31-.49-.62-.6-.05-.02-.11-.03-.16-.04-.02-.08-.06-.15-.1-.2-.05-.05-.1-.09-.15-.14-.07-.04-.15-.07-.25-.08-.09-.26-.28-.36-.54-.37-.05-.24-.17-.43-.43-.5-.02-.28-.18-.43-.45-.47-.07-.27-.24-.4-.53-.37.17.12.34.25.51.37,0,0,0,0,0,0-.21-.08-.34-.26-.51-.38h-.03s0-.01,0-.01c-.03-.04-.06-.08-.1-.12-.3-.31-.71-.38-1.11-.49,0-.11-.02-.22-.03-.32-.06-.46-.2-.86-.72-.97-.07-.02-.16-.03-.25-.03-.08-.25-.26-.37-.52-.39.17.13.33.26.5.39,0,0,0,0,0,0,0,0,0,0,0,.01-.21-.07-.35-.25-.5-.4h0c-.04-.27-.19-.42-.46-.45h0c-.04-.16-.1-.26-.19-.34-.08-.05-.16-.09-.23-.14-.11-.05-.24-.08-.37-.1-.02-.11-.04-.23-.06-.34-.07-.42-.18-.81-.63-.95-.09-.03-.18-.04-.29-.05-.16-.15-.32-.31-.48-.46-.26-.45-.55-.86-.87-1.24-.5-.6-1.07-1.14-1.68-1.63-.52-.42-1.07-.82-1.64-1.19h0c.04-.32-.13-.46-.4-.52-.09-.25-.19-.47-.32-.67-.31-.52-.74-.93-1.26-1.25-.23-.14-.48-.26-.74-.37-.04-.26-.17-.44-.43-.49-.05-.27-.2-.42-.48-.45-.06-.27-.26-.37-.52-.38.17.13.33.25.5.38,0,0,0,0,0,0-.2-.09-.33-.27-.5-.39l-.02-.02c-.12-.17-.29-.3-.37-.5,0,0,0,0,0,0h0s0,0,0-.01c.02-.31-.15-.45-.42-.52-.03-.12-.08-.23-.13-.33-.18-.39-.47-.69-.85-.9-.12-.06-.24-.12-.38-.17-.05-.14-.11-.27-.17-.4-.27-.52-.67-.89-1.18-1.15-.17-.09-.36-.17-.55-.23-.07-.24-.2-.42-.45-.49-.01-.13-.05-.24-.13-.32,0,0,0,0-.01,0-.07-.07-.18-.12-.3-.15-.02-.12-.07-.22-.14-.3,0,0-.02-.02-.02-.02-.07-.07-.17-.12-.29-.15-.07-.35-.28-.6-.59-.78v-.03c-.15-.16-.29-.32-.44-.46h-.01c-.16-.4-.55-.41-.87-.51-.01-.15-.04-.29-.08-.42-.15-.49-.48-.82-.99-.98-.07-.02-.14-.04-.22-.06-.04-.14-.09-.28-.15-.41-.04-.07-.09-.13-.12-.2-.07-.09-.17-.16-.3-.21-.01-.29-.17-.44-.44-.48-.03-.25-.17-.42-.41-.51,0-.14-.03-.27-.08-.39-.03-.06-.06-.12-.1-.18-.08-.12-.2-.21-.38-.28-.01-.26-.13-.45-.39-.54-.03-.15-.08-.28-.14-.41-.16-.34-.41-.62-.68-.87-.19-.18-.38-.35-.56-.54-.09-.48.01-1.02-.43-1.39.05-.16,0-.28-.14-.36.02-.89.04-1.77.06-2.66,0-.06,0-.12,0-.18,0-.22-.02-.43-.12-.6-.07-.12-.17-.23-.34-.3l-.09.05c0-.15.02-.3.07-.45.09-.06.17-.13.23-.2.37-.4.28-.91.23-1.42,0-.09-.02-.17-.02-.26,0-.3.02-.6.03-.9.08-.07.14-.15.2-.23.24-.33.33-.71.28-1.14,0-.09,0-.18,0-.26v-.23c.13-.12.15-.25.06-.39.29-.25.45-.56.45-.95,0,0,0,0,0,0,.29-.77.58-1.54.86-2.31,0,0,0,0,0,0,0,0,0,0,0,0h0c.08-.1.12-.21.16-.33.1-.2.2-.41.29-.61.28-.03.47-.16.44-.48-.15.16-.3.32-.44.47,0,0,0,0,0,0,.13-.17.29-.32.45-.47h0s0,0,0,0h0c.43-.35.37-.88.49-1.35.24-.07.4-.23.44-.48.29-.03.45-.17.42-.48v-.03c.34-.35.65-.71.96-1.08.35-.4.68-.82.99-1.25.17-.24.33-.48.48-.73.26-.08.39-.27.43-.52.27-.06.45-.2.39-.53-.13.17-.26.34-.4.51,0,0,0,0-.01,0,.08-.21.25-.36.41-.51l.1-.09-.05-.12s0,0,0,0c0,0,0,0,0,0,.13-.24.26-.48.39-.71h.02c.35-.06.73-.07.93-.45h0c.32.01.45-.16.46-.46.39-.17.44-.52.51-.87.34-.07.7-.11.81-.54l.03-.03h0c.39-.13.49-.45.56-.79.25-.05.42-.19.48-.44.26-.04.41-.19.47-.45.41-.15.94-.06,1.17-.58l.16-.06v-.17s0,0,0,0c0,0,0,0,0,0,.13-.23.26-.46.39-.69,0,0,0,0,0,0h.01c.21-.05.42-.1.6-.19.16-.08.29-.2.36-.39.03-.08.05-.17.05-.28.13-.17.25-.35.38-.52,0,0,0,0,0,0h0c.27,0,.46-.1.55-.35.1-.01.19-.03.28-.06.14-.04.26-.11.35-.21.07-.08.13-.18.16-.31l.02-.02c.2-.07.33-.18.42-.32,0,0,.01-.02.02-.03.08-.14.1-.31.09-.5.14-.16.29-.32.43-.48.67,0,.97-.51,1.29-.97l.05-.03c.2-.04.32-.13.42-.25.02-.04.04-.07.07-.1.06-.11.11-.24.14-.38.25-.1.35-.29.37-.55.25-.06.42-.19.47-.46.28-.04.4-.22.37-.5l.14-.09-.03-.16s0,0,0,0c0,0,0,0,0,0,.26-.12.41-.33.46-.61.34-.07.67-.17.85-.53h.01c.13-.01.26-.02.38-.05.21-.05.39-.17.49-.43l.04-.03c.24,0,.36-.14.42-.34,0-.03.02-.06.02-.09,0,0,.02-.02.02-.02h0s0,0,0,0c.25-.03.43-.14.5-.4.29,0,.44-.17.49-.43.13-.03.25-.06.36-.11.24-.1.42-.25.52-.49.04-.08.06-.18.08-.29.29-.16.59-.31.88-.47.07,0,.13,0,.19,0,.41-.05.63-.31.77-.68.02-.05.04-.11.05-.17.04,0,.07,0,.11.01.82.1,1.46-.22,1.97-.82.05-.06.09-.11.14-.17.3-.05.5-.22.64-.49-.17.02-.32.08-.43.17.11-.1.26-.16.43-.17l.16.02.07-.15c.28.03.42-.12.48-.37.37-.03.7-.13.93-.45.22.02.42-.01.6-.06.45-.12.8-.39,1.13-.71.2-.19.39-.39.6-.57.13,0,.22-.03.3-.09.02-.02.05-.03.07-.05.07-.07.11-.17.14-.28.34-.08.67-.19.88-.5.08,0,.15,0,.21,0,.36-.05.58-.25.7-.57.03-.08.06-.17.08-.27.12-.02.24-.04.37-.07.39-.08.75-.2.9-.61.03-.09.05-.19.06-.3.25-.08.48-.19.69-.32.05-.04.1-.07.15-.1.19-.14.37-.31.52-.51.13,0,.23-.03.31-.09.02-.02.04-.03.06-.05.07-.08.1-.18.11-.32.21-.16.42-.32.62-.47h0l.14.04.08-.12c.16-.13.3-.3.51-.37,0,0,0,0,0,.01-.17.12-.34.23-.51.35.29.05.45-.1.53-.35.36-.05.66-.19.78-.57l.04-.04c.21-.06.34-.16.43-.3,0,0,0-.01.01-.02.08-.14.11-.3.11-.49.16-.13.33-.27.49-.4.07,0,.13-.01.18-.03.25-.07.39-.25.49-.46.08-.16.13-.33.2-.5.16,0,.33,0,.48-.03.14-.03.27-.09.37-.21.04-.05.08-.11.11-.18.12-.04.23-.08.34-.14.4-.19.7-.47.9-.86.06-.12.11-.25.15-.4.26-.08.37-.27.39-.54.26-.04.41-.2.47-.45.47-.08,1-.02,1.31-.5l.03-.02c.14,0,.23-.04.31-.1.03-.03.05-.06.07-.1.04-.07.06-.16.06-.27l-.03-.02s0,0,0,0c0,0,.02.02.02.03.39-.24.77-.49,1.16-.73.09-.04.18-.09.25-.16h.01c.28.03.47-.09.56-.35.09-.01.17-.04.25-.07.29-.11.48-.3.59-.59.03-.08.06-.17.08-.26.07,0,.14-.01.2-.02.06,0,.12-.01.18-.02,0-.06.01-.12.02-.18,0,0,0,0,0-.01,0-.09.02-.18.03-.28.25-.09.33-.29.37-.53-.12.17-.25.34-.37.51,0,0,0,0,0,0,0,0,0,0,0,0,.08-.2.26-.33.38-.5l.02-.02h0c.27-.04.5-.12.7-.24.23-.13.41-.32.56-.54.09-.14.16-.3.23-.47.27-.05.44-.2.45-.49.21-.2.41-.4.59-.61.27-.3.5-.63.64-1.01.08-.21.13-.43.14-.68.23-.1.33-.28.31-.53l.15-.09v-.18s-.01,0-.01,0c.27-.13.39-.36.4-.65h0c.15-.15.29-.32.49-.42,0,0,0,0,0,0h0s0,0,0,0c-.16.14-.33.28-.49.41.23-.06.42-.17.51-.41.16-.01.3-.05.41-.11.17-.08.28-.21.36-.38.06-.13.1-.29.11-.47.46-.32.46-.84.54-1.31.25-.08.42-.22.4-.51.4-.2.37-.58.37-.94l.15-.1-.02-.17h0c.26-.14.38-.37.4-.66h0c.19-.08.3-.19.37-.33.05-.11.08-.23.08-.36,0-.08,0-.16,0-.24-.02-.3-.04-.6-.07-.91.15-.07.19-.19.12-.34.34-.23.46-.58.52-.96.25-.09.37-.28.34-.55v-.02h0s0,0,0,0c.14-.15.28-.3.41-.46,0,0,.01-.01.02-.02.67-.69.53-1.53.51-2.35,0-.12,0-.23,0-.35.02-.14.04-.29.06-.43.7-.7.34-1.58.36-2.39.22-.16.35-.36.43-.57.06-.14.09-.3.11-.45,0-.03,0-.05.01-.08,0-.04,0-.07,0-.11.01-.23,0-.46,0-.68,0-2.07-.05-4.13-.09-6.2.05-.06.1-.1.14-.15,0,0,0,0,.01-.01.6.1.87.62,1.18,1.04,1.85,2.48,7.27,3.84,10.53,1.34.38-.3.73-.58.6-1.1-.13-.5-.61-.34-.95-.38-.3-.03-.64-.06-.9.04-1.78.71-3.55.44-5.37.19-.87-.12-1.61-.42-2.28-.88-.99-.69-1.99-1.41-2.5-2.59h0c0-1.23,0-2.45,0-3.68h0c.15,0,.3,0,.45,0,1.1,1.26,2.62,1.78,4.13,2.33.74.53,1.57.43,2.39.36,0,0,0,0,0,0,.1,0,.21,0,.31-.02.69.1,1.39.26,1.92-.4,0,0,0,0,0,0,.63-.15,1.28-.27,1.81-.68.03-.02.06-.04.09-.07h0l.12.02.06-.11s0,0,0,0c.22.45.15,1.04.69,1.33.14.36.28.72.42,1.08l-.09.16.12.13c-.05.21-.04.4.03.57,0,0,0,0,0,0,.07.16.19.29.36.41,0,.28.16.42.4.51,0,.11,0,.22,0,.33,0,.32.02.62.2.88.08.11.19.22.34.31l-.04.14.11.08c-.01.51.02,1.01.47,1.35v.02c-.02.27.09.46.34.56,0,.17.03.32.07.47.12.43.36.77.66,1.09.24.26.49.5.73.76-.09.14-.06.26.08.35-.07.39-.07.77.34.99.15.45.11.98.5,1.34,0,.12-.01.24,0,.36.02.21.09.4.27.54.03.03.07.05.12.07,0,.05,0,.1,0,.14,0,.09.03.18.09.27-.08.41.11.73.33,1.04.2.42.11.97.61,1.24.03.03.07.07.1.1.12.12.24.24.37.36,0,.29.16.44.42.49.05.23.03.49.06.73.02.14.06.28.14.4.06.09.15.17.28.24.03.37.04.75.48.91.02.29.18.48.43.61l-.06.17.13.12c-.09.42.11.71.45.92h0c0,.38.05.74.41.96,0,.16.01.31.05.45.03.12.08.23.17.33.05.06.12.12.2.17,0,.07.02.14.04.21.07.27.23.46.46.59.12.07.25.12.4.16.22.57-.01,1.29.56,1.75-.01.51.08.99.48,1.36h0c-.04.29.08.47.33.57.08.5.16,1,.38,1.46.03.12.08.23.17.32.04.27.07.55.11.82,0,.21,0,.41,0,.62,0,1.09-.02,2.18-.03,3.26,0,.27,0,.54,0,.81-.38,1.46-.82,2.89-1.99,3.95-.51.46-.58,1.25-1.23,1.6h0c-.53.08-.55.46-.51.87-.27.02-.47.12-.49.43h0c-.34.01-.42.22-.4.52-4.68,4.02-9.36,8.03-14.03,12.06-.27.24-.44.6-.65.91h0c-.76.87-.78,1.75-.07,2.65.87,2.55,2.12,4.91,3.49,7.25,2.13,3.63,2.67,4.64,3.92,9.77v1.49c0,.11,0,.22.04.33.04.96-.29,1.97.3,2.87.06.12.1.23.15.35-.02.34-.03.69-.05,1.03h0c-.03.29-.06.58-.09.87-.4.31-.52.63-.04.97,0,.29,0,.58,0,.87-.25.17-.35.42-.38.71-.04.37-.19.66-.57.79-2.89-3.99-6.46-7-11.47-7.95-1.51-.29-2.95.22-4.11.88-3.6,2.05-5.77,5.23-6.43,9.38-.14.89-.72,1.7-.46,2.66-.14.55-.08,1.05.39,1.43.04.12.08.25.12.38h0c-.14.42,0,.75.35,1,.41.78.96,1.51,1.06,2.44.06.54.46.92.7,1.39.49.96,1.11,1.89,1.06,3.05h0c0,.51-.06,1.04.42,1.41.04.12.08.25.11.37h0s0,0,0,0c-.09.35.07.5.4.51,1.19,2.4,2.45,4.78,3.55,7.23.43.95,1.1,1.71,1.56,2.62.43.85.39,2.02,1.43,2.49,1.04.47,1.22,1.63,1.94,2.38,1.47,1.54,2.87,3.1,4.54,4.45,1.68,1.36,3.62,2.24,5.46,3.24,2.5,1.37,5.16,2.59,8.19,2.46,2.28-.1,4.24-.94,6.2-2.01.98-.54.99-1.71,1.94-2.15.99-.46,1.19-1.49,1.57-2.38.18-.42.42-.91.9-.92.58,0,.92.45,1.02,1.04.5,2.81,1.65,5.41,2.55,8.09.23.7-.14,1.37.13,2.03-.11.82-.12,1.62.47,2.3h0c-.08.96-.16,1.93.42,2.79.27.44.33.89.03,1.34-.64.81-.42,1.78-.52,2.7-.31.99-.5,2.02-1.22,2.86-.28.33-.45.81-.55,1.24-.17.79-.64,1.28-1.2,1.85-1.27,1.28-2.21,2.88-3.59,4.08-1.31,1.14-2.66,2.26-3.98,3.39-.57.03-.87.35-.99.87-.26.14-.52.28-.78.42-.03.01-.07.03-.1.05-.16-.02-.3,0-.43.05-.06.02-.12.05-.18.09-.12.09-.22.2-.29.36-.3,0-.43.18-.47.45-.39.07-.8.09-1.08.44l-.17-.04-.1.14h0s0,0,0,0c-.64,0-1.04.37-1.34.89l-.03.02c-.63.1-1.36-.26-1.87.39-.17-.02-.34-.03-.5-.03-.24,0-.46.06-.64.22-.09.07-.16.17-.23.29-.37.02-.72.09-.93.44-.14-.01-.27-.02-.39,0-.16.02-.31.07-.44.19-.06.05-.11.12-.15.2-.26.11-.57.09-.87.11-.15,0-.29.03-.42.08-.17.06-.32.18-.44.39h-.02c-.26,0-.44.12-.55.35-.08-.01-.16-.02-.23-.02-.3,0-.55.08-.69.42,0,.02-.01.03-.02.05-.03,0-.05.02-.08.02-.16.05-.27.13-.34.27-.02.05-.04.11-.06.17-.35.08-.63.25-.77.6h-.02c-.13.05-.22.11-.29.16-.21.16-.26.39-.27.64,0,.17.01.35.01.52-.16.13-.33.26-.49.39-.13.02-.23.06-.31.1-.14.08-.24.19-.31.32-.09.18-.14.4-.18.62v.02s-.01,0-.01,0c-.23.21-.36.44-.45.69-.16.43-.17.89-.17,1.35,0,.19,0,.38-.02.56-.12.05-.23.11-.32.17-.27.19-.41.45-.44.77-.02.17,0,.36.04.57l-.14.11.05.17h0c-.21.19-.33.39-.41.61-.08.24-.11.5-.11.76,0,.2.02.4.03.61-.46.38-.42.9-.41,1.42-.03.05-.06.09-.09.14-.15.25-.26.5-.34.76-.12.42-.16.87-.15,1.32,0,.16.01.32.03.48-.37.23-.24.66-.36.98-.03.02-.05.05-.08.07-.28.24-.39.55-.39.92.01.75.04,1.49.06,2.24v.05s-.02.08-.03.12c-.02.09-.03.19-.06.28-.34.26-.34.64-.35,1.02-.02.89-.03,1.79-.05,2.68,0,0,0,.02,0,.02,0,.15-.02.29-.03.44-.24.43-.4.87-.49,1.31-.14.67-.15,1.36-.11,2.05.02.24.04.48.06.72-.24.08-.4.23-.38.52-.19.16-.31.34-.38.54-.08.22-.12.45-.14.69-.02.18-.03.37-.05.55-.06.04-.11.08-.15.12-.22.22-.25.5-.23.78.01.19.05.38.05.57h0c-.26.25-.53.49-.5.89-.46.37-.39.91-.42,1.41h0s0,0,0,0c-.36.21-.44.55-.43.93v.03s-.01,0-.02,0c-.45.35-.31.89-.43,1.35l-.03.03h0c-.3.13-.38.38-.42.69-.04.35-.11.7-.17,1.06-.13.13-.24.27-.33.43-.14.24-.24.49-.34.75-.08.21-.15.43-.23.63-.36.25-.34.64-.37,1.01h0s0,0,0,0h0c-.16.15-.32.29-.48.44-.02.01-.04.02-.06.04-.36.21-.43.52-.33.9,0,.02.01.05.02.07-.03.13-.06.25-.1.38,0,0,0,0,0,0,0,0,0,0-.02.01-.34.2-.51.49-.45.9h0s0,.08-.01.12c-.01.1-.02.2-.04.3-.32.23-.43.56-.45.94-.1.07-.17.14-.23.22-.15.19-.2.41-.2.64,0,.19.02.38.04.57-.46.36-.37.9-.44,1.39h-.01c-.25.06-.46.14-.47.45h0c-.43.18-.43.55-.45.93h0s0,.01,0,.01c-.35.2-.49.51-.44.91l-.14.1.05.16s0,0,0,0c-.37.47-.42,1.02-.42,1.59l-.1.1.06.12s0,0,0,0c-.21.23-.34.48-.42.74-.06.19-.08.39-.08.6,0,.24.03.48.09.73-.38.39-.63.82-.46,1.4l-.12.13.08.15s0,0,0,0c-.3.3-.38.68-.37,1.09l-.13.08.04.15s0,0,0,0c-.75.76-.25,1.7-.36,2.55l-.02.04s0,0,0,0c-.35.19-.5.47-.46.86l-.12.08.04.14s0,0,0,0h0s0,0,0,0c-.4.47-.37,1.06-.42,1.62-.47.36-.51.86-.44,1.39l-.13.13.07.17s0,0,0,0c-.38.44-.29,1.02-.45,1.52-.07.05-.13.11-.18.16-.31.35-.29.79-.28,1.26.02,1.35,0,2.7-.01,4.05l-.02.05c-.62.88-.58,1.54.16,2.7.16.03.33.07.49.1.1.02.2.04.3.06.16.14.31.36.49.39.79.14.85.7.85,1.31-.35.04-.69.1-1.04.09-.47-.02-.87.1-1.2.44-.02,0-.03-.01-.05-.02-.07-.03-.14-.04-.2-.03-.06,0-.11.02-.17.05-.05-.08-.1-.14-.14-.18-.06-.05-.13-.06-.2-.03-.06.03-.12.09-.19.2,0,0,0,0,0,0-.57.31-1.31-.04-1.82.48-.4-.02-.7.13-.92.46-.4-.03-.65.2-.88.49h-.03s0,.01,0,.01c-.52-.02-1.02,0-1.41.41-.4-.05-.69.15-.95.41-.16-.05-.32-.07-.47-.07-.25,0-.49.04-.72.13-.23.08-.44.2-.66.31-.13.04-.25.1-.37.19l-.03.02c-.37,0-.73.05-.97.37-.59.02-1.19.03-1.78.05-.06-.12-.13-.2-.21-.27-.37-.33-.95-.22-1.38-.43-.58-.28-.82.19-.85.68-.05.93.29,1.59,1.16,1.81.1.03.21.05.33.06h.01s0,0,0,0c0,0,0,0,0,0,1.29.45,2.54.46,3.71.04,0,0,0,0,0,0h0s0,0,0,0h0c.27.02.55.05.81.05.3,0,.6-.02.88-.14.2-.09.4-.22.58-.42h.02c.37-.02.72-.08.91-.46h.01c.16-.15.29-.33.5-.4,0,0,0,0,0,.02-.17.13-.33.25-.5.38.28.01.45-.12.52-.39.29-.04.49-.2.61-.47l.14.06.1-.12c.22.04.43.07.63.05.13-.01.25-.04.37-.1.15-.08.28-.21.38-.41h0c.77-.19,1.65.24,2.33-.42.82-.03,1.65-.06,2.47-.08.45,0,.91.05,1.22-.37.43,0,.86,0,1.3,0,.34.51.97.15,1.38.44,0,.01.01.02.02.03.16.27.41.36.73.37,1.43.02,2.86.06,4.29.09h.04s0,0,0,0h0c.33.55.68.5,1.04.03,0,0,0,0,0,0h.07s.08-.03.08-.03l.16.02h0c.06.05.11.09.17.14.49.37,1.03.4,1.58.33.21-.03.43-.06.65-.1h0s0,0,0,0c.11.04.22.06.34.07.01,0,.02,0,.04,0h0c.2.1.4.29.6.3,1.02.04,2.04.15,3.06.15.51,0,1.02-.03,1.53-.11.11.05.22.09.34.12h0s.02.02.03.03c.19.24.45.35.76.36.92,0,1.83,0,2.75.01.23,0,.46,0,.69,0l.19.11s.19-.02.21-.02c.54.61,1.25.26,1.89.34.21.25.46.24.72.09h0c.3.32.68.45,1.11.42,0,0,0,0,0,0,.05.05.1.08.15.12.35.28.74.41,1.2.38.24.35.61.33.97.36l.05.03s0,0,0,0c.05.06.1.1.15.14.45.37,1.08.19,1.58.4.25.2.5.4.75.6.09.07.17.14.26.21.26.44.65.5,1.07.49.11,0,.21-.01.32-.02h0c-.02.3.09.49.4.52h0c.08.1.17.11.28.04,0,0,0,0,0,0,.95.63,1.9,1.26,2.86,1.89,0,0,0,0,0,0,0,0,0,0,0,0,0,0,0,0,0,0,.65.58,1.3,1.16,1.95,1.73h.01c.16.41.53.44.87.51.05.25.17.43.44.48.05.27.22.4.48.44.05.27.21.4.5.37l.09.14.16-.03h0c.11.24.23.45.38.65.2.27.45.48.76.63.11.05.23.1.37.14.09.26.3.35.56.36h0c.06.24.17.43.44.48.01.28.17.43.43.49.02.27.17.43.44.48.05.26.23.4.48.44.04.25.15.45.42.5.06.27.26.37.51.41.05.25.15.45.44.48.06.27.26.37.5.43.03.27.13.47.44.49.32.45.63.9.95,1.35-.02.15,0,.26.06.34.01.01.02.03.04.04.07.07.17.11.29.14.07.26.25.38.49.43.04.36.11.71.5.88,0,.26.09.46.34.56.02.14.06.28.11.4.03.05.05.1.08.15.08.12.18.23.32.32.02.38.24.65.52.89.02.2.07.38.15.54.13.27.32.49.53.69.22.21.46.41.67.63.12.4.14.82.38,1.18.03.06.07.12.13.17,0,.29.09.52.23.72.04.06.09.11.13.17.11.14.24.27.36.4.2.23.18.55.21.85.01.2.05.38.18.54.05.05.11.1.18.15,0,.11.02.22.05.32.04.15.1.28.2.39.07.07.15.13.26.18.03.37.22.66.52.87h0c-.04.29.08.47.33.57.04.19.07.39.11.57.01.05.03.11.05.16.08.2.2.39.44.51l.02.03h0c.01.28.12.5.37.65l-.04.17.14.11c-.05.27.05.45.29.56-.02.05-.03.1-.03.15,0,.08.05.15.13.2.07.58.28,1.1.53,1.6.12.24.25.48.37.72,0,0,0,0,0,0h0c.12.48.06,1.02.45,1.41,0,.4.23.64.54.84v.02c.03.45.04.9.05,1.35,0,.37-.03.76.38.97.23.62-.24,1.38.4,1.91.04.13.07.26.11.38.02.3.03.6.05.9,0,.13.01.27.02.4-.04.5-.1.99-.12,1.49,0,.28.08.53.28.72.06.06.14.11.22.15.31.49-.08,1.14.38,1.59,0,0,0,0,0,0l-.05.18.14.11c0,.6,0,1.2,0,1.8-.04.18-.07.35-.09.53-.1.79-.01,1.56.44,2.28,0,.01.01.02.02.03.04.13.07.26.07.4-.01.01-.03.03-.04.04-.16.16-.31.31-.47.47h0c-.13-.39-.43-.53-.82-.55-.4-.47-.79-.97-1.36-1.21-.16-.07-.34-.12-.53-.14-.08-.24-.25-.38-.49-.44-.02-.28-.11-.49-.44-.48-.2-.39-.6-.35-.94-.43h0Z"/><path class="cls-1" d="m207.71,414.75c-.12-.21-.23-.41-.35-.62-.02.28.1.49.35.62Z"/><path class="cls-1" d="m209.1,417.95c-.11-.2-.22-.39-.32-.59,0,.26.1.46.32.59Z"/><path class="cls-1" d="m328.99,418.14c.12.2.24.41.36.61,0-.28-.11-.48-.36-.61Z"/><path class="cls-1" d="m226.66,255.64c.14.15.29.31.43.46.01-.3-.13-.46-.43-.46Z"/><path class="cls-1" d="m267.97,294.48c3.44,2.55,7.08,3.82,11.24,1.7.37,0,.56-.21.54-.54-.01-.24-.26-.35-.49-.33-1.42.13-2.85-.28-4.27,0h0s0,0,0,0c-5.12-.76-8.76-3.48-10.86-8.46-.37,1.03-.16,1.79.1,2.57.7,2.09,1.99,3.76,3.74,5.06Z"/><path class="cls-1" d="m259.57,228.39c.27-.07.59-.15.56-.55-.03-.34-.32-.3-.51-.3-1.9,0-3.8-.02-5.69.03-.51.01-1.08,0-1.52.38h0c-1.71.33-3.42.69-5.08,1.25-1.6.54-3.04,1.34-4.26,2.51-.13.13-.22.47-.15.6.09.15.42.27.59.21.65-.2,1.27-.5,1.92-.73,1.87-.65,3.7-1.53,5.63-1.88,2.62-.47,5.22-1.06,7.84-1.51.22,0,.46.04.67-.02Z"/><path class="cls-1" d="m253.44,373.06c-.05-.45-.1-.91-.15-1.36,0-.27-.01-.54-.02-.81.1-.29,0-.48-.28-.59,0,0,0,0,0,0-.29-1.02-.52-2.03-.45-3.12.04-.59-.07-1.25-.3-1.8-.44-1.07-.71-2.17-.98-3.28-.09-.38-.11-2.39-.07-2.83.04-.46-.06-.91-.34-1.34-.85-.07-1.63.22-2.39.6-1.03.51-2.04,1.07-3.09,1.52-1.1.47-1.8,1.64-3.09,1.77-.13.01-.25.17-.37.27-.58.47-.86,1.33-1.75,1.37-.92.05-1,1.08-1.71,1.42-1.92.91-3.09,2.63-4.41,4.19-.6.71-1.3,1.31-1.36,2.31-1.26,1.03-1.52,2.55-1.94,3.98-.06.22-.18.43-.33.6-.7.85-1.12,1.81-1.27,2.9-.06.44-.27.87-.46,1.28-.68,1.45-1.27,2.92-1.55,4.5-.54.69-.65,1.46-.47,2.3h0c-.55.7-.61,1.49-.42,2.33-.33.88-.22,1.79-.22,2.69-.84.89.11,1.92-.23,2.85-.75.48-.42,1.2-.41,1.85,0,.43,0,.86,0,1.29-.13.32-.21.65-.07.98-.05.14-.05.28.02.42-.03.31-.05.61-.08.92h0c-.47.33-.29.66-.01.99,0,.12,0,.25-.02.37-.09.12-.24.24-.25.37-.14,1.9-.27,3.8-.1,5.7,0,.3-.01.59-.02.89-.17,1.57-.2,3.12.45,4.6l-.02.02c-.01.6-.04,1.19-.04,1.79,0,.82-.06,1.66.47,2.38.03.61.11,1.22.07,1.82-.05.79.35,1.19.93,1.67,1.13.96,2.22.91,3.34.19.87-.56,2.05-.71,2.54-1.81,2.15-.9,3.08-3.05,4.61-4.58,1.83-1.83,2.77-4.29,4.15-6.44,1.27-1.97,2.18-4.18,3.35-6.22.47-.82.71-1.67.97-2.54.83-.43.85-.47.75-1.52v-.02c.3-.03.46-.17.41-.48h0c.38-.74.77-1.48,1.13-2.24.39-.82.75-1.66,1.13-2.49-.35-1.54,1.44-2.47,1.16-3.99,1.06-1.16.91-2.85,1.78-4.09.4-.56.64-1.15.45-1.85.61-.49.39-1.2.47-1.83h0c.56-.71.48-1.52.4-2.34.43-1.41.51-2.86.52-4.32,0-.46-.01-.93-.42-1.26Zm-9.26,23.39c-.43,1.22-1.03,2.35-1.67,3.46-.49.86-1.08,1.67-1.13,2.72-.02.29-.13.63-.32.84-1.39,1.54-2.04,3.53-3.17,5.23-1.21,1.82-2.25,3.79-3.73,5.4-1.36,1.48-2.61,3.13-4.55,3.97-.85.37-.92.36-1.11-.67-.03-.15-.04-.3-.07-.45.03-.68.06-1.37.07-2.05,0-.46-.05-.92-.44-1.24-.02-.45-.03-.9-.05-1.35-.01-3.25-.03-6.49-.04-9.74.03-1.05.06-2.11.09-3.16h0c.1-.11.28-.22.29-.34.04-1.74.33-3.48.12-5.23,0-.14.04-.28.09-.41.35-.25.4-.62.4-1,0-.9.01-1.8.02-2.71.13-.51.3-1.01.13-1.56-.15-.49.12-.92.5-1.17.49-.31,1.23-.23,1.49.1,1.58,1.99,3.91,2.35,6.09,3.1.98.33,1.87.93,2.8,1.41t0,0c.48.74,1.25.25,1.85.44h0c.77.54,1.65.4,2.51.43.97.03.97.04,1.17,1.34-.46.88-1.02,1.72-1.35,2.64Zm6.8-18.78c-.3.07-.43.24-.34.55-.1.82-.66,1.56-.44,2.44.17.68-.45,1.08-.6,1.67-.48,1.89-1.12,3.74-1.69,5.61h0c-.54.75-1.25,1.08-2.18.85-.06-.02-.14.01-.21.02-1.8-.77-3.55-1.68-5.57-1.78-.4-.02-.77-.47-1.19-.58-1.67-.43-3.36-.78-5.03-1.21-.8-.21-1.66-.23-2.39-.69-.46-.43-.7-.92-.52-1.58.05-.2-.04-.44-.06-.65.24-.48.53-.94.5-1.51-.03-.55.01-1.07.51-1.44.11-.09.22-.25.24-.39.25-2.11,1.77-3.69,2.41-5.64.43-1.32,1.58-2.19,2.3-3.35.35-.57.67-1.29,1.51-1.57.52-.18.89-.81,1.3-1.27.35-.4.61-.84,1.24-.92.34-.05.78-.32.93-.62.7-1.32,2.28-1.08,3.22-1.95,1.02.51,1.38-.48,2.07-1.09.33,1.16.52,2.2.93,3.14.4.9,1.15,1.65,1.52,2.56.52,1.26.83,2.61,1.23,3.92-.02,1.14-.04,2.28-.04,3.41,0,.46.05.91.43,1.25-.02.27-.03.55-.05.82Z"/></svg>