<?xml version="1.0" encoding="UTF-8"?><svg id="Layer_1" xmlns="http://www.w3.org/2000/svg" viewBox="0 0 200 300"><defs><style>.cls-1,.cls-2{fill:#ffffff;}.cls-2{fill-rule:evenodd;}</style></defs><path class="cls-1" d="m135.96,125.14c.02.79.05,1.59.14,2.37h-.01c.1.82.31,1.63.52,2.43.12.48.25.96.35,1.44.09.42.13.84.17,1.26.02.19.04.38.06.56l-.56.22c-.24-.4-.52-.8-.8-1.2-.61-.87-1.23-1.74-1.4-2.69-.49-2.7-.59-5.49-.59-8.25,0-.78.2-1.55.39-2.33.17-.67.34-1.35.39-2.03.04-.58-.59-1.3-1.08-1.8-.59-.61-1.25-1.15-1.96-1.75-.3-.25-.61-.51-.93-.79.33-.44.63-.86.92-1.27.59-.82,1.14-1.6,1.77-2.31,1.13-1.3.94-2.71.75-4.13-.05-.37-.1-.74-.13-1.1-.01-.17-.04-.33-.07-.49-.04-.2-.08-.4-.08-.6,0-1.43-.15-2.72-.98-4.06-.69-1.11-.72-2.65-.05-4.1.3-.66.33-1.44.36-2.22.01-.31.03-.61.05-.91.03-.28.06-.55.09-.83.1-.93.2-1.87.2-2.8.01-3.51-.88-6.77-2.67-9.82-.37-.63-.48-1.43-.59-2.21-.03-.22-.06-.43-.1-.64-.64-3.82.19-7.51,1.11-11.18.49-1.96,1.08-3.91,1.74-5.82.16-.44.48-.83.82-1.22.15-.18.31-.36.45-.55,1.33,1.26,1.02,2.76.72,4.22-.05.25-.1.5-.15.75-.21,1.19-.54,2.37-.86,3.54-.15.56-.31,1.12-.45,1.68-.04.17-.09.33-.13.5-.17.66-.34,1.31-.46,1.98-.27,1.52-.52,3.04.08,4.55.06.14.01.34-.03.51,0,.01,0,.03,0,.04-.28,1.33.21,2.47.7,3.6.27.64.54,1.27.68,1.94.07.32.24.62.42.92.35.58.69,1.17.22,1.94-.08.13.06.47.19.65.51.7.62,1.46.73,2.27.03.2.06.4.09.61.17.99.08,1.92,0,2.85-.05.51-.09,1.03-.09,1.55,0,.58-.16,1.16-.31,1.74-.12.44-.23.89-.28,1.34-.04.32-.08.64-.12.97-.17,1.29-.35,2.6-.11,3.81.06.32.26.64.47.97.29.46.6.96.62,1.56.01.36.02.73.02,1.09.02,1.19.04,2.39.21,3.55.22,1.51.42,2.97-.39,4.33-.28.47-.62.9-.96,1.33-.2.25-.4.51-.59.77-.58.81-.62,1.32.57,1.66,1.44.41,2.11,2.42,1.35,3.73-.89,1.54-.98,3.11-.66,4.86.18.99.21,2.01.24,3.03Z"/><path class="cls-2" d="m143.19,120.67v-.12c.02-.09.03-.18.04-.28v-.08s0,0,0,0c-.03-1.39-.06-2.78-.08-4.17,0-.14,0-.28.01-.42,0-.14,0-.28.01-.42l.31-.83c-.01-.1-.02-.2-.04-.3,0-.07-.02-.14-.03-.21,0-.03,0-.06-.01-.09l-.49-2.26c0-.09,0-.19.01-.28h0c0-.09,0-.18.01-.28,0-.08,0-.16,0-.24,0-.11,0-.22-.01-.33,0-.2-.01-.4-.02-.6.04-.13.11-.28.17-.43.14-.33.29-.66.19-.77-.58-.63-.42-1.26-.26-1.88.07-.28.14-.57.14-.85,0-.61.01-1.22.02-1.83,0-.62.01-1.24.02-1.86l-.1-2.54c.01-.8.02-1.61.04-2.41.01-.8.03-1.61.04-2.41-.04-.28-.08-.55-.13-.83-.03-.18-.06-.36-.08-.55-.01-.1-.03-.19-.04-.29l-.12-1.46.03-.83s-.07-.03-.1-.05c-.04-.02-.07-.03-.1-.05.02-.02.03-.03.05-.05.02-.02.03-.03.05-.05.04-.03.07-.07.1-.1l.27-.8c-.79-.24-.82-.65-.27-1.19-.02-.1,0-.19.07-.26,0-.25,0-.51.01-.76,0-.13,0-.25,0-.38,0-.57,0-1.13-.01-1.7,0-.56,0-1.13-.01-1.7.01-.28.02-.57.03-.86-.01-1.04-.02-2.07-.04-3.11,0-.13,0-.25,0-.38,0-.06,0-.13,0-.19-.02-.09-.03-.18-.05-.27-.02-.09-.03-.18-.05-.27-.03-.33-.07-.67-.1-1h0c-.03-.33-.07-.67-.1-1l-.02-.22h0c-.08-.78-.16-1.55-.24-2.32l-.27-1.99c0-.25,0-.49-.01-.74,0-.13,0-.25,0-.38v-.57c-.05-.19-.1-.38-.15-.56-.05-.19-.1-.38-.15-.56-.01-.14-.02-.28-.04-.42-.01-.14-.03-.28-.04-.42-.09-.7-.19-1.41-.28-2.11v-.03c-.1-.7-.19-1.41-.28-2.11-.08-.38-.17-.76-.25-1.14-.08-.38-.17-.76-.25-1.14-.08-.37-.16-.75-.24-1.13,0-.1,0-.19-.01-.28h0c0-.1,0-.19-.01-.29l-.51-2.26c-.02-.11-.05-.21-.07-.32-.02-.08-.04-.16-.05-.24l-.46-1.14c-.12-.42-.24-.84-.36-1.26-.12-.42-.24-.84-.36-1.26-.13-.2-.26-.4-.38-.6-.13-.2-.26-.4-.38-.6l-.23-.24c-.05-.08-.07-.16-.07-.25-.14-.01-.28-.02-.42-.04-.14-.01-.28-.03-.42-.04-.33-.09-.66-.19-.98-.28h0c-.33-.1-.66-.19-.99-.28l-1.7.05c-1.36.71-2.73,1.41-4.09,2.12h0c-1.36.71-2.73,1.41-4.09,2.12-.05.04-.1.07-.15.11h0s-.1.07-.15.11l-3.13,1.76c-.04.05-.08.11-.12.16-.04.05-.08.11-.12.16-.02.06-.03.12-.04.18-.03.13-.05.26-.13.34-.39.37-.79.74-1.19,1.11-.65.6-1.31,1.2-1.93,1.83-.33.34-.68.9-.65,1.32.16,1.98-.99,3.36-2.14,4.64-.46.51-1.13.83-1.79,1.15-.3.14-.59.28-.87.44l-.48.84c-.06-.14-.11-.28-.17-.42-.06-.14-.12-.28-.17-.42l-1.16-2.29c-.31-.64-.62-1.28-.93-1.93-.26-.18-.51-.37-.75-.57-.67-.54-1.35-1.08-2.28-1.18-.14-.09-.29-.18-.43-.27h0c-.14-.09-.29-.18-.43-.27-.37-.08-.74-.17-1.12-.25-.37-.08-.74-.17-1.12-.25-.09-.04-.17-.09-.26-.13-.13-.06-.26-.13-.38-.19-.08.02-.16,0-.23-.06-.47-.07-.95-.14-1.43-.21-.47,0-.94,0-1.41-.01-.09-.01-.19-.03-.28-.05-.09-.02-.19-.03-.28-.05l-.84.02-2.83-.02c-.23-.04-.47-.09-.7-.13-.23-.04-.47-.09-.7-.13-.19,0-.38,0-.57-.01-.09,0-.19,0-.28,0-.09,0-.19,0-.28.01-.09,0-.19,0-.28.01-.09.01-.18.03-.27.04s-.18.03-.27.04l-2.54.58c-.19.03-.38.07-.58.1-.19.03-.38.07-.58.1-.08.1-.17.21-.25.31-.08.1-.17.21-.25.31l-.34.2h-.02c-.84.13-1.58.23-2.01,1.25-.31.71-.8,1.33-1.3,1.95-.21.27-.43.54-.63.82-.04.1-.09.19-.13.29s-.09.19-.13.29c-.25.7-.5,1.41-.75,2.12h0c-.25.71-.5,1.42-.75,2.12-.01.06-.02.12-.03.19-.03-.03-.07-.06-.1-.09-.04-.03-.07-.06-.1-.09-.52-.2-1.05-.39-1.58-.58-1.27-.46-2.54-.93-3.78-1.46-.88-.38-1.69-.9-2.51-1.43-.1-.07-.21-.14-.31-.2-.19-.12-.31-.36-.43-.59-.03-.06-.06-.11-.09-.16-.24-.44-.47-.88-.67-1.34-.21-.5-.39-1-.57-1.51-.07-.2-.14-.4-.22-.6-.17-.1-.35-.21-.52-.31h0c-.17-.11-.35-.21-.52-.31-.06-.11-.11-.23-.17-.34-.13-.27-.25-.53-.44-.75-.41-.48-.89-.91-1.38-1.3-.56-.43-1.13-.85-1.71-1.26-.29-.21-.59-.42-.88-.64-.05-.04-.09-.08-.14-.12-.05-.04-.09-.08-.14-.12-.13-.06-.27-.11-.4-.17-.31-.13-.62-.26-.92-.42-.11-.06-.17-.21-.23-.36-.03-.07-.05-.13-.08-.19-.68-.2-1.37-.41-2.05-.61l-.32-.22-.17-.13c-.21-.15-.42-.31-.63-.46-.26-.04-.52-.08-.77-.13-.22-.03-.44-.07-.65-.11-.1,0-.19-.03-.27-.08-.42-.05-.85-.1-1.27-.15h0c-.42-.05-.85-.1-1.27-.15-1.51-.18-1.98.89-2.23,2.03-.18.84-.28,1.7-.37,2.55-.06.53-.12,1.06-.2,1.59-.12.81-.28,1.61-.43,2.42-.07.37-.14.73-.21,1.1-.03.05-.07.11-.1.16-.04.05-.07.11-.1.16,0,.31.02.62.03.94.04.7.08,1.4-.12,2.02l-.05.14c-.39,1.17-.75,2.29-.52,3.53,0,.03-.02.06-.05.09,0,0-.01.02-.02.03-.81.95-.77,2.08-.73,3.2.04,1.04.08,2.07-.54,2.98-.21.31-.25.73-.29,1.15-.02.2-.04.4-.08.59-.05.52-.1,1.03-.14,1.55-.07,1.3-.13,2.6-.2,3.9-.07,1.3-.13,2.6-.2,3.9-.03.05-.07.1-.1.14-.04.05-.07.1-.1.14.03.65.03,1.31.04,1.97,0,1.52.02,3.05.31,4.51.17.85.05,1.72-.06,2.58-.18,1.33-.36,2.65.54,3.87-.06.14-.14.27-.21.41-.16.29-.32.57-.3.84.08.8.21,1.59.34,2.38.12.75.24,1.49.33,2.25.27,2.42.5,4.85.73,7.28.1,1.02.19,2.03.29,3.05.03.1.06.2.09.29.03.1.06.2.09.29-.19.59.08,1.09.34,1.6.29.56.59,1.13.26,1.8.03.09.07.19.1.28.03.09.07.19.1.28l.11.45c.19.76.38,1.51.56,2.27.09.35.16.7.24,1.06.06.25.11.5.17.75.03.14.06.28.09.42.07.36.15.72.27,1.05.08.21.22.43.35.64.22.35.44.69.38.98-.27,1.3.29,2.15.92,3.09.09.14.19.28.28.43.36.56.46,1.28.55,2.01.05.39.11.78.2,1.14.15.61.35,1.21.55,1.8.09.26.17.53.26.79.25.5.51,1,.76,1.49.43.24.78.59,1.13.94.61.62,1.22,1.24,2.3,1.26.79.02,1.57.3,2.36.59.35.13.69.26,1.04.36.09.05.19.1.28.15.09.05.18.1.28.15.06,0,.12-.01.18-.02.13-.02.26-.03.38-.01,2.42.39,4.67.17,6.48-1.73.11-.19.23-.37.34-.55.18-.18.38-.36.57-.53.82-.74,1.65-1.48,1.71-2.75,0-.02.04-.04.09-.06.05-.02.11-.04.13-.07.1-.14.21-.27.32-.41.27-.32.53-.64.6-1,.2-1.05.33-2.13.45-3.2.05-.44.1-.88.16-1.32l.12-.58c-.03-.14-.06-.28-.08-.42s-.05-.28-.08-.42l.02-1.17c.08-.37.16-.74.24-1.12.08-.37.16-.74.24-1.12.05-.04.1-.08.15-.12h0s.1-.08.14-.12c.5-.32,1-.64,1.5-.96h0c1.84-1.16,3.68-2.31,5.17-3.94.08-.09.16-.18.25-.27.08-.09.16-.18.25-.27.02.2.05.4.06.59.17.23.35.46.52.69h0c.41.54.83,1.08,1.19,1.65.23.35.37.82.37,1.22,0,.45-.06.9-.12,1.34-.05.37-.09.74-.11,1.11-.02.37,0,.73.01,1.1.02.39.03.79,0,1.18-.02.33-.09.66-.16,1-.1.48-.19.95-.15,1.42.19,2.39,1.52,4.18,3.28,5.67.23.2.52.33.81.46.14.06.27.12.4.19.02.02.04.04.06.06.02.02.04.03.06.05.04.04.08.07.12.11.02.32.04.65.06.97.02.32.04.65.06.97.02.25.02.5.03.76.02.57.03,1.15.14,1.71.12.61.08,1.23.04,1.86-.07,1.02-.13,2.04.49,3.01.13.2-.02.58-.18.96-.07.18-.14.36-.18.51,0,.1,0,.19-.01.29,0,.1,0,.19-.01.29.67,1.43,0,3.92-1.29,4.8-.08.08-.16.16-.23.24-1.57,1.56-2.18,4.3-1.4,6.23.06.07.16.15.25.22.32.24.64.48-.24.74.09.46.18.92.27,1.38.09.46.18.92.27,1.38.08.24.15.47.23.71.08.24.15.47.23.71-.05.19-.11.37-.16.56-.06.19-.11.37-.16.56.01.1.02.19.03.29,0,.1.02.19.03.29.02.28.04.57.07.85.02.28.04.56.06.85.04.1.07.19.11.29.04.1.07.19.11.29-.07.28-.14.56-.21.84.1.28.19.57.29.84v.29c.04.05.07.1.11.15.02.02.04.05.05.07.02.03.04.05.06.08.05.42.1.84.15,1.26.05.42.1.84.15,1.26.03.05.07.1.1.14.02.03.04.06.07.09.01.02.03.04.04.06.06.23.12.46.18.7.06.23.12.46.18.7.02.03.05.07.07.1.01.02.02.03.04.05.04.05.07.1.11.15.29.42.57.85.85,1.27.28.43.57.85.85,1.27v.57c.02,1.22.05,2.45.06,3.67.03.14.07.28.1.43h0c.03.15.07.29.1.43.16.43.35.84.54,1.26.48,1.05.96,2.1.88,3.36-.05.74.05,1.49.14,2.25.05.35.09.7.12,1.05.01.33.02.66.04.99.01.33.03.66.04.99.03.41.07.82.1,1.22.04.44.07.89.11,1.33-.02.03-.04.06-.06.09h0c-.05.07-.1.14-.14.21-.02.08-.02.16,0,.24.04.02.07.04.11.06.04.02.07.04.11.06-.04.04-.07.07-.11.11h0s-.03.04-.04.05c-.02.02-.04.04-.06.06.05.26.1.51.15.76h0s0,0,0,0c.04.2.08.4.12.6.04.14.08.28.12.42.04.14.08.28.12.43,0,.47.02.94.03,1.41,0,.47.02.94.03,1.41.06.08.11.15.16.23.02.02.04.05.05.08l.06.21c.09.31.17.62.26.93l.03.84c.04.05.08.11.12.17.03.04.05.08.08.12.01.05.02.1.03.16,0,.02,0,.03,0,.05,0,.04.02.09.02.13.04.01.08.03.12.05.04.02.08.03.12.04-.02,0-.04.01-.05.02-.02,0-.04.01-.06.02-.04.01-.08.03-.12.04l-.22,4.3c.04.05.08.1.12.15.01.02.03.04.04.06.02.03.05.06.07.09l.53,5.64c0,.19,0,.37-.01.55v.02c.06.1.11.21.17.31s.11.21.17.31l.22.03s-.07.07-.1.11c-.03.04-.07.07-.1.11.12.29.23.59.34.89.24.66.48,1.33.89,1.85,1.32,1.69,3.21,2.46,5.3,2.75.4-.01.81-.03,1.22-.04h0s0,0,0,0c.42-.02.85-.03,1.27-.05.38-.1.76-.2,1.14-.29h0c.38-.1.75-.19,1.13-.29.23-.05.47-.1.71-.15.14-.03.27-.06.41-.09.1-.02.2-.04.3-.06h0c.48-.42.97-.82,1.45-1.23l.23-.2c.09-.1.18-.19.28-.29.1-.28.19-.56.29-.84h0c.1-.28.19-.56.29-.84h.01c.09-.25.18-.49.27-.73.09-.24.18-.48.27-.72.02-.84.03-1.69.05-2.54-.11-.46-.23-.93-.33-1.4-.1-.76-.19-1.51-.29-2.26-.1-.75-.19-1.51-.29-2.27h.01c-.07-.07-.14-.15-.21-.22.07-.04.14-.08.21-.12-.03-.28-.07-.55-.1-.83-.03-.28-.07-.55-.1-.82,0-.19-.01-.38-.02-.57-.01-.14-.02-.28-.04-.42,0-.08-.02-.17-.02-.25,0-.06,0-.11-.01-.17-.03-.19-.06-.38-.08-.57-.03-.19-.05-.38-.08-.57l-.02-.55c0-.1,0-.19-.01-.29,0-.09,0-.19-.01-.29-.06-.5-.12-1.01-.18-1.51-.06-.5-.12-1-.18-1.51.02-.97.05-1.95.07-2.92,0-.09-.02-.19-.02-.28,0-.1-.01-.19-.02-.28v-.11c-.05-.35-.09-.69-.13-1.04-.03-.08-.05-.16-.08-.24h0c-.02-.05-.03-.1-.05-.16,0-.03-.02-.06-.03-.09-.05-.29-.09-.58-.13-.88s-.09-.59-.13-.88c-.83-.15-.69-.57-.54-1,.09-.26.18-.52.05-.72v-.56c-.02-.19-.05-.37-.06-.57l-.24-1.71c-.75-.53-.31-.71.25-.85l.29-.27c.09-.14.19-.29.28-.43.09-.14.18-.29.28-.43l.85-1.68c.05-.29.09-.59.13-.88s.09-.59.13-.88c-.02-.09.02-.16.09-.21v-.57c0-.19,0-.37.01-.56l.19-1.43-.29-1.97c.2-.47.4-.94.59-1.41l.28-.29c.19-.42.38-.85.58-1.27.19-.42.38-.85.58-1.27l.33-.56c-.01-.66-.02-1.33-.04-1.99s-.03-1.33-.04-1.99c-.04-.28-.07-.56-.11-.85-.04-.28-.07-.56-.11-.85,0-.19,0-.37-.01-.56v-.02c-.05-.66-.09-1.31-.14-1.97l-.08-1.1c-.02-.3-.04-.6-.06-.9l-.25-1.97c0-.19-.02-.39-.02-.58,0-.19-.01-.37-.02-.56-.03-.2-.06-.41-.09-.61l-.03-.23c-.04-.28-.08-.56-.12-.84,0-.24-.02-.48-.02-.71,0-.24-.01-.48-.02-.71v-2.26l-.66-3.09-.8-.92c-.09-.04-.18-.09-.26-.13-.26-.13-.52-.26-.78-.39-.04-.2-.08-.4-.11-.6l-.07-.38c-.06-.33-.12-.65-.19-.98-.04-.05-.07-.1-.11-.15-.02-.03-.04-.05-.06-.08-.02-.02-.03-.05-.05-.07.02-.25.1-.5.17-.76.18-.62.37-1.23-.21-1.84-.02-.02,0-.11.02-.13.74-.57.56-1.22.38-1.87-.07-.26-.14-.52-.16-.78-.04-.29-.07-.57-.11-.86-.04-.28-.07-.57-.11-.85-.14-.66-.27-1.32-.41-1.97h0c-.14-.67-.27-1.33-.41-1.99l.2-.22c.46-.2.93-.4,1.39-.61.46-.2.93-.4,1.39-.61.05-.04.09-.08.14-.12.06-.05.11-.1.17-.14.1-.09.2-.18.31-.27.19-.43.38-.85.58-1.28.11-.24.21-.47.32-.71,0-.38.01-.76.02-1.14-.05-.59-.09-1.19-.14-1.78-.1-1.37-.2-2.74-.37-4.1-.06-.52-.26-1.02-.46-1.52-.09-.23-.18-.47-.26-.7l-.21-.93c.14-.19.28-.38.43-.57.14-.19.29-.38.43-.57h0c.1-.36.2-.71.34-1.2.19.24.36.45.51.65h0c.13.17.26.33.38.49.56.2,1,.57,1.44.96.51.44,1.03.88,1.77,1.1.3.09.63.33.99.59.47.34.98.72,1.56.85.07.07.14.15.22.23v.02c0,.28,0,.56-.03.84-.04.64-.08,1.28.02,1.89.11.63.35,1.25.6,1.86.11.27.22.54.31.8l.39.56c.08.12.15.25.22.39.16.29.31.59.55.68,1.38.56,2.8,1.07,4.23,1.45,1.11.29,2.23.52,3.35.75h0c.66.13,1.32.27,1.98.41.79.18,1.58.37,2.37.57.34.09.68.17,1.02.25.1-.04.19-.08.29-.11.09-.04.19-.08.29-.11l3.43-.61.23-.31c1.44-1.27,1.93-3,2.32-4.78.07-.3.03-.61,0-.93-.07-.6-.15-1.2.52-1.66l.02-1.95-.24-.85c.03-.11.06-.21.1-.32.08-.24.15-.47.18-.72.08-.68.15-1.36.21-2.05.03-.29.05-.58.08-.88.04-.05.07-.1.11-.16h0s.03-.05.05-.08c.02-.03.04-.05.06-.08,0-.08,0-.16-.01-.24-.03-.33-.06-.66-.09-1-.03-.33-.06-.67-.09-1l-.07.05c0-.05,0-.11.01-.16Zm-68.33-4.66c-.04,1.27-.06,2.55-.08,3.82v.02c0,.11,0,.21,0,.32,0,.07,0,.14,0,.21,0,.53-.02,1.06-.02,1.59,0,.59.01,1.19.02,1.78.02,1.31.05,2.62-.04,3.92-.18,2.43-.42,4.87-.91,7.26-.34,1.66-1.04,3.28-1.74,4.84-.52,1.16-1.68,1.49-2.78,1.82-.19.05-.37.11-.55.17-.74.23-1.51.33-2.29.42h0c-.3.04-.59.07-.89.12-1.85.28-4.38-1.79-4.98-3.69-.41-1.27-1-2.51-1.59-3.73-.14-.29-.28-.59-.42-.88-.86-1.81-1.76-3.77-1.75-6.04,0-1.19-.4-2.38-.81-3.57-.22-.64-.44-1.27-.6-1.91-.24-.98-.37-2-.46-3.01-.1-1.08-.18-2.16-.27-3.25-.09-1.18-.18-2.36-.3-3.53-.02-.21-.16-.41-.31-.6-.07-.1-.14-.2-.2-.3-.03-.05-.07-.11-.11-.18-.12-.19-.26-.4-.21-.47.73-1.11.45-2.19.17-3.27-.14-.53-.27-1.05-.29-1.57-.04-1.17-.2-2.33-.35-3.5-.13-.99-.26-1.99-.33-2.99-.03-.56-.08-1.13-.13-1.7-.17-2.13-.35-4.28.06-6.29.13-.62-.01-1.16-.15-1.69-.16-.63-.32-1.24-.02-1.96.27-.66.24-1.44.2-2.23-.02-.47-.04-.94,0-1.38.05-.52.17-1.02.29-1.53.09-.39.18-.77.25-1.16.12-.77.22-1.54.32-2.31.16-1.2.31-2.4.53-3.59.33-1.76.69-3.52,1.06-5.27.29-1.37.58-2.75.84-4.12.14-.69.2-1.4.26-2.11.03-.35.06-.71.1-1.06.07-.61.13-1.21.2-1.83.11-.94.21-1.91.33-2.95.56.07,1.25.16,1.94.25l-.36.31c.5.91,1.01,1.81,1.51,2.71.03.05.07.11.11.16.09.12.18.24.15.31-.74,1.69-.67,3.42-.6,5.2,0,.17.01.34.02.51.03.82-.1,1.65-.24,2.48-.16,1.02-.33,2.03-.19,3.01.29,1.92.16,3.81.04,5.7-.08,1.21-.16,2.42-.13,3.63.06,2.33.08,4.67-.06,6.99-.08,1.41-.41,2.83-.81,4.18-.43,1.44-.1,2.79.22,4.14.14.57.27,1.14.35,1.71.03.2.05.4.08.6.15,1.12.3,2.25.52,3.36.66,3.29,1.31,6.57,2.07,9.84.15.63.38,1.25.61,1.87.3.81.6,1.63.71,2.47.12.99-.2,2.23-.76,3.07-1.18,1.79-.97,5.06.66,6.54,2.08,1.89,2.56,4.33,2.02,6.92-.2.96-.84,1.86-1.45,2.71-.1.14-.19.27-.29.4-.59.84-.4,1.32.28,2,.76.76,1.36.19,1.63-.22.19-.27.38-.54.57-.8.94-1.3,1.87-2.58,2.02-4.46.03-.34.07-.68.11-1.01.14-1.14.27-2.25-.15-3.36-.72-1.9-1.69-3.66-3.58-4.93.14-.34.29-.69.43-1.04.35-.87.71-1.75,1.13-2.61h0c.43-.89.77-1.61.07-2.58-.17-.23-.12-.6-.07-.99.04-.32.08-.65,0-.93-.3-1-.63-1.98-.97-2.97-.38-1.11-.75-2.22-1.07-3.34-.39-1.36-.63-2.77-.88-4.17-.04-.22-.08-.45-.12-.67-.4-2.2-.77-4.41-1.11-6.62-.06-.37-.12-.74-.17-1.11-.41-2.55-.81-5.1-.41-7.71.25-1.59.43-3.19.62-4.79.09-.76.18-1.52.27-2.28,0-.02.01-.04.02-.07.01-.02.02-.04.02-.07-.34-2.11-.18-4.22-.02-6.33.14-1.82.28-3.64.1-5.47-.24-2.34.2-4.57.64-6.8.1-.53.21-1.07.3-1.6.06-.35-.13-.75-.33-1.14-.07-.15-.15-.3-.2-.44-.11-.28-.25-.55-.39-.81-.04-.08-.09-.17-.13-.25.05-.04.09-.08.14-.13.05-.04.09-.08.14-.13.1.04.2.08.3.11.23.08.45.16.63.31.59.51,1.17,1.04,1.75,1.56.95.86,1.89,1.71,2.88,2.51,1.1.88,1.57,2.02,1.89,3.3.09.34.21.67.33,1.01.34.96.69,1.92.23,2.99-.05.1.03.29.11.4.93,1.18,1.11,2.57,1.3,3.95.13.95.26,1.9.63,2.78.57,1.35.59,2.73.61,4.11.01.9.03,1.79.2,2.68.16.83.36,1.65.57,2.47.16.63.32,1.26.46,1.9.04.17.1.34.15.51.11.37.23.74.26,1.11.06.8.02,1.61-.02,2.42,0,.14-.08.29-.15.43-.08.17-.16.34-.11.44.63,1.17.53,2.39.42,3.62-.07.77-.13,1.54-.02,2.31.23,1.49.13,3.03.03,4.57-.07,1.03-.13,2.07-.1,3.09.03,1.13.21,2.24.39,3.36.11.72.23,1.44.31,2.16.05.41,0,.83-.04,1.25-.03.25-.05.5-.06.76v-.02Zm3.45,8.93s-.06-.04-.1-.06c-.08-.05-.16-.09-.24-.14,0-.14,0-.29,0-.44h0c0-.29,0-.59,0-.88.01-.63.05-1.26.1-1.9.1-1.45.2-2.9-.1-4.27-.2-.97-.15-1.88-.11-2.79.03-.58.06-1.16.03-1.75-.16-2.64-.25-5.29-.33-7.94-.04-1.26-.04-2.53-.05-3.79,0-.58,0-1.17,0-1.75,0-.28,0-.56,0-.84.01-.53.02-1.07-.02-1.6-.06-.75-.14-1.49-.22-2.24-.07-.6-.14-1.2-.19-1.81-.06-.74-.23-1.49-.38-2.23-.2-.93-.4-1.84-.39-2.7.01-1.62-.25-3.13-.51-4.66-.07-.42-.15-.84-.21-1.27-.09-.58-.12-1.2-.14-1.81-.05-1.2-.1-2.4-.64-3.3-.48-.8-.51-1.67-.54-2.51-.04-1-.07-1.95-.86-2.69,1.09.53,2.18,1.06,3.27,1.59,1.5.73,2.99,1.46,4.48,2.18.31,2.76.66,5.79,1,8.82.01,0,.02,0,.04-.01.01,0,.03,0,.04-.01,0,.33-.03.68-.07,1.03-.07.77-.15,1.55.15,2.15.43.88.37,1.75.31,2.6-.04.57-.08,1.14.03,1.7.09.47.04.95,0,1.43-.09.86-.18,1.71.52,2.46-.56.63-.37,1.23-.17,1.85.09.28.18.56.2.84.08,1.22.1,2.45.12,3.68.03,1.68.05,3.35.24,5.01.14,1.27.08,2.52.01,3.77-.06,1.16-.12,2.33-.01,3.49.02.2.14.38.26.57.12.18.23.36.26.55.05.41.04.82.03,1.24,0,.28-.02.57,0,.85.02.59.08,1.19.13,1.78.02.22.04.44.06.66-1.94,1.75-3.87,3.49-5.8,5.24h-.01s-.1-.06-.14-.09Zm18.89-60.21c1.61.39,3.28.52,5,.66.77.06,1.54.12,2.33.21-1.5,2.79-2.32,5.45-2.2,8.39.02.45-.13.9-.28,1.35-.11.34-.22.68-.27,1.02-.08.58-.11,1.17-.14,1.76-.03.59-.07,1.18-.14,1.76-.04.3-.19.58-.39.93-.1.19-.21.39-.33.63-.5-.61-.97-1.18-1.43-1.74-.26-.32-.52-.63-.78-.96.04-.07.08-.15.14-.23.12-.19.26-.4.25-.6-.03-.42-.14-.84-.25-1.25-.04-.16-.09-.32-.12-.48-.16.08-.35.15-.53.22-.39.15-.78.3-.98.58-.1.14-.21.28-.31.42-.53.69-1.09,1.41-.91,2.45.02.13-.25.32-.52.51-.13.09-.26.18-.36.26-.1-.13-.22-.26-.34-.39-.27-.28-.53-.56-.61-.88-.11-.5-.15-1.02-.19-1.53-.04-.53-.08-1.05-.2-1.56-.16-.66-.3-1.32-.44-1.98-.49-2.29-.98-4.58-2.18-6.67-.31-.54-.42-1.19-.55-1.9-.06-.34-.12-.69-.21-1.05.56-.02,1.12-.06,1.68-.1,1.7-.12,3.44-.25,5.26.19Zm-.36,36.81c.25.02.51.07.76.13.39.09.78.17,1.15.11,1.03-.16,2.04-.41,3.09-.67.43-.11.88-.21,1.33-.32.34.5.32.57.1,1.23-.05.15-.11.33-.18.56-.24.76-.36,1.55-.48,2.35-.08.53-.16,1.07-.28,1.59-.26,1.2-.57,2.39-.89,3.59-.1.37-.19.73-.28,1.1-.24.94-.48,1.87-.74,2.88h0s0,0,0,0c-.2.76-.41,1.56-.63,2.44-.35-.53-.7-1.02-1.04-1.48-.68-.93-1.29-1.77-1.62-2.7-.23-.64-.47-1.29-.72-1.93-1.63-4.36-3.29-8.8-2.62-13.51.11-.76.21-1.53.3-2.31.54-4.29,1.09-8.65,3.74-12.34.22.39.45.78.67,1.16.48.82.96,1.62,1.36,2.47.2.42.4.83.61,1.25.77,1.56,1.55,3.14,1.98,4.79.38,1.49.49,3.06.6,4.72.05.75.1,1.52.18,2.32-.49-.2-.95-.38-1.38-.55-.96-.38-1.8-.71-2.6-1.11-.97-.49-4.55.35-4.99,1.3-.4.86,1.39,2.86,2.59,2.94h0Zm-.72,14.79c.14.09.28.16.43.24.34.18.67.36.88.64.28.37.46.82.64,1.27.09.21.17.42.27.62.02.04.04.08.06.12.43.94.84,1.81,2.24,1.66.99-.11,1.21-.75,1.42-1.39.1-.29.19-.57.36-.81.25-.36.37-.81.49-1.26.05-.19.1-.39.16-.57.06.01.11.03.17.05.07.02.15.04.22.06.4,1.11.8,2.22,1.2,3.33h0c.7,1.95,1.4,3.88,2.08,5.76-.36.17-.73.36-1.1.55-.89.45-1.8.92-2.76,1.23-.78.25-1.69.17-2.55.1-.08,0-.15-.01-.22-.02-1.43-.11-2.85-.29-4.28-.47h0c-.26-.03-.53-.07-.79-.1-1.36-.17-1.64-.93-1.29-2.26.4-1.48.71-2.98,1.02-4.48.21-1.01.42-2.02.66-3.03.07-.3.26-.58.46-.86.09-.12.17-.25.25-.37h0Zm-10.03-21.17c-.27-1.97-.48-3.95-.64-5.93-.21-2.68-.39-5.37-.54-8.06-.03-.51-.02-1.02,0-1.52.01-.45.02-.9,0-1.35-.04-1.05-.1-2.11-.16-3.16-.04-.7-.08-1.4-.11-2.11,0-.08.04-.16.08-.24.02-.05.05-.09.06-.14.11-.37.22-.74.34-1.13h0c.14-.47.29-.97.47-1.54.29-.57.61-1.21.95-1.88h0c.28-.56.58-1.14.87-1.73h.59c.15.46.3.91.45,1.37.35,1.07.71,2.15,1.03,3.23.53,1.79,1.03,3.58,1.47,5.4.16.69.29,1.38.42,2.07.17.92.34,1.84.6,2.74.2.7.53,1.36.91,2.11.19.37.38.76.58,1.19-.11.27-.23.58-.37.91-.36.85-.79,1.87-1.07,2.93-.16.61-.19,1.26-.22,1.92-.03.54-.05,1.09-.15,1.62-.17.86-.42,1.7-.67,2.54-.14.46-.27.92-.4,1.38-.04.13-.03.28-.02.45,0,.1.01.2.01.32-.39-.06-.76-.1-1.12-.15h0c-.9-.12-1.75-.23-2.58-.41-.31-.07-.72-.52-.77-.84h0Zm1.2,24.66c-.2-.75-.17-1.56-.14-2.37.02-.48.04-.96,0-1.44-.07-1.2-.16-2.4-.25-3.6-.14-1.89-.28-3.78-.36-5.67-.07-1.73-.05-3.46-.04-5.21,0-.77.01-1.54.01-2.32.3-.06.59-.12.87-.18.91-.19,1.78-.37,2.66-.49.23-.03.71.35.73.57.06.61.09,1.23.11,1.85.04.95.08,1.9.25,2.82.16.84.44,1.66.72,2.48.23.67.47,1.35.63,2.04.14.61.39,1.19.64,1.77.49,1.16.99,2.31.66,3.65-.05.21-.2.4-.35.58-.15.19-.3.37-.35.58-.32,1.25-.61,2.51-.91,3.76-.26,1.09-.51,2.18-.78,3.26-.15.61-.36,1.21-.57,1.8-.09.27-.18.53-.27.8.03.07.05.13.08.2.04.09.08.19.11.28-.07-.05-.13-.1-.2-.16-.07-.05-.13-.1-.2-.15-.05-.06-.09-.13-.13-.2-.09-.15-.18-.29-.3-.35-1.72-.8-2.16-2.46-2.57-4.01-.01-.05-.03-.1-.04-.15-.01-.05-.03-.09-.04-.14h0Zm10.25,75.91c-.23-1.45-.48-3.01-.78-4.83.65.1,1.28.19,1.91.29,1.28.19,2.52.38,3.77.55.63.09,1.27.14,1.89.08h.06c1.18-.1,1.76-.15,2.11.11.34.25.47.79.72,1.85v.02c.05.21.18.4.3.59.07.11.15.23.21.34.12.24.22.5.28.65.02.04.03.07.04.1-1.57.07-3.1.14-4.63.21h0c-1.94.09-3.88.17-5.85.26l-.03-.21h0Zm.74,5.83c-.3-.52-.37-1.18-.43-1.89-.03-.33-.06-.68-.12-1.03h3.58l.36-.48.49.48c1.36-.66,2.84-.61,4.11-.07.85.36,1.52,1.16,2.16,1.92h0c.09.1.17.21.26.31.1.12-.04.45-.18.78-.07.15-.13.31-.17.44-.49,0-.97.02-1.45.03-1.11.04-2.2.08-3.25-.1-.3-.05-.59-.15-.88-.25-.62-.21-1.24-.41-1.94-.19-.06.02-.13,0-.21,0-.08-.01-.16-.03-.21,0-.72.57-1.65.85-2.13.04h0Zm.23,2.66c.73.07,1.46.15,2.19.22,1.57.16,3.13.32,4.7.46.48.04.96.04,1.44.03.21,0,.43,0,.64,0,.15.08.3.17.44.25h0c.15.09.29.17.44.25.06.27.16.55.26.83.22.63.44,1.27.27,1.77-.24.71-1.21,1.33-2.01,1.68-2.23.99-4.58.88-6.86.21-.36-.11-.61-.57-.9-1.1-.14-.26-.29-.53-.46-.78l-.03-.59h0c-.04-.86-.09-1.96-.14-3.24Zm.59,9.05c-.12-.36-.12-.76-.13-1.19,0-.19,0-.4-.02-.6,3.32,1.42,6.75,2.61,10.29.23.43.62.72,1.24-.31,1.61-.45.16-.89.32-1.34.49h0c-1.42.52-2.84,1.05-4.31,1.39-1.02.24-2.23.06-3.25-.25-.43-.13-.71-.99-.9-1.6l-.02-.07h0Zm11.19,5.5h0c.06.2.11.39.17.59.06.19.11.38.17.58-.07.1-.15.2-.22.3-.72.98-1.44,1.95-2.74,2.28-.39.1-.77.22-1.15.35-.32.1-.63.21-.95.3-.05.01-.11.03-.17.05-.32.1-.69.21-.9.08-.41-.24-.86-.45-1.3-.66-1.23-.58-2.46-1.17-3.15-2.35-.36-.62-.37-1.45-.38-2.28,0-.37,0-.74-.04-1.08,3.75,1.02,7.24.3,10.52-1.1h0c.06,1.1.11,2.03.16,2.95Zm-1.37-31.31c-.14,0-.3-.02-.46-.05-.69-.1-1.5-.21-1.6,1.19-.01.16-.6.44-.91.42l-.38-.02c-2.64-.14-5.29-.28-7.91-.54-1.41-.14-2.16-1.74-1.78-3.1.12-.44.09-.92.06-1.45-.01-.25-.03-.51-.03-.79h1.13l2.28.51c.38.05.76.11,1.14.16.38.05.76.11,1.14.16h0c.08.08.17.16.25.23.42-.04.85-.07,1.27-.1h0c2.19-.15,4.38-.31,6.21-2.02.06.37.13.72.21,1.07.33,1.56.62,2.97-.64,4.31h0Zm1.15-30.66c.02.18.03.36.05.54.12,1.28.23,2.47.33,3.66.02.2,0,.4-.03.61,0,.09-.02.18-.03.27l.17,1.44.06,1.7.2,1.7c.15,1.22.31,2.45.46,3.67.85.8.55,1.68.16,2.57.05.37.1.74.15,1.11.05.37.1.74.15,1.11-.08.29-.17.58-.25.87-.08.29-.17.58-.25.87-.05.12-.09.26-.13.4-.09.31-.17.62-.38.78-.45.38-.97.68-1.49.98-.21.12-.42.24-.63.37-.55.76-1.21,1.31-2.24,1.08-.33.1-.66.19-.99.29-.18.05-.36.11-.54.16-.15.04-.3.09-.44.13-.28-.04-.57-.07-.85-.11-.28-.03-.57-.07-.85-.11-.23-.01-.47-.03-.7-.04-.23-.01-.47-.03-.7-.04l-.85.05s-.07.06-.11.09c-.08.07-.16.14-.2.12-1.88-.8-3.76-1.62-5.63-2.45-.26-.67-.52-1.34-.79-2-.03-.34-.07-.68-.1-1.02-.13-.59-.25-1.17-.38-1.76-.13-.58-.25-1.17-.38-1.75-.01-.22-.03-.45-.04-.67-.01-.22-.03-.44-.04-.67-.84-.35-.61-.81-.38-1.26.14-.27.27-.54.18-.79,0-.05,0-.1-.01-.15,0-.04,0-.09-.01-.13,0-.05,0-.1-.01-.15,0-.04,0-.09,0-.13,0-.1-.01-.19-.02-.28-.75-.69-.59-1.47-.23-2.26-.08-.76-.16-1.52-.24-2.27-.02-.09-.04-.17-.05-.26-.02-.09-.04-.17-.05-.26-.03-.05-.07-.11-.1-.16-.04-.05-.07-.11-.1-.16v-1.14c.17-.27.32-.56.47-.85.33-.63.65-1.27,1.16-1.68,2.03-1.64,4.3-2.89,6.96-3.23.29-.04.59-.07.89-.11h0c.3-.04.6-.08.89-.11.19-.03.38-.06.58-.1.19-.03.38-.07.58-.1.36.03.72.05,1.07.07h0c.8.05,1.59.1,2.37.23.86.15,1.7.39,2.44.59h0c.3.08.58.16.84.23h.01c.02.17.03.35.05.53Zm-1.96-5.84c-.07.82-.1,1.22-.31,1.39-.2.16-.56.12-1.25.05-.1-.01-.2-.02-.31-.03-1.11-.11-2.24,0-3.36.12-.58.06-1.16.12-1.74.15-.29.01-.58-.01-.88-.04-.46-.04-.92-.09-1.34.03-.95.26-1.87.64-2.82,1.02-.41.16-.82.33-1.25.49-.04-1.01-.03-2.03-.01-3.06.04-3.07.08-6.18-1.29-9.13,3.68.74,7.07,0,10.32-.71,1.08-.24,2.14-.47,3.2-.64.32,1.44.63,2.81.94,4.19,0,.05.03.1.05.15.04.1.07.19.04.24-.82,1.21-.54,2.42-.26,3.63.16.71.32,1.42.26,2.13h0v.02Zm-4.04-12.69l-.43.16c-.35.13-.74.17-1.12.21-.08,0-.17.02-.25.03-.14.01-.28,0-.43,0-.25-.02-.5-.03-.68.08-2.07,1.23-4.23.71-6.28.21-.08-.02-.16-.04-.24-.06-2.41-.58-4.96-2.52-4.63-5.51.11-1.04.08-2.08.05-3.08-.01-.44-.03-.87-.03-1.28,6.94,2.86,13.63,3.05,20.15-1.27.05.4.09.78.14,1.16.1.89.19,1.72.36,2.55.18.88.33,1.68.33,2.63,0,1.44-.83,1.75-1.65,2.06-.17.06-.33.13-.5.2-1.57.72-3.18,1.33-4.8,1.93Zm7.55-22.3c.04.48.03.96,0,1.44v.12c-.02.43-.04.87-.06,1.3-.04.79-.07,1.58-.06,2.37.02,1.11-.65,1.59-1.39,2.13-.35.25-.71.52-1.03.86-.35-2.93-1.64-5.3-2.94-7.66-.73-1.33-1.45-2.65-2.01-4.08.08-.32.16-.66.25-1.01.19-.75.4-1.58.58-2.41.1-.49.21-.99.32-1.48.34-1.51.68-3.02.79-4.55.14-1.84.07-3.7,0-5.56-.02-.55-.04-1.09-.05-1.64-.02-1.02-.07-2.06-.27-3.05-.09-.44-.28-.85-.47-1.27-.14-.31-.29-.63-.39-.96-.07-.22-.08-.46-.09-.7-.01-.32-.02-.63-.17-.86-1.14-1.87-1.53-3.69-.64-5.85.36-.9.42-1.93.48-2.96.02-.41.05-.81.09-1.21.08-.79.15-1.59.22-2.38h0c.14-1.55.27-3.1.5-4.63.15-1.01.5-1.98.84-2.96h0c.09-.25.18-.5.26-.75.06-.17.24-.29.41-.42.08-.06.16-.11.23-.17.05.08.11.15.17.23.13.17.26.33.32.52.12.37.24.74.36,1.11.38,1.16.77,2.32,1,3.52.25,1.26.4,2.54.56,3.81.1.84.2,1.68.33,2.52.11.69.26,1.38.41,2.06.1.47.21.94.3,1.41.02.13-.01.27-.05.41-.02.07-.04.14-.05.21-.04.21-.09.43-.15.65-.12.47-.24.93-.16,1.36.44,2.25.65,4.49.55,6.78,0,.2.07.39.14.59.06.14.11.29.14.44.04.26.14.52.25.78.25.63.51,1.26-.13,1.99-.12.13.02.5.19.94.09.23.18.47.25.71-.83.48-.64,1.17-.44,1.89.11.39.22.79.17,1.17-.08.55-.02,1.11.04,1.67.05.48.1.95.07,1.42l-.02.23c-.1,1.49-.19,2.91.3,4.43.19.6.03,1.29-.13,2-.11.49-.23.99-.23,1.46,0,.88.11,1.76.21,2.63.06.46.11.92.15,1.38h0Zm7.77,8.1c.32.23.64.46.97.7.07-.33.15-.62.22-.9.15-.55.27-1,.21-1.43-.17-1.11-.39-2.21-.62-3.31-.18-.87-.36-1.75-.51-2.63-.08-.44-.09-.89-.1-1.34-.01-.5-.02-1-.12-1.48-.07-.36-.27-.77-.45-1.15-.28-.58-.53-1.12-.35-1.45.42-.76.24-1.41.06-2.04-.11-.37-.21-.74-.19-1.13.06-1,.05-2.02-.02-3.02-.03-.43-.1-.85-.18-1.27-.05-.29-.11-.58-.14-.87-.2-1.51-.23-3.04-.27-4.56-.05-1.91-.09-3.83-.45-5.72-.22-1.18-.26-2.39-.3-3.61-.02-.55-.03-1.09-.07-1.63,0-.09,0-.2.02-.3.02-.17.05-.34-.02-.46-.66-1.2-.58-2.46-.51-3.72.04-.6.07-1.2.03-1.8-.03-.35.03-.74.08-1.11.08-.59.16-1.16-.07-1.57-.44-.77-.31-1.22-.08-1.9.09-.26.01-.59-.07-.91-.03-.1-.05-.2-.07-.3-.04-.23-.1-.46-.16-.69-.09-.37-.18-.74-.22-1.12-.05-.52-.04-1.06-.03-1.62,0-.25,0-.51,0-.78-.26.07-.47.12-.65.16-.3.07-.51.11-.66.23-.18.14-.38.27-.58.4-.61.4-1.23.82-1.43,1.38-.21.56-.09,1.23.03,1.91.06.32.11.65.14.96.02.34.05.67.07,1.01h0c.09,1.2.17,2.4.18,3.6,0,.53-.05,1.08-.11,1.62-.09.85-.18,1.7-.02,2.5.68,3.31,1.33,6.56,1.08,9.99-.1,1.33,0,2.67.1,4.02.06.81.12,1.63.14,2.44.03,1.5.02,3,.01,4.5,0,.75-.01,1.5-.01,2.25,0,.27,0,.54,0,.81,0,.54-.02,1.08,0,1.62.05,1.07.12,2.13.18,3.2.14,2.3.28,4.6.31,6.91v.08c.01.85.01,1.13.98,1.2.44.03.87.35,1.28.66.13.1.25.19.38.28.65.44,1.29.9,1.96,1.39Zm20.8-2.36c-.03.25-.12.49-.2.73-.2.58-.4,1.16.11,1.86.13.18,0,.53-.13.9-.13.35-.27.73-.2,1.02.22.87,0,1.68-.2,2.49-.17.67-.35,1.34-.26,2.03.2,1.72-.46,3.2-1.23,4.83-4.57-.23-9.03-.96-13.17-3.23,0-.31.07-.63.14-.95.18-.8.37-1.65-.45-2.6-.42-.49-.41-1.33-.4-2.18,0-.43,0-.87-.04-1.26-.1-.78-.18-1.57-.27-2.36-.21-1.99-.42-3.98-.91-5.9-.49-1.91-.69-3.83-.89-5.75-.05-.52-.11-1.04-.17-1.56-.08-.69-.26-1.38-.44-2.06-.12-.46-.24-.93-.33-1.4-.1-.5-.2-1.08-.04-1.54.62-1.8.45-3.63.28-5.43-.03-.3-.06-.61-.08-.91-.06-.74-.05-1.5-.04-2.26.02-1.57.03-3.15-.57-4.54-.32-.74-.23-1.51-.15-2.27.11-1.05.22-2.07-.72-2.95-.13-.12-.06-.42.01-.75.05-.25.11-.51.09-.72-.15-1.82-.32-3.63-.48-5.45-.16-1.82-.32-3.63-.48-5.45-.02-.28.02-.57.05-.86.03-.21.05-.42.06-.62.01-.51.01-1.02.01-1.54,0-.85,0-1.71.05-2.56.02-.37.16-.73.31-1.09.06-.14.11-.28.16-.42.03-.09.09-.18.15-.27.09-.14.17-.27.13-.34-.38-.71-.1-1.3.18-1.86.17-.35.34-.69.35-1.05.03-.86.47-1.2.99-1.61.07-.06.15-.12.22-.18,1.9-1.55,3.89-2.87,6.2-3.79.75-.3,1.41-.8,2.08-1.31.59-.44,1.17-.89,1.82-1.2.95-.46,2.32-.82,3.2-.48.95.38,1.62,1.55,1.69,2.86.03.64.2,1.28.37,1.91.09.33.18.67.25,1.01.03.16.07.32.12.48.12.47.24.94.18,1.38-.1.82.16,1.56.41,2.31.26.75.52,1.52.44,2.4-.12,1.26.2,2.57.53,3.87.14.58.29,1.15.39,1.73.01.08.04.17.06.25.04.14.07.28.08.42,0,1.29,0,2.58.01,3.87h0c0,.65,0,1.3,0,1.94,0,.74,0,1.47,0,2.21-.01,1.81-.02,3.63.06,5.43.04.88.23,1.75.42,2.62.09.44.19.87.26,1.31.06.32.08.66.05.97-.05.49-.14.98-.22,1.47-.17,1.02-.35,2.03-.23,3.01.14,1.21.07,2.39-.01,3.58-.06.93-.12,1.87-.07,2.8.06,1.23.17,2.46.27,3.68.1,1.14.2,2.29.26,3.43.03.52-.02,1.04-.07,1.57-.05.5-.09,1.01-.07,1.51.04.89.11,1.79.19,2.68.09,1.04.18,2.08.21,3.12.02.68-.09,1.36-.2,2.05-.05.31-.1.62-.14.93v-.02Z"/><path class="cls-1" d="m47.64,237.31l.69,17.1.04.33c.05.19.16.42.33.69.17.24.46.47.87.69.43.19,1.05.29,1.84.29s1.4-.08,1.81-.25c.41-.19.7-.4.87-.62.17-.24.27-.45.29-.62l.04-.29-.33-7.1,3.94-.22.25,6.96.07.33c.05.22.17.47.36.76.19.27.51.51.94.73.43.22,1.04.33,1.81.33s1.34-.12,1.7-.36c.39-.27.63-.57.72-.91.1-.36.13-.67.11-.91l-.04-.4-1.12-16.92-.07-.29c-.02-.19-.13-.41-.33-.65-.19-.24-.49-.43-.9-.58-.41-.17-1-.22-1.77-.14-.75.07-1.31.23-1.7.47-.36.22-.6.46-.72.73-.1.24-.14.46-.14.65l.04.25.58,7.28-3.83.22-.04-.76c-.02-.53-.05-1.18-.07-1.96l-.07-2.32c-.02-.77-.05-1.43-.07-1.96-.02-.53-.04-.81-.04-.83s-.06-.18-.18-.47c-.1-.31-.37-.6-.83-.87-.43-.29-1.17-.41-2.21-.36-.77.02-1.36.14-1.77.36-.39.19-.65.42-.8.69-.14.24-.23.46-.25.65v.29Z"/><path class="cls-2" d="m75.99,241.76c-.84-.24-1.87-.35-3.07-.33l-.72.07c-.48.05-1.08.18-1.81.4-.7.22-1.41.58-2.13,1.09-.72.51-1.34,1.22-1.84,2.14-.51.89-.77,2.05-.8,3.48-.02,1.43.23,2.62.76,3.59.53.94,1.19,1.7,1.99,2.28.82.56,1.63.98,2.42,1.27.82.26,1.51.45,2.06.54l.83.11h.65c.43,0,.89-.02,1.37-.07.51-.07.87-.19,1.08-.36l.11.15c.07.1.27.18.58.25.31.07.82.08,1.52.04.94-.07,1.62-.2,2.03-.4.41-.22.65-.53.72-.94.1-.41.14-.95.14-1.63,0-.41-.04-.98-.11-1.7-.07-.72-.16-1.5-.25-2.32-.1-.82-.2-1.61-.33-2.36-.1-.75-.18-1.36-.25-1.85l-.11-.73-.18-.33c-.12-.24-.31-.37-.58-.4-.14,0-.37-.12-.69-.36-.31-.24-.75-.52-1.3-.83-.55-.31-1.25-.58-2.1-.8Zm-1.16,2.86c.41.19.67.38.8.54l.58,5.91-.14.36c-.1.24-.23.53-.4.87-.17.31-.37.6-.61.87-.24.24-.49.36-.76.36-.36,0-.76-.19-1.19-.58-.41-.39-.76-.94-1.05-1.67-.29-.73-.42-1.58-.4-2.57.02-.99.16-1.84.4-2.54.27-.72.52-1.27.76-1.63.27-.39.4-.59.4-.62,0-.05.17,0,.51.15.36.15.74.33,1.12.54Z"/><path class="cls-1" d="m87.02,256.4h.47c.82,0,1.42-.11,1.81-.33.41-.22.68-.47.8-.76.14-.29.2-.54.18-.76v-.33l-.58-7.65.07-.36c.07-.24.23-.5.47-.76.24-.29.64-.47,1.19-.54.58-.07,1.04.1,1.37.51.36.39.63.94.8,1.67.19.7.33,1.46.4,2.28.07.8.1,1.56.07,2.28,0,.73-.01,1.33-.04,1.81-.02.46-.04.7-.04.73s.01.15.04.36.12.47.29.76c.17.29.47.54.9.76.46.22,1.12.33,1.99.33s1.51-.12,1.92-.36c.41-.24.68-.52.8-.83.12-.34.17-.63.14-.87v-.36l-.47-6.88.14-.47c.1-.31.25-.63.47-.94.24-.34.57-.51.98-.51.55-.02,1,.22,1.34.72.34.48.59,1.11.76,1.88.17.75.28,1.55.33,2.39.05.82.05,1.58,0,2.28-.02.7-.06,1.21-.11,1.52-.14.82.1,1.44.72,1.85.65.39,1.43.58,2.35.58.46,0,.88-.01,1.27-.04.39-.05.71-.25.98-.62.27-.36.47-1.03.61-1.99.14-.97.19-2.39.14-4.28-.02-1.5-.29-2.72-.8-3.66-.51-.97-1.13-1.71-1.88-2.25-.72-.56-1.45-.95-2.17-1.2-.72-.24-1.33-.39-1.81-.43l-.72-.11c-.94,0-1.78.04-2.53.11-.72.07-1.43.33-2.13.76l-.43-.29c-.29-.19-.74-.39-1.34-.58-.58-.19-1.33-.29-2.24-.29-.8,0-1.52.1-2.17.29-.65.17-1.17.35-1.55.54l-.54.29-.25-.29c-.14-.19-.45-.38-.9-.54-.46-.17-1.17-.23-2.13-.18-.72.02-1.25.16-1.59.4-.34.24-.57.52-.69.83-.1.29-.14.54-.14.76l.04.33.04.83c.05.53.1,1.22.14,2.07.05.85.11,1.75.18,2.72.07.94.13,1.84.18,2.68.07.85.13,1.52.18,2.03.07.63.27,1.1.58,1.41.34.29.7.48,1.08.58.41.1.76.13,1.05.11Z"/><path class="cls-1" d="m114.82,256.4h.47c.82,0,1.42-.11,1.81-.33.41-.22.67-.47.8-.76.14-.29.2-.54.18-.76v-.33l-.58-7.65.07-.36c.07-.24.23-.5.47-.76.24-.29.64-.47,1.19-.54.58-.07,1.04.1,1.37.51.36.39.63.94.8,1.67.19.7.33,1.46.4,2.28.07.8.1,1.56.07,2.28,0,.73-.01,1.33-.04,1.81-.02.46-.04.7-.04.73s.01.15.04.36.12.47.29.76c.17.29.47.54.9.76.46.22,1.12.33,1.99.33s1.51-.12,1.92-.36c.41-.24.67-.52.8-.83.12-.34.17-.63.14-.87v-.36l-.47-6.88.14-.47c.1-.31.25-.63.47-.94.24-.34.57-.51.98-.51.55-.02,1,.22,1.34.72.34.48.59,1.11.76,1.88.17.75.28,1.55.33,2.39.05.82.05,1.58,0,2.28-.02.7-.06,1.21-.11,1.52-.14.82.1,1.44.72,1.85.65.39,1.43.58,2.35.58.46,0,.88-.01,1.27-.04.39-.05.71-.25.98-.62.27-.36.47-1.03.61-1.99.14-.97.19-2.39.14-4.28-.02-1.5-.29-2.72-.8-3.66-.51-.97-1.13-1.71-1.88-2.25-.72-.56-1.45-.95-2.17-1.2-.72-.24-1.33-.39-1.81-.43l-.72-.11c-.94,0-1.78.04-2.53.11-.72.07-1.43.33-2.13.76l-.43-.29c-.29-.19-.74-.39-1.34-.58-.58-.19-1.33-.29-2.24-.29-.8,0-1.52.1-2.17.29-.65.17-1.17.35-1.55.54l-.54.29-.25-.29c-.14-.19-.45-.38-.9-.54-.46-.17-1.17-.23-2.13-.18-.72.02-1.25.16-1.59.4-.34.24-.57.52-.69.83-.1.29-.14.54-.14.76l.04.33.04.83c.05.53.1,1.22.14,2.07.05.85.11,1.75.18,2.72.07.94.13,1.84.18,2.68.07.85.13,1.52.18,2.03.07.63.27,1.1.58,1.41.34.29.7.48,1.08.58.41.1.76.13,1.05.11Z"/><path class="cls-2" d="m152.63,248.39c.6-.75.94-1.73,1.01-2.93,0-.17-.06-.47-.18-.91-.1-.43-.37-.89-.83-1.38s-1.19-.89-2.21-1.23c-1.01-.34-2.42-.49-4.23-.47-1.45.02-2.64.22-3.58.58-.92.36-1.64.83-2.17,1.41-.53.58-.93,1.2-1.19,1.85-.24.63-.4,1.23-.47,1.81-.05.58-.07,1.05-.07,1.41s.06.87.18,1.52c.14.63.37,1.32.69,2.07.34.72.82,1.42,1.45,2.1.63.65,1.42,1.18,2.39,1.59.96.41,2.16.6,3.58.58,1.47-.02,2.68-.16,3.62-.4.94-.26,1.68-.56,2.21-.87.53-.31.89-.58,1.08-.8l.33-.36.18-.36c.14-.27.22-.56.22-.87.02-.34-.14-.63-.51-.87-.34-.26-1-.4-1.99-.4-.87,0-1.59.11-2.17.33-.55.19-.96.4-1.23.62l-.4.33-.29.22c-.17.14-.4.28-.69.4-.29.1-.6.12-.94.07-.31-.05-.6-.25-.87-.62-.27-.36-.47-.97-.61-1.81h.83c.58,0,1.29-.06,2.13-.18.84-.15,1.69-.4,2.53-.76.87-.39,1.6-.94,2.21-1.67Zm-4.92-.83c-.72.51-1.82.82-3.29.94l.04-.69c.02-.48.11-1.04.25-1.67.14-.65.4-1.22.76-1.7.36-.51.89-.77,1.59-.8.7-.05,1.22.16,1.56.62.36.43.48.97.36,1.59-.12.63-.54,1.2-1.26,1.7Z"/><path class="cls-1" d="m157.92,252.56c.07.65.11,1.11.11,1.38v.4c.02.24.12.52.29.83.17.31.48.6.94.87.46.24,1.13.36,2.03.36s1.54-.12,1.95-.36c.41-.24.66-.52.76-.83.12-.34.16-.64.11-.91-.02-.29-.04-.46-.04-.51s-.05-.34-.14-.87c-.1-.56-.18-1.23-.25-2.03-.07-.82-.07-1.64,0-2.46.1-.84.33-1.58.69-2.21.36-.65.92-1.06,1.66-1.23,1.28-.31,2.16-.53,2.64-.65.51-.15.79-.29.87-.43.07-.15.11-.36.11-.65,0-.39-.26-.75-.8-1.09-.53-.34-1.39-.52-2.57-.54-.92-.02-1.8.04-2.64.18-.82.15-1.41.4-1.77.76l-.65-.33c-.41-.24-1.08-.31-2.02-.22-.94.1-1.68.3-2.21.62-.51.29-.64.8-.4,1.52.1.29.2.77.33,1.45.14.65.28,1.4.4,2.25.12.82.23,1.65.33,2.5.12.82.22,1.56.29,2.21Z"/></svg>