<?xml version="1.0" encoding="UTF-8"?><svg id="Layer_3" xmlns="http://www.w3.org/2000/svg" viewBox="0 0 480 640"><defs><style>.cls-1{fill:#f58120;}</style></defs><path class="cls-1" d="m367.36,344.31c.23-.23.46-.46.69-.69-.24.22-.45.47-.69.69Z"/><path class="cls-1" d="m363.9,356.75c.23-.23.46-.46.69-.69-.26.2-.44.48-.69.69Z"/><path class="cls-1" d="m377.04,210.92c.23-.23.46-.46.69-.69-.24.22-.47.45-.69.69h0Z"/><path class="cls-1" d="m360.45,367.81c.23-.23.46-.46.69-.69-.26.2-.44.48-.69.69Z"/><path class="cls-1" d="m361.14,366.42c.23-.23.46-.46.69-.69-.26.2-.44.48-.69.69Z"/><path class="cls-1" d="m236.71,142.49c-.23.23-.46.46-.69.69.22-.24.47-.45.69-.69Z"/><path class="cls-1" d="m240.86,139.73c-.23.23-.46.46-.69.69.23-.23.48-.44.69-.69Z"/><path class="cls-1" d="m399.16,150.79l.68-.68c-.24.21-.44.46-.68.68Z"/><path class="cls-1" d="m233.95,143.87c-.23.23-.46.46-.69.69.23-.23.48-.44.69-.69Z"/><path class="cls-1" d="m353.54,387.85c-.25.21-.46.46-.69.69.23-.23.46-.46.69-.69Z"/><path class="cls-1" d="m352.15,389.23c.23-.23.46-.46.69-.69-.24.22-.45.47-.69.69Z"/><path class="cls-1" d="m352.15,389.92c-.25.21-.46.46-.69.69.23-.23.46-.46.69-.69Z"/><path class="cls-1" d="m359.06,374.72c.23-.23.46-.46.69-.69-.25.21-.46.46-.69.69Z"/><path class="cls-1" d="m356.99,380.25c.23-.23.46-.46.69-.69-.26.2-.44.48-.69.69Z"/><path class="cls-1" d="m354.23,385.78c.23-.23.46-.46.69-.69-.24.22-.45.47-.69.69Z"/><path class="cls-1" d="m356.3,381.63c.23-.23.46-.46.69-.69-.26.2-.44.48-.69.69Z"/><path class="cls-1" d="m82.56,125.21c-.23.23-.46.46-.69.69.25-.21.46-.46.69-.69Z"/><path class="cls-1" d="m227.04,138.35c-.23-.23-.46-.46-.69-.69.25.21.43.49.69.69Z"/><path class="cls-1" d="m222.89,130.74c-.23-.23-.46-.46-.69-.69.23.23.44.48.69.69Z"/><path class="cls-1" d="m119.89,147.33c-.23-.23-.46-.46-.69-.69.21.25.46.46.69.69Z"/><path class="cls-1" d="m226.34,136.96c-.23-.23-.46-.46-.69-.69.23.23.44.48.69.69Z"/><path class="cls-1" d="m118.51,146.64c-.23-.23-.46-.46-.69-.69.22.24.47.45.69.69Z"/><path class="cls-1" d="m81.87,126.6c-.23.23-.46.46-.69.69.26-.2.44-.48.69-.69Z"/><path class="cls-1" d="m83.95,123.83c-.23.23-.46.46-.69.69.23-.23.48-.44.69-.69Z"/><path class="cls-1" d="m354.23,386.47c-.26.2-.44.48-.69.69.23-.23.46-.46.69-.69Z"/><path class="cls-1" d="m272.66,546.81c-.23.23-.46.46-.69.69.26-.2.44-.48.69-.69Z"/><path class="cls-1" d="m214.59,340.85c.23.23.46.46.69.69-.25-.21-.43-.49-.69-.69Z"/><path class="cls-1" d="m124.04,329.79c.23.23.46.46.69.69-.23-.23-.44-.48-.69-.69Z"/><path class="cls-1" d="m123.35,328.41c.23.23.46.46.69.69-.25-.21-.43-.49-.69-.69Z"/><path class="cls-1" d="m121.96,324.26c.23.23.46.46.69.69-.25-.21-.43-.49-.69-.69Z"/><path class="cls-1" d="m148.92,315.28c.23-.23.46-.46.69-.69-.21.25-.49.43-.69.69Z"/><path class="cls-1" d="m121.27,322.19c.23.23.46.46.69.69-.24-.22-.45-.47-.69-.69Z"/><path class="cls-1" d="m147.54,315.97c.23-.23.46-.46.69-.69-.22.24-.47.45-.69.69Z"/><path class="cls-1" d="m140.63,323.57c.23-.23.46-.46.69-.69-.24.22-.45.47-.69.69Z"/><path class="cls-1" d="m150.31,314.59c.23-.23.46-.46.69-.69-.21.25-.49.43-.69.69Z"/><path class="cls-1" d="m117.13,314.59c.23.23.46.46.69.69-.25-.21-.43-.49-.69-.69Z"/><path class="cls-1" d="m117.82,315.97c.23.23.46.46.69.69-.25-.21-.43-.49-.69-.69Z"/><path class="cls-1" d="m119.2,318.73c.23.23.46.46.69.69-.25-.21-.43-.49-.69-.69Z"/><path class="cls-1" d="m118.51,317.35l.69.69c-.25-.21-.43-.49-.69-.69Z"/><path class="cls-1" d="m119.89,320.12c.23.23.46.46.69.69-.23-.23-.44-.48-.69-.69Z"/><path class="cls-1" d="m156.53,314.59c.23.23.46.46.69.69-.2-.26-.48-.44-.69-.69Z"/><path class="cls-1" d="m206.99,302.84c.23.23.46.46.69.69-.23-.23-.44-.48-.69-.69Z"/><path class="cls-1" d="m208.37,304.22c.23.23.46.46.69.69-.24-.22-.45-.47-.69-.69Z"/><path class="cls-1" d="m206.3,301.46c.23.23.46.46.69.69-.24-.22-.45-.47-.69-.69Z"/><path class="cls-1" d="m213.9,339.47c.23.23.46.46.69.69-.24-.22-.45-.47-.69-.69Z"/><path class="cls-1" d="m179.34,302.15c.23-.23.46-.46.69-.69-.21.25-.49.43-.69.69Z"/><path class="cls-1" d="m212.52,336.7c.23.23.46.46.69.69-.25-.21-.43-.49-.69-.69Z"/><path class="cls-1" d="m210.45,309.06c-.23.23-.46.46-.69.69.25-.21.46-.46.69-.69Z"/><path class="cls-1" d="m209.06,305.6c.23.23.46.46.69.69-.23-.23-.44-.48-.69-.69Z"/><path class="cls-1" d="m171.73,311.82l.69-.69c-.25.21-.46.46-.69.69Z"/><path class="cls-1" d="m169.66,313.9c.23-.23.45-.45.68-.68-.24.21-.44.46-.68.68Z"/><path class="cls-1" d="m173.12,309.06c.23-.23.46-.46.69-.69-.24.22-.45.47-.69.69Z"/><path class="cls-1" d="m175.2,304.9c.22-.22.45-.45.67-.67-.23.21-.44.46-.67.67Z"/><path class="cls-1" d="m177.96,302.84c.23-.23.46-.46.69-.69-.22.24-.47.45-.69.69Z"/><path class="cls-1" d="m173.81,308.37c.23-.23.46-.46.69-.69-.25.21-.46.46-.69.69Z"/><path class="cls-1" d="m174.5,306.29c.23-.23.46-.46.69-.69-.26.2-.44.48-.69.69Z"/><path class="cls-1" d="m130.26,336.7c.23.23.46.46.69.69-.21-.25-.46-.46-.69-.69Z"/><path class="cls-1" d="m97.08,275.88c.23.23.46.46.69.69-.25-.21-.43-.49-.69-.69Z"/><path class="cls-1" d="m95.01,269.66c.23.23.46.46.69.69-.25-.21-.43-.49-.69-.69Z"/><path class="cls-1" d="m97.77,277.27c.23.23.46.46.69.69-.25-.21-.43-.49-.69-.69Z"/><path class="cls-1" d="m96.39,274.5c.23.23.46.46.69.69-.25-.21-.43-.49-.69-.69Z"/><path class="cls-1" d="m104.68,293.16c.23.23.46.46.69.69-.24-.22-.45-.47-.69-.69Z"/><path class="cls-1" d="m106.07,296.62c.23.23.46.46.69.69-.25-.21-.43-.49-.69-.69Z"/><path class="cls-1" d="m106.76,298c.23.23.46.46.69.69-.23-.23-.44-.48-.69-.69Z"/><path class="cls-1" d="m98.46,278.65c.23.23.46.46.69.69-.25-.21-.43-.49-.69-.69Z"/><path class="cls-1" d="m107.45,298.69c.23.23.46.46.69.69-.24-.22-.45-.47-.69-.69Z"/><path class="cls-1" d="m108.83,302.15c.23.23.46.46.69.69-.23-.23-.44-.48-.69-.69Z"/><path class="cls-1" d="m105.37,294.54c.23.23.46.46.69.69-.25-.21-.43-.49-.69-.69Z"/><path class="cls-1" d="m110.9,304.91c.23.23.46.46.69.69-.23-.23-.44-.48-.69-.69Z"/><path class="cls-1" d="m110.21,303.53c.23.23.46.46.69.69-.24-.22-.45-.47-.69-.69Z"/><path class="cls-1" d="m100.54,284.18c.23.23.46.46.69.69-.25-.21-.43-.49-.69-.69Z"/><path class="cls-1" d="m101.23,285.56c.23.23.46.46.69.69-.25-.21-.43-.49-.69-.69Z"/><path class="cls-1" d="m99.84,282.79c.23.23.46.46.69.69-.25-.21-.43-.49-.69-.69Z"/><path class="cls-1" d="m103.3,290.4c.23.23.46.46.69.69-.25-.21-.43-.49-.69-.69Z"/><path class="cls-1" d="m102.61,289.02c.23.23.46.46.69.69-.25-.21-.43-.49-.69-.69Z"/><path class="cls-1" d="m101.92,287.63c.23.23.46.46.69.69-.25-.21-.43-.49-.69-.69Z"/><path class="cls-1" d="m327.96,488.76c-.23.23-.48.44-.69.69.23-.23.46-.46.69-.69Z"/><path class="cls-1" d="m290.63,587.59c.23.23.46.46.69.69-.25-.21-.43-.49-.69-.69Z"/><path class="cls-1" d="m262.98,575.84c.23.23.46.46.69.69-.21-.25-.46-.46-.69-.69Z"/><path class="cls-1" d="m256.76,555.8c-.23.23-.46.46-.69.69.23-.23.48-.44.69-.69Z"/><path class="cls-1" d="m264.36,576.53c.23.23.46.46.69.69-.22-.24-.47-.45-.69-.69Z"/><path class="cls-1" d="m291.32,588.97c.23.23.46.46.69.69-.25-.21-.43-.49-.69-.69Z"/><path class="cls-1" d="m294.78,597.96c.23.23.46.46.69.69-.25-.21-.43-.49-.69-.69Z"/><path class="cls-1" d="m294.09,595.88c.23.23.46.46.69.69-.23-.23-.44-.48-.69-.69Z"/><path class="cls-1" d="m293.4,594.5c.23.23.46.46.69.69-.25-.21-.43-.49-.69-.69Z"/><path class="cls-1" d="m255.38,557.18c-.23.23-.46.46-.69.69.25-.21.46-.46.69-.69Z"/><path class="cls-1" d="m254.69,568.24c.23.23.46.46.69.69-.23-.23-.44-.48-.69-.69Z"/><path class="cls-1" d="m295.47,599.34c.23.23.46.46.69.69-.23-.23-.44-.48-.69-.69Z"/><path class="cls-1" d="m257.45,571c.23.23.46.46.69.69-.24-.22-.45-.47-.69-.69Z"/><path class="cls-1" d="m260.22,573.77c.23.23.46.46.69.69-.2-.26-.48-.44-.69-.69Z"/><path class="cls-1" d="m261.6,574.46c.23.23.46.46.69.69-.22-.24-.47-.45-.69-.69Z"/><path class="cls-1" d="m258.83,573.08c.23.23.46.46.69.69-.21-.25-.46-.46-.69-.69Z"/><path class="cls-1" d="m258.14,572.38c.23.23.46.46.69.69-.23-.23-.44-.48-.69-.69Z"/><path class="cls-1" d="m292.01,591.05c.23.23.46.46.69.69-.25-.21-.43-.49-.69-.69Z"/><path class="cls-1" d="m296.16,600.03c.23.23.46.46.69.69-.24-.22-.45-.47-.69-.69Z"/><path class="cls-1" d="m336.25,527.46c-.23-.23-.46-.46-.69-.69.24.22.45.47.69.69Z"/><path class="cls-1" d="m332.11,518.47c-.23-.23-.46-.46-.69-.69.24.22.45.47.69.69Z"/><path class="cls-1" d="m343.17,534.37c-.23-.23-.46-.46-.69-.69.22.24.47.45.69.69Z"/><path class="cls-1" d="m344.55,535.06c-.23-.23-.46-.46-.69-.69.2.26.48.44.69.69Z"/><path class="cls-1" d="m334.18,362.97c.23.23.46.46.69.69-.24-.22-.45-.47-.69-.69Z"/><path class="cls-1" d="m330.03,485.99c-.26.2-.44.48-.69.69.23-.23.46-.46.69-.69Z"/><path class="cls-1" d="m329.34,487.37c-.25.21-.46.46-.69.69.23-.23.46-.46.69-.69Z"/><path class="cls-1" d="m325.88,492.9c-.23-.23-.46-.46-.69-.69.23.23.44.48.69.69Z"/><path class="cls-1" d="m345.93,535.75c-.23-.23-.46-.46-.69-.69.21.25.46.46.69.69Z"/><path class="cls-1" d="m299.62,605.56c.23.23.46.46.69.69-.23-.23-.44-.48-.69-.69Z"/><path class="cls-1" d="m298.23,602.79c.23.23.46.46.69.69-.23-.23-.44-.48-.69-.69Z"/><path class="cls-1" d="m298.93,604.18c.23.23.46.46.69.69-.23-.23-.44-.48-.69-.69Z"/><path class="cls-1" d="m356.99,538.52c.23.23.44.48.69.69-.23-.23-.46-.46-.69-.69Z"/><path class="cls-1" d="m302.38,608.32c.23.23.46.46.69.69-.24-.22-.45-.47-.69-.69Z"/><path class="cls-1" d="m358.37,540.59c-.23-.23-.46-.46-.69-.69.25.21.43.49.69.69Z"/><path class="cls-1" d="m265.05,514.33c.23.23.46.46.69.69-.24-.22-.45-.47-.69-.69Z"/><path class="cls-1" d="m248.46,503.96c.23-.23.46-.46.69-.69-.21.25-.49.43-.69.69Z"/><path class="cls-1" d="m258.14,499.12c.23.23.46.46.69.69-.24-.22-.45-.47-.69-.69Z"/><path class="cls-1" d="m253.99,500.51c.23-.23.46-.46.69-.69-.23.23-.48.44-.69.69Z"/><path class="cls-1" d="m249.85,503.27c.23-.23.46-.46.69-.69-.23.23-.48.44-.69.69Z"/><path class="cls-1" d="m252.61,501.2c.23-.23.46-.46.69-.69-.22.24-.47.45-.69.69Z"/><path class="cls-1" d="m258.83,500.51c.23.23.46.46.69.69-.25-.21-.43-.49-.69-.69Z"/><path class="cls-1" d="m260.22,503.27c.23.23.46.46.69.69-.25-.21-.43-.49-.69-.69Z"/><path class="cls-1" d="m259.52,501.89c.23.23.46.46.69.69-.25-.21-.43-.49-.69-.69Z"/><path class="cls-1" d="m235.33,502.58c.23.23.46.46.69.69-.23-.23-.44-.48-.69-.69Z"/><path class="cls-1" d="m231.18,465.95c.23.23.46.46.69.69-.21-.25-.46-.46-.69-.69Z"/><path class="cls-1" d="m224.27,385.78c-.23.23-.46.46-.69.69.25-.21.46-.46.69-.69Z"/><path class="cls-1" d="m247.08,504.65c.23-.23.46-.46.69-.69-.22.24-.47.45-.69.69Z"/><path class="cls-1" d="m217.36,347.76c.23.23.46.46.69.69-.23-.23-.44-.48-.69-.69Z"/><path class="cls-1" d="m246.39,505.34c.23-.23.46-.46.69-.69-.23.23-.48.44-.69.69Z"/><path class="cls-1" d="m258.14,555.11c-.23.23-.46.46-.69.69.21-.25.49-.43.69-.69Z"/><path class="cls-1" d="m260.91,504.65c.23.23.46.46.69.69-.25-.21-.43-.49-.69-.69Z"/><path class="cls-1" d="m239.48,505.34c.23.23.46.46.69.69-.2-.26-.48-.44-.69-.69Z"/><path class="cls-1" d="m261.6,506.73c.23.23.46.46.69.69-.25-.21-.43-.49-.69-.69Z"/><path class="cls-1" d="m270.58,527.46l.69.69c-.25-.21-.43-.49-.69-.69Z"/><path class="cls-1" d="m269.2,523.31c.23.23.46.46.69.69-.25-.21-.43-.49-.69-.69Z"/><path class="cls-1" d="m271.97,531.61c.23.23.46.46.69.69-.25-.21-.43-.49-.69-.69Z"/><path class="cls-1" d="m271.96,548.2c-.23.23-.46.46-.69.69.26-.2.44-.48.69-.69Z"/><path class="cls-1" d="m267.82,553.03c-.23.23-.46.46-.69.69.22-.24.47-.45.69-.69Z"/><path class="cls-1" d="m271.28,549.58c-.23.23-.46.46-.69.69.24-.22.45-.47.69-.69Z"/><path class="cls-1" d="m268.51,521.93c.23.23.46.46.69.69-.25-.21-.43-.49-.69-.69Z"/><path class="cls-1" d="m264.36,513.64c.23.23.46.46.69.69-.23-.23-.44-.48-.69-.69Z"/><path class="cls-1" d="m262.29,508.11c.23.23.46.46.69.69-.25-.21-.43-.49-.69-.69Z"/><path class="cls-1" d="m216.67,346.38c.23.23.46.46.69.69-.25-.21-.43-.49-.69-.69Z"/><path class="cls-1" d="m265.75,515.71c.23.23.46.46.69.69-.25-.21-.43-.49-.69-.69Z"/><path class="cls-1" d="m267.82,519.86c.23.23.46.46.69.69-.25-.21-.43-.49-.69-.69Z"/><path class="cls-1" d="m267.13,518.47c.23.23.46.46.69.69-.25-.21-.43-.49-.69-.69Z"/><path class="cls-1" d="m266.44,517.09c.23.23.46.46.69.69-.25-.21-.43-.49-.69-.69Z"/><polygon class="cls-1" points="204.82 122.5 204.82 122.5 204.82 122.5 204.82 122.5"/><polygon class="cls-1" points="390.13 156.26 390.13 156.26 390.13 156.26 390.13 156.26"/><path class="cls-1" d="m399.04,126.68c-.01-.3-.29-.58-.44-.87h0s0,0,0,0c-.04-1.37-.08-2.74-.14-4.11-.03-.58-.15-1.14-.61-1.56h0s.12-.23.12-.23l-.16-.21c.19-1.03.41-2.07-.75-2.72l-.02-.04c-.24-1.18.36-2.48-.51-3.56-.21-2.18-1.44-3.99-2.23-5.95-.83-2.05-1.22-4.3-2.65-6.09h0s.07-.19.07-.19l-.15-.13c.08-.61-.04-1.13-.64-1.44-.01-.46-.26-.76-.66-.96h0s.06-.24.06-.24l-.21-.14c.06-.58-.15-1.04-.62-1.39.05-.79.06-1.56-.68-2.08.02-.59-.21-1.04-.73-1.34t0,0h0c-.01-.78.14-1.59-.67-2.1h0s0,0,0,0c-.04-.64-.15-1.26-.61-1.75,0,0,0,0,0,0l.06-.21-.18-.12c.07-.41-.08-.71-.46-.88-.36-.96-.41-2.08-1.44-2.67-.06-.39-.26-.65-.63-.78-.33-.83.1-1.93-.91-2.52,0,0,0,0,0,0l-.03-.05c-.17-.26-.44-.46-.56-.75,0,0,0,0,.01,0,0,0,0,0,0,0,.18.25.37.5.55.75.01-.41-.18-.67-.57-.79-.23-.56-.46-1.12-.68-1.68h0s0,0,0,0c.28-.39.25-.73-.17-1.01-.16-.25-.41-.44-.5-.74,0,0,0,0,.01,0,0,0,0-.01,0-.02.16.25.32.5.48.75.03-.38-.15-.63-.48-.78,0-.58-.08-1.11-.68-1.38-.04-.42-.3-.62-.69-.7-.12-.52-.29-1-.81-1.26h0s0,0,0,0c-.23-.23-.49-.43-.61-.74,0,0,.01,0,.02,0,0,0,0,0,0,0,.2.25.4.49.6.74.03-.45-.23-.66-.6-.77-.04-.56-.1-1.1-.73-1.34-.03-.42-.27-.65-.66-.72-.06-.38-.23-.66-.62-.76-.06-.4-.29-.63-.69-.71-.1-.41-.36-.6-.78-.6-.15-.3-.25-.64-.46-.89-1.21-1.41-2.06-3.31-4.33-3.32-.11-.36-.33-.59-.71-.65-.07-.39-.32-.6-.7-.67-.12-.51-.18-1.05-.8-1.25l-.03-.03c-.34-.86-1.22-.64-1.84-.93-.35-1.06-1.09-1.69-2.17-1.95-.07-.38-.24-.66-.64-.75-.1-.4-.38-.58-.77-.62-.09-.4-.33-.61-.75-.62l-.11.12s0,0,0,0c.04-.04.07-.08.11-.12-.66-.99-1.35-1.95-2.62-2.23-.68-.46-1.35-.93-2.03-1.39-.12-.39-.4-.58-.78-.63-.07-.38-.3-.61-.67-.7-.09-.53-.22-1.04-.81-1.26-.04.04-.07.07-.11.11,0,0,0,0,0,0h0l.11-.1c-.01-.43-.25-.65-.66-.73-.03-.41-.23-.67-.65-.73-1.17-1.21-2.34-2.4-3.5-3.62-.78-.82-1.62-1.54-2.7-1.94-.02-.57-.11-1.09-.78-1.28h0s0,0,0,0c-.2-.73-.82-.63-1.36-.7-.08-.36-.25-.65-.63-.76-.03-.42-.26-.65-.67-.7-.11-.39-.37-.56-.78-.51l.74.51s0,.01,0,.02c-.31-.09-.5-.35-.75-.53h0s-.12-.21-.12-.21l-.24.04c-.46-.03-.77-.27-.93-.68,0,0,0,0,0,0,.17.41.48.63.93.68-.19-.38-.5-.62-.91-.73-.15-.82-.57-1.33-1.5-1.25h0c-.07-.06-.15-.11-.22-.17-.32-.23-.64-.47-.96-.7-.05-.86-.62-1.43-1.25-1.86-1.18-.81-2.44-1.5-3.67-2.24-.35-1.49-1.54-2.13-2.77-2.73-.1-.41-.38-.59-.8-.6.25.19.5.39.75.58,0,0,0,.02.01.03-.33-.1-.54-.36-.76-.6h0c-.09-.38-.33-.58-.71-.63l-.04-.04c-.2-.68-.72-.77-1.31-.74-.48-.68-1.26-.65-1.95-.83-.22-1.14-1.14-1.28-2.07-1.4-.1-.38-.32-.62-.74-.63-.66-1.02-1.76-.63-2.68-.82-.12-.35-.37-.55-.75-.57-.14-.38-.41-.55-.82-.51l.08-.18c-.43-.84-1.3-.54-1.98-.76-.94-.42-1.91-.68-2.96-.49-.22-.09-.44-.09-.66-.02h0c-.74-.88-1.83-.48-2.74-.76-1.28-.84-2.75-.55-4.15-.68-.88-.59-1.88-.81-2.91-.7-.97.1-1.78.02-2.51-.75-1.02-1.07-2.5-1.02-3.82-1.33-.33-.08-.52.33-.62.66-.55.37-.58.92-.53,1.51l-.2.13.07.23h0c-.26.31-.52.62-.78.93h0c-.16.15-.47.29-.47.45-.03,1.7,0,3.39-.01,5.09,0,.6.15,1.12.66,1.49.02,1.62.05,3.24.07,4.86,0,0,0,0,0,0-1.21,1.34-1.14,2.73-.13,4.15.14.21.15.42.03.64-.19.28-.53.54-.54.83-.08,2.14-.12,4.27-.13,6.41,0,.48.39.79.78,1.04-.53,2.99-.99,5.98-.73,9.02v.02c-.19.26-.43.5-.53.79-.47,1.29-.28,2.64-.25,3.97-.48.31-.56.85-.74,1.33-.92,1.05-.64,2.3-.62,3.52-.53.6-.8,1.28-.71,2.08-.07.11-.13.23-.17.36-.57,1.15-1.23,2.27-.69,3.65-.35.17-.51.45-.48.85-.57.31-.71.81-.64,1.41l-.16-.09c-.92.73-.52,1.8-.68,2.72l.12.15c-.77.31-.87,1.03-.91,1.7-.04.55.09,1.12.14,1.68-.37.11-.57.35-.55.76l-.04.06c-.76.48-.8,1.22-.71,2v.02c-.45.33-.78.73-.77,1.32-.72.56-.45,1.38-.55,2.1l-.22.13.05.25c-1.17,2.37-2.82,4.5-3.45,7.14-.27.44-.53.87-.8,1.31-.41.15-.53.45-.45.86-.23.12-.27.3-.12.51-.37.43-.75.85-.81,1.45-.6.62-1.19,1.24-1.21,2.18-.41.94-1.39,1.55-1.51,2.65-.51.37-.54.93-.56,1.5-.57.28-.78.75-.74,1.35-.48.68-.95,1.36-1.43,2.04h0s0,0,0,0h0s0,0,0,0c-1.2.83-1.79,2.03-2.11,3.4-.37.07-.64.25-.74.64-.41.13-.58.42-.53.85-.76,1.35-2.02,2.43-2.1,4.12-.4.07-.61.3-.57.73l-.2.11.04.23c-.4.24-.52.63-.55,1.06h0s-.03.04-.03.04c-.26.18-.45.46-.77.54,0,0,0,0,0,0,0,0-.01,0-.02,0-.97,0-1.35.55-1.34,1.46-.42.48-.84.96-1.26,1.44l-.05.04c-.48.66-.96,1.32-1.43,1.98-.68.18-.69.77-.78,1.3-.76.18-1.4.48-1.34,1.45,0,0,0,0,0,.02,0,0,0,0,0,0-.09.21-.25.37-.39.54l-.14.2s0,0,0,0h0s-.06.05-.06.05c-.38.03-.64.22-.75.59-.41.15-.87.23-1.23.47-1.35.9-2.1,2.31-2.96,3.62-1.03-.04-1.5.76-2.06,1.4-.35.41-.59.95-1.25.93,0,.01-.02.02-.03.03-.42.5-.95.94-.91,1.68-.74.38-1.84.27-2.03,1.42-.35.11-.58.34-.69.69-.56.03-1.07.15-1.33.73-.41.03-.67.24-.76.64-.39.1-.57.38-.63.75-.77.15-1.24.6-1.4,1.37-.45.22-.9.45-1.35.67-1.16,0-1.79,1-2.72,1.44-.6-.05-1.13.03-1.26.77l-.2.1.03.22c-.61.47-1.67-.01-2.06.93-.38.1-.56.39-.69.73-.57,0-1.13,0-1.45.6-.42.05-.66.29-.71.7-.37.13-.52.43-.6.78-.54.07-1.1.11-1.34.74-.76.16-.78.73-.77,1.33-.22.22-.44.43-.67.65-.83-.16-1.6-.16-2.09.68-.94.17-1.87.3-2.52-.64-.06-.44-.11-.87-.17-1.31.05-.08.15-.16.14-.23-.02-.16-.1-.31-.15-.47,0-.77.08-1.56-.56-2.17-1.15-3.98-2.16-8.01-4.25-11.64h0s0,0,0,0c-.34-1.35-1.17-2.42-2.01-3.49,0-.4-.19-.68-.56-.83-.08-.55-.19-1.08-.87-1.22h0c-.45-.47-.89-.95-1.34-1.42.03-.42-.13-.71-.54-.84-.33-.79-.71-1.54-1.58-1.87h-.01c-1.57-1.9-3.1-3.83-5.33-5.03-.14-.39-.46-.53-.84-.56-.08-.37-.22-.7-.67-.76-.73-.8-1.47-1.61-2.2-2.41-.33-.36-.74-.4-1.18-.38-.14-.34-.39-.56-.76-.64-.05-.43-.27-.66-.73-.65-.42-.5-.71-1.14-1.41-1.34h0c-.24-.62-.78-.69-1.33-.75-.09-.36-.3-.61-.65-.74-.16-1.29-1.22-1.19-2.11-1.34-.09-.38-.31-.62-.72-.66-.66-1-1.41-1.88-2.62-2.21-.12-.37-.4-.55-.78-.61-.08-.4-.3-.64-.73-.65-.1-.39-.38-.54-.76-.56l-.07-.05c-.39-.75-1.17-.72-1.84-.9-.1-.4-.31-.66-.79-.58-.37-.43-.88-.57-1.42-.64-.37-.96-1.16-.91-1.96-.84-.14-.36-.39-.56-.79-.56-.26-.65-.82-.68-1.4-.66h-.01c-.46-.53-.93-.83-1.41-.03-.45.01-.77.23-.98.63,0,0,0,0,0,0l-.22-.1-.16.18c-.22.25-.44.5-.76.63,0,0,0,0,0,0,.25-.21.51-.42.76-.62-.51-.1-.72.17-.78.61-.39.09-.54.4-.66.73-.86,1.95-.87,2.88,0,4.93.05.2.09.39.13.59-.25.82-.35,1.62.48,2.21l.17-.09c-.07.86-.28,1.76.58,2.4,0,0,0,0,0,0l-.08.23.19.15c-.09,1.12-.24,2.25.12,3.35-.45,2.06-.17,4.12.03,6.18.03.28.38.53.57.79-.01,3.02-.02,6.03-.03,9.05-.17.28-.47.56-.49.85-.21,2.93-.63,5.87-.2,8.82l-.04-.03c-.67.46-.67.95-.07,1.47,0,.22.03.43.1.63l-.15-.08c-.41.16-.54.45-.43.87-.02.41-.03.82-.05,1.23-.03.71-.06,1.42-.09,2.13-.31,1.79-.62,3.58-.93,5.37-.28.22-.55.44-.83.67-.1.05-.19.11-.26.21h0s-.04.02-.04.02c-1.34,0-2.68,0-4.02,0-.58,0-1.11.13-1.4.7l-.08.06c-.36.03-.65.16-.81.5-.64-.02-1.2.15-1.6.69,0,0,0,0,0,0l-.24-.07-.15.2c-.95.03-2.05-.55-2.7.68l-.1-.08h0c-.46.05-.92.09-1.39.14h0s0,0,0,0c-.42.01-.84.02-1.26.04h0c-2.79-.04-5.59-.1-8.38-.1-.26,0-.52.34-.78.53l.09.11c-1.13-.01-2.25-.03-3.38-.04-.31-.6-.9-.52-1.44-.6-1.58-.23-3.19.34-4.76-.15-.33-.52-.83-.62-1.4-.59-1.19.05-2.39.07-3.58.11,0,0,0,0,0,0-.86-.52-1.98.07-2.8-.63-.84-1.34-2.18-.7-3.33-.84-.65-.06-1.29-.12-1.94-.18-.11-.39-.32-.64-.78-.59-.77-.73-1.78-.59-2.71-.73-.14-.37-.42-.52-.82-.51l-.05-.03c-.49-.74-1.27-.68-2.01-.72h0c-.33-.51-.83-.62-1.38-.6l-.13-.22-.25.05c-.22-.4-.56-.59-1.02-.55l-.05-.02c-1.3-.77-2.4-1.91-3.96-2.23-.37-.45-.86-.64-1.42-.67-.28-.57-.8-.68-1.37-.7-.26-.54-.73-.75-1.3-.78-.14-.37-.38-.59-.81-.56-.3-.53-.81-.65-1.35-.74-.23-.59-.75-.71-1.29-.79-.1-.36-.32-.59-.71-.65-.16-.39-.46-.51-.87-.46l-.04-.02c-.33-.42-.7-.76-1.26-.8-.28-.59-.8-.71-1.39-.69-.77-.8-1.57-1.54-2.82-1.3-.26-.2-.48-.44-.69-.69h0c0-.43-.13-.75-.62-.78-.55-.7-1.25-1.15-2.15-1.26l-.03-.02c-.42-.81-.83-1.66-1.99-1.47-.24-.21-.48-.43-.72-.64,0-.92-.47-1.37-1.37-1.4-.21-.24-.43-.48-.64-.71-.06-.86-.65-1.21-1.38-1.41-.06-.38-.27-.63-.64-.73-.07-.55-.24-1.03-.86-1.19l-.04-.04c-.05-.37-.24-.62-.59-.74,0-.57-.08-1.09-.76-1.26l-.06-.05c-.17-.53-.6-.76-1.08-.92-.05-.57-.09-1.16-.9-1.16l-.13-.19-.22.07c-.48-.04-.8-.27-.91-.75,0,0,0,0,0,0,.13.45.44.69.91.75-.18-.37-.45-.65-.85-.77.05-.21-.03-.36-.23-.46-1.53-1.19-2.01-1.19-3.3.03-.21.15-.26.35-.15.58-.95,1.25-1.12,2.64-.86,4.15.15.9.18,1.82.26,2.73-.06,1.38-.15,2.75-.17,4.13-.01.79-.08,1.63.68,2.2.11.19.12.39.04.59-.7.72-.88,1.44-.02,2.17.06,1.25.35,2.49.02,3.76-.2.77-.16,1.6.21,2.37-.02.94-.04,1.89-.06,2.83,0,.45-.01.9-.02,1.35,0,2.78,0,5.55,0,8.33-.01,1.38-.03,2.75-.04,4.13-.03,2.41-.16,4.82-.07,7.22.05,1.31-.25,2.74.63,3.94l.1-.08c-.09.19-.1.39-.05.59-.45.51-.81,1.03.03,1.52h0c.07.47.13.93.2,1.4-.23.42-.27.86-.13,1.31-.19.47-.2.94.02,1.41,0,.45,0,.89.01,1.34,0,.71.01,1.42.02,2.13-.13.21-.14.42-.01.63,0,0,0,0,0,0-.17,1.02-.46,2.06.48,2.9h0s.1-.09.1-.09c.33,1.2.2,2.4.09,3.62-.11,1.2-.28,2.45.58,3.51h0s-.1.25-.1.25l.19.2c-.53,2.63.3,5.22.22,7.84,0,.16.26.33.41.5.25,2.76-.19,5.58.71,8.28.23.97.19,1.92-.05,2.89-.13.55.03,1.07.66,1.3h0s.17-.09.17-.09c-.06.53-.1,1.06-.19,1.59-.13.79.02,1.47.68,1.98.09,1.55-.26,3.13.22,4.66-.1,1.68-.38,3.38.55,4.95.22.69.44,1.38.66,2.08,0,0,0,0,0,0,.02,1.13.04,2.26.08,3.39.02.57.16,1.09.64,1.47-.04,1.21-.54,2.51.63,3.5.35,1.35-.27,2.87.72,4.11-.02.07-.07.15-.06.22.03.15.09.29.14.43l.06,1.41c-.06.2-.03.38.09.55.17.97-.49,2.08.51,2.9.3,1.65.48,3.34,1.38,4.83-.11.23-.06.43.15.59.14,1.2-.73,2.55.51,3.6.05.19.11.38.16.57-.23.83-.26,1.62.5,2.22.05.19.09.38.14.57-.2.63-.27,1.21.52,1.5h0s0,0,0,0h0s.17-.09.17-.09c.19.25.44.45.59.73,0,0,0,0,0,0,0,0,0,0,0,.01-.2-.25-.39-.49-.59-.74,0,.41.24.63.59.76-.14,2.98,1.26,5.42,2.74,7.84,0,0,0,0,0,0l-.12.22.17.18c-.14.64-.1,1.2.6,1.47.09.54.26,1.05.68,1.44.25.82.13,1.75.67,2.48.03.06.08.11.13.17-.05.59.19,1.06.63,1.43-.07.79.07,1.5.79,1.98v.02c.22.24.5.44.59.77,0,0-.01,0-.02,0-.19-.26-.38-.51-.56-.77-.02.42.15.7.57.8.56,1.09.27,2.55,1.45,3.38-.06.61-.02,1.17.73,1.34h0c.36,1.78,1.14,3.37,2.04,4.91h0c.05.33,0,.73.16.99,1.08,1.71,2.37,3.28,2.78,5.36.13.63.79,1.07,1.21,1.59.89,1.11,2.07,2.07,2.15,3.71.05.94.76,1.61,1.5,2.18.41.31.89.59.89,1.18,0,.04,0,.09,0,.13,1.24,1.75,2.54,3.45,3.48,5.39.74,1.53,1.33,3.17,2.28,4.56.98,1.44,1.79,3.04,2.07,4.6.63,3.58,3.18,5.94,4.84,8.86.54.96,1.58.79,2.36,1.22.7.39,1.29-.14,1.87-.49,0,0,0,0,0,0h0c.97-.21.83-1.01.77-1.64-.23-2.18-.04-4.35.06-6.53.75-1.35.98-2.98,2.34-4.04.57-.44.82-1.35,1.08-2.09.16-.45.33-.8.71-1.09,2.86-2.2,4.88-5.36,8.2-7.02,1.5-1.8,3.63-1.65,5.39-1.08,1.84.6,3.81.69,5.55,1.57,1.28,1.09,2.81.37,4.21.59h0c.51.74.99.72,1.44-.06,0,0,0,0,0,0,1.42-.29,2.96-.35,3.56-2.05,1.85-1.38,2.25-3.65,3.07-5.55.77-1.8,1.95-3.06,3.32-4.14,2.33-1.83,5.16-2.73,8.03-3.42,2.11-.01,4.27.42,6.26-.71,0,0,0,0,0,0,1.59.18,3.17.16,4.75-.08,1.64.04,3.28.13,4.92.11.74,0,1.56.02,2.1-.7h0,0c.99-.67,2.25.27,3.28-.62.58-.5,1.44-.07,1.83.48,2,2.8,4.66,5.06,6.47,8.01.71,1.16,1.85,2.06,2.16,3.47.34,1.55-1.2,2.41-1.38,3.78-.67.58-.83,1.3-.58,2.14,0,.45-.02.9-.02,1.34-.32,2.14-.37,4.25.62,6.26.61,2.95,1.3,5.89,1.49,8.91-.19,1.23-.3,2.43.68,3.42.49,2.61,1.71,4.9,3.2,7.06.31.96.06,2.08.8,2.93,0,0,0,0,0,0l-.08.28.22.19c-.06.47.18.66.62.68.24.46.49.92.73,1.39.4.97.3,2.38,1.96,2.27.08.37.36.48.68.52.27,1.36.54,2.72.81,4.09-.02.91-.05,1.81-.06,2.72,0,.61.24,1.1.79,1.4,0,1.65-.06,3.29.59,4.88.15.36-.06.86-.1,1.29-.18.26-.51.52-.52.79-.05,1.47-.06,2.94.01,4.41.02.4.39.78.6,1.16.03.21.07.42.14.62-.21.47-.27.94-.05,1.43-.11.22-.09.44.05.64-.02,1.41-.05,2.81-.07,4.22,0,.56.08,1.08.62,1.41.02,2.35.08,4.7.03,7.05-.02,1.16.22,2.21.7,3.24-.22.39-.62.77-.63,1.16-.04,1.25.07,2.5.11,3.75-.12.18-.14.38-.06.58.01.73.02,1.45.04,2.18,0,0,0,0,0,0-.07,2.5-.15,4.99-.22,7.49-.72.42-.68,1.14-.68,1.81.02,3.75.07,7.5.12,11.25,0,.59.19,1.11.61,1.54.05.18.1.36.15.55-.05,1.77-.12,3.55-.16,5.32-.01.65-.1,1.35.63,1.75.33.47.57.92.35,1.55-.34.98-.43,2.01.13,2.93.52.85.52,1.63.16,2.54-.34.86.05,1.76.14,2.65.11,1.17-.3,2.45.69,3.45,0,0,0,0,0,0,.26,2.05.53,4.1.79,6.14-.19,1.46-.43,2.92.65,4.18.63,3.78,1.3,7.55,1.29,11.39,0,1.15.68,1.9,1.41,2.61,1.22,1.21,2.3,1.3,3.88.27.5-.32.99-.52,1.57-.54.39.26.67.61.7,1.1.07,1.36.12,2.72.19,4.07.03.67,0,1.38.65,1.84.06,1.29-.06,2.59.3,3.88.13.47-.12,1.05-.2,1.57-.23,1.19-.44,2.38-.08,3.58h0c-.82.9-.97,1.82-.16,2.8.07.18.07.37.02.56-.79.84-.71,1.84-.54,2.86-.28,2.73-.57,5.46-.85,8.19-.16.15-.45.3-.46.47-.09,1.59-.16,3.17-.19,4.76,0,.49.34.82.77,1.03.12.31.35.63.35.94-.01.91.3,1.52,1.21,1.83.42.14.76.5,1.14.76.48.79.98.74,1.5.04,0,0,0,0,0,0,.18-.07.36-.12.56-.15.83.18,1.62.23,2.16-.62,0,0,0,0,0,0,1.44-.91,2.88-1.8,4.31-2.72,2.27-1.46,4.73-2.71,6.04-5.31.22-.44.91-.65,1.39-.96.45.06.72-.11.77-.59l.03-.03c.5,0,.73-.24.6-.75h0s.3.06.3.06c0,0,.31-.04.31-.04h0c.06.41.13.82.19,1.23-.12.47.11.7.53.81.17,1.27.74,2.41,1.37,3.48,2.6,4.4,4.91,8.92,6.48,13.79.28.86.71,1.71,1.26,2.43.57.75.94,1.55,1.31,2.39.91,2.08,1.85,4.15,2.77,6.23-.12.44.04.72.44.88.5.91.06,2.09.82,2.92,0,0,0,0,0,0l-.08.21.17.14c.23.23.49.44.6.76.04.03.08.05.12.08-.04-.03-.07-.06-.11-.08,0,0,0,0,0,0,0,0-.01-.01-.02-.01-.19-.25-.39-.5-.58-.75-.08.47.17.68.56.78.07.53.17,1.06.21,1.6.03.47.13.86.6,1.07h0c0,.46,0,.92,0,1.38-.02.59.05,1.13.66,1.42-.02.22,0,.43.06.64-.25,2.36-.4,4.72.61,6.97,0,0,0,0,0,0,.06.21.06.42.01.63-.45.26-.48.51.03.73.62,1.37-.3,2.74-.02,4.12-.83.8-.28,1.89-.6,2.8l-.03.06c-.49.29-.83.67-.74,1.3-.41.36-.65.8-.75,1.33-.41.08-.6.34-.58.76l-.02.04c-.48.32-.88.68-.74,1.34l-.15.15.09.19c-.03.47-.26.78-.71.92,0,0,0,0,0,0,.42-.15.65-.46.7-.92-.24.29-.48.58-.72.88-.56.07-1.03.27-1.22.87l-.03.02c-.68.22-.91.9-1.37,1.35h0-.03c-.59-.04-1.09.1-1.42.64-.59-.03-1.08.14-1.38.7-.22-.06-.43-.05-.64.05-1.71-.02-3.42-.06-5.12-.06-.9,0-1.85-.09-2.51.75h0c-.43.64-.89,1.27-1.28,1.93-.71,1.17-1.2,2.37-.09,3.6h0s0,0,0,0c.15.73-.22,1.61.64,2.11.01.43.27.66.66.76.88,1.87,2.13,3.36,4.06,4.21.16.39.44.56.87.47l.16.21.25-.08c.3.23.6.45.9.67.02.42.18.72.63.79.61.62,1.28,1.14,2.18,1.25.53.64,1.28.69,2.03.76.57.7,1.36.62,2.14.56l.16.2.24-.08c.2.4.51.63.97.59h.02c1.44,1.26,3.16.73,4.79.75.93.74,2.01,1.09,3.14.81.9-.22,1.72-.14,2.62-.08,1.77.13,3.56-.06,5.34-.12.23.2.47.19.7,0,.76,0,1.59.22,2.13-.58.41,0,.82.01,1.23.02.08,2.91-.25,5.85.75,8.69.15.42.1.91.14,1.36,0,0,0,0,0,0,.09.07.24.13.26.22.15.52.33,1.02.5,1.53,1.81,5.23,4.89,9.8,7.8,14.46.24.39.55.73.86,1.07,1.55,1.66,2.94,3.54,4.72,4.9,1.89,1.45,3.03,3.78,5.44,4.59.19.06.37.29.47.48,1.03,2.12,2.94,3.47,4.46,5.16.92,1.02,1.85,2.05,3.38,2.19.85.08,1.52,1.29,2.5.52.71-.56,1.38-1.22,1.94-1.93.34-.42.33-1.12.67-1.55,2.13-2.76,3.13-6.02,4.13-9.27.44-1.42.42-3.02,1.05-4.33,1.46-3.02,1.8-6.3,2.56-9.48.81-.47.68-1.29.69-2.02,0-.75-.12-1.5-.19-2.25.81-1.2-.24-2.7.66-3.89-.16-2.33.73-4.66.01-6.99.07-1.61.17-3.21.19-4.82.01-.8-.06-1.62-.75-2.21-.01-.02-.02-.04-.03-.05-.19-.29-.38-.59-.57-.88l.1-.25-.19-.2c-.16-.77-.09-1.6-.42-2.33-.05-.15-.13-.3-.26-.43,0-.45,0-.91,0-1.36.41-.07.76-.22.97-.61l.27.03.15-.22c.54,0,1.09.01,1.46-.49.16.01.28-.02.39-.07.06-.04.12-.08.17-.13.1-.11.16-.25.2-.42.66-.24,1.47-.15,1.92-.86h0c.47.02.63-.28.7-.68.26-.03.49-.1.71-.19.69-.28,1.2-.81,1.7-1.36.13-.15.27-.3.4-.44.16,0,.29-.05.41-.11.06-.05.13-.1.19-.16.08-.1.14-.21.18-.36.09-.02.18-.05.26-.09.17-.09.29-.22.35-.4.03-.07.04-.16.05-.25.06-.03.12-.06.17-.09.32-.21.45-.54.54-.89.03-.11.05-.22.07-.33.12-.03.22-.09.3-.15.06-.07.12-.13.19-.2.07-.1.12-.23.14-.37.37-.1.59-.33.67-.71.12-.02.22-.06.32-.09.58-.23.78-.68.86-1.2.05-.29.06-.6.08-.9.35-.1.62-.29.73-.64.18-.04.35-.08.52-.13.56-.18.97-.51.87-1.33l.17-.24-.1-.18-.04-.07c.09-.11.18-.21.27-.32.06-.08.13-.16.19-.23.28-.34.56-.67.84-1.01h0s0,0,0,0c.75-.53.29-1.45.67-2.09h0c.43-.05.65-.27.64-.71l.02-.04h0c.82-.47.83-1.22.69-2.02l.2-.15-.06-.24h0c.28-.18.46-.4.58-.63.12-.24.18-.5.19-.77.02-.28,0-.57-.04-.87.34-.15.5-.41.45-.8.42-.44.35-.91.08-1.39.12-.63.09-1.18-.7-1.33l-.04-.03h0s0,0,0,0c-.07-.36-.29-.58-.65-.66l-.02-.03h0c-.19-.24-.35-.42-.51-.56-.43-.37-.79-.4-1.34-.08-.24.14-.51.35-.84.63l-.04.02c-1.36-.12-2.74.3-4.08-.19,0,0,0,0,.01,0-.38-.34-.81-.59-1.26-.8-.03-.02-.07-.03-.1-.05-.45-.19-.91-.35-1.38-.49-.13-.37-.4-.51-.78-.49l-.11-.23-.25.02s0,0,0,0c-.42-.55-.98-.75-1.65-.68-.71-.66-1.43-1.32-2.14-1.98h0c-.49-.73-1.09-1.29-1.97-1.48-.11-.39-.4-.56-.79-.58h-.02c-.06-.41-.29-.62-.69-.65l-.04-.04h0c-.19-.29-.38-.59-.57-.88.13-.21.09-.39-.12-.52.1-.44-.07-.71-.49-.82-.08-.41-.35-.6-.75-.65-.18-.32-.35-.64-.53-.96-.05-.14-.11-.26-.2-.37.04-.19,0-.34-.05-.46-.04-.06-.08-.11-.13-.17-.1-.09-.22-.16-.38-.2l-.79-1.45.04-.29-.23-.17c.03-.42-.12-.74-.49-.94l.08-.26-.2-.18c-.21-.24-.46-.45-.58-.76,0,0,.01,0,.02.01.19.25.37.5.56.75.09-.46-.15-.69-.55-.78-.23-.76-.03-1.65-.71-2.26-.66-2.04-1.39-4.06-1.97-6.12-.71-2.51-1.48-5.03-1.86-7.59-.22-1.53-1.31-2.78-.91-4.58.29-1.29-.52-2.83-.84-4.26-.27-1.22-.2-2.73-.91-3.6-1.11-1.37-1.28-3.1-2.31-4.5-.78-1.06-2.08-1.44-2.65-2.62-.21-.43-.46-.83-.07-1.21.22-.21.7-.44.88-.33,2.09,1.15,4.03-.47,6.06-.32.45.03,2.1-2.48,2.02-2.99-.18-1.13-.22-2.35-.71-3.33-.72-1.44-1.11-3-1.78-4.4-.77-1.63-1.42-3.31-2.22-4.92-1.29-2.59-1.36-2.69,1.34-2.87,2.26-.15,4.51-.54,6.77-.53,2.02,0,3.76-.79,5.58-1.4.52-.18.74-1.02.31-1.44-1.85-1.84-2.67-4.54-5.07-5.96-.75-.44-1.17-1.41-1.86-2.01-1.55-1.36-2.87-2.94-4.58-4.16-1.14-.81-2.54-1.61-2.96-3.19-.03-.1-.11-.21-.19-.28-2.68-2.31-4.03-5.45-5.33-8.62-.07-1.2.44-2.49-.6-3.53-.43-.79-.78-1.59-.92-2.5-.12-.79-.34-1.56-.55-2.33-.05-.2-.1-.39-.15-.59-1.58-2.31-3.11-4.66-4.75-6.93-.99-1.37-2.37-2.44-2.7-4.27-.11-.6-.77-1.1-1.22-1.62-.29-.34-.83-.57-.92-.94-.4-1.59-1-3.03-2.23-4.15-.21-2.7-2.36-4.36-3.6-6.5-1.01-1.75-1.89-3.71-3.3-5.13-1.49-1.5-1.83-3.63-3.35-5.06-.46-.44-.63-1.21-.88-1.84-.59-1.49-1.15-2.98-1.72-4.47-.01-.72-.02-1.43-.03-2.15,0,0,0,0,0,0,.23.04.44.11.64.23.1.42.37.59.79.56h0c1.7,1.66,3.31,3.36,3.69,5.88.09.57.68.9,1.31.82.56-.07,1.1-.22,1.65-.35.78-.18,1.12-.69,1.02-1.48-.05-.45-.14-.89-.22-1.34.13-1.18.38-2.37-.03-3.54.02-.44.04-.87.07-1.31.07-.78.23-1.6-.54-2.17h0c-.03-1.42.26-2.88-.77-4.1-.15-3.01-1.32-5.76-2.49-8.44-.67-1.52-1.13-3.24-2.4-4.47-.83-.8-1.52-1.7-1.99-2.75-.55-1.22-3.84-3.56-4.82-4.05-1.62-.82-3.27-1.57-4.93-2.3-.44-.19-.98-.37-1.03-.8-.23-1.94-1.58-3.48-1.74-5.51-.13-1.62-.03-3.48-1.35-4.84-.04-.88-.09-1.75-.13-2.63.18-.63-.09-1.16-.36-1.7h0c-.19-.9.05-1.94-.86-2.59h0c-.37-.68-.03-1.36.02-2.04.93-2.44.95-5.06,1.33-7.6.38-2.53,0-5.17.68-7.7.06-.21.07-.48,0-.68-.82-2.19-.49-4.5-.78-6.75-.04-1.21.43-2.5-.53-3.58-.76-3.14-1.53-6.29-2.28-9.37,1.4-.98,2.78-1.45,4.24-1.75,1.03.18,2.07.37,2.91-.53h0s.25-.01.25-.01l.24.05c.81,1,1.91.52,2.9.55t0,0s0,0,0,0c.56.4,1.09.84,1.68,1.19,1.66.99,3.59,1.69,4.95,2.99,2.06,1.98,4.12,3.95,6.39,5.69,2.17,1.66,4.02,3.69,6.38,5.13,1.45.88,2.62,2.22,4.3,2.76,1.25,1.83,3.51,2.56,4.74,4.42,2.76,1.54,4.58,3.93,6.47,6.43,2.27,3.01,4.62,5.93,6.64,9.13.53.84.85,1.9,1.83,2.42.07.41.31.66.71.75.08.54.12,1.09.65,1.41.02.43.27.65.66.75.27.49.54.99.8,1.48,0,0,0,0,0,0l-.14.2.15.19c-.08,1.07.67,1.59,1.4,2.12.04.56.05,1.13.71,1.37.03.43.29.63.69.7.1.52.14,1.08.74,1.32h0s.01.02.01.02c.21.24.47.44.62.73,0,0,0,0-.01,0,0,0,0,0,0,0l-.61-.73c0,.43.24.65.61.75.27.88-.21,1.98.78,2.64l.03.04c-.01.39.09.72.48.89.63,1.39,1.02,2.91,2.2,3.99.06.55.11,1.1.72,1.36h0c0,.41.2.66.56.79-.17,1.02-.08,1.98.74,2.73-.07.79.26,1.45.71,2.07,0,1.14,1,1.78,1.37,2.74-.02.64.24,1.15.69,1.59h0s0,.23,0,.23c-.44.39-.44.78,0,1.17,0,0,0,0,0,0l-.09.25.21.18c-.11.8-.05,1.54.63,2.1-.18,1.58.31,2.97,1.25,4.22,0,0,0,0,0,0,.02.41.05.82.07,1.23-.39.98.21,1.68.71,2.4h0s-.11.23-.11.23l.17.19c0,1.43-.02,2.85,0,4.28,0,.41.41.44.72.52l.17.21.26-.08s0,0,0,0c.85.68.97.67,1.6-.11l.03-.03c.43-.06.66-.31.68-.74.04,0,.09-.03.13-.08.43-.28.8-.59.62-1.21.23-.44.45-.88.68-1.33.2-.27.41-.53.7-.71h0c-.23.24-.47.48-.7.71.48,0,.72-.24.71-.72,0,0,0,0,0,0,.5-1.06.81-2.19,1.67-3.11.56-.61.79-1.53,1.15-2.32h0c.68-.56.78-1.3.72-2.11.56-.31.69-.83.64-1.42.93-.72.47-1.82.73-2.73.53-.3.8-.74.74-1.37.54-.65.17-1.49.45-2.19l.06-.08h0s0,0,0,0c.73-.36.74-1.05.73-1.72,0-.56-.03-1.12-.05-1.67-.03-.02-.06-.04-.09-.06,0,0,0,0,0-.01l.08.08c.8-.45.76-1.23.81-1.98.67-.52.72-1.27.72-2.03.17-.52.34-1.03.51-1.55,1-1.01.79-2.25.67-3.47.1-.19.13-.4.09-.61l-.13-.11s0-.02,0-.03c.04.05.08.1.12.15.88-.49.46-1.36.59-2.07.09-.17.17-.35.26-.52,0,0,0,0,0,0,.73-.58.78-1.36.62-2.2.91-1.25.69-2.84,1.25-4.19.38-.63.3-1.27.1-1.93.63-.79.76-1.75.87-2.71.18,0,.33-.06.43-.22.69-.25.86-.74.66-1.41.06-.19.11-.38.16-.57.95-.83.63-1.89.51-2.91.07-.18.14-.35.21-.53,0,0,0,0,0,0h0c.78-.52.67-1.04,0-1.55-.07-.18-.08-.37-.05-.57.44-.42.77-.87.51-1.52.09-.4.17-.8.26-1.2.94-.81.49-1.87.51-2.85l.21-.17-.07-.26c.69-.65.67-1.3,0-1.96,0,0,0,0,0,0l.13-.19-.14-.19c-.14,0-.26-.06-.29-.18,0-.04,0-.07,0-.11.1.1.19.19.29.29.19-.15.23-.33.13-.54.75-.6,1.15-1.28.46-2.21v-.02c.06-.67.12-1.33.19-2,.16-.27.38-.53.4-.81.11-1.35.15-2.7.22-4.05.56-.5.59-1.01.02-1.52.12-.17.13-.34.04-.53.18-.23.45-.46.46-.7.07-1.18.05-2.36.07-3.55,1-1.38,1.13-2.8.15-4.25-.09-.45-.18-.89-.26-1.34l.03-.05c1.33-.8.74-1.77.23-2.73-.11.06-.21.12-.32.17,0,0,0,0,0-.01.1-.07.21-.12.32-.16-.07-.44-.14-.88-.21-1.33.2-.45.2-.89,0-1.33-.06-2.17.43-4.39-.44-6.49-.06-.15-.11-.29-.18-.44-.07-1.41.15-2.87-.69-4.15h0c.03-1.34.08-2.67-.52-3.9-.04-.09-.08-.18-.14-.27.06-.79.15-1.59-.69-2.07.02-.69.05-1.37.04-2.06,0-.58-.1-1.14-.72-1.41.02-.22,0-.42-.11-.62,0-.26-.02-.51-.03-.77-.03-.41-.07-.83-.1-1.24.1-.41-.17-.63-.43-.87-.07-.53-.07-1.09-.63-1.4l-.13.09c.11-.18.14-.37.11-.58.61-.55.48-1.05-.09-1.52-.08-.35-.2-.68-.58-.8-.39-.84.23-2-.83-2.62h0s0,0,0,0c.06-.79.11-1.57-.59-2.15.06-.62-.13-1.11-.77-1.33-.21-.71.16-1.58-.61-2.12.07-.23.02-.42-.16-.58.03-.58.2-1.2-.52-1.52h0c-.07-.18-.14-.35-.2-.53.18-.66-.08-1.07-.72-1.28-.12-.16-.28-.24-.48-.26-.05-.75.22-1.59-.59-2.13,0-.6-.14-1.11-.77-1.34-.17-1.25-.63-2.36-1.54-3.27l-.04-.06c0-.41-.21-.64-.59-.73,0-.4-.17-.69-.55-.84-.44-1.55-1.82-2.3-2.86-3.33-.04-.56-.1-1.1-.79-1.25h0s-.06-.05-.06-.05c-.35-.54-.64-1.13-1.29-1.4v-.02c-.04-.44-.34-.61-.72-.68-.05-.39-.21-.67-.65-.7h0c.03-.2.02-.4-.04-.6h0c-.57-1.21-1.3-2.2-2.84-2.11-.25.11-.45.04-.59-.2-.19-.22-.39-.43-.58-.65-.05-.89-.84-1.58-.68-2.52,0,0,0,0,0,0,.52-.13,1.03-.29,1.35-.77,0,0,0,0,0,0,.22-.22.45-.44.67-.66l-.2-.22s.02-.07.03-.11c.06.11.12.22.17.33.23-.23.46-.46.69-.69l-.22-.23s0-.02,0-.03c.07.09.15.17.22.26.98-.17,1.76-.56,1.91-1.68.05-.37.1-.74.16-1.11.6-.33,1.48-.02,1.88-.81l.09-.09c.5-.38,1.01-.75,1.51-1.13.63.07,1-.31,1.32-.79h0c.22-.25.42-.51.75-.63,0,0,0,.01,0,.02-.25.2-.49.41-.74.61.45.04.69-.2.77-.61.38-.06.68-.22.77-.63.41-.12.52-.45.54-.83.31-.15.63-.3.94-.44.17-.05.32-.11.46-.22.91.04,1.27-.55,1.51-1.29.29-.2.58-.4.86-.6.13-.05.24-.12.33-.23t0,0h.03c.43.05.71-.12.84-.53.39-.07.63-.3.71-.69.38-.08.61-.31.7-.68.75-.2,1.23-.64,1.32-1.45.36-.11.58-.35.66-.72.39-.03.66-.21.79-.59,1.09-.33,1.75-1.05,1.98-2.16.37-.08.66-.24.74-.65.41-.08.57-.38.62-.76.4-.06.67-.26.73-.69.91-.73,1.67-1.56,2.09-2.67.39-.14.56-.44.6-.83.63-.18.76-.7.86-1.24.4-.09.62-.33.61-.76.5-.29.68-.77.78-1.3,1.29-.57,1.37-.72,1.26-2.17h0c.17-.27.35-.54.52-.81l.06-.04c.27-.16.46-.44.78-.52,0,0,0,.01,0,.02,0,0,0,0,0,0-.26.17-.52.34-.78.5.36-.03.68-.13.82-.51.42-.02.66-.24.75-.64.4-.14.54-.44.5-.86h0s.01-.02.01-.02c.62-.56,1.35-1.02,1.53-1.93.4-.1.57-.38.59-.77.65-.19.8-.68.8-1.27.36-.13.58-.38.63-.76.41-.08.66-.3.63-.75.68-.49.59-1.3.83-1.97.4-.1.59-.36.56-.79.49-.32.87-.7.75-1.35.05-.08.09-.16.13-.25.29-.59.37-1.23.44-1.88l.2-.13-.07-.23c.43-.49.57-1.09.61-1.72h0s0,0,0,0c.53-.29.79-.73.74-1.33.46-.37.76-.8.62-1.43.23-.14.26-.32.09-.53h0c.22-.74.44-1.47.65-2.21.9-.74.56-1.81.72-2.75.04-.06.08-.12.11-.18.63-.97.9-2.03.71-3.2.35-.13.5-.41.57-.76.62-.6.85-1.3.61-2.14.05-.23.1-.45.15-.68,0,0-.18.17-.18.17l-.21-.13s0-.04.01-.07c.01-.03.02-.07.03-.1.11.04.22.08.33.12.76-1.07.76-2.26.52-3.48,0-1.19,1.05-2.17.69-3.43l.2-.15-.08-.23c.44-.45.44-.91,0-1.36,0,0,0,0,0,0,0,0,.07-.15.08-.17.58-.46.66-1.1.46-1.72-.22-.65.07-1.18.22-1.75.19.02.35-.05.46-.21.92-.5.86-1.3.66-2.15.02-.19.08-.37.17-.53.87-.83.51-1.9.55-2.89.42-.85.39-1.72.16-2.61.89-.45.9-1.22.73-2.06.53-.32.72-.8.66-1.41.67-1.29,1.31-2.6,1.43-4.09.79-.83.64-1.86.56-2.86.8-.78.78-1.76.65-2.77.18-.23.2-.46,0-.7.01-1.61.02-3.22.03-4.83l.15.08c.57-.34.65-.9.64-1.48-.06-2.5-.12-5.01-.22-7.51Zm-30.21,189.21h0s-.06-.03-.09-.07c.03.02.06.04.09.07Zm-1.3,10.59s0,.01,0,.02c-.12.05-.24.09-.37.14.04-.14.16-.19.36-.16Zm22.56-219.16c.06.04.11.08.15.12l-.15-.12h0Zm-3.89-18.9c0,.14.02.26.06.37-.06-.1-.09-.22-.07-.37,0,0,0,0,0,0Zm-2.09-3.43c.03.23.12.41.27.54-.16-.12-.26-.29-.27-.54,0,0,0,0,0,0Zm-6.99-13.04c.22.23.43.46.65.69,0,0,0,0,0,0-.28-.18-.51-.4-.66-.7,0,0,0,0,.01,0Zm-1.34-1.46c.02.12.06.22.12.31-.05-.09-.09-.19-.12-.31h0Zm-18.64-15.94s0,0,0,0c-.21,0-.37-.07-.49-.19.13.11.29.17.49.19Zm-1.44-1.32s0,0,0,0c-.09-.04-.16-.1-.22-.16.07.05.15.1.22.16Zm-6.31,9.41c-.04-.36-.08-.71-.09-1.06l.23-4.68c.13-.03.24-.08.33-.16.17-.14.27-.33.32-.58l1.17-2.01h0c.94.82,1.69,1.87,2.8,2.49.2.11.41.21.63.29.09.37.33.6.69.71.08.52.15,1.06.84,1.15l.1.22.24-.03c.18.02.34.07.47.15-.14-.07-.29-.13-.47-.15.19.39.49.64.91.72.08.39.31.62.7.68.11.41.38.58.81.54-.26-.18-.52-.36-.78-.55,0,0,0-.01,0-.02.33.09.52.37.78.56l.04.02c.56.62,1.03,1.34,1.92,1.54.03.13.08.23.14.31.1.13.23.21.4.25.07.01.15.03.23.03.08.1.16.19.24.29.55.67,1.11,1.33,1.9,1.7.17.08.34.15.53.2.17.19.34.39.51.57.29.29.6.54.99.64.21.05.44.07.7.02l.19.18.25-.09c.26.25.52.5.78.74.02.13.06.26.09.38.33,1.07,1.16,1.72,2.12,2.26,0,0,0,0,0,0l.09-.1s0,0,0,0l-.1.1h0c.03.3.14.51.35.65.08.05.17.09.27.11.01.18.06.32.15.44.03.03.06.07.09.1.1.1.24.16.41.2.04.19.11.34.21.45,0,0,.02.02.03.03.11.11.27.17.46.2.08.39.34.59.7.68.02.16.05.31.1.44.13.37.39.63.73.79.16.08.33.13.52.18.03.24.05.49.12.71.05.16.13.3.26.41.1.08.22.15.38.19.07.39.31.62.67.73.02.24.09.46.18.65.1.21.24.39.4.56.26.28.58.52.9.76h0c.21.25.47.45.6.75,0,0,0,0-.02,0,0,0,0,0,0,0-.2-.25-.39-.49-.59-.74-.03.44.22.65.59.77,0,.2.01.4.05.6.05.29.15.55.4.75.04.04.1.07.15.1,0,.06.01.1.02.16.1.9.97,1.31,1.4,2,.01.02.03.04.04.06v.04s-.01.23-.01.23l.13.06.12.06c-.02.38.15.63.5.75.14.91-.15,1.95.81,2.61l.04.06c0,.16.04.3.09.44.07.18.19.33.4.42,0,0,0,0,0,.01h0c-.2.84-.12,1.59.37,2.22.11.15.25.29.41.42.13.72.05,1.51.75,2.02v.02c0,.57.07,1.11.63,1.43,0,.28,0,.55.08.79.03.1.08.2.14.3.09.14.21.26.39.37.25.65.18,1.44.85,1.91l.02.03c.17.26.42.47.59.74h0c-.2-.24-.4-.49-.59-.74,0,.42.24.63.59.75,0,.76-.04,1.55.67,2.08-.02.66.15,1.24.67,1.69l-.06.21.18.12c.21.24.45.45.59.75,0,0,0,0-.01,0-.19-.25-.39-.49-.58-.74-.06.45.17.67.56.76.09.74.03,1.53.75,2.03-.04.6.17,1.07.71,1.37.02.29.04.57.06.86,0,.01,0,.03,0,.04,0,.15.02.29.03.44.07.02.15.04.22.06.1.03.21.05.31.09.05.19.1.38.15.57.08.29.16.58.23.87.09.36.19.72.3,1.08.18.54.41,1.05.79,1.51-.05.6.09,1.1.72,1.33l.03.03h0c.06.26.1.53.15.8.13.7.28,1.38.62,2,.14.25.31.49.52.71-.03.37-.08.76-.04,1.11.04.14.08.28.11.42.1.22.26.42.53.59.59,2.82-.54,5.79.74,8.55l-.12.17.12.18-.12.16v.02s.11.18.11.18c-.09,0-.18,0-.26-.02-.45-.04-.83-.24-1.18-.59-.28-.27-.68-.42-1.03-.61-.14-.52-.3-1.01-.88-1.21h0c-.17-.62-.66-.91-1.13-1.24-.08-.05-.15-.11-.22-.17.03-.44-.23-.66-.6-.78,0-.21-.05-.4-.11-.57-.15-.39-.42-.7-.72-.99-.18-.17-.37-.33-.55-.5,0-.1,0-.19-.03-.28-.05-.2-.18-.34-.37-.42-.07-.03-.15-.05-.24-.06-.16-.37-.49-.47-.85-.52h0c-.05-.4-.25-.66-.64-.74-.05-.41-.23-.7-.69-.69-.29-.54-.83-.62-1.35-.74-.09-.4-.31-.63-.77-.55.25.19.5.37.74.56,0,0,0,0,0,.01-.29-.13-.5-.37-.75-.57l-.19-.2-.27.08h0c-.37-.08-.63-.34-.94-.54l-.06-.05c-.26-.49-.68-.72-1.14-.81-.19-.04-.38-.05-.57-.05-.08,0-.16,0-.24,0-2.38.06-4.77.14-7.15.28-.41.02-.8.35-1.19.53h-.01c-.61-.08-1,.28-1.36.7h-.02c-.42-.05-.71.11-.84.51-.52.13-1,.32-1.23.87h-.01s0,0,0,0c-.45,0-.9-.02-1.35-.02-.08-.4-.33-.59-.73-.59l-.06-.04h0c-.33-.29-.55-.47-.73-.58-.22-.13-.4-.13-.63,0-.17.1-.37.25-.66.48-.83.06-1.73-.14-2.35.66l-.22-.1-.16.18c-.64-.12-1.11.07-1.36.7l-.02.02c-.7.12-1.57-.24-1.98.71l-.07.07c-.2.03-.41.01-.6-.05h0c-.02.1-.07.2-.11.29-.03.09-.06.19-.1.27-.2.04-.4.08-.6.12-.22-.01-.44-.04-.66-.06-.39-.03-.77,0-1.09.22-.14.09-.26.22-.38.4-.56.04-1.04.22-1.39.69-.4-.01-.79-.03-1.19-.04-.15,0-.31-.01-.46-.02-.06,0-.12,0-.18,0h-.02s0,0,0,0c-.01-.03-.03-.05-.04-.07-.16-.31-.42-.41-.76-.39-.02,0-.03,0-.05,0-.2-.07-.4-.13-.6-.2-.62-.51-1.4-.51-2.14-.64h0c-1.48-1-2.98-.56-4.48-.02l-.24-.09-.16.2c-1.11-.31-2.26.33-3.36-.11.05-.2,0-.39-.14-.55,0-.16.02-.32.03-.49.05-.87.13-1.73.08-2.59-.06-1.02.25-2.14-.46-3.05-.06-.07-.1-.14-.17-.21-.18-.58-.36-1.16-.55-1.73-.04-.2-.09-.39-.18-.58l.02-.07s0,0,0,0c.35-.31.47-.7.49-1.16.04-.96.1-1.92.16-2.88.02-.35.04-.69.06-1.04,0,0,0,0,0,0h0c.73-.73.66-1.66.65-2.57-.01-.79-.08-1.59-.12-2.38.33-.7.89-1.29.75-2.18-.19-1.17.3-2.21.78-3.24.89-.84.59-1.88.51-2.89h0s0,0,0,0c1.29-4.01,2.63-8.02,3.84-12.05.26-.87.58-1.72.81-2.58,1.15-4.27,3.05-8.37,3.09-12.91.76-.75.74-1.61.65-2.49Zm35.98,55.63h0c.23.23.46.46.7.7,0,0,0,0,0,0,0,0,0,0,0,0,.21.24.43.48.64.72-.22-.23-.46-.44-.64-.72-.28-.19-.51-.42-.7-.7Zm.46,4.36s0,0,0,0c-.04-.41-.27-.64-.68-.69,0,0,0,0,0,0,.43.03.66.26.68.69Zm-23.28,5.35c-.04.21-.08.42-.13.63-.62,1.09-.7,2.28-.62,3.5-.15.05-.3.09-.45.1-.03,0-.05,0-.08,0,0,0,0,.01,0,.02,0,.04.01.09.02.13.26,1.61-.17,3.07-.97,4.46,0,0,0,.02-.01.03-.8.79-.84,1.76-.67,2.78-.04.02-.08.04-.12.07-.28.15-.43.39-.46.73h0s-.02.02-.03.02c-.86.43-.49,1.33-.72,1.99,0,0,0,0-.01,0-.41.07-.65.29-.63.74-.01,0-.02.01-.03.02-.49.27-.68.72-.77,1.24,0,0,0,.01,0,.02-.41.05-.64.28-.69.69-.05,0-.09.03-.14.04-.33.1-.5.34-.49.72,0,0-.01.02-.01.03-.61,1.37-1.83,2.21-2.78,3.29-.02.02-.03.04-.05.05-.64.33-.43.98-.57,1.5,0,0,0,0-.01,0-.36.07-.65.23-.75.61,0,0,0,0-.01,0-.54.02-.97.27-1.32.67-.01.01-.02.02-.03.03-.5-.07-.72.18-.74.65-.04.01-.07.04-.11.05-.31.14-.42.41-.47.74,0,0,0,0,0,0h0c-.37.06-.62.27-.74.62,0,0,0,0,0,0-.39.04-.78.09-1.16.13-.27.03-.54.06-.81.09-.01.63-.59.78-.94,1.12l-.32-.05-.2.25c-.41-.04-.63.17-.72.54-.54.06-1.09.12-1.4.66-.45-.03-.67.21-.76.61-.52.07-1.04.15-1.56.2-.47.04-.82.22-.99.68l-.07.07c-.38.03-.58.25-.68.6l-.03.02c-.21-.05-.41-.03-.61.06-1.48-.22-2.95-.46-4.25.59l-.86.63-.27-.09-.24.16c-.83-.21-1.59-.19-2.17.55-1.03-.14-2.01-.07-2.74.81-1.36,0-2.72.02-4.08.03-1.18.05-2.46-.4-3.47.63l-.23.17-.29-.03c-.11.06-.22.11-.33.15.11-.05.22-.09.33-.15-1.27-.19-2.57-.6-3.56.67-.42-.06-.67.13-.77.54l-.19.21-.29-.02h0s0,0,0,0c-.87-.24-1.58-.59-1.5-1.7.03-.41-.08-.84-.13-1.25.26-1.34.52-2.68.78-4.02.4-.09.59-.35.58-.76l.19.09h0c.46-.12.61-.4.47-.85h0c.05-.19.1-.38.16-.56.72-.54.57-1.35.64-2.09.82-.74.58-1.78.76-2.7.37-.08.66-.25.74-.66.63-.25.72-.8.73-1.38.82-.75,1.18-1.72,1.31-2.8.39-.09.63-.31.63-.74.53-.3.77-.76.72-1.36.52-.41.52-1.12,1.09-1.6,1.19-.99,2.23-2.2,2.4-3.88.52-.1,1.08-.14,1.25-.8h.01s0-.01,0-.01c.4-.05.63-.27.68-.68h.01c.24-.23.47-.46.7-.68h0c.42-.03.65-.26.71-.67.39-.06.66-.25.73-.66.43-.07.6-.34.59-.77-.2.25-.4.5-.6.76,0,0,0,0-.01.01h0c-.23.22-.47.43-.7.64,0,0,0,0,0,0,0,0,0,0,0,0-.23.22-.47.45-.7.67.22-.24.45-.48.71-.67.2-.26.42-.5.72-.66.15-.29.42-.5.61-.76v-.03s.01,0,.01,0c.97-.85,1.95-1.69,2.92-2.54,0,0,0,0,0,0,0,0,0,0,0,0,0,0,0,0,0,0h0c.42-.07.66-.31.75-.72.41-.14.55-.44.49-.86h0c.7-.35,1.43-.64,2.1-1.03.65-.38,1.4-.74,1.41-1.68.2-.06.4-.08.61-.08h0c0-.11,0-.22.02-.32.01-.1.03-.21.06-.31.91-.17,1.99.25,2.66-.76l.05-.03c.42.02.68-.16.76-.57.2.02.39-.03.56-.13,1.03.06,2.06.08,2.99.61,1.23.42,2.49.68,3.76.8.96.09,1.93.1,2.92.03.28-.02.57-.05.83-.15.25-.1.46-.26.61-.55l.03-.02c.54-.05,1.1-.06,1.43-.6.62-.01,1.23-.03,1.85-.03.44,0,.77-.19.98-.57.82-.13,1.69-.09,2.33-.76l.17.08.14-.14c2.19-.51,3.32-.88,3.87-.8.05.03.1.05.16.09.11.08.19.17.26.27.14.47-.05,1.43-.19,3.13-.89.5-.64,1.34-.6,2.11Zm.04.51s-.09.08-.14.12h0s.1-.08.14-.12Zm-10.2,25.62c-.04.09-.06.18-.07.29,0,0,0,0,0,0,0-.11.03-.21.07-.29Zm-25.99-23.52s0,0,0,0c.41-.05.64-.28.7-.69,0,0,0,0,0,0-.04.42-.28.65-.7.69Zm5.16.33c.06-.41.29-.64.7-.7,0,0,0,0,0,0-.4.06-.63.3-.7.7h0Zm8.35-5.9c.18-.16.35-.33.56-.44,0,0,0,0,0,0-.19.15-.38.29-.56.44Zm4.73-82.78s0,0,0-.01c.21.24.41.49.62.73,0,0,0,0,0,0-.25-.21-.5-.41-.63-.73,0,0,0,0,.01,0Zm-2.18,2.83c.24.22.49.44.65.74.3.16.52.41.73.65-.24-.22-.49-.43-.73-.65,0,0,0,0,0,0,0,0,0,0,0,0-.21-.24-.42-.49-.64-.73h0Zm-18.48-6.79s0,0,0,0c-.25.05-.44.17-.56.35.13-.18.3-.3.56-.35Zm-1.27-8.78c-.12-.09-.27-.14-.45-.16,0,0,0,0,0,0,.19,0,.33.07.45.16Zm-1.49-3.98s0,0,0,0c-.33.02-.52-.12-.65-.35.14.21.36.33.65.35Zm-.78-.64s0,.02.01.03c-.35-.04-.53-.35-.79-.53.26.17.52.33.78.5Zm-28.6,46.99h0c0,.13-.02.23-.06.32.04-.1.06-.2.06-.32Zm-2.66,8.42s0,0,0,0c0,0,0,0,.01,0-.1.19-.25.35-.39.51.13-.17.25-.33.38-.5Zm-7.01,15.09h0c0,.08,0,.16-.02.23.02-.07.02-.15.02-.23Zm-9.67,16.58s0,0,0,0c0,0,0,0,0,0,.25-.03.44-.14.57-.3-.13.18-.31.29-.57.31,0,.11-.02.2-.05.28.03-.09.05-.18.05-.28Zm-11.53,20.95s0,0,0,0c-.24.22-.48.44-.73.67.2-.27.42-.51.73-.67Zm-.72.67s0,0,0,0c-.23.23-.45.46-.68.69,0,0,0,0,0,0,.18-.27.41-.5.67-.69Zm-.67.68c-.24.23-.48.46-.72.68,0,0,0,0,0,0,.22-.25.44-.5.72-.68Zm-12.63,6.06s0,0,0,0h0c.11-.02.21-.05.3-.09-.09.05-.18.08-.3.09-.01.11-.05.21-.09.3.04-.09.07-.19.09-.3Zm-12.44,8.31c.39-.08.62-.32.7-.72,0,0,0,0,0,0-.06.4-.3.64-.7.72,0,0,0,0,0,0Zm-3.92,7.14s0,.01-.01.02c-.26.17-.52.33-.78.5.27-.16.46-.45.79-.52Zm-14.44-27.23c0,.13.04.25.09.36-.06-.1-.09-.22-.09-.36,0,0,0,0,0,0Zm-6.93-6.92s0,0,0,0c-.13,0-.24-.03-.34-.08.1.04.21.07.34.08Zm-5.01.19c.24.21.49.42.63.73,0,0-.01,0-.02,0h0s0,0,0,0c-.2-.24-.41-.48-.61-.72,0,0,0,0,0,0,0,0,0,0,0,0Zm-1.32-5.59c.24.22.47.44.71.66,0,0,0,0,0,.01-.31-.15-.53-.38-.72-.67,0,0,0,0,0,0Zm-6.23-4.83c.23.22.46.43.69.65,0,0,0,0,0,0,0,0,0,0,0,0-.29-.15-.51-.39-.69-.66,0,0,0,0,0,0,0,0,0,0,0,0Zm-.9,3.66c.13,0,.23.03.32.08-.1-.04-.2-.07-.32-.08,0,0,0,0,0,0h0c-.06-.41-.29-.63-.7-.68,0,0,0,0,0,0,.44.02.66.25.7.68Zm-1.77-5.85s0,0,0,0c-.13,0-.23-.05-.33-.1.1.05.2.08.33.1Zm-6.34-4.01h0s0,0,0,0t0,0Zm-15.42,52.79c-.17.13-.33.28-.53.35,0,0,0,0,0,0,0,0-.01,0-.02,0,.18-.12.37-.23.55-.35Zm-20.46,2.46h0s0,0,0,0h0Zm-19.29-2.85s0,0,0,0c-.11,0-.21-.04-.29-.08.09.04.18.07.29.08Zm-3.53-1.39s0,0,0,0h0s0,0,0,0c0,.01.01.02.02.03-.34-.05-.52-.35-.78-.53.25.17.51.33.76.5Zm-5.71,13.78c.7-.73.76-1.62.91-2.52.85-1.31.47-2.82.72-4.23.04-.03.06-.06.1-.1.47-.48.47-1.12.48-1.75,0-.68.18-1.28.77-1.69.02-.01.03-.03.05-.04h0s0,0,0,0h0s0,0,0,0c0,.02.02.04.03.06.35.94,1.16.78,1.92.75h0c.54.86,1.35.72,2.15.61.48.98,1.37.75,2.2.7.18,0,.36.01.55.02.67.02,1.33.04,2,.06v.02c.23.48.65.5,1.12.51,1.24.03,2.48.1,3.72.15h.03c.41.49.97.41,1.51.46.87.07,1.73.18,2.6.27h0c.24.39.46.35.66-.04h.04s0,0,0,0c.67.05,1.33.1,2,.16,0-.01-.01-.02-.02-.03,1.98.9,3.17.9,5.11-.04.57,0,1.14,0,1.7,0,.04.19.14.35.27.48h0c.04.11.09.2.13.27.29.49.66.41,1.07.04.05-.04.09-.08.14-.13h0s.31-.08.31-.08c0,0,.31.09.31.09.11.08.21.17.32.27.16.15.33.28.5.29,2.37.05,4.73.05,7.1.04.48,0,.83-.3,1.12-.67.02-.01.05-.02.07-.03.27-.13.61-.08.91-.13.09-.02.18-.06.27-.09.1-.05.2-.13.28-.26.18.03.35.03.51,0,.12-.04.25-.07.37-.11.12-.05.23-.11.35-.2.19.01.39.03.57.02.16,0,.32-.04.46-.1.16-.07.3-.19.42-.39.49.02.72-.29.89-.69.2.11.35.05.43-.16.42,0,.83,0,1.25,0,.05.01.09.02.14.03.53.13.98.03,1.29-.43.03-.04.06-.09.09-.14,0,0,0,0,0,0,.18-.03.36-.06.54-.09.21-.03.42-.07.63-.1h0c.65.14,1.22.08,1.59-.57h0s.02,0,.02,0h0c1.2-.07,1.97.41,2.22,1.65.03.13.18.23.31.33.04.03.09.07.12.1.18.28.14.64.12.99-.02.41,0,.81.49,1.04.04.02.08.04.13.06,0,.01.01.02.02.03.3.64.74.6,1.17.14.28-.3.36-.67.37-1.06,0-.14,0-.28,0-.43.09-.02.17-.05.24-.09.26-.13.41-.34.33-.71h0c.94-1.17.87-2.63,1.14-3.98.06-.29.13-.58.23-.86-.01-.23-.02-.46-.03-.69,0-.46,0-.92,0-1.38,0,0,0,0,0,0h0c.21-.13.24-.29.1-.49.3-.24.53-.53.65-.85.09-.24.11-.5.04-.78,0-.03,0-.05-.02-.08-.27-.88-.03-1.69.1-2.52.23-.19.38-.41.47-.64.22-.53.17-1.15.2-1.72.01-.25.01-.5,0-.76-.02-.6-.08-1.21-.1-1.82.2-.38.55-.75.58-1.15.1-1.45.1-2.91.13-4.37.87-1.22.52-2.62.6-3.96.06-1.03-.13-2.09.05-3.08.37-1.99.04-3.85-.63-5.71v-.15s.01,0,.01,0c.98-1.11.79-2.39.55-3.69.14-.86.22-1.71.19-2.55-.03-.8-.18-1.59-.53-2.35-.09-.21-.2-.42-.33-.62-.22-.25-.44-.49-.66-.74.17-2.58.2-5.14-.61-7.64,0,0,0,0,.01,0h0s0,0,0,0c0,0,0,0,0,0-.02-2.11-.02-2.1,2.03-1.55.43.12.88.14,1.32.21.07.29.19.53.33.74.36.54.92.85,1.51,1.12.25.12.51.23.76.36.14.39.43.57.84.57,0,0,0,0,0,0,.58.36,1.15.72,1.73,1.09.64.4,1.28.81,1.92,1.21.33.21.66.42,1,.63.04.17.12.31.22.42.03.04.08.07.12.11.1.08.23.14.38.17.03.12.08.22.14.3.06.06.12.12.19.18.12.07.27.12.45.12.11.38.36.6.77.61.25.69.86.6,1.41.64h.02s0,.01,0,.01c.2.25.45.45.62.73,0,0,0,0,0,0,0,.2.05.36.1.5.2.53.68.69,1.19.82.23.06.46.11.67.18.12.52.25,1.03.85,1.23h0s0,0,0,0c.04.43.25.67.7.65l.04.02c.28.54.8.62,1.32.73.05.39.24.66.63.76.08.2.13.42.22.6.05.1.1.19.17.25.86.75,1.75,1.48,2.63,2.2.4.33.81.66,1.21,1h0s0,0,0,0c-.06.44.09.75.55.86.27.27.54.53.81.8.14.14.29.29.43.43.27.26.53.53.8.79.07.43.37.61.75.69.06.24.14.45.25.64.13.22.3.39.52.51.19.1.41.17.68.18.32.33.43.8.6,1.23.1.27.22.52.43.73.07.07.16.13.25.19.1.44.41.59.83.56h.02c.75.76.4,2.08,1.4,2.71l.02.05h0c-.03.4.07.72.47.87.08.42.36.59.75.63.24.68.02,1.52.76,2.01-.01.63.11,1.21.65,1.63l-.11.23.19.17c-.13.49.12.73.54.85.26.48.52.96.78,1.44,0,0,0,0,0,0l-.08.28.21.2c0,.54.04,1.09.01,1.63-.03.68-.04,1.34.64,1.75l.03.05c.03.37.07.74.11,1.11.1.86.25,1.72.47,2.55.17.65.4,1.29.68,1.91,0,.34-.02.69.02,1.03.04.32.13.63.35.9.07.08.14.16.23.23,0,.08.02.15.04.22.07.26.25.42.52.49.05.01.1.03.16.04.03.04.06.06.08.1.33.36.62.38.89.2.17-.11.33-.29.49-.49l.15.12h0c.45,0,.9,0,1.35,0,.22,0,.43,0,.65,0,.39-.01.76-.09,1.06-.3.14-.1.27-.21.37-.38l-.08-.15c.42.07.67-.13.82-.5.22,0,.42,0,.62-.03.57-.07,1.05-.28,1.3-.81.07-.15.13-.33.17-.54.33-.06.63-.16.93-.26,1.13-.42,2.06-1.14,2.84-2.07.12-.15.24-.3.36-.45.23-.03.43-.1.62-.18.58-.25,1.03-.68,1.47-1.12.23-.24.47-.47.72-.68.18-.05.36-.1.53-.15.89-.28,1.71-.66,2.31-1.37.18-.21.35-.45.48-.73.42,0,.82-.05,1.18-.16.3-.09.58-.24.83-.43.28-.21.52-.47.73-.81h.01c.44.03.72-.14.78-.59.38-.12.5-.45.6-.79-.2.25-.4.5-.59.75,0,0,0,0,0-.01,0,0-.01.01-.02.02-.26.21-.51.41-.77.62.24-.23.44-.5.77-.63.12-.32.38-.52.61-.75h0s0,0,0,0c.29,0,.6.02.9,0,.38-.01.75-.09,1.01-.37.77-.84,1.84-1.4,2.51-2.34.16-.23.31-.47.41-.75h.01c.23-.22.44-.47.72-.63,0,0,0,0,0,0-.24.21-.49.41-.73.62.39-.05.65-.24.75-.62.4-.01.68-.18.79-.59.39-.09.59-.35.66-.73.14-.05.29-.09.44-.13.18-.05.34-.12.41-.24.53-.98,1.02-1.87,2.25-2.26.38-.12.68-.46.98-.83.22-.27.43-.56.66-.8.46,0,.69-.21.72-.66.36-.1.58-.36.69-.71.43-.01.7-.21.73-.66.21-.11.4-.25.59-.38.58-.42,1.03-.96,1.33-1.61.1-.21.19-.43.26-.67.26-.12.52-.25.76-.39.7-.4,1.28-.92,1.6-1.67.11-.26.2-.54.24-.87,0,0,0,0,0,0,.2-.25.44-.47.66-.71,0,0,0,0,0,0h.01c.41.02.72-.11.84-.52.13-.03.24-.07.33-.14.08-.08.15-.16.23-.24.06-.1.11-.21.13-.35.41-.11.58-.39.55-.82.5-.28.71-.75.81-1.27.4-.09.61-.34.63-.75.13-.06.23-.12.32-.19.26-.2.39-.48.41-.8,0-.12,0-.24-.01-.37.42-.37.61-.86.64-1.41.36-.12.56-.37.64-.73-.21.24-.43.48-.64.72,0,0,0,0,0,0,.18-.27.42-.48.64-.72h0c.23-.17.44-.34.66-.51,1.45-1.17,2.52-2.6,3.22-4.3.17-.4.32-.82.44-1.25.22-.04.41-.1.57-.18.35-.17.58-.45.67-.84.03-.13.05-.28.05-.44.48-.3.71-.76.78-1.31.39-.14.58-.4.5-.84l.17-.13-.06-.21h0c.41-.24.59-.59.56-1.06v-.02c.67-.47.66-1.23.86-1.91.17-.02.32-.05.45-.1.65-.24.82-.82.9-1.45.02-.17.04-.34.06-.51.37-.09.61-.31.65-.71.39-.14.53-.44.5-.84-.17.27-.33.53-.5.8,0,0-.01,0-.02,0,.07-.33.36-.53.52-.8l.03-.05h0c.49-.3.7-.75.69-1.32v-.03s.01,0,.01,0c.65-.47.69-1.22.87-1.91.15-.07.26-.15.34-.25.09-.11.15-.24.19-.39.07-.26.06-.55.09-.83.28-.28.52-.58.74-.9.42-.59.74-1.23,1.03-1.9.3-.69.57-1.4.86-2.1l.02-.04h0c.79-.47.83-1.21.74-2,.43-.41.54-.93.63-1.46.08-.48.14-.97.4-1.37.49-.75,1.29-1.32,1.18-2.29-.01-.12-.04-.25-.09-.39.27-.32.52-.64.73-.98.29-.47.51-.96.6-1.51.05-.32.05-.65,0-1.01l.17-.14-.08-.2s0,0,0,0c.31-.42.61-.85.92-1.27.11-.16.23-.31.34-.47,0,0,0,0,0,0,.87-.9.83-1.99.75-3.09,0-.11-.02-.23-.03-.34.17-.17.22-.38.15-.61.12-.09.21-.19.28-.3.21-.29.27-.63.3-.98.02-.27.02-.55.05-.82.54-.57.48-1.37.75-2.04.11-.07.21-.14.29-.22.51-.49.45-1.15.43-1.79,0-.25,0-.5.05-.73.09-.09.16-.19.23-.28.81-1.12.42-2.43.4-3.68,0-.06,0-.12,0-.18.1-.08.18-.16.25-.25.12-.15.2-.31.26-.48.07-.22.11-.46.13-.7.73-.57.55-1.4.58-2.16l.16-.15-.09-.2h0c.55-.43.51-1.03.53-1.61.01-.26.03-.52.13-.75.87-.97.66-2.12.6-3.25,0-.1-.01-.2-.01-.3.14-.21.15-.42.05-.65.17-.09.29-.18.33-.27.03-.06.03-.12.01-.17-.04-.1-.14-.2-.32-.3-.03-.68-.06-1.37-.09-2.05l.03-.05c.32-.3.53-.61.64-.91.12-.32.11-.65-.01-.98-.1-.28-.29-.55-.56-.83,0-.45-.01-.9-.02-1.36l.13.09c.17-.06.29-.14.38-.24.08-.1.12-.23.11-.38,0-.07-.01-.14-.04-.23.13-.19.15-.39.06-.6.03-1.29.06-2.59.09-3.88.04-1.58.07-3.17.1-4.75,0-.14,0-.29,0-.43.02-1.04,0-2.07-.02-3.11,0-.2,0-.4,0-.6,0-.43-.12-.82-.31-1.17-.12-.23-.27-.45-.45-.66h0c-.01-.18,0-.37.03-.55.05-.05.1-.09.14-.13.43-.43.44-.86-.02-1.27-.04-.04-.09-.08-.14-.12-.03-.44-.06-.88-.1-1.32l.13.08c.15-.13.32-.25.45-.4.01-.01.03-.03.04-.04.51-.64-.14-1.76.61-2.14.54-.27,1.25-.19,1.92-.19.14,0,.27,0,.4-.01.22-.02.44-.1.66-.15.43.08.86.11,1.3.13,1.18.05,2.38.01,3.5.65.42.24,1,.19,1.55.2.12,0,.25,0,.37.01.12.13.24.22.37.29.22.12.46.16.71.17.61.01,1.25-.19,1.82.04h.02c.8.38,1.73.44,2.55.78.39.17.76.39,1.08.76.22.25.86.24,1.27.18.41-.07.77.05,1.12.19.27.1.53.22.81.27.05.13.11.23.18.32.33.42.83.44,1.32.46.16,0,.31.02.46.04.04.14.09.26.17.35.07.09.16.17.27.21.09.03.19.05.3.04.21.37.41.73.62,1.1-.34.15-.48.43-.5.81-.1.06-.19.11-.29.17-.47.3-.81.68-.4,1.35.09.14.13.28.16.42.09.5-.15.97-.24,1.46-.4.09-.66.3-.61.76.2-.25.41-.49.61-.74,0,0,.01,0,.02-.01-.14.31-.4.51-.63.75h0s0,0,0,0c-.31.24-.51.53-.65.84-.04.09-.07.2-.1.3-.07.27-.12.55-.11.85-.15.17-.29.35-.42.53-.3.44-.52.91-.68,1.42-.08.27-.15.54-.2.83-.53.35-.75.83-.59,1.47-.21.14-.24.3-.08.5-.47.41-.66.93-.67,1.54-.69.52-.63,1.31-.73,2.04-.72.55-.64,1.35-.63,2.12-.1.18-.17.36-.23.54-.51,1.39-.48,2.85-.42,4.31-.3.47-.3.93.01,1.39-.05.42-.1.84-.15,1.26-.11,0-.2.03-.29.07-.06.03-.13.07-.18.12-.22.24-.61.47-.63.72-.2,2.8-.38,5.6-.04,8.4.05.41.34.8.52,1.2.07.2.11.4.13.61-.28,1.46-.04,2.91.23,4.34.06.3.37.57.74.32.16-.11.28-.34.32-.53.05-.21-.02-.44-.03-.66h0c.51-3.19,1.01-6.38,1.52-9.57h0c.96-1.06.5-2.35.56-3.55,0-.12.01-.25.02-.37.05-.99.1-1.97.15-2.96.25-.15.4-.33.49-.53.03-.12.08-.24.11-.36.06-.4,0-.83,0-1.25.82-1.02.75-2.23.74-3.43.3-.24.47-.51.56-.8.03-.17.06-.35.1-.52.02-.48-.07-.99-.08-1.48l.2-.17-.07-.26h0c.53-.39.73-.93.71-1.57.71-.58.5-1.4.56-2.16v-.02s.01,0,.01,0c.78-.5.69-1.27.63-2.03.22-.08.28-.23.17-.44.39-.16.7-.4.8-.83,0,0,0,0,0,0h0c.05-.07.09-.13.14-.2.53-.71.97-1.47,1.3-2.28.14-.35.27-.72.38-1.09l.21-.16-.08-.26s0,0,0,0c1.23-1.45,1.24-1.46,2.34-.57.51.41.86,1.05,1.59,1.15.31.51.84.59,1.36.7.03.13.06.26.11.37.28.74.86,1.06,1.66,1.05.1,0,.21,0,.32-.02.15.34.46.48.81.54.1.52.04,1.14.72,1.36.04.15.1.27.17.37.15.22.37.33.63.39.15.03.31.05.48.05.13.35.39.54.75.63.03.4.21.67.62.77.12.41.39.59.83.5l.19.2.26-.07c.18.38.46.61.88.67.07.41.31.61.74.56l.13.22.25-.05s.02,0,.03,0c0,0-.02,0-.03,0,.29.24.58.48.87.72.04.57.23,1.05.82,1.28.01.42.22.67.63.75.07.41.31.63.74.64.1.37.31.61.72.64l.02.02c.2.63.74.7,1.26.79.08.3.19.58.32.84.21.41.47.77.83,1.06.1.09.19.18.27.27.27.32.42.69.55,1.1-.19.18-.33.37-.42.57-.11.27-.15.55-.15.84,0,.46.06.94.01,1.39-.56.51-.5,1.19-.51,1.86-.01.78-.06,1.56-.09,2.34l-.2.18.09.25s0,0,0,0c-.63.6-.58,1.4-.66,2.17,0,.04,0,.09-.01.13-.83,1.32-.86,2.75-.58,4.23-.02.2-.07.4-.14.6-.67.61-.72,1.37-.52,2.19t0,0h0c-.8,2.97-1.6,5.93-2.41,8.9-.06.21-.24.39-.32.61-.96,2.55-1.74,5.16-2.49,7.79-.74,2.62-1.68,5.17-2,7.9-.02.2-.27.37-.35.57-.68,1.9-1.17,3.88-1.45,5.85-.2,1.45-.43,2.89-.67,4.33-.4.25-.66.62-.68,1.08-.06,1.67-.12,3.34-.12,5.01,0,.4.15.77.4,1.09.1.13.21.25.33.36.27.69.22,1.39.09,2.09h0s-.04.07-.04.07h0c-.19.1-.33.24-.4.4-.05.12-.08.25-.06.39.03.23.08.45.11.68.02.15.05.3.07.45.26,1.55.58,3.08,1.05,4.58.15.46.29.93.47,1.38l-.08.18.15.14h0c-.14.88-.91,1.37-1.31,2.09l-.04.02c-.38.01-.72.12-1.01.32-.1.09-.19.17-.29.26-.03.03-.05.05-.08.08-.02.01-.03.02-.05.04-.63.51-1.63.5-2,1.39-.04.03-.06.07-.08.11-.08.11-.13.23-.11.37-.52.11-1,.29-1.27.8-.43-.02-.69.18-.79.59-.18.03-.33.1-.44.2-.02.01-.03.03-.05.04-.11.11-.18.26-.22.44-.14.03-.26.08-.38.13-.39.17-.68.45-.87.83-.06.12-.12.25-.16.39-.38.08-.61.31-.69.69-.19.07-.36.14-.53.23-1.08.54-1.81,1.42-2.43,2.42-.17.27-.32.54-.48.82-.41.1-.57.38-.61.78-.38.1-.62.33-.68.73-.25.17-.49.36-.71.55-.41.37-.75.78-.98,1.28-.14.3-.24.62-.28.99h-.01c-.25.22-.45.48-.76.62h0c.25-.21.5-.41.76-.61-.37.06-.7.18-.78.6-.13.04-.22.09-.31.15-.24.17-.34.42-.39.69-.03.15-.05.31-.06.47-.36.11-.6.33-.66.72-.42.11-.57.4-.53.82.18-.26.36-.53.55-.79,0,0,.01,0,.02,0-.08.34-.37.53-.56.8v.02s-.01,0-.01,0c-.64.5-.75,1.22-.83,1.95-.19.14-.37.28-.55.43-.41.35-.76.74-.87,1.31-.02.09-.03.18-.03.27-.11.08-.21.16-.29.26-.14.16-.22.35-.29.55-.06.18-.11.38-.13.58-.07.06-.15.11-.22.17-.1.08-.18.15-.18.24-.02.16-.03.31-.05.47-.1.78-.29,1.5-.81,2.14-.1.12-.21.24-.34.36-.15.13-.2.36-.23.62-.04.3-.03.65-.08.94-.3.22-.55.46-.76.72-.42.53-.64,1.13-.67,1.82,0,.31.02.63.09.96-.52.31-.76.77-.7,1.38-.26.38-.49.77-.71,1.16-.49.91-.88,1.86-1.12,2.86-.12.49-.21.99-.26,1.51-1.05.87-1.21,2.15-1.19,3.33.02,1.49-.48,2.62-1.42,3.71-1.64,1.9-3.4,3.74-4.71,5.86-1.64,2.66-3.78,4.84-5.79,7.15-2.76,3.17-5.84,6.04-8.7,9.12-.7.75-1.52,1.42-2.11,2.25-.81,1.13-1.46,2.33-3.04,2.56-.38.06-.71.55-1.05.85-3.01,2.64-6.08,5.21-9.85,6.77-.5.21-.89.7-1.34,1.05-.27.21-.54.54-.83.56-2.74.2-5.01,1.97-7.7,2.28,0,0,0,0,0,0-1.29.09-3.72.87-4.74,1.53l-.04-.05h0c-1.4.16-2.91-.38-4.18.66-1.22.5-2.5.15-3.74.23-.87.06-1.85-.14-2.63-.53-.79-.4-.38-1.45-.64-2.19-1.38-3.95-2.21-8.13-4.87-11.54-.51-1.94-1.66-3.51-3.08-4.85-1.56-1.47-3.27-2.78-4.92-4.15-.17-.14-.41-.34-.58-.31-1.68.27-3.34-.77-5.01-.04,0,0,0,0,0,0-1.17-.01-2.34-.02-3.52-.04-1.96-.96-3.95-1.78-6.21-1.37,0,0,0,0,0,0h0c-.24-.24-.46-.66-.71-.68-2.35-.17-4.72-.46-6.99.55-.17.01-.34.02-.51.02,0,0,0,0,0,0-.32-.47-.58-.43-.79.08-2.28.19-3.79,1.93-5.71,2.86-5.24,2.53-9.21,6.67-12.19,11.54-1.94,3.17-4,6.41-4.9,10.12-.34,1.41-1.26,2.75-.72,4.32.07.2.03.47-.04.68-1.24,3.59.37,3.53-4,3.59-.46,0-.91.09-1.37.14,0,0,0,0,0,0-.52-.14-1.05-.24-1.57.01-.16.01-.32.02-.48.02t0,0h0c-1.93-.14-3.87-.43-5.7.52l-.3.07-.29-.1s0,0,0,0h0c-1.43-.98-2.83-.74-4.23.08h-1.33s0,0,0,0c-.17-.14-.33-.39-.52-.41-2.38-.32-4.76-.62-7.16-.21-3.83-.33-7.55-1.5-11.45-1.42-1.22.03-2.46-.45-3.69-.69,0,0,0,0,0,0-1.53-1.1-3.24-.77-4.92-.62-3.65-.66-7.36-1-10.88-2.28,0,0,0,0,0,0-.98-1.09-2.3-.48-3.45-.7-.39-.23-.75-.5-1.17-.67-2.9-1.17-4.12-3.74-5.23-6.36-.29-.67-.63-1.45.41-2.05.48-.28.36-1.09-.02-1.57-.87-1.11-1.19-2.46-1.73-3.71-.01-2.55-.02-5.11-.04-7.66,0,0,0,0,0,0h0c.05-1.61.46-3.16,1.33-4.46.65-.97,1.02-2.04,1.59-3.02.86-1.46,1.53-3.01,2.48-4.45,1.3-1.95,1.98-4.29,3.12-6.36.5-.9-.31-1.87.39-2.59Zm117.68,50.38c-1.14,1.52-.27,3.45-1.16,5.14-.86,1.65-1.45,3.48-2.29,5.18-.8,1.6-1.64,3.16-2.82,4.53-.96,1.12-1.04,2.84-2.45,3.67-1.75,3.22-4.76,5.15-7.47,7.39-1.95,1.61-4.1,2.79-6.53,3.48,0,0,0,0,0,0-2.87,0-5.74.01-8.6.02-6.57-.85-11.89-4.43-15.8-9.24-3.9-4.79-5.88-10.89-6.95-17.1.04-2.78.08-5.56.12-8.34.24-.52.58-1.02.69-1.57.64-3.4,2.22-6.44,3.6-9.55.28-.62.7-1.14,1.12-1.68,1.78-2.35,3.77-4.52,5.62-6.81.35-.44.8-.82,1.26-1.14,1.24-.83,2.37-1.78,3.37-2.89.63-.7,1.4-1.4,2.34-1.26,1.36.2,2.5-.36,3.66-.76,2.84-.98,5.58-.77,8.41.05,2.09.6,4.24,1.19,6.39,1.3,2,.1,3.51.61,4.78,2.17.82,1.01,1.24.8,1.63-.58.26-.92.82-1.15,1.34-.45,1.51,2.01,3.13,3.98,4.35,6.16,1.78,3.18,3.35,6.48,4.28,10.05,1.05,4.03,1.14,8.12,1.1,12.24Zm-125.71-71.11s0,0,0,0c-.19,0-.34-.05-.45-.14.12.08.28.13.45.14Zm-4.14-2.75s0,0,0,0c0,0,0,0,0,0,.07.4.3.63.7.68,0,0,0,0,0,0-.44,0-.66-.25-.71-.68-.09,0-.18,0-.25-.03.08.02.16.03.25.02Zm-2.39,3.1c.1,0,.19.02.27.06-.08-.03-.17-.05-.27-.06,0,0,0,0,0,0h0c-.06-.4-.29-.62-.69-.67,0,0,0,0,0,0,.43.02.65.25.7.67Zm-5.29-7.84c.21.25.42.5.63.76-.25-.22-.52-.43-.63-.76,0,0,0,0,0,0Zm-12.56,52.64h-.02c.06-1.35.24-2.73.13-4.08-.13-1.66.35-3.44-.75-4.96h-.01c.02-1.7.05-3.41.07-5.11,0-.71-.1-1.36-.72-1.82-.09-.21-.08-.4.04-.6.94-1.42.89-2.84-.02-4.26-.24-1.37.53-2.9-.68-4.11l.13-.15-.1-.17s0,0,0,0c.23-.34.46-.67.68-1.01.83-2.19.82-4.32-.04-6.28-.22-.32-.44-.63-.66-.95h0s0-.13,0-.13c0,0,0,0,0,0,.58-.62.84-1.31.63-2.19-.16-.65-.35-1.37-.24-2.01.58-3.52.21-7.05.19-10.57-.01-.95-.03-1.9-.04-2.85h0c.05-.19.04-.38-.03-.56.2-.52.2-1.03-.02-1.54.06-.17.06-.34,0-.51.2-1.48.43-2.95-.46-4.31v-1.91s.34.05.34.05c0,0,.28-.17.28-.17h0s0,0,0,0c.07.46.36.6.79.54l.27.14h.31s.04.02.04.02h0s0,0,0,0c0,0,0,0,0,0,.08.35.3.57.65.65l.03.04c0,.43.23.65.64.71h0c.05.37.19.68.56.82.05.56.34.96.84,1.22v.02h.01c-.02.44.21.67.63.74.07.41.27.66.74.62-.24-.21-.49-.41-.73-.62,0,0,0,0,0,0,0,0,0,0,0,0-.21-.24-.42-.49-.63-.73.2.25.45.46.63.73.27.18.47.43.73.62l.04.02c.29.44.7.71,1.2.86.1.57.4,1.02.88,1.35.75.52,1.65.9,2.22,1.57,1.03,1.2,2.36,1.62,3.79,1.94.12.51.34.94.88,1.14l.04.04c-.01.2-.02.4-.01.61h0c.23.03.46.05.69.08.41.05.82.1,1.24.14.3.97.88,1.58,1.98,1.5.1.35.33.58.7.66.11.39.36.6.77.61.13.37.4.53.79.49l.1.21.23-.03s0,0,0,0c.85.86,1.96,1.11,3.08,1.36.14,1.37,1.21,1.2,2.14,1.26l.05.03c.19.39.39.77.58,1.16.03.06.06.13.1.19h0c.09.02.18.03.27.05.31.05.62.1.93.15.36.46.86.62,1.41.65.11.37.4.53.75.62.18,1.09.31,2.2.56,3.28.05.21.07.42.1.63.08.63.09,1.27.05,1.9-.09,1.49-.37,2.97-.18,4.46-.88,1.16-.57,2.54-.64,3.83-.05.91-.53,1.39-1.21,1.8-.69,1.92-1.39,3.81-2.49,5.57-1.55,2.47-2.88,5.08-4.31,7.64-.03.76.08,1.57-.72,2.06-.29,1.57-.59,3.14-.88,4.7-.85,1.41-1.06,2.82-.03,4.25.25.39.5.78.76,1.17-.32.31-.63.53-.95.68-.12.01-.26,0-.42-.06-1.56-.56-3.16-.73-4.8-.42l-.05-.02c-1.48-.93-3.15-.64-4.76-.73-.65-.04-1.31.03-1.78.6-.35-.18-.7-.36-1.05-.54-.16-.18-.31-.36-.47-.53-.06-.07-.13-.15-.19-.22-.56.03-1.12.11-1.67.08-.89-.05-1.82-.02-2.64-.3-.74-.24-.39-1.49-1.25-1.81Zm7.33,3.34h0s0,0,0,0c0,0,0,0,0,0Zm8.04,80.17s.01,0,.02,0h0s0-.01,0-.02c.15.27.31.54.46.81-.12-.29-.41-.48-.48-.8Zm118.75,64.35c-.44.45-.87.9-1.31,1.35v-.03c.11-.62-.1-1.08-.7-1.33,0,0,0,0,0,0-.24-.23-.49-.46-.73-.69.06-.22.04-.43-.06-.63h0c.06-.79.05-1.56-.58-2.16-.07-.19-.11-.38-.15-.58.19-.63.12-1.16-.52-1.51-.21-.53-.38-1.09-.63-1.6-1.49-2.99-1.77-6.23-2.05-9.49-.14-1.58-.62-3.12-.94-4.69h0c.13-.44-.01-.73-.46-.85-.17-.17-.2-.37-.1-.58.87-2.53.71-5.14.5-7.74.01-.23,0-.46.04-.68.1-.55.14-1.18,1-.85,1.27.48,2.08,1.8,3.55,1.95.19.02.45.52.47.81.03.55-.02,1.13-.15,1.66-1,3.93-.88,7.83.29,11.7.52,1.73.43,3.57.96,5.33.55,1.83.69,3.78,1.01,5.67-.18.82-.17,1.59.48,2.23.17.89.53,1.78.07,2.69Zm48.23,180.55c0-.14-.02-.26-.06-.37.06.11.09.23.07.38,0,0,0,0,0,0Zm1.49,28.14s0,0,.01,0c-.14.29-.4.49-.59.74.19-.25.39-.49.58-.74Zm-1.29,6.98s0,0,0,0c-.21.25-.42.49-.63.74,0,0,0,0,0,0,.14-.31.38-.53.64-.74Zm-1.95,1.52s0,0,0,0c-.15.02-.28.06-.39.14.11-.07.23-.12.39-.14Zm-8.6,11.75s0,0,0,0c.1,0,.19,0,.26.03-.08-.02-.17-.03-.26-.03Zm69.17,15.65c-.02,1.45,0,2.83-.44,4.22-.2.63-.18,1.34-.27,2.01-1,.82-.66,1.87-.51,2.89-.02.2-.07.4-.15.59-.42.28-.53.69-.53,1.17,0,.79-.02,1.59-.03,2.38-.62,4-2.31,7.63-3.75,11.36-.82,2.12-1.55,4.24-2.78,6.15-.4.61-.85.66-1.38.12-.64-.65-1.23-1.35-1.82-2.04-.29-.35-.46-.9-.82-1.08-2.22-1.13-3.46-3.25-5.13-4.93-1.61-1.63-3.2-3.3-4.89-4.84-1.6-1.45-2.52-3.56-4.57-4.59-.32-.16-.43-.78-.6-1.2-.71-1.81-1.8-3.38-2.84-5.01-.99-1.55-1.61-3.44-2.36-5.19-.57-1.33-1.02-2.7-1.53-4.06h0c0-.67,0-1.34,0-2.01-.01-.74.08-1.52-.57-2.07-.03-.03-.05-.05-.09-.08,0,0,0,0,0,0-.03-.44-.06-.88-.09-1.31h0c.26-.21.45-.44.6-.68.39-.64.43-1.39.38-2.16,0-.14-.02-.27-.04-.41.14-.05.28-.1.41-.16.98-.45,1.61-1.26,2.1-2.2.07-.13.14-.27.2-.41.36-.1.6-.33.7-.69.14-.03.27-.08.38-.13.39-.18.64-.48.78-.86.06-.16.1-.33.13-.51.14-.08.27-.17.37-.28.41-.4.55-.94.7-1.48.09-.31.19-.62.36-.9.37-.11.61-.34.69-.72.18-.03.33-.1.44-.21.01-.01.03-.03.04-.04.1-.11.18-.26.22-.44.38-.08.61-.31.69-.68.97-.51,1.83-.3,2.62.42l.06.05h0c.24.58.74.64,1.28.63l.15.23.27-.03c.36.58.95.65,1.54.76.08.38.28.64.7.66.15.38.47.47.84.48-.26-.16-.53-.32-.79-.47,0,0,0-.01,0-.02.32.07.51.36.8.49l.07.05c.67.97,1.85.18,2.63.76h0,0s0,0,.01,0c0,0,0,0,0,0,0,0,0,0,0,0,1.91.78,3.89.98,5.93.82,1.24-.1,2.48-.15,3.72-.23.87.02,1.74.08,2.6.06.16,0,.31,0,.47-.02.8-.06,1.3.29,1.75.84.24.89-.2,1.94.66,2.68.02.05.02.1.04.15.05.14.09.28.12.43-.02.14-.03.28-.05.41-.11,1.08-.06,2.13.78,3.01.1.16.24.25.43.26,0,0,0,0,.01,0-.84,2.63-.61,5.36-.64,8.04Zm-30.84-14.26s0,0,0,0c-.39.05-.62.28-.67.67,0,0,0,0,0,0,.03-.42.26-.64.68-.67Zm2.76-4.18c.05-.39.29-.61.66-.7h0c-.38.08-.6.31-.66.7,0,0,0,0,0,0Zm1.08-1.28c.08-.04.18-.08.29-.1.07-.41.31-.65.74-.7-.42.06-.66.29-.74.7t0,0c-.11.02-.21.05-.29.1Zm35.42-2.28c-.23.23-.46.45-.69.68.22-.24.44-.47.69-.68,0,0,0,0,0,0Zm5.65-5.43c-.39.09-.61.33-.65.73,0,0,0,0,0,0,.01-.42.26-.64.65-.73,0,0,0,0,0,0Zm2.68-3.51c-.24.21-.48.43-.71.64,0,0,0,0,0,0,.21-.25.42-.49.72-.64h0Zm-.2-5.87s0,0,0,0c0,0,0,0,0,0h0Zm-30.68-56.6c.43.26.42.74.55,1.17.39,1.29.86,2.55,1.3,3.82h0s0,0,0,0c-.22.84.01,1.52.67,2.07h0c-.21,1.26-.31,2.49.59,3.55.15.77.33,1.53.44,2.31.42,2.89,1.13,5.71,2.03,8.48.31.96.55,1.94.8,2.92.25.96.19,2.02.91,2.83-.06.79,0,1.53.73,2.03v.02c.04.75-.06,1.54.69,2.05v.02c0,.58.2,1.05.67,1.39h0c-.04.59,0,1.14.65,1.42.07.95.77,1.48,1.37,2.08-.12.63-.01,1.15.67,1.4.06.55.11,1.11.73,1.35.02.42.22.68.63.76.07.4.36.58.73.66.12.8.54,1.31,1.39,1.38.1.37.37.56.72.66.06.53-.06,1.16.73,1.27l.11.21.23-.04c.57.07.88.39.95.95l-.04.23.21.1c1.13.87,2.25,1.76,3.4,2.61.17.12.43.11.65.16h0c.1.36.27.65.69.68h0s0,0,0,0c1.04,1,2.43,1.36,3.69,1.92.73.32,1.65.65,2.54.19.38.01.77.03,1.15.04.31.2.61.39.92.59.26.5.52.99.77,1.49-.41.06-.64.3-.66.72-1.09.81-1.2,2.09-1.52,3.26h0v.75s0-.01,0-.01c-.5.29-.76.73-.85,1.29-.67.58-1.16,1.27-1.19,2.2h0c-.49.45-.96.91-1.47,1.31-.47.37-.63.85-.64,1.41-.37.1-.56.36-.61.74l-.03.03c-.38.04-.63.24-.74.6-.56.03-1.1.09-1.29.75l-.04.04c-.38.03-.61.21-.58.62l-.23.09v.25s.01,0,.01,0h0c-.46.31-1,.51-1.24,1.08l-.04.03c-.62.13-.73.65-.89,1.13-1.05.02-1.84.44-2.23,1.48l-.23-.06-.13.2c-.57-.04-1.15-.12-1.45.55-.74.08-1.52.06-2.07.7-.62-.06-1.01.3-1.35.75-.67.02-1.35.05-2.02.07-.64-.25-1.14-.04-1.52.5h0s.08.1.08.1c-.23-.12-.44-.1-.64.06-3.2-.05-6.39-.11-9.59-.16l-.07.1c-.8-.72-1.77-1.08-2.78-1.37-.25-.59-.76-.72-1.32-.75-.11-.35-.33-.59-.69-.69-.02-.4-.21-.68-.63-.75-.13-.4-.42-.55-.84-.5-.19-.24-.41-.29-.68-.15h0c-.44-.22-.89-.44-1.33-.67-.95-.69-1.9-1.28-2.92-.1l.08.19c-.39-.01-.71.1-.86.5-1.09.35-1.68,1.2-2.15,2.17l-.28-.04-.17.22c-.25.18-.48.37-.72.56-.19.27-.43.49-.65.72h0c-.38.09-.59.32-.6.72l-.05.07h0c-.5.23-.77.63-.88,1.15-.4.1-.6.36-.59.79-.5.27-.71.74-.83,1.26-.38.1-.57.37-.62.74-.82.27-1.54.68-1.99,1.46-.95.05-1.48.76-2.11,1.33-.69-.19-1.38-.23-2.07.03h0c-1.91.08-3.81.15-5.72.25-.17,0-.33.28-.5.42h0c-.89.42-1.78-.17-2.67,0-1.3-.82-2.75-.7-4.19-.61l-.15-.18-.22.09s0,0,0,0c-.89-.81-2.05-.43-3.06-.66,0,0,0,0,0,0-.14-.07-.29-.12-.44-.16-1.2-.44-2.4-.87-3.6-1.31-.11-.41-.38-.59-.82-.54h-.02c-.32-.49-.79-.7-1.36-.69h-.02c-.3-.57-.81-.67-1.37-.66l-.04-.02c-.29-.49-.72-.74-1.28-.77-.23-.58-.74-.71-1.27-.8-.3-1.24-1.48-1.73-2.24-2.58h0c.05-.44-.13-.71-.53-.83.02-.21-.04-.41-.17-.57h0s0,0,0,0c.05-.41.11-.82.16-1.23.5-.11,1.1-.02,1.31-.68l-.08-.2c.44.06.87.12,1.31.18.99,1.02,1.94.64,2.88-.09,0,0,0,0,0,0,.47-.19,1.07-.15,1.31-.74l.03-.02h0c.4.02.69-.14.83-.51.54-.07,1.03-.23,1.37-.7.44,0,.66-.24.76-.63.52-.13,1.03-.26,1.29-.8.45-.05.63-.33.63-.76.64-.62,1.18-1.51,1.94-1.77,1.27-.44,1.5-1.55,2.13-2.41l.03-.02c.94-.34.73-1.49,1.42-2.01h0s0,0,0,0c.69-.27.77-.81.61-1.44h0c.09-.18.15-.36.17-.56.59-.37.71-.89.52-1.52.08-.19.11-.39.1-.6.84-.88.84-1.97.77-3.07-.06-.87-.18-1.73-.27-2.59.29-1.2.55-2.41-.42-3.44l-.13-1.31c.48-.45.74-.91.06-1.4-.05-.77.12-1.6-.58-2.19.11-1.1.14-2.19-.23-3.26.22-1.05.02-2.05-.42-3.01h0c-.12-.72-.23-1.43-.86-1.92-.16-.56-.14-1.2-.65-1.61h0s.07-.27.07-.27l-.21-.17c.06-.58-.15-1.05-.58-1.42.05-.49-.2-.77-.64-.93,0-.34.13-.77-.03-1-1.17-1.67-1.2-3.84-2.53-5.45-.41-.5-.55-1.23-.79-1.86-.24-.64-.31-1.37-.67-1.92-2.37-3.51-3.42-7.62-5.28-11.36-.3-.61-.5-1.28-1.16-1.62h0c-.43-.72-.86-1.43-1.29-2.15-.68-1.03-1.25-2.12-1.58-3.32.06-.41.16-.81.17-1.22.01-.47.19-.78.63-.94,1.42,2.07,2.72,4.23,4.59,5.96,1.57,1.45,3.02,3.03,4.78,4.27.46.33.89.72,1.27,1.13.8.86,1.62,1.61,2.9,1.64.32,0,.75.16.92.39,1.52,2,3.98,1.98,6.01,2.88,1.02.46,1.91.11,2.94-.07,2.79-.5,4.07-2.25,4.86-4.68.84-2.61,1.8-5.18,1.51-8.01-.13-1.29.34-2.53.85-3.66.6-1.32-.17-2.96,1.06-4.08,1.16.7,2.28,1.49,3.49,2.07,1.74.83,3.6,1.43,5.32,2.3,1.19.6,2.56-.25,3.65.64t0,0h0c1.54.91,3.14.91,4.76.25.09-.04.13-.18.19-.28.85-.2,1.71-.4,2.67-.63.82,1.01,1.19,2.42,2.4,3.16Zm-2.43-37.52c1.07-.32,2.24-.54,2.85-1.68.47-.29.89-.61.8-1.26l.02-.03s.25.12.25.12l.24-.15h.01c.02.48.31.65.74.64,3.21,3.03,6.42,6.05,9.63,9.08.26.25.41.55.15.88-.14.17-.32.33-.51.42-.55.24-1.12.23-1.67.02-1.13-.43-2.26-.14-3.39-.03,0,0,0,0,0,0-1.25-.02-2.5-.04-3.75-.06-.72-.01-1.35.14-1.76.8-.38.43-.73.89-1.15,1.27-1.17,1.06-1.45,2.09-.57,3.61.94,1.62.93,3.62,2.24,5.24,1.1,1.37,1.51,3.29,2.23,4.97h0c-.1.79-.33,1.61.53,2.16.13.19.15.39.05.6-1.14.03-2.29.06-3.43.09-.39-.19-.82-.58-1.18-.53-1.11.16-2.22.41-3.27.79-.48.17-.91.66-1.22,1.11-.3.43.14.81.34,1.2.51,1.01-.8.82-.94,1.41h0c-2.02-.2-4.04.56-6.06.03-2.8-.95-5.5-2.05-7.95-3.77-1.18-.82-2.63-1.26-3.99-1.8-.58-.23-1.13.06-1.44.61-1.3,2.36-2.69,4.64-2.62,7.55.04,1.67-.54,3.35-.84,5.02h0c-.45.08-.65.32-.51.78-.95,1-.76,2.24-.71,3.44-.02.11-.05.22-.07.34-.54,3.41-2.01,4.48-5.1,3.45-1.38-.46-2.76-1.13-3.93-1.99-2.74-2.01-5.32-4.21-7.7-6.69-1.8-1.87-3.13-4.13-5.12-5.84-.68-.58-1.32-1.24-2.06-1.76-2.61-1.86-4.6-1.69-6.99.57-1.32,1.25-2.58,2.56-3.9,3.81-3.21,3.04-6.58,5.89-10.29,8.31-.4.26-.85.31-1.19-.16,0-2.33,0-4.66,0-6.99l.19-2.62c1.03-1.58.6-3.3.46-4.99.06-.42.13-.84.19-1.26.98-1.28.68-2.79.59-4.19-.06-1-.2-1.98.03-2.97.25-1.11.03-2.22-.1-3.32,0-.43.02-.86.03-1.29.15-2.14.32-4.28-.52-6.34-.47-1.81-.12-3.64-.17-5.46-.02-.84.38-1.52.94-2.15,2.71-2.99,4.6-6.5,6.35-10.1.64-1.32,1.23-2.66,1.91-3.95.38-.73,1.12-.71,1.62-.06.49.64.95,1.28,1.04,2.13.05.44.26.86.37,1.3.39,1.6,2.1,2.37,2.47,3.99.39,1.74,1.56,3.05,2.57,4.44.94,1.29,1.89,2.59,3.02,3.7,1.94,1.91,4,3.69,6.04,5.49,1.28,1.13,2.36,2.51,4.06,3.13.74.27,1.38.75,2.18.94.87.21,1.92.5,2.45,1.13,1.32,1.54,2.87,1.47,4.38.8,1.47-.65,2.41-1.92,2.84-3.58.43-1.66.77-3.32.82-5.04.39-.31.5-.74.5-1.21,0-2.17,0-4.35,0-6.52.14-1.24.28-2.49.41-3.62.65-.46.86-.04,1.22.24,3.2,2.41,6.56,4.58,10.27,6.15,1.49.63,3.11.66,4.7.77,0,0,0,0,0,0,2.07,1.01,3.01,1.02,5.02.08,2.52-.02,4.98-.48,7.39-1.2Zm-39.1-91.28c.61.33,1.06.1,1.58-.15,1.73-.81,3.35-.43,4.91.51,3.37,2.05,6.15,4.58,7.31,8.55.74,2.51,1.68,4.97,2.53,7.45.02.9.02,1.8.07,2.7.02.42,0,.81-.25,1.08-.12.1-.26.19-.43.28-.92-1.08-2.11-1.7-3.47-2.05h0c-.89-.95-2.08-.72-3.18-.76-.5-.02-.79.38-.95.83-1.67,1.68-3.63,1.93-5.69.95-1.55-.74-3.27-.7-4.84-1.49-1.42-.71-3.09-1.33-3.99-2.45-1.38-1.73-2.9-3.55-3.29-5.91-.09-.55-.15-1.22-.49-1.6-.77-.86-.74-1.43.07-2.3.79-.85.49-1.99-.14-2.87-.78-1.08-.49-2.22-.32-3.32.26-1.68,1.66-2.22,3.36-1.78,1.41.37,2.09,1.82,3.51,2.05,1.23.21,2.52-.39,3.7.25Zm-3.05-16.09s0,0,0,0c-.06.42-.08.84-.08,1.25,0,1.19.25,2.36.67,3.46.74,1.95.63,4.03,1.2,5.99.08.26-.07.72-.27.91-1.12,1.06-2.7.96-3.55-.19-.27-.37-.44-.81-.73-1.17-.96-1.18-2.11-1.75-3.61-.98-1.11.58-2.4.95-3.31,1.76-1.27,1.14-2,2.71-2.05,4.51-.05,1.96.36,3.87.77,5.77.03.98-.42,2.06.57,2.85.09.2.09.41-.02.6-.9,1.21-.9,1.22.02,2.17,1.08,1.33,1.21,3.08,2.03,4.54.4.71.63,1.4,1.43,1.8.38.19.67.6.93.96,1.65,2.34,3.68,3.99,6.74,3.95.67,0,1.35.25,2.02.4,1.46.33,2.91.62,4.39.1.78-.27,1.58-.19,2.38,0,.72.18,1.43.59,1.48,1.27.14,1.87,1.9,3.12,1.78,5.07-.03.52.29,1.12.58,1.6,2.9,4.76,4.96,10.04,8.83,14.19.15.16.32.34.4.54,1.31,3.58,3.58,6.59,5.68,9.7.48,3.09,3.26,4.85,4.42,7.61.82,1.96,2.5,3.56,3.78,5.32,1.18,1.62,1.73,3.44,1.69,5.58-1.58-.48-2.86-1.09-3.62-2.48,0-.1-.02-.19-.03-.29-.09-.5-.4-.91-.9-.84-.78.11-.47.85-.35,1.32.04.14.1.28.17.42.13.25.3.48.44.73.55,1.5.92,3.1,1.68,4.49,1.68,3.09,2.76,6.52,5,9.31.27.34.39,1-.2,1.11-3,.58-5.87,1.92-9.03,1.57-1.47-.17-3-.25-4.3-.97-2.86-1.57-5.93-2.76-8.47-4.94-1.26-1.08-2.63-2.19-4.43-2.5-.64-.11-1.2-.65-1.93-.24-.79.44-1.52.83-2.02,1.73-.93,1.68-1.18,3.47-1.13,5.29.04,1.71.21,3.41-.05,5.11,0,0,0,0,0,0-.19.4-.53.79-.55,1.2-.07,1.47-.02,2.94-.02,4.42-.04.57-.06,1.15-.11,1.72-.14,1.49-.77,1.84-2.07,1.56-1.1-.24-2.42-.56-3.11-1.33-1.27-1.4-2.89-2.22-4.39-3.2-3.92-2.58-6.52-6.32-9.31-9.92-2.6-3.36-4.14-7.33-6.27-10.96-.17-.28-.23-.65-.26-.98-.18-1.81-1.26-2.48-2.97-2.61-2.02-.15-2.23-.04-3.15,1.79-.75,1.48-1.79,2.79-2.37,4.4-.54,1.49-1.36,2.88-2.13,4.28-.82,1.5-1.6,3-2.59,4.42-.68.96-1.75,1.58-2.26,2.52-1.08,1.99-3.03,2.99-4.54,4.46-.63.62-.97.43-1.34-.66-.11-.32-.17-.67-.25-1,.03-1.68.71-3.42-.49-4.98-.07-.17-.07-.34,0-.51.75-.57.48-1.02-.18-1.42.26-2.74-.62-5.34-1.25-7.93-.59-2.43-.78-4.84-.84-7.3-.02-.68,0-1.37,0-2.05h0s0,0,0,0c.19-1.03.21-2.02-.56-2.86-.07-.2-.07-.41,0-.61.51-.28.48-.52-.04-.74h0c.2-.49.2-.96-.08-1.42.01-.19,0-.38-.03-.57.25-.82.42-1.62-.43-2.23-.1-.17-.12-.36-.07-.55.52-.49.75-.99.02-1.5-.08-.64-.16-1.28-.24-1.91.33-.98.14-1.96,0-2.95.04-1.88-.49-3.75-.47-5.58.02-1.79.05-3.57-.07-5.36.22-.39.61-.78.62-1.17.04-1.71-.04-3.43-.08-5.15.06-.19.05-.37,0-.55.2-.48.29-.97.09-1.47.05-1.36.1-2.72.15-4.08h0c1.09-1.76.71-3.56.13-5.37-.03-.09-.17-.14-.26-.2-.04-.11-.11-.22-.1-.32.37-3.29.24-6.54-.41-9.79-.28-1.41-.16-2.91-.23-4.36.28-1.14.1-2.28-.04-3.42-.06-.46.03-.87.35-1.16.08-.08.19-.14.31-.2.02,0,.05.01.07.02.18,1.72.85,3.3,1.59,4.82,1.12,2.28,3.45,2.55,4.81.51,1.26-1.89,3.08-3.28,4.34-5.15.43-.64,1.26-.58,1.67.1.58.97,1.13,1.97,1.6,3,1.01,2.16,2.98,2.99,5.03,3.75,1.08.4,2.15.05,2.96-.48,1.76-1.15,2.78-2.98,3.66-4.86.02-.05-.11-.22-.19-.25-.2-.06-.47-.17-.62-.09-.68.4-1.33.85-1.99,1.29-1.36-.01-2.72-.03-4.08-.04h0c-1.06-1.03-2.39-1.87-2.97-3.27-.62-1.51-1.7-2.68-2.55-4.01-.41-.64-.72-1.1-1.53-1.05-.92.05-1.89.02-2.36,1.04-.59,1.28-1.51,2.26-2.5,3.23-.56.55-.89,1.33-1.32,2-1.27.37-1.18-1.07-1.9-1.42-.05-.2-.09-.4-.14-.6.06-.78.19-1.58-.54-2.17h0c-.08-.18-.14-.37-.17-.57,0-1.7,0-3.39-.04-5.09-.01-.67.05-1.38-.55-1.89-.08-.64-.13-1.29-.27-1.92-.18-.8-.58-1.01-1.46-.74-.39.12-.71.46-1.06.7-.27.04-.48-.04-.65-.17-.26-.19-.46-.48-.74-.64-.03-.14-.06-.29-.09-.43-.01-.06-.02-.11-.04-.17.02-.05.03-.09.04-.14,0,0,0,0,0,0,.22-.71.17-1.35-.35-1.88-.06-.06-.12-.12-.19-.18-.04-.18-.04-.36-.01-.54,0,0,.01,0,.02-.01.46-.29.41-.56-.07-.79-.05-.2-.11-.4-.23-.56-.08-.11-.19-.2-.35-.26-.42-.83-.64-1.62.34-2.31.21-.15.21-.61.31-.92,0,0,0,0-.02.01.11-.49.26-.96.42-1.44.38-1.1.8-2.19.75-3.39.07-.8.18-1.6.19-2.4.02-.91.04-1.86-.73-2.55-.05-.23-.06-.46-.08-.7-.05-.5-.13-.98-.7-1.27h0c-.21-.97-.41-1.93-.62-2.9-.03-1.33-.04-2.66-.08-3.99-.02-.57-.21-1.09-.68-1.46-.64-1.07-.38-2.31-.69-3.45.21-1.46.21-2.9-.56-4.23-.04-1.13-.12-2.26-.1-3.39.02-1.19.88-1.67,1.83-1.04,3.15,2.09,6.6,3.39,10.33,4,.55.09,1.07.36,1.61.55,0,0,0,0,0,0h0c3.02.99,6.03,1.23,9.04-.06.53-.2,1.03-.45,1.64-.2.3.12.82.24.98.09,1.55-1.5,3.73-.58,5.46-1.65,1.27,2.2,1.51,4.64,2.49,6.78.99,2.17,2.16,4.26,3.22,6.41,1.06,2.15,2.62,3.97,3.94,5.94.07.33.03.74.22.96.43.51.77,1.06,1.07,1.63.46.88.82,1.81,1.21,2.73.12.28.29.55.48.8.19.27.4.53.59.81,0,.17.05.29.11.39.05.07.1.13.17.17.12.07.27.12.45.13.06.11.11.21.16.31.71,1.33.88,1.47,2.07,1.27.12-.02.26-.04.41-.07.2.89.08,1.88.84,2.59Zm-30.3-44.32c.01-.44.03-.87.04-1.31.86-.83.47-1.89.54-2.87,1.86-.2,3.32.4,3.74,1.7.48,1.49.82,3.02,1.22,4.54-.2,1.46-.27,2.91.59,4.22.81,1.31.04,2.86.76,4.44-1.21.29-2.2,1-3.45,1.03,0,0,0,0,0,0-.24-.2-.47-.54-.74-.59-.84-.14-1.33-.52-1.46-1.41-.04-.27-.38-.5-.59-.75-.02-.9-.04-1.81-.06-2.71,0-.26-.02-.52-.02-.79.02-.19,0-.37-.03-.55.21-1.03.48-2.07-.5-2.9-.1-.2-.11-.4-.04-.61.55-.48.56-.96,0-1.44Zm29.62,21.47c.68,1.69-.32,3.4.08,5.09-.91,2.13-.68,4.51-1.43,6.67-.11.31-.27.64-.7.48-.2-.08-.51-.22-.54-.37-.36-2.23-2.17-3.63-3.12-5.53-.97-1.95-2.02-3.86-3.09-5.75-.52-.91-.86-1.84-1.15-2.84-.44-1.52-1.07-3.01-1.58-4.51-1.48-4.33-1.67-8.73.77-12.87.69-1.17,1.5-2.25,3.04-2.48,2-.29,3.16.63,4.12,2.29,2.17,3.75,2.66,7.89,3.05,12.08.15,2.58-.74,5.24.54,7.74Zm53.89-4.17c.44,1.61.12,3.19,0,4.78-.57.49-.74,1.11-.67,1.85.15,1.47.4,2.96-.53,4.31-1.51-2.44-3.39-4.58-5.53-6.44-.87-.76-1.65-1.59-2.36-2.44-2.09-2.49-4.66-4.39-7.37-6.08-.93-.58-1.35-1.54-2.23-2.07-3.49-2.11-6.13-5.34-9.69-7.37-.75-.43-1.16-1.45-1.91-1.9-2.83-1.71-5.08-4.13-7.75-6.05-.67-.48-1.29-1.06-2.1-1.08-1.64-.03-3.12-.71-4.68-1.04h0s0,0,0,0c-1.51-1.01-3.18-.82-4.84-.6-.25.03-.45.46-.67.7-1.58.08-3.04.4-4.39,1.36-.99.7-2.17,1.1-3.55.8-3.46-.75-6.28.11-8.64,2.38-1.99,1.91-3.12,4.43-4.66,6.65-.38.55-.15,1.55-.17,2.34-.01.56.05,1.12,0,1.67-.01.13-.34.3-.53.32-.18.02-.52-.08-.55-.2-.18-.65-.35-1.32-.4-1.99-.1-1.48-.17-2.97-.76-4.36h0s0,0,0,0c.02-.85.05-1.69.04-2.54,0-.46-.26-.78-.68-.97-.88-1.03-.17-2.69-1.41-3.58-.29-1.77-1.42-2.64-3.1-2.98-.31-.06-.59-.31-.88-.47h0c-.43-.6-1.04-.69-1.71-.62-.64.07-1.28.12-1.93.17-.41,0-.82,0-1.23,0t0,0h0c-.47-.11-.7.1-.75.56-.45.47-.9.94-1.35,1.41-1.05,1.25-.9,2.7-.67,4.16-.02.19,0,.37.05.55-.05,1.14-.14,2.28-.14,3.41,0,.78-.07,1.64.77,2.14-.22,1.68.67,3.2.72,4.84-.08.99-.51,1.59-1.62,1.48-.42-.04-.85-.01-1.27-.02-.76-.23-1.59-.02-2.32-.53-.55-.38-1.22-.67-1.88-.83-4.55-1.06-8.26-3.76-12.11-6.17-.29-.18-.62-.36-.81-.62-2.16-2.94-5.02-5.3-6.94-8.47-1.11-1.83-2.57-3.46-4.18-4.92-.14-1.16.29-2.44-.7-3.43-.18-.29-.32-.62-.55-.86-.41-.42-.96-.78-1.44-.18-1.16,1.45-2.95,2-4.33,3.13h0c-1.35.02-2.71.03-4.06.06-.56.01-1.13.05-1.5.59l.03.04c-.47.05-.94.1-1.41.16-.42,0-.84.02-1.26.03h0c-2.62-.25-5.24-.58-7.78.47-1.51.51-3.19.08-4.65.88h0c-1.22-.02-2.51-.41-3.56.58-2.1.34-3.65,1.72-5.35,2.82-1.67,1.08-2.78,2.65-3.69,4.4-.72,1.39-1.83,2.49-2.01,4.24-.16,1.54-1.92,2.61-3.61,2.45-2.03-.19-4.05-.58-6.05-.99-1.21-.25-2.38-.72-3.57-1.09t0,0c-1.47-1.11-2.06-1.15-3.53-.23-.18.03-.34.1-.48.21,0,0,0,0,0,0h0c-.82-.14-1.7-.53-2.21.56-2.12,1.2-8.28,5.83-8.91,7.37-.87,2.11-3.04,3.07-3.86,5.18-.78,2-1.95,3.85-2.93,5.78-.15.3-.27.69-.62.61-.29-.06-.71-.35-.76-.6-.42-1.99-1.71-3.62-2.1-5.69-.37-1.94-1.38-3.89-2.55-5.53-1.78-2.5-3.38-5.08-4.86-7.76-.22-.4-.37-.96-.72-1.15-1.99-1.11-2.42-3.24-3.32-5.04-.35-.71-.67-1.42-1.07-2.11-1.88-3.25-3.55-6.6-4.95-10.09-.24-.61-.75-1.11-1.14-1.67-.08-.76-.06-1.55-.77-2.07,0-.58-.13-1.1-.64-1.46-.25-.5-.38-1.05-.5-1.6-.06-.28-.13-.57-.21-.85-.16-.54-.38-1.06-.8-1.49l-.04-.07c0-.37-.12-.68-.47-.85,0-.6-.25-1.03-.82-1.26-.07-.38.02-.81-.01-1.2-.02-.18-.06-.36-.16-.52-.09-.15-.24-.29-.47-.4-.08-.74.05-1.56-.64-2.11.02-.3.01-.59-.04-.86-.04-.2-.1-.4-.19-.58-.11-.22-.27-.43-.5-.61.04-.61-.22-1.04-.75-1.33,0-.36.05-.73.02-1.09-.02-.26-.08-.5-.23-.72-.09-.12-.2-.24-.36-.34,0-.23.01-.45,0-.67-.02-.41-.11-.81-.36-1.15-.08-.1-.17-.2-.28-.29-.03-.28-.06-.55-.11-.82-.06-.2-.12-.41-.18-.61-.09-.22-.22-.43-.41-.63,0-.34,0-.69-.03-1.02-.02-.25-.05-.49-.11-.73-.11-.43-.3-.85-.65-1.21l.1-.2-.16-.16c-.03-.15-.05-.3-.07-.45-.14-1-.15-2.04-.8-2.87-.11-.14-.25-.28-.41-.41.05-.18.13-.36.15-.54,0-.07-.12-.15-.18-.22,0,0,0,0,0,0,.62-.61.54-1.19-.09-1.73.01-1.4.33-2.86-.73-4.07l-.03-.05c-.04-.74-.08-1.49-.15-2.22-.06-.6-.17-1.19-.33-1.77-.17-.61-.41-1.21-.76-1.79l.08-.28-.21-.19c.25-1.34.16-2.67-.09-4h0s0-.06.01-.09c.12-.98.23-1.95-.45-2.8-.01-.02-.02-.04-.04-.05-.06-.2-.09-.41-.1-.62.01-.04.02-.08.04-.12.14-.47.07-.86-.29-1.13-.1-.07-.21-.14-.35-.2,0-.44-.02-.88,0-1.32.05-1.22.11-2.44-.75-3.46v-.02c.06-1.22.17-2.44-.55-3.53.04-.51.04-1.1,0-1.7-.01-.21-.03-.41-.04-.62-.08-.94-.24-1.83-.44-2.37-.03-.07-.14-.11-.23-.16.03-.24.05-.49.07-.73.03-.43,0-.85-.17-1.27,0,0,0,0,0-.01,0,0,0,0,0-.01.12-.42.14-.83-.02-1.24-.02-.06-.04-.13-.08-.19.05-.18.04-.36-.03-.54.02-.07.04-.13.06-.2.11-.42.09-.81-.2-1.12-.08-.08-.17-.16-.29-.23l-.16.09c0-.47,0-.93,0-1.4l.16.09c.11-.08.2-.17.28-.25.32-.33.33-.66.03-.98-.09-.1-.21-.2-.36-.29l-.16.08c.01-.68.02-1.37.04-2.05,0-.06,0-.12,0-.18-.13-2.41.54-4.87-.37-7.24-.03-.08-.06-.17-.1-.25-.07-.55-.26-1.23.6-1.25,1.04-.03,2.09-.04,3.13-.06.88-.01,1.77-.02,2.65-.03.58,0,1.16,0,1.73-.02,2.57-.16,5.08.24,7.6.68l.14.16.2-.09s0,0,0,0h0c.57.23,1.14.45,1.7.68h0c.75,1,1.52,1.98,2.25,3,.26.36.63.81.58,1.18-.25,2,1.12,3.46,1.8,5.07.85,2.01,2.87,3.18,4.95,3.98,3.29,1.27,6.69,2.2,10.09,3.12.76.21,1.59.18,2.39.26,0,0,0,0,0,0,1.77,1.03,3.7.69,5.6.64v-.02c.77.95,1.88.68,2.85.73,1.36.08,2.72,0,4.08-.02,2.75.48,5.49.95,8.24,1.43h0s0,0,0,0c.42.62,1.06.67,1.72.65,1.08-.02,2.15-.05,3.23-.08.18.06.36.1.55.13,0,0,0,0,0,0,2.54.76,5.12.87,7.74.55,1.32-.02,2.65-.04,3.97-.07,0,0,0,0,0,0,2.38.09,4.78.55,7.07-.55,1.36-.23,2.71-.5,4.07-.69,1.6-.21,2.17.2,2.26,1.78.24,4.05,1.44,7.8,3.18,11.44.78,1.65,2.12,3.02,2.44,4.9.02.1.1.21.18.29,2.33,2.63,4.44,5.47,7.18,7.71.44.36.91.82,1.43.92,1.89.39,3.08,1.95,4.72,2.72h0c.3.7.85.75,1.49.59.55.71,1.34.65,2.11.65,3.68,1.76,7.97,2.12,12.57.86,5.03-1.37,9.4-4.05,13.11-7.63,1.37-1.32,2.95-2.64,3.88-4.26.92-1.61,2.22-2.86,3.15-4.39.58-.95.77-2.16,1.4-3.07.77-1.11.92-2.46,1.89-3.55.82-.93,1.36-2.36,1.13-3.88,2.63-.55,5.08-1.09,7.54-1.56,1.83-.34,3.61-.26,5.4.45,4.07,1.62,7.93,3.53,11.09,6.66,1.63,1.61,3.3,3.19,5.12,4.57,1.17.89,1.48,2.65,3.18,2.96.21.04.35.55.47.86.25.64.45,1.28.98,1.79,2.71,2.55,4.11,6.03,6.34,8.92,4.35,5.65,9.06,10.69,16.7,12.04,3.03.53,5.92,2.28,8.31,4.47,0,0,0,0,0,0,.26.6.79.7,1.36.72-.05,1.05.6,1.29,1.48,1.27.77.89,1.68,1.52,2.81,1.91,2.65.92,4.36,2.84,5.52,5.32.44.93.84,1.91,1.46,2.72,1.06,1.38,1.26,3.04,1.74,4.6.44,1.42.67,2.9,1.13,4.3.67,2.05,1.33,4.09,1.24,6.3-.02.42.31.85.48,1.27.04.69.09,1.38.13,2.06-.01.18,0,.36.07.53h0s0,0,0,0c-.16.43-.02.72.4.89.08.17.1.35.05.54-.58.73-.69,1.46,0,2.19.04.19.1.38.19.55-.11,1.9-.59,3.85.59,5.61l.07-.04s0,0,0,0c0,.25.01.51.02.76h0c-.1.21-.11.42-.03.63-.34,3.03.08,6.05.14,9.07-.36.63-.46,1.35-.28,2.01Zm2.67,23.67c-.04-.4-.26-.64-.66-.73h0c.39.09.65.3.66.73,0,0,0,0,0,0Zm3.58,6.08h0c-.23-.23-.45-.45-.68-.68,0,0,0,0,0,0,.27.18.5.41.68.68,0,0,0,0,0,0Zm3.69.49s0,0,0,0c.03.41.25.65.65.74-.39-.09-.65-.31-.65-.74Zm7.98,28.64s0,0,0,0c.08.04.14.09.2.14-.06-.04-.13-.09-.2-.13Zm20.88-63.7h0c-.21.26-.6.53-.59.78.01.35,0,.7-.04,1.06-.1,1.01-.29,2.02-.02,3.03,0,0,0,0,0,0-.04.66-.08,1.31-.12,1.97,0,0,0,0-.01,0-.18.03-.35.05-.53.08-.01,0-.02.01-.04.02.01.01.03.02.04.04.04.64.23,1.33.05,1.9-.45,1.42-.25,2.82-.14,4.23l-.19.14.08.22s0,0,0,0c-.48.46-.66,1.04-.67,1.68-.08.13-.15.27-.19.41-.5,1.16-.53,2.42-.57,3.67-.33.26-.41.62-.43,1.04-.03.59-.14,1.17-.21,1.76-.73.55-.67,1.33-.63,2.11-.98,1.03-.32,2.34-.57,3.49-.25.09-.35.27-.29.53-.37.16-.53.44-.44.85-.04.2-.08.4-.12.61,0,0,0,.01,0,.02-.55.85-.6,1.82-.68,2.78-.59.3-.73.81-.66,1.41-1.13,1.26-.5,2.76-.57,4.17-.22.12-.31.29-.26.53-.37.12-.62.34-.62.76-.47.24-.48.69-.49,1.14,0,.4-.04.79-.37,1.04-.05.04-.1.07-.17.1h0s0,0,0,0c-.05.46-.2.91-.3,1.37-.09.39-.13.79-.03,1.21-.02.02-.04.04-.06.06-.8.76-.77,1.72-.62,2.71-.01,0-.02.01-.04.02-.55.26-.61.77-.56,1.29.04.41-.1.71-.41.91-.03.02-.06.04-.1.06,0,.04,0,.08,0,.11,0,.18-.03.34-.15.49-.09,0-.17.02-.25.04-.05,0-.09.01-.14.02-.06,0-.12.02-.19.03.02.11.01.22-.02.32-.02.05-.04.1-.07.15-.02.03-.02.06-.04.08h0c-.03.9-.07,1.8-.1,2.7-.03.22-.07.43-.1.65-.59.62-.38,1.45-.54,2.18-.73.53-.4,1.4-.66,2.08v.02s-.01,0-.01,0c-.69.22-.69.79-.7,1.36h0c-.56.31-.63.84-.65,1.4l-.02.03c-.41.24-.58.6-.62,1.07-.04.51-.14,1.02-.22,1.53-.46-.04-1.01.12-1.14-.61-.08-.46-.29-.86-.68-1.13-.05-.04-.1-.08-.16-.12l.08-.12c0-1.43.37-2.91-.61-4.2l-.14.09c.14-.64-.23-1.03-.68-1.39.05-.79.26-1.62-.54-2.19-.05-.57-.43-.93-.82-1.29.23-1.03.33-2.04-.59-2.83.1-.81,0-1.55-.78-2.02-.01-.57-.06-1.12-.66-1.41-.03-.57-.13-1.09-.71-1.38,0-.41-.18-.69-.57-.82-.25-.43-.49-.85-.73-1.28.37-1.09.07-1.98-.78-2.73,0-.58-.09-1.11-.69-1.39,0-.42-.21-.68-.62-.77-.08-.39-.35-.58-.72-.65-.11-.52-.12-1.08-.61-1.44-.01-.42-.25-.64-.63-.74-.17-.69-.08-1.51-.92-1.88h0c-.03-.44-.2-.78-.6-.99l.07-.24-.2-.15c.07-.78,0-1.52-.64-2.09.06-.6-.25-1-.74-1.29l-.03-.05c.02-.42-.17-.68-.59-.75-.03-.38-.21-.65-.57-.79,0-.58-.15-1.09-.78-1.31-.04-.44-.3-.67-.72-.75-.69-2.99-.61-6.01-.66-9.05-.04-2.24-.2-4.49-.17-6.74.02-.91.08-1.82.12-2.73.76-1.4,1.24-2.81.14-4.27-.08-.16-.09-.33-.03-.5.99-1.57.51-3.28.52-4.95.04-.21.03-.41-.03-.61.03-.09.09-.19.07-.28-.03-.15-.09-.3-.15-.45h.01s-.01-.03-.02-.05c.04.03.09.05.14.07.06.02.13.03.19.02h0c-.37-1.86.25-3.85-.81-5.61l-.09-1.32c.17-1.46.39-2.92-.62-4.2-.05-.19-.1-.39-.14-.58.35-1.49.38-2.93-.53-4.26-.59-3.23-1.89-6.28-2.25-9.57.38-.66-.3-1.73.79-2.13,2.45,1.91,5.38,2.7,8.27,3.6,2.16.68,4.3,1.43,6.46,2.14,2.37.78,4.58,1.91,6.68,3.24.02.19.05.38.08.57.18.01.37.03.55.04.26.02.52.04.79.06,0,0,0,0,.01.01.23.22.46.44.69.67,0,0,0,.02.01.02.53,1.12,1.45,1.78,2.59,2.19.01,0,.02,0,.03.01.08.33.26.55.58.62.04.01.08.03.13.03.07.4.33.56.68.61.03,0,.05.01.08.01.05.34.21.59.53.7.04.01.07.03.11.04.06.46.34.64.78.6,0,0,0,0,0,0,.08.13.1.27.11.42,0,.06,0,.12,0,.18.42.07.57.37.63.75.08,0,.16,0,.23.01.13.01.26.03.38.06,0,0,0,0,0,0,0,.39.13.7.55.82,0,.02.01.03.01.04.11.51.46.84.86,1.14,0,0,.02.01.03.02.01.35.14.62.46.75.04.02.07.04.12.05.02.38.22.6.55.68.04.01.08.03.12.03.05.4.27.63.67.68,0,0,.01,0,.02,0,.05.22.11.44.16.66.04.15.07.3.11.46.38.11.62.34.68.74.04.01.07.04.1.06.39.19.48.58.55.98.07.43.16.87.59,1.11,0,0,.01.01.02.02,0,.41.2.66.61.74,0,0,0,0,.01,0,.12.71-.03,1.53.74,2,0,0,.01.01.02.02.02.37.13.68.5.84,0,0,0,0,.01,0-.1,1.35.54,2.66.18,4.02Zm-6.16-19.43c.21.25.41.49.62.74-.22-.23-.47-.43-.62-.72,0,0,0,0,0,0h0s0-.01,0-.02Zm3.55,4.04s0,0,0,0c.01.15.05.28.12.39-.07-.11-.11-.23-.12-.39Zm-7.27-41.82s0,0,0,0c-.05-.41-.28-.63-.69-.68,0,0,0,0,0,0,.44.02.67.25.69.68Zm-.7-.6c.09.34.31.55.66.63.28.64.21,1.44.9,1.88,0,.58.16,1.07.66,1.41-.03.59.12,1.09.66,1.41,0,.43.24.66.63.75.12.5.37.97.24,1.54-.16.68.07,1.31.58,1.81-.06.68.1,1.29.5,1.81.05.09.11.18.2.26-.11.8-.05,1.56.57,2.17.02.97-.01,1.95.8,2.69.05,1.18-.37,2.46.72,3.43h0c.78,1.53.32,3.4,1.36,4.85-.01.47.19.81.6,1.02h.01s0,0,0,0c-.5.61-.78,1.22-.04,1.83.03.65-.04,1.33.12,1.95.49,1.87.02,3.94,1.21,5.65,0,0-.01,0-.02,0h0s0,0,0,0c0,0,0,0,0,0,.1,2.23.18,4.45.33,6.68.02.28.38.54.58.8v.03c-.03.44-.07.88-.1,1.33-.12.16-.31.32-.33.5-.1,1.11-.73,1.12-1.53.83-.27-.67-.05-1.51-.69-2.05.01-.43-.22-.67-.61-.78-.15-.5-.46-.89-.92-1.15l-.02-.03h0c.02-.46-.21-.67-.65-.7h0c-.23-.24-.45-.46-.68-.69h0c-.02-.44-.25-.67-.68-.7h0c-.08-.37-.26-.64-.62-.76-.01-.44-.21-.7-.68-.74-1.45-1.06-2.17-3.05-4.24-3.32h-.01c-.05-.4-.24-.66-.63-.76-.04-.43-.26-.68-.73-.65.24.22.49.45.73.67,0,0,0,0,0,0,.21.24.41.48.62.73-.21-.24-.45-.45-.62-.72h0c-.29-.18-.51-.43-.73-.67h0c-.51-.72-1.14-1.25-2.02-1.44-.2-.73-.78-.72-1.36-.71-.12-.36-.35-.61-.76-.63-.14-.17-.24-.42-.42-.49-2.37-1.02-4.75-2.03-7.12-3.03,0,0,0,0,0,0-.39-.59-.93-.65-1.55-.47-.98-.27-1.95-.67-2.95-.79-1.14-.14-2.23-.25-3.24-.89-.45-.29-1.1-.49-1.61-.4-1.27.22-1.74-.83-2.54-1.36-.84-.55-.68-1.34-.69-2.11,0-.45-.05-.91-.08-1.36.02-1.67.04-3.34.07-5.01.03-.67.06-1.33.09-2,.15-.03.3-.07.44-.1.06,0,.11.03.16.06,0-.02,0-.05-.01-.07,0,0-.01,0-.02,0,0,0,.02-.03.02-.03,0,0,0,.02,0,.02.13-.04.24-.07.36-.1-.13-.03-.26-.05-.4-.08-.12-1.08.5-2.16,0-3.24.61-1.75.9-3.55.86-5.41,1.4-.06,2.79-.12,4.19-.18.18.09.36.16.56.19,0,0,0,0,0,0h0c2.34,1.22,4.78.64,7.19.4.18-.02.33-.29.49-.44,1.14.16,2.19-.13,3.22-.59,1.21-.53,2.45-1,3.67-1.5,0,0,0,0,0,0t0,0c1.78-.37,3.56-.74,5.33-1.1Zm-10.07-19.02s-.08.08-.08.08c0,0,0,0,0,0,.03-.03.06-.05.09-.08Zm1.22-9.66s0,0,0-.01c.25-.2.49-.39.74-.59-.24.21-.44.47-.74.61Zm16.09-7.39c-.39.07-.62.3-.69.68,0,0,0,0,0,0,0,0,0,0,0,0-.39.07-.62.3-.7.68h0c.08-.39.31-.62.7-.69.07-.39.3-.62.69-.68,0,0,0,0,0,0Zm2.77-2.75c-.11,0-.21.03-.3.07.09-.04.18-.07.3-.07,0,0,0,0,0,0Zm7.62-9s0,0,0,0c.01-.17.07-.3.15-.41-.08.11-.13.25-.15.41Zm1.42-7.32c.19-.13.3-.32.33-.58,0,0,0,0,0,0-.02.28-.14.46-.33.58Zm1.63-2.34c.04-.1.07-.21.07-.34,0,0,0,0,0,0,0,.13-.03.24-.08.34Zm6.49-2.9c-.21.24-.42.48-.62.72,0,0-.01,0-.02,0,.13-.32.38-.53.64-.73h0Zm12.97-60.2c-.08.03-.14.06-.2.1-.28.16-.37.42-.24.78h0c0,.05,0,.11,0,.16,0,.59-.02,1.18-.02,1.76-.06.15-.13.3-.16.46-.01.07.07.16.11.24.01.46.02.91.04,1.37l-.21.11.03.24s0,0,0,0c-.25.16-.41.35-.53.56-.2.35-.25.76-.25,1.18,0,.19.01.39.02.59-.16.16-.28.33-.38.51-.36.63-.38,1.31-.32,2.02.03.32.06.65.09.97-.47.35-.6.86-.65,1.41-.2.1-.34.22-.45.35-.34.4-.32.92-.31,1.44,0,.31,0,.62-.08.9-.09.05-.17.1-.24.16-.73.59-.65,1.54-.88,2.35-.03.11-.07.21-.11.31h0s0,0,0,0c0,0,0,0,0,0-.39.4-.54.9-.64,1.41-.04.21-.08.42-.13.63,0,0,0,0,0,0-.85,1.03-.74,2.25-.66,3.46-.21.94-.42,1.89-.63,2.83-.09.09-.15.19-.19.3-.6.99-.71,2.07-.43,3.22-.25.61-.26,1.24-.24,1.87,0,.25.02.5.04.76-.62.57-.61,1.34-.63,2.1-.24.23-.4.48-.51.75-.22.53-.23,1.12-.24,1.7,0,.32,0,.64-.05.95-.1.09-.18.18-.25.27-.43.56-.39,1.23-.27,1.92l-.03.69c-.13.09-.19.19-.19.31,0,.06.01.13.04.2-.18.07-.33.16-.42.29,0,0,0,0,0,0-.1.13-.14.31-.1.53-.14.07-.23.14-.29.22-.06.08-.08.16-.06.25.03.11.13.22.29.34-.19.27-.35.54-.5.82-.36.68-.6,1.38-.72,2.12-.1.58-.14,1.18-.1,1.8,0,0,.01-.02.02-.03-.43.67-.72,1.39-.94,2.13-.05.22-.11.44-.17.65-.15.66-.26,1.33-.35,2.01-.22.1-.37.23-.48.39-.1.15-.16.31-.21.49-.03.14-.06.3-.07.45-.06.04-.11.07-.15.11-.59.48-.53,1.18-.51,1.87,0,.02,0,.05,0,.07-.02,0-.04.02-.06.03-.21.09-.34.23-.41.4-.05.11-.08.24-.09.38-.39.08-.64.3-.65.72.21-.24.43-.48.64-.72,0,0,0,0,0,0-.2.26-.44.47-.64.72h-.01c-.67.25-.57.87-.69,1.38h0c-.24.23-.46.47-.71.66h0c.24-.22.48-.44.71-.66-.39.06-.67.24-.72.67-.37.34-.75.68-1.09,1.04-.47.5-.86,1.05-1.07,1.72-.05.16-.09.34-.11.52-.18.06-.32.15-.41.27,0,.01-.01.02-.02.03-.09.13-.14.3-.14.5-.12.06-.22.13-.31.22-.21.21-.32.47-.41.75-.03.1-.06.21-.08.31-.06.01-.12.03-.17.06-.24.1-.4.28-.45.55,0,.04-.02.08-.02.13-.05.03-.1.06-.15.1-.23.18-.35.42-.42.68-.06.18-.09.37-.13.56-.15.03-.31.05-.47.07-.32.06-.61.17-.74.53-.02.06-.04.13-.05.21-.61.52-.43,1.36-.78,1.98-.17.02-.34.03-.5.07-.36.08-.66.25-.77.73-.15.17-.3.34-.45.52-.47.53-.94,1.07-1.41,1.6l-.25.07v.26s0,0,0,0c-.19.35-.52.62-.81.9-.29.27-.54.57-.62.97-.03.13-.04.27-.02.42-.23.22-.45.44-.68.66-.17.01-.3.06-.41.13-.07.08-.14.16-.21.24-.04.1-.07.21-.08.35-.21.22-.44.42-.66.63-.72.65-1.44,1.29-1.86,2.18-.09.2-.17.4-.23.63-.26.05-.52.09-.76.18-.2.07-.38.18-.53.35-.04.04-.07.09-.11.14-.05,0-.09.02-.14.02-.28.05-.47.21-.54.48-.02.06-.04.13-.04.21-.52.46-1.04.92-1.55,1.38-.08.07-.15.13-.23.2l-.07.06s0,0,0,0c-.94.88-1.89,1.75-2.83,2.63-.63-.09-.98.36-1.37.72-.48.44-.95.88-1.42,1.32-.22-.02-.4,0-.55.06-.28.1-.47.29-.61.55-.12.21-.2.46-.29.72-.92.17-1.41.98-2.13,1.45l-.28-.1-.23.19c-.63-.13-1.07.13-1.37.67h-.02c-.44-.02-.67.22-.77.61-.37.09-.69.24-.98.44-.25.17-.48.36-.7.57-.36.35-.69.74-1.04,1.11-.45,0-.74.17-.72.67-.52.35-.47.94-.59,1.45l-.02.03c-.35.06-.67.17-.81.54-.58.01-1,.29-1.28.79h0c-.24-.1-.43-.04-.57.17-.15.13-.27.26-.38.38-.78.91-.71,1.83-.18,2.75.14.25.32.51.53.77.11.22.28.35.52.39l-.07.24.2.15c-.03.25-.01.47.05.65.1.3.3.51.59.65.18.09.38.16.61.2.09.4.3.65.76.62.3.32.57.66.87.99.36.4.75.75,1.23,1,.17.09.34.16.54.22.16.38.48.49.86.51h0c.09.35.21.68.6.79.05.46.33.62.78.56-.26-.19-.51-.39-.77-.58,0,0,0,0,0,0,.31.13.53.37.77.59l.15.2.24-.07s0,0,0,0c.34.41.68.82,1.02,1.23v.02s.02,0,.02,0c-.03.45.21.65.62.68.01,0,.02,0,.04,0h0s0,.03,0,.05c.03.17.05.34.06.51.04.43.28.68.69.77.05.39.27.63.65.74-.09.62.06,1.12.68,1.39,0,.39.21.64.59.74l.05.05c.05.37.26.58.62.64l.06.07c.01.6.03,1.19.04,1.79,0,.06,0,.11,0,.17h0c-.06,0-.13,0-.19,0-1.07-.03-2.19-.35-3.08.53-.06.06-.12.1-.17.17h0c-.22.23-.44.47-.66.7-2.67.79-5.4,1.33-8.18,1.51,0,0,0,0,0,0-1.68-.03-3.36-.06-5.04-.09-2.34-.44-3.73-1.82-4.46-4.1-.68-2.14-1.58-4.21-2.47-6.28-.53-1.23-.88-2.59-2.01-3.48h0c-.18-.72.15-1.58-.59-2.15-.06-.19-.12-.38-.17-.57h0c.15-.6.33-1.21-.44-1.55-2.79-5.06-6.51-9.32-11.3-12.55-2.6-1.76-5.35-3.34-8.27-4.57h0c-.48-.89-1.27-.81-2.08-.66h-.02s0,0,0,0c-.29-.52-.67-.88-1.33-.75-2.54-1.3-5.03-2.73-7.64-3.85-3.1-1.33-5.6-3.48-8.2-5.5-.47-.36-.67-.91-1-1.35-.78-1.04-1.7-1.98-2.78-3.19-.05-.05-.09-.1-.14-.15-.02.08-.03.15-.05.23-.4,1.68.26,2.91.86,3.85,1.2,1.88,1.84,4.29,4.22,5.24,1.78,2.72,4.79,3.57,7.43,5.06,4.58,2.58,9.55,4.32,14.13,6.84,5.18,2.85,9.48,6.66,12.3,12.15,2,3.9,2.93,8.16,4.88,12.04.1.2.11.45.19.66.57,1.49,2.02,2.72,1.91,4.35-.1,1.56-.78,3.1-1.29,4.62-.81,2.39-.91,4.9-1.32,7.36-.47.4-.72.89-.79,1.41-.04.25-.04.51,0,.76.02.11.04.23.07.34.22.82,0,1.6.1,2.38-.25.59-.64.99-1.31.67-1.08-.52-1.81-1.45-2.33-2.47-.66-1.31-1.69-2.23-2.92-2.83-1.57-.77-2.93-1.76-4.24-2.9-1.19-1.03-2.47-1.96-3.7-2.94-1.93-1.54-4.04-2.86-6.53-3.62-4.01-1.23-7.95-2.6-11.56-4.96-1.73-1.13-2.44-2.91-3.93-4.07-.08-.06-.08-.21-.14-.31-1.03-2.02-3.12-3.17-4.03-5.4-.8-1.97-2.15-3.84-3.65-5.36-1.3-1.31-2.14-2.9-3.34-4.23-1.14-1.26-2.21-2.6-3.45-3.75-1.51-1.4-3.13-2.67-4.76-3.93-1.61-1.25-3.31-2.39-4.93-3.63-1.51-1.16-5.38-3.02-7.6-3.57,0,0,0,0,0,0h0c-1.87-1.02-3.83-.68-5.78-.35-.19.03-.34.28-.5.43-1.29-.34-2.24.91-3.57.7-1.33-.21-1.84-.41-1.43-1.61.47-1.38-.5-2.69.11-3.99.64-.81,1.23-1.57,2.5-1.19.04.01.07.01.11.02.16.03.31.04.46.02.46-.06.88-.37,1.16-.84,1.75-.09,3.3-.9,4.91-1.46.95-.33,1.85-.71,2.85-.96,3.06-.76,6.13-1.55,9.07-2.66,3.28-1.24,6.66-2.33,9.54-4.47,2.1-1.56,4.23-3.09,6.33-4.65.36-.27.64-.65.96-.98,3.71-3.72,7.58-7.28,11.07-11.19,3.12-3.49,6.33-6.88,9.36-10.45.37-.43.63-.96.92-1.45.81-1.37,1.72-2.73,2.67-3.94.87-1.11,2.12-2.03,3-3.24.13-.18.33-.42.51-.43,1.87-.11,3.3-1.47,5.14-1.69,2.38-.29,4.76-.59,7.11-1.06,1.1-.22,2.12-.84,3.18-1.28,0,0,0,0,0,0,1.92.24,3.85.62,5.61-.58,2.15-.44,4.46-.42,6.24-2.01.97-.2,2.08.17,2.91-.67.21.14.39.1.53-.11.33,0,.66-.01.99-.02.07,0,.14,0,.21,0,.66.11,1.21-.01,1.52-.67.63.1,1.13-.05,1.35-.71.62.08,1.15-.02,1.35-.72.38-.02.63-.22.79-.56h0s.14-.19.14-.19l.15.03.08.02c.47.02.8-.18.99-.61h0c.01-.05.01-.11.02-.16.03-.14.05-.29.06-.44.39-.03.68-.21.77-.62.4-.07.6-.33.65-.72.37-.08.6-.31.72-.66.1,0,.19,0,.28,0,.71-.05,1.18-.36,1.19-1.18,0-.05,0-.1,0-.15.34-.15.5-.43.58-.78.53-.08,1.01-.26,1.27-.79h.02c.32-.04.62-.13.9-.24.68-.28,1.2-.79,1.47-1.48.08-.19.18-.36.28-.52.46-.68,1.13-1.15,1.53-1.85.43-.06.62-.33.64-.75l-.64.73s0,0,0,0c.17-.28.42-.49.64-.73h0c.48-.21.55-.62.59-1.07.05-.53.16-1.05.24-1.57.36-.09.59-.32.68-.69.38-.06.65-.25.73-.65.4-.15.57-.43.52-.86h0c.64-.54.65-1.3.74-2.03.36-.13.54-.38.56-.76l.05-.07h0c1.08-.95.62-2.2.68-3.35.23-.14.26-.33.11-.54,0,0,0,0,0,0,.57-.65.59-1.44.61-2.24,0,0,.01-.03.01-.03h0s.08-.08.12-.12c1.05-.99,1.25-2.25,1.33-3.55.02-.35.04-.7.06-1.05.29-.18.45-.4.54-.65,0,0,0-.02.01-.03.15-.43.1-.93.16-1.4.27-.42.47-.85.58-1.29.12-.45.14-.92.06-1.4-.03-.22-.08-.43-.16-.65-.28-.78-.06-1.44.23-2.12.55-.05.99-.28,1.23-.82h.02c.55-.03,1.03-.17,1.25-.74l.08-.07c.56-.14.76-.57.91-1.05,1.63-.11,3.26-.22,4.89-.32.47-.03.84-.22,1.11-.6l.04-.02c.87.09,1.73.17,2.6.26.15.38.43.54.84.47h.01c.56.64,1.31.63,2.06.62l.12.21.24-.04c.47.06.8.27.86.76,0,0,0,0,0,0-.1-.45-.4-.7-.86-.76.28.26.57.53.85.79.11.16.22.32.33.49.01.05.04.09.06.14.12.35.37.55.69.67.09.04.19.07.29.09.03.14.09.25.16.35.06.06.11.12.17.17.1.08.22.14.37.17.17.3.34.6.53.88.08.11.17.22.25.34.21.27.44.52.73.73,0,.06.03.11.05.16.12.3.4.38.73.42l.02.02c.06.39.27.61.67.64l.04.04c.18.26.44.45.55.75,0,0,0,0,0,0,0,0,0,.01,0,.02-.18-.26-.37-.51-.55-.77.04.37.22.64.56.8.06,1.42,1.35,1.83,2.18,2.61h0s.03.04.03.04c.18.26.43.46.58.74.29.17.53.41.69.71,0,0,0,0,0,0-.23-.24-.46-.47-.68-.71,0,0,0,0,0,0,0,0,0,0,0,0,0,0,0,0,0,0-.19-.25-.38-.5-.58-.74,0,.4.2.65.58.76.02.44.26.66.69.71.27.66.9.95,1.42,1.35.05,1.77-.34,3.6.53,5.28.04.08.07.16.12.24.1.22.08.42-.08.61Zm-51.73,94.01c-.2.27-.42.51-.71.68h0c.24-.23.47-.45.71-.68,0,0,0,0,0,0Zm53.37-118.94c-.1-.05-.18-.11-.25-.19.08.06.17.12.25.18,0,0,0,0,0,0Z"/><path class="cls-1" d="m346.21,154.15c-.08.07-.15.15-.22.27.07-.09.15-.18.22-.27Z"/><path class="cls-1" d="m356.38,300.01c.15.29.4.51.64.72h0s0,0,0,0c-.21-.24-.42-.48-.63-.72,0,0,0,0,0,0Z"/><path class="cls-1" d="m326.59,135.59c-.23.22-.47.44-.7.67.4-.04.63-.28.7-.67Z"/><path class="cls-1" d="m360.45,298.69c.23.23.46.46.68.69-.08-.38-.31-.61-.68-.69Z"/><path class="cls-1" d="m335.21,537.23c.32.32.63.64.95.95-.09-.54-.41-.86-.95-.95Z"/><path class="cls-1" d="m301.65,565.44c.24-.19.48-.37.72-.56-.43-.05-.66.15-.72.56-.41.06-.63.3-.65.73.22-.24.43-.48.65-.72,0,0,0,0,0,0Z"/><path class="cls-1" d="m217.4,215.03c-.48-1.56-.72-3.15-.78-4.78-.25-1.4.73-2.97-.61-4.2h0c-.45-.26-.85-.79-1.43-.26-.88.82-1.75,1.65-2.63,2.47-1.05,1.05-1.07,1.25-.23,2.7.11.2.12.4.04.62-.52.49-.77,1.09-.74,1.81.06,1.69.09,3.38.18,5.06.02.28.32.55.49.82l.1-.04c.01.69.03,1.37.04,2.06,0,.23.01.45.02.68,0,1.13,0,2.27.01,3.4,0,.57.08,1.14.59,1.52.12,1.12.02,2.25.45,3.35.33.85.75,1.33,1.71,1.28,2.07-.1,2.08-.41,2.46-2.08.33-1.46.48-2.9.25-4.36-.09-.59-.1-1.11.17-1.63.16-.16.45-.31.45-.47.05-2.27.05-4.54.07-6.82,0-.49-.21-.86-.62-1.12Z"/><path class="cls-1" d="m342.32,143.97c0-.52.01-1.04.02-1.56.07-.18.07-.35,0-.53.26-.66-.05-1.1-.56-1.47-.15-1.02-1.25-1.61-1.17-2.79.03-.48-.46-1-.74-1.49-.78-1.34-2.19-1.53-3.51-1.75-.61-.11-1.68,2.38-1.59,3.57.03.33.12.7.3.97.34.52.39,1.06.28,1.64-.29,1.56.2,3,.94,4.27.88,1.49,1.43,3.1,2.05,4.68.21.54.41,1.04.77,1.5,1.21,1.57,1.86,1.54,3.38-.21.92-2.21.94-3.41.07-6.31-.07-.18-.16-.35-.25-.52Z"/></svg>