<?xml version="1.0" encoding="UTF-8"?><svg id="Layer_1" xmlns="http://www.w3.org/2000/svg" viewBox="0 0 200 200"><defs><style>.cls-1,.cls-2{fill:#ffffff;}.cls-2{fill-rule:evenodd;}</style></defs><path class="cls-1" d="m99.44,83.6c.03-.39.06-.77.05-1.14h0c0-.09.02-.18.03-.28.03-.15.05-.3,0-.42-.95-2.67.15-4.94,1.4-7.18.19-.35.38-.7.57-1.05.43-.81.86-1.62,1.37-2.38.48-.73,1-1.42,1.53-2.12.43-.57.86-1.14,1.27-1.73.72-1.05,1.42-2.12,2.13-3.19.53-.8,1.05-1.6,1.59-2.39.17-.26.4-.49.58-.67.07-.07.14-.14.19-.2.01-1.87-.98-3.16-1.98-4.45-.47-.61-.94-1.22-1.3-1.89-.49-.91-1.01-1.8-1.53-2.69-.33-.56-.65-1.12-.97-1.68-.35-.62-.72-1.23-1.09-1.85-.88-1.47-1.77-2.93-2.39-4.5-.68-1.71-1.02-3.65-.07-5.55.23-.47.3-1,.38-1.54.06-.43.12-.86.25-1.26.47-1.37,1-2.72,1.53-4.07.19-.48.38-.97.56-1.45.1,0,.21.02.31.03.09,0,.18.02.28.03,0,.34.01.69.02,1.03.02.76.05,1.52-.04,2.27-.29,2.43-.64,4.86-1.06,7.28-.16.92.12,1.62.44,2.42.04.1.08.2.12.3.3.76.77,1.42,1.25,2.08.74,1.03,1.49,2.07,1.58,3.51.05.89.73,1.74,1.4,2.58.25.31.5.63.71.94.26.37.55.72.84,1.06.36.44.73.87,1.02,1.35.74,1.19,1.41,2.44,1.98,3.73.24.55.32,1.32.13,1.86l-.08.22c-.44,1.26-.91,2.57-1.7,3.6-.67.86-1.22,1.8-1.76,2.74-.65,1.12-1.3,2.24-2.14,3.2-.97,1.1-1.63,2.36-2.29,3.63-.57,1.1-1.14,2.19-1.92,3.18-1.07,1.36-1.19,3.32-.83,5.19.31,1.59.54,3.19.77,4.8h0c.11.8.23,1.6.35,2.4.05.35.14.7.22,1.06.18.74.36,1.48.26,2.18-.1.7.07,1.28.23,1.86.08.27.15.54.2.82.17.96.2,2.07-.95,2.77-1.33-1.65-1.68-3.57-2.03-5.45-.06-.33-.12-.65-.18-.97-.13-.63-.2-1.27-.27-1.91-.13-1.21-.26-2.42-.79-3.6-.31-.71-.25-1.59-.18-2.47Z"/><path class="cls-2" d="m119.02,111.41h0c-.36-.38-.72-.76-1.08-1.13-.22-.16-.44-.31-.66-.47h0c-.22-.16-.43-.31-.65-.47l-.05-.05c-.13-.23-.26-.46-.38-.68-.09-.02-.19-.04-.28-.07-.09,0-.19.01-.3.03-.22.03-.43.05-.52-.04-.74-.84-1.73-1.08-2.71-1.32-.42-.1-.83-.2-1.23-.35-.16-.06-.28-.26-.39-.45-.05-.09-.1-.18-.16-.25l-.06-.08c-1.04-.19-2.08-.38-3.12-.57h0c-.94-.02-1.88-.04-2.82-.07h-5.65c-1.23,0-2.45,0-3.67-.01-.15,0-.29,0-.44.01h0c-.14,0-.28,0-.42.01-.66.28-1.32.56-1.98.85-.42.19-.85.38-1.27.57-.23.1-.46.21-.69.31-.14.1-.27.19-.41.28h0c-.14.1-.27.19-.41.29-.1.04-.2.08-.3.12-.1.04-.2.08-.3.12h-.03s-1.11,1.08-1.11,1.08c-.05.06-.1.12-.15.17-.05.06-.1.12-.15.17-.08.08-.16.16-.24.23-.09.07-.19.14-.29.2-.22.14-.44.29-.59.48-.23.29-.4.61-.58.94-.08.14-.15.28-.23.42-.05.1-.09.19-.13.28h0c-.04.09-.09.19-.13.28-.16.85-.24,1.67.81,2.04.19-.01.38-.02.58-.04.08-.03.18-.06.27-.08.26-.75.5-.45.73-.16.05.06.1.13.15.18.05.19.1.38.15.58.24.19.48.38.71.57,1.25,1.02,2.5,2.05,4.19,2.33l.56.22c.19.04.38.09.57.14h0c.19.05.38.09.57.14.11.03.22.07.33.1.11.04.22.07.33.1.69.1,1.38.2,2.06.31.69.1,1.38.21,2.06.31.17,0,.35-.07.53-.13.44-.15.89-.31,1.21.38h6.41c.1-.73.41-.76.89-.29.64-.1,1.28-.19,1.92-.28.58-.17,1.16-.34,1.75-.51.08-.01.15-.03.23-.04h0c.06-.01.13-.02.2-.04.14-.16.28-.32.42-.48h.85c.89-.48,1.77-.96,2.66-1.44h0c.88-.48,1.77-.96,2.66-1.44.1-.14.2-.28.31-.42.1-.14.2-.28.31-.42.03-.05.05-.11.07-.16.01-.03.03-.06.04-.1-.13-.31-.26-.62-.4-.93-.19-.44-.37-.88-.56-1.32v.02Zm-15.81,4.54c-.14.03-.28.07-.42.1h0c-.14.03-.28.07-.42.1h-1.15c-.18-.02-.35-.05-.53-.07-.35-.04-.71-.08-1.06-.15-.8-.17-1.59-.37-2.38-.58-.51-.13-1.02-.26-1.53-.38-1.36-.33-2.73-.66-4.01-1.18-.54-.22-.93-.79-1.31-1.34-.17-.24-.33-.48-.5-.68.14-.18.29-.38.44-.58.36-.5.75-1.04,1.25-1.47.97-.84,2.05-1.57,3.48-1.43.58.05,1.17.04,1.76.03.26,0,.52-.01.77-.01h4c-.8,2.79-1.13,5.4,1.6,7.31.03.02.07.03.1.05h0s.07.04.1.06c-.07.07-.14.15-.2.22h0Zm12.52-2.62c-.09.06-.22.06-.36.05-.12,0-.23,0-.33.03-.39.17-.77.35-1.15.54-.71.35-1.42.7-2.17.9-1.72.46-3.47.82-5.33,1.21-.79.16-1.59.33-2.43.51.11-.26.18-.46.24-.63.1-.28.17-.46.28-.59.91-1.1.57-2.25.25-3.36-.04-.15-.09-.3-.13-.45-.1-.38-.34-.72-.58-1.07-.18-.26-.37-.53-.49-.81-.13-.29-.16-.64-.19-1.03-.01-.18-.03-.38-.06-.59,2.1-.05,3.95.02,5.6,1.23.19.14.47.16.76.19.2.01.39.03.57.08.33.1.65.21.98.31,1.31.41,2.63.82,3.88,1.37.35.15.56.67.75,1.15.05.14.11.27.16.39.06.14-.1.47-.25.56h0Z"/><path class="cls-2" d="m141.95,89.46c-.01-.37-.03-.74-.05-1.12-.02-.37-.03-.75-.05-1.12-.06-.19-.11-.38-.17-.57s-.11-.38-.17-.57l-.19-.2-1.69-1c-.28.01-.57.02-.85.03-.04.05-.09.11-.14.16h0c-.05.06-.09.11-.14.16-.04.04-.07.08-.11.12-.05.05-.1.11-.15.16-.09.09-.18.19-.26.28l-.34.52-.57.59c-.1.1-.2.21-.31.31-.18.18-.35.36-.53.54-.28.28-.56.57-.83.85-.08.1-.16.19-.23.29l-.1-.03-.02.02-.02.03s-.05.08-.08.11c-.04.05-.07.11-.11.16l-1.19,1.08c-.13.19-.27.38-.4.57h0s0,0,0,0h0c-.13.19-.27.38-.4.57l-.86,1.03c-.15.11-.29.22-.44.33-.33.26-.66.52-1.02.73-1.04.63-2.09,1.24-3.13,1.85-.35.2-.7.41-1.05.61-.05.04-.1.08-.15.12s-.1.08-.15.12c-.16.11-.33.22-.49.34h0c-.11.08-.23.16-.34.23l-.29.15c-.28.15-.56.29-.84.43-.07.06-.14.12-.21.18-.05.05-.1.09-.16.14l-.2.18c-.19.17-.38.33-.57.5-.1.03-.19.07-.28.1-.14.09-.28.17-.42.26l-.11.07c-.1.07-.21.13-.32.2-.28.02-.56.03-.84.06-.09.05-.19.09-.28.14h0s0,0,0,0c-.09.05-.19.09-.28.14-.19.28-.38.56-.57.83-.06.06-.13.11-.19.17-.02.01-.03.03-.05.04-.01.01-.02.02-.04.03h-.57l-.31-.23c-.16-.38-.32-.75-.48-1.13,0-.19-.01-.38-.02-.57v-.56c.04-.28.07-.56.11-.84.04-.28.07-.56.11-.84-.05-.19-.1-.38-.15-.56h0c-.05-.19-.1-.38-.15-.56-.09-.68-.17-1.36-.26-2.04-.09-.68-.17-1.36-.26-2.04-.05-.39-.11-.78-.17-1.17-.04-.23-.07-.45-.1-.68-.04-.14-.08-.28-.12-.41h0c-.04-.14-.08-.28-.12-.42.01-.1.02-.19.03-.28,0-.09.02-.19.03-.28-.05-.43-.09-.87-.14-1.3h0c-.15-1.43-.31-2.86-.43-4.29-.02-.26.05-.53.13-.8.04-.13.07-.25.1-.37l.85-1.97c0-.28,0-.57,0-.85l1.69-2.25c.08-.16.16-.33.23-.49.08-.16.16-.33.23-.49.2-.41.39-.81.59-1.22h0s0,0,0,0h0c.29-.61.58-1.21.87-1.81l.21-.21c.2-.33.39-.66.59-.99h0c.2-.33.39-.66.58-.99.19-.33.38-.66.57-1,.19-.33.38-.66.57-1,.27-.49.54-.99.81-1.48l.07-.13c.83-1.52,1.66-3.04,2.49-4.57.14-.43.28-.86.43-1.3.14-.43.29-.86.43-1.3l.33-.77c-.01-.19-.03-.37-.05-.56-.02-.19-.03-.37-.05-.56-.12-.94-.79-1.34-1.46-1.74-.27-.16-.54-.32-.77-.51-.04-.03-.08-.06-.12-.09-.04-.03-.08-.06-.12-.09-.14-.21-.28-.42-.42-.62l-.16-.23c-.09-.13-.18-.26-.26-.39l-.86-.51c-.52-.39-1.03-.77-1.55-1.16-.52-.39-1.03-.77-1.55-1.16-.18-.11-.36-.21-.54-.32h0c-.18-.11-.36-.22-.54-.32-.08.07-.15.07-.23,0-.3-.29-.54-.63-.78-.96-.48-.67-.97-1.34-1.93-1.72-.66-.26-1.11-1.06-1.56-1.86-.2-.35-.4-.71-.61-1.01h-.02c-.54-.46-1.08-.9-1.62-1.34-.54-.44-1.08-.89-1.62-1.33l.07-.05-.08.03-1.9-2.06c-.12-.23-.23-.47-.35-.71h0s0,0,0,0c-.12-.24-.23-.48-.35-.71h0c-.02-.19-.03-.38-.05-.58v-.55c-.25-1.02-.16-2.05-.07-3.07.06-.71.12-1.42.07-2.13-.03-.41-.02-.81-.01-1.22,0-.2.01-.41.01-.61l.29-1.69v-.86c.05-.23.09-.46.14-.7h0s0,0,0,0c.05-.23.09-.46.14-.7,0-.5,0-1.01.01-1.51,0-.25,0-.5,0-.75-.03-.09-.05-.18-.06-.27-.05-.04-.1-.09-.14-.13-.02-.02-.05-.04-.07-.07.04-.02.07-.03.11-.05s.07-.03.11-.05c-.08-.56-.16-1.12-.23-1.68.09-.19.18-.37.26-.56.09-.19.18-.37.26-.56.02-.1.03-.19.05-.29,0-.19,0-.38-.01-.57,0-.05,0-.09,0-.14,0-.05,0-.09,0-.14v-2.82c-.02-.09-.04-.18-.06-.27-.04-.03-.07-.06-.11-.1-.04-.03-.07-.06-.11-.1.04-.02.07-.03.11-.05.04-.02.07-.03.11-.05.02-.09.03-.18.06-.27l-.09-.55v-.6c0-.09.02-.18.02-.28,0-.09.01-.18.02-.28-.68-.37-.68-.74,0-1.1h0c-.06-.14-.14-.27-.22-.4-.17-.27-.33-.54-.32-.81.02-1.13-.68-1.16-1.47-1.16-.19.06-.37.13-.56.19-.19.06-.37.13-.56.19-.04.05-.08.1-.13.15-.04.05-.08.1-.13.15-.24.33-.48.67-.73,1h0s0,0,0,0c-.58.79-1.16,1.59-1.72,2.4-.4.58-.77,1.19-1.15,1.79-.15.24-.29.48-.44.71-.05.14-.09.28-.14.42-.05.14-.09.28-.14.42h0c-.29.38-.58.76-.86,1.13-.03.05-.07.1-.1.15-.04.05-.07.1-.1.15-.39.7-.77,1.4-1.16,2.1-.39.7-.77,1.4-1.16,2.1-.04.05-.07.1-.11.15-.04.05-.07.1-.11.16,0,.1,0,.2,0,.3.01.22.02.44-.06.63-.21.49-.47.96-.74,1.42-.05.09-.1.17-.15.26-.21.38-.46.75-.7,1.11-.38.56-.78,1.11-1.18,1.66-.14.37-.28.74-.41,1.1-.14.37-.27.74-.41,1.1l-3.51,6.75c-.08.19-.16.38-.24.58-.08.19-.16.39-.24.58,0,.09-.02.17-.06.25.27.62-.09.94-.44,1.25-.16.14-.31.28-.41.44-.13.23-.26.47-.39.7-.13.24-.26.47-.39.7-.05.1-.09.19-.13.28h0c-.04.1-.09.19-.13.28-.11.18-.23.36-.34.55-.13.29-.27.57-.4.86-.13.29-.27.57-.4.86.08.32.17.65.25.97.08.33.17.65.25.98.06.42.12.84.18,1.26.06.42.12.84.18,1.26.08.12.19.25.3.37.24.27.47.54.47.81-.02,1.25.66,1.99,1.51,2.73.19.17.27.47.35.77.03.14.07.27.12.4l.61.74h0c1.31,1.59,2.62,3.17,3.91,4.77.03.04-.04.16-.12.28-.03.05-.06.1-.08.14.04.05.08.11.12.16.04.05.08.11.12.16.04.04.07.08.11.12.04.04.07.08.11.12.11.12.23.24.34.36.08.18.16.35.24.53.08.18.16.35.24.53.06.07.1.16.11.25.72,1.25.01,2.96-1.68,4-.06.13-.11.26-.17.4-.06.13-.12.26-.17.4l-.53.54c-.1.1-.2.2-.31.3-.1.1-.21.2-.31.3-.04.04-.08.08-.12.12-.04.04-.08.08-.12.12-.29.32-.63.6-.96.88-.73.6-1.45,1.2-1.72,2.22-.03.13-.31.19-.59.25-.13.03-.26.06-.37.09-.1.17-.2.34-.3.51h0c-.1.17-.2.34-.3.52-.12.09-.24.19-.36.28-.28.22-.55.43-.83.65l-.21.3c-.44,1.53-1.55,2.54-2.66,3.55h0c-.14.13-.28.26-.42.39-.14.28-.28.56-.43.84-.14.28-.29.56-.43.84-.03.19-.07.37-.1.55-.03.05-.07.11-.1.16-.03.05-.06.1-.1.16.19.93.37,1.86.56,2.8h0c.18.94.37,1.87.56,2.81.03.1.06.19.09.28.03.09.06.19.09.28l.02.09c.04.15.08.31.12.46.03.24.05.47.07.71.02.24.05.48.07.71.11.36.21.72.32,1.08.02.1.03.2.05.3,0,.03,0,.05.01.08,0,.03,0,.06.01.09,0,.04.01.09.02.13.05.23.09.47.14.7s.09.46.14.7l.2.57c.06.09.12.18.18.27h0c.06.09.12.18.18.27.04.05.08.1.12.15.04.05.08.1.12.15l.82,3.09c-.27.15-.54.29-.81.44-.27.15-.54.29-.81.44l-3.68.86-.34.22c-.36.12-.71.25-1.07.37-.18.17-.36.35-.53.52l-.09-.04-.23.23-.86.03c-.28.21-.55.42-.82.63-.09.08-.17.16-.26.24h0s-.03.03-.03.03c-.41.22-.81.44-1.22.65h0s0,0,0,0c-.63.34-1.26.67-1.88,1.01-.14.09-.29.19-.43.28h0c-.14.09-.29.19-.43.28-.46.28-.93.56-1.4.84l-1.98,1.41c-.05.05-.11.11-.16.16l-.11.12c-.19.19-.37.38-.56.57-.01.01-.03.03-.04.04,0,0-.02.02-.03.03-.01.01-.02.02-.03.03-.06.07-.12.13-.19.19-.05.04-.11.08-.16.12-.05.04-.1.08-.16.12-.84.84-1.68,1.68-2.53,2.51-.09.15-.18.29-.28.44-.09.15-.18.29-.28.44h0c-.88.94-1.75,1.87-2.62,2.81-.17.24-.34.47-.52.71h0s0,0,0,0c-.17.24-.34.47-.51.71-.06.09-.11.18-.17.27-.06.09-.11.18-.17.27-.09.18-.17.35-.26.53-.09.18-.17.35-.26.53-.1.11-.2.21-.31.32-.1.11-.21.21-.31.32-.04.05-.07.1-.11.15-.04.05-.07.1-.11.15,0,.09-.03.17-.08.25-.1.27-.21.55-.31.82-.06.17-.13.35-.19.52-.2.44-.4.87-.6,1.31-.2.44-.4.87-.6,1.31l-.2.29c-.05.23-.1.46-.15.7h0c-.05.24-.1.47-.15.69l-.24.86c0,.56,0,1.11-.01,1.67,0,.28,0,.56,0,.83l.84.86c.09.02.18.04.28.06l.11.02c.06.01.11.02.17.04l1.12-.11h0c.05-.03.1-.07.15-.11l.08-.06.07-.06.85-.32c.1-.04.19-.07.28-.11.09-.03.19-.07.29-.11.37-.03.75-.07,1.11-.1.19-.07.38-.14.58-.21h0c.39-.06.79-.11,1.18-.17.37-.22.73-.43,1.1-.65.37-.21.73-.43,1.1-.65.19-.08.38-.16.57-.25.19-.08.38-.17.57-.25.38-.1.76-.2,1.13-.3.38-.1.75-.2,1.13-.31l.55-.31c.28-.14.56-.28.84-.42h0s0,0,0,0c.28-.14.57-.28.85-.42.2.05.41.1.62.15.36-.04.72-.09,1.07-.13.38,0,.75,0,1.13.01h0c.37,0,.75,0,1.12.01l1.42-.05c.98-.05,1.96-.1,2.94-.15h.04s0,0,0,0c.98-.05,1.96-.1,2.94-.15.47.03.94.06,1.41.08h.86c.35.06.7.11,1.05.17.7.11,1.4.22,2.1.34.02,0,.06.1.05.12-.03.04-.07.08-.1.11-.02.01-.03.03-.05.04.06.23.12.46.18.69.06.23.12.46.18.7h0s.03.05.04.07l.09.14s.04.07.07.1v1.13c-.04.07-.08.13-.12.19l-.03.04s-.03.05-.05.08v.5l.46,2.01h0c.07,1.05.15,2.1.21,3.14.18.13.37.25.55.38.18.12.37.25.55.38.78.4,1.49.91,2.2,1.42,1.08.78,2.16,1.57,3.54,1.96,1.39.39,2.7,1.1,4,1.82.58.32,1.15.63,1.74.92l.09.02c.16.04.32.07.48.11.47.16.94.33,1.41.49.47.16.94.33,1.41.49.15.07.3.14.44.21l.28.13s.07.03.1.05l.07.03c.58.27,1.16.56,1.74.84h0c1.38.67,2.75,1.33,4.16,1.93.4.17.85.22,1.29.28.47.06.95.12,1.36.31.99.46,1.58.15,2.17-.55h0c.39-.46.78-.93,1.17-1.39.01-.28.02-.57.03-.85.06-.37.12-.75.18-1.12-.04-.38-.07-.75-.11-1.13-.04-.38-.08-.75-.11-1.13l.31-1.71c-.14-.17-.27-.35-.4-.52-.02-.1-.04-.19-.06-.29v-.05s-.02-.08-.03-.12c0-.04-.02-.08-.02-.12.02-.14.05-.29.07-.43.02-.14.05-.28.07-.43,0-.12,0-.25.01-.37,0-.06,0-.12,0-.19l-.29-2.53c.07-.38-.09-.75-.25-1.12-.24-.56-.48-1.11.07-1.72-.11-.5-.22-1-.33-1.5-.11-.5-.22-1-.33-1.5h.01c.29-.03.58-.06.86-.08h.53c.19-.07.38-.15.57-.22.28.04.56.07.84.11.28.03.56.07.84.11.06-.02.11-.03.17-.05.04-.01.08-.02.12-.03l.36-.1c.07-.02.14-.04.21-.06.15-.02.31-.05.46-.07l.65-.09c.37-.05.74-.11,1.11-.16.05-.04.11-.07.16-.11.05-.04.1-.08.16-.11.17-.03.35-.05.52-.06.39-.04.77-.08,1.09-.25,1.47-.79,2.92-1.62,4.37-2.46.54-.31,1.09-.63,1.63-.94.06-.07.12-.15.19-.22.14-.16.27-.32.4-.48.18-.16.37-.33.55-.49.18-.17.37-.33.55-.49.05-.09.1-.19.15-.28l.04-.07s.04-.07.05-.1c.02-.03.04-.07.06-.11.14-.19.29-.39.43-.59.34-.46.68-.92,1.03-1.38.18-.56.35-1.13.53-1.68.04-.1.09-.19.13-.29.04-.1.09-.19.13-.29,0-.04,0-.09,0-.13,0-.02,0-.05,0-.07v-.09c.02-.67.04-1.34.83-1.68l.07-.83c.09-.13.18-.27.27-.4.09-.13.18-.27.27-.4.1-.15.2-.3.31-.44.07-.1.13-.2.2-.29l.05-.07.06-.08c0-.12,0-.25-.01-.38h0c0-.06,0-.13,0-.19.14-.23.27-.47.4-.7s.27-.46.4-.7c.11-.33.21-.65.32-.98h0c.11-.34.22-.66.32-.99,0-.19,0-.39.01-.58h0c.18-.56.36-1.12.55-1.67.04-.24.08-.47.13-.7h0c.04-.24.08-.47.13-.71,0-.06,0-.12-.01-.19,0-.03,0-.06,0-.09,0-.29,0-.57.01-.86h0c0-.3,0-.58.01-.87,0-.06,0-.12,0-.18,0-.06,0-.12,0-.18,0-.16-.02-.31-.03-.47-.03-.35-.05-.71-.03-1.06.02-.34.1-.67.17-1.01.03-.15.06-.3.09-.45l.07-3.41-.03-3.63h-.01Zm-54.81-8.19c.17-.19.34-.38.51-.58.06-.07.13-.13.19-.2.14-.14.28-.29.4-.45.45-.59.9-1.2,1.35-1.8,1.01-1.36,2.01-2.72,3.12-3.99.62-.71,1.34-1.33,2.06-1.95.63-.54,1.25-1.08,1.82-1.68.46-.49.77-1.11,1.09-1.73.15-.29.29-.58.45-.86.02-.04.04-.08.07-.12.08-.14.16-.29.27-.39.84-.74,1.06-1.68,1.28-2.68.06-.28.13-.57.21-.86.66-2.35-.56-3.55-1.8-4.76-.42-.41-.85-.83-1.2-1.29-.55-.73-1.05-1.51-1.54-2.28-.19-.29-.37-.59-.57-.88-.08-.12-.15-.26-.21-.39-.12-.25-.24-.51-.44-.64-1.38-.93-1.83-2.35-2.28-3.77-.09-.29-.18-.57-.28-.85-.08-.24-.23-.47-.37-.69-.34-.54-.68-1.07-.24-1.9.5-.92.87-1.92,1.23-2.92.15-.42.31-.84.47-1.25-.02-.06-.02-.12.01-.18.04-.12.06-.26.09-.4.05-.29.11-.58.28-.74.92-.79,1.26-1.84,1.6-2.89.19-.6.39-1.2.69-1.74.28-.51.47-1.07.65-1.63.36-1.09.72-2.19,1.82-2.91.41-.27.66-.81.89-1.33.06-.14.12-.28.19-.41.32-.64.63-1.3.93-1.95.36-.76.71-1.52,1.09-2.27,1.02-2.01,2.05-4,3.15-5.96.48-.85,1.03-1.66,1.59-2.5h0c.25-.38.51-.76.77-1.16.01.01.04.03.07.05.08.05.19.12.19.19-.11,1.35-.25,2.69-.4,4.03,0,.03-.02.07-.03.1-.02.06-.04.12-.02.16.53,1.19.28,2.36.03,3.51-.19.85-.37,1.69-.23,2.52.18,1.05.09,2.05.01,3.05-.04.51-.08,1.01-.09,1.53-.01.02-.02.04-.03.07-.03.06-.07.13-.11.19-.02.24-.04.47-.06.71-.02.24-.04.47-.06.71.89.43.59,1.05.28,1.66l-.02.04h0c-.07.23-.14.45-.21.67l-.05.16c0,.35-.01.69-.02,1.04-.02.84-.04,1.68-.01,2.53.02.48.08,1.09.38,1.41,1.43,1.55,2.91,3.08,4.46,4.51.77.71,1.59,1.37,2.4,2.03.6.48,1.2.96,1.78,1.47.21.18.37.42.54.66.19.27.37.55.63.72,2.82,1.96,5.25,4.35,7.67,6.75l.36.35c1.47,1.45,1.42,1.54.63,2.73-.13.19-.27.42-.44.68-.36.57-.64,1.19-.9,1.81l-.03.06c-.76,1.8-1.52,3.6-3.07,4.92-.11.09-.28.24-.26.32.29,1.17-.37,1.8-1.04,2.43-.39.37-.79.75-.98,1.23-.34.84-.72,1.66-1.09,2.48-.18.4-.37.8-.55,1.2-.14.31-.27.61-.41.92-.44,1-.89,1.99-1.33,2.99-.15.34-.3.68-.45,1.02-.15.34-.3.68-.45,1.02l.02,1.53v.76l-.05,2.32c.58,3.14,1.15,6.29,1.72,9.43.04.23.04.46.04.69,0,.11,0,.22,0,.33-.02.02-.03.04-.05.06-.02.02-.03.04-.05.05-.03.04-.07.07-.1.11-.02.11-.05.23-.07.34v.2l.07.32s.02.03.04.04l.03.03c.05.05.09.1.13.16.02.3.06.61.09.92.09.76.18,1.51.04,2.23-.07.38-1.19.82-1.8.79-1.36-.08-2.72-.31-4.06-.54-.27-.05-.53-.09-.8-.14-.74-.13-1.47-.29-2.2-.45-.32-.07-.64-.14-.97-.21-.03,0-.06-.02-.1-.03l-.07-.02-.2-.06h0c-.12-.04-.24-.07-.36-.11-.63-.16-1.26-.32-1.89-.48h0s0,0,0,0c-1.41-.36-2.82-.72-4.24-1.05-.42-.1-.85-.13-1.29-.16-.16-.01-.32-.02-.48-.04-.95-.1-1.9-.19-2.85-.29h0c-.95-.1-1.89-.19-2.84-.29l-.27-.24-1.69-3.71c-.08-.38-.17-.75-.26-1.13h0c-.09-.38-.17-.75-.26-1.13-.16-.7-.32-1.4-.47-2.1h0c-.16-.7-.31-1.4-.47-2.1-.03-.1-.06-.2-.1-.29-.03-.1-.07-.2-.1-.29-.14-.8-.28-1.59-.42-2.39-.14-.8-.28-1.59-.42-2.39h-.02s.08-.08.12-.12l.15-.17Zm25.08,57.78c-.56-.22-1.13-.42-1.7-.61-.78-.27-1.56-.55-2.32-.86-.25-.11-.47-.3-.69-.49-.24-.2-.47-.41-.75-.51-.61-.21-1.23-.38-1.85-.54-.63-.17-1.25-.33-1.86-.55-.24-.08-.44-.28-.64-.48-.2-.19-.4-.39-.63-.47-.06-.02-.12-.04-.17-.06l-.27-.09c-1.66-.58-3.3-1.15-4.72-2.31-.32-.26-.76-.35-1.22-.44-.33-.07-.67-.13-.96-.27-.87-.41-1.3-1.07-1.06-2.15.1-.46.03-.95-.03-1.44-.03-.23-.06-.45-.08-.68-.07-1.02-.13-2.03-.19-3.04l-.02-.36c1.18.05,2.37.05,3.55.05,2.65,0,5.26-.01,7.71.62,1.86.49,3.72.5,5.58.53,1.9.02,3.8.04,5.71.56.04.5.06,1.03.08,1.55.06,1.54.12,3.16.78,4.61,0,.27,0,.54,0,.81,0,.57-.01,1.12.01,1.67.07,1.39.16,2.78.26,4.29h0c.05.81.11,1.66.16,2.57-.58-.24-1.12-.46-1.65-.68h0s0,0,0,0c-1.07-.44-2.04-.85-3.02-1.23h0Zm26.6-46.78c-.04.09-.08.19-.11.28.01.09.02.19.04.28l.02.12c0,.06.01.11.02.16,0,.12-.02.25-.03.37,0,.12-.02.25-.03.37l-.07.1.17.84v.59l.03.16c.06.35.13.69.19,1.03,0,.16,0,.32,0,.48h0c0,.08,0,.17,0,.25l-.49.89c-.02.19-.05.37-.07.56l-.17,1.7c-.04.14-.07.28-.11.42-.04.14-.07.28-.11.42l.03.57c0,.05.01.1.02.15,0,.04,0,.08.01.11h0c.01.09.02.18.03.26-.03.03-.05.07-.08.1-.06.07-.12.14-.17.22-.12.48-.24.97-.36,1.45-.09.36-.18.72-.27,1.08l-.5,1.7-.03.1c-.04.15-.08.3-.12.45-.07.14-.14.29-.21.43-.07.14-.14.29-.21.43-.09.24-.17.47-.26.71h0c-.12.32-.24.65-.35.97-.07.19-.14.38-.21.57l-.29.84h0c-.47.95-.95,1.89-1.42,2.84-.12.18-.23.36-.35.54-.12.18-.23.36-.35.54-.07.1-.15.2-.22.3-.07.1-.14.2-.22.3h0c-.15.19-.3.38-.46.57l-.12.52c-.05.03-.11.06-.16.09l-.12.07c-.09.05-.18.1-.28.15-.27.29-.54.57-.8.85-.27.28-.53.57-.8.85-.06.03-.13.07-.19.1-.06.03-.13.07-.19.1l-.7.32h0c-1.62.72-3.24,1.45-4.86,2.15-.11.05-.27-.01-.42-.07-.08-.03-.15-.06-.22-.07-.47-.02-.94-.04-1.41-.07-.09,0-.19,0-.28.01h0c-.66.1-1.32.2-1.98.3-.19-.05-.37-.1-.56-.15-.19-.05-.38-.1-.56-.15h-.57c-.61.1-1.22.19-1.83.28-.61.09-1.22.19-1.83.28-.56,0-1.13-.01-1.7-.01-.57,0-1.13,0-1.7-.01h-.55c-.24-.03-.47-.06-.71-.1-.24-.03-.47-.06-.71-.1-.05,0-.11,0-.16-.01-.07,0-.13,0-.2-.01h-.06c-.14-.01-.28-.02-.42-.04-.09-.04-.19-.08-.28-.12-.09-.04-.19-.08-.28-.12h-.13s-.13,0-.13,0c-.1.08-.2.16-.31.23-.19-.1-.37-.2-.56-.3-.19-.1-.38-.2-.56-.3-.1,0-.19-.02-.29-.03-.1-.01-.19-.02-.29-.03-.47-.03-.94-.07-1.41-.1-.47-.03-.94-.06-1.41-.1-.06,0-.11-.02-.17-.03-.03,0-.06-.01-.1-.01-.07-.01-.14-.02-.21-.03l-.1-.02c-.19-.03-.38-.06-.58-.09l-.12-.02-.12.02s-.09,0-.14,0h-.07s-.08-.01-.08-.01c-.04,0-.09,0-.13,0h-.05s-.07,0-.11-.01c-.18.01-.36.02-.54.03-.13,0-.27,0-.4,0-.27,0-.54,0-.8-.04-.77-.1-1.53-.21-2.3-.32-1.26-.18-2.53-.36-3.79-.5-1.14-.13-2.29-.21-3.43-.29h0c-.48-.03-.96-.07-1.44-.1-.14-.04-.28-.09-.42-.13-.14-.04-.28-.09-.42-.13-.14,0-.28,0-.43.01-.14,0-.29,0-.43.01-.28,0-.56-.01-.84-.02l-.15-.03c-.33-.06-.66-.12-1-.17-.14,0-.27,0-.41-.01-.14,0-.27,0-.41-.01-.15,0-.29,0-.44.01-.15,0-.29,0-.44.01h-.02c-.16,0-.33-.01-.49-.02-.24.04-.49.07-.73.11-.24.04-.49.07-.73.11-.28.02-.56.03-.84.05-.28.01-.56.03-.84.05-.23.05-.47.1-.7.15-.23.05-.47.1-.7.15-.07-.05-.14-.1-.21-.15-.07-.05-.14-.1-.21-.15-.07-.01-.15-.03-.22-.04-.07-.01-.15-.03-.22-.04h-.85c-.14.01-.28.03-.42.04-.14.01-.28.03-.42.04-.02.03-.05.07-.07.1l-.07.1c-.04.05-.07.11-.11.16l-.03.04c-.05-.06-.1-.13-.15-.19-.02-.02-.04-.05-.05-.07-.01-.01-.02-.03-.03-.04-.02-.03-.04-.05-.06-.08-.02,0-.05-.01-.07-.02l-.15-.04s-.04-.01-.06-.02h-.28c-.28.12-.55.23-.83.35-.4.17-.79.33-1.19.5-.89,1.03-2.07,1.35-3.37,1.38l-.03.02-1.09.56c-.28.11-.55.23-.82.34-.14.03-.29.06-.43.1-.14.03-.29.07-.43.1-.18.07-.37.13-.55.2-.11.04-.23.09-.34.13-.18.1-.35.2-.53.3-.18.1-.35.2-.53.3-.47.06-.94.12-1.4.19-.07.03-.14.06-.21.1-.07.03-.14.06-.21.1.08-.11.17-.22.25-.33h0s.06-.08.06-.08c.32-.82.64-1.63.96-2.44l.02-.05c.19-.48.38-.96.57-1.44.19-.29.37-.58.56-.87l-.08.04-.04-.08.66-1.01v-.02c.1-.14.19-.28.28-.42.09-.14.18-.28.27-.42.29-.33.57-.66.86-.99h0c.29-.34.57-.67.86-1,.09-.14.18-.29.26-.43.09-.14.18-.29.26-.43.14-.14.28-.28.42-.42.14-.14.28-.28.42-.42.1-.13.2-.26.3-.4.1-.13.2-.26.3-.4l.02-.02c.28-.38.57-.77.85-1.15h0s.22-.3.22-.3c.03-.03.07-.06.1-.09.06-.06.12-.12.18-.17.11-.12.22-.23.32-.35.23-.25.45-.49.68-.74.23-.11.46-.23.69-.34l1.42-1.42c.14-.14.28-.27.42-.41.14-.14.28-.27.42-.41.05-.03.09-.06.14-.09.05-.03.09-.06.14-.09.1-.02.19-.04.29-.06h0c.09-.02.19-.04.28-.06.05-.03.1-.05.15-.08.14-.07.27-.15.41-.22h-.01c.38-.22.76-.45,1.14-.67h0c.38-.23.76-.46,1.14-.69.02-.03.04-.05.05-.08.03-.04.06-.08.08-.12.05-.07.09-.13.14-.2l.98-.47c.26-.08.52-.17.78-.25.26-.08.52-.17.78-.25.07-.05.16-.07.24-.07.19-.08.39-.16.58-.24.19-.08.39-.16.58-.24.2-.1.41-.2.62-.29h0c.63-.3,1.26-.61,1.89-.91.19-.08.39-.17.58-.25.19-.08.39-.17.58-.25.22-.06.44-.13.66-.19h0c.16-.05.31-.09.46-.14.26-.8.74-.66,1.22-.53.26.07.53.15.75.07,1.41.07,2.82.15,4.24.21l.28-.03c.09,0,.19-.02.28-.03.08,0,.17.02.25.03l.4.04c.81.08,1.62.17,2.42.26.35.04.69.1,1.03.17h0c.13.03.27.05.4.07l2.29.52-.03.09h1.43c.75.28,1.5.56,2.26.85.19,0,.38,0,.56-.01.05,0,.1,0,.14-.01.05,0,.1,0,.14-.01.14.05.28.09.41.13.14.04.27.09.41.13.24.06.48.12.72.17.24.06.48.12.72.17.07.06.14.12.22.18h0s.04.04.04.04c.38.06.76.11,1.14.17l1.14.17h.89l.24.05h0s0,0,0,0c.47.1.93.19,1.4.28.19.04.38.08.57.12.19.04.38.08.57.12,1.03.11,2.07.21,3.11.32.28-.05.57-.11.85-.16.28-.05.57-.11.85-.16.08-.05.18-.06.28-.05.11-.11.05-.31,0-.5-.1-.34-.2-.69.59-.55h0c.28-.12.55-.24.83-.36.39-.11.78-.23,1.16-.34h0c.27-.08.54-.16.81-.24h0c.11-.05.22-.1.33-.15.08-.04.17-.08.25-.12.08-.04.16-.09.24-.14l.08-.05c.06-.03.12-.07.17-.1.05-.03.1-.05.14-.08.35-.31.69-.62,1.04-.93l.32-.28c.14-.07.28-.13.42-.2h0c.14-.07.28-.14.42-.2l1.98-.78c.09-.02.19-.03.28-.05l.71-.53c.24-.18.47-.35.71-.53.19-.03.37-.06.56-.08l.61-.22c.08-.11.17-.22.25-.33.05-.03.09-.07.14-.1.05-.04.09-.07.14-.1,1.29-.14,2.1-.97,2.9-1.81.37-.38.74-.76,1.15-1.08-.21-.86.31-1.12.83-1.38.31-.16.62-.31.77-.59.42-.53.84-1.05,1.27-1.58h0c.23-.29.47-.58.7-.88.05-.01.1-.02.15-.04.05-.01.1-.03.15-.04.06-.07.11-.14.16-.2l.08.2c.08.28.17.55.26.82.42.55.64,1.06-.21,1.42v-.02Z"/><path class="cls-2" d="m50.01,174.94c.12,1.54.23,3.02.33,4.43v.36c0,.24.06.52.18.83.14.29.42.55.83.79.43.24,1.07.36,1.92.36.58,0,1.25-.01,2.02-.04.8-.05,1.63-.16,2.49-.32.89-.19,1.75-.53,2.57-1.01s1.54-1.15,2.17-2.02c.65-.89,1.13-2.03,1.45-3.42.34-1.39.43-3.11.29-5.15-.12-1.73-.46-3.15-1.01-4.25-.55-1.13-1.24-2.02-2.06-2.67-.8-.65-1.64-1.12-2.53-1.41-.87-.31-1.69-.5-2.46-.58-.75-.07-1.36-.1-1.84-.07l-.72.04-.72.07c-.46.05-.99.13-1.59.25-.6.12-1.14.3-1.63.54-.46.24-.69.55-.69.94,0,.22.08.42.25.61l.25.25-.22.32c-.12.19-.14.57-.07,1.12.05.29.11.94.18,1.95.07.99.16,2.19.25,3.6.12,1.42.24,2.91.36,4.47Zm5.79,3.71l-1.59-14.6c.48-.07.96-.07,1.45,0,.48.07.93.34,1.34.79.43.46.8,1.21,1.08,2.27.31,1.03.52,2.49.61,4.36.1,1.49.06,2.7-.11,3.64-.17.91-.41,1.62-.72,2.13-.29.51-.6.85-.94,1.04-.31.19-.58.3-.8.33l-.33.04Z"/><path class="cls-2" d="m76.36,167.15c-.84-.24-1.87-.35-3.07-.32l-.72.07c-.48.05-1.08.18-1.81.4-.7.22-1.41.58-2.13,1.08-.72.5-1.34,1.21-1.84,2.13-.51.89-.77,2.04-.8,3.46-.02,1.42.23,2.61.76,3.57.53.94,1.19,1.69,1.99,2.27.82.55,1.63.97,2.42,1.26.82.26,1.51.44,2.06.54l.83.11h.65c.43,0,.89-.02,1.37-.07.51-.07.87-.19,1.08-.36l.11.14c.07.1.27.18.58.25.31.07.82.08,1.52.04.94-.07,1.62-.21,2.02-.4.41-.22.65-.53.72-.94.1-.41.14-.95.14-1.62,0-.41-.04-.97-.11-1.69-.07-.72-.16-1.49-.25-2.31s-.2-1.6-.33-2.34c-.1-.74-.18-1.36-.25-1.84l-.11-.72-.18-.32c-.12-.24-.31-.37-.58-.4-.14,0-.37-.12-.69-.36-.31-.24-.75-.52-1.3-.83-.55-.31-1.25-.58-2.1-.79Zm-1.16,2.85c.41.19.67.37.8.54l.58,5.88-.14.36c-.1.24-.23.53-.4.87-.17.31-.37.6-.61.87-.24.24-.49.36-.76.36-.36,0-.76-.19-1.19-.58-.41-.38-.76-.94-1.05-1.66-.29-.72-.42-1.57-.4-2.56.02-.99.16-1.83.4-2.52.27-.72.52-1.26.76-1.62.27-.38.4-.59.4-.61,0-.05.17,0,.51.14.36.15.74.32,1.12.54Z"/><path class="cls-2" d="m94.12,181.03l.54-.22c.07,1.01.05,1.93-.07,2.78-.12.84-.31,1.51-.58,2.02-.27.51-.58.76-.94.76-.53,0-1.02-.2-1.48-.61-.43-.38-.76-.66-.98-.83-.14-.12-.31-.28-.51-.47-.19-.19-.51-.37-.94-.54-.41-.14-1.04-.22-1.88-.22s-1.45.11-1.81.32c-.34.22-.52.49-.54.83,0,.34.07.67.22,1.01.14.34.59.79,1.34,1.37.75.6,1.78,1.13,3.11,1.59,1.35.48,3,.71,4.95.68,1.45-.02,2.58-.29,3.4-.79.82-.48,1.4-1.15,1.74-2.02.36-.84.58-1.81.65-2.92.1-1.08.13-2.25.11-3.5-.02-1.25-.12-2.47-.29-3.68-.17-1.22-.36-2.34-.58-3.35-.19-1.03-.37-1.9-.54-2.6-.17-.7-.25-1.14-.25-1.33,0-.26-.22-.6-.65-1.01-.43-.43-1.07-.81-1.92-1.12-.84-.34-1.88-.47-3.11-.4-.92.05-1.9.24-2.97.58-1.04.34-2.02.84-2.96,1.51-.94.67-1.71,1.53-2.31,2.56-.6,1.01-.93,2.24-.98,3.68-.02,1.44.2,2.6.69,3.46.51.87,1.15,1.53,1.92,1.98.77.46,1.54.77,2.31.94.8.15,1.46.22,1.99.22.72,0,1.37-.07,1.95-.22.58-.17,1.04-.32,1.37-.47Zm-2.53-10.52c.63-.65,1.35-1.01,2.17-1.08l.25.04c.17.02.27.17.29.43,0,.17.05.57.14,1.19.1.62.16,1.37.18,2.24.05.84,0,1.67-.14,2.49-.12.79-.4,1.47-.83,2.02-.41.55-1.02.83-1.84.83s-1.41-.29-1.77-.87c-.36-.6-.53-1.35-.51-2.24.05-.89.25-1.79.61-2.7.36-.91.84-1.69,1.45-2.34Z"/><path class="cls-2" d="m112.41,181.03l.54-.22c.07,1.01.05,1.93-.07,2.78-.12.84-.31,1.51-.58,2.02-.27.51-.58.76-.94.76-.53,0-1.02-.2-1.48-.61-.43-.38-.76-.66-.98-.83-.14-.12-.31-.28-.51-.47-.19-.19-.51-.37-.94-.54-.41-.14-1.04-.22-1.88-.22s-1.45.11-1.81.32c-.34.22-.52.49-.54.83,0,.34.07.67.22,1.01.14.34.59.79,1.34,1.37.75.6,1.78,1.13,3.11,1.59,1.35.48,3,.71,4.95.68,1.45-.02,2.58-.29,3.4-.79.82-.48,1.4-1.15,1.74-2.02.36-.84.58-1.81.65-2.92.1-1.08.13-2.25.11-3.5-.02-1.25-.12-2.47-.29-3.68-.17-1.22-.36-2.34-.58-3.35-.19-1.03-.37-1.9-.54-2.6-.17-.7-.25-1.14-.25-1.33,0-.26-.22-.6-.65-1.01-.43-.43-1.07-.81-1.92-1.12-.84-.34-1.88-.47-3.11-.4-.92.05-1.9.24-2.96.58-1.04.34-2.02.84-2.96,1.51-.94.67-1.71,1.53-2.31,2.56-.6,1.01-.93,2.24-.98,3.68-.02,1.44.2,2.6.69,3.46.51.87,1.15,1.53,1.92,1.98.77.46,1.54.77,2.31.94.8.15,1.46.22,1.99.22.72,0,1.37-.07,1.95-.22.58-.17,1.04-.32,1.37-.47Zm-2.53-10.52c.63-.65,1.35-1.01,2.17-1.08l.25.04c.17.02.27.17.29.43,0,.17.05.57.14,1.19.1.62.16,1.37.18,2.24.05.84,0,1.67-.14,2.49-.12.79-.4,1.47-.83,2.02-.41.55-1.02.83-1.84.83s-1.41-.29-1.77-.87c-.36-.6-.53-1.35-.51-2.24.05-.89.25-1.79.61-2.7.36-.91.84-1.69,1.45-2.34Z"/><path class="cls-2" d="m133.99,173.75c.6-.74.94-1.72,1.01-2.92,0-.17-.06-.47-.18-.9-.1-.43-.37-.89-.83-1.37-.46-.48-1.19-.89-2.21-1.23-1.01-.34-2.42-.49-4.23-.47-1.45.02-2.64.22-3.58.58-.92.36-1.64.83-2.17,1.41-.53.58-.93,1.19-1.19,1.84-.24.62-.4,1.23-.47,1.8-.05.58-.07,1.04-.07,1.41s.06.86.18,1.51c.14.62.37,1.31.69,2.05.34.72.82,1.42,1.45,2.09.63.65,1.42,1.18,2.39,1.59.96.41,2.16.6,3.58.58,1.47-.02,2.68-.16,3.62-.4.94-.26,1.68-.55,2.21-.86.53-.31.89-.58,1.08-.79l.33-.36.18-.36c.14-.26.22-.55.22-.86.02-.34-.14-.62-.51-.87-.34-.26-1-.4-1.99-.4-.87,0-1.59.11-2.17.32-.55.19-.96.4-1.23.61l-.4.32-.29.22c-.17.15-.4.28-.69.4-.29.1-.6.12-.94.07-.31-.05-.6-.25-.87-.61-.27-.36-.47-.96-.61-1.8h.83c.58,0,1.29-.06,2.13-.18.84-.14,1.69-.4,2.53-.76.87-.38,1.6-.94,2.21-1.66Zm-4.92-.83c-.72.5-1.82.82-3.29.94l.04-.68c.02-.48.11-1.03.25-1.66.14-.65.4-1.21.76-1.69.36-.5.89-.77,1.59-.79.7-.05,1.22.16,1.55.61.36.43.48.96.36,1.59-.12.62-.54,1.19-1.27,1.69Z"/><path class="cls-1" d="m139.28,177.89c.07.65.11,1.1.11,1.37v.4c.02.24.12.52.29.83.17.31.48.6.94.87.46.24,1.13.36,2.02.36s1.54-.12,1.95-.36c.41-.24.66-.52.76-.83.12-.34.16-.64.11-.9-.02-.29-.04-.46-.04-.5s-.05-.34-.14-.87c-.1-.55-.18-1.23-.25-2.02-.07-.82-.07-1.63,0-2.45.1-.84.33-1.57.69-2.2.36-.65.92-1.06,1.66-1.23,1.28-.31,2.16-.53,2.64-.65.51-.14.79-.29.87-.43.07-.14.11-.36.11-.65,0-.38-.26-.75-.79-1.08-.53-.34-1.39-.52-2.57-.54-.92-.02-1.8.04-2.64.18-.82.14-1.41.4-1.77.76l-.65-.32c-.41-.24-1.08-.31-2.02-.22s-1.68.3-2.21.61c-.51.29-.64.79-.4,1.51.1.29.2.77.33,1.44.14.65.28,1.39.4,2.24.12.82.23,1.65.33,2.49.12.82.22,1.55.29,2.2Z"/></svg>