<?xml version="1.0" encoding="UTF-8"?><svg id="Layer_1" xmlns="http://www.w3.org/2000/svg" viewBox="0 0 200 200"><defs><style>.cls-1,.cls-2{fill:#ffffff;}.cls-2{fill-rule:evenodd;}</style></defs><path class="cls-1" d="m125.04,98.52c1.02-.46,1.54.26,1.86.96h0c.75,1.65,1.49,3.33,2.02,5.06.15.48.02,1.03-.1,1.59-.06.26-.11.52-.14.77-.28,0-.61.02-.93.05-.72.06-1.44.12-1.71-.2-.48-.57-.66-1.39-.83-2.21-.07-.32-.14-.65-.23-.95-.03-.11-.04-.22-.05-.34,0-.14-.02-.28-.07-.4-.7-1.48-.37-2.91.18-4.34Z"/><path class="cls-2" d="m139.32,90.09l-.49-.07c-.19,0-.38,0-.57-.01-.09,0-.19,0-.28,0h-.56l-.85.02c-.09,0-.18,0-.27.01h-.02c-.65,0-1.3,0-1.95-.01h-.02c-.45.12-.91.24-1.36.36-1.09.28-2.18.57-3.26.89-.32.1-.6.3-.89.5-.13.09-.27.19-.41.27l-.54.34c-.17.12-.35.25-.52.37-.4.29-.79.57-1.21.82-.23.13-.49.21-.75.29-.12.04-.24.07-.36.11l-.56.51c-.09.06-.19.11-.28.17-.09.05-.19.11-.28.17l-.57.03s-.05.05-.08.07c-.02.02-.05.05-.07.07-.05.05-.1.1-.15.15-.04.04-.09.07-.13.11-.02.02-.05.04-.07.06-.02.02-.04.03-.06.05-.19.15-.37.31-.56.46-.19.15-.37.31-.56.46l-.29.2c-.68-.02-1.18.12-1.51.88-.12.28-.48.47-.84.65-.16.08-.32.16-.46.25l-.51.44c-.59.79-1.17,1.58-1.76,2.38.08.04.15.08.23.12-.08.02-.15.03-.23.05-.19.25-.37.5-.55.75h0c-.18.26-.37.51-.55.76-.05.05-.1.09-.15.13-.05.04-.1.09-.15.13-.29.47-.59.93-.88,1.4h0c-.3.49-.59.96-.89,1.43-.07.19-.13.38-.19.57-.16.38-.31.75-.46,1.13h0c-.15.38-.31.75-.46,1.13l-.2.29c-.06.09-.12.19-.17.28-.06.09-.12.19-.17.28-.07.1-.14.2-.21.31h0c-.03.37-.06.73-.08,1.1l-.2.3c-.02.08-.02.15,0,.23v.61c-.84,1.08-.62,2.18-.4,3.3.08.4.16.79.19,1.19h1.05c.07-.07.15-.13.22-.2h0c.07-.07.15-.13.22-.2v.02c.12-.35.23-.7.34-1.04.11-.35.23-.7.34-1.04.17.07.35.13.53.2.41.15.81.3,1.19.51.33.18.63.42.93.66.15.12.3.24.45.35l.25.2c.8,0,1.6.02,2.4.02.8,0,1.6.01,2.4.02.52-.14,1.03-.27,1.55-.41h0s0,0,0,0c.52-.14,1.03-.27,1.55-.41.05-.01.1-.02.15-.04.05-.01.1-.03.15-.04l1.96-1.09c.08-.04.16-.06.25-.06.2-.19.39-.37.59-.56l1.15-.83c.03-.07.06-.15.08-.23.06-.18.12-.36.24-.48.99-.99,2.01-1.96,3.03-2.92l.3-.28s.11-.03.18-.03c.03,0,.07,0,.1,0,.09-.12.19-.23.28-.35.26-.32.53-.65.78-.98.05-.07.1-.14.14-.21.06-.1.13-.21.21-.29.41-.4.84-.79,1.26-1.19.14-.13.27-.25.41-.38.09-.14.18-.29.28-.43h0c.09-.15.18-.29.28-.43h0s.08-.11.12-.17c.06-.08.11-.16.17-.24.05-.07.1-.14.15-.22.05-.07.1-.14.14-.2.05-.09.11-.18.16-.28s.11-.18.16-.28c.16-.3.33-.61.5-.91.23-.55.47-1.1.7-1.65.24-.55.47-1.1.7-1.65.04-.11.09-.22.14-.33.04-.11.09-.22.13-.33.25-.41.49-.82.73-1.22.25-.41.49-.81.74-1.22.09-.24.18-.47.27-.71.09-.24.18-.47.27-.71l.54-.56h0c.12-.75.24-1.5.35-2.25-.05-.06-.11-.12-.16-.18-.05-.06-.11-.12-.16-.18-.39-.17-.78-.34-1.16-.51h0c-.38-.17-.77-.34-1.15-.51v-.04Zm-2,4.44c-.17.43-.3.87-.44,1.32-.19.62-.38,1.24-.66,1.82-.21.42-.52.79-.83,1.16-.27.32-.54.64-.75,1-1.52,2.65-3.23,5.16-5.35,7.37-.1.11-.25.17-.39.24-.07.03-.14.06-.2.1-.04.09-.07.17-.11.26h0c-.15.16-.3.32-.46.47-.36.3-.73.59-1.1.88-.83.65-1.66,1.3-2.39,2.05-1.05,1.06-2.38,1.36-3.7,1.65-.51.11-1.03.23-1.53.39-.53.17-1.22,0-1.8-.14h0c-.85-.22-1.7-.48-2.55-.74-.37-.11-.74-.23-1.12-.34.07-.21.15-.45.22-.7.18-.6.39-1.27.71-1.89.35-.67.76-1.31,1.16-1.96.59-.93,1.17-1.86,1.58-2.85,1.26-3.03,3.67-4.78,6.28-6.4.1-.07.2-.15.29-.21h.57c3.09-1.99,6.27-3.8,9.86-4.74.62-.16,1.32-.25,1.94-.14.66.12,1.09.57.77,1.4h0Z"/><path class="cls-2" d="m157.45,106.11v-1.68c-.32-.56-.63-1.13-.95-1.69-.49-.88-.99-1.76-1.48-2.63l-.06-.06c-.4-.53-.8-1.06-1.2-1.58-.95-1.23-1.89-2.47-2.75-3.75-.45-.68-.77-1.45-1.08-2.22-.14-.34-.28-.68-.43-1.01l-.46-.88c-.02-.06-.05-.12-.07-.18-.08-.21-.17-.43-.24-.64-.19-.56-.37-1.12-.55-1.68,0-.66,0-1.31-.01-1.97h0c0-.2.01-.38.02-.56,0-.14,0-.29-.01-.43,0-.14,0-.28-.01-.43,0-.42-.01-.84-.01-1.27,0-.42,0-.85-.01-1.27-.55-1.38-.79-2.78-.75-4.29.02-.86-.1-1.71-.22-2.56-.16-1.18-.33-2.37-.13-3.58,0-.19.01-.37.01-.56,0-.19,0-.37.01-.56,0-.66,0-1.32-.01-1.98,0-.47,0-.94,0-1.4,0-.47,0-.94,0-1.4,0-.1,0-.2-.01-.29h0c0-.09,0-.19-.01-.28l.02-.56v-5.92c-.01-.28-.03-.56-.04-.84-.01-.28-.03-.56-.04-.84l-.17-1.99-.59-2.81c.04-.17.07-.34.1-.51.04-.21.08-.41.13-.61l-.28-.28-.21-.19c.07-.03.13-.07.21-.1-.08-.29-.17-.57-.26-.86-.21-.69-.42-1.38-.57-2.08-.06-.31-.07-.64-.07-.97,0-.41,0-.82-.13-1.19-.21-.63-.36-1.28-.51-1.93-.35-1.51-.71-3.02-1.79-4.25-.03-.09-.04-.17-.06-.27-.13-.17-.27-.34-.4-.5h0c-.24-.31-.48-.61-.72-.91-.09-.1-.18-.19-.28-.28-.09-.09-.19-.19-.28-.28-.14-.14-.28-.28-.42-.42-.14-.14-.28-.28-.42-.42l-.29-.29c-.19-.06-.38-.11-.57-.17-.19-.05-.38-.11-.57-.17-.05-.03-.1-.07-.14-.1-.05-.03-.1-.06-.14-.1l-.79-.61-.32-.27c-.2-.06-.4-.1-.61-.14-.73-.14-1.45-.27-1.65-1.26-.08,0-.16,0-.24-.01-.65-.03-1.24-.06-1.65-.92-.18-.38-.74-.58-1.29-.78-.24-.09-.49-.18-.7-.28-.04-.06-.07-.12-.11-.18-.04-.06-.07-.12-.11-.18-1.49-1.01-3.09-1.57-4.91-1.34-.36.17-.72.34-1.09.5-.83.37-1.67.75-2.43,1.24-.74.48-1.4,1.08-2.07,1.68-.29.26-.58.52-.88.78-.14.01-.28.02-.42.03-.14,0-.28.02-.42.03l-.27.27c-.19.19-.38.38-.57.57-.19.19-.38.38-.57.57-.08.2-.19.4-.31.6-.24.44-.49.88-.43,1.29.23,1.68.35,1.7,1.8,2.01.1.02.21.04.32.07.87.18,1.71.49,2.55.8.38.14.75.28,1.13.4.08.06.17.12.26.19v.02c.15.09.3.17.45.26.15.09.3.17.44.26.54.44,1.19.71,1.83.97.89.37,1.78.74,2.42,1.57.29.38.7.68,1.1.97.18.14.37.27.54.41.1.14.19.29.29.43h0c.09.15.19.29.28.43.11.52.21,1.03.32,1.55.11.52.21,1.03.32,1.55l.15,1.15c.03.23.07.47.11.7h0c.09.58.18,1.16.21,1.74.02.41-.05.83-.11,1.25-.02.16-.05.32-.07.47-.32-.27-.63-.54-.94-.81-.03-.03-.07-.06-.1-.08h0s-.07-.06-.1-.09c.03-.01.07-.03.1-.04l.04-.02s.04-.02.06-.02c0-.19,0-.38,0-.57-.37-.2-.74-.39-1.12-.59-.29-.09-.48-.35-.67-.6-.31-.4-.61-.81-1.3-.55-.38-.23-.75-.45-1.13-.67-.38-.22-.75-.45-1.13-.67l-.56-.07-.24-.24c-.07-.08-.14-.16-.21-.23h0c-.13-.15-.26-.3-.39-.45l-.59-.68c-.14-.1-.28-.2-.42-.3-.14-.1-.28-.2-.43-.3-.09-.06-.18-.12-.27-.17-.09-.06-.18-.12-.27-.17-.04-.04-.07-.07-.11-.11-.04-.04-.07-.08-.11-.11-.57-.48-1.14-.96-1.71-1.45-.57-.48-1.15-.97-1.72-1.45-.09-.08-.18-.16-.28-.24-.09-.08-.18-.16-.28-.24l-4.24-3.97-1.08-.54c-.02-.09-.05-.18-.07-.28l-.31-.55c-.14-.13-.28-.27-.42-.4h0c-.23-.23-.47-.45-.71-.67-.19-.17-.38-.33-.57-.49-.08-.06-.15-.13-.22-.19-.23-.23-.45-.46-.68-.68-.23-.23-.45-.46-.68-.68l-.91-1.08-.56-.29c-.23-.21-.45-.41-.68-.62-.5-.46-1.01-.91-1.5-1.38-.94-.91-1.87-1.83-2.81-2.75h0c-.4-.4-.8-.79-1.2-1.18l-.56-.06c-.23-.19-.46-.39-.69-.58-.53-.45-1.05-.9-1.63-1.26-.09-.06-.18-.11-.28-.17-.74-.46-1.58-.97-2.35-.95-2.03.06-4.08.32-5.83,1.64-.47.35-1.04.58-1.61.8-.26.1-.52.21-.78.32-.19.08-.37.17-.56.25-.58.26-1.16.52-1.73.81-.65.34-1.29.68-1.93,1.03-.54.3-1.09.59-1.64.88-.21.11-.43.19-.65.27-.1.04-.21.07-.31.11-.09.05-.19.1-.28.15-.09.05-.19.1-.28.15-.05.04-.09.07-.14.11h0s-.09.07-.14.11c-.09.09-.17.19-.25.29-.18.22-.36.43-.58.59-.33.24-.67.45-1.02.66-.32.2-.65.39-.95.61-.21.15-.39.32-.57.5-.18.17-.36.34-.56.49-.21.15-.44.28-.67.41-.34.19-.69.38-.96.65-.46.46-.85,1.01-1.23,1.56-.11.16-.22.31-.33.47-.64.88-.29,1.94.79,2.16.14.03.28.06.42.09,1.76.37,3.54.74,5.32.89.25.02.51.04.76.07,3.03.26,6.09.53,9.11.41,2.35-.09,4.23.43,5.85,2.04.52.52,1.04,1.06,1.56,1.59.47.49.94.97,1.42,1.45.14.14.29.26.45.39.21.17.42.33.59.54.4.5.82.98,1.24,1.47,1.09,1.27,2.17,2.54,3.03,3.95.38.62.84,1.21,1.3,1.81,1.33,1.71,2.66,3.43,2.16,6.02-.16.83.03,1.72.22,2.62.09.41.17.82.23,1.22.08.15.15.31.23.46.08.15.15.31.23.46-.07.28-.14.56-.2.85-.01.08-.02.15-.03.26h0s0,0,0,0h0c-.02.14-.04.32-.07.61l-.16-.29h0s0,0,0,0c-.1-.19-.16-.3-.22-.4l-.02-.02c-.18-.5-.36-1-.55-1.5l-.71-1.47-.11-.71c-.04-.24-.07-.47-.11-.71-.17-.33-.34-.66-.52-.98-.17-.33-.34-.66-.51-.98l-.08-1.13c-.15-.37-.3-.73-.44-1.1-.15-.36-.3-.73-.44-1.1h0c-.19-.3-.38-.6-.57-.89-.09,0-.17-.01-.24-.06-.05-.04-.1-.08-.15-.12s-.1-.08-.15-.12c-.1-.14-.2-.28-.29-.42-.1-.14-.19-.28-.29-.42-.03-.14-.06-.29-.09-.43-.03-.14-.06-.29-.09-.43-.29-.47-.57-.94-.86-1.41h0c-.07-.12-.13-.23-.2-.34-.04-.07-.09-.15-.13-.22-.14-.14-.28-.28-.42-.41h0c-.14-.14-.28-.28-.42-.42-.09-.01-.19-.02-.28-.04-.09-.01-.19-.03-.28-.04-.03-.03-.07-.05-.1-.08-.06-.05-.12-.1-.19-.14l-.26-.33c-.24-.08-.49-.17-.73-.25-.24-.08-.49-.17-.73-.25h0s0,0,0,0c-1.76-.39-3.53-.79-5.3-1.18-.1,0-.2,0-.3-.01-.1,0-.2,0-.3-.01-.17-.02-.35-.03-.52-.04-1.34-.11-2.69-.22-3.95-.78-.1,0-.19,0-.29-.01s-.19,0-.29-.01c-.24,0-.48,0-.72,0-.55,0-1.1,0-1.63-.11-.88-.18-1.75-.42-2.62-.67-.4-.11-.81-.23-1.21-.33l-1.45-.49c-.46-.1-.92-.21-1.37-.33-1.56-.41-3.12-.81-4.78-.29-.05-.04-.11-.07-.16-.11-.05-.04-.1-.07-.16-.11-.1,0-.18-.05-.24-.12h-.6c-.46-.04-.93-.07-1.39-.11-.46-.04-.93-.07-1.39-.11l-.57.03c-.23.04-.47.08-.7.12-.23.04-.47.08-.7.12-.38,0-.75-.01-1.13-.02h-2.24c-.38,0-.75,0-1.13.01-.19,0-.38,0-.56,0-.09,0-.18.02-.28.02-.09,0-.18.01-.28.02-.05.04-.1.07-.14.11-.05.04-.1.08-.14.11-.33.29-.71.55-1.09.8-1.14.77-2.29,1.54-2.08,3.35,0,.02-.02.04-.04.06-.02.02-.03.03-.04.05-.13.28-.26.55-.39.82-.29.62-.59,1.24-.85,1.87-.43,1.02-.84,2.05-1.25,3.08-.21.52-.41,1.03-.62,1.55-.02.1-.04.19-.06.29-.02.1-.04.19-.06.29-.07.23-.14.46-.21.69-.23.76-.45,1.53-.66,2.3-.07.26-.07.54-.07.81,0,.06,0,.12,0,.18,0,.12.01.25.03.38.03.24.05.47-.03.66-.12.27-.3.54-.47.79-.27.41-.54.81-.58,1.24-.08.77.17,1.71.61,2.35.32.47,1,.56,1.8.03.52-.35,1.25-.37,1.99-.39.32,0,.65-.02.95-.05.1-.08.2-.16.3-.24.1-.08.2-.16.3-.25.42-.13.85-.26,1.27-.39.29-.09.58-.18.87-.27.08-.04.16-.08.24-.12.24-.12.48-.24.71-.36.6-.3,1.19-.59,1.79-.88.6-.29,1.19-.59,1.79-.89.2-.09.4-.19.6-.28.2-.09.4-.19.6-.28.56-.04,1.13-.1,1.69-.15,1.43-.13,2.86-.26,4.29-.29.77-.02,1.77.16,2.29.65.67.64,1.44,1.16,2.2,1.69,1.17.8,2.34,1.61,3.22,2.84.2.27.4.54.61.8.94,1.19,1.81,2.29,1.2,4.05-.08.25-.05.56,0,.84.07.41.14.82.21,1.23.3,1.76.59,3.52.92,5.28.31,1.67.66,3.34,1.01,5,.11.51.21,1.03.32,1.54.15.73.3,1.45.49,2.17.11.42.24.83.37,1.25.26.83.52,1.66.59,2.51.09,1.13.17,2.13.85,3.1.27.4.36.92.45,1.44.04.23.07.46.13.67.05.22.1.44.15.66.08.36.15.72.26,1.07.23.81.49,1.61.74,2.41.1.32.2.64.3.96l.21.31.32,4.51c-.05.13-.1.25-.15.38-.03.07-.06.15-.09.22-.01.08-.02.17-.03.26-.01.09-.02.17-.03.26-.08,0-.16,0-.23,0-.08,0-.15,0-.23,0-.62-.37-1.24-.74-1.86-1.12-.62-.37-1.23-.74-1.85-1.11l-1.26-.51c-.61-.03-1.22-.06-1.83-.08-.33,0-.66,0-.98,0h0c-.33,0-.66,0-.99,0l-1.68-.02c-.05-.03-.11-.07-.16-.1-.05-.03-.11-.07-.16-.1-.17.03-.35.07-.53.1l-.11.02c-.14.03-.28.05-.42.08-.24-.03-.48-.05-.73-.08-.24-.03-.48-.05-.73-.08-1.31.06-2.61.12-3.92.19-.41-.12-.83-.23-1.24-.35h-.03s0,0,0,0c-.4-.11-.81-.23-1.21-.34-.39-.25-.78-.5-1.16-.75-.39-.25-.77-.5-1.16-.75-.16-.23-.32-.46-.49-.69h0c-.16-.23-.33-.46-.49-.69-.2-.26-.41-.53-.61-.79h0c-.52-.67-1.04-1.34-1.52-2.03-.14-.19-.19-.44-.24-.69-.02-.11-.05-.23-.08-.33-.13-.17-.26-.34-.39-.5-.13-.17-.26-.34-.39-.5-.77-1.15-.96-2.37-.46-3.67-.03-.16-.06-.33-.09-.49-.07-.38-.15-.76-.19-1.15-.03-.26,0-.52,0-.79,0-.12.02-.25.02-.37.09-.28.17-.57.26-.85h0s0,0,0,0c.09-.28.17-.56.26-.84,0-.19,0-.38.01-.57,0-.19,0-.37-.01-.56,0-.19,0-.37-.01-.56.07-.94.14-1.88.2-2.82l.03-1.14c0-.52,0-1.03.01-1.55,0-.52,0-1.03.01-1.55.05-.52.09-1.03.13-1.55.04-.52.09-1.03.13-1.55l.25-.84-.03-.42c0-.14-.02-.28-.03-.42l-.19-.86c.04-.16.09-.33.14-.49.06-.21.12-.42.17-.63-.04-.19-.08-.37-.12-.55-.09-.13-.18-.27-.27-.41h0c-.09-.14-.18-.27-.27-.41l-.83-.08-.28-.02c-.28,0-.56.01-.84.02-.46.63-.92,1.26-1.37,1.9-.98,1.36-1.97,2.73-2.99,4.06-.58.75-1.23,1.45-1.89,2.15-.28.3-.57.61-.84.92-.07.16-.15.31-.22.46h0c-.07.15-.15.31-.22.46h0c-.11.08-.21.16-.32.24-.11.08-.21.16-.32.24-.15.22-.31.45-.46.67-.32.47-.64.94-.98,1.4-.59.78-1.2,1.56-1.81,2.33-.25.32-.5.64-.75.96-.04.09-.08.19-.12.28-.04.09-.08.19-.12.28-.08.13-.17.26-.25.39-.22.34-.43.68-.65,1.02l-.49.76c-.1.18-.2.36-.31.54-.14.25-.29.5-.42.75-.09.16-.17.32-.25.49-.15.3-.29.61-.48.88-.26.37-.53.73-.81,1.09-.49.63-.98,1.26-1.34,1.96-.45.87-.77,1.81-1.09,2.75-.14.4-.27.8-.42,1.2v.57c.01,1.69.82,3.05,1.63,4.4.35.58.69,1.16.98,1.76.03.05.07.11.1.16.04.05.07.1.1.16l.1.33c.15.46.29.92.44,1.38.04.09.09.18.13.27.05.09.09.18.14.27h0c.31.65.63,1.31.94,1.96l.19.57c.08.13.16.26.24.39h0c.21.34.42.67.63,1.01,0,.19-.01.38-.02.57,1.11.51,1.2,1.49,1.2,2.53l.02.12c.05.24.1.49.15.73.23.46.45.92.67,1.39.03.05.07.1.1.15.03.05.07.1.1.15.06.15.12.31.18.46.06.15.12.31.18.46.03.03.07.07.1.1.03.04.07.07.1.1.15.23.29.47.44.7.15.24.29.47.44.7.01.09.03.19.05.28s.03.19.05.28c.05.19.09.37.14.56.05.19.09.37.14.56.87,1.53,1.75,3.05,2.62,4.58l.34.79c.24.19.47.37.7.56.02.03.05.06.07.09.05.06.11.13.17.19.32.24.65.48.97.72.32.24.64.47.97.71l1.17.51c.36.68.9.67,1.46.65.25,0,.51-.01.74.04.64.16,1.23.55,1.81.93.25.17.51.34.76.49.19.07.38.14.57.22.19.07.38.14.57.22.09.03.18.06.28.08.18.05.37.1.55.15.18.05.37.1.55.15.2,0,.39,0,.59,0l.29.2,2.25.64s.08.07.13.11h0s.08.07.13.11c.05.01.1.03.15.04.05.02.1.03.15.04.05.03.1.06.15.09.05.03.1.06.15.09.18,0,.37.02.55.03.18.01.37.02.55.03h.57c.42.1.84.2,1.26.29.42.1.84.2,1.27.3h0c.28.07.56.13.84.2.52.05,1.03.1,1.55.15.51.05,1.03.1,1.54.15l.57.22,4.19.34c.24.08.48.17.72.25.24.08.48.17.72.25.36.03.72.05,1.08.08h0c.39.03.77.06,1.16.08.1.03.19.06.28.09.09.03.19.06.28.09.1.01.19.02.28.03l1.98.49c.29.03.57.07.86.1l.58-.26c.18.09.36.18.54.27l.27.13c.09.05.18.09.27.14l.3.2c.89.06,1.78.12,2.66.17.89.06,1.78.12,2.66.18.05.04.09.07.13.11.04.04.09.08.13.11.12.06.24.12.36.19.27.15.53.3.82.37,1,.25,2.01.49,3.01.73,1.26.3,2.52.6,3.77.93.54.14,1.07.33,1.61.52.58.2,1.15.41,1.74.55.76.19,1.54.29,2.32.39.35.05.7.09,1.05.15l.14-.05c.07-.02.13-.05.2-.07l.21-.07c.18-.07.37-.13.55-.2.1,0,.19,0,.28,0l5.91-1.18c.37-.1.74-.19,1.11-.29.05-.04.1-.08.15-.12.03-.03.06-.05.09-.08.02-.02.04-.03.05-.05l3.38-1.5s.04-.05.06-.07l.05-.05s.07-.08.11-.12l.1.03c.08-.1.17-.19.25-.29.05-.05.1-.09.15-.14.05-.05.1-.09.15-.14.04-.04.09-.07.14-.11l.05-.04s.04-.03.05-.04c0,0,.02-.02.03-.02l.56-.08c.12-.05.25-.11.37-.16h.02c.44-.19.87-.38,1.31-.56.09-.02.17-.04.26-.05.1-.02.21-.04.31-.06l1.4-1.03c.09-.01.19-.02.28-.04.09-.01.19-.03.28-.04l1.96-1.17c.36-.17.72-.33,1.08-.5h0s.35-.17.35-.17c.09-.05.18-.1.27-.16.03-.03.06-.06.09-.08.04-.04.08-.07.12-.11l.09-.09c.1-.09.2-.19.3-.28,1.03-.76,2.06-1.51,3.09-2.27l.1-.08s.08-.06.12-.1c.04-.03.07-.06.11-.08.12-.09.24-.19.36-.28.23-.18.46-.36.69-.54.09-.06.18-.11.27-.17.09-.06.18-.11.27-.17.1-.19.19-.37.29-.56.1-.19.19-.37.29-.56.47-.33.93-.66,1.4-.99h0c.47-.33.93-.66,1.4-.99.05-.04.1-.09.14-.14h0s.03-.03.04-.04c.01-.01.02-.02.04-.04.02-.02.05-.04.07-.07.1-.18.19-.37.28-.55l.07-.14c.07-.14.14-.27.21-.41.56-.39,1.11-.78,1.68-1.16l.57-.27s.05-.05.08-.08c.02-.02.04-.04.06-.06.05-.05.1-.09.14-.14l.05-.05c.26-.28.52-.55.78-.82h0c.47-.46.95-.93,1.42-1.4.19-.19.37-.37.55-.56.1-.07.2-.13.29-.2.09-.03.19-.06.28-.08l1.69-1.7.64-1.4c.13-.09.26-.17.39-.26h0c.13-.09.26-.17.39-.26.05,0,.1,0,.14-.01h.06s.06,0,.09-.01c.57-.51,1.13-1.02,1.69-1.53.57-.51,1.13-1.02,1.7-1.54l.02-.03c.22-.47.45-.95.68-1.42h0c.23-.48.45-.96.68-1.43l.25-.82-.2-.57c.23-.38.45-.75.67-1.13.22-.38.45-.75.67-1.13.01-.33.02-.66.03-.98,0-.33.02-.66.03-.98h-.03Zm-3.32,2.5c-.03.1-.07.19-.1.28-.04.09-.07.19-.1.28-.03.1-.06.2-.1.3-.03.1-.07.2-.1.3-.14.23-.28.46-.42.69l-.13.21c-.1.16-.2.33-.3.5-.04.1-.08.2-.12.3h0c-.04.1-.08.2-.12.3-.1.09-.2.18-.3.27-.1.09-.2.18-.3.27l-1.97,2.82s-.09.08-.14.12c-.05.04-.09.08-.14.12-.31.2-.62.41-.93.61l-.19.19-1.1,1.22-.3.2-.56.35-.25.57s0,.03-.01.04c0,.01,0,.02-.01.03,0,.02-.01.04-.02.06h0s-.03.09-.04.14l-.23.23-.56.34c-.19.17-.38.35-.57.52-.19.17-.38.35-.57.52-.09.06-.18.12-.27.18-.09.06-.18.12-.27.18-.66.56-1.32,1.13-1.97,1.69-.19.23-.38.46-.57.68-.19.23-.38.45-.57.68-.42.29-.84.58-1.26.87-.42.29-.84.58-1.26.87-.19.19-.38.37-.57.56h0c.09.65-.21.92-.85.84-.08.08-.16.16-.23.24l-.14.14c-.25.25-.5.5-.75.76l-2.04,1.96c-.26.19-.52.37-.79.56l-1.69.84c-.29.15-.53.39-.78.63-.47.46-.93.93-1.76.72l-1.66.93c-.48.29-.96.58-1.44.86h0s-.58.35-.58.35c-.09.03-.19.05-.28.07h0s-.1.03-.1.03c-.06.01-.12.03-.18.05-.37.24-.74.49-1.12.73-.37.24-.75.49-1.12.73-.28.1-.56.2-.84.3-.24.09-.47.18-.71.26-.24.09-.47.18-.71.26l-.17.06c-.22.08-.44.15-.67.22-1.22.62-2.45,1.25-3.67,1.87-.28.06-.56.11-.85.17-.28.06-.57.12-.85.17-1.3,1.38-3.15,1.18-4.48.71-1.33-.47-2.61-.57-3.92-.68h0c-.2-.02-.4-.03-.61-.05-.11-.05-.22-.1-.33-.15-.08-.04-.15-.07-.23-.11h0l-.29-.13c-.09-.04-.18-.08-.28-.12-.13-.1-.25-.19-.38-.29-.13-.1-.26-.19-.38-.29,0-.03-.02-.06-.03-.09v-.05s-.04-.09-.05-.14c-.04,0-.07,0-.11,0h-.07s-.11-.02-.11-.02c-.09-.01-.19-.02-.28-.03-.05,0-.1,0-.14,0h-.03s-.02,0-.03,0c-.01,0-.03,0-.04,0h-.04c-.28-.08-.56-.16-.85-.25-.28-.08-.56-.17-.84-.25-.94-.1-1.88-.2-2.82-.3l-.28-.03c-.1-.07-.2-.15-.3-.22-.04-.05-.09-.09-.13-.13-.04-.04-.09-.09-.13-.13l-1.67-.71c-.16-.02-.31-.05-.46-.08h0c-.13-.02-.26-.04-.39-.06-.33-.02-.66-.03-.99-.05-.33-.02-.66-.03-.99-.05-.06.02-.12.06-.18.09-.13.07-.25.14-.31.1-1.38-.94-2.93-.98-4.47-1.01h0c-.31,0-.62-.01-.93-.03l-.84-.25-.32-.22c-.23.03-.45.06-.68.1-.23.03-.45.06-.68.1-.24-.08-.47-.16-.71-.24-.23-.08-.47-.16-.7-.25l-.44-.09h0c-.89-.17-1.77-.35-2.66-.53-1.59-.1-3.19-.19-4.78-.28-1.23-.35-2.45-.71-3.68-1.06h0c-.14,0-.28-.02-.42-.03-.14-.01-.28-.03-.42-.04-.09,0-.19,0-.28,0-.47-.09-.94-.19-1.41-.28-.47-.09-.94-.19-1.41-.28l-.29.03-.16-.05c-.22-.07-.44-.14-.65-.22-.05-.01-.11-.03-.16-.04-.05-.01-.1-.03-.16-.04-.05-.03-.1-.06-.14-.09h0s-.04-.03-.06-.04c-.03-.02-.05-.03-.08-.05-.05-.04-.09-.09-.14-.14h0s-.09-.09-.14-.13l-.56-.07h-.86s-.01-.01-.01-.01c-1.03-.37-2.05-.74-3.07-1.11l-.84-.51c-.19-.14-.38-.28-.57-.42-.19-.14-.38-.28-.57-.42h0c-.27-.15-.55-.3-.83-.45h0s-.26-.14-.26-.14h-.02c-2.04-.53-3.19-1.81-3.34-3.93-.29-.52-.58-1.03-.87-1.54-.29-.51-.58-1.03-.87-1.54-.71-.92-1.38-1.85-1.1-3.12v-.02c-.17-.26-.34-.52-.51-.78-.92-1.37-1.84-2.74-1.77-4.53-.17-.18-.35-.37-.52-.56h0s0,0,0,0c-.09-.1-.18-.19-.27-.29v-.56c0-.1,0-.19-.01-.29,0-.1,0-.19-.01-.29-.1-.19-.19-.38-.29-.57-.1-.19-.19-.38-.29-.57-.08-.23-.16-.46-.25-.69h0s0,0,0,0c-.08-.23-.17-.47-.25-.7-.06-.07-.09-.15-.08-.24l-.54-.88c-.11-.18-.22-.36-.33-.54-.18-.29-.35-.58-.52-.87-.05-.14-.1-.28-.15-.42h0s0,0,0,0c-.05-.14-.1-.28-.15-.41-.14-.33-.27-.66-.41-.99-.14-.33-.27-.66-.41-.99-.08-.1-.17-.19-.25-.29-.11-.37-.22-.74-.32-1.11-.11-.37-.22-.74-.32-1.12.1-.25.2-.5.3-.75.1-.25.2-.5.3-.75.06-.13.13-.26.19-.39.06-.13.13-.26.19-.39.08-.19.16-.38.24-.57.08-.19.16-.38.24-.57.08-.13.16-.27.24-.4h0c.2-.34.41-.68.61-1.02.38-.52.76-1.03,1.14-1.54h0s0,0,0,0c.38-.51.76-1.02,1.14-1.54.05-.23.09-.46.13-.7.04-.23.09-.46.13-.7.29-.38.58-.76.87-1.14.29-.38.58-.76.87-1.14.07-.1.15-.19.22-.29.11-.09.21-.18.32-.27.11-.09.21-.18.32-.27.05-.12.1-.23.14-.35l.03-.09s.03-.08.05-.13c.34-.45.68-.9,1.02-1.34.94-1.24,1.88-2.48,2.81-3.72.13-.17.22-.37.31-.57.05-.1.09-.2.14-.29.07-.07.14-.15.2-.22.19-.2.37-.4.55-.59.18-.2.37-.4.55-.59l.66-.73c.06-.14.12-.28.18-.43.06-.14.12-.28.18-.43l.49.42c-.09.16-.17.33-.26.49h0c-.09.17-.17.33-.26.5l.03.02c0,.52,0,1.05,0,1.57,0,1.05,0,2.1-.03,3.15v.36c-.03,1.41-.06,2.82-.14,4.23-.05.83-.12,1.65-.2,2.48-.12,1.33-.24,2.67-.25,4-.02,1.52.69,2.84,1.87,3.86l.23.23c.25.42.47.86.68,1.31.52,1.11,1.05,2.21,2.22,2.87.34.19.75.47.87.79.7,1.99,2.4,2.69,4.1,3.38h0s0,0,0,0c.11.04.22.09.32.13l.88.02c.35,0,.7.01,1.05.02h0c.7.01,1.4.02,2.11.05.17,0,.34.06.51.12.08.03.15.05.23.07.13,0,.25,0,.38,0,.06,0,.13,0,.19,0,1.28.1,2.56.07,3.84.04,1.56-.04,3.12-.07,4.7.13,1.78.23,3.15,1.06,4.51,1.89.55.33,1.1.67,1.68.96.36.18.74.32,1.11.47.16.06.32.12.48.19.19,0,.37,0,.55-.01h.02c.28.1.56.2.84.31.19-.01.38-.02.57-.02.37.04.75.08,1.12.12.37.04.75.08,1.12.12.14-.03.28-.06.43-.09.14-.03.28-.06.42-.09.09-.02.18-.03.28-.05l.11-.02s.07-.01.11-.02c.02,0,.04,0,.06-.01.05-.09.09-.19.14-.28.03-.06.06-.13.1-.19,0-.02.02-.04.03-.06,0-.01.01-.02.02-.03-.04-.19-.09-.38-.13-.56l-.14-.56c-.8-.18-1.61-.37-2.42-.56-.73-.17-1.45-.33-2.19-.5.08-.23.16-.43.23-.63h0c.07-.2.13-.38.2-.56.15-.07.3-.13.46-.2.19-.08.37-.16.57-.25v-1.22c-.02-.15-.04-.29-.06-.44h0c-.02-.15-.04-.29-.06-.44-.1-.42-.2-.84-.3-1.26h0s0,0,0,0c-.1-.42-.2-.84-.3-1.26,0-.28,0-.57,0-.85-.1-.39-.21-.77-.31-1.15-.1-.39-.21-.77-.31-1.16l-.79-1.35c-.05-.19-.09-.37-.14-.56-.04-.19-.09-.37-.13-.56l-.1-1.12h0s-.5-1.43-.5-1.43c-.04-.14-.08-.28-.12-.42-.04-.14-.08-.28-.12-.42,0-.1,0-.19,0-.29,0-.09,0-.19,0-.28-.1-.28-.19-.56-.29-.84-.1-.28-.19-.56-.29-.84-.02-.09-.04-.18-.06-.27-.02-.09-.04-.18-.06-.27-.05-.1-.11-.21-.18-.31-.13-.23-.27-.45-.32-.69-.39-1.79-.76-3.59-1.13-5.39h0s0-.01,0-.01c-.1-.5-.2-.99-.31-1.49-.04-.14-.07-.28-.11-.42-.04-.14-.07-.28-.11-.42-.08-.34-.15-.67-.23-1.01-.15-.65-.3-1.29-.43-1.94-.06-.29-.09-.59-.13-.88-.01-.13-.03-.27-.05-.4l-.24-2.26c-.03-.23-.06-.46-.09-.69-.03-.23-.06-.46-.09-.69-.03-.19-.05-.38-.08-.58-.03-.19-.05-.39-.08-.58-.06-.29-.11-.57-.17-.86-.05-.29-.11-.57-.17-.86-.04-.01-.07-.02-.11-.03-.04,0-.07-.02-.11-.03l.2-.21c.01-.14.02-.28.03-.42,0-.14.02-.28.03-.42-.05-.23-.09-.46-.14-.7-.05-.23-.09-.46-.13-.69,0-.19.02-.37.03-.56,0-.19.02-.37.03-.56-.12-.33-.25-.65-.37-.98-.13-.33-.25-.65-.37-.98h0c-.54-.49-1.08-.98-1.63-1.46-.19-.13-.38-.26-.57-.39-.19-.13-.38-.26-.57-.39-.46-.47-.92-.94-1.38-1.41l-.03-.03c-.07-.1-.15-.2-.22-.3-.13-.18-.25-.35-.38-.53l-1.08-.64-.3-.21-.27-.26-.84-.59c-.09-.07-.18-.14-.27-.21s-.18-.14-.27-.21c-.1,0-.19,0-.29-.01-.1,0-.19,0-.29-.01-.86.36-1.27-.15-1.69-.67-.09-.11-.18-.22-.27-.33-.2-.03-.41-.06-.6-.08-.55.02-1.11.05-1.66.07h0c-.55.02-1.11.05-1.66.07l-1.71.19h-1.14c-.13.07-.26.15-.39.22-.13.07-.26.15-.39.22-.15.06-.29.13-.44.19-.15.06-.3.13-.44.19-.19,0-.38.02-.57.02-.19,0-.38.01-.57.02-.23.11-.46.22-.68.33-.5.24-1.01.47-1.49.74-.53.29-1.05.6-1.58.91-.69.4-1.38.81-2.08,1.18-.23.12-.52.14-.81.15-.13,0-.26.01-.39.03-.08-.03-.17-.07-.27-.1-.22-.08-.45-.16-.44-.2.26-1.44.56-2.87.88-4.29,0-.03.13-.03.25-.03.05,0,.11,0,.15,0l.66-1.77c.23-.7.46-1.4.7-2.1.32-.79.63-1.59.95-2.38.03-.25.07-.49.1-.74h0c.04-.25.07-.49.1-.74.1-.14.2-.27.31-.41h0c.1-.14.2-.27.31-.41.08-.24.17-.48.26-.72.09-.24.17-.48.26-.72.28-.09.57-.2.85-.31.64-.24,1.27-.49,1.92-.52.91-.05,1.84.03,2.76.11.54.05,1.08.09,1.61.11.35.02.71-.04,1.06-.09.18-.02.35-.05.53-.07.28,0,.57,0,.85-.01l.25.02c2.15.2,4.26.4,6.35,1.18,1.31.49,2.74.66,4.16.84.63.08,1.27.16,1.89.26.1,0,.19-.02.28-.03.09,0,.19-.02.28-.03.89.17,1.78.34,2.67.5,2.05.38,4.1.77,6.14,1.2.31.07.63.13.94.19,1.57.31,3.15.63,4.57,1.27.88.4,1.8,1.72,1.87,2.69.09,1.09.6,1.88,1.1,2.68.23.36.46.72.65,1.1.09.19.21.37.33.55.35.53.69,1.04.34,1.79-.04.09.03.33.11.37,1.09.52,1.04,1.39.98,2.26-.02.27-.03.54-.02.8,0,.03,0,.07,0,.11,0,.07-.01.13.02.17,1.14,1.56,1.66,3.38,2.17,5.2.03.1.05.19.08.29.1.36.13.73.17,1.11.02.24.04.48.08.72.05.3.09.61.13.92.11.81.22,1.63.47,2.4.5,1.54,1.08,3.06,1.65,4.58h0c.24.63.47,1.25.71,1.88.22.61.5,1.19.77,1.77.48,1.01.95,2.03,1.18,3.19.33,1.7.97,3.33,1.61,4.97.21.55.43,1.09.63,1.64.07.2.27.35.5.53.12.09.25.19.38.31.95-1.3.73-2.63.51-3.93-.13-.77-.26-1.54-.14-2.29-.02,0-.03-.01-.05-.02-.01,0-.03,0-.04-.01-.07-.02-.15-.04-.16-.08-.25-1.23-.5-2.46-.73-3.7-.91-.83-.66-1.73-.42-2.64.07-.26.14-.52.19-.78.03-.18.06-.35.08-.53.01-.09.03-.18.04-.27-.07-.47-.15-.95-.22-1.41-.04-.04-.07-.08-.11-.11-.07-.08-.15-.15-.22-.23l-.2-.21-.02-.84c0-.1,0-.19-.01-.28,0-.09,0-.19-.01-.28l-.32-.56c-.04-.3-.09-.61-.14-.91-.05-.35-.11-.7-.16-1.05-.72-.47-.62-1.09-.53-1.71.04-.28.09-.57.05-.84,0-.09,0-.18-.01-.28h0c0-.09,0-.19-.01-.28,0-.13,0-.25,0-.38,0-.06,0-.13,0-.19,0-.1,0-.19.01-.29-.09-.56-.18-1.13-.28-1.68l-.05-.19h0c-.08-.31-.16-.62-.24-.93l.02-1.7c-.07-.55-.13-1.1-.2-1.66h0c-.06-.49-.12-.97-.18-1.45-.04-.65-.09-1.31-.13-1.96-.04-.66-.09-1.31-.13-1.96l-.03-1.12c.01-.29.02-.57.04-.86l-.03-.17c-.06-.42-.13-.84-.19-1.26-.1-.23-.19-.46-.29-.69-.1-.23-.19-.46-.29-.69-1.51-1.92-3.03-3.83-4.54-5.74-.1-.12-.19-.24-.29-.36-.1-.12-.19-.24-.29-.36-.11-.09-.22-.18-.33-.26-.11-.09-.22-.18-.33-.27-.42-.49-.83-.99-1.25-1.48-1.18-1.41-2.37-2.82-3.58-4.2-.37-.42-.8-.79-1.24-1.15-.2-.17-.39-.33-.58-.5-.46-.27-.93-.55-1.39-.82h0s0,0,0,0c-.19-.11-.37-.22-.56-.33l-1.69-.89-1.23-.47c-.1.03-.16,0-.17-.11-.19-.02-.38-.05-.57-.07l-1.4.08c-.21-.04-.43-.07-.64-.11h0c-.25-.04-.51-.09-.76-.13-.28,0-.56,0-.83.01-.27,0-.55,0-.83.01-.04.03-.07.07-.11.1-.04.03-.08.07-.11.1-.02-.04-.03-.07-.05-.11-.02-.04-.03-.07-.05-.11-.05-.02-.1-.03-.16-.05-.04-.01-.08-.02-.12-.03l-3.1.03-1.68-.03c-.16-.02-.32-.04-.48-.05-.41-.05-.83-.1-1.24-.12-.41-.02-.82-.01-1.23,0-.18,0-.37,0-.55,0-.08-.12-.17-.24-.26-.37l1.2-.83c.23-.19.46-.39.69-.58h0c.43-.36.85-.71,1.27-1.07.1-.08.2-.16.29-.23h0c.18-.14.35-.28.53-.42.01-.04.02-.1.03-.15.02-.11.04-.21.09-.24,1.27-.61,2.54-1.2,3.82-1.79.11-.08.21-.16.32-.23.42-.24.85-.48,1.27-.72.42-.24.85-.48,1.27-.72.05-.04.09-.08.14-.12.05-.04.09-.08.14-.12.61-.25,1.22-.49,1.82-.74.61-.25,1.22-.49,1.82-.74.29-.15.57-.3.86-.45,2.6-.74,4.35.68,6.11,2.27.56.51,1.23.9,1.89,1.3.3.18.6.36.89.55.07.04.14.08.22.11.14.06.28.12.34.23,1.13,1.77,2.42,3.33,4.35,4.32.24.12.37.46.49.8.11.29.22.6.42.79.6.59,1.27,1.12,1.93,1.64.27.21.54.43.81.64.04.04.08.07.12.11.04.04.08.08.12.11.26.29.5.6.74.91.55.7,1.1,1.4,1.79,1.9,1.29.93,2.42,2,3.56,3.08.13.12.26.25.39.37.54.51,1.19.91,1.83,1.3.37.22.73.45,1.08.69.54.38,1.07.77,1.6,1.17.62.46,1.24.91,1.87,1.35.65.45,1.31.86,1.98,1.27.23.14.46.28.69.42.04.04.09.07.13.11l.03.03.04.04s.04.03.06.05v.02c.25.12.5.24.75.36h0s.01,0,.01,0c.13.06.25.12.38.18.15.09.29.18.44.28h0c.15.09.29.18.44.28.04.19.07.38.11.57.04.19.07.38.11.57.07.14.13.28.2.41.07.14.13.28.2.41l.23.56c-.01.1-.02.2-.03.29,0,.09-.02.18-.03.27v.04c.02.24.04.48.06.72-.03.13-.07.27-.11.4-.08.28-.16.57-.17.85-.04,1.09-.04,2.19-.01,3.28.01.4.08.8.14,1.21.03.18.06.35.08.53l.07,1.41c0,.19,0,.38.01.57,0,.09,0,.19,0,.28.03.1.07.19.1.29h0c.03.1.06.19.1.29.09.46.18.91.26,1.37v.04c.02.27.04.55.06.82.04.37.07.75.11,1.12.04.37.08.75.11,1.13.04.26.07.52.11.78h0c.03.23.06.45.1.67-.04.27-.09.55-.13.82-.05.28-.09.55-.14.83,0,.1.01.19.02.29,0,.1.01.19.02.29,0,.21.01.42.02.62.02.61.04,1.22.07,1.83.06,1.31.69,1.73,1.74,1.21.1-.38.19-.75.28-1.13.09-.38.19-.75.28-1.13.09-.66.18-1.31.27-1.97.09-.66.18-1.31.27-1.97,0-.13,0-.25,0-.38,0-.06,0-.13,0-.19l.1-2.52c0-.19-.05-.4-.09-.61-.14-.67-.28-1.34.8-1.62,0-.03,0-.05.01-.08,0-.03,0-.05.01-.08,0-.05.01-.1.02-.16.04-1.12.09-2.24.14-3.36h0s0-.03,0-.03c.05-1.13.09-2.26.14-3.39,0-.06,0-.12.01-.19v-.03s0-.04,0-.06c.03-.11.05-.22.08-.33.06-.23.12-.46.15-.7.1-.78.18-1.56.26-2.34.02-.19.04-.39.06-.58v-.86l-.02-1.1c0-.47-.01-.95-.02-1.43v-1.43c-.05-.13-.11-.26-.17-.38-.13-.28-.25-.55-.3-.84-.11-.66-.18-1.32-.25-1.99h0c-.02-.24-.05-.48-.08-.71,0-.19,0-.38-.01-.56h0c0-.19,0-.38-.01-.57-.1-.47-.2-.94-.3-1.4-.1-.47-.2-.94-.3-1.4l-.28-.28c-.39-.47-.78-.94-1.17-1.4h0s0,0,0,0c-.92-.77-1.84-1.54-2.76-2.31-.27-.17-.54-.35-.82-.52l-.88-.56-.88-.07c-.35-.14-.7-.28-1.05-.42-1.01-.4-2.02-.79-3.01-1.24-.38-.17-.7-.57-.92-.94-.06-.09.35-.56.62-.72.67-.39,1.37-.75,2.07-1.11.21-.11.41-.21.62-.32l.88-.76.85-.05c.14-.13.28-.27.42-.4.14-.13.28-.27.42-.4h.84c.19,0,.38,0,.57.01l2.26,1.3c.05.1.1.19.15.29.05.1.1.2.15.29.18.11.36.22.55.33h0c.18.11.36.22.54.33.23.14.46.27.69.41.23.14.46.27.7.41.12,0,.25,0,.38,0,.5-.03,1.01-.05,1.06.77.09.05.19.09.28.14.09.05.19.09.28.14.19.13.37.26.56.39.18.13.37.26.55.39.29.21.57.43.86.65.31.19.63.38.94.56.82.48,1.63.96,2.39,1.51.23.17.34.51.44.86.05.16.1.32.16.46.08.28.16.56.24.83.08.28.16.56.24.83.11.43.23.85.34,1.27.11.42.23.85.34,1.27.05.18.09.37.14.55h0c.05.2.1.39.14.58.08.28.16.57.23.85.08.28.15.57.23.85-.02.03-.03.05-.05.08-.02.02-.03.05-.05.07-.03.05-.07.1-.1.15v.52c.16.38.33.77.48,1.15.12,1.13.24,2.25.36,3.37v.57c-.02.08-.01.17,0,.25.07.1.14.2.2.3.01.47.03.94.04,1.41.01.47.03.94.04,1.41.04.28.07.57.11.85.03.28.07.57.11.85.03.08.06.17.07.27.03.03.07.07.1.1.04.03.07.06.1.1-.02,0-.04.02-.06.03-.02,0-.03.02-.05.02-.04.02-.07.03-.11.05,0,.03-.01.05-.02.08,0,.02,0,.04-.01.06,0,.05-.02.09-.03.14-.04.05-.07.1-.11.15-.02.02-.03.04-.05.06l-.02.03-.04.05c-.02.08-.02.16,0,.24.03.05.07.1.1.15h0s.05.07.05.07l.02.03.03.05.02.84c-.07.38-.14.75-.2,1.14.06,1.3.11,2.6.16,3.89l-.25.59c.1.66.19,1.32.29,1.99l.04.85c.08.56.16,1.13.24,1.68l-.21.86c-.03.08-.03.16-.02.24l.21,1.15c.06.33.11.65.17.98h0s0,.04,0,.04h0c.04.2.07.41.11.61.02.11.04.23.06.34l-.07,1.7c.05.33.1.66.15.99.05.33.1.65.15.98,0,.14,0,.28,0,.43,0,.14,0,.28,0,.43.03.31.07.62.11.93.09.73.18,1.45.21,2.18.02.32-.07.64-.15.96-.04.14-.07.29-.1.43.04.1.08.19.11.28.04.09.08.19.11.28h0c.1,1.03.19,2.06.28,3.09l.82,1.98c.12.38.24.77.35,1.14l.46.83s0,.05.01.08c0,.04.01.07.02.11l.02.1c.02.1.04.19.05.29h0c.26.28.53.55.79.83.01.1.03.2.04.3v.09s.02.06.02.09c0,.03,0,.06.01.08l.55.56c.09.19.17.38.26.58.09.19.17.38.26.57.04.09.08.18.12.28h0c.04.09.08.18.12.28.05.08.08.16.09.25.1.1.21.2.31.3h0c.1.1.21.2.31.3l2.47,3.65s.02.02.03.03c.01.01.03.02.04.03.02.02.05.04.07.06.05.04.09.08.14.12,0,0,.01,0,.02,0,0,0,.02,0,.03,0,.01,0,.03,0,.04.01.02,0,.04.01.05.02.03,0,.05.02.08.03.02,0,.04.01.06.02.04.04.07.08.11.11.04.04.07.08.11.12l.62,1.45s.08.08.11.12h.01s.03.04.04.05c.02.02.04.04.06.06.01.19.02.38.04.57.08.19.17.38.26.56.09.19.17.37.26.56l-.68,2.77h-.03Z"/><path class="cls-1" d="m51.35,81.67l-.06-.06.06.06h0Z"/><path class="cls-1" d="m45.43,161.45c-.94-.07-1.61-.26-2.02-.58-.38-.31-.61-.6-.68-.86l-.11-.43-.07-.51c-.05-.34-.17-.67-.36-1.01-.19-.34-.53-.52-1.01-.54-.36-.02-.65.19-.86.65-.22.43-.38,1.02-.5,1.77-.12.75-.2,1.57-.25,2.49-.02.89-.04,1.79-.04,2.7.02,1.2.08,2.37.18,3.5.12,1.11.31,2.01.58,2.7.29.7.68,1.05,1.19,1.05.38,0,.67-.17.86-.51.19-.36.31-.76.36-1.19.07-.43.11-.82.11-1.15v-.5l-.43.04c-.26.02-.54-.02-.83-.14-.29-.15-.43-.45-.43-.9,0-.48.1-.8.29-.97.22-.17.42-.26.61-.29l.32-.04h3.6c.31,0,.67.06,1.08.18.41.1.77.29,1.08.58.31.26.48.67.5,1.23.05,1.35-.14,2.46-.58,3.35-.43.86-1.03,1.55-1.8,2.05-.74.51-1.59.87-2.52,1.08-.91.19-1.85.29-2.81.29s-1.87-.17-2.74-.5c-.86-.34-1.63-.93-2.31-1.77-.67-.86-1.23-2.05-1.66-3.57-.41-1.51-.64-3.44-.68-5.77-.05-1.88.13-3.4.54-4.58.41-1.18.94-2.09,1.59-2.74.65-.65,1.32-1.1,2.02-1.37.72-.29,1.37-.47,1.95-.54.58-.07.98-.12,1.23-.14.29-.02.76,0,1.41.07.65.07,1.35.24,2.09.5.74.24,1.43.61,2.05,1.12.65.51,1.13,1.18,1.44,2.02.31.84.37,1.49.18,1.95-.19.43-.49.74-.9.94-.41.19-.79.3-1.15.32l-.5.04Z"/><path class="cls-2" d="m57.53,160.58c1.2-.02,2.22.09,3.06.33.84.22,1.54.48,2.09.79.55.31.98.59,1.3.83.31.24.54.36.68.36.26.02.46.16.58.4l.18.32.11.72c.07.48.16,1.09.25,1.84.12.74.23,1.53.32,2.34.1.82.18,1.59.25,2.31.07.72.11,1.29.11,1.69,0,.67-.05,1.21-.14,1.62-.07.41-.31.72-.72.94-.41.19-1.08.32-2.02.4-.7.05-1.2.04-1.51-.04-.31-.07-.5-.16-.58-.25l-.11-.14c-.22.17-.58.29-1.08.36-.48.05-.94.07-1.37.07h-.65l-.83-.11c-.55-.1-1.24-.28-2.05-.54-.79-.29-1.6-.71-2.41-1.26-.79-.58-1.45-1.33-1.98-2.27-.53-.96-.78-2.15-.76-3.57.02-1.42.29-2.57.79-3.46.5-.91,1.12-1.62,1.84-2.13.72-.51,1.43-.87,2.13-1.08.72-.22,1.32-.35,1.8-.4l.72-.07Zm2.7,3.71c-.12-.17-.38-.35-.79-.54-.38-.22-.76-.4-1.12-.54-.34-.14-.5-.19-.5-.14,0,.02-.13.23-.4.61-.24.36-.49.9-.76,1.62-.24.7-.37,1.54-.4,2.52-.02.99.11,1.84.4,2.56.29.72.64,1.27,1.04,1.66.43.38.83.58,1.19.58.26,0,.52-.12.76-.36.24-.26.44-.55.61-.86.17-.34.3-.62.4-.87l.14-.36-.58-5.88Z"/><path class="cls-1" d="m68.09,163v-.32c.02-.22.11-.46.25-.72.14-.29.41-.54.79-.76.41-.22.98-.32,1.73-.32.91,0,1.56.13,1.95.4.41.24.65.54.72.9.1.34.12.67.07,1.01-.05.31-.07.53-.07.65v1.08c.02.6.07,1.32.14,2.16.07.84.19,1.67.36,2.49.17.82.41,1.5.72,2.05.31.53.72.78,1.23.76.5-.02.84-.29,1.01-.79.17-.5.23-1.13.18-1.87-.02-.75-.11-1.49-.25-2.24-.14-.74-.29-1.38-.43-1.91-.14-.55-.22-.87-.22-.94,0-.1-.04-.26-.11-.5-.05-.26-.05-.55,0-.87.07-.31.28-.6.61-.86.34-.26.89-.43,1.66-.51.77-.07,1.37-.02,1.8.14.46.15.78.34.97.58.22.24.35.47.4.68l.07.29.25.86c.17.58.32,1.32.47,2.24.14.89.19,1.84.14,2.85-.02,1.01-.24,1.97-.65,2.88-.38.89-1.03,1.62-1.95,2.2-.89.58-2.14.86-3.75.86s-2.93-.3-3.96-.9c-1.03-.6-1.85-1.37-2.45-2.31-.58-.96-1-1.97-1.26-3.03-.26-1.06-.42-2.05-.47-2.99-.05-.96-.06-1.74-.04-2.34l.07-.9Z"/><path class="cls-1" d="m88.21,175.47h-.47c-.31,0-.67-.05-1.08-.14-.38-.1-.73-.29-1.04-.58-.31-.29-.49-.71-.54-1.26-.02-.46-.07-1.11-.14-1.95-.07-.84-.16-1.75-.25-2.74-.07-1.01-.14-1.96-.22-2.85-.07-.91-.13-1.66-.18-2.24l-.07-.87.04-.29c.02-.22.11-.46.25-.72.17-.26.44-.5.83-.72.41-.22.97-.34,1.69-.36.72-.02,1.29.05,1.69.22.41.17.7.37.86.61.19.22.3.42.32.61l.07.25.65-.32c.46-.24,1.03-.48,1.73-.72.72-.24,1.48-.38,2.27-.43h.68c.36,0,.74.08,1.15.25.43.15.85.43,1.26.87.43.43.79,1.07,1.08,1.91.29.82.46,1.9.5,3.25.07,1.68.12,3.06.14,4.15.05,1.08.01,1.92-.11,2.52-.1.58-.34.99-.72,1.23-.36.22-.94.32-1.73.32s-1.33-.11-1.69-.32c-.36-.22-.59-.47-.68-.76-.1-.31-.14-.59-.14-.83,0-.14.02-.53.07-1.15.05-.65.08-1.38.11-2.2.02-.84.01-1.66-.04-2.45-.02-.82-.12-1.48-.29-1.98-.14-.53-.38-.78-.72-.76-.41.02-.79.18-1.15.47-.34.26-.64.58-.9.94-.26.34-.47.64-.61.9l-.22.36.36,5.44v.36c0,.24-.07.52-.22.83-.14.29-.42.55-.83.79-.38.24-.96.36-1.73.36Z"/><path class="cls-1" d="m101.17,155.79c-.02-.6.16-1.08.54-1.44.38-.38,1.24-.61,2.56-.68.89-.05,1.54.06,1.95.32.41.26.66.54.76.83l.18.4.22,3.21h.58c.41,0,.86.05,1.37.14.53.07.98.23,1.37.47.41.24.61.61.61,1.12s-.19.88-.58,1.12c-.38.24-.83.41-1.33.5-.5.07-.96.11-1.37.11h-.58v.83c.02.53.04,1.23.04,2.09s.01,1.74.04,2.7c.02.96.04,1.89.04,2.78v2.2c.02.58.04.91.04,1.01,0,.17-.06.41-.18.72-.1.31-.37.6-.83.87-.43.26-1.15.4-2.16.4-.74,0-1.32-.08-1.73-.25-.41-.19-.71-.4-.9-.61-.17-.24-.26-.45-.29-.61l-.04-.29-.29-17.92Z"/><path class="cls-1" d="m116.02,153.77l.47.04c.31,0,.67.06,1.08.18.41.1.77.28,1.08.54.31.26.47.64.47,1.12,0,.31.01.95.04,1.91.02.96.05,2.1.07,3.43.02,1.3.05,2.64.07,4.04.05,1.37.08,2.66.11,3.86.02,1.2.04,2.18.04,2.92l.04,1.12v.4c0,.24-.07.54-.22.9-.14.34-.42.64-.83.9-.41.24-1.01.36-1.8.36-1.06,0-1.83-.13-2.31-.4-.48-.29-.78-.6-.9-.94-.1-.36-.13-.64-.11-.83.02-.1.04-.52.04-1.26s-.01-1.68-.04-2.81c0-1.13-.01-2.34-.04-3.64-.02-1.3-.05-2.57-.07-3.82-.02-1.27-.06-2.4-.11-3.39-.02-1.01-.05-1.75-.07-2.24-.05-.67.11-1.18.47-1.51.38-.34.82-.55,1.3-.65.5-.12.91-.19,1.23-.22Z"/><path class="cls-2" d="m135.78,164.58c-.07,1.2-.41,2.18-1.01,2.92-.6.72-1.33,1.27-2.2,1.66-.84.36-1.68.61-2.52.76-.84.12-1.55.18-2.13.18h-.83c.14.84.35,1.44.61,1.8.26.36.55.57.86.61.34.05.65.02.94-.07.29-.12.52-.25.68-.4l.29-.22.4-.32c.26-.22.67-.42,1.23-.61.58-.22,1.3-.32,2.16-.32.98,0,1.65.13,1.98.4.36.24.53.53.5.87,0,.31-.07.6-.22.87l-.18.36-.32.36c-.19.22-.55.48-1.08.79-.53.31-1.26.6-2.2.87-.94.24-2.14.37-3.6.4-1.42.02-2.61-.17-3.57-.58-.96-.41-1.75-.94-2.38-1.59-.62-.67-1.1-1.37-1.44-2.09-.31-.74-.54-1.43-.68-2.05-.12-.65-.18-1.15-.18-1.51s.02-.83.07-1.41c.07-.58.23-1.18.47-1.8.26-.65.66-1.26,1.19-1.84.53-.58,1.25-1.05,2.16-1.41.94-.36,2.13-.55,3.57-.58,1.8-.02,3.21.13,4.22.47,1.01.34,1.74.74,2.2,1.23.46.48.73.94.83,1.37.12.43.18.73.18.9Zm-9.19,3.03c1.47-.12,2.56-.43,3.28-.94.72-.5,1.14-1.07,1.26-1.69.12-.62,0-1.15-.36-1.59-.34-.46-.85-.66-1.55-.61-.7.02-1.22.29-1.59.79-.36.48-.61,1.04-.76,1.69-.14.62-.23,1.18-.25,1.66l-.04.68Z"/><path class="cls-1" d="m138.68,155.79c-.02-.6.16-1.08.54-1.44.38-.38,1.24-.61,2.56-.68.89-.05,1.54.06,1.95.32.41.26.66.54.76.83l.18.4.22,3.21h.58c.41,0,.86.05,1.37.14.53.07.99.23,1.37.47.41.24.61.61.61,1.12s-.19.88-.58,1.12c-.38.24-.83.41-1.33.5-.5.07-.96.11-1.37.11h-.58v.83c.02.53.04,1.23.04,2.09s.01,1.74.04,2.7c.02.96.04,1.89.04,2.78v2.2c.02.58.04.91.04,1.01,0,.17-.06.41-.18.72-.1.31-.37.6-.83.87-.43.26-1.15.4-2.16.4-.74,0-1.32-.08-1.73-.25-.41-.19-.71-.4-.9-.61-.17-.24-.26-.45-.29-.61l-.04-.29-.29-17.92Z"/><path class="cls-1" d="m158.25,169.7c-1.8-.05-3.21-.23-4.22-.54-1.01-.31-1.73-.68-2.16-1.12-.41-.43-.66-.85-.76-1.26-.1-.43-.14-.77-.14-1.01s.04-.61.11-1.12c.07-.5.3-1.03.68-1.59.38-.55,1.04-1.03,1.98-1.44.96-.41,2.32-.64,4.07-.68,1.92-.05,3.4.06,4.43.32,1.03.26,1.77.58,2.2.94.46.36.73.69.83.97l.14.4c0,.31-.04.64-.11.97-.07.31-.29.58-.65.79-.34.19-.92.28-1.76.25-.67-.02-1.18-.08-1.51-.18-.34-.1-.59-.2-.76-.32-.14-.14-.3-.29-.47-.43-.14-.14-.37-.26-.68-.36-.29-.1-.76-.16-1.4-.18-.79-.02-1.39.04-1.8.18-.38.12-.65.28-.79.47-.12.19-.19.36-.22.5v.18l.07.29c.07.19.31.38.72.58.43.19,1.2.3,2.31.32,2.09.07,3.69.28,4.79.61,1.13.31,1.92.68,2.38,1.12.48.43.76.86.83,1.3.1.41.14.73.14.97s-.08.61-.25,1.12c-.14.5-.47,1.03-.97,1.59-.5.55-1.28,1.03-2.34,1.44-1.03.41-2.43.64-4.18.68-1.9.05-3.37-.06-4.43-.32-1.03-.26-1.78-.58-2.23-.94-.43-.36-.7-.67-.79-.94l-.14-.43c0-.34.04-.66.11-.97.1-.31.31-.57.65-.76.36-.22.95-.31,1.76-.29.7.02,1.2.08,1.51.18.34.1.59.22.76.36.17.12.32.25.47.4.14.14.37.26.68.36.31.1.78.16,1.4.18.79.02,1.38-.02,1.77-.14.41-.14.68-.31.83-.5.14-.19.22-.35.22-.47v-.22l-.07-.29c-.05-.22-.29-.42-.72-.61-.41-.22-1.17-.34-2.27-.36Z"/></svg>