<?xml version="1.0" encoding="UTF-8"?><svg id="Daggers" xmlns="http://www.w3.org/2000/svg" viewBox="0 0 480 640"><defs><style>.cls-1{fill:#ffcc40;}</style></defs><path class="cls-1" d="m295.29,320.47c-.14.16-.31.29-.45.45.15-.15.3-.3.45-.45Z"/><path class="cls-1" d="m307.27,309.41l.46-.46c-.17.14-.31.31-.46.46Z"/><path class="cls-1" d="m301.74,314.94c.15-.15.31-.31.46-.46-.15.15-.32.29-.46.46Z"/><path class="cls-1" d="m302.67,314.02c.15-.15.31-.31.46-.46-.15.16-.32.3-.46.46Z"/><path class="cls-1" d="m295.75,320.47c.15-.15.31-.31.46-.46-.15.15-.32.29-.46.46Z"/><path class="cls-1" d="m307.74,308.49c.15-.15.31-.31.46-.46-.16.14-.3.31-.46.46Z"/><path class="cls-1" d="m235.84,264.7c-.15.15-.31.31-.46.46.16-.15.31-.3.46-.46h0Z"/><path class="cls-1" d="m159.34,426.01l.46.46c-.17-.14-.29-.33-.46-.46Z"/><path class="cls-1" d="m158.88,425.09c.15.15.31.31.46.46-.17-.14-.29-.33-.46-.46Z"/><path class="cls-1" d="m157.96,422.79c.15.15.31.31.46.46-.17-.14-.29-.33-.46-.46Z"/><path class="cls-1" d="m161.19,427.86c.15.15.31.31.46.46-.14-.16-.31-.3-.46-.46Z"/><path class="cls-1" d="m157.04,420.48c.15.15.31.31.46.46-.17-.14-.29-.33-.46-.46Z"/><path class="cls-1" d="m188.38,480.86c.15.15.31.31.46.46-.17-.14-.29-.33-.46-.46Z"/><path class="cls-1" d="m188.84,481.78c.15.15.31.31.46.46-.17-.14-.29-.33-.46-.46Z"/><path class="cls-1" d="m162.11,428.78c.15.15.31.31.46.46-.14-.17-.31-.31-.46-.46Z"/><path class="cls-1" d="m158.42,423.71l.46.46c-.17-.14-.29-.33-.46-.46Z"/><path class="cls-1" d="m283.77,329.23c-.15.15-.32.29-.46.46.15-.15.31-.31.46-.46Z"/><path class="cls-1" d="m313.27,300.65l.46-.46c-.16.14-.3.31-.46.46Z"/><path class="cls-1" d="m311.88,302.96c.15-.15.31-.31.46-.46-.16.14-.3.31-.46.46Z"/><path class="cls-1" d="m180.08,344.44c-.15.15-.31.31-.46.46.15-.16.32-.3.46-.46Z"/><path class="cls-1" d="m173.63,352.73c-.15.15-.31.31-.46.46.17-.13.29-.32.46-.46Z"/><path class="cls-1" d="m175.47,348.12c-.15.15-.31.31-.46.46.17-.14.31-.31.46-.46Z"/><path class="cls-1" d="m168.1,364.72c-.15.15-.31.31-.46.46.17-.13.29-.32.46-.46Z"/><path class="cls-1" d="m174.55,350.43c-.15.15-.31.31-.46.46.17-.13.29-.32.46-.46Z"/><path class="cls-1" d="m287.93,323.7s0,0,0,0c0,0,0,0,0,0-.15.16-.29.31-.44.47,0,0,0,0,0,0,0,0,0,0,0,0-.16.14-.32.28-.49.42.27-.02.45-.14.49-.42.28-.04.4-.22.44-.48.27-.04.43-.19.45-.47-.15.16-.3.31-.45.47,0,0,0,0,0,0Z"/><path class="cls-1" d="m322.85,268.48c.17-.56.22-1.1-.37-1.47.02-.53.05-1.06.05-1.58,0-.6.05-1.22-.43-1.69.08-.14.07-.28-.03-.42.21-1.13-.02-2.23-.2-3.34-.02-.12-.2-.21-.31-.32v-.02c-.42-.74.33-1.67-.4-2.35.11-.68.13-1.34-.41-1.87,0-.51.02-1.04-.42-1.42-.13-.6.04-1.31-.65-1.7-.01.01-.02.03-.03.04,0,0,0,0,0-.01h0l.04-.03c-.01-.27-.16-.43-.42-.48v-.02c-.18-.48.14-1.07-.34-1.47-.03-.38-.16-.7-.48-.91-.06-.49.12-1.06-.47-1.37-.09-.48-.04-1.02-.51-1.36.02-.39-.03-.74-.39-.97,0-.4-.14-.71-.56-.84h0c-.14-.16-.31-.3-.4-.5,0,0,0,0,0,0,0,0,0-.01,0-.02.13.17.26.34.4.51-.03-.26-.17-.43-.4-.52-.11-.48-.08-1.01-.35-1.44-.04-.09-.1-.17-.2-.24l-.06-.06c-.25-.48-.51-.96-.76-1.44,0,0,0,0,0,0-.01-.41-.18-.75-.48-1.03,0,0,0,0,0,0,.09-.14.07-.26-.09-.34-.13-.16-.3-.3-.37-.5,0,0,0,0,0,0,.12.17.24.33.36.5.06-.3-.09-.45-.36-.52-.04-.25-.18-.41-.41-.5-.04-.5.09-1.05-.46-1.37-.04-.58-.37-.87-.91-.95-.13-.84-.22-1.69-.97-2.26.05-.31-.13-.45-.4-.53-.14-.32-.27-.64-.41-.96-.01-.13-.05-.24-.14-.34.01-.59-.4-.81-.86-.98-.08-.35-.25-.64-.56-.83-.09-.49.01-1.03-.39-1.43.01-.41-.21-.66-.56-.83l-.02-.02c0-.28-.16-.42-.41-.49-.05-.5.12-1.06-.46-1.38-.02-.38-.05-.75-.41-.98-.22-.64-.21-1.41-.9-1.82-.09-.49.05-1.06-.5-1.38-.02-.31-.18-.51-.45-.64,0,.1.03.18.06.26-.03-.08-.06-.16-.06-.26l.05-.14-.12-.09c.06-.4-.02-.75-.41-.96,0-.27-.13-.44-.38-.52-.15-1.71-.59-2.86-1.87-4.85-.02-.04-.05-.09-.08-.13,0,0,0,0,0,0-.01-.27-.16-.43-.39-.53,0-.79.08-1.59-.56-2.21h0c-.02-.42-.08-.82-.39-1.14,0,0,0,0,0,0l.04-.17-.14-.09c-.12-.17-.3-.29-.35-.51,0,0,.01,0,.02,0,.11.17.22.34.33.5.03-.27-.08-.45-.33-.53.02-.14,0-.27-.09-.39.14-.56.12-1.07-.42-1.42,0,0,0,0,0,0h0c-.02-.13-.06-.25-.13-.37.09-.27.02-.48-.26-.58l-.1.06c.03-.44-.06-.84-.42-1.14h0s0,0,0,0c0,0,0,0,0,0l.04-.15-.13-.08c.04-.39-.16-.67-.43-.91h0c.04-.39-.06-.74-.34-1.01,0-.52-.11-.98-.59-1.27v-.02c-.05-.37,0-.77-.36-1.03-.26-.55.11-1.31-.56-1.73h0c-.17-.61-.34-1.2-.5-1.8-.06-.66.19-1.38-.36-1.95-.04-.8.11-1.63-.45-2.32-.06.06-.12.13-.18.19,0,0-.01,0-.02,0,.07-.06.14-.12.2-.18-.13-1.38.23-2.81-.46-4.12-.15-1.69-.17-3.38.04-5.06h0c.12-.18.34-.35.35-.53.03-.9,0-1.8,0-2.7.06-.14.06-.29.03-.44.5-.35.32-.92.43-1.39v-.02c.12-.11.29-.2.32-.32.27-1.24.51-2.48.76-3.72.4-.19.46-.55.43-.95.09-.11.21-.21.22-.33.07-1.05.02-2.12.92-2.93.14-.13.15-.42.2-.64.24-1.13-.05-2.25-.08-3.38-.01-.43-.48-.54-.84-.64-.44-.12-.9-.24-1.09.37-.05.07-.1.13-.15.19-.31.37-.67.55-1.3.42-.59-.12-.98-.59-1.56-.64-.12-.23-.34-.29-.58-.31l-.03-.02c-.16-.37-.45-.54-.84-.54-.38-.47-.9-.44-1.43-.41l-.11-.12-.15.07c-.22-.13-.44-.26-.67-.4h0c-.15-.16-.33-.29-.4-.5,0,0,0,0,.01,0,0,0,0,0,0,0,.13.17.26.33.39.5-.04-.25-.14-.45-.4-.53-.03-.28-.18-.42-.45-.46-.07-.24-.2-.42-.45-.48-.05-.28-.22-.41-.5-.41-.09-.24-.28-.34-.51-.39l-.02-.03c-.07-.35-.07-.73-.34-1-.02-.29-.03-.59-.05-.88,0-.68-.02-1.35-.03-2.03,0-.32-.1-.58-.38-.76l-.1.06c.04-.13.07-.27.07-.41.71-.71.21-1.6.34-2.4.06-.13.07-.27.04-.41.16-.1.19-.23.09-.39,0,0,0,0,0,0,0,0,0,0,0,0l-.08-.1c.55-.28.49-.81.55-1.3.24-.09.34-.26.32-.52-.1.16-.21.32-.31.49,0,0-.01,0-.02.01.05-.21.22-.33.33-.5l.15-.09-.03-.17c.13-.22.27-.44.4-.67h0c.53-.49.88-1.07.96-1.79.3-.31.6-.62.9-.93.28-.03.43-.19.47-.47.27-.04.42-.2.48-.46.71-.4,1.19-.99,1.44-1.76.25-.08.39-.25.42-.5.24-.05.42-.17.52-.4.37-.05.68-.18.82-.58.46-.13.52-.49.51-.89.14-.16.28-.32.42-.47.57,0,.93-.25,1.04-.82.24-.06.39-.22.45-.46.25-.06.41-.21.46-.46.47-.17.81-.46.86-.99.15-.16.29-.32.44-.47.29-.07.46-.26.47-.57.02-.41.05-.81.08-1.22.24-.07.4-.22.41-.49.5-.37.38-.93.4-1.44.56-.51.13-1.27.47-1.83.75-.48.44-1.21.43-1.87.62-.5.24-1.25.47-1.84.69-.92.67-1.86.05-2.8,0,0,0,0,0,0-.06-.58-.4-.87-.97-.9-.08-.23-.23-.38-.49-.39l.06-.11c-.37-.67-.95-.39-1.48-.32-.12-.06-.23-.06-.36-.02-.76-.03-1.55-.23-2.23.28-.04.02-.08.06-.13.1-.64.08-1.33-.09-1.87.42-.53.04-1.08.04-1.5.46,0,0,0,0,0,0l-.18-.05-.13.14c-.39-.04-.74,0-.95.39-.27,0-.44.14-.53.37-.64.03-1.29.02-1.8.52-.41-.03-.72.1-.9.5-.28.01-.43.17-.48.43-.79.11-1.65.02-2.2.83-.28.41-.77.39-1.22.47-.43.08-.9.13-1.16.58-.29-.01-.43.16-.52.4-.37.03-.7.13-.88.5-.51-.02-1.06-.11-1.32.52l-.02.02c-.34.06-.7.07-.87.46l-.04.03c-.28,0-.41.16-.47.41h0c-.36.04-.69.13-.87.48l-.04.03c-.34.11-.67.22-1.01.34-.42-.06-.69.15-.89.49-.39,0-.72.09-.93.45-.4,0-.73.09-.86.53h0c-.65.24-1.48.1-1.87.89-.36.04-.67.19-.88.5h-.01c-.39-.02-.7.13-.92.46h0c-.16.15-.3.32-.49.42,0,0,0,0,0,0,.16-.14.32-.27.49-.41-.31-.03-.45.14-.5.41-.35.06-.74.05-.95.42-.38.02-.69.17-.89.51-.29,0-.45.14-.53.4-.25.06-.39.22-.45.46-.35.07-.73.09-.88.5-.31.14-.62.29-.92.43-.34-.03-.46.17-.5.45-.24.07-.39.23-.47.46-.36.05-.64.24-.86.52-.94.02-1.27.85-1.83,1.37-.36.06-.71.15-.94.47-.31-.03-.45.15-.53.41-.78.42-1.6.76-2.23,1.41-.28.04-.43.21-.47.49-.25.04-.41.19-.5.42-.38.01-.74.06-.87.51-.25.03-.44.15-.54.39-.53.09-.78.45-.9.94-.34.08-.7.14-.81.56h-.01c-.44.15-.44.54-.49.89-.23.07-.44.15-.53.39-.57.03-.8.43-.94.91-.25.05-.4.21-.47.44-.81.14-.71,1.11-1.29,1.46-.31.01-.44.2-.46.49-.4.16-.47.51-.5.88-.23.08-.39.23-.45.47-.26.03-.45.15-.51.42-.41.16-.46.52-.5.88-.59.09-.79.48-.76,1.05h0c-.3.19-.51.44-.6.78-.55.1-.79.47-.86.99-.25.07-.41.22-.42.5-.42.19-.38.59-.42.95h0c-.16.15-.31.31-.46.46h0c-.47.1-.49.49-.56.84-.26.07-.43.21-.39.52-.29.25-.36.59-.4.95l-.02.03c-.36.16-.52.45-.55.82-.4.21-.49.56-.4.98l-.12.12.07.15c-.48.37-.44.93-.56,1.44-.5.16-.87.42-.78,1.05-.2.23-.19.47-.05.72-.26.15-.38.37-.4.66h0c-.54.29-.44.85-.54,1.32-.37.23-.39.6-.39.98-.74.6-.14,1.73-.91,2.31-.41.21-.56.53-.39.98-.03.13-.06.27-.08.4-.41.39-.59.86-.42,1.42-.02.13-.05.26-.09.39-.65.5-.4,1.21-.44,1.85h0c-.7.64-.64,1.28-.03,1.94-.61,1.13-.87,2.35-.85,3.63-.11.19-.29.36-.3.56-.1,1.32-.16,2.65-.24,3.97-.3.21-.3.42.02.61,0,.26-.01.53-.02.79-.29.17-.41.42-.41.75.01,2.74.02,5.47.05,8.21,0,.46.13.9.41,1.28.05.27.09.53.14.8-.21,1.14-.29,2.27.39,3.3.03,1.18.24,2.34.52,3.49.03.1.2.17.31.25.07.86-.02,1.76.41,2.55.03.06.06.12.1.18.04.42.13.83.33,1.2.03.07.06.14.11.2,0,.51.02,1.02.45,1.39,0,.39.15.7.48.91.17.61-.1,1.33.44,1.85-.01.38.08.73.41.97-.01.4.17.69.49.9.02.5.05,1.01.44,1.39.05.34.1.68.16,1.02.07.44.28.76.74.85.06.35.13.71.15,1.06.02.32.09.57.37.73.05,1.64,1.24,2.76,1.87,4.14,0,0-.01,0-.02-.01.18.45-.05,1.05.49,1.38.02.41.17.78.42,1.11,0,0,0,0,0,0l-.06.16.14.11c-.03.39-.01.76.44.92h0c.02.26.12.46.36.57.07,1.01.53,1.89.9,2.8.04.1.09.21.13.32h0c-.01.39.14.71.42.97.24.94.26,1.95.85,2.79-.02.41.15.71.51.9.01.58-.13,1.17.14,1.73-.04.5-.09,1-.11,1.49-.02.38.12.7.46.89-.03.74-.05,1.48-.08,2.22-.52.55-.35,1.24-.38,1.89-.4.17-.37.58-.49.91-.64.5-.29,1.23-.44,1.84-.02.15-.05.29-.07.44-.5.84-.96,1.7-.96,2.72-.24.09-.38.26-.42.52h0s0,0,0,0c0,0,0,0,0,0-.6.64-.86,1.42-.93,2.28-.36.18-.46.51-.5.88-.23.09-.37.25-.4.51-.26.07-.4.24-.41.52-.61.67-1.15,1.37-1.41,2.26-.25.04-.45.15-.51.42-.27.07-.37.27-.39.53-.25.06-.41.21-.44.48-.43.12-.49.48-.55.83-.35.07-.77.03-.82.56-.31.31-.62.61-.92.92-.29,0-.45.14-.52.4-.27.03-.42.19-.48.44-.48.11-.82.38-.97.85-.34.09-.66.21-.82.57-.29.01-.44.17-.49.44-.26.05-.41.21-.44.48-.25.05-.4.21-.48.44-.66.02-1.03.44-1.35.95-.38,0-.77,0-.91.47-.26.03-.45.15-.52.41-.29.04-.42.21-.43.49-.16.14-.31.29-.47.43-.39-.02-.77,0-.97.41-.54.19-.99.52-1.32,1-.56.13-1.07.34-1.29.96l-.15.07v.17c-.02.32-.16.54-.49.59-.02.28-.18.43-.45.46,0,0,0,0,0,0,.26-.04.41-.19.45-.45,0,0,0,0,0,0,0,0,0,0,0,0,.3-.08.46-.28.5-.58-.26.11-.45.29-.53.56-.25.06-.4.21-.46.46-.33.18-.66.35-.99.53,0,0,0,0,0,0l-.14-.07-.11.11c-.21.03-.5-.02-.63.11-.6.55-1.15,1.14-1.72,1.71-.4-.01-.69.17-.9.5-.39-.01-.72.09-.92.46-.28-.02-.45.12-.55.36-.37.04-.72.11-.86.53-.27.04-.43.19-.47.46-.28.05-.41.22-.42.5-.18.13-.35.26-.53.39-.59.12-1,.48-1.33.97-.27.03-.42.19-.5.44-.59.03-.82.41-.91.94-.98.23-1.57.87-1.86,1.81-.34.09-.72.12-.87.52-.29,0-.43.17-.5.43-.28.04-.43.2-.42.5-.32.18-.5.46-.58.8-.55.07-.86.37-.93.93-.62.31-1.12.73-1.31,1.43-.25.07-.4.22-.45.48-.27.04-.43.2-.44.48-.37.17-.48.5-.52.87-.24.08-.39.25-.41.51-.6.26-.96.68-.95,1.36-.13.17-.27.34-.4.51-.57.03-.86.35-.96.89-.26.05-.42.2-.44.49-.52.32-.89.73-.96,1.36-.57.7-1.49,1.18-1.43,2.26-.45.18-.89.36-.89.96-.16.3-.32.6-.48.89-.46.18-.53.53-.43.97-.02.04-.03.07-.05.11-.12.28-.24.55-.36.83-.25.06-.46.17-.51.45-.61.5-1.13,1.07-1.33,1.87-.57.66-.51,1.68-1.41,2.2-.41.24-.51.88-.51,1.43-.34.21-.39.56-.47.9-.25.06-.41.21-.42.49-.38.21-.44.57-.43.95-.34.2-.43.53-.51.87-.25.05-.44.16-.5.42-.27.09-.38.28-.32.56l-.13.12.05.17c-.26.14-.4.35-.38.65v.02c-.34.2-.52.48-.52.86-.37.21-.45.56-.41.95l-.12.08.04.14c-.34.27-.49.63-.54,1.04-.24.12-.35.3-.31.58-.33.21-.47.53-.48.91-.38.2-.49.53-.44.94h0c-.38.36-.64.77-.58,1.33-.8,1.3-1.43,2.68-1.7,4.2l-.14.13.05.18c-.32.27-.52.59-.46,1.02-.39.38-.33.92-.47,1.38-.67.65-.45,1.62-.85,2.36-.04.45-.09.89-.13,1.34-.53,1.24-1.08,2.5-1.14,3.85-.07,1.45-.74,2.72-.9,4.14-.26,2.31-.67,4.61-1.03,6.91-.04.26.07.64-.44.73-.28-.14-.61-.3-.94-.47-.5-.61-.97-.41-1.44.05-.11.04-.23.08-.34.12-.47.03-.62.33-.62.75-.98,1.29-1.53,2.79-2.1,4.27-.6,1.55-1.27,3.06-2.09,4.51-.42.73-.78,1.49-.92,2.33-.05.3-.01.65-.17.88-1.47,2.19-2.36,4.68-3.61,6.99,0,.02,0,.04,0,.06.07.65-.43,1.07-.73,1.54-.35.55.04,1.21-.36,1.71-.14.17-.32.31-.49.46-.72.27-.43.87-.43,1.37l-.03.03c-.5.08-.62.4-.52.85-.32,1.07-.69,2.13-.94,3.21-.25,1.09-.84,2.04-1.11,3.14-.71,2.83-1.71,5.58-2.59,8.36-.47.57-.43,1.24-.36,1.91-.05.12-.09.25-.14.37-.75.66-.46,1.52-.44,2.32.08-.08.14-.17.2-.25-.04.09-.1.18-.2.25-.58.66-.3,1.52-.53,2.27-.69.4-.33.98-.26,1.51-.05.12-.09.24-.14.37-.45.39-.52.88-.4,1.42-.04.81.12,1.71-.18,2.41-.44,1.04-.29,2.05-.33,3.08-.14.26-.38.52-.39.79-.05,1.28-.03,2.57-.04,3.85l-.05-.03c-.6.94-.58,1.87.05,2.79.07.15.05.3-.04.44,0,0,0,0,0,0h0c-.13.18-.38.35-.38.53-.03,1.35-.03,2.7,0,4.06,0,.18.23.35.36.53.24,1.45-.11,3.04,1.07,4.27.12.12.03.44.05.66.04.29.02.63.15.87.54.99,1.12,1.97,1.71,2.93.44.71.93,1.37,1.75,1.73.79.35,1.3.99,1.7,1.71.04.07.08.15.12.22,1.88,1.26,3.75,2.53,5.48,3.99,1.64,1.38,3.41,2.47,5.62,2.76.94.13,2.12-.21,2.79.56.65.76.16,1.91.39,2.88.1.42-.02.9-.04,1.35,0,1.42-.25,2.86.39,4.22,0,.13.02.26.08.38-.13,1.11-.21,2.22.47,3.22h-.01c.06,1.1-.25,2.24.46,3.24.06-.08.11-.16.17-.24,0,0,0,0,0,0,0,.02.02.05.03.07,0,0,0,.02,0,.02-.06.05-.13.09-.2.13.26.45-.23,1.09.38,1.46.03.12.07.24.12.36-.11.68-.36,1.39.35,1.92l.09-.06c-.04.66-.13,1.34.44,1.86.21,1.1.43,2.2.88,3.24-.07.43.12.72.49.91-.13.69-.28,1.38.38,1.9.15.46.1,1,.47,1.39.07.49-.07,1.05.5,1.35.04.29.21.48.47.6h0s-.05.17-.05.17l.12.12c-.12.68-.35,1.38.4,1.87.08.48.1.99.51,1.34h0c-.02.4-.03.79.45.93.21.45-.12,1.07.41,1.42.15.34.31.68.46,1.02,0,0,0,0,0,0l-.04.2.16.13c-.02.37.05.69.41.89v.02c-.01.27.08.47.34.58.02.26.18.41.42.48.04.34.11.69.12,1.03.01.46.08.87.51,1.13h0c0,.39.03.76.45.93h0c.23.66.1,1.49.9,1.86.08.35.01.76.43.95.14.46.08.99.5,1.34h0c-.01.32.12.55.39.7h0s-.05.15-.05.15l.13.09c-.05.4.07.72.45.92h0c.01.38.01.76.36,1,0,.39.27.62.57.8l.02.03c.02.36.02.74.35.99-.03.4.07.73.45.94.05.37.2.68.49.93,0,0,0,0,0,0h0s0,0,0,0c0,0,0,0,0-.01.45.77.9,1.53,1.34,2.3,0,0,0,0,0,0-.06.16-.02.29.12.39h0c0,.11-.01.22-.02.33v.2s.18.04.18.04l.2-.03c.05.12.09.24.13.36-.13.43-.04.77.37.99.3.31.6.62.9.93-.05.53-.13,1.07.4,1.43.06.41.21.77.53,1.05,0,0,0,0,0,0l-.05.16.13.09c.14.16.31.29.38.5,0,0,0,0-.01,0-.12-.17-.25-.33-.37-.5-.04.29.09.46.36.52.16.57.43,1.05.99,1.32h0c.96.74,1.16.75,1.85,0,.26-.04.45-.15.52-.41.28-.04.43-.19.45-.48.52-.32.51-.84.51-1.36.45-.4.21-.97.33-1.45v-.02c.44-.36.98-.63,1.05-1.27.36-.43.77-.82.89-1.39.26-.09.37-.27.36-.54-.12.17-.24.34-.36.51,0,0-.01,0-.02,0,.07-.21.25-.34.37-.51v-.02c.52-.49.89-1.06.98-1.77.43-.37.44-.88.47-1.38.24-.08.4-.23.42-.5-.14.16-.28.32-.41.48,0,0,0,0,0,0h0s0,0,0,0c.1-.19.27-.33.42-.48h0c.41-.13.48-.49.56-.83.49-.12.81-.41.93-.91.26-.08.39-.25.39-.53.35-.2.58-.46.52-.89.15-.31.29-.62.44-.92.87-.27,1.05-1.09,1.41-1.77.26-.11.34-.32.37-.58.27-.04.43-.17.4-.47l.14-.08-.03-.16c0-.12.04-.22.08-.31-.04.09-.07.19-.08.31.27-.14.41-.36.44-.65.26-.07.41-.22.39-.51-.13.16-.26.33-.39.49,0,0,0,0,0,0,0,0,0,0,0,0,0,0,0,0-.01,0,.09-.2.27-.33.4-.5v-.02c.46-.3.58-.75.61-1.25.23-.07.39-.22.43-.47.26-.07.38-.26.42-.51.64-.27.49-.84.49-1.34.31-.12.61-.23.74-.58l.05-.04c.43-.52.92-1,.99-1.72.24-.08.4-.23.43-.5.43-.13.55-.46.55-.86.31-.22.39-.56.47-.91.26-.07.42-.21.42-.5.4-.38.76-.8.94-1.34.25-.07.41-.22.45-.49.27-.06.38-.24.41-.51.26-.06.41-.22.39-.5l.02-.04c.52-.46.77-1.08,1.05-1.68.26-.07.42-.22.44-.5.35-.2.41-.55.48-.9.53-.1.81-.43.87-.96.25-.08.41-.23.42-.51.44-.18.61-.59.82-.97l.05-.05c.43-.5.91-.98,1.06-1.66.25-.1.36-.29.34-.56h0c.3-.32.59-.63.89-.93l.02-.02c.45-.1.53-.44.56-.82.36-.19.43-.54.5-.89.26-.07.41-.23.38-.52.4-.38.82-.74,1-1.3.52-.15.74-.54.79-1.05-.03-.02-.05-.04-.08-.06,0,0,0,0,.01,0l.07.06c.38-.15.58-.42.58-.83.13-.16.26-.33.39-.49,1.08-.12,1.49-.96,1.9-1.79.36-.08.67-.22.76-.62-.01-.01-.03-.02-.04-.03,0,0,.01,0,.01,0l.03.03c.36-.16.49-.48.56-.83.26-.05.42-.2.46-.47.43-.12.51-.47.55-.84.23-.08.39-.23.44-.48.64-.3,1.3-.59,1.27-1.48h0c.35-.2.54-.51.69-.86l.15.05.09-.13c.61,0,1.23,0,1.84.01.26.31.6.46,1,.45,1.06,0,2.12-.03,3.18-.05.29,0,.57.02.86.03.48,0,.97-.02,1.45-.02h.18s.18-.01.18-.01c.68.1,1.35.12,1.93-.34,1.1-.28,2.12-.82,3.33-.76.57.03,1.22-.23,1.74-.53.75-.42,1.59-.53,2.37-.83,2.06-.79,4.16-1.53,6.13-2.52,1.81-.92,3.58-1.96,5.22-3.18.24-.18.5-.47.75-.47.8,0,1.24-.54,1.73-1,.39-.36.75-.71,1.27-.93.78-.33,1.4-.91,1.96-1.55,1.24-1.42,2.97-2.34,4.04-3.94,1.75-.91,2.77-2.59,4.09-3.96.83-.86,1.46-1.92,2.22-2.84.49-.59.76-1.37,1.35-1.8.73-.52,1.05-1.29,1.59-1.91.57-.65.85-1.46,1.37-2.1,2.12-2.62,3.84-5.47,5.17-8.56.09-.21.23-.39.37-.57,1.34-1.86,2.38-3.9,3.41-5.93,1-1.96,2.08-3.88,2.88-5.93,1.68-1.79,1.85-4.29,2.98-6.34.91-1.64.94-3.64,2.08-5.27.51-.74.69-1.86-.11-2.77-.28-.32-.51-.57-.94-.41-.7.26-1.51.29-1.91,1.12-.15.31-.54.54-.87.73-1.49.89-2.76,2.15-4.47,2.68-.28.09-.51.32-.77.49-.28.02-.57.02-.84.07-.19.04-.48.05-.42.35.03.18.17.36.31.49.09.08.26.07.4.1.52.6-.06.93-.33,1.34-.27.05-.4.22-.44.48h-.01c-.66-.06-.95.26-.93.9-.37.26-.78.48-1.09.79-3.19,3.25-6.65,6.08-10.89,7.92-2.87,1.24-5.72,2.51-8.76,3.3-.48,0-.97,0-1.45,0-.13-.04-.26-.04-.4-.02-.6-.01-1.2-.03-1.8-.04-.4,0-.74.13-1.02.42-.28,0-.57,0-.85-.01-.48-.6-1.15-.51-1.81-.48-.72-.58-1.68-.56-2.46-1.13-1.98-1.44-3.87-2.9-4.92-5.2-.86-.63-1.17-1.65-1.38-2.55-.28-1.19-.66-2.35-1.06-3.49-.32-.89-.47-1.76-.44-2.69.24-1.75-.05-3.51-.03-5.26,0-.32-.14-.59-.38-.8.02-.15.04-.29.06-.44h0c.6-.85.6-.95-.05-1.87,0,0,0,0,0,0,.12-1.01.5-2,.23-3.05-.04-.17.16-.41.25-.61.6-.93.53-1.95.35-2.97-.02-.12-.2-.21-.3-.31-.07-.13-.07-.25,0-.38.37-.22.47-.55.39-.95.25-1.03.67-2.06.7-3.1.05-1.71.77-3.23,1.26-4.79.61-1.94,1.42-3.83,1.92-5.83.21-.84.65-1.5,1.24-2.14.97-1.06,1.84-2.22,2.74-3.35.29-.36.51-.76.52-1.25,0-.39.18-.72.39-1.06,1.15-1.89,1.82-3.98,2.34-6.12.15-.63.04-1.21-.15-1.8.12-.41.08-.77-.29-1.04,0-.29-.01-.57-.02-.86.44-.42.57-.9.33-1.47.51-1.85,1.33-3.48,2.8-4.81.81-.73,1.78-1.06,2.68-1.55.37-.2.6-.42.62-.83.38-.11.78-.19,1.05-.53,0,0,0,0,0,0l.17.06.13-.12c.41.08.78.05,1-.36.91-.23,1.45-1.03,2.25-1.44.3.03.46-.12.54-.39.35-.09.61-.29.82-.58.39.02.69-.12.86-.49l.04-.03c.36-.05.74-.03,1-.34.58,0,.8-.41.97-.87.45-.14,1.02,0,1.26-.59h0c.48-.28,1.12-.3,1.44-.84.38-.03.71-.14.85-.54h0c.16-.15.3-.32.49-.43.12-.19.28-.33.45-.47.14-.17.29-.32.45-.47h0c.15-.16.3-.31.47-.45h0c-.16.15-.31.3-.47.45.25-.05.41-.2.47-.45.27,0,.47-.12.53-.39.27-.06.38-.26.41-.52.22-.11.44-.22.65-.33.1-.03.19-.07.27-.13.3.05.47-.09.56-.37.91-.45,1.62-1.12,2.18-1.96.27-.03.43-.18.48-.45.33-.06.68-.07.79-.48l.17-.07v-.18c.24-.19.48-.39.73-.58.04-.03.08-.06.12-.09,0,0,0,0,0,0h0,0s0,0,0,0c.16-.15.3-.33.52-.4.07-.22.25-.35.41-.51l-.39.5s0,0-.02,0c0,0,0,0,0,0-.17.13-.34.26-.51.39.3.04.47-.1.53-.39.27-.07.38-.26.4-.53.19-.13.38-.26.57-.39,1.08-.44,1.82-1.22,2.26-2.29.13-.18.26-.37.39-.55t0,0h0c.36-.06.74-.05.95-.43.3,0,.44-.16.5-.42.25-.05.42-.19.48-.45.26-.06.41-.21.43-.49.26-.07.39-.24.4-.52-.13.16-.26.33-.4.49,0,0,0,0,0,0,0,0,0,0,0,0,.09-.2.26-.34.41-.49h0c.38-.14.48-.47.59-.8.61-.11,1.01-.47,1.24-1.04h0c.4-.18.41-.56.48-.91.47-.14,1.03-.16.99-.86.27-.26.36-.6.41-.96.24-.05.41-.18.5-.42.37-.04.75-.05.85-.53h0c.38-.14.5-.47.58-.81.25-.06.41-.22.44-.49.73-.44.72-1.36,1.24-1.94l.02-.02c.3,0,.42-.16.42-.44l.02-.04c.34-.18.52-.46.52-.84.54-.34.26-.95.43-1.41h0c.24-.04.46-.11.57-.35.29-.03.45-.19.47-.48.46-.35.36-.89.47-1.36.24-.07.42-.2.45-.47.35-.2.41-.56.48-.91.26-.06.41-.21.43-.49.38-.22.41-.59.39-.98.3-.22.49-.5.51-.88.39-.22.43-.59.38-.99l.12-.1-.05-.14c.27-.15.38-.37.33-.67.14-.08.18-.2.1-.35.08-.24.24-.42.42-.58h0c.15-.15.29-.31.41-.48l.03-.04c.33-.18.54-.43.56-.82.5-.51.41-1.19.48-1.81.24-.1.37-.27.36-.54-.12.17-.24.34-.35.51,0,0,0,0,0,0h0s0,0,0,0h0s-.01,0-.02.01c.06-.21.23-.35.37-.51h0c.51-.52.51-1.17.49-1.82.71-.63.6-1.46.54-2.28.31-.6.61-1.19.92-1.79.54-.55.15-1.3.4-1.91.38-.21.56-.51.44-.95.17-.31.16-.61.01-.93.13-.1.14-.2.02-.31.06-.24.23-.42.37-.62,0,0,0,0,0,0l.03-.03c.78-.41.55-1.12.52-1.77.42-.54.61-1.09.04-1.65.13-.23.26-.45.4-.68h0c.26-.17.39-.41.39-.72-.01-.72-.03-1.44-.05-2.16,0-.24.01-.48.02-.73Zm-32.65,50.11c.15-.15.31-.29.46-.44h0c-.14.17-.29.33-.47.45,0,0,0,0,0,0Zm7.36-6.44s0,0,0,0c-.12.18-.27.33-.46.44,0,0,0,0,0,0,.15-.14.3-.29.45-.43Zm3.63-3.3c-.05.26-.2.41-.46.46,0,0,0,0,0,0,.26-.05.41-.2.46-.46Zm.69-.55c.12-.08.2-.2.23-.37h0c-.03.17-.11.29-.23.37Zm1.21-1.71c-.18.22-.37.43-.56.63-.16.21-.31.43-.43.68-.26.06-.42.21-.47.47-.25.05-.41.21-.46.46-.26.05-.41.21-.46.46-.1.03-.19.07-.29.11-.49.2-.9.47-1.04,1.01-.02.09-.03.18-.04.28-.32.11-.68.16-.77.59l-.02.03c-.38.22-.81.37-.98.83-.27.03-.43.19-.47.45-.26.04-.44.17-.49.43-.26.04-.4.21-.46.46-.36.05-.66.18-.78.56l-.04.04c-.37.11-.54.39-.61.74-.16.06-.31.13-.45.21-.81.45-1.39,1.17-1.98,1.86-.23.26-.45.52-.7.77-.4-.02-.74.06-.91.48-.28.02-.43.18-.48.45-.27.05-.4.21-.38.49l-.14.08.03.16s0,0,0,0c-.34.15-.69.3-.84.69h0c-.29.02-.44.17-.47.45-.26.04-.41.2-.48.44-.37.03-.74.06-.89.49h0c-.26.01-.44.13-.55.36-.1,0-.19,0-.28,0-.22.02-.41.09-.53.29-.03.05-.06.11-.09.19-.16.04-.3.1-.43.16-.36.18-.66.43-.93.73-.15.17-.3.35-.44.54-.12-.01-.23,0-.32.05-.07.04-.14.09-.18.17-.02.04-.04.09-.05.14-.05.01-.1.03-.14.05-.11.05-.2.13-.26.24-.03.05-.05.1-.07.16-.05,0-.1,0-.14,0-.31,0-.58.09-.69.42-.01.04-.02.07-.03.12-.26.07-.37.27-.41.52-.34.09-.74.06-.96.41-.31,0-.42.19-.47.45-.44.15-1.02-.01-1.28.55l-.02.02c-.26.02-.42.15-.51.39-.17,0-.35.02-.5.06-.09.02-.17.06-.24.11-.08.06-.15.13-.21.24-.18.04-.37.05-.56.06-.26.02-.51.06-.71.25-.04.04-.08.09-.12.14-.06,0-.12.02-.17.05-.03.02-.07.05-.1.07-.1.09-.15.21-.18.36-.17.03-.34.05-.5.1-.07.03-.13.07-.2.1-.09.06-.16.14-.22.26-.3.03-.49.21-.63.47-.24-.16-.47-.17-.69.04-.75.04-1.3.45-1.8.97l-.03.02c-.2.11-.36.29-.56.39-.42,0-.78.2-.96.53-.33.62-.77,1.09-1.36,1.49-.35.23-.6.7-.76,1.11-.33.88-.3,1.9-.98,2.66-.38,2.01-.75,4.03-1.13,6.04-.24,1.26-.08,2.62-.98,3.71-.08.1-.08.29-.09.44-.06,2.37-1.41,4.13-2.77,5.88-1.13,1.45-2.04,2.97-2.79,4.67-.98,2.22-1.84,4.46-2.61,6.75-.25.74-.07,1.54-.5,2.2-.45.68-.39,1.44-.34,2.2.01.19-.21.39-.32.59q-.65.76-.1,1.47c0,.26,0,.52,0,.78-.41.24-.49.58-.33,1.01-.27.99-.6,1.96-.4,3.02.06.34-.1.72-.16,1.08-.25.21-.38.48-.37.8,0,.84.03,1.67.04,2.51-.05,1.83-.1,3.66-.15,5.48,0,.23-.03.47.02.69.48,2.15.48,4.38,1.06,6.52.19.68.56,1.24.8,1.86,1.02,2.62,2.28,5.19,4.33,7.14,1.38,1.31,2.66,2.84,4.7,3.4.87.24,1.58.98,2.61,1.21,1.36.3,2.69.37,4.05.35.97.13,1.94.27,2.79-.42l.02.02c.79-.06,1.64.24,2.31-.44.55-.26,1.08-.68,1.65-.76,1.61-.22,3.06-.82,4.51-1.49,1.24-.57,2.52-1.05,3.76-1.62.62-.28,1.26-.6,1.78-1.03,1.1-.9,2.25-1.72,3.42-2.53,1.11-.76,1.91-1.98,3.04-2.68,1.93-1.2,2.95-3.26,4.74-4.56.67-.48,1.28-1.05,1.91-1.57.19.1.32.21.4.33.06.09.09.18.11.28.06.38-.12.82-.08,1.2-1.01,1.08-1.26,2.55-1.92,3.81-.73,1.4-1.51,2.8-1.84,4.38-.04.21-.14.47-.31.59-.95.71-1.13,1.95-1.9,2.78-.39.2-.54.51-.44.94h0c-.55.31-.62.79-.49,1.35-.61.32-.64.96-.92,1.49-.53,1-1.35,1.85-1.49,3.04-1.56,1.66-2.26,3.88-3.68,5.64-.95,1.18-1.74,2.48-2.61,3.72-.51.33-1,.67-.91,1.4h0c-1.32,1.67-2.5,3.49-4.02,4.95-1.31,1.26-2.49,2.63-3.63,4.03-.6.74-1.65.91-2.02,1.71-.46.98-1.36,1.13-2.13,1.59-.45.27-.79.72-1.22,1.03-.9.65-1.54,1.59-2.73,1.93-.66.19-1.15.96-1.7,1.49-.44.43-.84.85-1.56.81-.55-.03-1.02.31-1.42.67-.47.43-1.05.62-1.65.76,0,0,0,0,0,0,0,0,0,0,0,0-.29-.11-.48,0-.59.28-.12.05-.25.09-.37.12-.45-.13-.75.02-.88.49-.44.28-.85.72-1.33.8-2.15.36-4.03,1.6-6.21,1.88-.58.07-1.14.36-1.7.55-.66,0-1.36-.2-1.93.34-.12.05-.25.09-.37.13-.34-.1-.68-.16-1.02,0h-.18s-.18.01-.18.01c-.69-.01-1.37-.03-2.06-.04-.34,0-.57.17-.73.46-.13.1-.26.2-.39.29-.03.03-.07.05-.1.08l-.15-.09-.15.09h0c-.12-.26-.32-.41-.62-.41,0,0,0,0,0,0-.78-.3-1.64-.49-2.48-.58-1.05-.11-2.06-.04-2.84.22-.03.01-.06.04-.08.07-.06.07-.1.17-.15.25-.27.04-.44.19-.48.46-.09.02-.16.06-.22.1-.18.12-.27.3-.3.51-.01.08-.02.16-.02.24-.22.08-.38.24-.45.47-.1.02-.19.05-.27.08-.26.1-.45.27-.53.53-.03.11-.05.24-.05.38-.27.33-.6.62-.92.91-.26.24-.5.49-.7.78-.11.16-.21.34-.29.54-.25.06-.41.21-.46.46-.12.04-.24.09-.34.15-.2.12-.35.27-.44.48-.04.1-.07.22-.09.34-.39.2-.37.59-.44.94-.32.08-.74,0-.82.5l-.16.08.03.17s0,0,0,0c-.17.34-.33.67-.5,1.01-.15.03-.31.05-.46.09-.13.04-.24.11-.33.22-.04.05-.08.12-.1.19-.29.06-.4.24-.39.53.13-.17.26-.34.39-.51,0,0,0,0,0,0-.09.21-.26.34-.4.51h0c-.36.19-.44.53-.51.87-.25.04-.46.14-.5.43-.07.04-.12.08-.17.13-.08.08-.13.18-.16.29-.05.17-.05.36-.08.54-.18.05-.35.1-.5.17-.17.08-.31.2-.39.38-.04.09-.07.19-.08.32-.24.07-.4.23-.46.48-.29.06-.42.22-.35.53.12-.17.25-.34.37-.52,0,0,0,0,0,0-.07.21-.24.35-.38.52-.18.21-.22.44-.08.69-.05.38-.26.59-.64.64l-.14-.04-.08.13c-.32-.03-.46.13-.45.43h0c-.19.15-.37.31-.53.48-.2.22-.35.48-.4.81,0,.02-.01.05-.01.07-.01,0-.02,0-.03.01-.23.07-.38.21-.38.48l-.02.02c-.35.14-.37.44-.42.73-.01.06-.02.11-.04.17h0s-.06.02-.09.03c-.21.05-.38.14-.43.38-.6.38-.97.91-1.19,1.52-.09.25-.16.51-.2.79-.26.07-.37.26-.39.52.13-.16.25-.33.38-.49,0,0,0,0,0,0,0,0,0,0,.01,0-.1.19-.27.33-.39.5v.02c-.19.12-.32.29-.52.38,0,0,0,0-.01,0-.12,0-.23.02-.32.06-.34.12-.45.42-.52.74-.04.18-.08.37-.15.54-.26.06-.42.21-.43.49-.25.09-.34.3-.36.55.12-.17.23-.34.35-.52,0,0,0,0,0,0,0,0,0,0,.02,0-.06.21-.25.34-.37.52h-.01c-.49.75-.98,1.49-1.46,2.22,0,.01-.01.02-.02.03,0,0,0,0,.01,0-.06.21-.24.34-.35.52l-.02.02c-.24.3-.47.6-.71.9-.24.31-.48.61-.71.92-.02.03-.03.06-.04.1-.02.09,0,.19-.02.29-.35.42-.84.76-.93,1.35-.25.09-.37.28-.4.53-.28.05-.4.22-.39.5l-.02.03c-.27.37-.56.73-.84,1.09-.43.55-.84,1.11-1.17,1.73-.13.25-.25.51-.35.78,0,0,0,0,0,0h0s0,0,0,0c0,0,0,0,0,0-.31.24-.39.59-.46.94-.26.05-.46.17-.44.48-.33.19-.48.5-.55.86-.06.02-.12.05-.16.09-.15.11-.21.27-.24.44-.02.13-.02.27-.04.4-.24.06-.43.17-.49.43-.27.06-.38.25-.42.51-.27.06-.43.21-.4.52-.42.36-.29.92-.49,1.36-.26.04-.47.14-.47.45-.35.19-.43.53-.51.88-.25.05-.41.21-.45.46-.27.06-.4.24-.41.51-.39.17-.47.51-.5.89-.25.08-.38.25-.4.52-.16.06-.27.14-.35.25-.03.06-.06.13-.1.2-.05.13-.06.28-.06.44-.1.06-.18.12-.25.19-.13.13-.21.28-.23.47,0,.08,0,.16,0,.25-.26.27-.32.61-.32.97l-.15.08v.17c-.02.31-.17.52-.47.6h0c.29-.09.45-.3.49-.6-.27.12-.47.29-.52.6-.06.04-.11.09-.15.13-.12.15-.17.31-.18.49-.02.28.05.57.03.85l-.13.11.04.17c-.29.06-.58.12-.86.18-.02-.26-.11-.46-.37-.55-.04-.3-.21-.49-.48-.61.02.19.09.35.21.47-.12-.12-.2-.27-.21-.47l.05-.13-.11-.09c.06-.42-.09-.73-.45-.94.01-.21-.04-.38-.12-.54-.07-.14-.16-.27-.27-.38-.15-.17-.32-.33-.47-.51,0-.06,0-.12,0-.17-.02-.13-.1-.22-.21-.28-.06-.03-.12-.05-.19-.07-.12-.25-.14-.53-.22-.8-.02-.05-.03-.1-.05-.16,0,0,0,0,0-.01,0-.03-.02-.05-.03-.07-.05-.1-.11-.2-.2-.28,0-.05,0-.09-.01-.13-.03-.15-.11-.25-.23-.32-.05-.03-.11-.05-.17-.07-.02-.1-.04-.19-.07-.28-.05-.18-.12-.35-.26-.48-.05-.05-.11-.09-.18-.13-.07-.15-.13-.3-.19-.45-.32-.78-.61-1.58-1.05-2.3-.19-.31-.41-.6-.67-.87-.02-.43-.12-.83-.44-1.14l.02-.16-.14-.07c0-.36,0-.73-.35-.96,0-.38-.15-.69-.46-.92.02-.39-.25-.64-.44-.93.02-.08.02-.16.02-.24,0-.19-.08-.35-.21-.48-.07-.08-.16-.15-.27-.21,0-.17,0-.34,0-.5-.01-.19-.05-.36-.16-.51-.08-.11-.2-.21-.38-.29l-.02-.02c-.13-.24-.25-.48-.38-.72l.04-.13-.12-.08c.02-.51,0-1-.46-1.35v-.02c-.01-.38-.03-.75-.44-.93,0-.27-.11-.46-.36-.56-.02-.26-.16-.41-.4-.48,0-.12,0-.25-.01-.37-.06-.61-.28-1.17-.53-1.72-.16-.35-.33-.69-.47-1.05.01-.18-.01-.33-.07-.47-.02-.04-.04-.08-.06-.12-.08-.13-.2-.24-.37-.32,0-.27-.12-.45-.36-.55,0-.09-.01-.18,0-.28,0-.48.1-.99-.3-1.35-.06-.05-.13-.1-.21-.15-.04-.22-.02-.48-.05-.7-.02-.13-.06-.25-.14-.36-.08-.09-.19-.17-.37-.22l-.03-.02c-.04-.18-.07-.37-.11-.55-.1-.52-.21-1.04-.3-1.57-.02-.09-.04-.17-.06-.24-.07-.19-.18-.34-.4-.41h-.01c-.06-.36-.12-.72-.42-.96.01-.24.05-.5.07-.74.01-.28-.02-.55-.19-.78-.08-.11-.19-.22-.34-.32,0-.27-.14-.44-.39-.52-.02-.42-.04-.85-.06-1.27-.01-.3-.03-.61-.04-.91-.04-.01-.08-.02-.12-.03-.04-.01-.09-.03-.13-.04-.05-.01-.09-.03-.14-.04-.2-.7.02-1.49-.4-2.15-.03-.04-.05-.09-.08-.13-.16-.61.13-1.34-.45-1.85-.23-.59.13-1.34-.48-1.83-.34-.8.08-1.73-.44-2.5-.03-.22-.06-.44-.09-.66.3-.85-.07-1.71-.01-2.56,0-.08,0-.15.02-.23h0c-.07-.13-.09-.27-.09-.42h0s-.04,0-.05-.01c-.09-.03-.19-.04-.29-.03-.44-1.12-.27-2.3-.41-3.46-.04-.37-.07-.74-.1-1.1.33-1.38-.08-2.77,0-4.15.01-.17.03-.34.05-.51,0-.31,0-.61,0-.92-.06-.02-.12-.04-.18-.05-.07,0-.13,0-.2,0,0-.28.01-.56.02-.83.26-.18.37-.44.36-.75-.03-1.02-.06-2.04-.09-3.06.02-.1.02-.2,0-.3.02-.65.05-1.29.07-1.94h0c.06-.02.1-.05.14-.09.22-.19.25-.51.35-.79.03-.08.06-.15.11-.22.07-.11.16-.19.32-.24h0c-.01.26-.05.52-.05.78,0,.18.02.36.09.52.08.19.22.36.48.5.13.7.29,1.4.36,2.1.05.46.22.83.5,1.17.04.77-.22,1.61.57,2.18.11.19.34.4.31.57-.17.96.22,1.79.55,2.63.35.88.58,1.79.84,2.69.25.85.66,1.65,1,2.47,0,0,0,0,0,0,.42.38.41.91.45,1.41.04.43.07.86.1,1.29.05.43.43.79.4,1.24,0,.08-.02.16-.06.25.06.13.07.27.03.41h0c.06.03.13.05.2.07.06.01.12.02.18.03.03.13.06.26.08.4-.12.54-.16,1.06.35,1.45.13.31.07.72.46.9.15.48.12,1.02.47,1.43.04.17.09.34.13.51.02.08.04.16.06.24,0,.02,0,.03.01.05,0,0,0,0,.01,0,.11,0,.22.01.33.05h0c0,.24-.05.48-.04.71,0,.21.06.4.21.57.05.06.12.12.2.17.02.29.2.42.46.47-.01.13.03.25.13.34.07.06.14.11.21.16.69.52,1.1.49,2.09-.07.17-.06.35-.13.44-.28.03-.04.04-.1.05-.16.26-.04.42-.2.49-.45.08-.02.16-.04.23-.06.44-.16.63-.51.69-.94.02-.12.03-.25.02-.38.24-.1.35-.28.31-.55l.14-.08-.03-.16s0,0,0,0c0,0,0,0,0,0,.26-.12.43-.32.48-.6.27-.07.42-.24.39-.54.43-.68.38-1.63,1.23-2.08.17-.09.24-.38.32-.6.89-2.54,1.98-5.01,2.77-7.59.36-1.16.8-2.31.71-3.57-.01-.16.25-.34.39-.52.3-.07.46-.24.53-.48.03-.09.04-.19.04-.29,0-.01,0-.02,0-.04,0-.48-.02-.96-.03-1.44.04-.05.07-.09.1-.14.45-.66.34-1.43.36-2.17l-.03-.03c.78-.44.45-1.18.48-1.82.32-.58,0-1.31.46-1.85.04-.04.07-.09.1-.13.49-.64.45-1.39.38-2.15.18-.91.36-1.81.54-2.72.59-.72.33-1.57.35-2.38.04-.13.07-.26.1-.39.22-.14.33-.33.38-.55.02-.06.03-.12.04-.17.01-.08.03-.15.04-.23.08-.53.46-.45.82-.45.2.58.37,1.17.8,1.64.1.11.32.19.34.3.26,1.96,1.99,3.22,2.41,5.1.08.37.14.84.39,1.06.98.83.86,2.32,1.84,3.07.6.45.83,1.1,1.17,1.67.74,1.26,1.59,2.4,2.72,3.34h0c.86.68,1.74.58,2.61.03.05-.03.06-.13.09-.2,1.22-1.42,1.7-3.24,2.54-4.85,1.26-2.41,2.19-4.96,2.48-7.7.02-.22.14-.44.21-.66.37-.23.41-.61.42-.99.01-.91.02-1.82.02-2.73l.04.02c.12-.18.32-.35.33-.54.2-2.73.1-5.45-.05-8.18-.01-.19-.23-.36-.35-.54h.01c.09-.43-.08-.72-.41-.95-.05-.14-.05-.27.01-.4.67-.95.65-1.88-.07-2.79-.48-2.45-.96-4.89-1.44-7.34.1-.67.2-1.34-.45-1.82-.14-.17-.27-.35-.41-.52,0-.68-.01-1.36-.02-2.03,0-.32-.15-.57-.43-.74-.21-.56-.51-1.05-.68-1.66-.97-3.44-2.32-6.7-4.33-9.71-.88-1.31-2.16-1.19-3.31-1.61-.11-.04-.34.04-.4.13-.52.83-1.85.86-2,2.08-.03.22-.39.45-.65.59-.6.32-.97.85-.98,1.46-.02.94-.73,1.5-1.03,2.26-.31,0-.62.01-.93.02h0c-.01-.67-.02-1.35-.04-2.02,0-.33-.17-.56-.46-.7-.08-.12-.24-.24-.24-.37-.05-1.98-.91-3.79-1.18-5.73-.09-.67-.33-1.32-.55-1.96-.36-1.06-.61-2.16-.95-3.21-.66-2-.84-4.16-1.83-6.05-.44-.84-.05-1.84-.67-2.6.1-.82.13-1.63-.45-2.32-.53-.77-.66-1.68-.91-2.55-.17-.59-.36-1.15-.78-1.73-1.77,1.96-3.22,4.07-4.05,6.57-.05.14-.05.33-.14.43-1.34,1.47-1.93,3.4-3.04,5-.35.51-.63,1.03-.83,1.62-.19.57-.47,1.17-.88,1.59-.66.68-1.11,1.47-1.43,2.31-.35.92-1.41,1.35-1.43,2.54-.01.86-1.05,1.57-.97,2.5.08.99-1.34,1.41-.78,2.48-.32.77-.64,1.54-.96,2.31-.21-.14-.3-.34-.36-.56-.03-.1-.05-.2-.07-.3,0-.02,0-.05-.01-.07-.08-.34-.12-.71-.48-.89-.23-.29-.48-.58-.35-.99.15-.45.08-.88-.13-1.29-.01-.34-.03-.67-.04-1.01,0-.57-.01-1.15-.02-1.72.01-1.14.03-2.29.04-3.43.05-5.43.1-10.85.14-16.28,0-.53-.09-1.06-.14-1.6.01-.29.03-.57.04-.86v-.49c.05-.14.04-.29,0-.43,0-.16.01-.32.02-.48.05-1.02.36-2.04.02-3.07.66-1,.28-2.19.6-3.26.33-1.09.36-2.22.32-3.34.35-.18.49-.49.48-.86,0-.49-.03-.98-.05-1.47.04-.13.09-.25.14-.37.58-.4.35-.96.3-1.48.39-1.34.49-2.72.51-4.1.18-.09.3-.2.38-.33.28-.42.12-1.02.26-1.48.12-.39-.02-.87.28-1.27.36-.49.47-1.04.53-1.61.02-.26.04-.52.05-.78.1-.08.18-.18.24-.27.09-.16.12-.34.14-.52.01-.21,0-.42,0-.63.26-.24.47-.52.49-.9.38-.23.39-.6.34-.98l.14-.14-.06-.19s0,0,0,0c.36-.45.34-.99.4-1.52h0c.36-.18.55-.46.56-.85.08-.07.14-.13.19-.2.11-.14.14-.29.11-.43-.04-.2-.17-.39-.33-.59h0s0-.01,0-.01c.14-.09.29-.18.43-.27.38-.25.67-.56.57-1.13,0-.03,0-.06-.01-.09.07-.03.13-.06.18-.1.05-.05.1-.11.15-.16.04-.07.07-.16.08-.26.08-.04.15-.09.2-.14.1-.1.16-.23.19-.37.03-.14.04-.29.05-.43.11-.07.19-.14.25-.22.15-.19.2-.41.22-.65,0-.16,0-.33,0-.49.31-.22.53-.5.48-.91.39-.67,1.16-1.05,1.33-1.87.13-.07.22-.16.29-.25.1-.14.14-.31.16-.48.03-.19.03-.4.06-.59.25,0,.49.01.74.02.09.24.17.49.26.73.09.27.19.53.27.8,0,.02.02.05.03.07.09.25.2.46.46.58h0c0,.26.08.47.32.58,0,.01,0,.03,0,.04-.02.21-.09.47,0,.6.86,1.25,1.74,2.48,2.65,3.69.22.3.5.63.83.76,1.23.47,1.84,1.78,3.11,2.17,1.16,1.58,2.98,2.03,4.65,2.73.82.62,1.79.5,2.72.54.19,0,.42-.09.48-.36.08-.34-.07-.54-.36-.68-.05.15-.12.26-.21.34.07-.1.15-.21.21-.34-.85-.64-1.63-1.43-2.57-1.87-1.05-.49-1.78-1.42-2.87-1.82-1.63-.59-2.8-1.8-3.91-3.07-.95-1.07-1.99-2.07-2.66-3.37-.06-.12-.19-.2-.32-.29-.07-.04-.14-.09-.2-.13,0-.27-.12-.45-.38-.53-.09-.34-.22-.66-.55-.85-.03-.37.03-.77-.04-1.13,0-.05-.02-.1-.03-.14-.06-.21-.17-.42-.38-.59-.17-.45-.34-.89-.5-1.34h0c.31-.23.42-.56.46-.92h0c.23-.31.46-.61.69-.92.24-.32.47-.64.68-.98.06-.09.07-.22.07-.35,0-.16-.02-.33-.02-.49.29-.32.58-.64.86-.96h.01c.17-.07.29-.16.37-.27.03-.05.06-.09.08-.15.05-.13.07-.29.08-.45.12-.07.21-.16.29-.26.1-.12.17-.26.21-.42.01-.06.03-.12.04-.18.03-.02.06-.04.09-.06.14-.12.2-.26.23-.41.03-.18,0-.37,0-.56h0c.51-.59,1.31-.93,1.42-1.82.46-.36.89-.73.93-1.37.04-.04.06-.09.09-.14.15-.25.31-.5.46-.74.18-.17.36-.35.52-.54.14-.17.27-.34.39-.52.16-.25.29-.51.38-.8.45-.35.31-.95.6-1.37.14.08.24.05.29-.1.17-.12.31-.29.51-.36,0,0,0,0,0,0-.17.12-.34.24-.51.35.28.04.48-.04.53-.35.14-.07.23-.16.3-.27,0,0,0,0,0,0,.12-.18.17-.39.22-.61.16-.05.29-.13.4-.22.08-.06.15-.14.21-.22.11-.16.19-.34.23-.56.16-.14.32-.27.48-.41.66-.56,1.28-1.16,1.7-1.93.06-.12.12-.24.18-.36.27-.09.38-.28.32-.57l.13-.13-.05-.18h0c.19-.19.38-.38.57-.57l.17.05.13-.13c.16-.14.31-.31.52-.39,0,0,0,0,0,0-.17.13-.34.25-.51.38.31.06.48-.07.53-.36.26-.08.37-.27.4-.53.27-.04.44-.18.47-.46.22-.23.49-.43.74-.63.39-.3.75-.63.94-1.08.07-.18.13-.37.14-.6.34-.1.69-.15.92-.46.3.05.47-.1.54-.37.26-.05.41-.21.46-.47.26-.06.39-.24.43-.5.27-.06.39-.23.35-.51l.14-.1-.03-.17s0,0,0,0h0c.3-.2.59-.4.89-.61.38,0,.72-.11.96-.43.09,0,.18-.01.26-.03.29-.07.48-.24.61-.49.05-.1.09-.21.12-.34.17-.05.36-.09.53-.14.26-.08.49-.19.64-.4.08-.11.13-.26.16-.44.45-.13.84-.16.96.47.04.2.2.39.31.58l-.11.09.05.14s-.07.1-.1.15c-.06.08-.11.16-.09.2.26.52.54,1.03.82,1.53.1.18.2.36.3.54,0,0,0,0,0,0h0c0,.06.02.1.03.15.04.14.12.24.25.3.05.02.12.04.18.05.1.25.29.36.55.37.06.25.21.4.46.47.02.26.12.45.37.54.02.09.05.16.08.24.32.84,1.05,1.17,1.82,1.47.13.05.26.1.4.15.09.34.25.62.62.74l.03.03c.24.54.77.47,1.21.6.02.09.04.18.07.26.18.44.54.58.96.62.12.01.25.01.38.01.11.23.28.35.55.34-.17-.11-.35-.22-.52-.34,0,0,0,0,0,0,0,0,0,0,0-.01.21.06.34.25.52.35l-.06.13c.02.06.04.11.07.15.09.16.25.21.45.16.02,0,.04,0,.06-.01h0s0,0,0,0c.07.02.14.04.21.06.05.02.1.03.16.05.38.46.9.45,1.43.4.15.01.31.02.46.04.28.02.56.04.84.07.07.11.15.19.25.25.2.13.45.16.71.16,0,0,0,0,0,0,.3,0,.6.06.9.09,0,0,0,0,0-.01.16.12.29.21.41.27.21.1.4.11.62.01.13-.06.28-.15.46-.27,0,0,0,0,0,0,.08.04.16.08.25.12.2.09.39.19.59.28.17.13.34.36.51.36,1.51.01,3.01,0,4.52-.05.14,0,.28-.15.42-.27.04-.03.07-.06.11-.09.34-.16.67-.15,1.04-.05.11.03.22.04.33.04.1,0,.19-.02.28-.06.11-.05.21-.15.28-.29.46-.14.9-.36,1.42-.16.06.02.12.04.19.05.16.03.32.01.46-.07.09-.05.18-.14.25-.26.98-.23,1.96-.46,2.94-.7.09-.02.17-.04.26-.06.16-.04.26-.13.33-.24.07-.12.12-.26.17-.4.5-.17,1.07-.12,1.55-.39.08-.03.15-.08.22-.15.15.03.27,0,.36-.05,0,0,.02-.01.02-.02.08-.06.14-.16.17-.28.25-.05.4-.21.47-.44.11,0,.21-.02.31-.04.38-.08.7-.26.99-.51.16-.14.31-.3.46-.47.12,0,.23-.02.33-.05.37-.11.66-.38.92-.65.31-.32.66-.53,1.05-.7.42.05.9,0,.8.67-.02.15,0,.32.03.48,0,.06.02.11.02.17-.1.11-.14.25-.11.39-.03.02-.06.05-.09.08-.59.54-.44,1.23-.38,1.9,0,.11.02.22.02.32-.24.07-.41.21-.45.48-.08.05-.14.12-.19.18-.07.1-.1.22-.11.34-.03.38.17.81-.05,1.06-.04.05-.08.1-.12.16-.46.6-.62,1.27-.7,1.95-.06.47-.09.95-.18,1.42-.45.38-.34.93-.42,1.42-.03.04-.06.08-.08.13-.41.67-.19,1.46-.38,2.17-.33.33-.43.73-.47,1.15-.03.23-.03.47-.06.7-.02.17-.02.33-.03.5,0,.28,0,.55-.02.83,0,0,0,0,0,0-.1.17-.23.33-.25.51-.2,1.37-.2,2.75-.13,4.14-.35.36-.47.78-.5,1.21,0,.07,0,.14-.01.21,0,.3.02.61.01.91-.01,1.37.1,2.74.16,4.11h0s0,.07-.01.1c-.11.79-.23,1.58.41,2.25.13.57.27,1.13.39,1.71.05.22.12.41.28.55.05.04.11.08.18.11.02.11.06.2.11.27.03.03.06.07.1.1.08.06.17.1.28.12,0,0,0,0,0,0,.04.04.07.08.1.11.31.34.46.35.7.02.05-.07.1-.14.16-.24h0c.16-.15.32-.3.48-.44.04-.05.08-.1.12-.15.76-1.04.42-2.09-.06-3.15h0s0,0,0,0c-.07-.21-.08-.45-.19-.64-.06-.11-.14-.2-.28-.27.05-.15.01-.28-.11-.39,0-2.16,0-4.33.01-6.49.19-.73-.2-1.5.13-2.23.15-.11.25-.23.32-.35.1-.19.13-.41.12-.62-.01-.31-.08-.62-.06-.92.26-.18.32-.44.34-.75.02-.35.11-.7.17-1.05.07-.08.13-.17.18-.25.31-.51.35-1.06.27-1.63-.02-.17-.05-.34-.09-.51.1-.13.12-.28.05-.43l.09.06c.09-.07.15-.14.21-.21.21-.27.22-.57.17-.89-.02-.12-.05-.25-.08-.38.09-.13.11-.27.06-.42.64-.5.28-1.24.42-1.86l.02-.02c.65-.64.4-1.48.5-2.24.28-.24.56-.48.51-.9.48-.56.35-1.25.37-1.9h0c.09-.07.14-.16.18-.26.09-.13.18-.26.27-.39.06-.09.13-.18.19-.27v-.12c-.01-.12-.02-.24-.02-.36l-.02-.35c.08-.04.15-.1.2-.15.08-.09.13-.2.15-.32.03-.16.01-.34-.01-.52.4-.38.3-.91.38-1.38l.15-.1-.02-.18s0,0,0,0c.5-.43.44-1.01.4-1.58h0c.14-.3.29-.61.41-.91.29-.72.45-1.47.03-2.29-1.33-.84-2.04-.74-3.18.46-.01,0-.02.02-.03.03-.14.14-.28.28-.42.42l-.02.02c-.17.13-.33.27-.47.43h0c-.17.06-.28.15-.37.27-.03.04-.06.09-.08.14-.06.12-.1.25-.14.39-.14.02-.26.06-.38.11-.05.03-.11.06-.16.09-.12.08-.22.19-.3.34-.39,0-.73.08-.87.51h0c-.25.02-.46.11-.56.36-.05,0-.1.01-.14.02-.16.05-.26.16-.31.32-.01.03-.02.06-.03.1-.05.02-.1.04-.14.06-.05.05-.11.09-.16.14-.06.08-.11.17-.14.28-.13.01-.26.04-.38.08-.09.04-.17.09-.26.13-.1.07-.18.16-.24.29-.18.01-.35.03-.5.1-.02.01-.05.02-.07.04-.13.08-.25.19-.32.38-.33.22-.6.53-.95.72-.15.05-.3.1-.44.17-.16-.03-.3-.02-.43.02-.08.04-.15.08-.23.12-.1.08-.2.19-.27.34-.28,0-.42.17-.51.41-.15,0-.31,0-.46.01-.25,0-.5.05-.7.21-.08.06-.15.14-.21.24-.25.06-.53.05-.78.09-.08.02-.17.05-.26.07-.13.05-.26.13-.36.26-.14.03-.29.05-.43.08h0c-.3.02-.6.04-.9.06-.27,0-.53.02-.8.03-.01,0-.02,0-.03,0-.75-.07-1.52-.28-2.17.21-.07.05-.14.11-.21.18-.61,0-1.21-.02-1.82-.03-.02-.04-.05-.07-.07-.1-.12-.16-.24-.15-.36,0-.02.03-.05.07-.07.11-.45,0-.91.01-1.36.02-.1-.06-.2-.1-.3-.15-1.08-.49-2.24-.26-3.38-.23-.03,0-.07,0-.1,0-.11,0-.22,0-.32-.03-.17-.02-.34-.03-.51-.05h0s-.02-.03-.03-.04c-.27-.37-.67-.44-1.09-.43-.34.01-.68.04-1.02.07-.09,0-.18.01-.26.02-.11-.09-.23-.11-.36-.08h0c-.29-.57-.88-.36-1.33-.52-.06-.27-.23-.39-.51-.36.16.12.33.25.49.37,0,0,0,0,0,0-.19-.09-.33-.25-.5-.38l-.08-.13-.15.04h0c-.27-.36-.65-.46-1.06-.52-.09-.26-.26-.38-.55-.3-.22-.18-.46-.21-.72-.1,0,0,0,0,0,0,0,0,0,0,0,0-.15-.26-.39-.36-.66-.4-.03-.18-.07-.36-.14-.51-.08-.19-.21-.34-.42-.42-.09-.03-.18-.05-.3-.06-.07-.24-.21-.41-.46-.47-.03-.28-.2-.41-.48-.44-.07-.25-.25-.38-.5-.43-.03-.26-.16-.43-.41-.5-.04-.36-.11-.72-.49-.9-.01-.38-.2-.66-.5-.88h0c-.13-1.23-.18-2.45.05-3.67.14-.04.25-.11.32-.19.09-.1.14-.22.17-.35.02-.09.04-.19.05-.29.11-.02.22-.04.33-.07.16-.05.31-.12.42-.25.04-.05.08-.11.11-.18.26-.02.42-.15.51-.38.07.01.13.02.19.02.3.01.57-.08.81-.32.05-.05.11-.1.16-.14.23-.21.47-.4.7-.59l.19.05.13-.15c.28.04.45-.08.51-.35.26-.04.44-.17.51-.43.19-.08.38-.18.56-.28.36-.21.69-.46.99-.76.1-.1.2-.2.29-.31.28-.06.43-.23.48-.49.24-.12.47-.26.69-.4.59-.41,1.12-.9,1.66-1.37.25-.22.51-.42.78-.61.28,0,.46-.12.53-.4.26-.05.41-.2.46-.46.25-.04.42-.17.5-.41.05,0,.11,0,.16-.02.39-.07.6-.3.69-.64.02-.09.04-.19.05-.3.26-.08.46-.23.57-.48l.16.06.11-.13c.4.04.78.05.88-.47l.02-.03c.33-.27.82-.38.95-.87.17-.11.33-.22.48-.33.58-.43,1.06-.94,1.38-1.6.04-.08.07-.16.11-.24.13-.04.23-.1.29-.18,0,0,0,0,.01-.01.07-.09.09-.21.07-.36.3-.22.42-.54.5-.88.13-.03.25-.08.36-.14.16-.1.3-.23.39-.44.01-.02.02-.04.03-.06.14-.29.34-.55.51-.82.11-.03.2-.08.26-.13.24-.18.25-.47.26-.75,0-.14.02-.27.06-.4.06-.04.11-.08.15-.13.1-.11.16-.23.2-.37.04-.14.05-.3.06-.45.24-.09.35-.28.36-.54-.12.17-.24.34-.36.51,0,0,0,0,0,0,0,0,0,0-.02,0,.07-.21.25-.34.38-.51h0c.19-.11.36-.22.51-.35.19-.16.33-.35.41-.59.04-.12.06-.24.06-.38.36-.21.52-.52.45-.94.17-.31.34-.61.48-.93.18-.39.33-.78.4-1.2.04-.22.06-.44.05-.67l.08-.12-.09-.12s0,0,0,0c.28-.31.49-.65.53-1.08,0,0,0,0,0,0,.15-.31.28-.63.41-.95.31-.8.55-1.62.7-2.45.12-.7.19-1.41.19-2.14,0,0,0-.02,0-.03.66-1.25.52-2.57.28-3.88-.02-.12-.2-.2-.31-.3-.04-.05-.07-.1-.09-.16-.15-.41.13-.95-.31-1.27-.17-.68.05-1.45-.49-2.03l.04-.14-.12-.08c-.13-.16-.31-.3-.36-.52,0,0,.01,0,.02.01.11.17.23.34.34.51.04-.28-.09-.45-.34-.54-.05-.22-.03-.45-.01-.69.03-.37.05-.74-.23-1.05-.04-.05-.1-.09-.16-.14-.08-.35-.18-.7-.21-1.05-.03-.3-.05-.58-.34-.75-.22-.4-.35-.85-.49-1.29-.1-.31-.21-.61-.38-.89-.13-.21-.29-.41-.49-.58,0-.19,0-.37-.02-.54-.02-.14-.07-.28-.14-.4-.08-.15-.19-.29-.36-.41.01-.15.02-.3,0-.44-.02-.12-.07-.24-.16-.33-.07-.07-.16-.12-.29-.16-.04-.28-.18-.5-.43-.63l.06-.15-.12-.11c0-.26.04-.52,0-.77-.02-.11-.05-.21-.11-.31-.07-.12-.18-.23-.36-.32-.02-.27-.19-.41-.42-.5.01-.25.03-.5.01-.75-.01-.19-.05-.38-.13-.56-.08-.18-.19-.35-.37-.51.03-.4-.01-.76-.44-.93,0-.24-.03-.47-.08-.68-.06-.23-.15-.44-.29-.62-.14-.2-.33-.38-.57-.52.06-.29.07-.56.03-.82-.05-.34-.18-.67-.33-.98-.16-.33-.36-.66-.52-.99-.13-.62.03-1.33-.56-1.81,0-.5-.03-1-.5-1.32l-.02-.03c0-.37-.12-.7-.42-.94-.07-.32-.11-.65-.16-.98-.06-.35-.15-.69-.34-.99-.08-.14-.18-.27-.31-.39-.12-.62-.02-1.31-.48-1.84.02-.15.02-.3,0-.43-.02-.18-.08-.34-.16-.5-.08-.16-.19-.31-.31-.45.01-.05.04-.1.02-.14-.03-.09-.08-.18-.13-.27,0-.16.01-.31.02-.47,0-.02,0-.04,0-.06.19-1.11.06-2.17-.46-3.17-.02-.05-.03-.11-.06-.16-.06-.16-.16-.29-.34-.35-.1-1.28.19-2.6-.48-3.8v-.12s0,0,0,0c.21-.29.36-.59.39-.91.02-.18,0-.36-.06-.56.02-2.48.05-4.95.04-7.43,0-.17-.23-.35-.36-.52-.01-.1-.03-.2-.04-.3-.03-.2-.05-.39-.08-.59l.14.06s.07-.02.1-.03c.25-.08.35-.24.21-.54,0-.11-.01-.21-.03-.31.1-.34.21-.68.07-1.03.02-.29.04-.58.07-.87.4-.74.74-1.48.14-2.22-.04-.05-.07-.1-.12-.15,0-.28,0-.56,0-.83.13-.1.23-.21.3-.33.14-.25.17-.54.17-.85,0-.09,0-.18,0-.27,0-.29,0-.57.01-.86,0,0,0,0-.01,0,.19-.43.38-.86.55-1.3.28-.73.49-1.47.47-2.27,0-.17-.02-.35-.04-.52.24-.09.39-.24.35-.53.2-.22.32-.45.39-.7.02-.12.05-.25.08-.37.03-.25.03-.5,0-.77.33-.23.44-.56.4-.96l.1-.08-.05-.12s0,0,0,0c.38-.64.5-1.33.48-2.06.12-.05.2-.12.27-.19.19-.19.23-.45.24-.71,0-.14,0-.29,0-.44.24-.1.38-.26.34-.55h0c.05-.06.09-.1.13-.15.16-.19.27-.39.34-.61.03-.1.06-.21.08-.32.04-.21.05-.43.05-.66.24-.1.37-.26.35-.54.42-.37.45-.87.48-1.37.27-.24.47-.52.65-.81.35-.59.61-1.24,1.01-1.79.12-.17.25-.33.41-.48.14-.13.14-.41.2-.62.37-.18.48-.51.51-.89.3-.29.46-.69.68-1.04.15-.25.33-.47.6-.63.08-.05.1-.21.11-.37,0-.08.01-.15.02-.22.11-.07.2-.16.27-.26.04-.08.08-.15.13-.22.05-.12.08-.26.1-.4.1-.04.19-.07.28-.12.28-.14.5-.32.57-.64.01-.06.02-.13.02-.21.24-.11.33-.31.35-.57l-.03-.02s0,0,0,0c0,0,.01.02.02.03.13-.08.25-.17.37-.25.46-.34.86-.72,1.16-1.19.15-.25.28-.52.36-.82.23-.06.44-.16.51-.42.28-.01.41-.19.47-.45.27-.05.45-.17.48-.47.15-.19.34-.34.53-.5.35-.29.7-.57.85-1.02.03-.08.04-.16.06-.25.33-.11.64-.23.76-.6l.02-.02c.26-.02.41-.17.5-.4.28,0,.45-.12.52-.39.09-.02.17-.05.24-.09.08-.05.16-.11.2-.21.02-.04.04-.09.05-.14.06-.01.11-.03.15-.05.05-.04.09-.08.14-.12.07-.08.1-.19.13-.31.35-.08.67-.18.83-.55h.01c.29-.01.44-.16.47-.44.25-.04.42-.19.5-.43.27-.01.45-.13.5-.41.24-.07.38-.24.46-.47.08,0,.16-.01.23-.03.36-.08.6-.29.71-.66.02-.06.03-.13.04-.21.18-.17.37-.34.55-.51-.31.04-.51.2-.58.5,0,0,0,0,0,0,.05-.32.27-.46.58-.5l.14.04.08-.12.22.04.21-.05s.07,0,.1,0c.62.03.96-.34,1.21-.83.02-.03.04-.07.05-.1.12-.07.18-.18.16-.31.34-.08.6-.29.83-.55.28-.03.51-.14.73-.27.15-.12.3-.23.47-.33.36-.28.7-.58,1.13-.72,0,0,0,0,0,0h0s0,0,0,0c.59-.13.96-.58,1.4-.93.18,0,.35-.02.5-.08.02-.01.05-.02.07-.04.14-.08.26-.19.36-.35.64-.23,1.26-.49,1.72-1.02l.03-.02c.19-.1.31-.28.52-.34,0,0,0,0,0,.02h0s0,0,0,0c-.17.11-.35.22-.52.33.25,0,.45-.09.56-.33.17,0,.34-.04.48-.1.07-.03.13-.07.2-.12.09-.06.17-.14.24-.23.05,0,.1,0,.14-.01.15-.03.25-.11.32-.24.02-.04.04-.1.05-.15.2-.11.43-.14.66-.18.13-.03.26-.06.38-.12.1-.05.19-.13.26-.25.28-.01.42-.19.49-.43.49-.05.98-.1,1.3-.55h0c.95-.13,1.47-1.03,2.34-1.31,0,0,0,0,0,0h0c.15,0,.28-.04.39-.09.15-.07.26-.17.36-.29.1-.13.18-.29.25-.47.28-.04.56-.08.84-.11.07,0,.15-.02.22-.03.17-.02.32-.06.44-.14.11-.07.2-.16.27-.28.38-.01.65-.23.87-.51h0c.32.03.47-.14.48-.44,0,0,0,0,0,0,.14-.17.3-.32.45-.47.23-.04.48.01.72,0,.16,0,.32-.03.45-.14.09-.07.17-.16.23-.31.38-.08.77-.14,1.05-.44l.2.03.12-.16c.25.03.43-.06.53-.29.43,0,.81-.12,1.07-.49l.14.05.09-.12c.32.05.53-.11.67-.38l.16.04.09-.14c.27.04.45-.06.55-.31.12,0,.25,0,.37,0,.38-.01.74-.07.97-.45.29-.47.77-.44,1.2-.54.05-.01.1-.02.14-.04.08-.01.16-.02.24-.02.57,0,1.18.17,1.59-.45,0,0,.01-.01.02-.02.15-.15.29-.29.44-.44.72.07,1.4,0,2.01-.42h.2s.1-.15.1-.15c.24.01.42-.06.52-.28h.24c.45.01.89.02,1.34.03.03,0,.07,0,.1,0,.28.32.64.57.6,1.1-.07.82-.05,1.64-.08,2.45-.5.71-.53,1.51-.42,2.33l-.13.13.07.17s0,0,0,0c-.43.61-.39,1.31-.44,2l-.08.09.07.1s0,0,0,0h0c-.15.38-.29.77-.44,1.15-.21,0-.41.01-.6.04-.33.05-.62.18-.77.54-.03.08-.06.17-.08.27-.24.08-.4.23-.46.48-.28.06-.41.23-.4.52-.25.24-.49.47-.74.71-.95.91-1.89,1.82-2.84,2.72-.21.2-.39.42-.5.67-.06.14-.11.29-.11.46-.34.09-.72.11-.87.52h0c-.08.06-.17.12-.25.18-.63.47-1.19,1.01-1.53,1.73-.05.1-.09.21-.13.32-.27.04-.42.19-.46.46-.27.07-.41.24-.38.54-.3.2-.48.48-.56.83-.08.02-.15.05-.21.08-.1.06-.17.14-.21.26-.02.04-.03.09-.04.14-.03.01-.07.03-.1.05-.28.16-.38.41-.38.7,0,.06,0,.11,0,.17-.11.14-.22.27-.33.41-.02.03-.05.06-.07.09-.31.07-.42.26-.33.56-.05.12-.1.24-.13.36-.41.21-.47.56-.39.97-.02.29-.03.57-.05.86l-.06.91c-.06.07-.13.13-.19.2-.08.09-.17.17-.25.26-.49,1.36-.61,3.31-.25,4.37.02.05.06.1.11.14.07.06.15.11.21.17.04.19,0,.4-.01.61-.03.29-.03.58.23.8.03.03.06.05.1.08.06.36.24.65.54.87,0,.15-.02.31-.02.47-.02.3,0,.59.29.79.06.04.13.07.21.1.07.26.27.37.5.45-.01.22,0,.41.04.59.09.46.34.8.76,1.01.18.09.38.16.61.21l.11.13.16-.06c.15.29.3.57.54.74,0,0,0,0,0,0,.14.1.31.16.53.17.21.36.55.45.92.47.08.1.16.2.24.29.35.4.76.71,1.34.7.07,0,.14,0,.22-.02.11.23.3.34.56.34h0c.18.38.48.53.89.5.25.29.54.49.95.43l.1.12.14-.06c.09.1.21.14.35.16.19.09.39.17.59.23.27.08.51.19.63.46-.09.1-.15.22-.17.34-.21.46-.3.95-.34,1.46-.51.38-.23.97-.37,1.44h0c-.13.05-.23.11-.32.19-.27.23-.32.55-.3.91,0,.06.01.13.02.19-.12.09-.2.19-.25.3,0,0,0,.01,0,.02-.09.2-.1.44-.08.69-.27.32-.42.67-.48,1.03,0,.04-.01.08-.02.13-.05.37-.01.76.06,1.16l-.12.09.04.14s0,0,0,0c-.23.16-.37.37-.4.63,0,.04-.01.07-.02.11,0,.04,0,.08,0,.12,0,.55-.01,1.1-.02,1.64-.04.05-.08.1-.1.16-.24.38-.37.79-.32,1.25-.28.29-.41.66-.38,1.04.04.68-.02,1.35-.07,2.03-.06.73-.11,1.46-.14,2.19-.03.93-.02,1.86.09,2.78,0,.02,0,.05,0,.07.1.89.13,1.76.09,2.64,0,.06,0,.12,0,.18,0,.01,0,.02,0,.03.02,0,.04.02.06.03.1.04.2.08.31.12,0,.41-.03.83.01,1.23.01.1.03.19.04.29.06.28.17.55.36.8.07.36.03.76.11,1.12,0,.03.01.06.02.09.06.22.17.43.39.6-.06.15-.04.29.07.41-.02.15-.04.3-.06.45-.07.51-.08,1.01.38,1.41.02.02.03.04.05.05.1.34.08.74.47.92-.04.15-.02.28.06.41,0,.06.02.11.03.16.12.65.31,1.27.85,1.72.21.3.51.55.42.99-.06.29,0,.53.19.7.07.07.16.12.27.17.1.36.02.78.1,1.14,0,0,0,.02,0,.03.06.22.18.43.45.58v.02c.1.22.18.45.27.67.03.1.06.21.11.3-.04.53.12.98.51,1.35-.03.4,0,.76.44.94.23.59-.21,1.35.5,1.8h0c.03.37.1.72.39.98-.02.11,0,.19.03.26.03.04.06.09.09.13.06.06.15.11.25.14.18.52.06,1.16.53,1.57.04.03.07.06.11.09l.02.04c0,.37.09.71.37.97-.02.1-.03.2-.02.3,0,.25.09.46.31.63.03.02.06.04.09.06,0,.08.03.15.05.22.01.04.03.08.05.12.1.21.26.37.49.49h0c.02.22-.02.45-.03.67-.01.25.02.49.24.68.04.04.09.07.15.11.14.24.29.48.43.72.02.05.05.1.09.15-.02.16-.02.31.02.45.04.09.08.18.13.27.06.09.15.17.26.24,0,.1,0,.2,0,.3.02.41.12.8.5,1.08.08.47,0,1,.46,1.34.04.12.08.24.1.37,0,0,0,0,0,.01,0,0,0,0,0,0-.15.43-.01.76.38.99,0,0,0,0,0,.01.14.16.27.32.41.48,0,.19.04.36.13.5h0c.09.14.23.25.43.32l.03.02c.02.26.17.41.39.5,0,.19-.02.39-.01.58.01.19.05.37.17.53.07.1.18.19.32.26,0,.12.02.24.04.35.04.2.13.38.37.48.03.01.05.02.08.03l.04.04c.02.25.14.42.37.52,0,.15,0,.3.02.43.02.11.07.21.15.29.08.07.18.13.33.16h0c.04.26.22.39.45.47,0,.37.1.72.39.98-.02.06-.03.12-.04.19-.04.25-.03.49.21.69.06.08.12.17.18.25-.06-.08-.12-.17-.18-.25-.02.26.09.43.34.49,0,.22.1.38.27.45.04.02.08.03.13.04.04.26.2.41.44.48-.02.11-.02.2-.02.3.02.44.24.75.61.95.1.05.21.1.33.14-.02.15.03.27.16.36,0,.5,0,1.01.36,1.42-.02.09-.01.16,0,.23.02.1.08.18.17.24.05.03.11.06.18.08.01.08.03.16.04.23.05.21.12.41.29.55.05.04.11.08.17.11.17.35.35.71.52,1.06l-.04.15.13.08c-.03.3.1.51.35.66l-.07.15.12.11c.03.76.62,1.23.94,1.84h0c-.04.28.07.48.33.58,0,.05.02.09.03.13.04.14.13.23.25.3.04.02.09.04.14.05,0,.05-.01.09-.02.14-.03.23,0,.45.16.65-.08.35-.02.64.21.87.05.05.1.09.17.14.13.46.09,1,.55,1.32,0,.39.08.73.47.92,0,.28.11.47.4.52.05.25.2.4.42.49,0,.08-.03.15-.06.23-.07.21-.13.43.14.61-.02.21,0,.4.06.57.07.19.19.37.37.52,0,0,0,0,0,0l-.04.18.15.11c-.04.28.09.44.35.51.04.43.09.85.11,1.28.02.38.06.74.42.97h0c.02.48.04.96.05,1.43,0,.07,0,.13,0,.2,0,0,0,0,0,0,.02,0,.03.02.05.02.06.03.11.06.17.09.06.03.13.06.19.1,0,0,0,0,0,0l.02.86c0,.1,0,.2,0,.3,0,.06,0,.12,0,.17.02,0,.03,0,.05.01.03,0,.07.02.1.02.07.02.15.04.22.05,0,0,0,0,0,0,.16.82.21,1.64.16,2.47,0,0,0,0,0,.01,0,.05,0,.1,0,.14.03,0,.05.02.08.03,0,0,0,0,0,0,.08.02.17.05.25.08,0,0,0,0,0,0,.1.24.14.49.15.74.02.4-.04.8-.06,1.2,0,.09,0,.19,0,.28.04,0,.08.02.12.03,0,0,0,0,0,0,.08.02.17.03.25.05,0,0,0,0,0,0,0,.3-.01.59-.02.89,0,0-.01,0-.02.01-.04.03-.08.06-.12.08,0,0,0,0,0,0-.07.05-.15.1-.22.15,0,0,0,0,0,0h0c.07.04.14.08.21.12,0,0,.02.01.03.02.05.03.1.06.16.08,0,0,0,0,0,0,0,.08-.01.17-.02.25,0,.02,0,.04,0,.07,0,.05,0,.11-.01.16l.06-.05.03-.02s0,.04-.01.06c-.07.32-.14.63-.21.95.03.3.06.6.09.9l.21.05h.02s.19,0,.19,0l.11-.07c-.03.14-.05.29-.07.43-.07.07-.14.14-.21.2-.11.11-.22.21-.32.31,0,.29,0,.58,0,.87,0,0,0,0,0,0h0c.11.12.16.26.15.42,0,0,0,0,0,0,.09.03.19.05.29.07.01,0,.03,0,.04,0,.02,0,.05.01.07.02h0s0,.06.02.08c.02.07.02.14,0,.22,0,.03,0,.07-.02.1,0,0-.02,0-.02,0-.01,0-.02,0-.03.01-.11.03-.22.07-.33.11,0,0,0,0,0,0,.04.14,0,.26-.09.37,0,.3,0,.6-.01.9,0,.32-.02.63-.03.95.04.14.08.27.12.41,0,0,0,0,0,.01,0,.02.01.04.02.06,0,.03-.01.06-.02.09-.04.24-.08.48-.12.72,0,0,0,0,0,0-.05.01-.09.03-.14.05-.02,0-.04.01-.06.02-.05.02-.09.03-.14.05,0,0,0,0,0,0,0,.17,0,.34,0,.51,0,0,0,.01,0,.02,0,.58,0,1.15,0,1.73l-.14.09.04.16s0,0,0,0c-.08.06-.16.12-.23.19-.04.03-.07.06-.11.09,0,0,0,0,0,0,0,.14-.01.29-.02.43-.02.59-.05,1.19-.07,1.78,0,0,0,0,0,0-.07.02-.14.04-.21.05-.03,0-.06,0-.09,0-.03,0-.07,0-.1,0-.09.3-.18.59-.27.89-.01.19-.04.37-.15.52-.02.13-.04.26-.06.38,0,.06-.02.12-.03.18-.01.08-.03.16-.04.24,0,0-.02,0-.02,0-.01,0-.03,0-.04.01-.03,0-.06.02-.09.03-.07.02-.15.04-.22.07.05.1.07.2.08.3.03.33-.11.65-.18.97-.11.04-.19.09-.25.15-.08.09-.12.2-.15.31-.03.15-.02.32-.02.48-.12.08-.22.16-.3.25-.17.2-.25.43-.27.69,0,.12,0,.24.01.37-.24.1-.38.27-.33.56-.09.09-.15.2-.18.32-.11.2-.23.39-.34.59-.02.02-.04.04-.06.06-1.39,1.24-1.43,1.23-3.5,1.38-.59.04-1.24-.2-1.75.25-.05.05-.1.09-.15.15-.15,0-.3.02-.46.02,0,0,0,0,0,0-.08-.06-.16-.1-.23-.15-.77-.48-1.55-.45-2.34,0-.07.04-.13.07-.2.12-.15,0-.3,0-.44,0-.04-.06-.09-.1-.13-.14-.52-.52-1.17-.31-1.8-.22q-1.4-.16-1.83.82c-.75,1.28-.67,1.54.54,1.88.04,0,.08,0,.12.01.1.01.19.02.29.03.23.32.48.27.73.05.16.25.39.37.68.39.06.26.23.39.5.37l-.04.09c.36.22.72.37,1.09.45.61.14,1.23.08,1.86-.2.12-.06.25-.12.37-.19.13.01.26-.01.38-.07l-.06.1c.1.13.22.22.34.28.21.1.44.12.67.11.22-.01.44-.04.65-.03.52.02,1.07-.11,1.55.07.19.07.37.18.53.38-.09.09-.13.2-.11.31,0,.03.01.06.02.09-.06.04-.11.09-.16.13-.1.11-.17.24-.2.38-.03.14-.04.3-.04.45-.14.16-.28.32-.43.49-.03.01-.05.03-.07.05-.36.23-.43.58-.46.94,0,.09-.02.19-.02.28l-.03.03s-.07.02-.1.04c-.38.14-.38.44-.32.76,0,.05.02.1.03.15h0c-.13.18-.26.35-.38.53h0c-.12.07-.22.14-.3.21-.29.26-.33.61-.24,1.02,0,.03.01.07.02.1-.15.3-.31.6-.46.9-.25.06-.41.22-.48.46-.12.02-.22.05-.31.09-.4.17-.56.53-.63.94-.02.1-.03.2-.04.3-.24.06-.39.22-.44.47-.26.09-.36.29-.34.57h0c-.3.2-.51.45-.59.8-.25.06-.41.22-.43.48-.26.09-.37.27-.33.55.11-.17.22-.35.33-.52,0,0,.01,0,.02,0-.04.22-.22.36-.35.52l-.13.09.05.15s0,0,0,0c-.16.36-.33.72-.49,1.08-.26.05-.41.2-.46.45-.34.08-.66.2-.83.55h0c-.33.28-.66.57-.97.87Zm-15.18,14.31s0,0,0,0c.16-.15.32-.29.47-.44,0,0,0,0,0,0-.15.15-.3.31-.47.44Zm-4.7,3.15s0,0,0,0c-.04.26-.19.41-.45.45,0,0,0,0,0,0,.25-.04.4-.19.45-.45Zm-4.99,3.29s.02-.02.04-.03c-.01,0-.02.02-.04.03h0Zm-40.1,117.52s0,0,0,0c.15-.15.3-.29.45-.44,0,0,0,0,0,0-.12.18-.27.33-.46.44Zm-39.03,46.48s0,0,0,0c0,.09.03.17.07.24-.04-.07-.07-.14-.07-.24Zm-.92-1.84s0,0,0,0c.01.15.06.26.15.35-.09-.08-.15-.2-.15-.35Zm4.32,6.12c.03-.06.07-.12.11-.2-.03.08-.07.15-.11.2Zm5.21-9.25s0,0,0,0c-.13.17-.28.33-.47.45,0,0,0,0,0,0,.15-.15.31-.3.46-.44Zm-2.35,3.21s0,0,.01,0c-.09.2-.25.34-.4.49,0,0,0,0,0,0,0,0,0,0,0,0,.13-.16.26-.33.39-.49,0,0,0,0,0,0Zm2.84-4.58h0c.13-.17.27-.33.4-.5,0,0,0,0,.01,0-.09.2-.27.34-.42.5Zm2.73-3.7s0,0,0,0c-.12.18-.28.32-.44.47h0c.14-.16.29-.31.43-.47Zm-33.1-48.04c-1.54-.43-2.94-1.14-4.36-1.95-1.52-.87-2.63-2.32-4.34-2.86-1.74-2.01-4.04-3.46-5.56-5.73-1.15-1.7-1.86-3.44-1.94-5.47.03-1.14.07-2.28.08-3.43,0-.47-.08-.91-.46-1.25-.03-.11-.02-.23.01-.34.4-.28.46-.68.43-1.13-.03-.42-.05-.84-.07-1.26-.02-1.8-.02-3.59.36-5.37.17-.8.08-1.65.1-2.48.68-.99.6-2.1.47-3.21.08-.13.22-.26.22-.39.06-1.57.61-3.06.8-4.61.71-.49.34-1.23.43-1.86h0c.4-.23.51-.56.37-.99.31-1.4.55-2.83.96-4.21.9-3.04,1.88-6.06,2.83-9.09,0,0,0,0,0,0,.29-.09.4-.28.31-.57.05-.12.09-.24.12-.37.47-.37.47-.88.41-1.41.14-.33.27-.66.41-.98h0s0,0,0,0c.76-.38.35-1.16.58-1.72h0c.62-.37.54-.9.36-1.46,1.14-1.96,1.78-4.17,2.94-6.11.86-1.44,1.13-3.11,1.99-4.55,1.62-2.72,2.41-5.85,4.23-8.45.15.24.48.54.52.87.2,1.49.55,2.95.82,4.42.31,1.71.19,3.5.22,5.25.02,1.27-.28,2.53.26,3.82.22.52-.18,1.31-.3,1.98,0,.63,0,1.26,0,1.89,0,.29,0,.59,0,.88-.3.79.19,1.57.03,2.36-.08.13-.09.26-.02.4,0,1.42-.43,2.87.37,4.21.02.88-.12,1.77.14,2.64-.04.28.09.45.32.57.06.14.05.28-.03.4-.68.65-.51,1.28.03,1.9.04.14.05.28.06.42-.16.34-.11.67.05,1-.01.12-.01.24,0,.36-.14.55-.19,1.08.35,1.47h0c0,.39,0,.77,0,1.15,0,.34.19.55.52.65.51.39.54.9.26,1.41-.83,1.49-.94,3.13-1.23,4.77-.39,2.22-.62,4.46-.99,6.68-.5.35-.44.69,0,1.02.07.12.06.24-.02.35-.27.18-.42.43-.41.76.05,2.19.1,4.39.17,6.58.02.51-.18,1.08.37,1.46h0c-.02.6-.05,1.21-.05,1.82,0,.39.12.75.51.93h.02c.1.79-.39,1.68.36,2.38.01.14.05.26.12.38-.09.33-.18.66-.02.99-.05.13-.05.26.01.39-.26.6.05,1.36-.56,1.85-.85.53-.75,1.48-.87,2.26-.17,1.12-.31,2.25-.45,3.38-.08.6-.01,1.22-.02,1.83,0,.38.12.84-.06,1.11-.6.91-.41,1.93-.5,2.9-.15,1.71-.13,1.77-1.71,1.33Zm121.04-219.15c0-.07-.02-.14-.04-.2.02.06.04.12.04.2,0,0,0,0,0,0Zm-13.74-49.84c.19.1.34.26.47.42,0,0,0,0,0,0-.16-.14-.32-.29-.49-.43,0,0,0,0,.01,0Zm-12.75-23.9s0,0,0,0c-.15,0-.27.06-.36.15.09-.09.2-.15.36-.15Zm-21.32,16.01c.15-.15.29-.31.48-.42,0,0,0,0,0,0h0s0,0,0,0c-.16.14-.32.28-.49.41,0,0,0,0,0,0Zm6.92-6.45c.15-.15.29-.31.48-.42,0,0,0,0,0,0-.16.14-.32.28-.48.42,0,0,0,0,0,0Zm-12.91,77.88h0c-.15-.15-.31-.28-.41-.47h0s0,0,0,0c0,0,0,0,0-.01.14.16.28.32.42.48,0,0,0,0,0,0Zm-7.33-42.34c-.06.05-.11.1-.16.15.04-.06.09-.11.16-.15,0,0,0,0,0,0Zm-1.88,85.68s0,0,0,0c.15-.16.3-.32.51-.41,0,0,0,0,0,.01-.17.13-.33.26-.5.39Zm-9.22,13.8h0s0,0,0,0c.16.14.32.28.48.42,0,0,0,0,0,0,0,0,0,0,0,0-.2-.1-.33-.26-.47-.42-.17-.14-.33-.29-.43-.49,0,0,0,0,.01,0h0s0,0,0,0c.13.16.27.31.4.47,0,0,0,0,0,0,0,0,0,0,0,0Zm28.66,5.18s0,0,0,0c.05-.26.2-.42.47-.44,0,0,0,0,0,0-.26.04-.42.19-.47.44Zm-30.53-4.21c.17.13.32.27.44.45,0,0,0,0,0,0-.15-.15-.3-.3-.45-.45,0,0,0,0,0,0Zm2.43-8.67c-.1,0-.18.03-.25.07.07-.04.15-.07.25-.07,0,0,0,0,0,0Zm-39.19,52.99h0s0,0,0,0h0Zm-1.39,58.38c.2-.32.33-.7.4-1.07.29-1.5.94-2.84,1.53-4.23.56-1.31,1.12-2.65,1.54-4.02.43-1.39,1.53-2.46,1.71-3.95.03-.27.27-.57.5-.74.46-.33.69-.74.86-1.29.27-.87.56-1.76,1.48-2.22.17-.09.34-.35.36-.56.2-1.5,1.47-2.38,2.09-3.64.59-1.21.91-2.56,1.88-3.58.05-.05.13-.07.23-.12.62.93,1.14,1.81,1.16,3.06.02,1.18.59,2.34.92,3.51,0,.45-.01.89-.01,1.34,0,.4.15.72.53.91.9,2.31,1.27,4.79,2.25,7.1.6,1.42.66,3.07.95,4.63.04.22-.04.47.03.68.26.86.75,1.71.77,2.57.01.9-.09,1.86.15,2.69.38,1.35.28,2.71.42,4.06,0,.34-.03.68,0,1.01.03.29.07.28.45,0,.13-.03.25-.03.38.01.04.28.22.39.48.42.14.18.26.37.42.53.18.19.47.17.53-.04.1-.36.03-.76.11-1.13.34-1.54.53-3.14,1.66-4.39.2-.22.41-.53.41-.8,0-1.44,1.31-2.37,1.37-3.83.02-.56.8-1.05,1.07-1.69.9-2.11,1.51-1.83,2.75-.11.48.66.76,1.48,1.06,2.26.6,1.55,1.15,3.12,1.73,4.67.11.28.29.54.44.8-.16.61.02,1.12.33,1.6.04.08.08.16.16.22,0,.14.03.29.07.42-.19.46.05.72.43.92h0c-.07.55-.06,1.06.39,1.45.43,1.92.89,3.84,1.29,5.77.24,1.17.35,2.37.58,3.55.17.89-.01,1.84.54,2.66.4.59-.25,1.18-.01,1.78-.01.79-.05,1.58-.02,2.37,0,.17.22.33.34.49.24.58.07,1.16.04,1.75-.83,1.17-.39,2.43-.24,3.67,0,.05.12.09.18.13l.02.78c-.28.08-.4.25-.35.54h0c-.51.37-.49.88-.39,1.42-.07.12-.08.25-.04.38-.16.35-.03.68.05,1.01-.78,1.34-1.15,2.85-1.43,4.33-.37,1.97-1.38,3.65-2.06,5.47-.15.4-.96.44-1.17.07-.42-.72-.88-1.43-1.3-2.14-1.56-2.6-3.03-5.25-4.49-7.9-.4-.73-.74-1.5-1-2.29-.27-.82-.96-1.4-1.23-2.15-.26-.73-.62-1.36-.97-2.03-.73-1.41-1.46-2.85-1.63-4.48-.03-.3-.08-.61-.15-.91-.22-.94-.6-1.48-.98-1.38-.7.18-.91.83-1.08,1.38-.2.64-.29,1.36-.21,2.02.26,2.16-.27,4.19-.91,6.2-.52.73-.53,1.53-.37,2.36-.05.49-.09.99-.45,1.39-.79.67-.47,1.53-.41,2.35-.49,2.59-.98,5.18-1.47,7.76-.61.54-.33,1.25-.38,1.9h0c-.35.22-.67.44-.46.92.04.68.23,1.41-.2,2-1.01,1.41-.86,3.22-1.66,4.69.18.77-.48,1.24-.65,1.85-.27.96-.74,1.76-1.21,2.6-.48.86-.86,1.79-1.14,2.73-.18.6-.81.94-.78,1.61-.13.04-.25.1-.37.16-.28.05-.45.2-.45.49-.16-.02-.33-.04-.49-.06-.14-.16-.28-.33-.43-.49.04-.42-.01-.81-.46-1.01-.03-.3-.07-.6-.07-.9,0-1.13-.86-1.89-1.17-2.87-.28-.91-.09-1.91-.71-2.81-.59-.85-.95-1.87-.93-2.98.01-1.01-.59-1.85-.81-2.8-.21-.6.27-1.37-.43-1.86-.28-.65-.73-1.14-.72-2,.01-1.14-.51-2.29-.8-3.44.09-.4.08-.77-.32-1.02-.03-.13-.07-.26-.11-.38.1-.83.21-1.65-.37-2.37-.29-2.24-.95-4.42-1.01-6.69,0-.23-.05-.45-.08-.68-.11-.97-1-1.81-.7-2.81.28-.95-.26-1.78-.13-2.68-.07-1.09.2-2.23-.42-3.25h0c-.02-.47-.05-.94-.07-1.4h0c.01-.13.02-.26,0-.39l-.03-5.15c.04-1.2.08-2.41.12-3.61.74-.47.37-1.21.44-1.85h0c.65-.86.44-1.85.42-2.8.25-2.28.69-4.5,1.94-6.49Zm-.54,72.4h0c-.16-.15-.32-.29-.41-.49,0,0,.01.01.02.01.13.16.26.32.39.48Zm4.72,13.27c.02.18.09.3.21.39-.12-.08-.2-.21-.21-.39,0,0,0,0,0,0Zm123.25-229.3c-.03-.27-.17-.42-.44-.47,0,0,0,0,0,0,.27.04.43.19.44.47,0,0,0,0,0,0Zm-3.45-11.28s0,0,0,0c.01.13.04.23.11.32-.07-.08-.11-.18-.11-.32Zm-15.27-37.26c-.07.06-.15.13-.22.19-.02-.03-.03-.06-.05-.09.09-.03.18-.07.27-.1Zm-7.85-32.72s0,0,0,0c-.13-.07-.24-.18-.35-.28.12.09.24.19.36.28Zm2.78-14.69s0,0,0,0h0s0,0,0,0h0s0,0,0,0c0,0,0,0-.01,0,0,0,0,0,0,.01-.15.15-.3.3-.44.44,0,0,0,0,0,0,.12-.19.27-.34.46-.46.12-.19.27-.34.46-.45,0,0,0,0,0,0,0,0,0,0,0,0-.15.15-.3.29-.45.44Zm1.9-2.24s0,0,0,0c0-.07.03-.12.05-.18-.02.05-.04.11-.05.18Zm.61-.78c.08-.07.18-.12.31-.12,0,0,0,0,0,0-.12.02-.23.05-.31.12Zm3.56-3.35s0,0,0,0c0,0,0,0,0,0-.26.04-.41.19-.45.46,0,0,0,0,0,0,.02-.29.17-.44.46-.46.02-.29.17-.44.46-.46,0,0,0,0,0,0-.26.04-.41.2-.45.46Zm2.29-3.7s0,0,0,0c.02-.15.08-.27.18-.35-.09.09-.15.2-.18.35Zm-11.18-8.87s0,0,0,0c-.13.18-.28.33-.47.43,0,0,0,0,0-.01.15-.14.31-.28.46-.42Zm-36.01,22.52s0,0,0,0c-.05.26-.2.42-.47.44h0c.25-.04.41-.19.47-.44Zm-1.8,1.89s0,0,0,0c-.1.2-.26.35-.44.47,0,0,0,0,0,0,.15-.16.29-.31.44-.47Zm-3.74,100.86s0,0,0,0c-.01.13-.06.24-.13.32.07-.08.11-.19.13-.32Zm-1.86,3.7s0,0,0,0c0,.14-.05.24-.13.33.07-.08.12-.19.13-.32Zm-3.15,4.22s0,0,0,0h0s0,0,0,0c-.11.19-.27.33-.43.46,0,0,0,0,0,0,0,0,0,0,0,0,.14-.15.29-.31.43-.46Zm-2.73,2.78s0,0,0,0c-.15.16-.29.33-.5.41,0,0,0,0,0-.02,0,0,0,0,0,0,.16-.13.33-.26.49-.39Zm-6.46,5.06s0,0,0,0c0,0,0,0,0,0-.14.17-.28.33-.49.41,0,0,0,0,0-.01,0,0,0,0,0,0,.16-.13.33-.27.49-.4Zm-13.39,9.66s0,0,0,0c0,0,0,0,0-.01h0s0,0,0,0c0,0,0,0,0,0,.15-.15.3-.29.44-.44,0,0,0,0,0,0-.11.19-.26.34-.45.45-.1.2-.27.35-.43.5,0,0,0,0,0,0,.14-.16.28-.33.43-.49Zm-6.92,5.99s0,0,0,0c0,0,0,0,0-.01,0,0,0,0,0,0,.16-.14.32-.28.47-.42,0,0,0,0,0,0-.14.17-.28.34-.48.43-.1.21-.27.35-.43.5h0c.14-.16.28-.33.42-.49Zm-3.7,4.15s0,0,0,0c-.1.2-.26.35-.44.47,0,0,0,0,0,0,.14-.16.29-.31.43-.46Zm-3.69,4.61s0,0,0,0c-.1.2-.25.34-.43.47,0,0,0,0,0,0,.14-.15.28-.31.42-.46Zm-5.03,7.85s0,0,0,0c-.13.17-.27.33-.47.42,0,0,0,0,0,0,0,0,0,0,0,0,.16-.14.32-.28.48-.42Zm-5.9,9.57s-.1.03-.16.04h0c.06,0,.11-.02.16-.04Zm-2.5,4.65s0,0,0,0c0,.1-.02.18-.06.25.03-.07.05-.15.05-.25Zm-1.82,157.33s0,0,0,0c.26.06.43.2.44.49,0,0,0,0,0,0-.03-.26-.18-.43-.44-.49Zm13.92,24.36s0,0,0,0h0c.14-.17.28-.33.49-.42,0,0,0,0,0,.01,0,0,0,0,0,0-.16.14-.33.27-.49.41Zm12.53-20.21s0,0,0,0c.03-.18.11-.3.24-.38-.13.08-.21.21-.24.38Zm3.17-4.66s0,0,0,0h0s0,0,0,0c.1-.19.26-.33.42-.47,0,0,0,0,0,0h0c-.14.16-.28.32-.42.48Zm6.93-9.67s0,0,0,0h0s0,0,0,0c.09-.2.25-.34.42-.48,0,0,0,0,0,0-.14.16-.27.32-.41.48Zm6.04-8.24s0,0,0,0c0-.03.02-.07.04-.1-.01.03-.02.07-.04.1Zm1.37-1.86s0,0,0,0c0-.05.02-.11.04-.15-.02.05-.03.1-.04.15Zm3.63-3.74h-.01c.11-.18.27-.33.45-.45,0,0,0,0,0,0-.15.15-.29.3-.44.45Zm.98-1.33s0,0,0,0c.02-.15.09-.26.19-.34-.1.08-.16.19-.19.34Zm53.72-128.51c.06-.03.13-.05.21-.05,0,0,0,0,0,0-.08,0-.15.02-.21.05Zm2.42-1.99s0,0,0,0c.14-.16.29-.32.46-.44,0,0,0,0,0,0,0,0,0,0,0,0-.15.15-.31.29-.46.44Zm7.39-6.44s0,0,0,0c.13-.18.28-.34.49-.43,0,0,0,0,0,.01-.16.14-.32.28-.48.41Zm7.44-8.23s0,0,0,0c.02-.13.07-.23.14-.31-.07.08-.12.18-.14.31Zm4.61-7.38s0,0,0,0c.04-.19.13-.32.28-.4-.15.08-.24.22-.28.4Zm.92-1.38s0,0,0,0c.02-.1.05-.19.11-.26-.05.07-.09.16-.11.26Z"/><path class="cls-1" d="m316.49,290.51c-.14.19-.28.39-.42.58.24-.12.39-.31.42-.58Z"/><path class="cls-1" d="m316.9,290.04c-.14.16-.27.32-.41.48.28-.04.41-.2.41-.48Z"/><path class="cls-1" d="m243.68,162.39c.15-.15.3-.3.46-.46-.23.07-.42.19-.46.46Z"/><path class="cls-1" d="m260.73,283.14c.16-.14.31-.29.47-.43-.28.01-.45.13-.47.43Z"/><path class="cls-1" d="m226.57,459.42c-.21.21-.43.43-.64.64.36-.07.57-.28.64-.64Z"/><path class="cls-1" d="m217.35,471.54s0,0,0,0c0,0,0,0,0,0h0c-.26.1-.33.33-.37.57.12-.19.25-.38.37-.57,0,0,0,0,0,0Z"/><polygon class="cls-1" points="319.29 273.51 319.29 273.51 319.29 273.51 319.29 273.51"/><polygon class="cls-1" points="318.85 276.25 318.85 276.25 318.85 276.25 318.85 276.25"/><path class="cls-1" d="m270.78,331.04c.19-.13.37-.26.56-.39-.26.02-.46.13-.56.39Z"/><path class="cls-1" d="m290.12,251.62c.16-1.19.14-2.38-.35-3.52.02-.26-.07-.45-.35-.51,0-.27,0-.55,0-.82.29-.11.38-.3.26-.59,0,0,0,0,0,0,0,0,0,0,0,0,0-.1,0-.2,0-.3-.03-.66.29-1.39-.4-1.91-.36-1.4-.73-2.79-.93-4.23-.15-1.11-.47-2.21-.82-3.27-.21-.63-.76-1.17-.4-1.91-.44-1.37-.48-2.87-1.22-4.15-.19-.33-.43-.63-.41-1.04.05-1.05-.52-1.92-1-2.75-1.13-1.97-1.8-4.15-3.04-6.07-.86-1.33-1.61-2.74-2.52-4.06-.82-1.17-1.91-2.08-2.81-3.17-.62-.75-1.13-1.64-2.09-2.07-.45-.45-.89-.89-1.34-1.34l-.03-.04c0-.27-.15-.41-.42-.43l-.04-.03c-.14-.35-.44-.5-.78-.57-.08-.34-.15-.69-.56-.81l-.02-.02c-.15-.44-.5-.47-.88-.43-.09-.13-.2-.17-.35-.09-.84-.61-.98-.61-1.73-.03,0,0,0,0,0,0l-.15-.03-.08.13c-.54.08-.46.5-.48.87-.38.18-.34.38-.03.59,0,0,0,0,0,0-.06.18,0,.3.18.37l-.12,1.37s0,0,0,0t0,0c-.11.1-.29.19-.31.3-.21,1.28-.92,2.3-1.6,3.35-.27.1-.4.28-.31.58,0,0,0,0,0,0,0,0,0,0,0,0-.05.12-.09.25-.12.37-.38.42-.55.89-.37,1.45-.76,1.9-1.41,3.82-1.8,5.86-.4,2.15-.92,4.28-1.12,6.47-.34.96-.48,1.92,0,2.88.04.11.03.22,0,.34-.43.87-.46,1.1-.35,2.84l.02.88c0,.93-.02,1.87-.02,2.8.02.38-.06.8.07,1.14.74,1.97.32,4.07.69,6.11.39,2.16.6,4.34,1.28,6.46.32,1.01.88,1.96,1.03,2.96.18,1.16.6,2.2,1.05,3.24.78,1.8,1.63,3.58,2.46,5.36,1.05,2.26,1.99,4.55,3.13,6.79,1.13,2.21,2.16,4.47,3.41,6.63.45.78.74,1.66,1.1,2.5.66,1.53,1,3.22,2.25,4.46.14.14.18.41.2.63.11,1.3,1.03,1.55,2.09,1.67.59.06.96-.07,1.36-.57,1.4-1.76,1.85-3.97,2.88-5.91.65-1.23,1.42-2.51,1.6-3.97,1.34-1.98,1.07-4.59,2.55-6.53.08-.11.12-.3.11-.44-.16-1.27.61-2.32.8-3.5.1-.6.35-1.18.41-1.79.25-2.56.45-5.12.67-7.67h0c.46-1.07.43-2.34-.1-3.74-.13-.35-.18-.68-.13-1.09Zm-13.94-6.47c-1.16-.42-2.53-.25-3.9-.24-.84,0-1.44-.5-1.78-1.23-.37-.82-.28-1.64.3-2.36.87-1.08,2.02-1.58,3.39-1.63,1.25-.04,2.39.45,3.57.73.44.1.77.47.97.91.76,1.62-.59,3.8-2.55,3.82Z"/></svg>